/* XPM */
static char *rcp06442739121252[] = {
/* columns rows colors chars-per-pixel */
"64 64 95 2 ",
"   c #04040A",
".  c #08070D",
"X  c #09090F",
"o  c #0D0D15",
"O  c #0F0F19",
"+  c #150D16",
"@  c #1C0C15",
"#  c #150F1A",
"$  c #0F1014",
"%  c #121217",
"&  c #13131C",
"*  c #1A131E",
"=  c #34080F",
"-  c #240D13",
";  c #2B0D15",
":  c #250F19",
">  c #340C13",
",  c #3A0D13",
"<  c #251017",
"1  c #2A1316",
"2  c #22111B",
"3  c #2F141C",
"4  c #351219",
"5  c #3E161C",
"6  c #161621",
"7  c #191622",
"8  c #1B1B24",
"9  c #1E1D29",
"0  c #211621",
"q  c #261B26",
"w  c #2D1A24",
"e  c #201E2C",
"r  c #3D1723",
"t  c #361924",
"y  c #3A1D29",
"u  c #1F2026",
"i  c #212126",
"p  c #23232C",
"a  c #28242A",
"s  c #27282E",
"d  c #292A2E",
"f  c #352022",
"g  c #32262A",
"h  c #3B212E",
"j  c #3F2D2E",
"k  c #262432",
"l  c #292734",
"z  c #2C2C33",
"x  c #2E2B39",
"c  c #352532",
"v  c #392633",
"b  c #352837",
"n  c #392F31",
"m  c #342F3E",
"M  c #3A2D3C",
"N  c #2F3134",
"B  c #333436",
"V  c #34333A",
"C  c #39303E",
"Z  c #44090F",
"A  c #5F0A0D",
"S  c #430E14",
"D  c #530F14",
"F  c #451117",
"G  c #43121A",
"H  c #4B131B",
"J  c #4E1D1F",
"K  c #5A1014",
"L  c #56191E",
"P  c #5D1A1F",
"I  c #67090B",
"U  c #740E15",
"Y  c #641215",
"T  c #67191D",
"R  c #721E1F",
"E  c #4C1520",
"W  c #4B1C24",
"Q  c #571420",
"!  c #571B26",
"~  c #5F1C22",
"^  c #641D27",
"/  c #6C1E21",
"(  c #4F2627",
")  c #4A212F",
"_  c #4A292A",
"`  c #432B39",
"'  c #6E2625",
"]  c #732027",
"[  c #2E2F40",
"{  c #372F40",
"}  c #382F40",
"|  c #363040",
" . c #383040",
".. c #893034",
"X. c #A93C41",
/* pixels */
"B B B B B B B B B B B B B B B B B B B B B B B B B B B B B B B B B B B B B B B B B B B B B B B B B B B B B B B B B B B B B B B B ",
"B B B B B B B B B B B B B B B B B B B B B B B B B B B B B B B B B B B B B B B B B B B B B B B B B B B B B B B B B B B B B B V V ",
"B B B B B B B B B B B B B B B B B B B B B B B B B B B B B B B B B B B B B B B B B B B B B B B B B B B B B B B B B B B B B B B B ",
"B B B B B B B B B B B B B B B B B B B B B B B B B B B B B B B B B B B B B B B B B B B B B B B B B B B B B B B B B B B B B B B B ",
"B B B B B B B B B B B B B B B B B B B B B B B B B B B B B B B B B B B B B B B B B B B B B B B B B B B B B B B B B B B B B B B V ",
"B B B B B B B B B B B B B B B B B B B B B B B B B B B B B B B B B B B B B B B B B B B B B B B B B B B B B B B B B B B B B B B V ",
"B B B B B B B B B B B B B B B B B B B B B B B B B B B B B B B B B B B B B B B B B B B B B B B B B B B B B B B B B B B B B B B B ",
"B B B B B B B B B B B B B B B B B B V V B B B B B B B B B B B B B B B B B B B B B B B B B B B B B B B B B B B B B B B B B B B B ",
"B B B B B B B B B B B B B B B B B 9 8 8 8 8 8 8 8 8 8 8 p B B B B B B B B B B B B B B B B B B B B B B B B B B B B B B B B B B B ",
"B B B B B B B B B B B B B B s 9 9 & & & & & & & & & & & & 8 8 s B B B B B B B B B B B B B B B B B B B B B B B B B B B B B B B B ",
"B B B B B B B B B B B z 8 8 s x x x x l 9 6 6 6 6 6 6 6 6 6 & & i B B B B B B B B B B B B B B B B B B B B B B B B B B B B B B B ",
"B B B B B B B B B B s 9 m m m C C C C m x e 8 6 6 6 6 6 6 6 6 6 & & z B B B B B B B B B B B B B B B B B B B B B B B B B B B V V ",
"B B B B B B B B B 9 s V C C C | | | | | C V k 8 6 6 6 6 6 6 6 6 & & z B B B B B B B B B B B B B B B B B B B B B B B B B B B B B ",
"B B B B B B B z 6 x | | | | | | | | | | C C k 8 6 6 6 6 6 6 6 6 6 & o a B B B B B B B B B B B B B B B B B B B B B B B B B B B B ",
"B B B B B B B z 7 x | | { { { { { { | | | | l 9 6 6 6 6 6 6 6 6 6 & O s B B B B B B B B B B B B B B B B B B B B B B B B B B B B ",
"B B B B B B s 8 C C | | { { { { { { | | | | C k 6 6 6 6 6 6 6 6 6 & & i z B B B B B B B B B B B B B B B B B B B B B B B B B B B ",
"B B B B B B s 8 C C | | |  .{ { | | | C | | | k 6 6 6 6 6 6 6 6 6 6 6 & 9 B B B B B B B B B B B B B B B B B B B B B B B B B B B ",
"B B B B B z s p C C | | | | C C | | | m m C m p 6 6 6 6 6 6 6 6 6 6 6 & 9 B B B B B B B B B B B B B B B B B B B B B B B V V B B ",
"B B B B B 9 p C | | | | C C C C | | | m m C k 8 6 6 6 6 6 6 6 6 6 6 6 & 9 B B B B B B B B B B B B B B B B B B B B B B B V B B B ",
"B B B B B 9 p C m } { { M M b c v M M M C C p 8 6 6 6 6 6 6 6 6 6 6 6 & 9 B B B B B B B B B B B B B B B B B B B B B B B B B B B ",
"B B B B B 9 p C m m { } M h r E ^ Q ) M m l 9 6 6 6 6 6 6 6 6 6 6 6 6 & 9 B B B B B B B B B B B B B B B B B B B B B B B B B B B ",
"B B B B B 9 p C | | { } M r H ] X.U ! ` m e 8 6 6 6 6 6 6 6 6 6 6 6 6 & 9 B B B B B B B B B B B B B B B B B B B B B B B B B B B ",
"B B B B B 9 p C m m { m M t G ~ ..Y W v p 8 6 6 6 6 6 6 6 6 6 6 6 & & i i & & & & & 6 6 6 & 8 z B B B B B B B B B B B B B V B B ",
"B B B B B 9 p C m m | C C M y 5 H F t q 6 6 6 6 6 6 6 6 6 6 6 6 6 & o & & O & & 6 & 6 6 6 & & & & i B B B B B B B B B B B B B B ",
"B B B B B 9 p C | | | |  .M M c w w 0 7 6 6 6 6 6 6 6 6 6 6 6 6 & O & & & 6 6 6 6 6 6 6 8 9 9 x p 8 & z B B B B B B B B B B B B ",
"B B B B B 9 8 k | | | | m k 9 7 7 7 & & 6 6 6 6 6 6 6 6 6 6 6 6 6 6 6 6 6 6 6 6 6 6 6 6 6 8 p m V l 9 & s B B B B B B B B B B B ",
"B B B B B 9 8 9 e e e 9 6 6 6 * * + + & 6 6 6 6 6 6 6 6 6 6 6 6 6 6 6 6 6 6 6 6 6 6 6 & 6 6 6 9 x V x & s B B B B B B B B B B B ",
"B B B B B 9 6 6 * * * * * * * 2 3 : @ # 6 6 6 6 6 6 6 6 6 6 6 6 6 6 6 6 6 6 6 & & 6 & O & & 6 6 9 l m k & 9 B B B B B B B B B B ",
"B B B B B i 7 * 2 2 2 2 : : 3 4 = > : * 6 6 6 6 6 6 6 6 & O 6 6 6 6 6 6 6 6 6 & O O O o i s o & 6 9 [ | 8 9 B B B B B B B B B B ",
"B B B B B B a < , S , > , F F S , ; 2 * 6 6 6 6 6 6 6 & O O 6 6 6 6 8 9 9 6 6 & & 6 6 & i s & & 6 8 9 x 8 9 B B B B B B B B B B ",
"B B B B B B g 5 Y I A D D T K Z ; * * 6 6 6 6 6 6 6 & & & 6 6 7 8 8 k e 8 6 6 6 6 6 6 & i B B & & 6 6 9 & 9 B B B B B B B B B B ",
"B B B B B B n _ ' R / P Z L F ; * 6 6 6 6 6 6 & & & & 6 8 8 8 p l l l 9 6 6 6 6 6 6 6 O i z i & & & 6 8 & 9 B B B B B B B B B B ",
"B B B B B B B j ( J J W > ; 2 * & & 6 6 6 & & 6 8 o 7 p l l l m m l 9 7 6 6 6 6 6 & & 9 i 8 & & & & 6 6 & 8 a B B B B B B B B B ",
"B B B B B B B n j f 1 - @ + & & & & & & & u i s z i 7 8 9 9 p p e 8 6 6 6 6 6 6 6 & O 8 8 8 8 8 8 8 6 6 6 & & B B B B B B B B B ",
"B B B B B B B B B B d a a a s a s a a a s B B B B B & & & & 6 6 6 6 6 6 6 6 6 6 & 6 k 8 p l 9 8 9 9 8 6 8 6 & B V B B B B B B B ",
"B B B B N B B B B B B B B B B B B B B B B N N B B B l 8 & 6 6 6 6 6 6 6 6 6 6 6 & 6 V z p 8 & 6 k k 8 9 l e & B B B B B B B B B ",
"B B B B B B B B B B B B B B B B B B B B N N N N B B B 9 O 6 6 6 6 6 6 6 6 6 6 & & & p 9 & 8 l 8 l l 6 6 l p & B B B B B B B B B ",
"B B B B B B B B B B B B B B B B B B N N N N N B B B B 9 & 9 7 6 6 6 6 6 6 6 6 & 9 l & & i z B 8 l s & l V p & N B B B B B B B B ",
"B B B B B B B B B B B B B B B B B B N N B B B B B B B u 8 V k 8 6 6 6 6 6 6 6 & i s o s B B B i 8 i B B 9 & & B B B B B B B B B ",
"B B B B B B B B B B B B B B B B B B B B B B N N B B B u & p m l 9 6 6 9 8 6 & & i B B B B B B i & 9 z & $ u B B B B B B B B B B ",
"B B B B B B B B B B B B B B B B B B B N B B B B B B B p 8 e x k 9 9 9 8 & & & s B B B B B B z & a B z & s B B B B B B B B B B B ",
"B B B B B B B B B B B B B B B B B B B B B B B B B B B a & 6 6 6 & 6 6 6 & & N B B B B B B s & z B B B B B B B B B B B B B B B B ",
"B B B B B B B B B B B B B B B B B B B B B B B B B B B p & 6 6 6 6 6 6 6 & & N B B B B B B B B B B B B B B B B B B B B B B B B B ",
"B B B B B B B B B B B B B B B B B B B B B B B B B B l 9 6 6 6 6 6 6 6 & & 9 B B B B B B B B B B B B B B B B B B B B B B B B B B ",
"B B B B B B B B B B B B B B B B B B B B B B B B B B 8 & 6 6 6 6 6 6 6 & 9 B B B B B B B B B B B B B B B B B B B B B B B B B B B ",
"B B B B B B B B B B B B B B B B B B B B B B B B z p 8 6 6 6 & & & & & 8 s B B B B B B B B B B B B B B B B B B B B B B B B B B B ",
"B B B B B B B B B B B B B B B B B B B B B B B B l & & 6 6 6 O O o o o a B B B B B B B B B B B B B B B B B B B B B B B B B B B B ",
"B B B B B B B B B B B B B B B B B B B B B B B B s & & 6 7 9 6 O o & a z B B B B B B B B B B B B B B B B B B B B B B B B B B B B ",
"B B B B B B B B B B B B B B B B B B B B B B B B l o & 6 8 9 9 & o & z B B B B B B B B B B B B B B B B B B B B B B B B B B B B B ",
"B B B B B B B B B B B B B B B B B B B B B B B B s o & 6 8 p p 6 o & z B B B B B B B B B B B B B B B B B B B B B B B B B B B B B ",
"B B B B B B B B B B B B B B B B B B B B B B B B s o & 6 8 p p 6 8 B B B B B B B B B B B B B B B B B B B B B B B B B B B B B B B ",
"B B B B B B B B B B B B B B B B B B B B B B B B B B 6 & 8 p p 6 8 B B B B B B B B B B B B B B B B B B B B B B B B B B B B B B B ",
"B V B V B B B B B B B B B B B B B B B B B B B B N B B 9 O & 9 8 & & z B B B B B B B B B B B B B B B B B B B B B B B B B B B B B ",
"B B B B B B B B V B B B B B B B B B B z z z z 8         . o 8 8 6 & o X       u z z d d B B B B B B B B B B B B B B B B B B B B ",
"B B B B B B B B B B B B B B B B B B 8 $ $ % .             . o o o o o o X       X % $ $ i B B B B B B B B B B B B B B B B B B B ",
"B B B B B B B B B B B B B B B B B B B B V V 8 % % % % % % & & & % % & & & % % & i B B B B B B B B B B B B B B B B B B B B B B B ",
"B B B B B B B B V B B B B B B B B B B B B V B B B B B B B B B B B B B B B B B B B B B B B B B B B B B B B B B B B B B B B B B B ",
"B B B B B B B B V B B B B B B B B B B B B B B B B B B B B B B B B B B B B B B B B B B B B B B B B B B B B B B B B B B B B B B B ",
"B B B B B B B B B B B B B B B B B B B B B B B B B B B B B B B B B B B B B B B B B B B B B B B B B B B B B B B B B B B B B B B B ",
"B B V V B B B B B B B B B B B B B B B B B B B B B B B B B B B B B B B B B B B B B B B B B B B B B B B B B B B B B B B B B B B B ",
"B B B B B B V V B B B B B B B B B B B B B B B B B B B B B B B B B B B B B B B B B B B B B B B B B B B B B B B B B B B B B B B B ",
"B B V V B B B B V V B V V V V V V V V V B B B B B B B B B B B B B B B B B B B B B B B B B B B B B B B B B B B B B B B B B B B B ",
"B B B B B B B B B B B V V V V V V V V V B B B B B B B B B B B B B B B B B B B B B B B B B B B B B B B B B B B B B B B B B B B B ",
"B B B B B B B B B B B V V V V V V V V V B B B B B B B B B B B B B B B B B B B B B B B B B B B B B B B B B B B B B B B B B B B B "
};
