/* XPM */
static char *rcp06203409646780[] = {
/* columns rows colors chars-per-pixel */
"64 64 49 1 ",
"  c #07060E",
". c #08070F",
"X c #07080D",
"o c #09080E",
"O c #090712",
"+ c #090810",
"@ c #110E1F",
"# c #13111F",
"$ c #140F21",
"% c #0D1425",
"& c #071924",
"* c #081925",
"= c #141122",
"- c #211F35",
"; c #1E2233",
": c #212234",
"> c #212338",
", c #2F3535",
"< c #333436",
"1 c #343538",
"2 c #323838",
"3 c #660F0E",
"4 c #680C0F",
"5 c #770A0D",
"6 c #790A0D",
"7 c #68100F",
"8 c #670E11",
"9 c #680F11",
"0 c #7B0A10",
"q c #661011",
"w c #3F3E5C",
"e c #423D5C",
"r c #433F62",
"t c #44405B",
"y c #9D0B0D",
"u c #9D0A10",
"i c #A00A0C",
"p c #BF0C0F",
"a c #A10C10",
"s c #BF0D11",
"d c #C10E0F",
"f c #C10D11",
"g c #FC0001",
"h c #B56A5F",
"j c #B56B60",
"k c #E5AF8D",
"l c #E5B08D",
"z c #FFEFDF",
"x c #FEF1DD",
/* pixels */
"<<<<<<<<<<<<<<<<<<<<<<<<<<<<<<<<<<<<<<<<111111111111111111111111",
"<<<<<<<<<<<<<<<<<<<<<<<<<<<<<<<<<<<<<<<<111111111111111111111111",
"<<<<<<<<<<<<<<<<<<<<<<<<<<<<<<<<<<<<<<<<111111111111111111111111",
"<<<<<<<<<<<<<<<<<<<<<<<<<<<<<<<<<<<<<<<<111111111111111111111111",
"<<<<<<<<<<<<<<<<<<<<<<<<<<<<<<<<<<<<<<<<111111111111111111111111",
"<<<<<<<<<<<<<<<<<<<<<<<<<<<<<<<<<<<<<<<<111111111111111111111111",
"<<<<<<<<<<<<<<<<<<<<<<<<<<<<<<<<<<<<<<<<111111111111111111111111",
"<<<<<<<<<<<<<<<<<<<<<<<<<<<<<<<<<<<<<<<<111111111111111111111111",
"<<<<<<<<<<<<<<<<<<<<<<<<<<<<<<<<<<<<<<<<111111<111111<1111111111",
"<<<<<<<<<<<<<<<<<<<<<<<<<<<<<<<<<<<<<<<<1<<111<11<11111111111111",
"<<<<<<<<<<<<<<<<<<<<<<<<<<<<<<<<<<<<<<<<111111166<111<1111111111",
"<<<<<<<<<<<<<<<<<<<<<<<<<<<<<<<<1<<<<<<<1111111661<1<11111111111",
"<<<<<<<<<<<<<<<<<<<<<<<<<<<<<<<<<<1<<<<<<1<11<16<<1111<111111111",
"<<<<<<<<<<<<<<<<<<<<<<<<<<<<<<<<1<<<<<<<<11111166111<11111111111",
"<<<<<<<<<<<<<<<<<<<<<<<<<<<<<<<<<1<<<<<<1<<111666611<11111111111",
"<<<<<<<<<<<<<<<<<<<<<<<<<<<<<<<<<<<<<<<<11111166f661111111111111",
"<<<<<<<<<<<<<<<<<<<<<111<<<<<1====<<<11<11111<65ff612<1111<1<111",
"<<<<<<<<<<<<<<<<<1<<<<1<1<<<1##ee:.<1<<<<1<1116fff666<111111<111",
"<<<<<<<<<<<<<<<<<<<1<<<<<<<<==e&&&>+1<<<1111<66ffff666<1<1111111",
"<<<<<<<<<<<<<<<<<<<<<<1<<<<1#e&*&*=:.<1<<111<66sffff6601111<1111",
"<<<<<<<<<<<<<<<<<<<<<1<<<<<==e*g&=g:+<<<11<<66f88yyff66111111111",
"<<<<<<<<<<<<<<<<<<<<<<<1<11==e&&&==:+<1111116f889yuyf661<1111111",
"<<<<<<<<<<<<<<<<<<<<1<e<<<1$=e&*===:O<1<111<6f39y+yyf61111111111",
"<<<<<<<<<<<<<<<<<<<<<<ee<<+==e:===:=e<+111<<5f9yy++8d61111111111",
"<<<<<11<<<<<<<<<<<<<<<:e:::.==tw::=+=+=<<<116fd3yy88f6111111111<",
"<<<<<<1<<1<<<<1<1<11<<e:ee=;e ====+e+==o<<116fp.3yyf611111111111",
"<<<<<<<<<<<1<1<<<<<<<<=e=:e::=e.=+e=+=+=<<1116s+X78d611111111111",
"<<<<<<<<<<1<<<<1<<1<<e:=:ew=y::=:e==+==..<<1166 +ff61<11111<1111",
"<<<<<<<<1<<<11<<<<<1<:::=e===yy:e==8++===<<<<16+.661111<111<1<<1",
"<<<<<<<<<<<<<<11<<<<<#:=:==y::=y:e8#=+o+=<<<111+1<1<<11111111111",
"<<<<<<<<<<<<<<hlzx<111=:=::$y:::y8==41=+=+<<1<X+111<1<<11111<111",
"<<<<<<<<<<11<hlxxkh<<1:===<:=ii::e=8<<<=+ee<<<++11111<11<<1<1111",
"<<<<<<<1111<<hl+hh <<1=:=1<<::%y;:8=<11O;::e<<.+<111<11111111111",
"<<<<<<<<1<<<<jhhklh<<=e=e<<1=::=y8#<<<<<:::e<<+.1<<1111111111111",
"<<<<<<<<<11<<<hlkh1<=:=e:<<<1=::$==1<<<<<::::<+1<<<<1<1<11111111",
"<<<<<<<<<<<1<<<hkh<1:$e:<11<<a=e$=9o<1<11e:;:<.1<<1<111111111111",
"<<<<<<<1<<1<<11<<1<e:=:<1<<<=:yyq3+++<<<1ee:e..1<<<<<11111111111",
"<<<<<<<<1<<<<<1<<<<:ee:<1<<=::==+++O+<<<<<:::=:<<1<<<<1111111111",
"<<<<<<<<<<<<<<<<=<:e$:<<<<==:=:e+===+1<1,<1ee:$<<<<<<<<111111111",
"<<<<<<<<<<<<<<<1:=e=:<<<1=::=:=+==:=++1<<<<<==:<1<11<<<111111111",
"<<<<<<<<<<1<<<<<::=:<1<<<=:==:e+=:===+1<<<<<<+<<<<<1<1<<<1111111",
"<<<<<<<<<<<<<<<<1::<<<<1===:=:.=::#==++1<1<<<+<<<<<1<<<<<<111111",
"<<<<<<<<<<<<<<1<<<<<1<<=:==:=#o#=====++<<<<<<o<<<<<<1<<1<1<111<1",
"<<<<<<<<<<<<<<1<<<11<<<==:=:=r=.==:=== <<1<<O1<<<<<<<<<<<<<<1111",
"<<<<<<<<<<<<<<<<<<<<<<<=#;==e=:+=:;:==+1<<<<+<<<<<<<<<<<<<<<1111",
"<<<<<<<<<<<<<<<<<<11<<<=;==e=:<.=:<::=o<1<<<+<11<<<<<<<<<<<<<111",
"<<<<<<<<<<<<<<<<<<<<<<<<==e=e:1+=<<:;:+1<<1<+<<<<<<<<<<1<<<<<<<<",
"<<<<<<<<<<<<<<<<11<<<<<<<=e=:=<<.<;:.:+1<<<<+<<<<<<<<1<<<<<<<<<<",
"<<<<<<<<<<<<<<<<<<<<<<<<==;:#<<<<1:+@+:<<<<+<<1<<<<<<<<<<<<<<<<<",
"<<<<<<<<<<<<<<<<<<<<<<<1=:::=1<<<+.==+:<<<<+1<<<<<<<<<<<<<<<<<<<",
"<<<<<<<<<<<<<<<<<<<<<1<=:::==<<11.=#.++<<<<o<<<<<<<<<<<<<<<<<<<<",
"<<<<<<<<<<<<<<<<<<<<<<<=::==<<<<<==++++<<<<+1<<<<<<<<<<<<<<<<<<<",
"<<<<<<<<<<<<<<<<<<<<<<<1=;#=<1<<1<+++.1<1<<+1<<<<<<<<<<<<<<<<<<<",
"<<<<<<<<<<<<<<<<<<<<<<<1:==<<<<1<++++<<<<<+<<<<<<<<<<<<<<<<<<<<<",
"<<<<<<<<<<<<<<<<<<<<<<<::#<<,1<<<+. 1<<11<+<1<<<<<<<<<<<<<<<<<<<",
"<<<<<<<<<<<<<<<<<<<<<<<::=<<<<1<<++o<<1<<<+<<<<<<<<<<<<<<<<<<<<<",
"<<<<<<<<<<<<<<<<<1<<<<<:==<<<<<1<1++1<<<1<11<<1<<<<<<<<<<<<<<<<<",
"<<<<<<<<<<<<<<<<<<<<<<::$=<<<<1<1< ==<<<1<<<<<<<<<<<<<<<<<<<<<<<",
"<<<<<<<<<<<<<<<<<<<<<<:$=<<<<<<<<<1==1<<<<<<<<<<<<<<<<<<<<<<<<<<",
"<<<<<<<<<<<<<<<<<<<<<<-==<<<<<<<<<<<=<1<<<1<<<<<<<<<<<<<<<<<<<<<",
"<<<<<<<<<<<<<<<<<<1<<<-==<,<<<<,<1<<<<1<1<<<<<<<<<<<<<<<<<<<<<<<",
"<<<<<<<<<<<<<<<<<<<<<<<=<<<<<<<<1<<<<<1<<<<<<<<<<<<<<<<<<<<<<<<<",
"<<<<<<<<<<<<<<<<<<<<<<<<<<<<<<<<<<1<<<<<<<<<<<<<<<<<<<<<<<<<<<<<",
"<<<<<<<<<<<<<<<<<<<<<<<,<<<<<<<,<<111<1<1<<<<<<<<<<<<<<<<<<<<<<<"
};
