/* XPM */
static char *rcp0618571433818[] = {
/* columns rows colors chars-per-pixel */
"64 64 232 2 ",
"   c #07060E",
".  c #07070F",
"X  c #09070C",
"o  c #08070D",
"O  c #08050E",
"+  c #0B050F",
"@  c #08070F",
"#  c #0A070E",
"$  c #07080D",
"%  c #09080D",
"&  c #08090D",
"*  c #09080E",
"=  c #08090E",
"-  c #080611",
";  c #0A0710",
":  c #090712",
">  c #0A0712",
",  c #080810",
"<  c #090810",
"1  c #090911",
"2  c #0B0811",
"3  c #0A0911",
"4  c #080812",
"5  c #0A0813",
"6  c #13111F",
"7  c #14101F",
"8  c #14121F",
"9  c #120F20",
"0  c #130F20",
"q  c #130E22",
"w  c #061822",
"e  c #071923",
"r  c #061A23",
"t  c #071925",
"y  c #061A25",
"u  c #061927",
"i  c #071927",
"p  c #081A24",
"a  c #111020",
"s  c #131021",
"d  c #121121",
"f  c #131220",
"g  c #131023",
"h  c #131222",
"j  c #151120",
"k  c #141021",
"l  c #141220",
"z  c #151321",
"x  c #141122",
"c  c #151122",
"v  c #151223",
"b  c #141323",
"n  c #161223",
"m  c #131224",
"M  c #131126",
"N  c #151024",
"B  c #141124",
"V  c #151225",
"C  c #141126",
"Z  c #151227",
"A  c #1F2233",
"S  c #1E2434",
"D  c #1E2537",
"F  c #212330",
"G  c #202231",
"H  c #202133",
"J  c #222133",
"K  c #202332",
"L  c #212332",
"P  c #202430",
"I  c #202135",
"U  c #212234",
"Y  c #202334",
"T  c #232234",
"R  c #222335",
"E  c #212236",
"W  c #202336",
"Q  c #202237",
"!  c #222337",
"~  c #242335",
"^  c #212437",
"/  c #232436",
"(  c #2F3332",
")  c #2F3535",
"_  c #333530",
"`  c #323431",
"'  c #303433",
"]  c #333532",
"[  c #323433",
"{  c #313632",
"}  c #343432",
"|  c #343633",
" . c #313234",
".. c #323335",
"X. c #333335",
"o. c #323337",
"O. c #353336",
"+. c #313534",
"@. c #303435",
"#. c #333534",
"$. c #303634",
"%. c #323635",
"&. c #313536",
"*. c #303437",
"=. c #333436",
"-. c #303636",
";. c #323637",
":. c #343434",
">. c #353535",
",. c #343635",
"<. c #343436",
"1. c #343537",
"2. c #353537",
"3. c #353736",
"4. c #343338",
"5. c #353338",
"6. c #303538",
"7. c #313538",
"8. c #333438",
"9. c #333439",
"0. c #333738",
"q. c #323639",
"w. c #353439",
"e. c #343539",
"r. c #353638",
"t. c #363638",
"y. c #363739",
"u. c #34353A",
"i. c #35363A",
"p. c #35363B",
"a. c #323838",
"s. c #660E0D",
"d. c #650C0E",
"f. c #660D0F",
"g. c #650F0E",
"h. c #670F0E",
"j. c #680E0E",
"k. c #6A0F0E",
"l. c #77090C",
"z. c #7A090B",
"x. c #790B0A",
"c. c #780A0B",
"v. c #7B080D",
"b. c #790B0C",
"n. c #780A0D",
"m. c #7B0A0C",
"M. c #78090F",
"N. c #780B0E",
"B. c #790B0E",
"V. c #7B0A0E",
"C. c #7C090E",
"Z. c #780C0C",
"A. c #7A0C0F",
"S. c #650F10",
"D. c #670E10",
"F. c #650F12",
"G. c #670E12",
"H. c #690D10",
"J. c #680E10",
"K. c #680F11",
"L. c #6A0E11",
"P. c #690E13",
"I. c #790A10",
"U. c #651111",
"Y. c #3F3F5B",
"T. c #423E59",
"R. c #413C5A",
"E. c #433C5B",
"W. c #423D5B",
"Q. c #413E5B",
"!. c #433F5A",
"~. c #463D5A",
"^. c #433C5D",
"/. c #423D5D",
"(. c #433E5C",
"). c #433E5E",
"_. c #443F5F",
"`. c #9E090B",
"'. c #9E090D",
"]. c #9D0B0C",
"[. c #9C0A0D",
"{. c #9F0A0C",
"}. c #9C0B0E",
"|. c #9D0B0E",
" X c #9F0A0E",
".X c #9C0C0C",
"XX c #9E0C0D",
"oX c #9F0D0E",
"OX c #9E0C0F",
"+X c #9D0A10",
"@X c #9C0B10",
"#X c #9F0A10",
"$X c #9F0D10",
"%X c #A00A0C",
"&X c #A00B0D",
"*X c #A0090E",
"=X c #A10A0F",
"-X c #A00B0F",
";X c #BE0E11",
":X c #C00C0F",
">X c #C10F0F",
",X c #C00B10",
"<X c #C30B13",
"1X c #C00D10",
"2X c #C10C11",
"3X c #C00D11",
"4X c #C10E11",
"5X c #C10C13",
"6X c #C00D13",
"7X c #C20D12",
"8X c #C10E12",
"9X c #C30E13",
"0X c #C20D14",
"qX c #C10E14",
"wX c #FA0100",
"eX c #FC0000",
"rX c #FC0001",
"tX c #B36B5D",
"yX c #B3695E",
"uX c #B36B5F",
"iX c #B46A5D",
"pX c #B66A5C",
"aX c #B46A5F",
"sX c #B56B60",
"dX c #B46A61",
"fX c #E5AF8D",
"gX c #E6AD8F",
"hX c #E4B08B",
"jX c #E5B08E",
"kX c #E6B08E",
"lX c #FFF0DD",
"zX c #FFF1DE",
/* pixels */
"=.=.=.=.=.=.=.=.=.=.=.=.=.=.=.=.=.=.=.=.=.=.=.=.=.=.=.=.=.=.=.=.=.=.=.=.=.=.=.=.[ =.8.=.=.=...=.=.=.1.[ =.=.=.=.=.=.=.=.=.=.=.=.",
"=.=.=.=.=.=.=.=.=.=.=.=.=.=.=.=.=.=.=.=.=.=.=.=.=.=.=.=.=.=.=.=.=.=.=.=.=.=.=.=.=.=.=.5.=.=.=.=.1.=.=.=.=.=.=.=.=.=.=.=.=.=.=.=.",
"=.=.=.=.=.=.=.=.=.=.=.=.=.=.=.=.=.=.=.=.=.=.=.=.=.=.=.=.=.=.=.=.=.=.=.=.=.=.=.=.=.=.=.[ =.=.=.=.1.=.=.=.=.1.=.=.=.=.=.=.=.=.=.=.",
"=.=.=.=.=.=.=.=.=.=.=.=.=.=.=.=.=.=.=.=.=.=.=.=.=.=.=.=.=.=.=.=.=.=.=.=.=.=.=.=.1.8.=.=.=.=.=.1.=.=...=.=.=.=.=.=.=.=.=.=.=.=.=.",
"=.=.=.=.=.=.=.=.=.=.=.=.=.=.=.=.=.=.=.=.=.=.=.=.=.=.=.=.=.=.=.=.=.=.=.=.=.=.=.=.=.1.1.=.1.u.=.=.1.=.=.=.=.=.=.=.=.=.=.=.=.=.=.=.",
"=.=.=.=.=.=.=.=.=.=.=.=.=.=.=.=.=.=.=.=.=.=.=.=.=.=.=.=.=.=.=.=.=.=.=.=.=.=.=.=.=.=.=.=...z.=.1.=.B.=.=.=.1.=.=.=.=.=.=.=.=.=.=.",
"=.=.=.=.=.=.=.=.=.=.=.=.=.=.=.=.=.=.=.=.=.=.=.=.=.=.=.=.=.=.=.=.=.=.=.=.=.=.=.=.=...1.=.8.=.1.u.B.8.=.=.1.1.=...=.=.=.=.=.=.=.=.",
"=.=.=.=.=.=.=.=.=.=.=.=.=.=.=.=.=.=.=.=.=.=.=.=.=.=.=.=.=.=.=.=.=.=.=.=.=.=.=.=.=...=.=.=.1.=.1.B.=.8.=.=.8...=.=.=.=.=.=.=.=.=.",
"=.=.=.=.=.=.8.=.=.=.1.=...=.[ =.1.=.8.1.=.=...=.=.8...=.=.=.=.=.=.=.=.=.=.1.=.=.=.=...=...=.1.=.B.z...=.=.1.=.=.=.=.=.=.8.=.=.=.",
"=.=.=.=.=.=.8.=.=.5.8.8.=.=.=.=.=.f.8.=...=.1...[ ..=.=.8.=.=.=.=.=.1.=.=.1.1.8.=.1.=.=.=.=.1.B.B.B.B.=.8.=.1.[ =.=.=.=.=.8.=.=.",
"=.=.=.=.=.=.=.=.=.1.8.=.=...=.=.=.f.=.=.=.=.=.u.=.=.=.=.=.=...=.=.=.=.8.1.=.=.=.=.=.=.1.1.=.=.B.A.3XA.B.8.8...=.1.8.=.=.=.=.=.=.",
"=.=.=.=.=.=.=.=.8.=.=...=.=.=.1.f.[.D.8.=.=.=.=.=.=...=.=.=.[ s s v s =.=.1.1.=...=.u.8.8.=.8.B.I.3X3XB.=.8.=.5.8.=.1.=.=.=.=.=.",
"=.=.=.=.=.=.=.=.=.=.=.=.=.8.=.1.f.[.D.8.8.8.=.=...=.=.=.O.=.N v T.T.U > =.1.8.1.=.=.( 8.u.=.=.B.3X,X3Xz.A.A.=.8.=.=.=.8.=.=.=.8.",
"=.=.=.=.=.=.=.=.u.=.8.=.8.=.=.f.[.[.[.f.=.1.=.=.1.=.=.1.=.s v /.u u u U @ 1.=.1.1.u.1.=.1.=.B.l.3X3X3X3XB.C.B.=.8.=.=.=.=.8.=.=.",
"=.=.=.=.=.=.=.=.u.1.=.=.=.=.D.OXOX[.[.OXf.8.8.8.=.8.=.=.1.v T.u u r u v U , =.=.1...1.8.u.=.B.B.qX;X>X3X3XB.B.B.1.8.=.=.=.=.=.8.",
"=.=.=.=.=.=.=.=.[ 1.=.=.=.k.[.[.[.OX[.`.&XD.=...1...=.=.v s T.u eXu N eXU > =.=.=.8.8.=.8.B.B.3Xf.f.[.[.3X3XB.z.=.=.=.=.8.=.=.=.",
"=.=.=.=.=.=.=.=.=.1.=.=.=.D.&XiXkXzXzX[.[.f.=.1.=.=.=.=.v 7 T.r u p N v U , 1.=.=.=.=.8.=.B.3Xf.D.f.OX[.@X3XI.B.=.=...=.=.1.=.1.",
"=.=.=.=.=.=.=.=.=.=.=.=.D.[.sXgXzXzXhXiX[.OXD.T...=.=.1.v v T.u r v N v U > =.=.=.=.=.=.1.B.3XD.D.OX> $X@X3XB.=.=.=...1.=.=.=.=.",
"=.=.=.=.=.=.=.=.8.=.=.k.[.[.iXgXeXtXtXwX[.[.D.T.T.=.[ . s v /.U v v N U v T.=., =.8.=.8.=.B.3Xf.[.[., , D.qXI.1.=.=.=.1...=.=.=.",
"=.=.=.=.=.=.=.=...u.=.f.@X[.sXiXiXgXgXsX@X[.f.U T.U H U , s 6 T.T.H H N @ v , v =.1...=.=.B.>X3XD.OX[.J.D.3XB.u.=.=.=.=.=.=.=.=.",
"=.=.=.=.=.=.=.=.1.=.1.J.OX[.[.iXgXgXiXOX[.D.=.T.U T.T.m H /., s 6 s v > T.@ N 0 > =...=.=.A.,X3X> U.@XOX3XB.8.=.=.=.=.=.=.=.=.=.",
"=.=.=.=.=.=.=.=.8.=...8.D.[.[.[.iXkXtX[.[.D.=.v T.v U T.U U v T., v * T.s , v , N ..8.1.1.=.B.3X@ , D.D.qXB...=.=.1.=.=.1.=.=.=.",
"=.=.=.=.=.=.=.=.=.=.=.=.=.J.[.&X@X[.[.[.[.J.T.U s U T./.v [.U H v U _.v s @ v N * , =...=.=.B.A., , 3X;XB.=.1.=.=.=.=.=.=.=.=.=.",
"=.=.=.=.=.=.=.=...1.=.8.=.=.J.D.[.[.[.[.J.=.U A U v T.v v s [.&XU T.N 0 J.@ , v v N =.8.1.) 8.B., , B.B.=.=.=.=.=.=.1.=.=.=.=.=.",
"=.=.=.=.=.=.=.=.=.=.=.=.=.=.=.1.J.D.f.k.u.1.N U s U v v [.H A v [.U /.D.N s @ , * v [ =.8.1.=.=., =.=.1.[ ..=.=.=.=.=.=.=.=.=.=.",
"=.=.=.=.=.=.=.=.1.1.=.=.8.8.1.u.=.=.=.8.=.=.s N s U U U v $XU U U [.D.6 v D.=.v > v , =.u.=.8.* > =.8.=...=.=.=.=.=.=.=.=.=.=.=.",
"=.=.=.=.=.=.=.=.=.=.1.=.=.=.=.=.=...=.=.=.0 ~ s v v =.1.U v [.[.H H T.s D.[ =.=.v , /.T.1.=.=.> > =.=.=.=.=.=.=.=.=.=.=.=.=.=.=.",
"=.=.=.=.=.=.=.=.1.=.1.=.=.8.=.=.=.[ =.v H v v T.U 8.=.1.=.U ~ v [.U H D.s =.8.[ @ U U A T.=.=., , =.=.=.=.=.=.=.=.=.=.=.=.=.=.=.",
"=.=.=.=.=.=.=.=.8.1.=.8.=.8.=.v 1.U H v v v U U =.=.1.8.=.N U U v [.J.v =.=.=.=.=.U U U T.1.=., * =...=.=.=.=.=.=.=.=.=.=.=.=.=.",
"=.=.=.=.=.=.=.=.=...=.=.5.=.U s /.T.Y.U U U 1.=.=.=.=.=.8.1.v U U s v v =.=.=.=.=.=.U U U U =., 8.1.8.=.=...=.=.=.=.=.=.=.=.=.=.",
"=.=.=.=.=.=.=.=.1.=.=.=.=.=.H s v v U U U =.=.=.=.8.a.=.u.v &Xm T.v v D., =.=...1.=.T.U H H .., =.=.=.8.=.1.=.=.=.=.=.=.=.=.=.=.",
"=.=.=.=.=.=.=.=.=.8.O.8.=.8.H U s U [ =.=.=.=.=.=.=.=.=.s U U &XD.D.J., > @ =.=.1.5.T.T.U /., , =.=.=.=.=.1.=.=.=.=.=.=.=.=.=.=.",
"=.=.=.=.=.=.=.=.=.=.=.=.=.=.=.=.=.=.=.=.=.1.8...=.=.=.v v H 6 v N , U , , , =.=.=.1.=.U U U v U =...=.=...8.=.=.=.=.=.=.=.=.=.=.",
"=.=.=.=.=.=.=.=.=.=.=.=.=.=.=.=.=.1.=.=.=.u.1.=.=.=.N v U s U /.@ , D v s , =.1.5.8.1.=./.T.U v =.=.1.=.=.=.=.=.=.=.=.=.=.=.=.=.",
"=.=.=.=.=.=.=.=.=.=.=.=.=.=.=.=.=...=...=.1.=.=.=.=.v U s v / @ , 0 v U s , , =.1.=.[ =.=.v v U =.=.=.1.8.=.=.=.=.=.=.=.=.=.=.=.",
"=.=.=.=.=.=.=.=.=.=.=.=.=.=.=.=.=.=.=.u.=.=.=.=.1.v v U s D /., N v U v v v , =.=.=.=.1.=...@ 8.=.=.=.1...=.=.=.=.=.=.=.=.=.=.=.",
"=.=.=.=.=.=.=.=.=.=.=.=.=.=.=.=.=.=.=.=.=.=.=.1.s v v U v v , @ U U v v v v * , =.=...=.=.1., 1.=.=.=.=.=.=.=.=.=.=.=.=.=.=.=.=.",
"=.=.=.=.=.=.=.=.=.=.=.=.=.=.=.=.=.=.=.=.=.=.u.s v U v U s v , N v v U 7 N v , , =.=.=.=...8.. =.=.=.=.=.8.=.=.=.=.=.=.=.=.=.=.=.",
"=.=.=.=.=.=.=.=.=.=.=.=.=.=.=.=.=.=.=.=.=.=.1.s N U v U v /.s , v v U H v m v , =.=.=.=.=., =.=.=...=.=...=.=.=.=.=.=.=.=.=.=.=.",
"=.=.=.=.=.=.=.=.=.=.=.=.=.=.=.=.=.1.=.=.=.1.=.s v U v v /.v U @ v U H U U v v , =.=.=.=...> =.=.=.=.1.=.=.8.=.=.=.=.=.=.=.=.=.=.",
"=.=.=.=.=.=.=.=.=.=.=.=.=.=.=.=...=.=.u.=.=.=.O.v v ~.T.v H 1.@ v H U =.U U N , =.=.=.=..., 1.=.=.=.=.=.=.=.=.=.=.=.=.=.=.=.=.=.",
"=.=.=.=.=.=.=.=.=.=.=.=.=.=.=.=...=.=.u.=.=.u.=.=.s T.7 U U [ > v s 1.=.U D U > =.=...=.=.@ =.=.=.=.=.=.=.=.=.=.=.=.=.=.=.=.=.=.",
"=.=.=.=.=.=.=.=.=.=.=.=.=.=.=.=.=.=.=.=.u.=...=.=.s /.U U s 1.[ , , =.P H , U @ 8.=.8.8.=., =.=.=.=.=.=.=.=.=.=.=.=.=.=.=.=.=.=.",
"=.=.=.=.=.=.=.=.=.=.=.=.=.=.=.=.8.=.=.=.=.=.1.8.v v U U v =.1.=.=.=.=.U > v , U ....=.=.> =.=.=.=.=.=.=.=.=.=.=.=.=.=.=.=.=.=.=.",
"=.=.=.=.=.=.=.=.=.=.=.=.=.=.=.=.=...8.=.8...1.1.s / U U v =.1.1.=.=.@ , s s > U =.=.=.=.* =.=.=.=.=.=.=.=.=.=.=.=.=.=.=.=.=.=.=.",
"=.=.=.=.=.=.=.=.=.=.=.=.=.=.=.=.=.=.=.[ =.=.=.v U U s v =.=.=.| =.=., m v , @ * 1.=.=.1.@ =.=.=.=.=.=.=.=.=.=.=.=.=.=.=.=.=.=.=.",
"1.1.1.1.1.1.1.1.1.1.1.1.1.1.1.1.1.1.1.1.1.1.1.N s U v s 1.=.1.=.=.u.s v > $ , > 1.1.1.1., u.=.1.1.1.1.1.1.1.1.1.1.1.1.1.1.1.1.1.",
"1.1.1.1.1.1.1.1.1.1.1.1.1.1.1.1.1.1.1.u.1.1.u.1.v U s =.1.1.1.1.=.1.8., > @ > 1.u.1.=.1.@ u.1.1.1.1.1.1.1.1.1.1.1.1.1.1.1.1.1.1.",
"1.1.1.1.1.1.1.1.1.1.1.1.1.1.1.1.1.u.1.1.1.1.1.U U v u.=.1.1.1.=.=.1., @ @ , u.1.u.1.[ , =.8.1.=.1.1.1.1.1.1.1.1.1.1.1.1.1.1.1.1.",
"1.1.1.1.1.1.1.1.1.1.1.1.1.1.1.1.=.1.u.u.u.=.u.U U s 1.1.1.=.1.1.1.1.* , , u.=.1.1.1.1.> 1.1.u.1.1.1.1.1.1.1.1.1.1.1.1.1.1.1.1.1.",
"1.1.1.1.1.1.1.1.1.1.1.1.1.1.1.1.u.1.1.=.1.1.1.U v v | =.u...u.u.1.u.> , @ 1.1.u.1.1.1.* 1.1.1.1.1.1.1.1.1.1.1.1.1.1.1.1.1.1.1.1.",
"1.1.1.1.1.1.1.1.1.1.1.1.1.1.1.1.1.u.1.1.1.8.U U s v u.1.=.u.1.1.1.1.1., , 1.u.1.1.1.1.1.1.u.=.1.1.1.1.1.1.1.1.1.1.1.1.1.1.1.1.1.",
"1.1.1.1.1.1.1.1.1.1.1.1.1.1.1.1...1.u.1.u.1.U N v 1.=.1.1.u.1.1.=.1.u.. v v 1...1.1.u.1.1.1.1.1.1.1.1.1.1.1.1.1.1.1.1.1.1.1.1.1.",
"1.1.1.1.1.1.1.1.1.1.1.1.1.1.1.1.1.1.1.1.1.1.U N u.1.8.1.1.1.1.1.8.1.1.1.v v 1.1.1.1.1.=.u.1.1.1.1.1.1.1.1.1.1.1.1.1.1.1.1.1.1.1.",
"1.1.1.1.1.1.1.1.1.1.1.1.1.1.1.1.u.=.u.1.1.1.U v u.=.1.1.1.1.1.u.u.1.1.1.1.N 1.=.1.1.1.=.1.1.1.1.1.1.1.1.1.1.1.1.1.1.1.1.1.1.1.1.",
"1.1.1.1.1.1.1.1.1.1.1.1.1.1.1.1.u.u.1.1.1.1.v v 8.u.1.=.u.=.1.=.u.=.1.1.1.1.1.=.1.1.1.=.1.1.1.1.1.1.1.1.1.1.1.1.1.1.1.1.1.1.1.1.",
"1.1.1.1.1.1.1.1.1.1.1.1.1.1.1.1.1.1.1.1.1.1.1.1.1.1.1.1.1.1.1.1.1.1.1.1.1.1.1.1.1.1.1.1.1.1.1.1.1.1.1.1.1.1.1.1.1.1.1.1.1.1.1.1.",
"1.1.1.1.1.1.1.1.1.1.1.1.1.1.1.1.1.1.1.1.1.1.1.1.1.1.1.1.1.1.1.1.1.1.1.1.1.1.1.1.1.1.1.1.1.1.1.1.1.1.1.1.1.1.1.1.1.1.1.1.1.1.1.1.",
"1.1.1.1.1.1.1.1.1.1.1.1.1.1.1.1.1.1.1.1.1.1.1.1.1.1.1.1.1.1.1.1.1.1.1.1.1.1.1.1.1.1.1.1.1.1.1.1.1.1.1.1.1.1.1.1.1.1.1.1.1.1.1.1.",
"1.1.1.1.1.1.1.1.1.1.1.1.1.1.1.1.1.1.1.1.1.1.1.1.1.1.1.1.1.1.1.1.1.1.1.1.1.1.1.1.1.1.1.1.1.1.1.1.1.1.1.1.1.1.1.1.1.1.1.1.1.1.1.1.",
"1.1.1.1.1.1.1.1.1.1.1.1.1.1.1.1.1.1.1.1.1.1.1.1.1.1.1.1.1.1.1.1.1.1.1.1.1.1.1.1.1.1.1.1.1.1.1.1.1.1.1.1.1.1.1.1.1.1.1.1.1.1.1.1.",
"1.1.1.1.1.1.1.1.1.1.1.1.1.1.1.1.1.1.1.1.1.1.1.1.1.1.1.1.1.1.1.1.1.1.1.1.1.1.1.1.1.1.1.1.1.1.1.1.1.1.1.1.1.1.1.1.1.1.1.1.1.1.1.1.",
"1.1.1.1.1.1.1.1.1.1.1.1.1.1.1.1.1.1.1.1.1.1.1.1.1.1.1.1.1.1.1.1.1.1.1.1.1.1.1.1.1.1.1.1.1.1.1.1.1.1.1.1.1.1.1.1.1.1.1.1.1.1.1.1.",
"1.1.1.1.1.1.1.1.1.1.1.1.1.1.1.1.1.1.1.1.1.1.1.1.1.1.1.1.1.1.1.1.1.1.1.1.1.1.1.1.1.1.1.1.1.1.1.1.1.1.1.1.1.1.1.1.1.1.1.1.1.1.1.1."
};
