/* XPM */
static char *rcp06202189229620[] = {
/* columns rows colors chars-per-pixel */
"64 64 47 1 ",
"  c #07060E",
". c #08070F",
"X c #07080D",
"o c #09080E",
"O c #070611",
"+ c #090711",
"@ c #060911",
"# c #090810",
"$ c #13111F",
"% c #140F22",
"& c #061A25",
"* c #081925",
"= c #071A28",
"- c #141122",
"; c #211F34",
": c #1E2334",
"> c #212234",
", c #343537",
"< c #353837",
"1 c #343539",
"2 c #393438",
"3 c #313938",
"4 c #670E0F",
"5 c #690F0E",
"6 c #77090C",
"7 c #790B0D",
"8 c #66100F",
"9 c #68100F",
"0 c #670E10",
"q c #690F11",
"w c #790A10",
"e c #423D5C",
"r c #473D60",
"t c #9D0B0D",
"y c #861114",
"u c #891213",
"i c #A10B0E",
"p c #BF0C0F",
"a c #BF0F11",
"s c #C10D11",
"d c #FC0100",
"f c #B46A5F",
"g c #B56B60",
"h c #E5AF8C",
"j c #E7B18E",
"k c #FFEFDF",
"l c #FEF0DD",
/* pixels */
",,,,,,,,,,,,,,,,,,,,,,,,,,,,,,,,,,,,,,,,1,,,,,,,,,,,,,,,,,,,,,,,",
",,,,,,,,,,,,,,,,,,,,,,,,,,,,,,,,,,,,,,,,,,,,,,,,,,,,,,,,,,,,,,,,",
",,,,,,,,,,,,,,,,,,,,,,,,,,,,,,,,,,,,,,,,,,,,,,,,1,11,,,,,,,,,,,,",
",,,,,,,,,,,,,,,,,,,,,,,,,,,,,,,,,,,,,,,,,,,,,,,11,1,,,,,,,,,,,,,",
",,,,,,,,,,,,,,,,,,,,,,,,,,,,,,,,,,,,,,,,,,,,,,,1,,,,,,,,,,,,,,,,",
",,,,,,,,,,,,,,,,,,,,,,,,,,,,,,,,,,,,,,,,,,,,,,,,,,,,,,,,,,,,,,,,",
",,,,,,,,,,,,,,,,,,,,,,,,,,,,,,,,,,,,,,,,,,,,,,,7,,,,,,,,,,,,,,,,",
",,,,,,,,,,,,,,,,,,,,,,,,,,,,,,,,,,,,,,,,,,1,1,,7,,,1,,,,,,,,,,,,",
",,,,,,,,,,,,,,,,,,,,,,,,,,1,,,,,,,,,,,1,,1,,,,,,,,1,,,,,,,,,,,,,",
",,,,,,,,,,,,,,,,,,,,,,,,,,,,1,,,,,1,1,,,,,,,,,,,3,1,,,,,,,,,,,,,",
",,,,,,,,,,,,,,,,,,,,,,,,,,,,,,,1,,,,,,,1,,1,,,11,7,,,,,,,,,,,,,,",
",,,,,,,,,,,,,,,,,,,,,,,,,,,,,,,,1,,,,,,1,1,,,1,,w71,,,,,,,,,,,,,",
",,,,,,,,,,,,,,,,,,,,,,,,,1,,,,,1,,,,,1,,,1,,,,,,77w1,,,,,,,,,,,,",
",,,,,,,,,,,,,,,,,,,,,,,,,,,,,,,1,,,,,,,,111,,1,77s7,,,,,,,,,,,,,",
",,,,,,,,,,,,,,,,,,,,,,,,,,,,,,----,,,,,,,,1,,1,77sw7,,,,,,,,,,,,",
",,,,,,,,,,,,,,,,,,,,,,,,,,1,,-$ee>.,,1,,,,,1,,67as77,76,,,,,,,,,",
",,,,,,,1,,,,,1,,,,,1,111,,,,--e*==>+,1,11,,,,,wsspsw,7,,,,,,,,,,",
",,,,,,,,,,1,,,,11,,,,,,,,,,,-r====->+,,,,,,,,6ssssss7,,,,,,,,,,,",
",,,,,,,1,,1,,,,1,,,,1,,1,,,--e=d=-d>.,,1,,1,6ss40ttss7,,,,,,,,,,",
",,,,,,,1,,,,1,,,1,,,,,,,,,,--e=**-->o,,,,,,,7s8qqttts7,,,,,,,,,,",
",,,,,,,,,11,,,,,1,1111e,,,,--e==--->+,,,1,,17s00t.ttp6,,,,,,,,,,",
",,,,,,,,1,,1,,,,,,,,,,ee,,+--e>--->-e,+,,,,77sqtt++0s7,,,,,,,,,,",
",,,,,,,1,,,,,,,,,,1,,,>e>>>o-$ee>>-+-+-,,2,w6ss0ti00s7,,,,,,,,,,",
",,,,,,,,,1,,,,,,1,,,,1e:ee->e+----+e.$-+,,,,77s+5tts77,,,,,,,,,,",
",,,,,,,,,,,,,,,,,,,,,,-e->e>>-e+-oe-.-o-,,,,,17++4077,,,,,,,,,,,",
"1,,,,,,,,,,,,1,u,111,e>->ee-t>>->e--+--+.,,1,,,o 777,,,,,,,,,,,,",
",,,,,,1,,,,1,,uyu1,,,>>>%e---tt>e--4+o---,,,1,,++7,1,,,,,,,,,,,,",
",,,,,,,,,,,,,uuuuu,11->$>%-t>>-t>e0--+@+-1,,,,,+<,,,,,,,,,,,,,,,",
",,,,,,,1,,,1uygjklu1,,->->>-t>>>t5--q,-.-+,1,,++,1,1,,,1,,,,,,,,",
",,,,,,1,,,,uufjllhfu,,>---,>-ti>>e-0,,1-oee1,,++,,,<,,,,,,,,,,,,",
",,,,,,,,,,,,ufh+ff.u1,->-,1,>>-t>>0-,11O>>>e,,.+1,,,,,1,,,,,,,,,",
",,,,,,,,,,,1ugffhhfu,-e-e,,,->>-i9-,,,,,>>>e,,..1,,,,,,1,,,,,,,,",
",,,,,,,,,,,,,yfjhfu,->-e>,1,,->>---,1,,,,>>>:,+1,,1,,,1,1,,,,,,,",
",,,,,,,,,,,,,,ughfu,>-e>1,,,,t-e--4+,,,,,e>>>,+,,,,1,,,,,,,,,,,,",
",,,,,,,,,,,,,,,uuu,e>$>,11,,->tt00.+.,,,,ee>e.+,,,,11,,,,,,,,,,,",
",,,,,,,,,,,1,,,,,,,>ee>1,,,->>--+++@ ,,,,,>>>->1,,1,,,,,,,,,,,,,",
",,,,,,,,,,,,,,,,-,>e->,,,,-->->e.---o,,,1,,ee>-,1,,1,,,,,,,,,,,,",
",,,,,,,,,,,,,,,,>-e->,,11->>->-O-->-++,,,,1,%->,,,,,,1,,,,,,,,,,",
",,,,,,,,,,,,,,,,>>->1,,,,->$->e+->---.,,,,,,,+,,,1,,,,,,,,,,,,,,",
",,,,,,,,,1,,,,,1,:>1,,,,-%->->+->>---+.,,1,1,+,,,,1,,,,,,,,,,,,,",
",,,,,,,,,,,,,,,,,,,,,,,->-->--X-----%+.1,,1,, ,,,,,,,,,,,,,,,,,,",
",,,,,,,,,,,,,,,,,,,,,,,%->->-e-o--:---+,,,1,.,,,,,1,,,,,,,,,,,,,",
",,,,,,,,,,,,,,,,,,,,,,,-->--e->+->:>--+,,,,,+,,,,,,,,,,,,,,,,,,,",
",,,,,,,,,,,,,,,,,,,,,,,->--e->1o->1>>-+,1,,,+,,,,,1,,,1,,,,,,,,,",
",,,,,,,,,,,,,,,,,,,,,,,,--e-e>,+-,,>>>.,,,,,+,,,,,,,,,,,,,,,,,,,",
",,,,,,,,,,,,,,,,1,,,,,,,,-e->-,,+,>>o>+,11,,.,,,1,,,,1,,,,,,,,,,",
",,,,,,,,,,,,,,,,,,,,,,,,-->>-,,1,1>+-+>,1,,.,,,,,,,,,,,,,,,,,,,,",
",,,,,,,,,,,,,,,,,,,,,,,,->>:-,1,,.@--+>,,,,+,,,,,,1,1,,,,,,,,,,,",
",,,,,,,,,,,,,,,,,,11,,,-:>>--1,,,+--+ +,,,,+,,,1,,,,,,,,,,,,,,,,",
",,,,,,,,,,,,,,,,,,,,,,,-:>--,,,,,--+++o,,1,.1,,,,,,,,,,,,,,,,,,,",
",,,,,,,,,,,,,,,,,1,,11,,->--1,,,,,++..,,,,1.,,,,,,,,,,,,,,,,,,,,",
",,,,,,,,,,,,,,,,,,,,1,,,>--,,,,,,++++,11,,+1,1,,,,,,,,,,,,,,,,,,",
",,,,,,,,,,,,,,,,,,,1,,,>>$1,,,,1,++.11,,,,+,,,,,,,,,,,,,,,,,,,,,",
",,,,,,,,,,,,,,,,,,,,,,,>>-,,1,,,,@++,,,,1, ,,,,1,,,,,,,,,,,,,,,,",
",,,,,,,,,,,,,,,,,1,,,,,>--,1,,,,,,+.,,,1,,,,11,,,,,,,,,,,,,,,,,,",
",,,,,,,,,,,,,,,,,,,,,,;>--,1,1,1,,o--111,,,,,,,1,,,,,,,,,,,,,,,,",
",,,,,,,,,,,,,,,,1,,,,,>--,1,,,,,,,,--,1,,,,1,,,,,,,,,,,,,,,,,,,,",
",,,,,,,,,,,,,,,,,,,,,,:-%,,,,,,1,,1,%,,1,,,,,,,,,,,,,,,,,,,,,,,,",
",,,,,,,,,,,,,,,,,,1,,1:-%1111,,,,,,1,,,,,,,,,,,,,,,,,,,,,,,,,,,,",
",,,,,,,,,,,,,,,,,,,,,,,-,,,,,,1,,,,,,,,,,,,,,,,,,,,,,,,,,,,,,,,,",
",,,,,,,,,,,,,,,,,,1,,,1,,,,,1,1,,,,,,,,,,,,,,,,,,,,,,,,,,,,,,,,,",
",,,,,,,,,,,,,,,,,,,,,,,,,1,,,,,,,,11,,,,,,,,,,,,,,,,,,,,,,,,,,,,",
",,,,,,,,,,,,,,,,,,,1,,,1,1,,,,,,,,,,,,,1,,,,,,,,,,,,,,,,,,,,,,,,",
",,,,,,,,,,,,,,,,,,1,,,1,,,,,3,1,1,,,,,,,,,,1,,,,,,,,,,,,,,,,,,,,"
};
