/* XPM */
static char *rcp06442411022637[] = {
/* columns rows colors chars-per-pixel */
"64 64 93 2 ",
"   c #04040B",
".  c #09080D",
"X  c #090710",
"o  c #0D0C14",
"O  c #0E0E19",
"+  c #120D15",
"@  c #1C0C14",
"#  c #120E19",
"$  c #0F1015",
"%  c #111116",
"&  c #13131C",
"*  c #1C131D",
"=  c #17181F",
"-  c #1A191E",
";  c #230C15",
":  c #2A0E16",
">  c #2D0E18",
",  c #370B11",
"<  c #3B0E15",
"1  c #22111C",
"2  c #29111B",
"3  c #29181D",
"4  c #33131A",
"5  c #3C151D",
"6  c #161621",
"7  c #181622",
"8  c #171820",
"9  c #1B1B24",
"0  c #1E1D29",
"q  c #211B27",
"w  c #2C1C26",
"e  c #211F2B",
"r  c #341922",
"t  c #3D1B27",
"y  c #1F2025",
"u  c #202027",
"i  c #23232B",
"p  c #29272F",
"a  c #27282D",
"s  c #292A2E",
"d  c #35232D",
"f  c #3C202E",
"g  c #362B2F",
"h  c #3A2B2D",
"j  c #252432",
"k  c #2A2634",
"l  c #2C2C34",
"z  c #2E2B3A",
"x  c #352937",
"c  c #352F3E",
"v  c #3A2D3D",
"b  c #2F3034",
"n  c #333436",
"m  c #3B3133",
"M  c #34343A",
"N  c #48050A",
"B  c #52070C",
"V  c #59070A",
"C  c #5D0A0D",
"Z  c #4B0F17",
"A  c #550C11",
"S  c #441016",
"D  c #43111B",
"F  c #49161B",
"G  c #521216",
"H  c #51171D",
"J  c #59151B",
"K  c #610B0D",
"L  c #6D0E14",
"P  c #641216",
"I  c #621719",
"U  c #62191D",
"Y  c #771E1F",
"T  c #421D26",
"R  c #4B1820",
"E  c #511A23",
"W  c #5B1D22",
"Q  c #711D22",
"!  c #43202C",
"~  c #48262F",
"^  c #4D2A2B",
"/  c #432733",
"(  c #422E30",
")  c #4A2833",
"_  c #422B3A",
"`  c #642A2C",
"'  c #732329",
"]  c #362F40",
"[  c #363040",
"{  c #383141",
"}  c #811212",
"|  c #9A3135",
" . c #A03C40",
/* pixels */
"n n b b b n n n n n n n n n n n n n n n n n M n n n n n n n n n n n n n n n n n n n n n n n n n n n n n n n n n n n n n n n n n ",
"n n n n b n n n n n n n n n n n n n n n n n n n n n n n n n n n n n n n n n n n n n n n n n n n n n n n n n n n n n n n n n n n ",
"n n n n n n n n n n n n n n n n n n n n n n n n n n n n n n n n n n n n n n n n n n n n n n n n n n n n n n n n n n n n n n n n ",
"n n n n n n n n n n n n n n n n n n n n n n n n n n n n n n n n n n n n n n n n n n n n n n n n n n n n n n n n n n n n n n n n ",
"n n n n n n n n n n n n n n n n n n n n n n n n n n n n n n n n n n n n n n n n n n n n n n n n n n n n n n n n n n n n n n n n ",
"n n n n n n n n n n n n n n n n n n n n n n n n n n n n n n n n n n n n n n n n n n n n n n n n n n n n n n n n n n n n n n n n ",
"n n n n n n n n n n n n n n n n n n n n n n n n n n n n n n n n n n n n n n n n n n n n n n n n n n n n n n n n n n n n n n n n ",
"n n n n n n n n n n n n n n n n n n i 9 9 9 9 9 9 9 9 9 9 y b n n n n n n n n n n n n n n n n n n n n n n n n n n n n n n n n n ",
"n n n n n n n n n n n n n n n l u i 7 & & & & & & & & & & & 8 8 i M n n n n n n n n n n n n n n n n n n n n n n n n n n n n n n ",
"n n n n n n n n n n n n n i 0 i k l k k k 0 7 6 6 6 6 6 6 6 & & = 9 n n n n n n n n n n n n n n n n n n n n n n n n n n n n n n ",
"n n n n n n n n n n n l 9 k z c M [ ] c c c i 9 6 6 6 6 6 6 6 6 6 = & a n n n n n n n n n n n n n n n n n n n n n n n n n n n n ",
"n n n n n n n n n n i q c M M [ [ [ ] ] ] ] c k 0 6 6 6 6 6 6 6 6 6 O i M n n n n n n n n n n n n n n n n n n n n n n n n n n n ",
"n n n n n n n n n 9 i c M M [ [ [ [ [ [ [ [ [ l 0 6 6 6 6 6 6 6 6 6 = & y M n n n n n n n n n n n n n n n n n n n n n n n n n n ",
"n n n n n n n n n 9 i M ] ] [ ] [ [ { { [ [ [ z 0 6 6 6 6 6 6 6 6 6 6 & 9 M n n n n n n n n n n n n n n n n n n n n n n n n n n ",
"n n n n n n n l = l M [ c ] ] ] [ [ ] [ [ [ [ M l 6 6 6 6 6 6 6 6 6 6 & 9 n n n n n n n n n n n n n n n n n n n n n n n n n n n ",
"n n n n n n n l 6 z [ [ c c c [ [ [ [ [ [ [ c M z 6 6 6 6 6 6 6 6 6 6 6 & & n M n n n n n n n n n n n n n n n n n n n n n n n n ",
"n n n n n n l p 0 z [ [ [ [ [ [ [ [ [ c c c c c k 6 6 6 6 6 6 6 6 6 6 6 & = n M M n n n n n n n n n n n n n n n n n n n n n n n ",
"n n n n n n i 9 M [ [ [ [ [ [ v v v v v c c c l 0 7 6 6 6 6 6 6 6 6 6 6 & = n M M n n n n n n n n n n n n n n n n n n n n n n n ",
"n n n n n n i 9 M M [ [ [ [ v v ! ! / _ v v M k 9 6 6 6 6 6 6 6 6 6 6 6 & = n M M n n n n n n n n n n n n n n n n n n n n n n n ",
"n n n n n n i 8 [ [ M M [ [ x t Z W E ! _ v z e 6 6 6 6 6 6 6 6 6 6 6 6 & & n M n n n n n n n M M M n n n n n n n n n n n n n n ",
"n n n n n n i 9 [ M [ [ [ [ d D L  .' E ) v j 9 6 6 6 6 6 6 6 6 6 6 6 6 & & n n n n n n n n n n n n n n n n n n n n n n n n n n ",
"n n n n n n i 9 M M ] c [ [ d D L | Q H ~ d q 7 6 6 6 6 6 6 6 6 6 6 6 & 8 a n n n n M n n n n n n n n n n n n n n n n n n n n n ",
"n n n n n n i 9 M [ ] ] [ [ v t D R 5 r w 7 7 6 6 6 6 6 6 6 6 6 6 6 6 & & 6 = l M M M M M M M n n n n n n n n n n n n n n n n n ",
"n n n M M n i 9 [ [ ] ] [ [ M c x e e 9 7 6 6 6 6 6 6 6 6 6 6 6 6 6 & & 6 & = = = = = = = = = l M M M n n n n n n n n n n n n n ",
"n n n n n n i 8 i c M M M M k e 9 6 6 = & 6 6 6 6 6 6 6 6 6 6 6 6 6 = = 6 6 6 = & O = & & 6 6 & & y M M n n n n n n n n n n n n ",
"n n n n n M i 7 e e i i e 9 7 6 = = # + # = 6 6 6 6 6 6 6 6 6 6 6 6 6 6 6 6 = 6 6 6 6 0 k c c c j 8 = l n n n n n n n n n n n n ",
"n n n n n M i = = 6 6 6 6 6 7 7 1 w 2 ; @ * 6 6 6 6 6 6 6 6 6 6 6 6 6 6 6 6 6 6 6 6 6 6 6 7 e z [ z 0 & a M n n n n n n n n n n ",
"n n n n n n a - * * * * * : : > 4 : : ; 1 * 6 6 6 6 6 6 6 6 O & 6 6 6 6 6 6 6 & & 6 6 6 6 6 7 0 z [ z 6 i n n n n n n n n n n n ",
"n n n n n n n g : : 4 4 , N B A S 4 2 * * 6 6 6 6 6 6 6 & O O & 6 6 6 6 6 6 6 6 & O O O O O & 6 9 j [ j & 9 n n n n n n n n n n ",
"n n n n n n n h 4 F G A C K P J < > 1 * 6 6 6 6 6 6 6 6 & O 6 6 6 6 6 6 6 9 6 6 & & 6 6 & O O 6 6 0 z [ 9 9 M M n n n n n n n n ",
"n n n n n n n m ^ ` Y } } V H T 1 * 7 6 6 6 6 6 6 & & & & 6 6 6 6 6 6 6 0 0 6 6 & & 6 6 & & 9 6 6 7 0 k 6 9 n n n n n n n n n n ",
"n n n n n n n m ( ^ W I U S > 1 * 6 6 6 6 6 & & = 0 & & 6 6 6 6 6 9 9 0 0 9 6 6 6 6 6 6 & 8 z = & 6 6 0 & 9 M M n n n n n n n n ",
"n n n n n n n n n m d 3 @ @ & & & & & & & & 9 i i M 6 & 6 9 9 9 e k k j 0 6 6 6 6 6 6 6 & 8 n = & 6 6 9 & 9 M M n n n n n n n n ",
"n n n M M n n n n n M n i i i i i i i i i i l M M M = = i k k k z M k 0 9 6 6 6 6 6 6 & 9 i 9 & & & 6 6 & 9 n n n n n n n n n n ",
"n n n M M n n n n n n n n n n n n n n n n n n n n M l 9 = 9 9 0 e 0 9 6 6 6 6 6 6 6 6 & = 6 & & & = 6 6 & 9 M n n n n n n n n n ",
"n n n M n n n n n n n n n n n n n n n n n n n n n M M i o O O & 6 6 6 6 6 6 6 6 6 6 = O 6 0 0 0 0 9 6 6 = = 9 n n n n n n n n n ",
"n n n n n n n n n n n n n n n n n n n n n n n n n n M u % = 6 6 6 6 6 6 6 6 6 6 6 6 O O i k 0 9 0 0 0 6 9 6 = n n n n n n n n n ",
"n n n M M n n n n n n n n n n n n n n n n n n n n n n n i O 6 6 6 6 6 6 6 6 6 6 6 6 O j i 6 & 6 j j 7 0 k i & n n n n n n n n n ",
"n n n M M n n n n n n n n n n n n n n n n n n n n n n M a O 6 6 6 6 6 6 6 6 6 6 6 6 O = & 8 n 6 j k 6 6 k i 6 n n n n n n n n n ",
"n n n n n n n n n n n n n n n n n n n n n n n n n n n M a # 0 9 6 6 6 6 6 6 6 6 & 7 M = i M M M M i & z M i & b n n n n n n n n ",
"n n n n n n n n n n n n n n n n n n n n n n n n n n n M a # k k 0 6 6 9 9 6 6 = & 8 M 9 i M M n 9 & = b 9 & = n n n n n n n n n ",
"n n n n n n n n n n n n n n n n n n n n n n n n n n n n l 6 0 k l e i 9 6 6 6 & u M M n M M n 8 = u n l 9 i n n n n n n n n n n ",
"n n n n n n n n n n n n n n n n n n n n n n n n n n n l i 6 9 j j 0 0 9 6 6 & = i M n n M n a 9 a b i 9 l n n n n n n n n n n n ",
"n n n n n n n n n n n n n n n n n n n n n n n n M M M i = 6 6 6 6 6 6 6 6 = o a M n n n n l 9 b M s y n n n n n n n n n n n n n ",
"n n n n n n n n n n n n n n n n n n n n n n n n n M n i = 6 6 6 6 6 6 6 6 = o a M n n n n M M n n n M n n n n n n n n n n n n n ",
"n n n n n n n n n n n n n n n n n n n n n n n n n n a 9 6 6 6 6 6 6 6 6 = = y l M n n n n n n n n n n n n n n n n n n n n n n n ",
"n n n n n n n n n n n n n n n n n n n n n n n n n n 9 = 6 6 6 6 6 9 6 6 & = n M M n n n n n n n n n n n n n n n n n n n n n n n ",
"n n n n n n n n n n n n n n n n n n n n n n n n n n 9 6 6 6 6 6 9 0 6 6 & & n M n n n n n n n n n n n n n n n n n n n n n n n n ",
"n n n n n n n n n n n n n n n n n n n n n n n n n n 8 & 6 6 6 9 0 0 6 & 8 l n n n n n n n n n n n n n n n n n n n n n n n n n n ",
"n n n n n n n n n n n n n n n n n n n n n n n n n n = & 6 6 0 0 0 6 & i b M n n n n n n n n n n n n n n n n M M n n n n n n n n ",
"n n n n n n n n n n n n n n n n n n n n n n n n n n n 0 & 6 0 0 9 & l n n n n n n n n n n n n n n n n n n n M n n n n n n n n n ",
"n n n n n n n n n n n n n n n n n n n n n n n n n n n u & 6 0 0 9 & l n n n n n n n n n n n n n M n n n n n n n n n n M n n n n ",
"n n n n n n n n n n n n n n n n n n n n n n n n b b l l i o & 9 9 = o i n n n n n n M n n n n n n n n n n n n n n n n M n n n n ",
"n n n n n n n n n n n n n n n n n n l s s s s -             o 6 9 = = & X         o l l b l l n n n n n n n n n n n n n n n n n ",
"n n n n n n n n n n n n n n n n n n - o % + .                 X o o o o o X           o % $ % l M n n n n n n M n n n n n M n n ",
"n n n n n n n n n n n n n n n n n n n n n n - % % & % % % % % % & & & & & & & & & & & l M M M M M n n n n n n n n n n n n M n n ",
"n n n n n n n n n n n n n n n n n n n n n n n n n n n b b n n n n n n n M M M M M M M M M n n n n n n n n n n n n n n n n n M n ",
"n n n n n n n n n n n n n n n n n n n n n n n n n n b b b b n n n n n n n n n n n n n n n n n n n n n n n n n n n n M n n n n n ",
"n n n n n n n n n n n n n n n n n n n n b b b n b b b b b b n n n n n n n n n n n n n n n n n n n n n n M n n n n n n n n n n n ",
"n n n n n n n n n n n n n n n n n n n n b b b n n n n n n n n n n n n n n n n n n n n n n n n n n n n n M n n n n n n n n n n n ",
"n n n n n n n n n n n n n n n n n n n n n n n n n n n b b b n n n n n n n n n n n n n n n n n M n n n n n n n n n n n n n n n n ",
"n n n n n n n n n n n n n n n n n n n n n n n n n n n l l b n n n n n n n n n n n n n n n n n M n M n n M n n n n n n n n n n n ",
"n n n n n n n n n n n n n n n n n n n n n n n n n n l l b n n n n n n n n n n n n n n n n n n n n n n n M n n n n n M n n n n M ",
"n n n n n n n n n n n n n n n n n n n n n n n n n n b b n n n n n n n n n n n n n n n n n n n n n n n n n n n n n n M n n n n M "
};
