/* XPM */
static char *rcp06195915819971[] = {
/* columns rows colors chars-per-pixel */
"64 64 50 1 ",
"  c #07070F",
". c #08070F",
"X c #09080E",
"o c #070711",
"O c #090712",
"+ c #060912",
"@ c #090810",
"# c #0F111E",
"$ c #13111F",
"% c #130F21",
"& c #061926",
"* c #081925",
"= c #141122",
"- c #1F2234",
"; c #212234",
": c #222538",
"> c #343636",
", c #353837",
"< c #353638",
"1 c #38363A",
"2 c #343839",
"3 c #383839",
"4 c #660D0F",
"5 c #680E0E",
"6 c #7A0A06",
"7 c #770A0D",
"8 c #7A0B0D",
"9 c #68100F",
"0 c #670E10",
"q c #680E11",
"w c #790A10",
"e c #413F57",
"r c #423D5B",
"t c #40405C",
"y c #9E0A0D",
"u c #9E0A10",
"i c #871213",
"p c #891214",
"a c #A00B0E",
"s c #BF0D11",
"d c #C10F0F",
"f c #C10D11",
"g c #C01012",
"h c #FC0001",
"j c #B46A5F",
"k c #B56B60",
"l c #E5AF8C",
"z c #E6B08E",
"x c #FCEFDC",
"c c #FFF0DD",
/* pixels */
"<<<<<<<<<<<<<<<<<<<<<<<<<<<<<<<<<><<<<<<<<<<<<<>><22><<<<<<<<<<<",
"<<<<<<<<<<<<<<<<<<<<<<<<<<<<<<<<<<<<<<<<2><<<<<6<<<>><><<<<<<<<<",
"<<<<<<<<<<<<<<<<<<<<<<<<<<<<<<<<<<<<<<<<<<<2<<<><2><><<<<<<<<<<<",
"<<<<<<<<<<<<<<<<<<<<<<<<<<<<<<<<<><<<><<<<<<<><<<2><<<<<<<<<<<<<",
"<<<<<<<<<<<<<<<<<<<<<<<<<<<<<<<<<<<<<<<<<<<><<<<><<<><<<<<<<<<<<",
"<<<<<<<<<<<<<<<<<<<<<<<<<<<<<<<<<<<<<<<<<<<<<<<2<>><<><<<<<<<<<<",
"<<<<<<<<<<<<<<<<<<<<<<<<<<<<<<<<<<<><><<<<><<<<222<><22><<<<<<<<",
"<<<<<<<<<<<<<<<<<<<<<<<<<<<<<<<<<<<<<<<<<<><>><<<>><<<<<<<<<<<<<",
"<<<<<<<22<><<<<<<<<<22<><<<<<22<<<<1<<2><><<<<2<<8<<<<<<<<><<<<<",
"<<<<<<<<<<<<><>>><<<<2<<>>><<<><<<><<<<<,<<2<<2>787<2<<><><<<<><",
"<<<<<<2<<<<2<<>><><<<<<<<<,<<<=%$=<2<2>22<<<77<7wf72>>82<<><<<<<",
"<<<<<<<<<<2<<<><<><<<<><<><<>==rr;.>><<><<<><<77sfw7<><><<><<<<<",
"<<<2<<<<,<<22<<><<<<2<<<>><<==r&*&;@<<><<<<>>78fff78<<<<<<<<<<<<",
"<<<<222<<><<<<22q><<<<><>2<,=r&&*&=;.>>><><2<7fdfff88<<<<<<<<<<<",
"<<<<<<<<>>><<>2q42<<<2<><2>==r&h&=h;@<<2<<<27gf04yyf872,<<<<<<<<",
"<<<<<<<<<<<<><4p02<<<<<<<<<==r*&&==;@><>><<<7f400yyyf7>2<<<<<<<<",
"<<<<<<<<<<<<<94pp4<<<<r2><>==r&&===;@>2<<<<>7f00y@yyf7<<<2<<<<><",
"<<<<<<<<<><,>0ppp0<2><rr2<@==r;===;$r< <<<<<7f0ya@@0f7<><<<<><<<",
"<<<<<<<<2><><5pppp42<>;r;;;@==re;;=@=@=<<<<<7fs0yu4qf7<<<<<<<<<>",
"<<<<<<<<<2<24pppppiq<>r;rr%;r@=$==.r@==@<<><87f@0yyffw<<<<<<2<<<",
"<<<<<<<<<2<4ppjlccipq>=r=;r;;=r.=@r=@=@=<<<<<7w@o40fw7<<<<><2<<<",
"<<<<<<<<>2<4pklcxlkp0r;=;rr=y;;=;r==.$=@.<<2<>8@@ff772<<<<<<<<<>",
"<<<<<<<<<<24pklhjjhi0;;;=r===yy;r==4.@$==<<><<2..77<2><><><><<<<",
"<<<<<<<<>><0pkkjzlkp4=;=;==u;;=y;r4==@.@=<2><<<@>><><<<>>><><<<<",
"<<<<<<<<<<<qppjlljpp4<>;=;;=y;;;y0==q2=@=@<<><@@<,222<<><<<<<<<<",
"<<<<<<<2>><<0ppjljp0<<=$;=2;=yy;;r=0><<=@rr<>< @<<<<1<><<<<<<<<<",
"<<<<<<<<<<<<<4ppppq<<=;=r%2<;-=y;;0=32>.:;;r<2.@>><,<><<<<<<<<<<",
"<<<<<<<<,>><2<54042=;=$r;<<>=;;=u0=1<<<<;;-r<<@+<><>2<<><<<<<<<<",
"<<<<<<<<<22<2<><<<<=r=r;<>>22=:;===><<<<<;;;;>@<<<<<>><<<<<<<<<<",
"<<<<<<<<<>2><<<,>>;;=t;<<<<<<y=r==0@<2><>r;;;<@>><><<2<<<<<<<<<<",
"<<<<<<<2>>2<<<>=>;rr;;2<2<><=;ya44@X@2<<2rr;r@X2><><<<<<<<<<<<<<",
"<<<<<<<<<><>>2;=rr=;;<<>><<=;;==@@@@@<><<>;;;=->>><<<<<<<<<<<<<<",
"<<<<<<<<<<<<<>;-==;>>2<2><==-=;r@===.<<>>><rr;=><<<<<<<<<<<<<<<<",
"<<<<<<<<<<<><<2;;>><<><<<=;;=;=@==;=@ <><<<>==;<<<2,<<><<<<<<<<<",
"<<<<<<<<<<<<<22<><<<<<<><=;==;r.=;===@<><><<<@><<<<<<<>><<<<<<<<",
"<<<<<<<<<<<<><<<<<<<<><2===;=;@=;;$==@@<<<<<<@<<<<<<><<<<<<<<<<<",
"<<<<<<<<><<><<>,<<2<<<>=;==;==@======@X<><<2<.<<<<>><<<<<<<<<<<<",
"<<<<<<<<<<<<<<<><><<><>==-=;=r=X==;===@,<><< <<<<<<<<<<<<<<<<<<<",
"<<<<<<<<><<<<<><><<>><<==;==r=-@=;:-==@><2>> 2<<<><<<<<<<<<<<<<<",
"<<<<<<<<><<<<<<<<<2><<<=;==r=;>@=;<;;=@<<<<>@<<2<<><<<<<<<<<<<<<",
"<<<<<<<<<<<<<<<<><<<<<<<==r=r;<@=<<;;;O<<<<<@2<<<<<<<<<<<<<<<<<<",
"<<<<<<<<<<<<<<<<<<<<<<<2<=r=;=<,.<;:@;.<<<<<@<><<<<<<<<<<<<<<<<<",
"<<<<<<<<<<<<<<<<<<<<<<<<==;-=2<<<<;.=.;22<>@><<<<<<<<<<<<<<<<<<<",
"<<<<<<<<<<<<<<<<<<<<<<<<=;;;=><<<@X==@;<2<>@<,<<<<<<<<<<<<<<<<<<",
"<<<<<<<<<<<<<<<<<<<<<<<=;;;==2,<<X%=@@@2<<<O<<><<<<<<<<<<<<<<<<<",
"<<<<<<<<<<<<<<<<<><<<<>=-;==><><<==@@@.<<>2@<<<<<<<<<<<<<<<<<<<<",
"<<<<<<<<<<<<<<<<<<<<<<<<=;==2>2<<<X@X@<2<>2@<<<<<<<<<<<<<<<<<<<<",
"<<<<<<<<<<<<<<<<<<>><<<<;==<<<2<2.@@@><<<<@<><<<<<<<<<<<<<<<<<<<",
"<<<<<<<<<<<<<<<<<><<<2>;;=<<2<<>>@O.<><,<<O<<<2<<<<<<<<<<<<<<<<<",
"<<<<<<<<<<<<<<<<><<<><<;;#<><<>><@.X<><<<<.><>><<<<<<<<<<<<<<<<<",
"<<<<<<<<<<<<<<<<<<2<<>>;==<2,<<<>>@X<<>2<<<<>,2<<<<<<<<<<<<<<<<<",
"<<<<<<<<<<<<<<<<<<<<<<-;==><<<<<<<@==<<<<<<><><><<<<<<<<<<<<<<<<",
"<<<<<<<<<<<<<<<<<<<<<<-==3<<><<<<,>==<><<<<><<<<<<<<<<<<<<<<<<<<",
"<<<<<<<<<<<<<<<<<<<<<<;==><<<<<<>><3=<><<><<><<<<<<<<<<<<<<<<<<<",
"<<<<<<<<<<<<<<<<<<<<<<;==>><<<<<<<<<<<><<<<<><<<<<<<<<<<<<<<<<<<",
"<<<<<<<<<<<<<<<<<<<<,<2=<2<2><><<<>><<<<<<><<<<<<<<<<<<<<<<<<<<<",
"<<<<<<<<<<<<<<<<<<<<<<<<<<<<<<<<<<<<<<<<<<<<<<<<<<<<<<<<<<<<<<<<",
"<<<<<<<<<<<<<<<<<<<<<<<<<<<<<<<<<<<<<<<<<<<<<<<<<<<<<<<<<<<<<<<<",
"<<<<<<<<<<<<<<<<<<<<<<<<<<<<<<<<<<<<<<<<<<<<<<<<<<<<<<<<<<<<<<<<",
"<<<<<<<<<<<<<<<<<<<<<<<<<<<<<<<<<<<<<<<<<<<<<<<<<<<<<<<<<<<<<<<<",
"<<<<<<<<<<<<<<<<<<<<<<<<<<<<<<<<<<<<<<<<<<<<<<<<<<<<<<<<<<<<<<<<",
"<<<<<<<<<<<<<<<<<<<<<<<<<<<<<<<<<<<<<<<<<<<<<<<<<<<<<<<<<<<<<<<<",
"<<<<<<<<<<<<<<<<<<<<<<<<<<<<<<<<<<<<<<<<<<<<<<<<<<<<<<<<<<<<<<<<",
"<<<<<<<<<<<<<<<<<<<<<<<<<<<<<<<<<<<<<<<<<<<<<<<<<<<<<<<<<<<<<<<<"
};
