/* XPM */
static char *rcp06183043934439[] = {
/* columns rows colors chars-per-pixel */
"64 64 189 2 ",
"   c #07060E",
".  c #07070F",
"X  c #08070D",
"o  c #09060F",
"O  c #08070F",
"+  c #0A070E",
"@  c #09080E",
"#  c #070711",
"$  c #080611",
"%  c #0A0710",
"&  c #090712",
"*  c #0A0712",
"=  c #080810",
"-  c #090810",
";  c #0B0811",
":  c #0A0911",
">  c #12101E",
",  c #12111F",
"<  c #13111F",
"1  c #14121F",
"2  c #120F20",
"3  c #140F23",
"4  c #071923",
"5  c #061824",
"6  c #071925",
"7  c #061A25",
"8  c #081825",
"9  c #081827",
"0  c #081A26",
"q  c #131021",
"w  c #121121",
"e  c #131220",
"r  c #131023",
"t  c #121123",
"y  c #111322",
"u  c #131222",
"i  c #151120",
"p  c #141021",
"a  c #141220",
"s  c #151321",
"d  c #141122",
"f  c #151122",
"g  c #151223",
"h  c #161223",
"j  c #131025",
"k  c #131224",
"l  c #151024",
"z  c #141124",
"x  c #161125",
"c  c #161324",
"v  c #141126",
"b  c #1F2233",
"n  c #1E2432",
"m  c #1D2434",
"M  c #212330",
"N  c #202133",
"B  c #222133",
"V  c #202332",
"C  c #212332",
"Z  c #222433",
"A  c #202135",
"S  c #222035",
"D  c #212234",
"F  c #202334",
"G  c #232234",
"H  c #222335",
"J  c #232136",
"K  c #232137",
"L  c #212236",
"P  c #202336",
"I  c #202237",
"U  c #212237",
"Y  c #242134",
"T  c #212435",
"R  c #212139",
"E  c #2F3837",
"W  c #323431",
"Q  c #303433",
"!  c #333532",
"~  c #323433",
"^  c #343633",
"/  c #303135",
"(  c #313234",
")  c #323335",
"_  c #333335",
"`  c #313236",
"'  c #323337",
"]  c #353336",
"[  c #313534",
"{  c #303435",
"}  c #333534",
"|  c #323635",
" . c #313536",
".. c #333436",
"X. c #303636",
"o. c #313737",
"O. c #333736",
"+. c #323637",
"@. c #353535",
"#. c #363435",
"$. c #343635",
"%. c #343436",
"&. c #343537",
"*. c #353537",
"=. c #363437",
"-. c #353736",
";. c #323338",
":. c #313538",
">. c #333438",
",. c #333439",
"<. c #333738",
"1. c #323639",
"2. c #33373A",
"3. c #353439",
"4. c #343539",
"5. c #353638",
"6. c #363739",
"7. c #34353A",
"8. c #35363A",
"9. c #34343C",
"0. c #34383B",
"q. c #660E0D",
"w. c #660D0F",
"e. c #640E0F",
"r. c #670F0E",
"t. c #790707",
"y. c #770B0B",
"u. c #7A090B",
"i. c #790B0A",
"p. c #7B080D",
"a. c #790B0C",
"s. c #780A0D",
"d. c #7B0A0C",
"f. c #78090F",
"g. c #780B0E",
"h. c #790B0E",
"j. c #7B0A0E",
"k. c #7C0B0F",
"l. c #7A0C0F",
"z. c #660D11",
"x. c #650F10",
"c. c #670E10",
"v. c #670E12",
"b. c #680E10",
"n. c #680F11",
"m. c #680D12",
"M. c #790A10",
"N. c #7B0A10",
"B. c #7A0B11",
"V. c #671112",
"C. c #423E59",
"Z. c #413C5A",
"A. c #433C5B",
"S. c #423D5B",
"D. c #413E5B",
"F. c #433C5D",
"G. c #423D5D",
"H. c #413E5D",
"J. c #433E5C",
"K. c #423C5E",
"L. c #433E5E",
"P. c #473C5C",
"I. c #443F5D",
"U. c #43405D",
"Y. c #9E090B",
"T. c #9D0B0C",
"R. c #9C0A0D",
"E. c #9F0A0C",
"W. c #9C0B0E",
"Q. c #9D0B0E",
"!. c #9F0A0E",
"~. c #891110",
"^. c #8B1013",
"/. c #8C1012",
"(. c #8B1314",
"). c #A00B0F",
"_. c #A00C0C",
"`. c #BE0B0F",
"'. c #BE0E11",
"]. c #C20E0F",
"[. c #C00D10",
"{. c #C10C11",
"}. c #C00D11",
"|. c #C10E11",
" X c #C10E12",
".X c #C40D12",
"XX c #C10E14",
"oX c #FB0102",
"OX c #FE0000",
/* pixels */
"&.&.&.&.&.&.&.&.&.&.&.&.&.&.&.&.&.&.&.&.&.&.&.&.&.&.&.&.&.&.&.&.&.&.&.&.&.&.&.&.4.&.&.&.&.+.&.t.&.+.4.4.+.&.&.&.&.&.&.&.&.&.&.&.",
"&.&.&.&.&.&.&.&.&.&.&.&.&.&.&.&.&.&.&.&.&.&.&.&.&.&.&.&.&.&.&.&.&.&.&.&.&.&.&.&.4.&.&.&.&.&.&.1.+.&.&.4.&.&.&.&.&.&.&.&.&.&.&.&.",
"&.&.&.&.&.&.&.&.&.&.&.&.&.&.&.&.&.&.&.&.&.&.&.&.&.&.&.&.&.&.&.&.&.&.&.&.&.&.&.&.&.&.&.4.&.4.&.4.&.4.&.&.4.&.&.&.&.&.&.&.&.&.&.&.",
"&.&.&.&.&.&.&.&.&.&.&.&.&.&.&.&.&.&.&.&.&.&.&.&.&.&.&.&.&.&.&.&.&.&.&.&.&.&.&.&.&.&.&.4.&.&.&.&.&.&.4.&.4.&.&.+.&.&.&.&.&.&.&.&.",
"&.&.&.&.&.&.&.&.&.&.&.&.&.&.&.&.&.&.&.&.&.&.&.&.&.&.&.&.&.&.&.&.&.&.&.&.&.&.&.&.&.&.&.+.&.&.&.&.&.&.&.&.&.&.&.&.&.&.&.&.&.&.&.&.",
"&.&.&.&.&.&.&.&.&.&.&.&.&.&.&.&.&.&.&.&.&.&.&.&.&.&.&.&.&.&.&.&.&.&.&.&.&.&.&.&.&.&.&.&.&.&.&.&.&.&.&.+.4.&.&.&.&.&.&.&.&.&.&.&.",
"&.&.&.&.&.&.&.&.&.&.&.&.&.&.&.&.&.&.&.&.&.&.&.&.&.&.&.&.&.&.&.&.&.&.&.&.&.&.&.&.&.&.&.&.4.&.&.4.&.&.&.&.&.&.&.&.&.&.&.&.&.&.&.&.",
"&.&.&.&.&.&.&.&.&.&.&.&.&.&.&.&.&.&.&.&.&.&.&.&.&.&.&.&.&.&.&.&.&.&.&.&.&.&.&.&.&.&.&.&.&.&.&.+.&.&.&.&.&.&.&.&.&.&.&.&.&.&.&.&.",
"&.&.&.&.&.&.&.&.&.&.&.&.&.&.&.&.&.&.&.&.&.&.&.&.&.&.4.&.&.&.4.&.&.&.&.&.&.&.&.&.&.&.&.&.&.&.&.&.&.&.+.&.&.&.4.1.&.&.&.&.&.&.&.&.",
"&.&.&.&.&.&.&.&.&.&.&.&.&.&.&.&.&.&.&.&.&.&.&.&.&.4.&.4.+.&.&.&.&.&.&.&.&.&.&.4.&.&.&.&.&.4.+.&.&.&.&.&.&.&.1.&.&.&.&.&.&.&.&.&.",
"&.&.&.&.&.&.&.&.&.&.&.&.&.&.&.&.&.&.&.&.&.&.&.&.&.&.&.4.&.&.&.&.&.&.4.&.&.&.&.4.+.&.&.&.&.&.4.&.&.&.&.&.&.&.&.&.&.&.&.&.&.&.&.&.",
"&.&.&.&.&.&.&.&.&.&.&.&.&.&.&.&.&.&.&.&.&.&.&.&.&.&.&.&.+.4.&.&.&.&.&.&.&.&.&.+.&.&.&.&.1.&.+.&.1.&.&.&.&.&.+.&.&.&.&.&.&.&.&.&.",
"&.&.&.&.&.&.&.&.&.&.&.&.&.&.&.&.&.&.&.&.&.&.&.&.&.&.^.4.+.&.&.&.&.&.&.&.^ &.&.&.&.&.&.&.&.&.&.+.4.&.&.4.+.+.i.4.&.&.&.&.&.&.&.&.",
"&.&.&.&.&.&.&.&.&.&.&.&.&.&.&.&.&.&.&.&.&.&.&.&.&.+.&.&.4.4.&.&.&.&.&.&.&.&.&.1.+.&.&.&.+.4.+.&.+.4.&.&.&.+.1.+.&.&.&.&.&.&.&.&.",
"&.&.&.&.&.&.&.&.&.&.&.&.&.&.&.&.&.&.&.&.&.&.&.&.&.&.&.4.+.&.&.+.&.&.&.&.&.&.&.4.4.&.&.&.4.&.&.&.1.N.&.&.+.&.&.&.&.&.&.&.&.&.&.&.",
"&.&.&.&.&.&.&.&.&.&.&.&.&.&.&.&.&.&.&.&.&.&.&.+.+.1.&.&.&.&.&.&.&.&.&.&.&.&.&.&.&.&.&.&.&.+.+.&.d.d.d.&.&.&.&.4.&.&.&.&.&.&.&.&.",
"&.&.&.&.&.&.&.&.&.&.&.&.&.&.&.&.&.&.&.&.&.&.&.4.4.&.&.&.&.&.d z u u &.&.&.+.1.+.4.&.&.&.d.d.&.d.d.}.d.&.&.&.&.&.&.&.&.&.&.&.&.&.",
"&.&.&.&.&.&.&.&.&.&.&.&.&.&.&.&.&.&.&.&.&.&.&.&.+.+.&.&.&.z d P.Z.G @ &.&.&.&.+.&.&.+.4.4.+.d.d.}.}.N.d.&.4.&.&.&.&.4.&.&.&.&.&.",
"&.&.&.&.&.&.&.&.&.&.&.&.&.&.&.&.&.&.&.&.&.4.4.&.1.+.4.+.d z Z.6 6 6 G - &.&.&.&.&.&.&.&.4.k.d.'.}..Xy.d.&.&.+.&.&.&.&.&.&.&.&.&.",
"&.&.&.&.&.&.&.&.&.&.&.&.&.&.&.&.4.&.&.&.+.&.4.+.&.&.&.+.d J.4 8 6 8 d G - &.&.&.&.4.4.&.+.d.}.}.}.}.}.d.d.4.4.&.&.&.&.&.&.&.&.&.",
"&.&.&.&.&.&.&.&.&.&.&.&.&.&.&.&.4.+.&.&.&.4.&.+.+.4.&.u < J.6 OX6 d oXG - &.1.+.4.&.+.&.d.}.`.c.c.!.!.}.d.d.&.4.&.&.&.&.&.&.&.&.",
"&.&.&.&.&.&.&.&.&.&.&.&.&.&.&.&.&.&.&.&.&.&.&.&.4.+.4.u < Z.6 8 6 d d G @ &.4.&.&.+.4.&.k.}.c.n.n.!.!.!.}.d.1.&.&.&.&.&.&.&.&.&.",
"&.&.&.&.&.&.&.&.&.&.&.&.&.&.&.&.&.&.4.+.+.+.&.P.&.&.0.d d Z.6 6 d d < G & &.&.&.&.&.&.4.l.}.r.c.!.@ !.!.}.d.&.&.&.&.&.&.&.4.&.&.",
"&.&.&.&.&.&.&.&.&.&.&.&.&.&.&.&.&.&.&.&.&.4.+.Z.Z.&.- @ d Z.G 3 d d G d U.+.. &.+.4.&.E d.}.r.!.!.. - c.}.d.&.+.&.&.&.&.&.&.&.&.",
"&.&.&.&.&.&.&.&.&.^ &.&.&.&.&.&.&.&.4.&.&.+.+.G Z.G G & d d J.Z.G C u - d - u &.&.+.4.4.i.}.].c.!.!.e.c.}.d.+.&.+.&.&.&.+.&.&.&.",
"&.&.&.&.&.&.&.&.&.&.&.&.&.&.&.&.&.4.&.&.4.&.+.C G Z.Z.G b & d u d d - Z.& u d - &.&.&.+.d.l.}.- V.!.!.}.}.d.&.&.+.&.&.&.&.&.4.&.",
"&.&.&.&.&.4.&.4.&.&.&.&.&.+.&.4.&.4.&.&.&.+.u J.J.C !.G T d J.- d - Z.u & d O d &.&.&.&.&.d.d.- = c.c.XXd.d.&.&.&.&.&.&.+.&.&.&.",
"&.&.&.&.&.&.&.&.&.&.4.&.^.&.&.&.&.4.+.&.4.G O d G !._.!.d G G d G Z.d u O z u - (.&.+.^ &.+.d.- - '.'.d.d.1.&.4.&.&.&.+.&.&.&.&.",
"&.&.&.&.&.&.&.&.&.&.&.&.&.4.+.&.&.4.&.&.d z d b z J.!.d d !.O G J.d d n.& & u d d +.&.+.&.&.4.& & N.d.+.+.&.&.+.&.+.&.&.&.&.4.&.",
"&.&.&.&.&.&.&.&.&.&.&.&.&.4.&.+.4.4.&.G d - u C G G < u G G d ).G J.c.d d - O O u &.&.&.+.&.4.- 4.1.&.&.&.&.&.+.4.&.&.4.&.&.4.&.",
"&.&.&.&.&.&.4.&.&.&.4.&.&.&.&.&.4.4.4.b G C - &.Z G C d d ).G C !.c.d u c.4.d @ d . &.&.+.+.O O &.+.&.&.+.4.+.&.4.&.&.&.4.&.&.&.",
"&.&.&.&.&.4.&.&.&.&.&.&.&.4.+.&.&.&.&.&.d G Z.- &.< d G d G Y.C G J.z r.4.&.4.d & J.Z.&.&.&.- - &.&.&.+.+.+.&.&.&.&.+.&.&.&.&.&.",
"&.&.&.&.&.&.&.&.&.&.&.&.4.9.4.+.+.&.&.&.- C G G O &.&.d C G d !.G G c.d &.4.&.- G G G Z.&.&.@ O &.&.&.&.&.&.&.&.&.&.&.&.&.&.&.&.",
"&.&.&.&.&.&.&.&.&.&.&.&.&.4.4.&.&.+.&.&.4.z Z.R u +.&.&.u G G u !.r.u &.+.&.4.&.G G G J.&.&.- O &.&.+.+.+.+.&.&.&.&.&.&.&.&.&.&.",
"&.&.&.&.&.&.&.&.4.&.&.&.4.&.&.&.&.&.&.&.&.C u u Z.G &.&.!.d G d d d u &.4.&.&.&.&.G G G G &.O &.+.&.+.&.&.&.+.&.&.&.&.&.&.&.&.&.",
"+.+.+.+._ +.+.+.+.+.+.+.+._ +.+._ +.+.;.+.+.C @ d G =.+.z !.d Z.u u n.& +.+.+.&.+.Z.G G C +.- 4.+.+.+.+.&.+.+.+.+.+.+.+._ _ +.+.",
"+.+._ _ _ _ +.+.+.+._ _ +._ +._ _ &.~ _ &.&.+.G G +.&.u G G !.c.n.n.- - @ +.+.+.+.Z.Z.C J.O O +._ &._ _ +.+.&.+.+.+._ _ _ _ +.+.",
"+.+.+._ _ _ +.+._ _ _ _ +._ +.+.+.~ _ &.+.+.+.+.1._ z d G d d u - G - @ - _ +.&.+.+.G C G d C &._ +.+._ +.+.+._ +.+.+._ _ _ +.+.",
"+.+.+._ _ +.+.+.+.+.+._ +.+.+.+._ +.+.+.+.+.1.+._ d d G 3 G Z.O - G d d O +.+.&.+.+._ Z.Z.G d 1._ _ &.+.+.+.=._ +.+.+._ _ +.+.+.",
"+.+.+._ _ +.+.+.+.+._ _ _ +.+._ +.+._ +.+.+.+.&.+.u G d d G - # d d G z - - +.+.+.&._ _ < d G _ _ _ +.+.+.+._ _ +.+._ _ +.+.+.+.",
"+.+.+.+._ _ _ +.+.+._ _ _ +.+.+.+.+.+.+.+.+._ &.u d G d G Z.& d d G d d d - &._ +.+.;._ _ & +.+._ +.+.+._ +._ _ +.+.+.+._ _ _ _ ",
"+.+.+.+._ _ _ +.+.+._ _ _ _ +.+._ +.+.1.&.+._ d d u /.z d - O G G u d d d - - ~ +.+._ +.+.& +.+._ _ +.+.+.+._ _ +.+.+.+._ _ _ +.",
"+.+.+.+._ _ +.+.+.+._ _ +.+.+.+.+.+._ _ _ _ d d T d G d d & d d d m z u d - - +.+._ _ +.&.@ +._ _ _ +.+.+.+.+._ +.+.+.+._ _ +.+.",
"+.+.+._ _ _ +.+.+.+._ _ +.+.+.+.+._ +._ ~ _ 3 3 G u G d J.d & u d G G u d d - &.+.1.+._ O &.+.+._ _ _ _ +.+.+._ _ +.+.+._ _ +.+.",
"_ _ _ _ +.+.+.+.+.+.+.+.+._ _ _ _ _ +.&.+.&.d z G d d J.1 G - d G G G C d d @ +.+.~ _ +.- _ &._ +.+.+._ _ _ +.+._ _ _ _ +.+.+.+.",
"_ _ _ _ +.+.+.+.+.+.+.+.+._ _ _ _ +._ _ &.&.+.d d J.Z.u G _ - u C &.+.G G d - +.+._ _ +.- +.+._ +.+.+.+._ +.+.+._ _ _ _ +.+.+.+.",
"+.+._ _ _ +._ _ _ _ +.+.+.+._ _ +.+.+.+.+.1.+.&.d Z.u G G _ & d d +.+.C C C & _ +.&.+.+.- +.+.+.+.+._ _ _ _ +.+.+.+._ _ +.+._ _ ",
"+.+.+._ _ _ _ _ _ _ +.+.+._ _ _ +.+._ +.+.+.+.+.d J.G G z ;.+.& &.+.G G O C & 4._ +.1.1.- +.+._ +.+._ _ _ _ +.+.+.+.+.+._ _ _ _ ",
"+.+._ _ _ _ _ +._ _ +.+.+.+._ _ _ _ +.1.+.+.1.3 d G G d +.+.;._ _ +.G - d - G +.+.+.+.- +.+.+.+._ _ _ +.+._ _ _ _ _ +.+.+.+._ _ ",
"+.+._ _ _ _ +.+._ _ +.+.+.+._ _ _ _ +.+.+.+.=.d G G T z +._ +.+.+.@ - d z - Y +.+.&.+.- +.+.+.+.+.+._ _ _ _ +._ _ _ +.+.+.+._ _ ",
"+.+.+._ +.+.+.+._ _ _ _ +.+.+._ _ +.+.&._ &.3 G C d d +.+.+.+.+.+.- d u & @ & &._ +.~ - +._ ;._ +.+.+._ +.+.+.+._ _ _ _ +.+.+._ ",
"+.+.+._ +.+.+.+._ _ _ +.+.+.+.+.&.+.+.+.&._ u u G u d 4._ +.1.+.+.d z O - & - +.;.~ +.- +._ _ _ +.+.+.+.+.+.+.+._ _ _ +.+.+.+.+.",
"+.+.+.+.+.+._ _ +.+.+.+._ _ +.+.+.+.&.+._ &.+.u G d +.&._ &.+.+._ +.O & - - +.+.+.~ +.O _ _ +.+.+.+.+.+.+.+.+.+.+.+.+.+._ _ +.+.",
"+.+.+.+.+.+._ _ +.+.+.+._ _ _ +.+.+.+.+._ +.C n u +.+.+.;.&.+.&.+.O O O & +.+.+.+.+.- &.;._ _ +.+.+.+.+.+.+._ _ +.+.+.+._ _ _ +.",
"+.+.+.+._ _ _ _ +.+.+._ _ _ +.+._ _ +.+.+.&.C G d +.1.+._ ~ 1.+.&.- & & 1.&.+.+.+.+.& _ ;._ +.+.+.+.+.+._ _ _ _ +.+.+._ _ _ +.+.",
"_ _ +.+.+._ _ _ +.+.+._ _ _ +.+._ _ &.+.+.+.G d z +.&._ +.+.+.+.~ - & - +.+.+.+.+.4.& _ +._ +.+.+.+.+._ _ _ _ _ +.+.+._ _ _ +.+.",
"_ _ _ _ +.+.+.+.+.+.+.+.+.+.+.+.+._ _ _ +.C G z d +.&.+.+.+.+.1.+.&.- - &.+.+.+.1.+.+.1.+.+.+.+._ _ _ _ +.+.+.+.+.+.+.+.+.+.+.+.",
"_ _ _ _ +.+.+.+.+.+._ +.+.+.+.+.&._ _ +.+.b u u +.+.&.+.&.1.+._ &.&.. u z +.+.+.+.+.+.+.+.+.+.+._ _ _ _ +.+.+.+.+.+._ +.+.+.+.+.",
"_ _ _ _ _ _ _ _ _ _ _ _ _ _ _ _ ~ _ _ _ _ b d _ _ _ _ _ _ _ _ _ _ ~ _ u d _ _ _ ~ _ _ ~ _ _ _ _ _ _ _ _ _ _ _ _ _ _ _ _ _ _ _ _ ",
"_ _ _ _ _ _ _ _ _ _ _ _ _ _ _ _ ~ _ _ _ _ G u _ _ _ _ _ _ _ _ _ ~ _ _ _ k _ _ _ _ _ _ _ _ _ _ _ _ _ _ _ _ _ _ _ _ _ _ _ _ _ _ _ ",
"_ _ _ _ _ _ _ _ _ _ _ _ _ _ _ _ _ _ _ _ +.u < _ _ _ _ ~ _ _ _ _ ~ _ _ _ _ ~ _ _ _ _ _ _ _ _ _ _ _ _ _ _ _ _ _ _ _ _ _ _ _ _ _ _ ",
"_ _ _ _ _ _ _ _ _ _ _ _ _ _ _ _ _ _ ~ +._ _ _ _ _ _ +._ _ _ _ _ _ +._ _ _ _ _ _ _ _ _ _ _ _ _ _ _ _ _ _ _ _ _ _ _ _ _ _ _ _ _ _ ",
"_ _ _ _ _ _ _ _ _ _ _ _ _ _ _ _ _ ~ _ _ _ _ _ _ _ _ _ _ _ _ ~ _ _ _ _ +._ _ _ _ _ _ _ _ _ _ _ _ _ _ _ _ _ _ _ _ _ _ _ _ _ _ _ _ ",
"_ _ _ _ _ _ _ _ _ _ _ _ _ _ _ _ _ 4._ _ _ _ _ _ _ ~ _ +.+.~ _ ~ _ _ _ _ ~ _ _ _ _ _ _ _ _ _ _ _ _ _ _ _ _ _ _ _ _ _ _ _ _ _ _ _ "
};
