/* XPM */
static char *rcp06181961191517[] = {
/* columns rows colors chars-per-pixel */
"64 64 200 2 ",
"   c #07060C",
".  c #06060E",
"X  c #07060E",
"o  c #07070F",
"O  c #09060F",
"+  c #08070F",
"@  c #0A070E",
"#  c #09080E",
"$  c #08090E",
"%  c #0A090F",
"&  c #070713",
"*  c #080611",
"=  c #090611",
"-  c #0A0710",
";  c #090712",
":  c #080810",
">  c #090810",
",  c #0A0911",
"<  c #080812",
"1  c #0A0813",
"2  c #0A0A12",
"3  c #12101E",
"4  c #13111F",
"5  c #140F23",
"6  c #061822",
"7  c #071923",
"8  c #071925",
"9  c #061A25",
"0  c #061826",
"q  c #071927",
"w  c #081825",
"e  c #081929",
"r  c #131021",
"t  c #121121",
"y  c #101221",
"u  c #131220",
"i  c #101123",
"p  c #131023",
"a  c #131222",
"s  c #151120",
"d  c #141021",
"f  c #141220",
"g  c #151321",
"h  c #141122",
"j  c #151122",
"k  c #151223",
"l  c #141323",
"z  c #161223",
"x  c #131224",
"c  c #151024",
"v  c #141124",
"b  c #151225",
"n  c #151227",
"m  c #1F2233",
"M  c #1F2235",
"N  c #1E2434",
"B  c #202231",
"V  c #202133",
"C  c #222133",
"Z  c #202332",
"A  c #212332",
"S  c #232232",
"D  c #222433",
"F  c #202135",
"G  c #212234",
"H  c #202334",
"J  c #232234",
"K  c #222335",
"L  c #222036",
"P  c #232136",
"I  c #212236",
"U  c #202336",
"Y  c #212237",
"T  c #222337",
"R  c #242335",
"E  c #212435",
"W  c #212437",
"Q  c #232438",
"!  c #2F3334",
"~  c #2F3336",
"^  c #303133",
"/  c #313332",
"(  c #323232",
")  c gray20",
"_  c #343233",
"`  c #323431",
"'  c #303433",
"]  c #333532",
"[  c #323433",
"{  c #313632",
"}  c #313234",
"|  c #323234",
" . c #323335",
".. c #333335",
"X. c #313236",
"o. c #333237",
"O. c #323337",
"+. c #343235",
"@. c #353336",
"#. c #313534",
"$. c #303435",
"%. c #333534",
"&. c #323635",
"*. c #313536",
"=. c #303437",
"-. c #333436",
";. c #303636",
":. c #323637",
">. c #343434",
",. c #343635",
"<. c #343436",
"1. c #343537",
"2. c #353537",
"3. c #353736",
"4. c gray21",
"5. c #323338",
"6. c #343338",
"7. c #303538",
"8. c #313538",
"9. c #333438",
"0. c #333439",
"q. c #323639",
"w. c #353439",
"e. c #343539",
"r. c #353638",
"t. c #363638",
"y. c #35363A",
"u. c #650F0E",
"i. c #670F0E",
"p. c #77090A",
"a. c #770A0D",
"s. c #770A0F",
"d. c #7A090B",
"f. c #780A0B",
"g. c #7A090D",
"h. c #790B0C",
"j. c #780A0D",
"k. c #7B0A0C",
"l. c #78090F",
"z. c #780B0E",
"x. c #790B0E",
"c. c #7B0A0E",
"v. c #7D0A0F",
"b. c #7A0C0D",
"n. c #7A0C0F",
"m. c #650F10",
"M. c #670E10",
"N. c #670E12",
"B. c #680E10",
"V. c #680F11",
"C. c #680D12",
"Z. c #790A10",
"A. c #7B0A10",
"S. c #7A0D10",
"D. c #661011",
"F. c #433D59",
"G. c #423E59",
"H. c #413C5A",
"J. c #433C5B",
"K. c #423D5B",
"L. c #413E5B",
"P. c #413C5C",
"I. c #433C5D",
"U. c #423D5D",
"Y. c #413E5D",
"T. c #433E5C",
"R. c #423F5C",
"E. c #423F5E",
"W. c #453E5D",
"Q. c #443F5D",
"!. c #443D5E",
"~. c #9C0A0B",
"^. c #9D0B0B",
"/. c #9D0B0C",
"(. c #9C0A0D",
"). c #9C090F",
"_. c #9C0B0E",
"`. c #9D0B0E",
"'. c #9F0A0E",
"]. c #9E0C0F",
"[. c #9D0A10",
"{. c #9C0B10",
"}. c #A00B0F",
"|. c #BF0C0F",
" X c #A00B11",
".X c #BF0C10",
"XX c #C00E0C",
"oX c #C00C0F",
"OX c #C00B10",
"+X c #C00D10",
"@X c #C10D10",
"#X c #C10C11",
"$X c #C00D11",
"%X c #C10E11",
"&X c #C00D13",
"*X c #C10E12",
"=X c #C30E13",
"-X c #FD0000",
";X c #FD0002",
":X c #E7AF8E",
/* pixels */
"-.-.-.-.-.-.-.-.-.-.-.-.-.-.-.-.-.-.-.-.-.-.-.-.-.-.-.-.-.-.-.-.-.-.-.-.-.-.-.-.-.-.-.-.-.-.-.-.-.-.-.-.-.-.-.-.-.-.-.-.-.-.-.-.",
"-.-.-.-.-.-.-.-.-.-.-.-.-.-.-.-.-.-.-.-.-.-.-.-.-.-.-.-.-.-.-.-.-.-.-.-.-.-.-.-.-.-.-.-.-.-.-.-.-.-.-.-.-.-.-.-.-.-.-.-.-.-.-.-.",
"-.-.-.-.-.-.-.-.-.-.-.-.-.-.-.-.-.-.-.-.-.-.-.-.-.-.-.-.-.-.-.-.-.-.-.-.-.-.-.-.-.-.-.-.-.-.-.-.-.-.-.-.-.-.-.-.-.-.-.-.-.-.-.-.",
"-.-.-.-.-.-.-.-.-.-.-.-.-.-.-.-.-.-.-.-.-.-.-.-.-.-.-.-.-.-.-.-.-.-.-.-.-.-.-.-.-.-.-.-.-.-.-.-.-.-.-.-.-.-.-.-.-.-.-.-.-.-.-.-.",
"-.-.-.-.-.-.-.-.-.-.-.-.-.-.-.-.-.-.-.-.-.-.-.-.-.-.-.-.-.-.-.-.-.-.-.-.-.-.-.-.-.-.-.-.-.-.-.-.-.-.-.-.-.-.-.-.-.-.-.-.-.-.-.-.",
"-.-.-.-.-.-.-.-.-.-.-.-.-.-.-.-.-.-.-.-.-.-.-.-.-.-.-.-.-.-.-.-.-.-.-.-.-.-.-.-.-.-.-.-.-.-.-.-.-.-.-.-.-.-.-.-.-.-.-.-.-.-.-.-.",
"-.-.-.-.-.-.-.-.-.-.-.-.-.-.-.-.-.-.-.-.-.-.-.-.-.-.-.-.-.-.-.-.-.-.-.-.-.-.-.-.-.-.-.-.-.-.-.-.-.-.-.-.-.-.-.-.-.-.-.-.-.-.-.-.",
"-.-.-.-.-.-.-.-.-.-.-.-.-.-.-.-.-.-.-.-.-.-.-.-.-.-.-.-.-.-.-.-.-.-.-.-.-.-.-.-.-.-.-.-.-.-.-.-.-.-.-.-.-.-.-.-.-.-.-.-.-.-.-.-.",
"-.-.-.-.-.-.-.-.-.-.-.-.-.-.-.-.-.-.-.-.-.-.-.-.-.-.-.-.-.-.-.-.-.-.-.-.1.1.-.-.1.-.-.-.1.-.-.-.-.-.-.-.-.1.-.-.-.-.-.-.-.-.-.-.",
"-.-.-.-.-.-.-.-.-.-.-.-.-.-.-.-.-.-.-.-.-.-.-.1.-.-.-.1.-.-.-.-.-.-.-.-.-.-.-.1.-.-.} -.1.-.-.-.-.} -.-.-.-.} -.-.-.-.-.-.-.-.-.",
"-.-.-.-.-.-.-.-.-.-.-.-.-.-.-.-.-.-.-.-.-.-.-.-.-.-.-.-.-.-.-.-.-.-.-.-.-.-.-.-.-.-.-.1.-.-.1.-.-.-.9.-.-.-.-.-.-.-.-.-.-.-.-.-.",
"-.-.-.-.-.-.-.-.-.-.-.-.-.-.-.-.-.-.-.-.-.-.-.} -.-.-.} -.-.-.-.-.-.-.-.-.-.-.-.} } r.-.1.-.-.1.1.-.-.-.-.f.1.-.-.-.-.-.-.-.-.-.",
"-.-.-.-.-.-.-.-.-.-.-.-.-.-.-.-.-.-.-.-.-.-.-.} -.-.-.} -.-.-.-.-.-.-.-.9.9.1.-.-.-.-.-.1.-.-.r.j.} -.1.-.-.-.-.-.-.-.-.-.-.-.-.",
"-.-.-.-.-.-.-.-.-.-.-.-.-.-.-.-.-.-.-.-.-.-.-.-.-.-.-.-.-.-.-.-.-.-.-.-.-.-.-.-.1.-.5.9.-.-.-.Z.j.r.} -.-.-.-.-.-.-.-.-.-.-.-.-.",
"-.-.-.-.-.-.-.-.-.-.-.-.-.-.-.-.-.-.-.-.-.-.-.1.-.-.-.1.-.-.-.-.-.-.-.-.1.-.-.-.9.-.9.j.-.1.-.j.$Xj.-.-.-.} -.9.-.-.-.-.-.-.-.-.",
"-.-.-.-.-.-.-.-.-.-.-.-.-.-.-.-.-.-.-.-.-.-.-.-.-.-.-.-.-.-.-.-.-.-.-.-.-.-.-.-.-.1.9.j.1.1.-.j.$Xj.j.-.-.-.1.-.-.-.-.-.-.-.-.-.",
"-.-.-.-.-.-.-.-.-.-.-.-.-.-.-.-.-.-.-.-.-.-.-.} -.1.-.9.-.9.-.} 1.} 1.-.-.-.-.6.-.-.-.-.-.9.-.j.$XOXZ.-.-.-.-.-.-.-.} 1.-.-.-.-.",
"-.-.-.-.-.-.-.-.-.-.-.-.-.-.-.-.-.} -.-.1.1.-.-.} 9.-.9.@.r v h v } -.-.-.-.-.-.-.-.1.-.9.} v.j.$X$Xj.p.-.-.-.-.-.-.} 1.-.-.-.-.",
"-.-.-.-.-.-.-.-.-.-.-.-.-.-.-.-.-.-.-.-.} -.-.-.-.-.-.-.h v K.U.V   1.1.-.[ -.-.-.-.-.1.-.j.S.$X$X$XZ.j.-.-.-.1.-.-.-.-.-.-.-.-.",
"-.-.-.-.-.-.-.-.-.-.-.-.-.-.9.9.1.-.9.-.-.9.-.-.[ -.-.h h K.e 8 8 V + 9.) -.9.} -.-.-.9.j.s.$X$X$X$X$Xj.9.-.-.-.-.-.-.-.-.-.-.-.",
"-.-.-.-.-.-.-.-.-.-.-.-.-.-.-.-.-.9.-.-.9._ -.-.r.1.-.r K.8 8 8 8 v G = -.-.1.-.-.-.-.-.j.j.$X$X$X$X.Xj.-.-.-.-.-.-.-.-.-.-.-.-.",
"-.-.-.-.-.-.-.-.-.-.-.-.-.-.-.-.-.-.9.-.-.} -.-.-.-.3 v K.6 ;X6 v ;XG > 1.} -.1.-.-.1.} b.$XM.M.{.{.$Xs.-.-.-.-.-.-.-.-.-.-.-.-.",
"-.-.-.-.-.-.-.-.-.-.-.-.-.-.-.-.-.-.-.-.} -.-.} 1.-.r v K.8 8 8 v h G > -.-.-.-.-.1.9.j.XXM.i.M.`.`.`.$Xf.-.} -.-.-.-.-.-.-.-.-.",
"-.-.-.-.-.-.-.-.-.-.-.-.-.-.9.9.[ -.-.} -.!.-.6.} -.h h U.w 8 h h h V > 1.[ -.-.-.-.-.j.$XM.M.{.+ `.`.$Xj.-.} -.-.-.1.-.-.-.-.-.",
"-.-.-.-.-.-.-.-.-.-.-.-.-.-.-.-.-.-.-.-.1.U.K.@.-.= h h K.V h r r V h K.-.= 1.9.-.-.-.j.$XV.`.{.    M.$Xb.j.1.-.-.-.-.-.-.-.-.-.",
"-.-.-.-.-.-.-.-.-.-.-.-.-.-.-.-.-.} 1.-.-.G !.G G G > v r K.U.G G h > r > h -.1.1.-.-.j.$X$XM.`.`.i.V.$Xj.j.-.9.-.-.-.-.1.-.-.-.",
"-.-.-.-.-.-.-.-.-.-.-.-.-.-.-.-.-.-.-.-.1.K.G K.K.r G K.> h 3 h h > K.> h x > -.-.-.-.j.$XXX= M.`.`.$X|.j.j.9.-.-.-.-.-.-.-.-.-.",
"-.-.-.-.-.-.-.-.-.-.-.-.-.-.-.-.-.-.-.-.1.h U.v G U.V E h U.= h > K.h > h $ v -.-.1.9.j.j.$X+ > M.D.$Xj.j.-.-.-.-.-.-.9.-.-.-.-.",
"-.-.-.-.-.-.-.-.-.-.-.-.-.-.-.-.-.-.} -.U.V h V K.U.r `.V G r R K.r h + h h > > [ } -.-.j.j.> > $X$Xj.j.-.-.-.-.-.-.-.-.-.-.-.-.",
"-.-.-.-.-.-.-.-.-.-.-.-.-.-.-.-.-.1.-.-.E V G h K.v h r `.`.G U.h h V.> > v x v -.-.-.-.-.9.+ > j.j.j.-.-.-.1.1.-.-.-.1.-.1.-.-.",
"-.-.-.-.-.-.-.-.-.-.-.-.-.-.-.-.-.-.-.-.r G v G h r ^.V G v ].V K.V.h h > + > r 1.9.} } -.r.> -.-.} } -.-.} 1.-.-.-.-.9.-.-.-.-.",
"-.-.-.-.-.-.-.-.-.-.-.-.-.-.-.-.-.-.} -.-.h G h m Q h `.G G V `.M.r v i.-.h > v > -.1.1.1.> + -.-.-.-.-.1.-.-.1.-.-.} -.-.-.} -.",
"-.-.-.-.-.-.-.-.-.9.-.-.-.-.-.-.-.} 1.-.[ E h v h } G r `.^.G G U.h M.-.-.-.h $ U.U.} -.-.+ & -.-.-.-.-.-.-.-.-.-.-.-.-.-.-.-.-.",
"-.-.-.-.-.-.-.-.-.-.-.9.-.1.} -.-.9.-.-.@.h D r -.-.-.G G h `.G G M.r -.-.-.+ G G G U.-.-.  = -.-.9.-.9.-.-.-.-.-.-.-.-.-.-.-.-.",
"-.-.-.-.-.-.-.-.} -.-.-.-.} -.-.} 6.-.6.h U.h K.9.} -.h G G r  XM.h -.-.1.-.-.E G G K.-.1.> + -.-.-.-.-.-.-.-.-.-.-.-.-.-.-.-.-.",
"-.-.-.-.-.-.-.-.-.-.-.9.-.9.1.} -.-.-.h G h U.G 1.-.1.-.r V G h r h -.-.-.} -.-.R V G G 9.+ -.-.-.-.-.1.-.-.-.-.-.-.-.-.-.-.-.-.",
"-.-.-.-.-.-.-.-.-.-.-.} -.-.-.-.:X-.-.G h U.G 1.-.-.} 1.}.h K.r v V.> -.-.-.-.[ U.G G V -.= 1.9.-.1.1.-.-.-.-.-.-.-.-.-.-.-.-.-.",
"-.-.-.-.-.-.-.-.-.-.-.-.-.-.-.} -.-.9.G h G -.-.1.-.-.r V `.`.i.M.> + > 9.-.-.[ U.U.G K.= > -.1.-.-.-.-.-.-.-.-.-.-.-.-.-.-.-.-.",
"-.-.-.-.-.-.-.-.-.-.-.-.-.9.-.} -.} G K.U.G -.-.-.-.r G G h h + > $ > = 1.-.-.-.-.m G V h G } -.6.1.-.9.-.-.-.-.-.-.-.-.-.-.-.-.",
"-.-.-.-.-.-.-.-.-.} -.-.1.-.-.r -.G K.v V -.-.r.-.v v G v m U.+ h r h > -.-.-.-.-.[ K.K.G h } -.-.[ -.-.-.-.-.-.-.-.-.-.-.-.-.-.",
"-.-.-.-.-.-.-.-.-.-.-.-.-.-.-.G h U.r M -.} -.-.h G G r G h = h v G r + > 1.} 1.9.-.} v h G -.9.-.-.1.1.-.-.-.-.-.} -.-.} } } } ",
"-.-.-.-.-.-.-.-.-.-.-.-.r.} } G G h V 1.-.-.-.-.v V h h G K.> h V r r r > -.-.-.-.-.1.1.> -.1.-.-.-.-.} 1.-.-.-.-.-.-.} } } } } ",
"-.-.-.-.-.-.-.-.-.-.-.-.-.-.} } G G 1.[ -.-.-.h h h V h G > h G G h r h > $ -.9.-.1.-.9.> -.-.-.-.-.-.-.1.-.-.-.-.-.-.} } } } } ",
"-.-.-.-.-.-.-.-.1.-.-.-.1.9.1.-.-.-.-.1.1.1.h G h v G h h $ h h v v h h > > 1.-.-.-.-.-.> 1.-.1.} -.-.-.-.-.-.-.-.} } } -.-.} } ",
"-.-.-.-.-.-.-.-.-.-.-.-.-.-.-.-.6.-.} -.9.-.h h G h G x K.h > h h G h h h > [ -.-.-.1.= 1.-.-.[ 9.-.-.-.-.-.-.-.} } } } } } } } ",
"-.-.-.-.-.-.-.-.-.-.-.-.-.-.-.-.-.-.-.-.9.-.h h G h h K.h G > r G V G h v = 1.-.-.9.-.+ 1.1.-.-.-.-.-.-.-.-.} } } } } } } } } } ",
"-.-.-.-.-.} } } } } } } } } } } } } } 9.} } h G h r U.h G } = h m [ G G v + } } } } } > [ [ } } } } } } } } } } } } } } } } } } ",
"-.-.-.-.} } } } } } } -.} } } } [ } } } } -.[ h h U.h K.G [ > h } } G E G $ } } } } } > -.) } } } } } -.} } } } } } } } } } } } ",
"} } } } } } } } } } } } } } } } } } } } } } } } h !.h V x [ } > -.G G > G > } } -.-.-.$ } } } } } } } } } -.} } } -.-.} } } -.} ",
"} } } } } } } } } } } } } } } } } } } } } -.} h r G E h } } ) } } G > h + V -.} ) 1.> } } } } } } } } } } } -.} } } } } } } -.} ",
"} } } } } } } } } } } } } -.} } } } -.} } } [ r G G E h -.} -.-.$ > h 5 $ G [ } } -.= [ } } } } } } } } } } } } } } } } } } } } ",
"} } } } } } } } -.-.} } } -.} } } } } } -.-.h G G E r 3 } } -.-.> 3 h > > > } -.9.} > } } [ } } } } } } } } } } } } } } } } } } ",
"} } -.} } } } -.} } } } } } } } } } [ } } } h G G h h } -.} } } r v $ > = > } } } } + -.} } } } -.} } } } } } } -.} } } } -.} } ",
"} -.-.} } } } } } } } } } } } } } } } } -.-.[ r V r h } } } } 1.} = > > > -.} 1.} }   } -.} } } -.} } } } } } } } } } } } -.} } ",
"} } } } } } } } } } } } } } } } } } } ) -.[ } G r r [ } } } 9.1.> $ > > 1.} [ } } = } } } } } } } } } } } } -.-.} } } } } } } } ",
"} } } } } } } } } } -.} -.} } } } } } } } } G G r [ } -.} [ } } > > = } -.} } } -.> -.} } [ } -.} } } } } } } } } } } } } } } } ",
"} } } } } } } -.} } } } } } [ } } 5.} } -.} V G r } ) } -.-.} -.= > > -.9.[ [ } [   [ } } } } } } } } } } } } } } } } } } } } } ",
"} } } } } } } -.} } } } } } } } } } } } } [ N r h } [ [ } } } -.} + = [ } } } } } 1.} } } -.-.} } } } } } } } } -.-.} } } } } } ",
"} } } -.} } } } } } } } } } } } } ) } } } G G h h } ) } -.-.} } ~ > h v } -.} } } -.} } } [ } } } } } } } } } } } } } } -.-.} } ",
"} } } } } } } } } } } } } } -.} -.} } } -.G h h } } } -.} [ } } } -.v h } } } } -.} } } } } } } } -.} } } } } -.} } } } } } } } ",
"} } } } } } } } -.} } } } -.[ } -.} } } } V h h } [ ) [ -.} } } } } ) v } } } -.} } } } } } } } } } -.} } } } -.} } } } } } } } ",
"} } } } } } -.-.} } } } } -.} } } } } } } G h r } } } -.} } } } } [ } } -.} } 9.} } } } } -.} } } } -.} } } } } -.} } } } } } } ",
"} } } -.} } } } } } } } } } } } } } } } } -.h -.} } } } -.} } } } } } } -.-.} } } } } } } } } } } } } } } } } } } } } } -.} } } ",
"} } } -.} } } } } } } } } } } } } } } } } } [ [ } } } } [ } -.} ) -.} } } ~ } } } } } } } } -.} } } } } } } } } } } } } -.} } } "
};
