/* XPM */
static char *rcp06183651886531[] = {
/* columns rows colors chars-per-pixel */
"64 64 194 2 ",
"   c #07060E",
".  c #07070F",
"X  c #08070D",
"o  c #09060F",
"O  c #08070F",
"+  c #060A0D",
"@  c #09080E",
"#  c #08090E",
"$  c #0A090E",
"%  c #070510",
"&  c #080611",
"*  c #0A0710",
"=  c #090712",
"-  c #0A0712",
";  c #0C0610",
":  c #0A0614",
">  c #060910",
",  c #080810",
"<  c #090810",
"1  c #090911",
"2  c #0B0811",
"3  c #0A0911",
"4  c #080812",
"5  c #0A0813",
"6  c #13111F",
"7  c #120F20",
"8  c #130F20",
"9  c #120F22",
"0  c #170E21",
"q  c #140F23",
"w  c #130F26",
"e  c #071923",
"r  c #071925",
"t  c #061A25",
"y  c #061927",
"u  c #081825",
"i  c #081A26",
"p  c #131021",
"a  c #121121",
"s  c #131220",
"d  c #131023",
"f  c #121123",
"g  c #131222",
"h  c #151120",
"j  c #141021",
"k  c #141220",
"l  c #151321",
"z  c #141122",
"x  c #151122",
"c  c #171022",
"v  c #151223",
"b  c #161223",
"n  c #121423",
"m  c #111224",
"M  c #131224",
"N  c #151024",
"B  c #141124",
"V  c #151225",
"C  c #181123",
"Z  c #1F2231",
"A  c #1E2132",
"S  c #1F2235",
"D  c #1E2434",
"F  c #222131",
"G  c #202231",
"H  c #202133",
"J  c #222133",
"K  c #202332",
"L  c #212332",
"P  c #232232",
"I  c #202135",
"U  c #212234",
"Y  c #202334",
"T  c #232234",
"R  c #222335",
"E  c #232136",
"W  c #212236",
"Q  c #202336",
"!  c #212237",
"~  c #242134",
"^  c #212437",
"/  c #232436",
"(  c #313733",
")  c #353533",
"_  c #343633",
"`  c #323335",
"'  c #353334",
"]  c #333534",
"[  c #313735",
"{  c #323635",
"}  c #313536",
"|  c #333436",
" . c #303636",
".. c #313737",
"X. c #333736",
"o. c #323637",
"O. c #343434",
"+. c #353535",
"@. c #343635",
"#. c #343436",
"$. c #343537",
"%. c #353537",
"&. c #363437",
"*. c #353736",
"=. c gray21",
"-. c #363837",
";. c #343338",
":. c #313538",
">. c #333438",
",. c #313639",
"<. c #333738",
"1. c #323639",
"2. c #32353A",
"3. c #353439",
"4. c #343539",
"5. c #373538",
"6. c #353638",
"7. c #363638",
"8. c #363739",
"9. c #35343A",
"0. c #34353A",
"q. c #36353A",
"w. c #35363A",
"e. c #35363B",
"r. c #36373B",
"t. c #323838",
"y. c #37383A",
"u. c #660D0F",
"i. c #650F0E",
"p. c #670F0E",
"a. c #77090C",
"s. c #790908",
"d. c #7A0A09",
"f. c #7A090B",
"g. c #780A0B",
"h. c #7A0C0B",
"j. c #7A090D",
"k. c #790B0C",
"l. c #780A0D",
"z. c #78090F",
"x. c #780B0E",
"c. c #790B0E",
"v. c #7B0A0E",
"b. c #670E10",
"n. c #670E12",
"m. c #680E10",
"M. c #680F11",
"N. c #680D12",
"B. c #7B0A10",
"V. c #413E59",
"C. c #423E59",
"Z. c #413C5A",
"A. c #423D5B",
"S. c #413E5B",
"D. c #453C5B",
"F. c #413C5C",
"G. c #433C5D",
"H. c #423D5D",
"J. c #413E5D",
"K. c #433E5C",
"L. c #423F5C",
"P. c #423C5E",
"I. c #433D5F",
"U. c #433E5E",
"Y. c #423F5E",
"T. c #9D0B0C",
"R. c #9F0A0C",
"E. c #9D0B0E",
"W. c #9F0A0E",
"Q. c #9E0C0F",
"!. c #9D0A10",
"~. c #871313",
"^. c #881113",
"/. c #891113",
"(. c #8A1213",
"). c #891214",
"_. c #8B1314",
"`. c #8A1315",
"'. c #8D1214",
"]. c #A0090E",
"[. c #A2090E",
"{. c #BE0E10",
"}. c #BE0E11",
"|. c #C00B10",
" X c #C00D10",
".X c #C10C11",
"XX c #C00D11",
"oX c #C10C13",
"OX c #C10E12",
"+X c #C10E14",
"@X c #FA0100",
"#X c #FA0001",
"$X c #FC0001",
"%X c #FE0000",
/* pixels */
"$.$.$.$.$.$.$.$.$.$.$.$.$.$.$.$.$.$.$.$.$.$.$.$.$.$.$.$.$.$.$.$.$.$.$.$.$.$.$.$.$.$.$.$.$.$.$.w.w.$.$.w.$.$.$.$.$.$.$.$.$.$.$.$.",
"$.$.$.$.$.$.$.$.$.$.$.$.$.$.$.$.$.$.$.$.$.$.$.$.$.$.$.$.$.$.$.$.$.$.$.$.$.$.$.$.$.$.$.$.$.| $.w.w.$.$.$.$.$.$.$.$.$.$.$.$.$.$.$.",
"$.$.$.$.$.$.$.$.$.$.$.$.$.$.$.$.$.$.$.$.$.$.$.$.$.$.$.$.$.$.$.$.$.$.$.$.$.$.$.$.$.$.| $.$.| s.$.$.$.$.| $.$.$.| $.$.$.$.$.$.$.$.",
"$.$.$.$.$.$.$.$.$.$.$.$.$.$.$.$.$.$.$.$.$.$.$.$.$.$.$.$.$.$.$.$.$.$.$.$.$.$.$.$.$.$.$.$.$.$.s.w.$.$.$.| $.$.$.$.$.$.$.$.$.$.$.$.",
"$.$.$.$.$.$.$.$.$.$.$.$.$.$.$.$.$.$.$.$.$.$.$.$.$.$.$.$.$.$.$.$.$.$.$.$.$.$.$.$.$.$.$.$.$.$.$.w.$.$.$.$.$.$.$.$.$.$.$.$.$.$.$.$.",
"$.$.$.$.$.$.$.$.$.$.$.$.$.$.$.$.$.$.$.$.$.$.$.$.$.$.$.$.$.$.$.$.$.$.$.$.$.$.$.$.$.$.$.$.$.$.$.$.$.$.$.$.$.$.$.$.$.$.$.$.$.$.$.$.",
"$.$.$.$.$.$.$.$.$.$.$.$.$.$.$.$.$.$.$.$.$.$.$.$.$.$.$.$.$.$.$.$.$.$.$.$.$.$.$.$.$.$.$.$.$.| <.w.$.w.w.$.$.$.$.$.$.$.$.$.$.$.$.$.",
"$.$.$.$.$.$.$.$.$.$.$.$.$.$.$.$.$.$.$.$.$.$.$.$.$.$.$.$.$.$.$.$.$.$.$.$.$.$.$.$.$.$.$.$.$.$.w.$.| w.w.$.$.$.$.$.$.$.$.$.$.$.$.$.",
"$.$.$.$.$.$.$.$.$.$.$.$.$.$.$.$.$.$.$.$.w.$.$.$.$.$.w.$.$.$.$.$.$.$.$.$.$.$.$.$.$.$.$.$.$.$.` $.| $.$.$.w.w.$.<.$.$.$.$.$.$.$.$.",
"$.$.$.$.$.$.$.$.$.$.$.$.$.$.$.$.$.$.$.$.$.$.$.$.$.$.$.$.$.| $.| $.w.$.$.$.$.$.$.$.$.| $.| $.w.$.$.| $.$.$.w.$.$.$.$.$.$.$.$.$.$.",
"$.$.$.$.$.$.$.$.$.$.$.$.$.$.$.$.$.$.$.$.$.$.$.$.$.$.$.w.$.$.$.$.$.$.$.$.| | | $.$.$.$.$.| $.$.$.<.$.w.$.$.| w.$.$.$.$.$.$.$.$.$.",
"$.$.$.$.$.$.$.$.$.$.$.$.$.$.$.$.$.$.$.$.$.$.$.$.$.$.$.$.$.$.$.w.$.| $.w.$.$.$.$.$.$.$.$.w.$.<.$.c.$.$.w.w.$.$.$.$.$.$.$.$.$.$.$.",
"$.$.$.$.$.$.$.$.$.$.$.$.$.$.$.$.$.$.$.$.$.w.$.$.$.$.| | $.$.w.$.<.$.$.$.t.| | $.$.| $.$.| w.w.w.c.c.| $.w.| | | $.$.$.$.$.$.$.$.",
"$.$.$.$.$.$.$.$.$.$.$.$.$.$.$.$.$.$.$.$.$.$.$.$.$.$.$.$.$.$.$.| $.| $.w.$.w.$.| w.| $.w.w.| | c.s.c.$.$.$.$.w.$.$.$.$.$.$.$.$.$.",
"$.$.$.$.$.$.$.$.$.$.$.$.$.$.$.$.$.$.$.$.$.$.$.$.$.$.| | $.z z z z $.$.<.$.$.w.$.$.$.$.$.$.w.$.c.c.c.$.w.$.s.$.$.$.$.$.$.$.$.$.$.",
"$.$.$.$.$.$.$.$.$.$.$.$.$.$.$.$.$.$.$.$.$.$.w.$.$.w.$.w.z z U.U.Q < $.$.$.$.$.$.$.$.$.$.$.w.c.c.+Xc.| $.w.c.$.| $.$.$.$.$.$.$.$.",
"$.$.$.$.$.$.$.$.$.$.$.$.$.$.$.$.$.$.$.$.$.$.$.$.$.w.$.B n A.i t t L < $.$.$.w.$.$.| $.| $.oXc.}.oXc.c.$.| $.w.$.$.$.$.$.$.$.$.$.",
"$.$.$.$.$.$.$.$.$.$.$.$.$.$.$.$.| $.$.$.$.$.$.$.w.$.$.z U.t t t t z Q = w.$.| $.$.| $.$.c.oXoXoXoXoXc.$.| $.$.$.$.$.$.$.$.$.$.$.",
"$.$.$.$.$.$.$.$.$.$.$.$.$.$.$.$.w.$.$.$.$.$.$.$.$.$.z 7 A.t %Xt g #XL @ | $.w.$.$.| $.$.c.oXb.u.E.Q.|.c.w.| | t.$.$.$.$.$.$.$.$.",
"$.$.$.$.$.$.$.$.$.$.$.$.$.$.$.$.$.$.$.w.w.$.$.| $.$.z z U.i t t g z Q < $.$.w.| $.w.c.h.oXb.N.b.E.E.E.oXc.$.w.$.$.$.$.$.$.$.$.$.",
"$.$.$.$.$.$.$.$.$.$.$.$.$.$.$.$.$.$.$.$.$./.A.$.$.$.g q U.t e z z g Q < $.$.w.<.$.w.c.c.oXu.b.E.= E.!.oXa.$.$.w.$.$.$.$.$.$.$.$.",
"$.$.$.$.$.$.$.$.$.$.$.$.$.$.$.$.$.$.$.$.$._.A.U.w.< + z A.Q g z z Q B U.$.= $.$.$.$.$.c.oXb.E.E.< O b.oXc.$.$.$.$.$.$.$.$.$.$.$.",
"$.$.$.$.$.$.$.$.$.$.$.$.$.$.$.$.$.$.$.$.| w.Q A.Q Q < z z D.U.L Q M < z < z $.| | $.$.c.oXoXu.E.E.b.u.}.c.$.$.w.$.$.$.$.$.$.$.$.",
"$.$.$.$.$.$.$.$.$.$.$.$.$.$.$.$.$.| w.$.$.$.Q S A.A.Q Q = z g z z @ A.< z B < $.$.$.$.c.c.oX< b.E.E.oXoXB.w.$.$.$.$.$.$.$.$.$.$.",
"$.$.$.$.$.$.$.$.$.$.w.$.$.$.$.$.$.$.$.$.| _.U.A.. O < Q z A.< z < A.g < z < z $.$.$.w.$.c.c.O % b.b.oXc.$.$.$.$.$.$.$.$.$.$.$.$.",
"$.$.$.$.$.$.$.$.$.$.$.$.$.$.$.$.( $.| g _.#X_.= < < < < < Q z Q A.z z < 7 g O < $.$.$.$.$.c.@ O oXoXa.| $.$.| $.$.$.$.$.$.$.$.$.",
"$.$.$.$.$.$.$.$.$.$.$.$.$.$.$././.$.< '.#X#X%X~.O O _._.O O Q A.g z u.< < z B z $.w.$.$.| w.O = c.c.c.w.$.$.$.$.$.$.$.$.$.$.$.$.",
"$.$.$.$.$.$.$.$.$.$.$.$.$.$.$.$.$.$.' O _.%X_.= < < < = O z E.Q U.b.g 7 < ; < z $.$.$.$.$.w.< $.c.c.$.$.$.$.$.| $.$.$.$.$.$.$.$.",
"$.$.$.$.$.$.$.$.w.| $.$.$.$.$.$.$.$.w.w.| /.$.Q < = < @ E.L L E.u.z B b.$.B @ z < $.w.| $.< < | $.| $.$.$.| $.$.$.$.$.$.$.$.$.$.",
"$.$.$.$.$.$.$.$.$.$.$.$.$.w.w.w.w.w.w.$.$.$.$.w.z z Q z Q E.Q Q U.z N.$.| w.g < U.U.| $.w.< < w.$.$.$.$.$.$.$.| $.$.$.$.$.$.$.$.",
"$.$.$.$.$.$.$.$.$.$.$.$.$.w.$.$.$.| $.$.<.w.| $.$.$.g Q Q z [.Q Q b.g $.$.$.= Q Q Q U.$.| < = $.| $.$.$.$.$.$.$.$.$.$.$.$.$.$.$.",
"$.$.$.$.$.$.$.$.$.$.$.$.w.$.$.w.$.| $.$.| ~.<.<.w.$.| z Q Q g [.u.z w.$.| $.w.Q L ~ U.w.$.; < $.$.$.$.$.$.$.w.$.$.$.$.$.$.$.$.$.",
"$.$.$.$.$.$.$.$.$.$.$.$.$.$.$.$.$.$.$.$.$./.$.w.| $.y.E.z Q z z B z $.$.$.$.$.$.Q Q Q Q $.= $.$.| $.$.$.$.$.$.$.$.$.$.$.$.$.$.$.",
"$.$.$.$.$.$.$.$.$.$.$.$.$.$.$.| $.$.w.$.$.$.$.$.w.| $.g E.z A.g z N.. $.$.w.$.w.U.Q Q ^ $.O $.$.$.$.| $.$.$.$.| $.$.$.$.$.$.$.$.",
"$.$.$.$.$.$.$.$.$.w.$.$.$.$.$.$.| | $.$.$.w.w.$.$.w.z Q Q E.N.b.N.< < < $.$.$.$.A.A.L U.< < $.| w.$.$.w.$.$.$.$.$.$.$.$.$.$.$.$.",
"$.$.$.$.$.$.$.$.$.$.$.$.$.$.$.$.w.w.w.$.w.| $.$.w.g z Q z 7 z < Q < < = $.| | | $.Q Q Q g Q | | $.$.$.$.$.$.$.$.$.$.$.$.$.$.$.$.",
"$.$.$.$.$.$.$.$.$.$.$.$.$.$.$.$.w.$.$.| $.$.$.$.6 z Q q L A.O = Q z z < $.$.$.w.w.$.U.U.Q z $.$.$.$.$.$.$.$.$.$.$.$.$.$.$.$.$.$.",
"$.$.$.$.$.$.$.$.$.| $.w.$.$.w.$.| $.$.w.| $.<.$.z L z z L < = z z Q g < < $.| $.| $.$.q g Q $.$.$.$.w.$.$.$.$.$.$.$.$.$.$.$.$.$.",
"$.$.$.$.$.$.$.$.$.$.$.$.$.$.$.$.| $.$.$.$.$.$.g z Q g Q U.< 6 7 ^ z z z = $.$.w.| $.| w.< w.| w.$.$.| | $.$.$.$.$.$.$.$.$.$.$.$.",
"$.$.$.$.$.$.$.$.$.$.$.$.$.$.$.$.$.$.$.| $.$.g g g Q B B > < Q L z z z z = O $.$.w.$.<.$.= | $.$.w.$.$.w.$.$.$.$.$.$.$.$.$.$.$.$.",
"$.$.$.$.$.$.$.$.$.$.$.$.$.$.$.$.$.$.$.$.| g g Q z Q 6 z < 7 z z Q z z z < < w.$.$.$.$.$.. w.$.$.| $.$.$.$.$.$.$.$.$.$.$.$.$.$.$.",
"$.$.$.$.$.$.$.$.$.$.$.$.$.$.$.$.$.$.$.$.w.z g Q M D z A.g < B 7 L L g g z < $.$.w.$.$.@ $.$.$.$.$.$.$.$.$.$.$.$.$.$.$.$.$.$.$.$.",
"$.$.$.$.$.$.$.$.$.$.$.$.$.$.$.$.$.$.$.w.$.g z Q z z U.z Q < z A $.L Q g z O | | $.| _ < $.$.$.$.$.$.$.$.$.$.$.$.$.$.$.$.$.$.$.$.",
"$.$.$.$.$.$.$.$.$.$.$.$.$.$.$.$.$.$.w.$.$.$.7 z U.U.g Q <.< z L $.w.Q Q z < $.$.$.$.$.< $.$.$.$.$.w.w.$.$.$.$.w.$.$.$.$.$.$.$.$.",
"$.$.$.$.$.$.$.$.$.$.$.$.$.$.$.$.$.$.w.<.w.$.$.z A.z A L $.O C | | $.L Q Q < $.$.$.$.| < | $.$.w.| $.$.| $.$.$.w.$.$.$.$.$.$.$.$.",
"$.$.$.$.$.$.$.$.$.$.$.$.$.$.$.$.$.$.$.$.$.$._ z D.^ Q z <.$.: <.$.Q Q = Q = | <.$.$.$.O _ $.$.w.$.$.$.$.$.$.$.$.$.$.$.$.$.$.$.$.",
"$.$.$.$.$.$.$.$.$.$.$.$.$.$.$.$.$.$.$.$.$.| z B Q Q z w.$.| $.<.$.Q < z = L $.$.$.$.= $.$.$.$.$.$.$.$.$.$.$.$.$.$.$.$.$.$.$.$.$.",
"$.$.$.$.$.$.$.$.$.$.$.$.$.$.$.$.| $.$.$.$.<.M Q Q S g $.$.$.$.$.O < z z . Q $.$.| $.= $.$.$.$.$.| w.w.$.$.$.$.$.$.$.$.$.$.$.$.$.",
"$.$.$.$.$.$.$.$.$.w.w.w.w.w.$.$.| ;.$.$.$.g Q Q g z w.$.| | $.| ; z B O < = w.$.$.| = $.$.$.$.$.$.$.$.$.$.$.$.$.$.$.$.$.$.$.$.$.",
"$.$.$.$.$.$.$.$.$.w.w.w.$.w.$.$.$.w.$.$.$.g z Q z z $.$.w.| | w.B z < < < < $.w.w.$.< w.$.$.$.$.$.$.$.$.$.$.$.$.$.$.$.$.$.$.$.$.",
"$.$.$.$.$.$.$.$.$.w.$.$.$.$.w.$.$.$.$.$.$.-.z Q B $.$.<.$.| $.$.| < < < O $.$.$.w.w.< $.$.$.$.w.$.$.$.$.$.$.$.$.$.$.$.$.$.$.$.$.",
"$.$.$.$.$.$.$.$.w.w.w.$.$.w.w.$.w.w.$.$._ Q Q z w.| $.$.w.$.| $.. < < O w.$.w.$.$.= w.$.$.w.$.$.$.$.$.$.$.$.$.$.$.$.$.$.$.$.$.$.",
"$.$.$.$.$.$.$.w.$.$.$.$.$.w.$.$.w.w.w.$.w.L Q z $.$.| $.w.| $.$.< < < $.w.$.-.$.$.= $.$.$.$.$.w.$.$.$.$.$.$.$.$.$.$.$.$.$.$.$.$.",
"$.$.$.$.$.$.$.w.$.$.$.$.w.w.$.$.$.w.$.$.| D z z | $.w.$.$.| w.$.< < < | $.w.$.w.$.O ` $.$.$.$.$.$.$.$.$.$.$.$.$.$.$.$.$.$.$.$.$.",
"$.$.$.$.| $.$.w.w.w.w.w.w.w.$.$.w.w.$.w.Q Q g 6 w.w.$.$.w.w.w.$.$.O < $.| $.w.$.w.$.$.$.$.$.$.w.$.$.$.$.$.$.$.$.$.$.$.$.$.$.$.$.",
"$.$.$.$.| $.$.w.w.w.w.w.w.w.$.w.w.w.w.w.Q z z $.$.| w.$.$.$.w.w.$.@ z g w.| $.| $.$.| w.$.$.$.$.$.$.$.$.$.$.$.$.$.$.$.$.$.$.$.$.",
"$.$.$.$.$.$.$.$.w.w.w.w.w.w.w.w.$.$.$.$.Q z w.| $.$.$.w.$.w.w.$.$.$.w z $.$.$.$.$.$.w.$.$.$.$.$.$.$.$.$.$.$.$.$.$.$.$.$.$.$.$.$.",
"$.$.$.$.$.$.$.$.w.w.w.w.w.w.$.w.w.w.$.$.Q g w.w.w.$.$.$.$.$.| $.$.$.$.g $.w.$.$.$.w.| $.$.$.$.$.$.$.$.$.$.$.$.$.$.$.$.$.$.$.$.$.",
"$.$.$.$.$.$.w.w.w.w.$.w.w.w.w.$.w.$.$.$.6 g w.$.w.$.$.$.$.$.| $.w.$.w.$.$.| $.| $.$.$.$.$.$.$.$.$.$.$.$.$.$.$.$.$.$.$.$.$.$.$.$.",
"$.$.$.$.$.$.w.w.$.w.w.w.w.w.$.$.w.w.w.$.$.-.w.$.w.$.w.$.w.$.$.$.$.$.$.$.$.$.$.$.$.$.$.$.$.$.$.$.$.$.$.$.$.$.$.$.$.$.$.$.$.$.$.$.",
"$.$.$.$.$.$.w.w.$.$.w.w.w.w.$.$.w.w.$.$.$.$.w.$.w.w.$.$.$.w.$.$.$.$.$.$.$.| $.$.$.$.$.$.$.$.$.$.$.$.$.$.$.$.$.$.$.$.$.$.$.$.$.$.",
"$.$.$.$.$.$.w.w.$.$.w.w.w.w.$.$.w.w.$.$.w.w.w.<.w.w.$.w.$.$.$.$.$.w.$.| | $.$.$.$.$.$.$.$.$.$.$.$.$.$.$.$.$.$.$.$.$.$.$.$.$.$.$.",
"$.$.$.$.$.$.w.w.$.$.$.w.w.w.w.$.w.w.w.$.<.w.$.w.w.w.w.$.$.| $.| $.$.$.$.$.| $.$.$.w.| $.$.$.$.$.$.$.$.$.$.$.$.$.$.$.$.$.$.$.$.$.",
"$.$.$.$.$.$.w.w.$.$.$.w.w.w.$.$.w.w.w.$.w.w.w.w.w.$.$.$.w.-.w.| $.$.$.$.$.$.$.w.$.$.w.$.$.$.$.$.$.$.$.$.$.$.$.$.$.$.$.$.$.$.$.$."
};
