/* XPM */
static char *rcp06202823690758[] = {
/* columns rows colors chars-per-pixel */
"64 64 49 1 ",
"  c #07060E",
". c #08070F",
"X c #070A0F",
"o c #09090E",
"O c #090711",
"+ c #090810",
"@ c #120E1D",
"# c #13111F",
"$ c #130F21",
"% c #180F24",
"& c #071724",
"* c #061924",
"= c #081A26",
"- c #141122",
"; c #181123",
": c #1E1F31",
"> c #241F33",
", c #1E2233",
"< c #212234",
"1 c #343537",
"2 c #353837",
"3 c #353638",
"4 c #34383A",
"5 c #38383A",
"6 c #650E0F",
"7 c #680E0E",
"8 c #770A0D",
"9 c #790B0D",
"0 c #68100E",
"q c #660E10",
"w c #680E10",
"e c #790A10",
"r c #641010",
"t c #433D5C",
"y c #9E0B0E",
"u c #9E0B11",
"i c #8A1214",
"p c #A00A0D",
"a c #BF0B0E",
"s c #BE0E11",
"d c #C00E0E",
"f c #C00D11",
"g c #C31013",
"h c #FC0100",
"j c #B46A5E",
"k c #B56B60",
"l c #E5AF8D",
"z c #E6B08C",
"x c #FFF1DD",
/* pixels */
"3333333333333333333333333333333333333333333333333333333333333333",
"3333333333333333333333333333333333333333333333333333333333333333",
"3333333333333333333333333333333333333333333333333333333333333333",
"3333333333333333333333333333333333333333333333333333333333333333",
"3333333333333333333333333333333333333333333333333333333333333333",
"3333333333333333333333333333333333333333333333333433333333333333",
"3333333333333333333333333333333333333333333333333333333333333333",
"3333333333333333333333333333333333333333333333333333333333333333",
"3333333333333333333333333322323333332333333333393323233333333333",
"3333333333333333333333333333333333333333233333299333323333333333",
"3333333333333333333333333333232333333333333323233332233233333333",
"3333333333333333333333333223323323315233333333239233233333333333",
"3333333333333333333333333323332233131333333323399353333333333333",
"333333333333333333333333333323332232233233333239f923332333333333",
"33333333333333333333333333332323233323231233333fg931533333333333",
"333333333333333333333333333333----5333333333239ff991533333333333",
"33333333333333333332133333332--tt<o532323332299df999393333333333",
"3333333333333333333333223333--t***<O3333323339sfff99993333333333",
"3333333333333333323233243323-t&**=-< 33333339ffdfdf9992333333333",
"333333333333333333332333233--t=h*-h< 23333339ffqqyyfe93333333333",
"333333333333333323233333352--t*=*-#<O33333329arq6yuyf93333333333",
"3333333333333333333333t3232$-t**--$<+33313339fqqu+yyf83333333333",
"3333333333333333332333tt24O--t<---<-t2O333339fqyy Oqs83333333333",
"3333333333333333332323,t<<<O--tt<<-O-o-323339ffqyyq6s83333333333",
"3333333333333232333333t<tt-<tO---; t+--O233399f qyyfs93333233333",
"3333333333333333333323-t-<t<<-t -Ot-O- -323398fOOqqf933233333323",
"333333333333333332332t<@<tt-y<<#<t--O--O 4333e9O+ff9332333333333",
"333333333332523323333<,<-t---yy<t--wOO---133431 O993333333232322",
"333333333322223233333-<-,--y<<-y<t6--OO+-331333 3133232333333333",
"33333333233332jlxx2133-<-<<-y<<<yw--q3- - 2323+O3232313322333333",
"3333333333333klxxlk333<---3<-yy<<t-0332-Ott333O 3333332333333333",
"3333333332323jlOjjO333-<-323<<-y<<q-335 <<<t22OO3335233333333333",
"333333332333ijjjlzji3-t-t323-<<#pq-33353,<<t33 O2232322333333332",
"3333333332332ijllji3-<-t<3133-<<---223313<<<<3o23323333333333332",
"33333333223333ijlji2<-t<23333y-t#-7o32323t,<,3O33333333333333331",
"333333333232232iii3t<-<33333-<pyw7OO+2332tt<to+33323333333333321",
"3333333323223333232<tt<3323-<<--++++O33343<<<-<32232332333332222",
"3333333333333333#3<t-<3323--<-<tO--- 243531tt<-33333333333332222",
"3333333333333333<-t-<2333-<<-<-O--<-OO133233--<23333223232222222",
"3333333332333223<<-<32335-<--<tO-<---+2323333o333333233332123322",
"33333333333333331,<33233---<-<O-<<---OO233333O233323333222112222",
"33333333333333333333323-<-#<--O------Oo333333O333333221221112222",
"33333333333333332333333--<-<-t- --<--- 32333+3222332322222112222",
"33333333333333333333235-->-#t-<+-<<<-- 32233+3333332112222111122",
"33333333333333332333323-<--t-,3+-<5<<-+31313O2323311323222221112",
"333333333333333333332333--t-t<1 -22<,, 21313O3222131222222221111",
"2222222222222222223222221-t-<-22+2<<O<o12221o2222122221111111122",
"222222222222222222222222--,:-13221< -o<2322+31212112211111111122",
"221112222221112222111312-<<<-1223X --O<2321+22221122222211111122",
"22112222222211222211112-<<<--2122O--O O2312+32221122222222111122",
"22112222222211122221312-<<--21132-%OO o3122+12221112112222221222",
"221112222222111222111222#<--232311+oO 23322 21221111111122222222",
"112211111111222122221222,--222133+  +32232+223111111111212222222",
"12221111111122212223321<<$2212122O++212231+332311111112211222222",
"11222211112222112113222<<$1123322O++313232 232111122222211112222",
"11222222122222112231113<--13221332O+2322222322112122222211112221",
"1122222222222111213222<<--21232322 --222221222112222222221111111",
"1122222222122211111222<--2223211322--322222222112222222221111111",
"2222111111112222311112<$-31121113122$131112222221222221122111122",
"2222111111112222231233<$-322211123322211111122221222222121112222",
"22222211112221222223112$2222221131322221112222221122221122111122",
"1211221222221122113213231322221112122112212211211122221122111122",
"1111222222221111212311133221211121132232222211111112221122221222",
"1111222222221111121232213123111223312322122211111122221122221122"
};
