/* XPM */
static char *rcp06443973561508[] = {
/* columns rows colors chars-per-pixel */
"64 64 141 2 ",
"   c #06060C",
".  c #090A0E",
"X  c #0E0E16",
"o  c #0F0E19",
"O  c #130C15",
"+  c #1B0C14",
"@  c #130F19",
"#  c #1A0E19",
"$  c #0F1015",
"%  c #0F111A",
"&  c #111117",
"*  c #13131D",
"=  c #1C121D",
"-  c #17181E",
";  c #18191E",
":  c #3B070C",
">  c #35080F",
",  c #3A080F",
"<  c #250E15",
"1  c #2B0C13",
"2  c #240F19",
"3  c #330B13",
"4  c #3C0D14",
"5  c #350E19",
"6  c #22121C",
"7  c #2B131C",
"8  c #321017",
"9  c #34141B",
"0  c #3C1219",
"q  c #161621",
"w  c #191623",
"e  c #171821",
"r  c #1A1A24",
"t  c #1D1D2A",
"y  c #231521",
"u  c #231A26",
"i  c #211E2C",
"p  c #2A1C28",
"a  c #341722",
"s  c #3C1520",
"d  c #301A25",
"f  c #3C1C26",
"g  c #1F2025",
"h  c #1E202D",
"j  c #212127",
"k  c #23232B",
"l  c #28252B",
"z  c #27282D",
"x  c #292A2E",
"c  c #32232E",
"v  c #262431",
"b  c #2A2633",
"n  c #2C2C33",
"m  c #2D2C39",
"M  c #3B2734",
"N  c #372B37",
"B  c #3D2836",
"V  c #352F3E",
"C  c #3B2E3D",
"Z  c #2F3034",
"A  c #2F313F",
"S  c #333436",
"D  c #343439",
"F  c #38303E",
"G  c #4B0206",
"H  c #4B0408",
"J  c #5B070B",
"K  c #55090C",
"L  c #5C090D",
"P  c #450D13",
"I  c #4A0E14",
"U  c #530C11",
"Y  c #5D0E13",
"T  c #4D1116",
"R  c #43131C",
"E  c #4A111A",
"W  c #551217",
"Q  c #55131D",
"!  c #5B131A",
"~  c #630408",
"^  c #6A0509",
"/  c #66080C",
"(  c #6A0808",
")  c #7C0408",
"_  c #740B0E",
"`  c #7C0D0E",
"'  c #630D11",
"]  c #671012",
"[  c #661418",
"{  c #6F171A",
"}  c #60191D",
"|  c #6A1A1F",
" . c #761517",
".. c #7E1215",
"X. c #73161D",
"o. c #791418",
"O. c #4C1B25",
"+. c #431F29",
"@. c #481F2A",
"#. c #531A22",
"$. c #5B1B22",
"%. c #621C21",
"&. c #7D1F23",
"*. c #48222E",
"=. c #5B292F",
"-. c #412631",
";. c #432936",
":. c #432B39",
">. c #612227",
",. c #752226",
"<. c #77232D",
"1. c #7D2028",
"2. c #372F40",
"3. c #382F40",
"4. c #373040",
"5. c #383040",
"6. c #8E0505",
"7. c #840A0A",
"8. c #910303",
"9. c #980808",
"0. c #810F10",
"q. c #8E0F10",
"w. c #80141A",
"e. c #861B1C",
"r. c #941113",
"t. c #991616",
"y. c #9F171A",
"u. c #9F1A1B",
"i. c #A61112",
"p. c #AF1818",
"a. c #B01B1C",
"s. c #811C20",
"d. c #8F232B",
"f. c #912024",
"g. c #AF2528",
"h. c #AE2C2F",
"j. c #B12426",
"k. c #B8383D",
"l. c #C0363B",
"z. c #9E3E40",
"x. c #AB3D40",
/* pixels */
"S S S S S S S S S S S S S S S S S S S S S S S S S S S S S S S S S S S S S S S S S S S S S S S S S S S S S S S D D D S S S S S S ",
"S S S S S S S S S S S S S S S S S S S S S S S S S S S S S S S S S S S S S S S S S S S S S S S S S S S S S S S D D S S S S S S S ",
"S S S S S S S S S S S S S S S S S S S S S S S S S S S S S S S S S S S S S S S S S S S S D D D S S S S S S S S S S S S S S S S S ",
"S S S S S S S S S S S S S S S S S S S S S S S S S S S S S S S S S S S S S S S S S S S S S D D S S S S S S S S S S S S S S S S S ",
"S S S S S S S S S S S S S S S S S S S S S S S S S S D D S S S S S S S S S S S S S S S S S S S S S S S S S S S S S S S S S S S S ",
"S S S S S S S S S S S S S S S S S S S S S S S S S S D n z z z z l z z z z z z z z x D D S S S S S S S S S S S S S S S S S S S S ",
"S S S S S S S S S S S S S S S S S S S S S S S D Z j j e * * * * * * * * * * * * * * k j n S S S S S S S S S S S S S S S S S S S ",
"S S S S S S S S S S S S S S S S S S S S S D D n r * * * q q q w r r t t t r q q q * * * e l D S S S S S S S S S S S S S S S S S ",
"S S S S S S S S S S S S S S S S S S S S D D k e * q q q w t v b m m m m m m b t r q q q * * r Z S S S S S S S S S S S S S S S S ",
"S S S S S S S S S S S S S S S S S S S D D D e * q q q r k m V V V F F V F 4.F V v r q q q * * n D D S S S S S S S S S S S S S S ",
"S S S S S S S S S S S S S S S S S S D D n * * q q q t b V 4.4.V V 4.4.V V 4.4.F V m t w q q * * x D S S S S S S S S S S S S S S ",
"S S S S S S S S S S S S S S S S D D D D n * * q q q t b F V V 4.4.4.4.4.4.4.4.F 4.V i w q q q o z D D S S S S S S S S S S S S S ",
"S S S S S S S S S S S S S S S S D D D z * * q q r i m F F V V 4.V V V 4.4.4.4.4.4.F F v r q q * * r D S S S S S S S S S S S S S ",
"S S S S S S S S S S S S S S S S D D D z X * q q r i V 4.4.4.4.4.4.2.2.3.4.4.4.4.4.4.4.v r q q q % r S S S S S S S S S S S S S S ",
"S S S S S S S S S S S S S S S S D D D z X * q w y p M B C C 2.4.4.2.2.2.2.4.4.4.4.4.4.4.k q q q % r S S S S S S S S S S S S S S ",
"S S S S S S S S S S S S S S S S S D D z X * = y a s R O.*.B C F 5.4.4.4.4.V V F F F C F b t q q * r S S S S S S S S S S S S S S ",
"S S S S S S S S S S S S S S S S S S D l O = 2 5 Q <.1.X.Y E @.;.C 4.4.4.4.V V C C M -.;.c u q q * r S S S S S S S S S S S S S S ",
"S S S S S S S S D D D S S S S S S S D l O 6 3 ! d.k.l.g.r...' O.:.4.4.4.4.V C B f R #.#.f u q q * r S S S S S S S S S S S S S S ",
"S S S S S S S S D D S S S S S S S S D l + 1 P &.h.6.p.i.9.u._ $.:.4.4.4.4.C C f R %.z.{ P 6 q q * r S S S S S S S S S S S S S S ",
"S S S S S S S S S S S S S S S S S S D l + 1 I  .t.8.a.i.6.q.^ #.:.4.4.4.4.C C f E | x.o.P 2 q * % r S S S S S S S S S S S S S S ",
"S S S S S S S S S S S S S S S S S S D l O 2 4 Y 0.r.j.y.) / U @.C 4.4.4.V V C M f R $.I 3 = q q % r S S S S S S S S S S S S S S ",
"S S S S S S S S S S S S S S S S D D D z O - 2 , J ..f.w.L E +.B C 4.4.2.V V V V b u y = = w q q * r S S S S S S S S S S S S S S ",
"S S S S S S S S S S S S S D D n - * q q * * = 2 3 4 4 4 5 d N F F F F 4.F F F b t w q q q q q * * * * * n S S S S S S S S S S S ",
"S S S S S S S S S S D D S e * * r r t t r o * * # = = = w w r i k k v v v k r r q - = = * * * o e r r r q k S S S S S S S S S S ",
"S S S S S S S S D D k * * r v m V D v t q o * + + 2 7 6 = q q q q w w q q q q q - 6 9 1 + @ * o * r k m m k e S S S S S S S S S ",
"S S S S S S S D D ; * t t w w w w q q q q * @ + < < 1 7 7 < 2 6 = = = 6 6 = 6 6 7 9 > 1 < = o * * q w t m 4.b * n S S S S S S S ",
"S S S S S D D n X r r * * q q q q q * * q q * @ = 6 9 0 I K G : 8 9 3 P 4 > > P I P 0 1 = * o q q * @ q q r t t * r S S S S S S ",
"S S S S S D k X q q q q * * * * * * * * q q q * * = 7 0 T [ ' L K J ~ ~ J U W ! W P 9 6 @ * q q q * o * q q q q t * - S S S S S ",
"S S S S S D k X q q q q * * z D Z ; * * o q q q * @ * 6 f =.K ( 7.6.8.6.` ] H $.#.8 2 @ * q q q % % * * q q q q r q * n S S S S ",
"S S S S D n r * q q q * * n D D S D D x * * * * * q o @ # < 4 } &.e.e.s.,.>.4 3 1 2 O * * q q * * k S S g q * q q q * X n S S S ",
"S S S S D e * r q q * * * k n D S S S S Z r * * * q * @ @ @ # 6 7 7 7 7 7 6 + O O O * * * q * X l S S S S k X * q q * X n S S S ",
"S S S S D e * t q q q q q * e x D S S S S D e * r k k t q * o o * * o * * * * * * e k k t r * r n S S S S k X * q q * X n S S S ",
"S S S S D e * t r r r r r q * e D S S S S D e * q r v b v i r q q q o * q q q i b b b t w * * n S S S S S k X * q q * X n S S S ",
"S S S S D e * k k r t t r t r e j S S S S S ; * q q r t k k r q * * * * * * r i k k r q q * * n S S S S l e * q q q q e r x S S ",
"S S S S D e q t e q r r * * q e r S S S S S n r * q q q q q q * * * q q * * q q q q q q * - x S S S S r e r t t r r t k * k S S ",
"S S S S D e * k n * e k n n e * r S D S S S S k & q q q q q q q q q q q q q q q q q q q * ; D D S D n * z v k m k t v m * k S S ",
"S S S S D e * r D - * r D D S k * S D S S S S S z X * q q q q q q q * * q q q q q q q * j Z D S S z q b v t t A t t v 4.* k S S ",
"D D S S S S j * D S g ; D D D S Z S S S S S S D n X r r q q q q q q o * q q q q q e t * k D S S S S b r * o q A t w t 4.* k S S ",
"D D D S S D D n X x D x $ n S S S S S S S S S S x X r r q q q q r t * r r q q q * q k * k S S S S x * o z D D D w h D D * k S S ",
"S S S S S S S S S S S S S S S S S S S S S S S S S D e e r q q q k m * v v q q q r e X n S S S S S l * n S S n * * k n * & k S S ",
"S S S S S S S S S S S S S S S S S S S S S S S S D D D j o q q r k m q v v r q q q * X x S S S S S l * n S S n $ x S x X n S S S ",
"S S S S S S S S S S S S S D D D S S S S S S S S S D D j * q t v b t t t v b t w q * * x S S S S S S S S S S z * n Z l * n S S S ",
"S S S S S S S S S S S S S D D S S S S S S S S S S S D l - * q q q q q q q q q q * * D S S S S S S S S S S x r S S l r S S S S S ",
"S S S S S S S S S S S S S S S S S S S S S S S S S S S S x X * q q q q q q q q q * * D S S S S S S S S S S S S S S S S S S S S S ",
"S S S S S S S S S S S S S S S S S S S S S S S S S S S S x X * q q q q q q q q * e k D S S S S S S S S S S S S S S S S S S S S S ",
"S S S S S S S S S S S S S S S S S S S S S S S S S S S D n i * * q q q q q r q r n D D S S S S S S S S S S S S S S S S S S S S S ",
"S S S S S S S S S S S S S S S S S S S S S S S S S S S D D S * * q q r t r e * x D D S S S S S S S S S S S S S S S S S S S S S S ",
"S S S S S S S S S S S S S S S S S S S S S S S S S S S D n e * * e r t k e * z Z S S S S S S S S S S S S S S S S S S S S S S S S ",
"S S S S S S S S S S S S S S S S S S S S S S S S S S S D x X * r t k k r * * S S S S S S S S S S S S S S S S S S S S S S S S S S ",
"S S S S S S S S S S S S S S S S S S S S S S S S S D D D x o * q r k k r * * D D D D S S S D S S S S S S S S S S S S S S S S S S ",
"S S S S S S S S S S S S S S S S S S S S S S S S D D &       X * q q t i r * * X           * D D S S S S S S S S S S S S S S S S ",
"S S S S S S S S S S S S S S S S S S S S x                     X X X X o o X X X .                   . n S S S S S S S S S S S S ",
"S S S S S S S S S S S S S S S S S S S S S S S j                                                 j S S S S S S S S S S S S S S S ",
"S S S S S S S S S S S S S S S S S S S S S S S S S S S S S S S S S S S S S S S S S S S S S S S S S S Z Z S S S S S S S S S S S S ",
"S S S S S S S S S S S S S S S S S S S S S S S S S S S S S S S S S S S S S S S S S S S S S S S S S S S S Z Z S S S S S S S S S S ",
"S S S S S S S S S S S S S S S S S S S S S S S S S S S S S S S S S S S S S S S S S S S S S S S S S S S S S S S S S S S S S S S S ",
"S S S S S S S S S S S S S S S S S S S S S S S S S S S S S S S S S S S S S S S S S S S S S S S S S S S S S S S S S S S S S S S S ",
"S S S S S S S S S S S S S S S S S S S S S S S S S S S S S S S S S S S S S S S S S S S S S S S S S S S S S S S S S S S S S S S S ",
"S S S S S S S S S S S S S S S S S S S S S S S S S S S S S S S S S S S S S S S S S S S S S S S S S S S S S S S S S S S S S S S S ",
"S S S S S S S S S S S S S S S S S S S S S S S S S S S S S S S S S S S S S S S S S S S S Z Z Z S S S S S S S S S S S S S S S S S ",
"S S S S S S S S S S S S S S S S S S S S S S S S S S S S S S S S S S S S S S S S S S S S Z Z Z S S S S S S S S S S S S S S S S S ",
"S S S S S S S S S S S S S S S S S S S S S S S S S S S S S S S S S S S S S S S S S S S S S S S S S S S S S S S S S S S S S S S S ",
"S S S S S S S S S S S S S S S S S S S S S S S S S S S S S S S S S S S S S S S S S S S S S S S S S S S S S S S S S S S S S S S S ",
"S S S S S S S S S S S S S S S S S S S S S S S S S S S S S S S S S S S S S S S S S S S S S S S S S S S S S S S S S S S S S S S S "
};
