/* XPM */
static char *rcp06190297117142[] = {
/* columns rows colors chars-per-pixel */
"64 64 48 1 ",
"  c #07060E",
". c #08070F",
"X c #09080E",
"o c #070713",
"O c #090711",
"+ c #090810",
"@ c #13111F",
"# c #140F21",
"$ c #071925",
"% c #081826",
"& c #091928",
"* c #141122",
"= c #1F2233",
"- c #212234",
"; c #222338",
": c #2F3334",
"> c #333536",
", c #343538",
"< c #333939",
"1 c #660E0E",
"2 c #690F0F",
"3 c #770B0C",
"4 c #790B0D",
"5 c #65100D",
"6 c #68100F",
"7 c #670E10",
"8 c #680E11",
"9 c #7A0A10",
"0 c #661012",
"q c #423D5C",
"w c #443C61",
"e c #483E60",
"r c #9E0B0D",
"t c #9E0B10",
"y c #A00B0F",
"u c #BF0D0D",
"i c #BF0D11",
"p c #C10D0E",
"a c #C00D11",
"s c #FC0101",
"d c #B46A5F",
"f c #B56B61",
"g c #E5AF8D",
"h c #E6B08C",
"j c #E7AE90",
"k c #FFEFDF",
"l c #FFF0DD",
"z c #FFF1E2",
/* pixels */
">>>>>>>>>>>>>>>>>>>>>>>>>>>>>>>>>>>>>>>>,>>,,>>>>>>>>>>>>>>>>>>>",
">>>>>>>>>>>>>>>>>>>>>>>>>>>>>>>>>>>>>>>>>>>>>>>>>>>>>>>>>>>>>>>>",
">>>>>>>>>>>>>>>>>>>>>>>>>>>>>>>>>>>>>>>>>>>>,,>>>>>>>>,>>>>>>>>>",
">>>>>>>>>,>>>>>>,>>>>>>>>>>>>>>>>>>>>>>>>>>>,>>>>>,>>,>>>>>>>>>>",
">>>>>>>>>>>>>>>>1>,,,>>>>>>>>>>>>>>>>>>>>>>>>>>>>,,>>>>>>>>>>>>>",
">>>>>>>>,>>>>>>>1>>,>>>>>>>>>>>>>,>>>>>>>>>>>>>>>4>>>>>>>>>>>>>>",
">>>>>>>>>>>>>>>7t1>>>>>>>>>>>>>>>>>,,>>>>>>,4,>,>4>>>>,,>>>>>>>>",
">>>>>>>>>>>>>>>7r8>,>>>>>>>>>>>>>>>>>>>>>>>>>>>>444>>>>>>>>>>>>>",
">>>>>>>>,>>>>>>8r8>>>>>>,>>>>>>>>>>>>>>,>>>>>>>>494>>>,>>>>,>>>>",
">>>>>>>>>>,>>>1rr5,>>>>>>,>>>>>>>>,>>,,>>>,,>>>>4p44>>>>>>>>,>>>",
">>>>>>>>>>>>>>1tr7>>>>>>>>>>>>****>>>>>>,,>,>>>94ia44>>>>>>,>>>>",
">>>>>>>>>>,,>7tryr1,>,>>>>>>>*@qq-X>>>>>>,>>,>>44aa44>>>>>>>>>>>",
">>>>>>>>,>>>8rrrrr1>>>>>>>>>**q$$$-X>,>,>>>>>>44aia94>>>>>>>,>>>",
">>>>>>>>>>,,7rrrrrr8>>>>>>,>*q$$%$*-X,>>>>>>>44aaaii44>>>>>>>>>>",
">>>>>>>>>>,7rtdhlzr8,>>>,>>**q$s$*s-+>>>>>>>93a71ytaa4>>>>>>>>>>",
">>>>>>>>>>>7rdhklgdr7>>,>>>**q%$$**-O>>>>>>,4a717rrra44,>>>>>>>>",
">>>>>>>>>>7rrdhsddsr7>q>>>>**q$&***- >>>,>>>4a11r.rra34>>>>>>>>>",
">>>>>>>>>>7rrdfdggd7>>qq:>+#*q=***-*q>.,>>>>4a8rr.O7a44>>>>>>>>>",
">>>>>>>>>,>1rrfgjdr7>>-q--=+*@qq--*+*X*>>>>,4aa7rr10i3>>>>>>>>>>",
">>>>>>>>>>>8rrrfgfr7>>q-qq*-q+****+q+**.>>,>43aO7rrai4,>>>>>>>>>",
">>>>>>>>,>>>1rtrrr1>>>*q*-q--*q *+q*+#.*>>>>>44OO77a44>,>>>>>>>>",
">>>>>>>>>>>>,12677>,>q-*-qq*t--*-q*@.**X+>>>>,4++aa44>>>>>>>>>>>",
">>>>>>>>,>>>>>>>>>>>>---*q***yr-q@@1+.***>>>>>>++u44>>>>>>>>>>>>",
">>>>>>>>>>>>>>>>>>,>>*-*-**y--*r-q8**+.+*>>>>>>+>,>>>>>>>>>>>>>>",
">>>>>>>>>>,>>>>>>>>>>@**---*r---r7*#2>*+*.>>>>..>>>,>>>>>>>>>>>>",
">>>,>>,>,>>>>>>,>>,>*-***,>-*ry--q*7>>,*+qq>>,OO,>>>>>>>>>>>>>>>",
">>>>>>>>>>,>,>>>>>*-**q->,>>-;#r--7*>>>O---q,>O.>>>>>>,>>>>>>>>>",
">>>>>>>>>>,,>>*>--**@-=>>>>>*--*r8*>>>>,---q>>OO,>>>>>>>>>>>>>>>",
">>>>>>>>>,,>,-#qeq--->>>>>>,>*--***>>>,>>----,O,>,,>>>>>>>>>>>>>",
">>>>>>>>>,>,,-***--->>>,>>,>>r*q**0O>>>>>q--->.>>>>>>>>>>>>>>>>>",
">>>,,>,>,>,,>--*->>>>>>>>>,,*-rr17++O>>>>qq-qO+>,>>>>>>>>>>>>>>>",
">>>>,>>>>>>>,>,>>>,>>,>>>>>*--**X+O++,,>>>---*->,>>,>>>>>>>>>>>>",
">>>>>>>>>>>>>>>>>>,>>>>>>>**-*-q+***+>>>>>,qq-*>>>>>>>>>>>>>>>>>",
">>>>>>>>>>>>>>>>>>>>>>>>>*--*-*.**-*++>>>,>>**->>,>>>>>>>>>>>>>>",
">>>>>>>>>>>>>>>>>,>>>>>>>*-**-q.*-***+>>>>>>,+>,>>,,>>>>>>>>>>>>",
">>>>>>>>>>>>>>>>>,>>>>>>***-*-+*--*** +,>>,>>X>,>>>>>>>>>>>>>>>>",
">>>>>>>>>>>>>>>>>,>>>>>*-**-**+******+.>>>>>>.>>>>>>,>>>>>>>>>>>",
">>>>>>>>>>>>>>>>>>>>,>>**-*-*q#X**-***O>>>>>+>>>>>>>>>>>>>>>>>>>",
">>>>>>>>>>>>>>>>>>>>>>>**-**w*-+*---**+>>,>>+>>>>>>>,>>>>>>>>>>>",
">>>>>>>>>>>>>>>>,>>>,>>*-**q*->+*->--*.>>>>>+>>>>>>>>>>>>>>>>>>>",
">>>>>>>>>>>>>>>>>>>>,>>,**q*q->O*>>---o>>>>>+>>>>>>>>>>>>>>>>>>>",
">>>>>>>>>>>>>>>>>>>>>,>,>*q*-*>>+>--+-+,>,>>+>>>>>>>>>>>>>>>>>>>",
">>>>>>>>>>>>>>>>>>>>>>>,**--*>>>>>-+*O-,,,> >>>>>>>>>>>>>>>>>>>>",
">>>>>>>>>>>>>>>>>>,>>>>,*---*>>>>+.**+=>>,>.>>>>>>>>>>>>>>>>>>>>",
">>>>>>>>>>>>>>>>>>>>>,>*---**>>>>.**+O+>>>>o,>>,>>>>>>>>>>>>>>>>",
">>>>>>>>>>>>>>>>,>>>>>>*--**>>>>>** +X.>>>>+>>>>>>>>>>>>>>>>>>>>",
">>>>>>>>>>>>>>>>>>>>>>>>*-**<>,>,>X+X+>,,>>.>>>>>>>>>>>>>>>>>>>>",
">>>>>>>>>>>>>>>>>>>>>>>,-**,>>>>>.O+.>>>>>O>>>,>>>>>>>>>>>>>>>>>",
">>>>>>>>>>>>>>>>>>>>>>>--*>,>>>>>OO+>>>>>>o,>>>>>>>>>>>>>>>>>>>>",
">>>>>>>>>>>>>>>>>>>>>>>--*>>>>>>>O X>>,>>,.>>>>>>>>>>>>>>>>>>>>>",
">>>>>>>>>>>>>>>>>>>>>>>=**>>>>>>>>+.,>>,>,>>>>>>>>>>>>>>>>>>>>>>",
">>>>>>>>>>>>>>>>>>>>>>=-*#>>>>,>,>+**,>>,>>>>>>>>>>>>>>>>>>>>>>>",
">>>>>>>>>>>>>>>>,>>>,>=**>,>>>>>>>,**,,>>>,>>>>>>>>>>>>>>>>>>>>>",
">>>>>>>>>>>>>>>>>>,>,>-**>>>>>,>>>,>*,>>>>,,>>>,>>>>>>>>>>>>>>>>",
">>>>>>>>>>>>>>>>>>>>>>-**,>>>>>>>,>,,>>>,>>>>>>>>>>>>>>>>>>>>>>>",
">>>>>>>>>>>>>>>>,>,>>>,*,>>>>>>>>,>>>>,>>>>>>>>>>>>>>>>>>>>>>>>>",
">>>>>>>>>>>>>>>>>>>>>>>>>>>>>>>>>>>>>>>>>>>>>>>>>>>>>>>>>>>>>>>>",
">>>>>>>>>>>>>>>>>>>>>>>>>>>>>>>>>>>>>>>>>>>>>>>>>>>>>>>>>>>>>>>>",
">>>>>>>>>>>>>>>>>>>>>>>>>>>>>>>>>>>>>>>>>>>>>>>>>>>>>>>>>>>>>>>>",
">>>>>>>>>>>>>>>>>>>>>>>>>>>>>>>>>>>>>>>>>>>>>>>>>>>>>>>>>>>>>>>>",
">>>>>>>>>>>>>>>>>>>>>>>>>>>>>>>>>>>>>>>>>>>>>>>>>>>>>>>>>>>>>>>>",
">>>>>>>>>>>>>>>>>>>>>>>>>>>>>>>>>>>>>>>>>>>>>>>>>>>>>>>>>>>>>>>>",
">>>>>>>>>>>>>>>>>>>>>>>>>>>>>>>>>>>>>>>>>>>>>>>>>>>>>>>>>>>>>>>>",
">>>>>>>>>>>>>>>>>>>>>>>>>>>>>>>>>>>>>>>>>>>>>>>>>>>>>>>>>>>>>>>>"
};
