/* XPM */
static char *rcp06200717497170[] = {
/* columns rows colors chars-per-pixel */
"64 64 44 1 ",
"  c #07070F",
". c #08070E",
"X c #05080D",
"o c #09080E",
"O c #090711",
"+ c #060910",
"@ c #090810",
"# c #13111F",
"$ c #130F23",
"% c #061925",
"& c #081A25",
"* c #141122",
"= c #1F2333",
"- c #212234",
"; c #232438",
": c #343636",
"> c #353836",
", c #353638",
"< c #383639",
"1 c #343839",
"2 c #38393B",
"3 c #660E0E",
"4 c #680E0D",
"5 c #790B0E",
"6 c #66100E",
"7 c #68100F",
"8 c #670E10",
"9 c #680E10",
"0 c #7A0A11",
"q c #423D5C",
"w c #9D0B0D",
"e c #9E0A10",
"r c #871314",
"t c #891214",
"y c #A10A0D",
"u c #BF0E11",
"i c #C00C0F",
"p c #C10D11",
"a c #FC0001",
"s c #B46A5F",
"d c #B56C62",
"f c #E5AF8C",
"g c #E6B08D",
"h c #FFF1DE",
/* pixels */
",,,,,,,,,,,,,,,,,,,,,,,,,,,,,,,,,,,,,,,,,,>,,,,,,1,1,,,,,,,,,,,,",
",,,,,,,,,,,,,,,,,,,,,,,,,,,,,,,,,,,,,,,,:,,,,,,,,,,:,,,,,,,,,,,,",
",,,,,,,,,,,,,,,,,,,,,,,,,,,,,,,,,,,,,,,,,,,,1,,,,::1,,,,,,,,,,,,",
",,,,,,,,,,,,,,,,,,,,,,,,,,,,,,,,,,,,,,,,,,,1,,51:,,,:,:,,,,,,,,,",
",,,,,,,,,,,,,,,,,,,,,,,,,,,,,,,,,,,,,,,,,,,,,,,,:11,,,,,,,,,,,,,",
",,,,,,,,,,,,,,,,,,,,,,,,,,,,,,,,,,,,,,,,,,,,,,,,,,:,,,,,,,,,,,,,",
",,,,,,,,,,,,,,,,,,,,,,,,,,,,,,,,,,,,,,,,,,,,,,::,::,,,,,,,,,,,,,",
",,,,,,,,,,,,,,,,,,,,,,,,,,,,,,,,,,,,,,,,,,,1,,,,,,,,,,,,,,,,,,,,",
",,,,,,:,,:,,,,,,,,,,:,,1,,,,,::11,,::,,,,,:,,1,,,,,11,,,,,1,,,,,",
",,,,,,1,,,,,,,,,,,,,,,,,1,:1,,,1:,:,,,,,1,,,,1,5,5,,:,,1,,,,::,,",
",,,,,,:1,:,,,,:,,,,,,,,,,1,:::,:,1:,,:,1,,1,,,5555,,,,,,,:,,,:,,",
",,,,1,:,,:,:,,:,,,,:,,11,,,,:****1,,1,,:,:1,,555p55,:51,1:,,:,,,",
",1,,,,,,,1,,:,,,,,::,,11,,,:**qq-@,:,,,,,,,15p5pp551,5:,::,,,:,,",
",,,,,,:,,:,,,,,,::,,,,,:,:,**q%%&-.:1,,1,,:15pippu55,,,,::,,,:,,",
",,,,,,:1,:,1,,,,,:,,::,,:,,*q%%&%*-.:,,,:,,55pppupp5,1,:,,>,,,,,",
",,,,,,1,,,,,,1,,,,,,,,:,,,**q&a%*a-O,,::,::50p93wwp55,,,:,,,,,,:",
",,,,,,,,:>:,1,,,,,,:,:,,:,**q%%%#*-@,,,,:,>5p396wwwp5,,>,,,,:,,,",
",:,,,,,,,,,,:19,:,,1,q,,,:**q%%***-@::,>1,,5p98w@wwu5:,:,,,,,,,,",
",,,,,,,,::>:,33,1,,::qq,: **q-***-*q1@,1::,5p3ew+@8p51,,,,,,,,,,",
",,,,,,,,,,,,14t1,,,,,=q---O**qq--*o*O*1,1:15pp3ww89p5::,::2,,,,,",
",,,,,,,,1,:,17t,,>1:1q-qq$-qo****Oq@**.>,,,55p@8wwpu5:,,,,:,,,,,",
",,,,,,,,:1,,4tt9,:,,,*q*=q--*q@*@q*@* *:,,,,55.O98p0,,,,,,,,,,,,",
",,,,,,,,,,,:7ttt,::,q-*-qq*w--*-q**@**@@,:::,5.@pp55,,:,:,1,:,,,",
",,,,,,,:,:,3tttt3,:,---*q#**wy-q$*4@@*#*,,,:1,O@00511,,1,,,,:,,,",
",,,,1,,,,:,8ttttt31:*-*-$*y--*w-q8**OO@*,,::1:O,,,:,,,,,,,,,,,,,",
",,1,,,,,,19ttsfhht8,,*=*--*y---w8#*8,*O#@>,:,@O,,,,,,:,,,,,,,,,,",
",,,,1,,,,3ttsghhfs3,,-*$*,-*ww--q*8:,:*@qq,,,.o:,,,:,:,,,,,,,,,,",
",,,,,:::,3ttsgasda8,1*-*,,,--*w--3*,1,@---q,,@O:,,,,,:,,,,,,,,,,",
",,,,,:::,,8tsssgfd6,*q*q:,:*--*w7*::,,1=--q:,@X:,,,:,:,,,,,,,,,,",
",,,,,,1,118rtsffst3*-*q-1,:1*--***,,11,,-=--:@,,,:,,,,,,,,,,,,,,",
",,,,,,,,,:,8ttsfs8,-*q-,,,,,w*q**8@,,>:,q---, :,,2,,,:,,,,,,,,,,",
",,,,,,,,,:::3ttr3,q-*-,,,,1*-ey37o@@,,,,qq-qO@,:,::,,,,,,,,,,,,,",
",,,,,,,,,,,,,9384:-qq-,,,,*--**@O@o@,,:,,---#=,,:,,,,,,,,,,,,,,,",
",,,,,,,,,,,,,,,$,-q*-,,:,**-*-qo***.,1<,,,qq-#,,,,,,,,,,,,,,,,,,",
",,,,,,,,,,,,,1,-*q*-1,:,*--*-*@**-*@@,,,:,,**-,,,,,,,,,,,,,,,,,,",
",,,,,,,,,,,:,,,--*-,,1,:*-**-qO*-***O,,,,,,,@,,,::,,,,,,,,,,,,,,",
",,,,,,,,,,:,::1,--:::,,***-*-o*--***@.,,,,,:O:,,,>,,,,,,,,,,,,,,",
",,,,,,,,,:1,,,,1,1,:,:*-**;**O******@@1:,1,,.,:,,,,,,,,,,,,,,,,,",
",,,,,,,,,1,,,:,,,,,,,:#*=*-*q*o**-***@,:,,:.,,:,,,,,,,,,,,,,,,,,",
",,,,,,,,:,::,,,:::,:,:**-**q*=O*---**o,,:::@,,,,:,,,,,,,,,,,,,,,",
",,,,,,,,,,,,,,,,,,,::,*-**q*-:O#=>--*.,,,,:O,,,,,,,,,,,,,,,,,,,,",
",,,,,,,,,,,,,,,,,,,,1:,**q*q-:@*,1---O,,:,,.,,,,,,,,,,,,,,,,,,,,",
",,,,,,,,,,,,,,,,::,:,,1:*q*=*,,@,--.-@,,,,,O,,,,,,,,,,,,,,,,,,,,",
",,,,,,,,,,,,,,,,,,,,,,,$*=-*,:,>,-o*@-,,,,@,,,,,,,,,,,,,,,,,,,,,",
",,,,,,,,,,,,,,,,,,,,,,:*---*1,,1@@**O-::1,.,,,,,,,,,,,,,,,,,,,,,",
",,,,,,,,,,,,,,,,:,1,,,*=--**,1,:@**oO@,:,,@,,,,,,,,,,,,,,,,,,,,,",
",,,,,,,,,,,,,,,,,,,,::*--**1:,:1**Oo@O,,:,.,,,,,,,,,,,,,,,,,,,,,",
",,,,,,,,,,,,,,,,,,,,:,,*-*$,,,,:,@.@@,,,,,O,,,,,,,,,,,,,,,,,,,,,",
",,,,,,,,,,,,,,,,,,,,,1,-**,,>:::@O@@,,,,>@,,,:,,,,,,,,,,,,,,,,,,",
",,,,,,,,,,,,,,,,,,,,,1--*:,,,::1oOO,::,,:O,:,,,,,,,,,,,,,,,,,,,,",
",,,,,,,,,,,,:,,,::1,,:--*,,,:,,,@@O:,::,:.:,,,,,,,,,,,,,,,,,,,,,",
",,,,,,,,,,,,,,,,1,,,,,-**1:,,,:::O.,,:,,,,,,:,,,,,,,,,,,,,,,,,,,",
",,,,,,,,,:,,,,,,:,,,,--*$1::,,,1:.**,,,:,,,,:,,,,,,,,,,,,,,,,,,,",
",,,,,,,,,,,,,,,,,,,,,-**>,:,,,:,1,**:1,1,1,,,,,,,,,,,,,,,,,,,,,,",
",,,,,,,,,,,,,,,,:,,1:-**,::,1,,,,>,*,1,,,1,,,,,,,,,,,,,,,,,,,,,,",
",,,,,,,,,,:,,::,,,,,,-$*,,,::,,1,,:,,1,,,11:,,,,,,,,,,,,,,,,,,,,",
",,,,,,,,,,,,,,,,,,,,::*:,,,:,,,,,,,,,,,,,,,,,,,,,,,,,,,,,,,,,,,,",
",,,,,,,,,,,,,,,,:,,,,1,,,,,,,,:,,,,,,,,,,,,,,,,,,,,,,,,,,,,,,,,,",
",,,,,,,,,,,,,,,,,,,,,1,:,,,,,,:,,,,,,,,,,,,,,,,,,,,,,,,,,,,,,,,,",
",,,,,,,,,,,,,,,,,,,,,1,,:,,:,,,,,,,,,,,,,,,,,,,,,,,,,,,,,,,,,,,,",
",,,,,,,,,,,,,,,,,,,,,1>,,,,,,,,,,,,,,,,,,,,,,,,,,,,,,,,,,,,,,,,,",
",,,,,,,,,,,,,,,,,,,:,,,,,,::,,,,,,,,,,,,,,,,,,,,,,,,,,,,,,,,,,,,",
",,,,,,,,,,,,,,,,,,,,,,,,:,,:,,,,,,,,,,,,,,,,,,,,,,,,,,,,,,,,,,,,",
",,,,,,,,,,,,,,,,,,,,::,,,,,:,,,,,,,,,,,,,,,,,,,,,,,,,,,,,,,,,,,,"
};
