/* XPM */
static char *rcp06185090831376[] = {
/* columns rows colors chars-per-pixel */
"64 64 209 2 ",
"   c #07070F",
".  c #08070D",
"X  c #0A040E",
"o  c #09060F",
"O  c #08070F",
"+  c #0A070E",
"@  c #06090E",
"#  c #09080E",
"$  c #0A090F",
"%  c #070713",
"&  c #080611",
"*  c #0A0710",
"=  c #090712",
"-  c #080810",
";  c #090810",
":  c #0A0911",
">  c #080812",
",  c #0A0813",
"<  c #120F20",
"1  c #170F24",
"2  c #061A23",
"3  c #061824",
"4  c #071925",
"5  c #061A25",
"6  c #071927",
"7  c #111020",
"8  c #131021",
"9  c #121121",
"0  c #131023",
"q  c #121123",
"w  c #111322",
"e  c #131222",
"r  c #151120",
"t  c #141021",
"y  c #141220",
"u  c #141122",
"i  c #151122",
"p  c #171022",
"a  c #151223",
"s  c #141323",
"d  c #131224",
"f  c #131126",
"g  c #151024",
"h  c #141124",
"j  c #161125",
"k  c #151225",
"l  c #151026",
"z  c #141126",
"x  c #1F2233",
"c  c #1F2235",
"v  c #1E2336",
"b  c #1D2434",
"n  c #202133",
"m  c #202332",
"M  c #212332",
"N  c #232232",
"B  c #242333",
"V  c #222433",
"C  c #202135",
"Z  c #212234",
"A  c #202334",
"S  c #232234",
"D  c #222335",
"F  c #232136",
"G  c #212236",
"H  c #202336",
"J  c #212237",
"K  c #242134",
"L  c #242335",
"P  c #242237",
"I  c #212435",
"U  c #212437",
"Y  c #232436",
"T  c #2F3535",
"R  c gray20",
"E  c #303433",
"W  c #333532",
"Q  c #323433",
"!  c #343633",
"~  c #313234",
"^  c #323335",
"/  c #333335",
"(  c #323337",
")  c #353336",
"_  c #313534",
"`  c #303435",
"'  c #333534",
"]  c #323635",
"[  c #313536",
"{  c #333436",
"}  c #303636",
"|  c #313737",
" . c #323637",
".. c #343434",
"X. c #353535",
"o. c #343635",
"O. c #343436",
"+. c #343537",
"@. c #353537",
"#. c #353736",
"$. c #323338",
"%. c #343338",
"&. c #353338",
"*. c #313538",
"=. c #333438",
"-. c #333439",
";. c #323639",
":. c #33373A",
">. c #343539",
",. c #353638",
"<. c #363638",
"1. c #363739",
"2. c #34353A",
"3. c #35363A",
"4. c #34343C",
"5. c #323838",
"6. c #343839",
"7. c #630F0F",
"8. c #660E0D",
"9. c #660D0F",
"0. c #670D0F",
"q. c #670F0E",
"w. c #680E0E",
"e. c #770A0F",
"r. c #760C0E",
"t. c #7A090B",
"y. c #790B0A",
"u. c #7B0B0A",
"i. c #790B0C",
"p. c #780A0D",
"a. c #7B0A0C",
"s. c #78090F",
"d. c #780B0E",
"f. c #790B0E",
"g. c #7B0A0E",
"h. c #7A0C0D",
"j. c #790C0F",
"k. c #7A0C0F",
"l. c #660D11",
"z. c #650F10",
"x. c #670E10",
"c. c #670E12",
"v. c #670E14",
"b. c #680E10",
"n. c #680F11",
"m. c #690F11",
"M. c #680D12",
"N. c #790A10",
"B. c #790C11",
"V. c #661011",
"C. c #423B5A",
"Z. c #433C5B",
"A. c #423D5B",
"S. c #413E5B",
"D. c #423B5C",
"F. c #413C5C",
"G. c #403D5C",
"H. c #433C5D",
"J. c #433E5C",
"K. c #423F5C",
"L. c #433D5F",
"P. c #433E5E",
"I. c #443D5C",
"U. c #443D5E",
"Y. c #433F60",
"T. c #9C0A0B",
"R. c #9D0B0B",
"E. c #9F0B0B",
"W. c #9E090D",
"Q. c #9D0B0C",
"!. c #9C0A0D",
"~. c #9F0A0C",
"^. c #9C0B0E",
"/. c #9D0B0E",
"(. c #9F0A0E",
"). c #9E0C0F",
"_. c #9D0A10",
"`. c #9F0A10",
"'. c #9D0A12",
"]. c #A10A0F",
"[. c #BD0D0F",
"{. c #BF0C10",
"}. c #BF0C12",
"|. c #C00B10",
" X c #C00D10",
".X c #C10C11",
"XX c #C00D11",
"oX c #C10C13",
"OX c #C00D13",
"+X c #C10E12",
"@X c #FA0001",
"#X c #FC0000",
"$X c #FC0001",
"%X c #B3695C",
"&X c #B3695E",
"*X c #B36B5F",
"=X c #B46A5F",
"-X c #B66961",
";X c #B56B60",
":X c #B46A61",
">X c #E5AF8D",
",X c #E6AE8D",
"<X c #E2B08D",
"1X c #E6B08C",
"2X c #E6B08E",
"3X c #E7B18F",
"4X c #FDF0DD",
"5X c #FFF0DD",
"6X c #FFF1DE",
/* pixels */
"{ { { { { { { { { { { { { { { { { { { { { { { { { { { { { { { { { { { { { { { { { { { { { +.=.{ { { =.>.{ { { { { { { { { { { { ",
"{ { { { { { { { { { { { { { { { { { { { { { { { { { { { { { { { { { { { { { { { { { { { { { { { { { =.=.{ { { { { { { { { { { { ",
"{ { { { { { { { { { { { { { { { { { { { { { { { { { { { { { { { { { { { { { { { { { { { { =.=.{ { { { { +.{ +.{ { { { { { { { { ",
"{ { { { { { { { { { { { { { { { { { { { { { { { { { { { { { { { { { { { { { { { { { { { { { { =.+.{ { ^ +.{ { { { { { { { { { { ",
"{ { { { { { { { { { { { { { { { { { { { { { { { { { { { { { { { { { { { { { { { { { { { { { { u.^ +.+.{ { { { { { { { { { { { { ",
"{ { { { { { { { { { { { { { { { { { { { { { { { { { { { { { { { { { { { { { { { { { { { { %.{ f.^ +.+.{ { { { +.{ { { { { { { { ",
"{ { { { { { { { { { { { { { { { { { { { { { { { { { { { { { { { { { { { { { { { +.{ { { +.{ { { ^ =.{ { { { { { { { { { { { { { ",
"{ { { { { { { { { { { { { { { { { { { { { { { { { { { { { { { { { { { { { { { { { { ^ { { { { ^ =.=.{ ^ { { { { { { { { { { { { ",
"{ { { { { { { { { { { { Q { +.=.{ %.{ { =.{ ^ { { { { { +.{ ^ { { >.{ { >.{ { { { ^ { Q { { { { f.{ { { { +.{ { { { { { { { { { ",
"{ { { { { { { { { +.{ { { { { { { +.+.{ { { { +.{ { { ^ { ^ { { { { { { { { { +.{ { { ^ +.Q { f.f.=.{ { ^ { %.{ { +.{ { { { { { ",
"{ { { { { { { { { { { { { { { { { { { { { =.{ { { +.{ { ^ { { { $.{ +.{ { { { =.^ { { { { +.{ f..XN.^ ^ { T { { { { { { { { { { ",
"{ { { { { { { { { { Q { { { >.>.{ { ^ Q +.{ { +.^ { +.{ { +.+.{ { { $.{ { { { +.=.{ { +.{ +.=..X.Xf.=.{ { { { { { ^ { { { { { { ",
"{ { { { { { { { { { { { ^ +.{ { { +.{ { ^ { { { { { { { =.{ 8 8 i i Q { =.%.+.^ { %.=.=.{ { f..X.Xf.f.{ +.{ { { { ^ { { { { { { ",
"{ { { { { { { { { { ^ { { +.{ { +.{ { { +.{ =.>.{ { =.{ +.i i J.Z.Z ; { { { { +.{ ^ ^ ^ { f.f..X.Xf.f.f.>.u.^ { { { { { { { { { ",
"{ { { { { { { { { { +.{ { +.+.9.{ { { ^ { { { { { +.{ +.i i J.4 2 4 Z O { { Q { { { { { >.f.{..X.X.Xf.N.h.f.{ ^ { +.{ { { { { { ",
"{ { { { { { { { { { { { { { =.Q.x.{ { { { { { { =.{ +.{ i U.4 4 4 4 i Z = { { ^ { ^ { { f..X.X.X.X.X.Xf.u.f.^ =.{ { { { { { { { ",
"{ { { { { { { +.{ ^ { { { { x.Q.Q.9.=.=.{ ^ { ^ +.{ { i j U.4 $X4 i $XZ ; +.{ { { { { { f..X.Xx.x.Q.'.[.h.h.=.{ { { { { { { { { ",
"{ { { { { { { { { +.{ ^ { 9.Q.'.Q.b.{ ^ +.{ +.{ { { ^ 8 i Z.4 4 4 i j Z ; { { { { { { =.f..Xx.x.x.Q.Q.Q..Xf.+.^ { { { { +.{ { { ",
"{ { { { { { { ^ { { { { b.Q.'.Q.Q.Q.x.=.=.{ ^ Z.{ +.=.8 8 Z.4 4 i i j Z ; { { { +.{ { +.e..Xx.x.Q.= E.Q..Xf.{ { { { { { { { { { ",
"{ { { { { { { { =.{ +.b.Q.Q.%X>X6X6XQ.x.{ { +.Z.Z.{ O # i Z.Z i i i Z i Z.{ ; { { { +.{ f..Xx.Q.).# ; v..XN.=.{ { { { { +.{ { { ",
"{ { { { { { { { { { { x.Q.:X3X6X6X>X=Xx.{ { { Z Z.Z n O 8 8 Z.Z.n Z i O i ; i { { { { { r..X|.9.Q.Q.b.b..Xf.{ { { { +.{ { { { { ",
"{ { { { { { { +.{ ^ { x.Q.:X3X@X%X:X$XQ.x.{ =.Z Z J.J.n Z ; 8 i i i ; U.# i i ; { =.{ { f.f.{.= x.Q.Q..X.Xf.{ +.{ { { { { { { { ",
"{ { { { { { { { { { x.Q.Q.=X:X:X>X<X%XQ.9.{ i Z.J.Z J.Z Y i Z.; 8 = D.i # i O i =.+.{ { u.B..X; ; x.x.[.f.{ ^ { { { +.{ { { { { ",
"{ { { { { { { ^ { { 9.).Q.Q.%X>X>X:XQ.Q.7.Z n i Z Z Z.8 i Z Z i Z J.i i = 8 i O O { { +.{ f.f.; O .X{.f.{ { { { { { { { { { { { ",
"{ { { { { { { +.+.{ b.Q.'.Q.Q.=X3X=XQ.Q.V.Z Z 8 Z Z.i i i E.).Z Z.i j 9.; ; i i i ^ { { +.=.{ =   f.f.=.{ { { { { { { { { { { { ",
"{ { =.{ { { +.{ { { { x.Q.E.Q.).Q.Q.Q.x.{ { j i i n j i n Z j Q.Z J.b.1 i ; = # i +.{ ) { { { ; { =.{ { +.{ { { { { { { { { { { ",
"{ { { { { { { >.+.{ ^ { x.b.Q.Q.Q.x.w.$.{ i V i i i n 8 8 Q.Z n ].b.8 i 9.{ 8 ; i ; { { { =.; = ^ { { +.+.+.{ { { { { { { { { { ",
"{ { { =.{ { +.{ { ^ { { { { b.9.b.=.{ i Z 8 i Z Z { =.Z 8 Z Q.Z Z Z.i x.{ { +.i = J.Z.{ { ^ ; = { { { +.{ { ^ { { { { { { { { { ",
"{ { { { { ^ { ^ +.{ { ^ { { { +.{ ^ =.Z Z j Z Z { +.=.^ B Z j Q.P Z b.i { { { ; Z Z Z Y.^ { = ; { =.{ { { { +.=.{ { { { { { { { ",
"{ { { { { { ^ { ^ { ^ { { +.i { +.{ Z Z i Z Z { { +.>.{ i Z Z j Q.x.i Q { { +.%.Z n n J.{ %.; ; { ^ { { { { { { { { { { { { { { ",
"{ { { { { { { { { { +.^ { { i 8 Z.J.J.Z.Z n { ^ +.{ { { Q.i Z 8 8 < i { +.%.{ { { Z Z x n { O >.{ { { =.+.{ { { { { { { { { { { ",
"{ { { { { =.+.+.{ { +.{ { { P Z i i Z Z { ^ { { ^ { +.=.j ).i Z.8 i x.; { =.^ ! { Z.Z Z n ^ = +.{ ^ { { { { +.{ { { { { { { { { ",
"{ { { { +.{ { ^ { Q +.+.{ { { Z x { { { { { { { +.{ { 8 n Z Q.b.x.x.O # ; { { +.+.C.Z.Z Z.= O { { { +.{ { { { { { { { { { { { { ",
"{ { { { { { ^ ^ { ^ { { { { { { { { { { +.{ { ^ { +.8 i n i i i ; Z ; O ; +.=.^ { { Z Z v i Z { { { { >.+.+.{ { { { { { { { { { ",
"{ { { { { { { ^ { { { ^ ^ >.+.+.{ +.{ { +.{ =.{ +.i i Z 8 Z Z.; ; Y i i ; =.{ +.{ { { Z.Z.Z 8 ^ { { ^ { { { { { { { { { { { { { ",
"+.+.+.+.+.+.{ { { { { =.{ { =.{ +.=.{ { { +.{ { { i Z 8 i Z # # i i Z 8 ; ; { { { { +.{ 8 i Z { { { { { +.{ +.{ { { { { { { { { ",
"+.+.+.+.+.+.+.+.+.+.>.{ { { { ^ { +.{ { ^ { ^ { j i Z i Z Z.= i i Z i i i ; { +.+.{ { { { ; { { { { { { { { { ^ { { { { { { { { ",
"+.+.+.+.+.+.+.+.+.+.+.+.+.+.+.>.+.+.=.>.{ R ) j i i Z i i ; @ Z Z j 8 i i ; O { +.+.{ Q { # { { { { { { +.{ ^ { { { { { { { { { ",
"+.+.+.+.+.+.+.+.+.+.+.+.+.+.>.+.+.+.{ { >.+.j i Z j Z 8 i O i j i Z i 8 j = ; =.^ { { +.{ O { { { { { { { { { { { { { { { { { { ",
"+.+.+.+.+.+.+.+.+.{ +.+.+.+.+.+.+.+.{ { >.+.i i P i Z i J.i ; i i Z Z i i i = { { { { =.O { { { ^ { { { { { { { { { { { { { { { ",
"+.+.+.+.+.+.+.+.+.+.+.+.+.+.+.+.+.+.+.+.+.+.8 j Z i i Z.i Z ; i Z { Z Z i j O >.{ { { { O { { +.{ { { { { { { { { { { { { { { { ",
"+.+.+.+.+.+.+.+.+.+.+.+.+.+.+.+.+.>.+.+.+.+.>.i i Z.J.8 Z +.= i n >.{ Z Z i ; { { ^ =.=.; { ^ { { { { { { { { { { { { { { { { { ",
"+.+.+.+.+.+.+.+.+.+.+.+.+.+.>.>.+.+.+.+.+.+.+.+.i J.i Z Z +.; i +.>.>.Z P Z O +.{ { +.^ # { { { { { { { { { { { { { { { { { { { ",
"+.+.+.+.+.+.+.+.+.+.+.+.+.+.+.+.+.+.+.+.>.+.5.+.i Z.Z Z j +.>.; +.+.Z Z ; Z ; +.=.{ { +.; +.^ { { { { { { { { { { { { { { { { { ",
"+.+.+.+.+.+.+.+.+.+.+.+.+.+.+.+.{ +.+.+.>.+.+.8 i n Z 8 +.=.+.+.>.+.b ; i = Z +.+.+.{ O { { { { { { { { { { { { { { { { { { { { ",
"+.+.+.+.+.+.+.+.+.+.+.+.+.+.+.+.+.>.+.+.+.+.=.j Z Y Z 8 +.>.>.+.+.; = 8 i ; Z +.+.+.+.; >.{ { { { { { { { { { { { { { { { { { { ",
"+.+.+.+.+.+.+.+.+.+.+.+.+.+.+.+.+.+.{ +.+.+.8 Z v i i +.=.{ +.+.+.# 8 i O # ; >.>.+.+.; { +.+.+.+.+.+.+.+.+.+.+.+.+.+.+.+.+.+.+.",
"+.+.+.+.+.+.+.+.+.+.+.+.+.+.+.>.+.{ >.+.+.>.i 8 Z i j +.+.{ { +.+.8 i ; O ; O +.>.+.{ O +.+.+.+.+.+.+.+.+.+.+.+.+.+.+.+.+.+.+.+.",
"+.+.+.+.+.+.+.+.+.+.+.+.+.+.+.+.+.+.{ +.{ +.+.i Z j Q 4.+.>.>.{ +.+.= ; ; ; >.+.>.+.+.  >.+.+.+.+.+.+.+.+.+.+.+.+.+.+.+.+.+.+.+.",
"+.+.+.+.+.+.+.+.+.+.+.+.+.+.+.+.+.+.+.+.+.+.n Z i +.+.+.>.+.+.{ +.; # ; ; +.+.+.{ >.  +.+.>.+.+.+.+.+.+.+.+.+.+.+.+.+.+.+.+.+.+.",
"+.+.+.+.+.+.+.+.+.+.+.+.+.+.+.+.>.{ +.+.>.+.n Z i >.+.>.+.=.{ +.>.; # ; >.+.+.+.+.{ ; +.+.+.+.+.+.+.+.+.+.+.+.+.+.+.+.+.+.+.+.+.",
"+.+.+.+.+.+.+.+.+.+.+.+.+.+.+.+.+.+.>.+.+.+.Z i j +.+.+.+.+.{ +.+.; ; ; { +.+.{ ! +.% +.>.+.+.+.+.+.+.+.+.+.+.+.+.+.+.+.+.+.+.+.",
"+.+.+.+.+.+.+.+.+.+.+.+.+.+.+.+.+.+.! +.+.Z Z i i { { >.{ >.+.{ { +.; O +.+.6.+.+.+.=.+.+.+.+.>.+.+.+.+.+.+.+.+.+.+.+.+.+.+.+.+.",
"+.+.+.+.+.+.+.+.+.+.+.+.+.+.+.+.{ +.+.+.{ n 8 8 +.+.>.+.>.+.+.{ +.+.; i 8 >.{ +.+.+.+.+.>.+.+.+.+.+.+.+.+.+.+.+.+.+.+.+.+.+.+.+.",
"+.+.+.+.+.+.+.+.+.+.+.+.+.+.+.+.+.{ >.>.{ Z i +.{ { >.^ +.>.+.+.>.{ >.d 8 +.{ +.+.>.+.>.>.>.>.+.+.+.+.+.+.+.+.+.+.+.+.+.+.+.+.+.",
"+.+.+.+.+.+.+.+.+.+.+.+.+.+.+.+.+.+.+.+.>.Z 8 +.+.+.+.+.>.>.+.{ +.+.{ +.i { >.^ +.+.{ { +.+.+.{ +.+.+.+.+.+.+.+.+.+.+.+.+.+.+.+.",
"+.+.+.+.+.+.+.+.+.+.+.+.+.+.+.{ +.+.+.+.+.8 d +.=.+.+.+.+.+.+.{ +.{ +.+.+.+.>.+.+.+.+.+.+.+.+.+.+.+.+.+.+.+.+.+.+.+.+.+.+.+.+.+.",
"+.+.+.+.+.+.+.+.+.+.+.+.+.+.+.+.+.+.+.+.+.+.+.+.+.+.+.+.+.+.+.{ +.{ +.+.+.+.>.+.+.+.+.+.+.+.+.+.+.+.+.+.+.+.+.+.+.+.+.+.+.+.+.+.",
"+.+.+.+.+.+.+.+.+.+.+.+.+.+.+.+.+.+.+.+.+.+.+.+.>.+.+.+.+.+.+.+.+.+.+.+.+.+.+.+.+.+.+.+.+.+.+.+.+.+.+.+.+.+.+.+.+.+.+.+.+.+.+.+.",
">.>.+.+.+.+.+.+.+.+.+.+.+.+.+.+.+.+.+.+.+.+.+.+.+.+.+.+.+.+.+.+.+.+.+.+.+.+.+.+.+.+.+.+.+.+.+.+.+.+.+.+.+.+.+.+.+.+.+.+.+.+.+.+.",
">.>.>.>.+.+.+.+.+.+.+.+.+.+.+.+.+.+.+.>.+.+.>.>.+.+.+.+.+.+.+.+.+.+.+.+.+.+.+.+.+.+.+.+.+.+.+.+.+.+.+.+.+.+.+.+.+.+.+.+.+.+.+.+.",
">.>.>.>.>.>.>.>.+.+.+.+.+.+.+.+.+.+.+.+.+.+.+.+.+.+.+.+.>.+.+.+.+.+.+.+.+.+.+.+.+.+.+.+.+.+.+.+.+.+.+.+.+.+.+.+.+.+.+.+.+.+.+.+.",
">.>.>.>.>.>.>.>.>.>.+.+.+.+.+.+.+.+.+.+.>.+.+.>.+.+.+.+.+.+.>.+.+.+.+.+.+.+.+.+.+.+.+.+.+.+.+.+.+.+.+.+.+.+.+.+.+.+.+.+.+.+.+.+.",
">.>.>.>.>.>.>.>.>.>.+.+.+.+.+.+.+.+.+.+.+.+.>.+.>.+.+.+.+.+.+.+.+.+.+.+.+.+.+.+.+.+.+.+.+.+.+.+.+.+.+.+.+.+.+.+.+.+.+.+.+.+.+.+."
};
