/* XPM */
static char *rcp0618040494451[] = {
/* columns rows colors chars-per-pixel */
"64 64 219 2 ",
"   c #06060E",
".  c #07060E",
"X  c #07070F",
"o  c #08070D",
"O  c #09060F",
"+  c #08070F",
"@  c #0A070E",
"#  c #09080E",
"$  c #08090E",
"%  c #0A090F",
"&  c #070711",
"*  c #080611",
"=  c #0A0710",
"-  c #090712",
";  c #080613",
":  c #0A0712",
">  c #0A0614",
",  c #060910",
"<  c #080810",
"1  c #090810",
"2  c #090911",
"3  c #0B0811",
"4  c #0A0911",
"5  c #080812",
"6  c #0A0813",
"7  c #12101E",
"8  c #13111F",
"9  c #071724",
"0  c #071923",
"q  c #061824",
"w  c #071925",
"e  c #061A25",
"r  c #071927",
"t  c #081825",
"y  c #081A28",
"u  c #111020",
"i  c #131021",
"p  c #121121",
"a  c #131222",
"s  c #151120",
"d  c #141021",
"f  c #141220",
"g  c #151321",
"h  c #141122",
"j  c #151122",
"k  c #171022",
"l  c #151223",
"z  c #141323",
"x  c #161223",
"c  c #131025",
"v  c #131224",
"b  c #151024",
"n  c #141124",
"m  c #151225",
"M  c #141325",
"N  c #141126",
"B  c #1D2333",
"V  c #1F2233",
"C  c #1F2235",
"Z  c #1E2434",
"A  c #212032",
"S  c #202133",
"D  c #232033",
"F  c #202332",
"G  c #212332",
"H  c #232232",
"J  c #222433",
"K  c #202135",
"L  c #212234",
"P  c #202334",
"I  c #232234",
"U  c #222335",
"Y  c #232136",
"T  c #212236",
"R  c #202336",
"E  c #212237",
"W  c #222337",
"Q  c #242134",
"!  c #242335",
"~  c #212435",
"^  c #2F3332",
"/  c #2F3334",
"(  c #2F3336",
")  c #2F3535",
"_  c #303133",
"`  c #313332",
"'  c #323232",
"]  c gray20",
"[  c #323431",
"{  c #303433",
"}  c #333532",
"|  c #323433",
" . c #323733",
".. c #313234",
"X. c #323234",
"o. c #323335",
"O. c #333335",
"+. c #313236",
"@. c #333237",
"#. c #323337",
"$. c #343235",
"%. c #353336",
"&. c #313534",
"*. c #303435",
"=. c #333534",
"-. c #313735",
";. c #323635",
":. c #313536",
">. c #303437",
",. c #333436",
"<. c #313737",
"1. c #323637",
"2. c #343434",
"3. c #353535",
"4. c #353734",
"5. c #343635",
"6. c #343436",
"7. c #343537",
"8. c #353537",
"9. c #363437",
"0. c #353736",
"q. c #343338",
"w. c #313538",
"e. c #333438",
"r. c #333439",
"t. c #333738",
"y. c #323639",
"u. c #32353A",
"i. c #353439",
"p. c #343539",
"a. c #353638",
"s. c #363638",
"d. c #363739",
"f. c #34353A",
"g. c #35363A",
"h. c #323838",
"j. c #660D0F",
"k. c #640E0F",
"l. c #670F0E",
"z. c #77090C",
"x. c #780A0B",
"c. c #7B0B0A",
"v. c #7A090D",
"b. c #790B0C",
"n. c #780A0D",
"m. c #7B0A0C",
"M. c #78090F",
"N. c #780B0E",
"B. c #790B0E",
"V. c #7B0A0E",
"C. c #7C0B0F",
"Z. c #7A0C0D",
"A. c #7A0C0F",
"S. c #65100D",
"D. c #650F10",
"F. c #670E10",
"G. c #670E12",
"H. c #680E10",
"J. c #680F11",
"K. c #790A10",
"L. c #780B10",
"P. c #7A0B11",
"I. c #651111",
"U. c #661011",
"Y. c #3F3F5B",
"T. c #433D59",
"R. c #423E59",
"E. c #433C5B",
"W. c #423D5B",
"Q. c #413E5B",
"!. c #433F5A",
"~. c #423D5D",
"^. c #413E5D",
"/. c #433E5C",
"(. c #433C5E",
"). c #433D5F",
"_. c #443D5C",
"`. c #443F5D",
"'. c #43405D",
"]. c #9C0A0B",
"[. c #9D0B0B",
"{. c #9D0B0C",
"}. c #9C0A0D",
"|. c #9F0A0C",
" X c #9C0B0E",
".X c #9D0B0E",
"XX c #9F0A0E",
"oX c #9D0D0D",
"OX c #9D0C0F",
"+X c #9E0C0F",
"@X c #A10C12",
"#X c #BF0C10",
"$X c #BF0C12",
"%X c #C00E0E",
"&X c #C20E0F",
"*X c #C00B10",
"=X c #C00D10",
"-X c #C10D10",
";X c #C10C11",
":X c #C00D11",
">X c #C10E11",
",X c #C00D13",
"<X c #C20D12",
"1X c #C10E12",
"2X c #C10E14",
"3X c #FD0000",
"4X c #FD0001",
"5X c #B66A5D",
"6X c #B5685E",
"7X c #B6695F",
"8X c #B46A5F",
"9X c #B56B60",
"0X c #B46A61",
"qX c #E5AF8B",
"wX c #E5AD8C",
"eX c #E4AE8C",
"rX c #E5AF8D",
"tX c #E6AE8D",
"yX c #E6B08C",
/* pixels */
"7.7.7.7.7.7.7.7.7.7.7.7.7.7.7.7.7.7.7.7.7.7.7.7.7.7.7.7.7.7.7.7.7.7.7.7.7.7.7.7.7.7.7.7.7.7.7.7.7.7.7.7.7.7.7.7.7.7.7.7.7.7.7.7.",
"7.7.7.7.7.7.7.7.7.7.7.7.7.7.7.7.7.7.7.7.7.7.7.7.7.7.7.7.7.7.7.7.7.7.7.7.7.7.7.7.7.7.7.7.7.7.7.7.7.7.7.7.7.7.7.7.7.7.7.7.7.7.7.7.",
"7.7.7.7.7.7.7.7.7.7.7.7.7.7.7.7.7.7.7.7.7.7.7.7.7.7.7.7.7.7.7.7.7.7.7.7.7.7.7.7.7.7.7.7.7.7.7.7.7.7.7.7.7.7.7.7.7.7.7.7.7.7.7.7.",
"7.7.7.7.7.7.7.7.7.7.7.7.7.7.7.7.7.7.7.7.7.7.7.7.7.7.7.7.7.7.7.7.7.7.7.7.7.7.7.7.7.7.7.7.7.7.7.7.7.7.7.7.7.7.7.7.7.7.7.7.7.7.7.7.",
"7.7.7.7.7.7.7.7.7.7.7.7.7.7.7.7.7.7.7.7.7.7.7.7.7.7.7.7.7.7.7.7.7.7.7.7.7.7.7.7.7.7.7.7.7.7.7.7.7.7.7.7.7.7.7.7.7.7.7.7.7.7.7.7.",
"7.7.7.7.7.7.7.7.7.7.7.7.7.7.7.7.7.7.7.7.7.7.7.7.7.7.7.7.7.7.7.7.7.7.7.7.7.7.7.7.7.7.7.7.7.7.7.7.7.7.7.7.7.7.7.7.7.7.7.7.7.7.7.7.",
"7.7.7.7.7.7.7.7.7.7.7.7.7.7.7.7.7.7.7.7.7.7.7.7.7.7.7.7.7.7.7.7.7.7.7.7.7.7.7.7.7.7.7.7.7.7.7.7.7.7.7.7.7.7.7.7.7.7.7.7.7.7.7.7.",
"7.7.7.7.7.7.7.7.7.7.7.7.7.7.7.7.7.7.7.7.7.7.7.7.7.7.7.7.7.7.7.7.7.7.7.7.7.7.7.7.7.7.7.7.7.7.7.7.7.7.7.7.7.7.7.7.7.7.7.7.7.7.7.7.",
"7.7.7.7.7.7.7.7.7.7.7.7.7.7.7.7.7.7.7.7.7.7.7.7.7.7.7.7.7.7.7.7.7.7.7.7.7.7.7.7.7.7.,.7.7.7.7.7.7.,.7.7.7.7.7.,.7.7.7.7.7.7.7.7.",
"7.7.7.7.7.7.7.7.7.7.7.7.7.7.7.7.7.7.7.7.7.7.7.7.7.7.7.7.7.7.7.7.7.7.7.7.7.7.p.7.7.,.7.7.7.7.7.7.7.7.p.7.,.p.7.7.7.7.7.7.7.7.7.7.",
"7.7.7.7.7.7.7.7.7.7.7.7.7.7.7.7.7.7.7.7.7.7.7.7.7.7.7.7.7.7.7.7.7.7.7.7.7.7.7.7.7.p.7.7.7.p.7.7.p.e.7.7.7.7.7.p.7.7.7.7.7.7.7.7.",
"7.7.7.7.7.7.7.7.7.7.7.7.7.7.7.7.7.7.7.7.7.7.7.7.7.7.7.7.7.7.7.7.7.7.7.7.7.7.7.7.7.7.7.7.7.7.7.e.7.p.7.7.7.7.7.7.7.7.7.7.7.7.7.7.",
"7.7.7.7.7.7.7.7.7.7.7.7.7.7.7.7.7.7.7.7.7.7.7.7.7.7.7.7.7.7.7.7.7.7.7.7.7.7.p.7.7.e.7.p.7.,.p.,.A.7.7.7.7.7.7.7.7.7.7.7.7.7.7.7.",
"7.7.7.7.7.7.7.7.7.7.7.7.7.7.7.7.7.7.7.7.7.7.7.7.7.7.7.7.7.7.7.7.7.7.7.7.7.7.7.7.7.7.p.e.,.,.,.B.B.B.,.p.7.7.7.7.7.7.7.7.7.7.7.7.",
"7.7.7.7.7.7.7.7.7.7.7.7.7.7.7.7.7.7.7.7.7.7.7.7.7.7.7.7.7.7.7.7.7.7.7.7.7.7.p.7.7.7.7.7.p.7.p.B.z.B.7.7.7.7.7.7.7.7.7.7.7.7.7.7.",
"7.7.7.7.7.7.7.7.7.7.7.7.7.7.7.7.7.7.7.7.7.7.7.7.7.7.7.7.7.7.7.7.7.7.7.7.7.7.7.7.7.7.7.7.7.7.7.B.L.B.B.p.7.7.7.7.7.7.7.7.7.7.7.7.",
"7.7.7.7.7.7.7.7.7.7.7.7.7.7.7.7.,.7.7.7.7.p.7.7.7.7.7.,.p.,.p.,.7.7.,.7.7.7.7.p.p.7.7.,.7.7.B.L.B.1XB.7.7.p.7.7.7.7.7.7.7.p.7.7.",
"7.7.7.7.7.7.7.7.7.7.7.7.7.7.7.7.7.7.,.7.7.7.7.,.7.7.p.7.p.7.h n h n ,.7.p.7.7.p.7.7.p.,.7.,.B.B.1X1XB.A.p.p.7.7.7.7.7.7.7.7.7.7.",
"7.7.7.7.7.7.7.7.7.7.7.7.7.7.7.7.7.7.p.7.7.7.,.7.7.7.7.p.p.h n W.(.Q o p.7.7.7.7.7.p.7.e.7.7.B.B.1X1X1Xx.B.7.,.7.,.7.7.p.p.,.7.7.",
"7.7.7.7.7.7.7.7.7.7.7.7.7.7.7.7.p.7.7.p.7.7.p.7.,.7.7.,.h h W.r r r U 1 ,.,.7.7.7.7.7.p.7.A.B.B.1X1X$XB.B.x.7.7.7.7.7.7.7.7.7.7.",
"7.7.7.7.7.7.7.7.7.7.7.7.7.7.7.7.p.7.e.7.7.p.7.7.7.7.7.p.h W.r 9 r y n U - 7.,.7.7.7.7.7.7.B.B.1X1X2X1X1XB.A.,.7.7.7.7.7.7.7.7.7.",
"7.7.7.7.7.7.7.7.7.7.7.7.7.7.7.7.7.7.7.7.7.7.7.7.7.7.7.8 n W.0 4Xr n 4XU 1 p.7.7.p.p.7.e.B.B.1XF.F..X.X1X*XB.B.7.7.7.p.7.7.7.7.7.",
"7.7.7.7.7.7.7.7.7.7.7.7.7.7.7.7.7.7.7.7.p.7.,.e.p.7.7.a h W.r r r h h U 1 7.e.7.,.7.,.7.B.1Xk.J.F..X.X.X1XB.B.7.7.7.7.7.7.7.7.7.",
"7.7.7.7.7.7.7.7.7.7.7.7.7.7.7.7.p.,.7.7.7.,.(.7.p.p.,.h h W.t r a a h U 1 p.7.e.7.,.7.p.B.%Xk.F..X1 [..X*XB.B.7.,.7.,.7.p.7.7.7.",
"7.7.7.7.7.7.7.7.7.7.7.7.7.7.7.7.,.7.,.7.7.7.Y.W.7.p.- h h W.U h a h H h _.7.1 ,.7.7.7.h.B.1XU.+X+X1 1 J.1XB.B.7.,.7.7.7.7.7.7.7.",
"7.7.7.7.7.7.7.7.7.7.7.7.7.7.7.7.7.p.,.7.7.,.U W.U U U # a a (.W.U H h 1 h 1 a 7.7.p.p.7.B.1X1Xk..X.XF.F.1XB.B.,.7.7.7.7.7.7.7.7.",
"7.7.7.7.7.7.7.7.7.7.7.7.7.7.7.7.7.p.7.7.7.7.W.U W.W.a U W.# h h h h X W.1 h h 1 p.7.o.7.B.1X1Xo J..X+X$X1XB.e.,.7.7.7.7.7.7.7.7.",
"7.7.7.7.7.7.7.7.7.7.7.7.p.7.p.7.,.7.7.7.7.7.h W.h H (.U U n (.- h 1 W.h , h 1 n 7.7.7.p.A.B.1X- 1 k.F.1XB.B.,.,.7.7.7.7.7.7.7.7.",
"7.7.7.7.7.7.7.7.7.7.7.7.7.p.7.7.7.,.7.,.7.(.U h H W.(.a .XH U a U W.h h o h h o 1 7.7.7.7.B.B.1 o %X1XL.B.x.7.7.7.7.7.7.7.7.7.7.",
"7.7.7.7.7.7.7.7.7.7.7.7.7.7.p.7.p.7.7.7.p.U V H a W.h 8 a .X.XU W.h h k.1 1 h a h 7.7.7.,.p.B.1 1 B.B.L.C.p.p.7.7.7.7.7.7.7.7.7.",
",.,.,.,.,.,.,.,.,.,.,.,.,.,.,.e.7.7.7.7.7.h U n U a h [.Q U n .XH W.F.h h o o - h 7.7.7.e.7.7.1 7.,.B.A.7.7.,.,.7.7.7.7.7.7.7.7.",
",.,.,.,.,.,.,.,.,.,.,.,.,.,.,.,.,.,.,.,.7.,.h H h V U h .XU U H .Xk.h n S.,.h 1 a 1 7.,.,.,.1 o o.,.,.,.,.7.e.,.,.,.,.,.,.,.,.,.",
",.,.,.,.,.,.o.,.,.,.,.,.,.e.5XrXrX5Xo.e.7.,.U a a h o.U h .X.XU H (.a F.,.,.,.h > W.(.7.,.7.1 1 ,.,.,.e.,.,.,.,.,.,.,.,.,.,.,.,.",
",.,.,.,.,.,.,.p.,.,.,.,.o.5XrXqXrXrX5Xo.o.,.a U h ,.,.,.U U h .XH U F.a ,.,.o.- U U U W.,.7.1 - ,.,.,.,.,.,.,.,.,.,.,.,.,.,.,.,.",
",.,.,.,.,.,.,.p.,.,.,.,.o.5XrXo 5X0Xo ,.,.n W.h (.,.,.o.h U U n @XJ.h ,.,.,.,.,.Q U U W.,.7.- 1 ,.,.,.,.,.o.,.,.,.,.,.,.,.,.,.,.",
",.,.,.,.,.,.,.e.,.,.,.,.,.e.5X0XrXyX0X,.h H h (.U 7.,.7.,.a H U h n h 7.,.,.q.,.,.U U H U e.& ,.,.,.,.e.,.,.,.,.,.,.,.,.,.,.,.,.",
",.,.,.,.,.,.,.e.,.,.,.,.,.7.,.rXrXrXe.,.U h W.H ,.7.,.o.,.+Xh W.a n U.1 ,.,.,.o.,.W.U U U 7.- ,.,.,.,.,.,.,.,.,.,.,.,.,.,.,.,.,.",
",.,.,.,.,.,.7.e.,.,.,.o.,.,.,.,.,.) e.,.U h U ,.,.,.e.,.h H .X.XF.J.1 1 1 e.,.o.,.W.W.U W.X 1 ,.,.,.o.,.e.,.,.,.,.,.,.,.,.,.,.,.",
",.,.,.,.,.,.7.e.,.,.,.o.o.7.e.,.,.$.,.U W.W.U ,.7.,.7.a U U h h o # 1 1 - 7.,.,.,.7.U U U h U ,.7.,.,.,.e.,.,.,.,.,.,.,.,.,.,.,.",
",.,.,.,.,.o.,.,.,.,.,.,.,.,.o.,.8 ,.U (.h H ,.,.p.,.c h U n Z (.o h a h 1 7.7.,.,.,. .(.W.U h q.,.,.,.,.,.,.,.,.,.,.,.,.,.,.,.,.",
",.,.,.,.,.,.,.,.7.,.,.,.,.p.7. .U a (.n U o.,.,.,.a U U a U h - h c U h 1 1 p.,.7.e.,.o.h a C ,.,.,.,.,.7.,.,.,.,.,.,.,.,.,.,.,.",
",.,.,.,.,.,.,.,.,.,.,.,.,.7.7. .H V a H ,.,.,.,.,.h H h h U W.1 h J h a h 1 ,.,.,.,.,.7.7.1 ,.,.,.,.,.,.o.,.,.,.,.,.,.,.,.,.,.,.",
",.,.,.,.,.,.,.,.,.,.,.,.,.,.,.,.e.H H 7.,.,.,.,.h h 8 U h U 1 h U U a h h 1 # ,.e.e.7.,.,.1 ,.e.,.,.,.,.,.,.,.,.,.,.,.,.,.,.,.,.",
",.,.,.,.,.,.,.,.,.,.,.,.,.,.,.,.7.,.,.,.,.,.7.h U h h U h h 1 h h n n h h 1 - 7.,.,.,.,.,.1 ,.,.,.o.,.,.,.o.,.o.,.,.,.,.,.,.,.,.",
"o.o.o.o.o.o.o.o.,.,.7.,.,.,.,.e.e.,.e.,.e.e.,.h h U h U h _.h 1 a h U h h h -  .,.,.,.,.1 q.7.,.,.o.,.,.,.,.,.,.,.,.,.,.,.,.,.,.",
"o.o.o.o.o.o.o.o.o.o.,.,.,.,.,.p.,.e.,.,.,.,.,.h h U h h W.h H - h U U U h h 1 ,.o.,.,.,.1 7.7.,.,.,.,.,.,.,.,.,.,.,.,.,.,.,.,.,.",
"o.o.o.o.o.o.o.o.o.o.o.o.o._ o.o.o.o.o.o.o.o.o.h U h h (.h U o.1 h H  .U U n o ,.o.o.o._ 1  .o.o.o.o.o.o.o.o.o.o.o.o.o.o.o.,.,.,.",
"o.o.o.o.o.o.o.o.o.o.o.o.o._ o.o.o.o.,.o. .o./ o.h h '.h W.U  .- a o.o.U ~ H # ,.o.,.o.o.1 ,._ o.o.o.o.o.,.o.o.o.o.o.o.o.o.o.o.o.",
"o.o.o.o.o.o.o.o.o.o.o.o.o.o.o.o.o.o. .o.o.o.o.,.o.h (.h H n  . .- ,.U U 1 U 1 o.o.,.o.e.# o.o.o.o.o.o.o.o.o.o.o.o.o.o.o.o.o.o.o.",
"o.o.o.o.o.o.o.o.o.o.o.o.o.o.o.o.o.o.o.o.o.o.7.o.n h U U h o.o.o.o.o.U 1 h o H ,.o.o.o.1 o.o.o.o.o.o.o.o.o.o.o.o.o.o.o.o.o.o.o.o.",
"o.o.o.o.o.o.o.o.o.o.o.o.o.o.o.o.o. .o.o.o.o.o. .h U U U h  .o.,.,.# 1 h h 1 U o.o.o.,.1  .o.o.o.o.o.o.o.o.o.o.o.o.o.o.o.o.o.o.o.",
"o.o.o.o.o.o.o.o.o.o.o.o.o.o.o.o.o.o.o.o.o.o.,.h U U ~ a a o.o.,. .1 a h 1 1 - o._ e.o.1 o.o.o.o.o.o.o.o.o.o.o.o.o.o.o.o.o.o.o.o.",
"o.o.o.o.o.o.o.o.o.o.o.o.o.o.o.o.o.o. .o.o.o.o.h U U h h $. .o.o.o.a n 1 1 o 1 o.o.o.o.o o.o.o.o.o.o.o.o.o.o.o.o.o.o.o.o.o.o.o.o.",
"o.o.o.o.o.o.o.o.o.o.o.o.o.o.o.o.o.o.o.o.o.,.,.,.a H a h o.o.o.,.7.o.- 1 1 1 o.o.,.o.o.X _ o.o.o.o.o.o.o.o.o.o.o.o.o.o.o.o.o.o.o.",
"o.o.o.o.o.o.o.o.o.o.o.o.o.o.o.o.o.o.o.o.o.o. .o.U a n o.o.o.o.,.,.- # 1 1 ,.o.o.o.o.- o.o.o.o.o.o.o.o.o.o.o.o.o.o.o.o.o.o.o.o.o.",
"o.o.o.o.o.o.o.o.o.o.o.o.o.o.o.o.o.o.o.o.,.o.,.U U a  .o.,.o._ ,.o.# 1 1 o.,.o.o.,.,.1 ,.o.o. .o.o.o.o.o.o.o.o.o.o.o.o.o.o.o.o.o.",
"o.o.o.o.o.o.o.o.o.o.o.o.o.o.o. .o.,.o.o.o.,.o.H U a o.o.o.,.o.o.o.- o o o.e. . .o. .X  .o.o.o.o.o.o.o.o.o.o.o.o.o.o.o.o.o.o.o.o.",
"o.o.o.o.o.o.o.o.,.o.o.o.o.o.o.o.o.,.o.o.o.,. .V h h 7.o.,.o.o.o.o.o.1 -  . ./ o.o.o.o.o.o.o.,.o.o.o.o.o.o.o.o.o.o.o.o.o.o.o.o.o.",
"o.o.o.o.o.o.o.o.o.o.o.o.o.o.o.e.o.o._ ^ o.o.Q U h a o.o.o.e.o.o.o./ 1 h n ,.,.o.o.o.,.o.o.o.,.o.o.o.o.o.o.o.o.o.o.o.o.o.o.o.o.o.",
"o.o.o.o.o.o.o.o.o.o.o.o.o.o.o.o.o.o.o.o.o.,.U h h o.o.o.o.o.,.o.o.o.o.n h o.o.o.o.o.o.o.o.o.o.o.o.o.o.o.o.o.o.o.o.o.o.o.o.o.o.o.",
"o.o.o.o.o.o._ o.o.o.o.o.o.o.o. .o.,. .o.o.o.H h h ,._ o. .o.,.o.o.o.o. .n ,.o.,.o.o.o.o.o.o.o.o.o.o.o.o.o.o.o.o.o.o.o.o.o.o.o.o.",
"o.o.o.o.o.o.o.o.o.o.o.o.o.o.o.o. .o.o.o.o.o.C h n o.o.o.,.o.o.o.,.o.,.o.o.o.o.o.o.o.o.o.o.o.o.o.o.o.o.o.o.o.o.o.o.o.o.o.o.o.o.o.",
"o.o.o.o.o.o.o.o.o.o._ o.o.o.o.o.o.o.o.o.o.o.,.h o.o.o.o.o.o.o.o._ o.,._ o._ o.o.o.o.o.o.o.o.o._ o.o.o.o.o.o.o.o.o.o.o.o.o.o.o.o.",
"o.o.o.o.o.o.o.o.o.o.o.o.o.o._ o.o.o.o.o.o.o._ o.^ / o.o._ o.o.o.o._ / o.o._ o.o.o.o.o._ o.o.o.o.o.o.o.o.o.o.o.o.o.o.o.o.o.o.o.o."
};
