/* XPM */
static char *rcp06180979994738[] = {
/* columns rows colors chars-per-pixel */
"64 64 194 2 ",
"   c #07060C",
".  c #07060E",
"X  c #07070F",
"o  c #09060D",
"O  c #0B050F",
"+  c #09060F",
"@  c #08070F",
"#  c #09080E",
"$  c #0A090F",
"%  c #070510",
"&  c #070713",
"*  c #080611",
"=  c #0A0710",
"-  c #090712",
";  c #080613",
":  c #0A0712",
">  c #0C0610",
",  c #080810",
"<  c #090810",
"1  c #090911",
"2  c #0A0911",
"3  c #080812",
"4  c #080814",
"5  c #0A0815",
"6  c #12101E",
"7  c #13111F",
"8  c #120F20",
"9  c #130F20",
"0  c #160F21",
"q  c #071923",
"w  c #051924",
"e  c #071925",
"r  c #061A25",
"t  c #061927",
"y  c #071927",
"u  c #081825",
"i  c #081A26",
"p  c #131021",
"a  c #121121",
"s  c #131220",
"d  c #131023",
"f  c #121123",
"g  c #131222",
"h  c #151120",
"j  c #141021",
"k  c #141220",
"l  c #151321",
"z  c #141122",
"x  c #151122",
"c  c #151223",
"v  c #141323",
"b  c #161223",
"n  c #131025",
"m  c #131224",
"M  c #151024",
"N  c #141124",
"B  c #141325",
"V  c #181123",
"C  c #1F2233",
"Z  c #1F2034",
"A  c #1E2434",
"S  c #202133",
"D  c #222133",
"F  c #202332",
"G  c #212332",
"H  c #232232",
"J  c #212433",
"K  c #222433",
"L  c #202135",
"P  c #212234",
"I  c #202334",
"U  c #232234",
"Y  c #222335",
"T  c #232136",
"R  c #212236",
"E  c #202336",
"W  c #212237",
"Q  c #242335",
"!  c #212435",
"~  c #232436",
"^  c #252436",
"/  c #2F3032",
"(  c #2F3332",
")  c #2E3233",
"_  c #2E3432",
"`  c #2F3034",
"'  c #2F3334",
"]  c #2E3235",
"[  c #2F3336",
"{  c #2E3337",
"}  c #2E3434",
"|  c #2F3535",
" . c #313131",
".. c #313330",
"X. c #303231",
"o. c #303032",
"O. c #303133",
"+. c #313133",
"@. c #313332",
"#. c #323232",
"$. c gray20",
"%. c #323431",
"&. c #303433",
"*. c #323433",
"=. c #303135",
"-. c #333134",
";. c #313234",
":. c #323234",
">. c #323335",
",. c #333335",
"<. c #323136",
"1. c #323137",
"2. c #313236",
"3. c #313237",
"4. c #333237",
"5. c #323337",
"6. c #313534",
"7. c #303435",
"8. c #333534",
"9. c #313536",
"0. c #303437",
"q. c #333436",
"w. c #343436",
"e. c #343537",
"r. c #323338",
"t. c #333438",
"y. c #660D0F",
"u. c #77090A",
"i. c #77090C",
"p. c #770A0D",
"a. c #7A0A09",
"s. c #7B080B",
"d. c #7B0B0A",
"f. c #7A090D",
"g. c #790B0C",
"h. c #780A0D",
"j. c #7B0A0C",
"k. c #780B0E",
"l. c #790B0E",
"z. c #7B0A0E",
"x. c #7C090E",
"c. c #7C0B0F",
"v. c #780C0C",
"b. c #7A0C0D",
"n. c #660D11",
"m. c #670E10",
"M. c #670E12",
"N. c #690D10",
"B. c #680E10",
"V. c #680F11",
"C. c #790A10",
"Z. c #790C11",
"A. c #661011",
"S. c #3F3F5B",
"D. c #433D59",
"F. c #413C5A",
"G. c #433C5B",
"H. c #423D5B",
"J. c #413E5B",
"K. c #413C5C",
"L. c #423D5D",
"P. c #433E5C",
"I. c #433D5F",
"U. c #433E5E",
"Y. c #443D5C",
"T. c #443F5D",
"R. c #443F5F",
"E. c #9D0B0C",
"W. c #9C0A0D",
"Q. c #9F0A0C",
"!. c #9C0B0E",
"~. c #9D0B0E",
"^. c #9F0A0E",
"/. c #9E0C0D",
"(. c #9E0C0F",
"). c #9D0A10",
"_. c #A0090E",
"`. c #C00B10",
"'. c #C00D10",
"]. c #C10D10",
"[. c #C10C11",
"{. c #C00D11",
"}. c #C10E11",
"|. c #C20E11",
" X c #C00D13",
".X c #C10E12",
"XX c #C20F13",
"oX c #C10E14",
"OX c #FB0102",
"+X c #FC0001",
"@X c #B66A5C",
"#X c #B46A5F",
"$X c #B76B5E",
"%X c #E5AF89",
/* pixels */
";.;.;.;.;.;.;.;.;.;.;.;.;.;.;.;.;.;.;.;.;.;.;.;.;.;.;.;.;.;.;.;.;.;.;.;.;.;.;.;.;.;.;.;.;.;.;.;.;.;.;.;.;.;.;.;.;.;.;.;.;.;.;.;.",
";.;.;.;.;.;.;.;.;.;.;.;.;.;.;.;.;.;.;.;.;.;.;.;.;.;.;.;.;.;.;.;.;.;.;.;.;.;.;.;.;.;.;.;.;.;.;.;.;.;.;.;.;.;.;.;.;.;.;.;.;.;.;.;.",
";.;.;.;.;.;.;.;.;.;.;.;.;.;.;.;.;.;.;.;.;.;.;.;.;.;.;.;.;.;.;.;.;.;.;.;.;.;.;.;.;.;.;.;.;.;.;.;.;.;.;.;.;.;.;.;.;.;.;.;.;.;.;.;.",
";.;.;.;.;.;.;.;.;.;.;.;.;.;.;.;.;.;.;.;.;.;.;.;.;.;.;.;.;.;.;.;.;.;.;.;.;.;.;.;.;.;.;.;.;.;.;.;.;.;.;.;.;.;.;.;.;.;.;.;.;.;.;.;.",
";.;.;.;.;.;.;.;.;.;.;.;.;.;.;.;.;.;.;.;.;.;.;.;.;.;.;.;.;.;.;.;.;.;.;.;.;.;.;.;.;.;.;.;.;.;.;.;.;.;.;.;.;.;.;.;.;.;.;.;.;.;.;.;.",
";.;.;.;.;.;.;.;.;.;.;.;.;.;.;.;.;.;.;.;.;.;.;.;.;.;.;.;.;.;.;.;.;.;.;.;.;.;.;.;.;.;.;.;.;.;.;.;.;.;.;.;.;.;.;.;.;.;.;.;.;.;.;.;.",
";.;.;.;.;.;.;.;.;.;.;.;.;.;.;.;.;.;.;.;.;.;.;.;.;.;.;.;.;.;.;.;.;.;.;.;.;.;.;.;.;.;.;.;.;.;.;.;.;.;.;.;.;.;.;.;.;.;.;.;.;.;.;.;.",
";.;.;.;.;.;.;.;.;.;.;.;.;.;.;.;.;.;.;.;.;.;.;.;.;.;.;.;.;.;.;.;.;.;.;.;.;.;.;.;.;.;.;.;.;.;.;.;.;.;.;.;.;.;.;.;.;.;.;.;.;.;.;.;.",
";.;.;.;.;.;.;.;.;.;.;.;.;.;.;.;.;.;.;.;.;.;.;.;.;.;.;.;.;.;.;.;.;.;.;.;.;.;.;.;.;.;.;.;.;.;.;.( O.;.;.;.;.;.O.;.;.;.;.;.;.;.;.;.",
";.;.;.;.;.;.;.;.;.;.;.;.;.;.;.;.;.;.;.;.;.;.;.;.;.;.;.;.;.;.;.;.;.;.;.;.O.;.;.O.;.;.;.;.;.;.;.;.;.O.;.' ;.;.;.;.;.;.;.;.;.;.;.;.",
";.;.;.;.;.;.;.;.;.;.;.;.;.;.;.;.;.;.;.;.;.;.;.;.;.;.;.;.;.;.;.;.;.;.;.;.;.O.O.;.;.;.;.7.;.;.;.;.;.;.;.O.;.' ;.;.;.;.;.;.;.;.;.;.",
";.;.;.;.;.;.;.;.;.;.;.;.;.;.;.;.;.;.;.;.;.;.;.;.;.;.;.;.;.;.;.;.;.;.;.;.;.;.;.;.;.' ;.;.;.;.;.*.O.;.' ;.;.;.;.;.;.;.;.;.;.;.;.;.",
";.;.;.;.;.;.;.;.;.;.;.;.;.;.;.;.;.;.;.;.;.;.;.;.;.;.O.;.;.;.;.;.;.;.;.;.;.;.;.;.;.;.;.;.' ;.;.;.;.;.r.' ;.w.;.;.;.;.;.;.;.;.;.;.",
";.;.;.;.;.;.;.;.;.;.;.;.;.;.;.;.;.;.;.;.;.;.;.;.;.O.;.;.;.;.;.;.;.;.;.;.;.O.;.;.;.( ;.;.' ;.;.;.' ;.l.;.;.O.;.;.;.;.;.;.;.;.;.;.",
";.;.;.;.;.;.;.;.;.;.;.;.;.;.;.;.;.;.;.;.;.;.;.;.;.;.;.;.;.;.;.;.O.;.O.;.;.;.;.*.;.;.;.;.;.s.;.;.;.O.l.' ;.O.' O.;.;.;.;.;.;.;.;.",
";.;.;.;.;.;.;.;.;.;.;.;.;.;.;.;.;.;.;.;.;.;.;.;.;.;.;.;.;.;.;.;.;.;.;.;.;.;.;.;.;.' ;.;.;.;.;.;.;.l.u.p.;.;.;.;.;.;.;.;.;.;.;.;.",
";.;.;.;.;.;.;.;.;.;.;.;.;.;.;.;.;.;.;.;.;.;.O.;.;.O.;.;.O.;.' ' ' ' O.O.;.;.;.;.;.;.O.;.;.;.;.;.' l.l.l.' ;.;.O.;.;.;.7.;.;.( O.",
";.;.;.;.;.;.;.;.;.;.;.;.;.;.;.;.;.;.;.;.;.;.;.;.;.;.' O.;.;.;.;.;.;.;.;.;.;.;.;.;.O.O.;.;.;.;.' ;.l.[.l.s.;.;.;.;.;.;.;.;.;.O.O.",
";.;.;.;.;.;.;.;.;.;.;.;.;.;.;.;.;.;.;.;.;.O.;.O.;.;.O.O.;.;.;.B B z B ;.;.;.' ;.;.;.;.;.;.O.' ;.l.l.[.[.l.l.;.' ;.;.;.;.;.;.O.O.",
";.;.;.;.;.;.;.;.;.;.;.;.;.;.;.;.;.;.;.;.;.;.;.;.;.;.O.;.;.O.p p H.H.L # ;.;.;.;.' ( O.7.;.;.;.;.l.l.oX[.l.p.7.;.;.;.;.;.;.;.O.O.",
";.;.;.;.;.;.;.;.;.;.;.;.;.;.;.;.O.;.O.O.O.;.O.;.;.' O.;.;.B B T.w q w L @ O.;.;.;.O.;.O.;.;.;.l.l.[.[.[.l.x.;.O.;.;.;.;.O.O.O.O.",
";.;.;.;.;.;.;.;.;.;.;.;.;.;.;.;.O.;.O.;.O.;.;.;.;.;.;.;.O.z H.w q i w z L 3 ;.;.;.;.O.' ;.O.l.l.[.[.[.[.[.l.l.' ;.;.;.;.;.O.O.O.",
";.;.;.;.;.;.;.;.;.;.;.;.;.;.;.;.;.;.;.;.;.;.;.;.;.;.;.*.p 9 H.w +Xw z OXS 3 ;.;._ ;.O.;.;.l.l.[.m.y.E.E.[.[.l.x.;.;.;.;.;.O.O.O.",
";.;.;.;.;.;.;.;.;.;.;.;.;.;.;.;.;.;.;.;.;.;.;.;.O.;.;.;.z z H.i w w z p L @ ;.;.O.' ;.;.' l.[.V.m.m.E.E.E.[.l.l.;.;.;.;.;.;.O.O.",
";.;.;.;.;.;.;.;.;.;.;.;.;.;.;.;.;.;.;.O.O.;.;.H.' *.' ;.z z H.w w z p z S 3 ;.' ;.;.O.;.' l.[.m.y.E.5 E.E.[.l.b.O.;.;.;.O.;.;.( ",
";.;.;.;.;.;.;.;.;.;.;.;.;.;.;.;.;.;.;.;.;.O.' L.H.7.O.% z z L.L z z z L z T.7.3 O.*.;.;.;.b.[.m.E.E.. 3 m.[.l.;.;.;.;.;.;.*.;.;.",
";.;.;.;.;.;.;.;.;.;.;.;.;.;.;.;.;.O.;.;.;.O.;.L L.C L L = p z H.L.L L m # p # B ' ;.;.' ;.l.[.[.m.E.E.m.m.[.l.O.;.;.;.;.;.;.;.;.",
";.;.;.;.;.;.;.;.;.;.;.;.;.;.;.;.;.;.;.;.O.;.*.L.L H.L.z L H.3 z z z z 3 H.3 z z 3 ;.' ;.;.l.Z.[.5 m.E.E.`.[.l.;.O.;.;.;.;.;.;.;.",
";.;.;.;.;.;.;.;.;.;.;.;.;.;.;.;.;.O.;.O.;.O.*.z H.z L H.L L p H.@ z # H.z 3 p 3 B ;.7.( ;.' s.l.@ @ m.m.[.C.l.;.;.;.O.;.;.;.;.O.",
";.;.;.;.;.;.;.;.;.;.;.;.;.;.;.;.;.;.' O.;.;.L.L z L L.S.z E.L L 7 L H.z z # B z 3 @ ;.O.' ;.;.l.@ 3 [.[.l.l.;.;.O.;.;.;.;.;.;.;.",
";.;.;.;.;.;.;.;.;.;.;.;.;.;.;.;.;.;.;.;.;.;.L L L p L.z z p /.).L H.p p m.. @ z z z ( ;.;.;.O.;.3 3 [.l.l.O.;.;.;.;.;.;.;.;.;.;.",
";.;.;.;.;.;.;.;.;.;.;.;.;.;.;.;.;.;.;.;.;.;.z L z L z z E.L L z E.L L.m.z B 3 3 @ z ;.' O.O.;.;.3 ;.t.;.;.;.;.;.;.;.O.;.;.;.;.;.",
";.;.;.;.;.;.;.;.;.;.;.;.;.;.;.;.' ;.;.O.O.;.O.p L z L L z _.L L S E.V.z z V.;.z 3 z @ ;.;.( ;.3 3 ;.;.| ;.;.;.;.;.;.;.;.;.;.;.;.",
";.;.;.;.;.;.;.;.;.;.;.;.;.;.;.;.;.;.O.;.;.' O.L p z z ;.L p E./.L L H.p V.' ;.;.z 3 H.H.' ;.;.@ 3 ;.7.;.;.;.;.;.;.;.;.;.;.;.;.;.",
";.;.;.;.;.;.;.;.;.;.;.;.;.;.;.;.O.;.O.;.;.;.;.9 L p ;.O.;.L L z E.S S m.z ;.' ;.= L S L L.;.| = 3 ;.' ;.O.O.;.;.;.;.;.;.;.;.;.;.",
";.;.;.;.;.;.;.;.;.;.;.;.;.;.;.;.;.O.;.;.( ;.z H.z H.;.;.;.z L L z ).m.z ;.;.;.;.;.L L L L.O.;.= % ;.O.;.;.;.;.;.;.;.;.;.;.;.;.;.",
";.;.;.;.;.;.;.;.;.;.;.;.;.;.;.;.;.*.#X' ;.m L B H.L ;.;.;.' p L L B p z ;.;.;.;.;.;.L L L S ;.= ' ;.;.;.;.;.;.;.;.;.;.;.;.;.;.;.",
";.;.;.;.;.;.;.;.;.;.;.;.;.;.;.;.;.#X%X#X;.L z H.L ;.;.;.;.;.E.z L.z z m.3 ;.' ;.;.O.L.L L L ;.3 O.;.*.;.;.;.;.;.;.;.;.;.;.;.;.;.",
";.;.;.;.;.;.;.;.;.;.;.;.;.;.;.;.O.;.#X7.;.S z C O.O.;.' ;.z L E./.A.y.3 # 3 ' O.;.| T.H.L H.@ 3 ;.' ;.;.;.;.;.;.;.;.;.;.;.;.;.;.",
";.;.;.;.;.;.;.;.;.;.;.;.;.;.;.;.;.O.;.;.S H.T.S ;.;.;.;.p L L m z 3 = @ @ 3 ;.;.;.;.;.L S ~ 9 L ;.;.' ;.;.;.;.;.;.;.;.;.;.;.;.;.",
";.;.;.;.;.;.;.;.;.;.;.;.;.;.;.;.;.p ( L T.p L ;.' ;.;.z p L p L L.3 z z z 3 ;.O.;.;.;.;.H.H.^ p O.;.;.;.;.;.;.;.;.;.;.;.;.;.;.;.",
";.;.;.;.;.;.;.;.;.;.;.;.;.;.;.;.;.S p H.z L ;.O.;.;.0 L K p L z 3 p p L z 3 3 ;.*.;.;.;.O.p z S ;.;.;.O.;.;.;.;.;.;.;.;.;.;.;.;.",
";.;.;.;.;.;.;.;.;.;.;.;.;.;.;.;.;.L L z L ' O.( ;.O.z L p p L H.3 z L B z z 3 O.O.;.;.;.;.;.3 O.;.;.;.;.;.;.;.;.;.;.;.;.;.;.;.;.",
";.;.;.;.;.;.;.;.;.;.;.;.;.;.;.;.| ;.L S ;.;.*.;.;.p p z K p L 3 z L L z z z 3 3 ;.;.;.;.;.;.3 ;.;.;.;.;.;.O.;.;.;.;.;.;.;.;.;.;.",
";.;.;.;.;.;.;.;.;.;.;.;.;.;.;.;.;.O.;.;.;.;.;.' z L B z L z z 3 z z z B z z @ # ;.O.7.;.;.;.= ;.;.;.;.;.;.;.;.;.;.;.;.;.;.;.;.;.",
";.;.;.;.;.;.;.;.;.;.;.;.;.;.;.;.;.;.;.;.;.;.;.;.p z ~ z L z H.V # z z L z z z = ( ;.;.7.;.3 O.;.;.;.;.;.;.;.;.;.;.;.;.;.;.;.;.;.",
";.;.;.;.;.;.;.;.;.;.;.;.;.;.;.;.;.;.;.;.*.t.;.*.B z S z z L.z L 3 z S L ~ z z 3 O.O.' O.;.3 ' ;.;.;.O.;.;.;.;.;.;.;.;.;.;.;.;.;.",
";.;.;.;.;.;.;.;.;.;.;.;.;.;.;.;.;.;.;.;.;.;.;.;.B K z z H.z Z 7.. z L ;.L L z 3 ;.;.;.;.O.3 ;.7.;.;.;.;.;.;.;.;.;.;.;.;.;.;.;.;.",
";.;.;.;.;.;.;.;.;.;.;.;.;.;.;.;.;.;.;.;.;.;.;.;.;.7 z H.z H.Q ;.= z ;.;.S L L = ;.;.;.;.;.3 ;.;.;.;.;.;.;.;.;.;.;.;.;.;.;.;.;.;.",
";.;.;.;.;.;.;.;.;.;.;.;.7.7.;.;.;.;.;.;.;.;.;.7.;.;.z L.z L z ;.O.3 w.L ~ @ S 3 ;.;.;.;.;.3 ;.O.;.;.;.;.;.;.;.;.O.;.;.;.;.;.;.;.",
";.;.;.;.;.7.;.;.;.;.;.7.;.;.;.;.7.;.;.;.;.;.;.;.;.z z L L z 7.;.;.;.;.L 3 z @ L 7.;.;.;.3 7.;.;.;.;.;.;.;.;.;.;.;.;.;.;.;.;.;.;.",
";.;.;.;.;.;.;.;.;.;.;.7.;.;.;.;.7.;.;.;.;.;.;.;.;.z L S L z *.;.;.;.3 . z z 3 L ;.;.;.;.3 ;.*.;.;.;.;.;.;.;.;.;.;.;.;.;.;.;.;.;.",
";.;.;.;.;.;.;.;.;.;.;.;.;.;.;.;.7.7.;.;.;.;.;.;.m S L L p z ' *.w.;.# z B 3 = 3 t.;.;.;.= ;.;.;.;.;.;.;.;.;.;.;.O.;.;.;.;.;.O.;.",
";.;.;.;.;.;.;.;.;.;.;.;.;.;.;.;.;.;.;.;.;.;.7.;.z L L z z O.7.;.;.;.7 B 3 3 # @ ;.;.*.' @ ;.;.;.;.;.;.;.;.;.;.;.;.;.;.;.;.;.;.;.",
";.;.;.;.7.;.;.;.;.;.;.;.;.;.;.;.;.;.;.;.;.;.7.;.;.B L p z | 7.7.w.;.;.# 3 @ 3 ;.7.w.;.;.3 ;.;.;.;.;.;.;.;.;.;.;.7.;.;.;.;.;.;.;.",
";.;.;.7.7.;.;.;.;.;.;.;.7.;.;.;.;.;.;.;.;.;.;.;.;.S p z ;.O.;.*.;.7.@ @ 3 3 *.;.;.;.7.= ;.*.;.;.;.;.;.;.;.;.;.;.;.;.;.;.;.;.;.;.",
";.;.;.;.;.;.;.;.;.;.;.;.;.;.;.;.;.;.;.;.;.7.7.*.L S z ;.;.| ;.;.*.;.= > 3 ;.w.;.;.;.;.5 ;.;.w.7.;.;.;.;.;.;.;.7.;.;.;.;.;.;.;.;.",
"7.;.;.;.;.;.;.;.;.;.;.;.;.;.7.7.;.;.;.;.;.*.;.;.L L p ;.;.;.;.7.;.7.= 3 # ;.*.;.;.;.;.3 w.;.;.7.;.;.;.;.;.;.;.7.;.;.;.;.;.;.;.;.",
";.;.;.;.7.7.;.;.;.;.7.;.;.;.;.;.;.;.;.;.;.;.;.*.L z z ;.7.| ;.;.;.;.*.3 3 ;.;.*.;.;.;.w.7.*.*.;.;.;.;.7.;.;.;.;.;.;.;.;.;.;.;.;.",
";.;.;.;.;.;.;.;.;.;.;.;.;.;.;.;.;.7.7.;.;.;.7.S L p z ;.;.;.;.;.w.;.;.@ z z r.7.;.;.;.;.7.;.;.;.;.;.;.;.;.;.;.;.;.;.;.;.;.7.;.;.",
";.;.;.;.;.;.;.;.;.;.;.;.;.;.;.;.;.;.;.;.;.;.;.A z p ;.;.;.7.;.;.;.;.*.w.B z ;.;.7.;.;.;.;.;.;.;.;.;.;.;.;.;.;.;.7.7.;.;.;.;.;.;.",
"7.7.;.;.;.;.;.;.;.;.;.;.;.;.;.7.;.;.;.;.;.;.;.L z z 7.7.;.;.w.;.;.;.*.;.;.p 7.*.;.;.;.w.;.*.;.;.;.;.;.7.;.;.7.;.;.;.;.;.7.7.;.;.",
";.;.;.;.7.;.;.;.;.;.;.;.;.;.;.7.;.;.w.;.;.;.;.Q z p ;.;.;.;.;.;.;.;.;.;.;.r.;.;.;.r.;.;.;.*.;.;.;.;.;.7.;.;.;.;.;.;.;.;.;.;.;.;.",
";.;.;.;.7.;.;.;.;.;.7.7.;.;.;.;.;.;.;.;.;.7.;.7.z 7.7.;.;.;.,.w.;.;.;.O.;.;.;.;.;.;.;.;.;.;.;.;.;.;.;.7.;.;.;.;.;.;.;.;.;.;.;.;."
};
