/* XPM */
static char *rcp062013846174[] = {
/* columns rows colors chars-per-pixel */
"64 64 48 1 ",
"  c #07060D",
". c #09070E",
"X c #07080D",
"o c #09090E",
"O c #090712",
"+ c #070A11",
"@ c #090810",
"# c #13111F",
"$ c #140F22",
"% c #051623",
"& c #061925",
"* c #081A26",
"= c #141122",
"- c #1F2233",
"; c #1F2138",
": c #212234",
"> c #222238",
", c #2E3434",
"< c #333436",
"1 c #363837",
"2 c #343538",
"3 c #343839",
"4 c #670D0E",
"5 c #690E0D",
"6 c #770A0D",
"7 c #790B0D",
"8 c #660E11",
"9 c #680E11",
"0 c #790A10",
"q c #691012",
"w c #423D5C",
"e c #44415E",
"r c #9E0A0D",
"t c #8A130F",
"y c #9F0D10",
"u c #861213",
"i c #8A1214",
"p c #A00B0E",
"a c #BF0E11",
"s c #C00D11",
"d c #C31014",
"f c #FD0101",
"g c #B56A5D",
"h c #B56A60",
"j c #E5AF8C",
"k c #E5B18C",
"l c #E8B08D",
"z c #FFF0DD",
/* pixels */
"<<<<<<<<<<<<<<<<<<<<<<<<<<<<<<<<<<<<<<<<<<<<2<<<<<<<<<<<<<<<<<<<",
"<<<<<<<<<<<<<<<<<<<<<<<<<<<<<<<<<<<<<<<<2<<<<<<<<2<<2<<<<<<<<<<<",
"<<<<<<<<<<<<<<<<<<<<<<<<<<<<<<<<<<<<<<<<<<<<<<<<2<<2<2<<<<<<<<<<",
"<<<<<<<<<<<<<<<<<<<<<<<<<<<<<<<<<<<<<<<<<<<<<<<2<<<<2<<<<<<<<<<<",
"<<<<<<<<<<<<<<<<<<<<<<<<<<<<<<<<<<<<<<<<<<<<<<<2<<<<<<<<<<<<<<<<",
"<<<<<<<<<<<<<<<<<<<<<<<<<<<<<<<<<<<<<<<<<<<<<<<6<<<<2<<<<<<<<<<<",
"<<<<<<<<<<<<<<<<<<<<<<<<<<<<<<<<<<<<<<<<<<<<<<<6<<22<<<<<<<<<<<<",
"<<<<<<<<<<<<<<<<<<<<<<<<<<<<<<<<<<<<<<<<<<<2<<<<<<<22<<<<<<<<<<<",
"<<<<<<<<<<<<<<<<<<<<<<<<<<<<<<<<<2<2<<<<<<<<<<<<<2<<<<<<<<<<<<<<",
"<<<<<<<<<<<<<<<<<<<<<<<<<<<<<<<<<2<<<<<<<<<2<<<<<7<<<<<<<<<<<<<<",
"<<<<<<<<<<<<<<<<<<<<<<<<2<<<<<<<<<<<<2<<<<<<<222<662<<<<<<<<<<<<",
"<<<<<<<<<<<<<<<<<<<<<<<<2<<<<<<<<<<<<<2<<<2<<<<<666<<22<<<<<<<<<",
"<<<<<<<<<<<<<<<<<<<<<<<<<<<<<<<2<<<<2<<<<<<2<<<<007<<22<<<<<<<<<",
"<<<<<<<<<<<<<<<<<<<<<<<<<<<<<<====<<2<<<<<<<<<<76s7<<<6<<<<<<<<<",
"<<<<<<<<<<<<<<<<<<<<<<<<2<<<<==ww:o<<<<<<2<<<<s0ss66<<6<<<<<<<<<",
"<<<<<<<<<<<<<<<<<<<<<<<<<<2<==w&*%: <<<<<<<<27sssss6<2<<<<<<<<<<",
"<<<<<<<<<<<<<<<<<<<<<<<22<<2=w&&&&=:O<2<<<<,26ss6asa62<<<<<<<<<<",
"<<<<<<<<<2<<<<<2<<<<<<2<<<<==w%f&=f:@<2<<<<66ds99rrss6<<<<<<<<<<",
"<<<<<<<<<22<<<2<<<<<<<<<22<=#w&&&==:.<<<<<<66a898rrrs7<2<2<<<<<<",
"<<<<<<<<<2<<<<<<<<<<<<w<<2<==w&&===:@<<<<<<20s8qroprs6<<<2<<<<<<",
"<<<<<<<<<<2<<<<<<<<<<<ww<<.==w:===:=w<@<2<<<6s8rr..8s7<<<2<<<<<<",
"<<<<<<<<<<<<2<<2<<<<<<-w:-:@==ww::=o=@=<<2<<76s9rp98s6<<2<<<2<<2",
"<<<<<<<<<2<<<2<t2<2<<2w:ww=:w@====ow@==O<<<<<66@4yrs62<<<<<<<<<<",
"<<<<<<<<2<<<<<ui<<2<<<=w=:w::=w.=@w=o=@=<<<<<<6.o887<<<<<<<<<<<<",
"<<<<<<<<<<<<<<iui2<2<w:=:ww=r::=:w==.==XO<<<<<<@.667<<<<<<<<<<<<",
"<<<<<<<<<<<<2iiuiu2<<:::=w===rr:w==8@@===2<<2<<@.762<<<2<<<<<<<<",
"<<<<<<<<<<<<iiiiiii<<=:=:==r::=r:w4#=O@@=<<<<2<@<<<<<<<<<<<<<<<<",
"<<<<<<<<<<<<iihkzzui<<=:=::=p:::r8==9<=O$.<<<<oO<<<<<<<<<<<<<<<<",
"<<<<<<<<<<<iihjzzjhi<<:===<:=rr::w=8<<<=@ww<<<@@<<<<<<<<<<<<<<<<",
"<<<<<<<<<<<iigj@hgOi<<=:=<<<::=r:-4=<<<@;::w<<@O<<<<<<<<<<<<<<<<",
"<<<<<<<<<<<2ihhgjjgi<=w=w<<<=::=r8=<<<<<:>:w<<@O<<<<<<<<<<<<<<<<",
"<<<<<<<<<<<<iigjlgi2=:=e:<<<<=::#==<<<<<<::::<o22<<<2<<<<<<<<<<<",
"<<<<<<<<<<<<<iihjgi<:#w:<<<<<r=w==5@<<<<<w-::<.<<<<<<<<<<<<<<<<<",
"<<<<<<<<<<<<<<<iii<w:=:<<<2<=:rr88@@.<<<<ww:w@@<<<<<<<<<<<<<<<<<",
"<<<<<<<<<<<<<<<<<2<:ww:<22<=::==..@@@<<<<<:::=:<<<<<<<<<<<<<<<<<",
"<<<<<<<<<<<<<<2<=<:w=:<2<2==-=:w@===.<<<<<<ww:=2<<<<<<<<<<<<<<<<",
"<<<<<<<<<2<<<<<<:=w=:<<2<=:-=:=@==:=@@<<<<<<=$:<<<<<<<<<<<<<<<<<",
"<<<<<<<<<<<<<<<<::=:<<<2<=:==:wO$-===O<<<<<<<.<<<<<<<<<<<<<<<<<<",
"<<<<<<<<<<<<<<<<<::<<<<<==#:=:@=::===@o2<<2<<.2<<<<<<<<<<<<<<<<<",
"<<<<<<<<<<<<<<<<<<<<<<<$:==:==@======.o<<2<<<@<<<<<<<<<<<<<<<<<<",
"<<<<<<<<<<<<<<<<<<<<<<<==:=:=w=.==:===@<<222@<2<<<<<<<<<<<<<<<<<",
"<<<<<<<<<<<<<<<<<<<2<<<==:==w=:@=:::==@<<2<2@<<<<<<<<<<<<<<<<<<<",
"<<<<<<<<<<<<<<<<<<<<<<<=:==w=:<.=:2::=@<<22<O<<<<<<<<<<<<<<<<<<<",
"<<<<<<<<<<<<<<<<2<<<<<<<==w=w:< =<<>::o<<<<2O<<<<<<<<<<<<<<<<<<<",
"<<<<<<<<<<<<<<<<<<<<<<<<<=w=:=<<@<::@:@<2<<<O<<<<<<<<<<<<<<<<<<<",
"<<<<<<<<<<<<<<<<<<<<<<<<==::=<<<<<:@=@:2<<<@<<2<<<<<<<<<<<<<<<<<",
"<<<<<<<<<<<<<<<<<<<<<<22=:::=<<2<@.==@>22<<@2<2<<<<<<<<<<<<<<<<<",
"<<<<<<<<<<<<<<<<<<<<2<<=:::==<<<1@==@.o<<<<@<2<<<<<<<<<<<<<<<<<<",
"<<<<<<<<<<<<<<<<2<<<<<<=::#=<22<2==+.o@<<<<@2<<<<<<<<<<<<<<<<<<<",
"<<<<<<<<<<<<<<<<<<<<<<2<=:==<2<<<<@OOO222<<@<<2<<<<<<<<<<<<<<<<<",
"<<<<<<<<<<<<<<<<<<2<<2<<:==<<22<<@@@.<2<<<O<<2<<<<<<<<<<<<<<<<<<",
"<<<<<<<<<<<<<<<<<2<<<<<::=<2<<<<<o@@<2<2<<O<<<<2<<<<<<<<<<<<<<<<",
"<<<<<<<<<<<<<<<<<<<<22<:>=2<<<2<<@O@2<<<<<o<2<2<<<<<<<<<<<<<<<<<",
"<<<<<<<<<<<<<<<<<<<<<<<-==<22<<<<2.O22<<<22<<<<<<<<<<<<<<<<<<<<<",
"<<<<<<<<<<<<<<<<<<2<<2-:==<<<<<<<<@==2<<<<<<<<<<<<<<<<<<<<<<<<<<",
"<<<<<<<<<<<<<<<<<<<<<<-==<<<<<<2<<<==<<<<<<2<<<<<<<<<<<<<<<<<<<<",
"<<<<<<<<<<<<<<<<<<<<2<-==22<<<2<<<<<$<<<<<<<<<<<<<<<<<<<<<<<<<<<",
"<<<<<<<<<<<<<<<<<<<2<<:==<<2<<2<2<<2<<<<<<<<<<<<<<<<<<<<<<<<<<<<",
"<<<<<<<<<<<<<<<<2<<<<<<=3<<<<<<22<22<<<<<<<<<<<<<<<<<<<<<<<<<<<<",
"<<<<<<<<<<<<<<<<<<2<<2<2<<<<22<2<22<<<<<<<<<<<<<<<<<<<<<<<<<<<<<",
"<<<<<<<<<<<<<<<<<<<<<2<<<<<<2<22<<<<<<<<<<<<<<<<<<<<<<<<<<<<<<<<",
"<<<<<<<<<<<<<<<<<<<<<2<<<<2<<<222<<2<<<2<<<<<<<<<<<<<<<<<<<<<<<<",
"<<<<<<<<<<<<<<<2<<<<<222<<<2<2<<<2<<<<<<<<<<<<<<<<<<<<<<<<<<<<<<",
"<<<<<<<<<<<<<<<2<<<<<<<<<2<<<2<<<<<<<<<<<<<<<<<<<<<<<<<<<<<<<<<<"
};
