/* XPM */
static char *rcp06442048581725[] = {
/* columns rows colors chars-per-pixel */
"64 64 91 1 ",
"  c #04040A",
". c #08070D",
"X c #07080D",
"o c #0D0D14",
"O c #0E0E19",
"+ c #130D16",
"@ c #1B0C14",
"# c #110F1B",
"$ c #0F1014",
"% c #0F101B",
"& c #101114",
"* c #13131C",
"= c #1B131D",
"- c #191A1F",
"; c #220D13",
": c #2A0D15",
"> c #250F18",
", c #350D13",
"< c #3B0C12",
"1 c #22111B",
"2 c #2A131C",
"3 c #35161E",
"4 c #3E131B",
"5 c #321D1E",
"6 c #161621",
"7 c #191522",
"8 c #1B1B24",
"9 c #1E1D29",
"0 c #231C24",
"q c #2B1A24",
"w c #201E2C",
"e c #311C27",
"r c #381821",
"t c #3C1D29",
"y c #212127",
"u c #23232C",
"i c #2A272D",
"p c #27282D",
"a c #28292E",
"s c #342022",
"d c #32202B",
"f c #3D2B2C",
"g c #252532",
"h c #292734",
"j c #2C2C33",
"k c #282739",
"l c #2E2B3A",
"z c #332432",
"x c #3C2632",
"c c #342E3E",
"v c #3A2D3C",
"b c #2F3035",
"n c #333436",
"m c #3C3233",
"M c #343439",
"N c #500A0F",
"B c #460E14",
"V c #4C0F14",
"C c #550E15",
"Z c #5B0C11",
"A c #441116",
"S c #44141B",
"D c #4C1519",
"F c #4D1A1C",
"G c #541017",
"H c #591217",
"J c #541218",
"K c #680708",
"L c #650C16",
"P c #681011",
"I c #68181C",
"U c #711B1B",
"Y c #4F1E22",
"T c #531723",
"R c #551B20",
"E c #591822",
"W c #611923",
"Q c #681E22",
"! c #4F2626",
"~ c #472D2E",
"^ c #5A2B2B",
"/ c #4C2633",
"( c #432C34",
") c #712524",
"_ c #76272D",
"` c #7C242A",
"' c #2E2F41",
"] c #362F40",
"[ c #363040",
"{ c #912F35",
"} c #982C32",
/* pixels */
"nnnnnnnnnnnnnnnnnnnnnnnnnnnnnnnnnnnnnnnbbbnnnnnnnnnnnnnnnnnnnnnn",
"nnnnnnnnnnnnnnnnnnnnnnnnnnnnnnnnnnnnnnnbbbnnnnnnnnnnnnnnnnnnnnnn",
"nnnnnnnnnnnnnnnnnnnnnnnnnnnnnnnnnnnnnnnnnnnnnnnnnnnnnnnnnnnnnnnn",
"nnnnnnnnnnnnnnnnnnnnnnnnnnnnnnnnnnnnnnnnnnnnnnnnnnnnnnnnnnnnnnnn",
"Mnnnnnnnnnnnnnnnnnnnnnnnnnnnnnnnnnnnnnnnnnnnnnnnnnnnnnnnnnnnnnnn",
"Mnnnnnnnnnnnnnnnnnnnnnnnnnnnnnnnnnnnnnnnnnnnnnnnnnnnnnnnnnnnnnnn",
"nnnnnnnnnnnnnnnnnnnnnnnnnnnnnnnnnnnnnnnnnnnnnnnnnnnnnnnnnnnnnnnn",
"Mnnnnnnnnnnnnnnnnnnnnnnnnnnnnnnnnnnnnnnnnnnnnnnnnnnnnnnnnnnnnnnn",
"MMnnnnnnnnnnnnnnnnnj88888888888annnnnnnnnnnnnnnnnnnnnnnnnnnnnnnn",
"nnnnnnnnnnnMnnnnny88***********-88bnnnnnnnnnnnnnnnnnnnnnnnnnnnnn",
"nnnnnnnnnnnnnMu88jlllcu86666666----annnnnnnnnnnnnnnnnnnnnnnnnnnn",
"nnnnnnnnMMMMMwgccMc[[[Mh96666666666*8nnnnnnnnnnnnnnnnnnnnnnnnnnn",
"nnnnnnnMMMMj8cccMM[[[[[Mlw866666666*8nnnnnnnnnnnnnnnnnnnnnnnnnnn",
"nnnnnnnnnMu9Mcc[[[[[[[[[cw8666666666**nnnnnnnnnnnnnnnnnnnnnnnnnn",
"nnnnnnnnnnuwMM[[]]c[[[[[cu8666666666*-nnnnnnnnnnnnnnnnnnnnnnnnnn",
"nnnnnnnnM8uMcc[[][]][[[[[[9666666666**jnnnnnnnnnnnnnnnnnnnnnnnnn",
"nnnnnnnMM8u][[[[]]c[[[[[[[96666666666-ounnnnnnnnnnnnnnnnnnnnnnnn",
"nnnnnnnnjuh[MM[[Mcc[[[cMcl86666666666-ounnnnnnnnnnnnnnnnnnnnnnnn",
"nnnnnnnj-lM[MM[[MM[[[[cclw76666666666-opnnnnnnnnnnnnnnnnnnnnnnnn",
"nnnnnnnj6lMc[[cvvzzxvvcMl966666666666-ounnnnnnnnnnnnnnnnnnnnnnnn",
"MMnnnnnj7lMc[[vvt4EWT(vlu666666666666-ounnnnnnnnnnnnnnnnnnnnnnnn",
"MMMnnnnj7l]][[vx4G{}L/vj9666666666666-opnnnnnnnnnnnnnnnnnnnnnnnn",
"nnnMMnMj7l]][[vx3A_`C/zw766666666666**jnnnnnnnnnnnnnnnnnnnnnnnnn",
"nnnMMMMj7lcc[[vvxrSD4e86666666666666*O*-*8MMMMMnnnnnnnnnnnnnnnnn",
"nnnMMMMb6lM][][cvvdqq76666666666666**6----8*uMMMnnnnnnnnnnnnnnnn",
"nnnMMMMb69h[]][lw777*O*666666666666666666-OoO#*jMMnnnnnnnnnnnnnn",
"MnnnnnMn699www8667==++*666666666666666666666666*o8nnMnnnnnnnnnnn",
"Mnnnnnnb---==7===122;+*666666666666666666669hMMg8**bnnnnnnnnnnnn",
"MMMnnnnb8==1111123,,:=766666666%*-666666**668gc[h8*bnnnnnnnnnnnn",
"MMnnnnnMM0:<B<,<AAA,:=76666666OO*666666666O*68wl[h-pnMnnnnnnnnnn",
"MnnnnnnnMsDPKZCHIN,>=66666666***66666666666#*69k'lg*aMnnnnnnnnnn",
"Mnnnnnnnn(^)UQJVR<:=666666****6666666668766**669k[l*aMnnnnnnnnnn",
"Mnnnnnnnnm~!FRS,>==-666***86*666668888887666*#68klg*aMnMMMnnnnnn",
"Mnnnnnnnnnmf5;;@+******8uuny%68889hhg9866666*O66uu6yjMnnnnnnnnnn",
"MnnnnnnnnnnnnaiiaaaappajMMMy*9hlllMjw8666666**666-*bMnnnnnnnnnnn",
"nnnnnnnnnnnnnnnnnnnnnMMnnnnby*6688986666666*OO*66**bMMnnnnnnnnnn",
"nnnnnnnnnnnnnnnnnnnnnnnnnnnMpoOO*66666666*O*66666**bMMnnnnnnnnnn",
"MMnnnnnnnnnnnMnnnnnnnnnnnnnMpo*-666666666699999866-*aMnnnnnnnnnn",
"MMMnnnnnnnnnnMMMnnnnnnnnnnnMnb**6666666669[g88uw889*aMnnnnnnnnnn",
"MnnnnnnnnnnnnnnnnnnnnnnnnnnMnb-*66666666gh-**9c88gl*jMMnnnnnnnnn",
"Mnnnnnnnnnnnnnnnnnnnnnnnnnnnnj-89666666688ohy9M86ul*jMMnnnnnnnnn",
"MnnnnnnnnnMMMnnnnnnnnnnnnnnMj--gj97689666*-jMnh*uMh*aMnnnnnnnnnn",
"MnnnnnnnnnnMMnnnnnnnnnnnnnnnj66uh9888866uj-jjy*8uy*8jMnnnnnnnnnn",
"MnnnnnnnnnnnnnnnnnnnnnnnnnMjy6689989866-unMa8*8u8-8nMMnnnnnnnnnn",
"MnnnnnnnnnnnnnnnnnnnnnnnnnMu-6666666666-unMu8uny8uMMnnnnnnnnnnnn",
"MnnnnnnnnnnnnnnnnnnnnnnnnnMu-6666666666*ynnnnnMMnnnnnnnnnnnnnnnn",
"MnnnnnnnnnnnnnnnnnnnnnnnnnMy*66666666-*8jnnnnnnnnnnnnnnnnnnnnnnn",
"MnnnnnnnnnnnnnnnnnnnnnnnnnMy*66666666-ounnnnnnnnnnnnnnnnnnnnnnnn",
"MnnnnnnnnnnnnnnnnnnnnnnnnnMy*66689666-opnnnnnnnnnnnnnnnnnnnnnnnn",
"MnnnnnnnnnnnnnnnnnnnnnnnnnMnu6668986*-jnnnnnnnnnnnnnnnnnnnnnnnnn",
"MnnnnnnnnnnnnnnnnnnnnnnnnnnnaO68996*8nnnnnnnnnnnnnnnnnnnnnnnnnnn",
"MnnnnnnnnnnnnnnnnnnnnnnnnnnMpo-8u9*unnnnnnnnnnnnnnnnnnnnnnnnnnnn",
"Mnnnnnnnnnnnnnnnnnnnnnnnnnnnnj**898*8bnnnnnnnnnnnnnnnnnnnnnnnnnn",
"Mnnnnnnnnnnnnnnnnnnjjjj8       o*86-*o      8jjjjnnnnnnnnnnnnnnn",
"Mnnnnnnnnnnnnnnnnn8&&&.          oooooo      X&&$8nnnnnnnnnnnnnn",
"MnnnnnnnnnnnnnnnnnnnnM8****&****&&&**********8MMMnnnnnnnnnnnnnnn",
"MnnnnnnnnnnnnnnnnnnnnnMMMMnnnnnnnnnnnnnnnnMMMnnnnnnnnnnnnnnnnnnn",
"Mnnnnnnnnnnnnnnnnnnnnnnnnnnnnnnnnnnnnnnnnnnnnnnnnnnnnnnnnnnnnnnn",
"Mnnnnnnnnnnnnnnnnnnnnnnnnnnnnnnnnnnnnnnnnnnnnnnnnnnnnnnnnnnnnnnn",
"Mnnnnnnnnnnnnnnnnnnnnnnnnnnnnnnnnnnnnnnnnnnnnnnnnnnnnnnnnnnnnnnn",
"Mnnnnnnnnnnnnnnnnnnnnnnnnnnnnnnnnnnnnnnnnnnnnnnnnnnnnnnnnnnnnnnn",
"Mnnnnnnnnnnnnnnnnnnnnnnnnnnnnnnnnnnnnnnnnnnnnnnnnnnnnnnnnnnnnnnn",
"Mnnnnnnnnnnnnnnnnnnnnnnnnnnnnnnnnnnnnnnnnnnnnnnnnnnnnnnnnnnnnnnn",
"nnnnnnnnnnnnnnnnnnnnnnnnnnnnnnnnnnnnnnnnnnnnnnnnnnnnnnnnnnnnnnnn"
};
