/* XPM */
static char *rcp06184448780445[] = {
/* columns rows colors chars-per-pixel */
"64 64 216 2 ",
"   c #07060C",
".  c #07060E",
"X  c #09070C",
"o  c #09060D",
"O  c #08070D",
"+  c #09060F",
"@  c #08070F",
"#  c #0A070E",
"$  c #09080D",
"%  c #09080E",
"&  c #070711",
"*  c #080611",
"=  c #0A0710",
"-  c #090712",
";  c #0A0712",
":  c #0C0610",
">  c #0D0711",
",  c #090714",
"<  c #080810",
"1  c #090810",
"2  c #090911",
"3  c #0B0811",
"4  c #0A0911",
"5  c #110E1F",
"6  c #13111E",
"7  c #12111F",
"8  c #13111F",
"9  c #140F23",
"0  c #170F24",
"q  c #051924",
"w  c #061824",
"e  c #071925",
"r  c #061A25",
"t  c #071927",
"y  c #081A26",
"u  c #081828",
"i  c #131021",
"p  c #121121",
"a  c #131220",
"s  c #131023",
"d  c #121123",
"f  c #111322",
"g  c #131222",
"h  c #151120",
"j  c #141021",
"k  c #141220",
"l  c #141122",
"z  c #151122",
"x  c #171022",
"c  c #151223",
"v  c #161223",
"b  c #121025",
"n  c #131025",
"m  c #131224",
"M  c #151024",
"N  c #141124",
"B  c #161324",
"V  c #141126",
"C  c #181123",
"Z  c #1F2032",
"A  c #1F2233",
"S  c #1E2134",
"D  c #1F2235",
"F  c #1F2437",
"G  c #202133",
"H  c #222133",
"J  c #202332",
"K  c #212332",
"L  c #242333",
"P  c #202430",
"I  c #202135",
"U  c #212234",
"Y  c #202334",
"T  c #232234",
"R  c #222335",
"E  c #232136",
"W  c #212236",
"Q  c #202336",
"!  c #212435",
"~  c #232534",
"^  c #313332",
"/  c gray20",
"(  c #303433",
")  c #333532",
"_  c #323433",
"`  c #353533",
"'  c #343633",
"]  c #313234",
"[  c #323234",
"{  c #323335",
"}  c #333335",
"|  c #323337",
" . c #313534",
".. c #303435",
"X. c #333534",
"o. c #313735",
"O. c #323635",
"+. c #313536",
"@. c #303437",
"#. c #333436",
"$. c #303636",
"%. c #313737",
"&. c #333736",
"*. c #323637",
"=. c #343434",
"-. c #353535",
";. c #363435",
":. c #343635",
">. c #343436",
",. c #343537",
"<. c #353537",
"1. c #363437",
"2. c #353736",
"3. c #33333B",
"4. c #343338",
"5. c #303538",
"6. c #313538",
"7. c #313439",
"8. c #333438",
"9. c #333439",
"0. c #333738",
"q. c #323639",
"w. c #33373A",
"e. c #353439",
"r. c #343539",
"t. c #353638",
"y. c #363638",
"u. c #363739",
"i. c #34353A",
"p. c #35363A",
"a. c #34343C",
"s. c #660C0B",
"d. c #660E0C",
"f. c #660E0D",
"g. c #670F0D",
"h. c #650C0E",
"j. c #660D0F",
"k. c #670D0F",
"l. c #670F0E",
"z. c #77090C",
"x. c #79080C",
"c. c #7A090D",
"v. c #790B0C",
"b. c #780A0D",
"n. c #7B0A0C",
"m. c #780B0E",
"M. c #790B0E",
"N. c #7B0A0E",
"B. c #7A0C0F",
"V. c #650F10",
"C. c #670E10",
"Z. c #670E12",
"A. c #670E14",
"S. c #680E10",
"D. c #680F11",
"F. c #6A0F14",
"G. c #790A10",
"H. c #7A0B11",
"J. c #413E59",
"K. c #423E59",
"L. c #413C5A",
"P. c #433C5B",
"I. c #423D5B",
"U. c #413E5B",
"Y. c #413C5C",
"T. c #433C5D",
"R. c #423D5D",
"E. c #433E5C",
"W. c #423C5E",
"Q. c #433E5E",
"!. c #9E090D",
"~. c #9D0B0C",
"^. c #9C0A0D",
"/. c #9F0A0C",
"(. c #9C0B0E",
"). c #9D0B0E",
"_. c #9F0A0E",
"`. c #9E0C0C",
"'. c #9D0C0F",
"]. c #9E0C0F",
"[. c #9D0A10",
"{. c #9C0B10",
"}. c #9F0A10",
"|. c #9E0B11",
" X c #9F0912",
".X c #9D0A12",
"XX c #9F0D10",
"oX c #A0090E",
"OX c #A00B0F",
"+X c #BE0E11",
"@X c #BF0C12",
"#X c #C40B11",
"$X c #C00D10",
"%X c #C10C11",
"&X c #C00D11",
"*X c #C20D12",
"=X c #C10E12",
"-X c #C10E14",
";X c #F80000",
":X c #FB0200",
">X c #FD0000",
",X c #FD0002",
"<X c #B3695E",
"1X c #B36B5F",
"2X c #B46A5F",
"3X c #B36A61",
"4X c #B56B60",
"5X c #B46A61",
"6X c #B46C60",
"7X c #E5AF8D",
"8X c #E6AE8D",
"9X c #E5AE8F",
"0X c #E6B08E",
"qX c #FEEFDC",
"wX c #FFF0DB",
"eX c #FFF0DD",
/* pixels */
"#.#.#.#.,.,.,.,.,.,.,.,.,.,.,.,.,.,.,.,.,.,.,.,.,.,.,.,.,.,.,.,.,.,.,.,.,.,.,.,.,.#.,.,.,.#.,.,.,.,.,.,.,.,.,.,.,.,.,.,.,.,.,.,.",
"#.#.#.#.,.,.,.,.,.,.,.,.,.,.,.,.,.,.,.,.,.,.,.,.,.,.,.,.,.,.,.,.,.,.,.,.,.,.,.,.,.,.,.,.,.,.,.,.,.,.,.,.,.,.,.,.,.,.,.,.,.,.,.,.",
"#.#.#.#.,.,.,.,.,.,.,.,.,.,.,.,.,.,.,.,.,.,.,.,.,.,.,.,.,.,.,.,.,.,.,.,.,.,.,.,.,.,.,.,.#.,.,.,.,.,.,.,.,.,.,.,.,.,.,.,.,.,.,.,.",
"#.#.#.#.,.,.,.,.,.,.,.,.,.,.,.,.,.,.,.,.,.,.,.,.,.,.,.,.,.,.,.,.,.,.,.,.,.,.,.,.#.,.,.,.,.,.b.,.,.,.,.,.,.,.,.,.,.,.,.,.,.,.,.,.",
"#.#.#.#.,.,.,.,.,.,.,.,.,.,.,.,.,.,.,.,.,.,.,.,.,.,.,.,.,.,.,.,.,.,.,.,.,.,.,.,.,.#.,.,.#.,.b.,.,.,.,.,.,.,.,.,.,.,.,.,.,.,.,.,.",
"#.#.#.#.,.,.,.,.,.,.,.,.,.,.,.,.,.,.,.,.,.,.,.,.,.,.,.,.,.,.,.,.,.,.,.,.,.,.,.,.,.,.,.,.,.,.#.,.,.,.,.,.,.,.,.,.,.,.,.,.,.,.,.,.",
"#.#.#.#.,.,.,.,.,.,.,.,.,.,.,.,.,.,.,.,.,.,.,.,.,.,.,.,.,.,.,.,.,.,.,.,.,.,.,.,.,.,.,.,.,.,.,.,.,.,.,.,.,.,.,.,.,.,.,.,.,.,.,.,.",
"#.#.#.#.,.,.,.,.,.,.,.,.,.,.,.,.,.,.,.,.,.,.,.,.,.,.,.,.,.,.,.,.,.,.,.,.,.,.,.,.,.#.,.,.,.#.,.,.,.,.,.,.,.,.,.,.,.,.,.,.,.,.,.,.",
"#.#.#.#.,.,.,.,.,.,.,.,.#.,.,.,.#.,.,.,.t.,.#.,.,.,.#.#.t.t.,.,.t.,.t.} ,.,.,.t.,.,.,.,.,.,.t.t.8.t.,.,.,.,.,.,.,.,.,.,.,.,.,.,.",
"#.#.#.#.,.,.,.,.,.t.,.,.,.,.#.,.,.,.,.,.,.t.,.,.,.#.#.,.#.#.#.,.,.,.,.,.,.#.,.,.,.,.,.t.,.,.,.,.t.,.,.,.,.,.,.t.,.,.,.t.,.,.,.,.",
"#.#.#.#.,.,.,.,.,.,.,.,.,.,.,.t.#.,.,.,.,.,.,.,.t.t.,.,.#.,.#.,.,.#.#.,.,.,.,.,.,.,.,.,.,.,.,.,.b.8.,.,.t.t.,.,.,.,.,.,.,.,.,.,.",
"#.#.#.#.,.,.,.,.,.,.,.,.,.,.,.,.,.,.,.,.,.,.t.,.} t.t.,.,.t.t.,.,.,.t.,.,.4.,.t.t.#.,.t.t.,.8.b.b.,.t.#.,.,.t.,.,.t.' ,.,.,.,.,.",
"#.#.#.#.,.,.,.,.,.,.,.#.,.,.#.,.#.,.,.#.,.,.,.,.,.,.,.8.,.,.t.,.,.,.t.8.t.,.t.,.,.,.,.,.,.,.t.b.b.b.,.,.t.#.,.,.,.,.,.,.,.,.,.,.",
"#.#.#.#.,.,.,.,.t.,.,.,.,.,.,.,.,.t.,.,.#.t.,.,.,.,.8.t.,.l l g N ,.t.t.,.,.,.#.t.t.,.t.,.,.z.b.%Xb.,.,.,.,.t.,.,.t.,.,.,.,.,.,.",
"#.#.#.#.,.,.,.,.,.,.#.t.#.,.8.,.,.,.,.t.#.,.,.,.' #.,.,.l l P.P.U % t.t.#.,.t.,.8.,.4.#.,.#.b.b.%Xb.b.#.,.t.,.,.,.,.,.,.,.,.,.,.",
"#.#.#.#.,.,.,.,.,.,.t.,.t.,.,.s.,.#.t.#.,.,.,.#.#.#.t.N l P.r r r K % ,.,.#.#.t.#.,.,.t.#.b.b.%X+Xb.b.,.b.b.,.,.,.,.t.t.,.,.,.,.",
"#.#.#.#.#.,.,.#.,.,.,.,.,.,.j.j.} #.#.#.,.#.,.,.,.,.,.g P.r r r r l K - ,.,.,.t.,.,.8.#.,.b.%X%X%X%Xb.,.H.#.,.t.,.,.,.,.,.,.,.,.",
"#.#.#.#.,.,.,.,.,.8.#.,.,.j.).C.,.,.#.#.,.,.,.t.,.8.g l E.r ,Xu l ;X! 1 8.t.,.,.,.8.8.8.b.%XC.D.[.).%Xb.#.,.,.,.,.,.t.,.,.,.,.,.",
"#.#.#.#.,.,.,.,.#.#.#.,.,.j.).).C.,.,.#.,.t.,.,.,.,.l l E.r r r N l K 1 ,.,.,.#.,.,.#.b.+Xj.C.D.`.).).%Xb.t.,.,.,.,.,.,.,.,.,.,.",
"#.#.#.#.,.,.8.#.,.t.,.#.C.).).).[.C.,.,.#.t.E.,.,.,.l g E.r y l l l U - t.,.,.,.,.#.,.b.%Xj.C.).- ).[.%Xb.t.t.,.t.t.,.,.,.,.,.,.",
"#.#.#.#.,.,.#.,.,.8.,.j.XX).).).[.`.C.,.,.,.P.P.,.1 1 l E.U g l l K l E.,.1 #.t.,.#.,.H.%XC.`.).1 1 j.%Xb.,.,.,.,.,.,.,.,.,.,.,.",
"#.#.#.#.,.,.t.,.,.,.C.).oX).oX[.[.).C.t.t.,.U P.U U 1 l g P.P.K U g @ l 1 l ,.,.,.t.b.b.%X%XC.).).C.C.-Xb.,.,.,.,.,.,.,.,.,.,.,.",
"#.#.#.#.#.,.,.,.,.,.C.).).4X0XeXwX).[.C.t.,.U U E.P.U U 1 l l l m 1 P.1 l l 1 ,.,.,.b.B.%X-X1 A.[.).%X%Xb.,.,.#.,.,.,.,.,.,.,.,.",
"#.,.#.#.#.#.,.,.,.C.oX).3X7XeXqX7X<X).C.#.7 P.P.U P.K U l P.@ l 1 E.l 1 l 1 l ,.,.,.#.b.H.%X1 1 C.j.%Xb.b.,.,.#.,.,.t.,.,.,.,.,.",
"#.#.#.#.#.#.#.t.t.C.).).2X7X;X4X6X,X).).D.U g K U P.l l U U g K E.l l - l l - % ,.,.,.8.t.b., @ %X#XB.b.,.,.,.,.,.,.,.,.,.,.,.,.",
"#.#.#.#.#.#.,.,.8.#.j.).2X6X2X7X7X2X[.).j.g U g E.l l l ).[.U P.7 l C.- 1 l g N ,.,.,.,.,.,.1 @ b.b.b.8.,.,.,.,.,.,.,.,.,.,.,.,.",
"#.#.8.#.#.#.8.#.} ,.C.).).<X0X7X2X).).[.j.g U U U l l U Z l ).U P.C.g l 1 1 % l #.8.#.#.t.,.1 b.b.,.,.,.,.,.,.,.,.,.,.,.,.,.,.,.",
"#.#.#.#.#.,.,.#.#.,.t.D.).[.<X7X4X`.`.).D.,.#.U U U l N ).U U [.C.l N C.,.g - l . ,.#.#.t.@ @ #.t.,.,.,.,.,.#.,.,.,.,.,.,.,.,.,.",
"#.#.#.#.#.#.,.#.#.#.#.#.j.).`.).).).).C.a.,.#.#.l l U l U ).K U P.l F.,.t.t.l @ E.E.,.#.#.- - ,.t.,.,.,.#.,.,.#.,.,.,.,.,.,.,.,.",
"#.#.#.#.8.#.#.#.} #.#.#.#.C.C.`.).C.C.,.,.,.,.#.,.,.N U U l oXU U j.g ,.,.,.1 U U U E.,.#.1 - ,.,.,.,.,.,.,.,.,.,.,.,.,.,.,.,.,.",
"#.#.#.#.#.#.#.#.#.#.#.#.8.#.8.C.C.#.,.8.,.,.,.,.#.,.,.N U K l ).C.l ,.,.' ,.,.U U U P.,.,.1 @ ,.,.#.t.,.,.,.,.t.,.,.,.,.,.,.,.,.",
"#.#.#.#.#.#.#.#.,.#.#.t.#.,.} #.#.#.t.( ,.,.,.,.,.,.t.).9 U g l l g #.,.t.t.,.#.U U U K ,.1 t.,.t.,.,.,.,.,.,.,.,.,.,.,.,.,.,.,.",
"#.#.#.#.#.#.#.#.#.#.#.#.#.#.#.} } #.#.#.#.,.#.,.,.,.,.l ).m P.g g j.1 t.,.,.t.,.E.U U U ,.> ,.#.,.t.t.,.,.,.,.,.,.,.,.,.,.,.,.,.",
"#.#.#.#.#.#.#.#.#.#.#.#.#.#.,.,.#.} #.,.#.#.#.} ,.' l K U oXj.C.C.> 1 - ,.,.t.,.E.P.U E.1 @ ,.,.,.,.,.,.,.,.,.,.,.,.,.,.,.,.,.,.",
"#.#.#.#.#.#.#.#.#.#.#.#.#.#.#.#.t.#.#.#.#.} 8.,.#.7 N U N l g 1 U @ - @ ,.8.,.,.t.U U U g U ,.,.,.,.,.,.,.,.,.,.,.,.,.,.,.,.,.,.",
"#.#.#.#.#.#.#.#.#.#.#.#.#.#.#.} #.#.#.#.#.,.,.#.l l U l U P.1 @ U N g - #.#.,.#.,.,.P.P.U g #.} #.#.#.#.#.#.#.#.#.#.#.#.#.#.#.#.",
"#.#.#.#.#.#.#.#.#.#.#.#.#.#.#.#.#.#.#.,.,.8.#.,.7 U N N U 1 1 l l K N % 1 ,.#.#.} ( #.l 9 U #.#.#.#.#.#.#.#.#.#.#.#.#.#.#.#.#.#.",
"#.#.#.#.#.#.#.#.#.#.#.#.#.#.#.t.} #.#.} #.t.#.l l U l U P.@ l l U l N N 1 #.} 8.} 8.#.#.% #.#.,.#.#.#.#.#.#.#.#.#.#.#.#.#.#.#.#.",
"#.#.#.#.#.#.#.#.#.#.#.#.#.} } #.#.,.} #.8.#.l l g U N g - 1 U Z g l l g % - 8.t.8.#.#.,.@ 4.#.#.#.} } #.#.#.#.#.#.#.#.#.#.#.#.#.",
"#.#.#.#.#.#.#.#.#.#.#.#.#.#.} #.#.#.#.#.#.g N U l U l l 1 l l l U g N l @ 1 #.#.#.#.#.#.@ 8.#.8.,.#.#.#.#.#.#.#.#.#.#.#.#.#.#.#.",
"#.#.#.#.#.#.#.#.#.#.#.#.#.#.#.#.#.#.,.#.#.l l U l U l P.g % l l U U l l N 1 ,.#.,.#.4.1 #.8.#.#.#.#.#.#.#.#.#.#.#.#.#.#.#.#.#.#.",
"#.#.#.#.#.#.#.#.#.#.#.#.#.#.#.#.#.#.#.#.#.g g U g l P.N D 1 l ! 4.D U g l 1 #.#.} #.#.1 #.} ,.#.#.#.#.#.#.#.#.#.#.#.#.#.#.#.#.#.",
"#.#.#.#.#.#.#.#.#.#.#.#.#.#.#.#.#.#.#.#.#.#.N l P.E.l U #.1 l K #.#.K U l 1 #.#.8.8.#.1 #.#.#.#.#.#.#.#.#.#.#.#.#.#.#.#.#.#.#.#.",
"#.#.#.#.#.#.#.#.#.#.#.#.#.#.#.#.#.#.} } #.#.#.g P.m U U #.- g } #.#.U U U 1 #.} #.#.8.1 #.8.#.8.#.#.#.#.#.#.#.#.#.#.#.#.#.#.#.#.",
"#.#.#.#.#.#.#.#.#.#.#.#.#.#.#.#.#.#.,.,.#.,.#.l P.P U l #.#.- 8.#.K U @ U 1 #.,.#.#.,.- #.#.#.#.#.#.#.#.#.#.#.#.#.#.#.#.#.#.#.#.",
"#.#.#.#.#.#.#.#.#.#.#.#.#.#.#.#.8.#.#.#.#.#.g C ! U g #.#.#.#.#.,.U - g - K } #.#.#.1 #.#.8.#.#.#.#.#.#.#.#.#.#.#.#.#.#.#.#.#.#.",
"#.#.#.#.#.#.#.#.#.#.#.#.#.#.#.#.#.#.#.#.#.} l U U U m #.#.#.,.#.- 1 l l 1 F } #.#.#.- #.#.8.#.#.#.#.#.#.#.#.#.#.#.#.#.#.#.#.#.#.",
"#.#.#.#.#.#.#.#.#.#.#.#.#.#.#.#.#.#.#.#.#.N K U l g 8.#.,.#.#.,.@ l l 1 1 1 #.#.3.#.1 #.#.,.#.#.#.#.#.#.#.#.#.#.#.#.#.#.#.#.#.#.",
"#.#.#.#.#.#.#.#.#.#.} #.#.#.,.#.#.} #.#.,.g l U l g ,.#.#.#.,.#.l g 1 1 1 & #.#.#.#.1 ,.#.#.#.#.#.#.#.#.#.#.#.#.#.#.#.#.#.#.#.#.",
"#.#.#.#.#.#.#.#.#.#.#.#.#.#.,.#.#.8.#.( ,.,.0 U l #.#.#.#.#.#.#.#.1 1 - % #.t.,.,.8.@ #.#.#.#.#.#.#.#.#.#.#.#.#.#.#.#.#.#.#.#.#.",
"#.#.#.#.#.#.#.#.#.#.#.#.#.#.#.#.8.#.#.#.#.U U N t.#.#.} #.#.#.#.. 1 % @ ,.#.#.#.( 1 #.,.#.#.#.8.#.#.#.#.#.#.#.#.#.#.#.#.#.#.#.#.",
"#.#.#.#.#.#.#.#.#.#.#.#.#.#.#.#.#.#.#.,.,.L U l #.#.} } #.#.#.#.- 1 % ,.4.#.#.#.8.- #.t.#.#.#.#.#.#.#.#.#.#.#.#.#.#.#.#.#.#.#.#.",
"#.#.#.#.#.#.#.#.#.#.#.#.#.#.#.#.#.#.#.#.#.U l g #.( #.#.#.#.#.8.@ 1 1 8.,.#.#.#.#.@ #.#.,.#.#.#.#.#.#.#.#.#.#.#.#.#.#.#.#.#.#.#.",
"#.#.#.#.#.#.#.#.#.#.#.#.#.#.#.#.#.,.#.8.U U l l #.#.#.#.8.#.#.,.t.1 1 ,.#.#.#.#.#.#.} #.#.#.#.#.#.#.#.#.#.#.#.#.#.#.#.#.#.#.#.#.",
"#.#.#.#.#.#.#.#.#.#.#.#.#.#.,.#.4.#.#.#.U N g #.#.#.#.#.,.#.,.,.#.- g l #.#.#.#.#.#.( #.8.#.#.#.#.#.#.#.#.#.#.#.#.#.#.#.#.#.#.#.",
"#.#.#.#.#.#.#.#.#.#.} #.#.#.,.#.#.} 8.#.U l #.#.#.#.#.,.#.,.#.#.#.,.g m #.#.#.#.#.} ,.8.#.#.,.#.#.#.#.#.#.#.#.#.#.#.#.#.#.#.#.#.",
"#.#.#.#.#.#.#.#.#.#.#.#.#.#.#.#.#.#.#.#.U 5 #.#.8.#.8.#.#.#.#.#.t.#.#.m #.#.#.#.#.#.#.#.#.#.#.#.#.#.#.#.#.#.#.#.#.#.#.#.#.#.#.#.",
"#.#.#.#.#.#.#.#.#.#.#.#.#.#.#.#.#.,.#.#.N l ,.8.,.#.#.} ,.#.#.#.8.#.#.#.8.#.#.#.#.#.#.#.#.#.#.#.#.#.#.#.#.#.#.#.#.#.#.#.#.#.#.#.",
"#.#.#.#.#.#.#.#.#.#.#.#.#.} } } } ,.#.#.#.#.#.#.} #.8.} / } } } #.} } ( } } } } } } } } } } } } } } } } } } } } } } } } } } } } ",
"#.#.#.#.#.#.#.#.#.#.#.#.#.#.#.#.#.#.} #.} #.} } ( } } } } } } } } } } } #.} } } } } } } } } } } } } } } } } } } } } } } } } } } ",
"#.#.#.#.#.#.#.#.#.#.#.#.#.#.#.#.} #.#.#.#.#.} } } } } } #.} } } } } } / } } } } } } } } } } } } } } } } } } } } } } } } } } } } ",
"#.#.#.#.#.#.#.#.#.#.#.#.#.#.#.#.#.#.} } } #.} } } } } } } } } } } } } } } } } } } } } } } } } } } } } } } } } } } } } } } } } } ",
"#.#.#.#.#.#.#.#.#.#.#.#.#.#.#.#.} } } } } } } } } } } } } } } } } } #.( } } } #.} } } } } } } } } } } } } } } } } } } } } } } } ",
"#.#.#.#.#.#.#.#.#.#.#.#.#.} } } } } } } } } } } } } } } } } #.} } } } } } } } } } } } } } } } } } } } } } } } } } } } } } } } } "
};
