/* XPM */
static char *rcp06443251611519[] = {
/* columns rows colors chars-per-pixel */
"64 64 138 2 ",
"   c #030406",
".  c #06060B",
"X  c #08070D",
"o  c #07080C",
"O  c #0A090F",
"+  c #0E0E16",
"@  c #0E0E19",
"#  c #140C16",
"$  c #1B0D16",
"%  c #130E19",
"&  c #1D0F1A",
"*  c #0F1016",
"=  c #111117",
"-  c #13131C",
";  c #1B121D",
":  c #17181D",
">  c #191A1F",
",  c #37080E",
"<  c #3C0A0F",
"1  c #240C15",
"2  c #2B0C14",
"3  c #240F18",
"4  c #2C0E18",
"5  c #330C14",
"6  c #3B0B13",
"7  c #231016",
"8  c #291017",
"9  c #22111C",
"0  c #2A121B",
"q  c #311117",
"w  c #3F1117",
"e  c #32141D",
"r  c #3B141B",
"t  c #161621",
"y  c #191622",
"u  c #171822",
"i  c #1A1A24",
"p  c #1D1D29",
"a  c #271720",
"s  c #2E1720",
"d  c #251823",
"f  c #2D1A25",
"g  c #211E2B",
"h  c #311721",
"j  c #3C1F2A",
"k  c #1F2025",
"l  c #1F202A",
"z  c #212127",
"x  c #23232B",
"c  c #27282E",
"v  c #292A2E",
"b  c #33232E",
"n  c #3B232E",
"m  c #252431",
"M  c #292734",
"N  c #2C2C33",
"B  c #2A2738",
"V  c #2D2B39",
"C  c #3D2633",
"Z  c #302F35",
"A  c #3C2936",
"S  c #352F3E",
"D  c #3A2E3D",
"F  c #2F3034",
"G  c #333436",
"H  c #343439",
"J  c #410409",
"K  c #4E0509",
"L  c #5E0507",
"P  c #5E0608",
"I  c #550A0E",
"U  c #580A0D",
"Y  c #420D13",
"T  c #4C0D14",
"R  c #480D18",
"E  c #530D15",
"W  c #590B12",
"Q  c #471016",
"!  c #4D1117",
"~  c #42141C",
"^  c #4C151E",
"/  c #551014",
"(  c #5D1317",
")  c #54151B",
"_  c #5B1519",
"`  c #620506",
"'  c #6C060B",
"]  c #610C0E",
"[  c #790A0B",
"{  c #660E12",
"}  c #6E0E12",
"|  c #780F10",
" . c #641115",
".. c #651319",
"X. c #711115",
"o. c #421822",
"O. c #4A1A24",
"+. c #531922",
"@. c #691C25",
"#. c #7B1B23",
"$. c #4D202A",
"%. c #50262E",
"&. c #5C252A",
"*. c #442632",
"=. c #442936",
"-. c #4A2834",
";. c #412C39",
":. c #6B262B",
">. c #792023",
",. c #7A2229",
"<. c #373040",
"1. c #383040",
"2. c #840206",
"3. c #8D0505",
"4. c #830C0C",
"5. c #920303",
"6. c #920B0B",
"7. c #8D0F10",
"8. c #871114",
"9. c #831C1D",
"0. c #891A1E",
"q. c #9D1315",
"w. c #9A1C1D",
"e. c #A20E0E",
"r. c #A21010",
"t. c #A51C1D",
"y. c #AF1B1C",
"u. c #B01818",
"i. c #8D1B21",
"p. c #80232A",
"a. c #8A2229",
"s. c #862F35",
"d. c #912E34",
"f. c #AD2123",
"g. c #A72F36",
"h. c #B92D31",
"j. c #BD373C",
"k. c #B3383D",
/* pixels */
"G G G G G G G G G G G G G G G G G G G G G G G G G G G G G G G G G G G G G G G G G G G G G G G G G G G G G G G G G G G G G G G G ",
"G G G G G G G G G G G G G G G G G G G G G G G G G G G G G G G G G G G G G G G G G G G G G G G G G G G G G G G G G G G G G G G G ",
"G G G G G G G G G G G G G G G G G G G G G G G G G G G G G G G G G G G G G G G G H G G G G G G G G G G G G G G G G G G G G G G G ",
"G G G G G G G G G G G G G G G G G G G G G G G G G G G G G G G G G G G G G G G G G G G G G G G G G G G G G G G G G G G G G G G G ",
"G G G G G G G G G G G G G G G G G G G G G G G G G G G G G G G G G G G G G G G G G G G G G G G G G G G G G G G G G G G G G G G G ",
"G G G G G G G G G G G G G G G G G G G G G G G G N x x x x x x x x x x x x x x N G G G G G G G G G G G G G G G G G G G G G G G G ",
"G G G G G G G G G G G G G G G G G G G G G H c z i - - - - - - - - - - - - - - i z x H H G G G G G G G G G G G G G G G G G G G G ",
"G G G G G G G G G G G G G G G G G G G G N p : - - t t t u i i i i i p y t t t - - : p N H H G G G G G G G G G G G G G G G G G G ",
"G G G G G G G G G G G G G G G G G G G v u - : t t t i x M V V V B V V M x i t t t t - u v H G G G G G G G G G G G G G G G G G G ",
"G G G G G G G G G G G G G G G G H H G x + : t t u p M S <.<.<.<.H S <.<.S B p i t t t - x H G G G G G G G G G G G G G G G G G G ",
"G G G G G G G G G G G G G G G G H H z : : t t i x Z S <.<.<.<.<.S S <.<.<.H S x i t t : : p H G G G G G G G G G G G G G G G G G ",
"G G G G G G G G G G G G G G G G H H u - t t t i m H H <.<.<.<.<.S S S <.<.<.<.m i t t t - u H H G G G G G G G G G G G G G G G G ",
"G G G G G G G G G G G G G G G G G - - : t t p M S H H <.<.S S S <.<.<.<.<.<.<.S M p t t t - - N G G G G G G G G G G G G G G G G ",
"G G G G G G G G G G G G G G G G F - - t t t p M <.<.<.<.<.<.<.<.<.<.<.<.<.H H H B p t t t - - N G G G G G G G G G G G G G G G G ",
"G G G G G G G G G G G G G G G G F - - t u y d b A ;.D D S <.<.S <.<.<.<.S <.H H <.V y t t - - N G G G G G G G G G G G G G G G G ",
"G G G G G G G G G G G G G G G G F - - : y h h ~ ^ $.*.A D 1.<.<.<.<.<.<.<.<.H D S S g i t - - N H G G G G G G G G G G G G G G G ",
"G G G G G G G G G G G G G G G G F = = 9 4 R @.,.#.{ E O.*.D D <.<.<.<.S D D A C =.C g u t - - N G G G G G G G G G G G G G G G G ",
"H H H H H G G G G G G G G G G G N = $ 2 T #.g.j.h.q.8.} ) =.D <.<.<.<.D A n r ^ +.O.f u t - - N G G G G G G G G G G G G G G G G ",
"H H H H H G G G G G G G G G G G Z $ 1 6 ..k.q.e.u.5.q.8. .-.D <.<.<.<.D n r ! s.p.E e y t - - N G G G G G G G G G G G G G G G G ",
"G G G G G G G G G G G G G G G G Z $ 1 6  .w.6.r.y.3.6.[ W -.D <.<.<.<.D n ~ E d.a.W 2 ; t - + N G G G G G G G G G G G G G G G G ",
"G G G G G G G G G G G G G H G G Z = $ 5 T | 7.t.f.2.' W ^ ;.D <.<.<.<.D A j r +.! 6 9 u t - - N H G G G G G G G G G G G G G G G ",
"G G G G G G G G G G G G G H H H Z = = ; 5 K } 0.i.' T o.C D S <.<.<.<.<.S S g d 9 ; u t t - % N H H H G G G G G G G G G G G G G ",
"G G G G G G G G G G G G H H x : u : - = 9 2 5 6 6 6 e b D H H H H H H H V x i t t t t t - - : t t : u F G G G G G G G G G G G G ",
"G G G G G G G G G G G H G u u i p p t - ; # ; ; ; ; u y p x x x x x m p i t t : ; ; % : - - p p p p i : - z G G G G G G G G G G ",
"G G G G G G G G G H H N : B Z B p i - % ; $ 1 9 d ; : t t t t t t t t t t t ; 0 0 1 # - - - t p B H S V x u - - N G G G G G G G ",
"G G G G G G G G H H x u H <.B p t t t - # 3 1 1 4 h 8 3 9 ; ; ; ; ; ; ; 9 9 e 5 5 2 ; % - t t t t t t u t i p p - x G G G G G G ",
"G G G G G G G H G : u g g y t - @ : t - % ; 9 0 r Q I K J 5 e 5 < Y 6 , Y T T w q 7 ; % - t t @ - t t t t t t t p t : N G G G G ",
"G G G G G G G N + i i t t t t - @ - : t t % ; 9 e Y (  .] U U P ` ` U / _ _ T r 8 ; % - t t : @ - - - - : t t t t t : + N G G G ",
"G G G G G H G c @ i i t t : : : : @ - t t t - = ; s %.) L 4.3.5.3.4.X.U ) &.w 8 $ - t t t : + - - k G H p : : t t t : @ N G G G ",
"G G G G G H x + t t t t : : c H G u : : t i i t - ; 3 5 ) >.9.9.9.>.:.^ 5 2 1 $ - u i t : : u N H G G H H x + - t t t - x N G G ",
"H H H G G H x + t t t - = N H H H H p - t p p g p - % # ; 8 8 8 8 8 a & # # ; i g p p : u x G G G G G G v i - - t t t u = x G G ",
"H H G G G H x + t t t - + N G G G H c u - t i x B M x i t - - @ @ - t t i x M B x i t @ x G G G G G G x : - : t t t i x - x G G ",
"G G G G H H x + t t - - - N H G G H H c + : t y p m m g i t t - % t - t p m m p i t t - x G G G G G N - - t i i i i p x - x H G ",
"G G G G H c i t t t t t - p N H H H H c * : t t t t t t t - - - - - @ - t t t t t t t @ x G G G G N p u i i i p i p x x - x H H ",
"H G G G H u t p p i i p p i u x H H H G x - t t t t t t t - - - - - - t t t t t t : - x N G G G G v u u : - - p i t i x - x H H ",
"G G G G H i p V x p m V g V p u H H H H N - - t t t t t t t p t - p t t t t t t t : + v G G G G G v : - x N c x - p N x = x H H ",
"G G G G H u p V x i m V y x M c u G H H H N u - t t t t t u B p i V i t t t t t - : N G G G G G G x - v G H N u - x N : * x G G ",
"G G G G H i p V t t m B @ @ t x F H H H H H u : p t t t t u V p i Z i t t t t p t t H G G G G G G G F G H G N = c Z N * v G G G ",
"G G G G H i p H H t x <.H H p = u G H H H H > : p t t i m H m g g x S M p t t p t : H G G G G G G G H H H z - G G k : H G G G G ",
"G G G G G u - i H > - p H H H c = G H H G G H x - i u t t t t t t t t t t t p : x H G G G G G G G G G G G G G G G G G G G G G G ",
"G G G G H H x - H H z : H H H v - G H H G G H H N + - t t t t t t t t t t t @ c H G G G G G G G G G G G G G G G G G G G G G G G ",
"G G G G G G x > N G x i N G G G G H G G G G H H N + : t t t t t t t t i i : + c G G G G G G G G G G G G G G G G G G G G G G G G ",
"G G G G G H H F > N H N > F G G G G G H H G G G N > : : t t t t t t t t : : u N G G G G G G G G G G G G G G G G G G G G G G G G ",
"G G G H H H G G G G G G G G G G G G G H G G G G G H : - t t t t t t t t - - G G G G G G G G G G G G G G G G G G G G G G G G G G ",
"G G G H H G G G G G G G G G G G G G H H G G G G G H : - t t t t t t t - : z G G G G G G G G G G G G G G G G G G G G G G G G G G ",
"G G G G G G G G G G G G G G G G G G G H G G G H N k : - t t t t t t t - p H G G G G G G G G G G G G G G G G G G G G G G G G G G ",
"G G G G G G G G G G G G G G G G G G G H G G G v u - : t t t i i t : - p N G G G G G G G G G G G G G G G G G G G G G G G G G G G ",
"G G G G G G G G G G G G G G G G G G H H G G H x - t t i p p i t - - x N G G G G G G G G G G G G G G G G G G G G G G G G G G G G ",
"G G G G G G G G G G G G G G G G G G H G G G H x - t i p p u t - u N G G G G G G G G G G G G G G G G G G G G G G G G G G G G G G ",
"G G G G G G G G G G G G G G G G G G H H H H H G c @ i x p p t t : u F H G G G G G G G G G G G G G G G G G G G G G G G G G G G G ",
"G G G G G G G G G G G G G G G G H H H H N O X X + @ : i p p p p p : - + X X X X i G G G G G G G G G G G G G G G G G G G G G G G ",
"G G G G G G G G G G G G G G G x       . . . . X . . + + + @ @ @ + + + + + + . . . . .     = G G G G G G G G G G G G G G G G G G ",
"G G G G G G G G G G G G G G G G H H : o o o o X . . X X X X X X X X X X . . . X X . o c G G G G G G G G G G G G G G G G G G G G ",
"G G G G G G G G G G G G G G G G H H H H H H H H G G G G G G G G G G G G G G G G G G G G G G G G G G G G G G G G G G G G G G G G ",
"G G G G G G G G G G G G G G G G G G G G G G G G G G G G G G G G G G G G G G G G G G G G G G G G G G G G G G G G G G G G G G G G ",
"G G G G G G G G G G G G G G G G G G G G G G G G G G G G G G G G G G G G G G G G G G G G G G G G G G G G G G G G G G G G G G G G ",
"G G G G G G G G G G G G G G G G G G G G G G G G G G G G G G G G G G G G G G G G G G G G G G G G G G G G G G G G G G G G G G G G ",
"G G G G G G G G G G G G G G G G G G G G G G G G G G G G G G G G G G G G G G G G G G G G G G G G G G G G G G G G G G G G G G G G ",
"G G G G G G G G G G G G G G G G G G G G G G G G G G G G G G G G G G G G G G G G G G G G G G G G G G G G G G G G G G G G G G G G ",
"G G G G G G G G G G G G G G G G G G G G G G G G G G G G G G G G G G G G G G G G G G G G G G G G G G G G G G G G G G G G G G G G ",
"G G G G G G G G G G G G G G G G G G G G G G G G G G G G G G G G G G G G G G G G G G G G G G G G G G G G G G G G G G G G G G G G ",
"G G G G G G G G G G G G G G G G G G G G G G G G G G G G G G G G G G G G G G G G G G G G G G G G G G G G G G G G G G G G G G G G ",
"G G G G G G G G G G G G G G G G G G G G G G G G G G G G G G G G G G G G G G G G G G G G G G G G G G G G G G G G G G G G G G G G ",
"G G G G G G G G G G G G G G G G G G G G G G G G G G G G G G G G G G G G G G G G G G G G G G G G G G G G G G G G G G G G G G G G "
};
