/* XPM */
static char *rcp06443573593914[] = {
/* columns rows colors chars-per-pixel */
"64 64 142 2 ",
"   c #040507",
".  c #06060C",
"X  c #08070C",
"o  c #07080C",
"O  c #090A0E",
"+  c #080710",
"@  c #0E0E16",
"#  c #0E0E19",
"$  c #130C16",
"%  c #1A0C15",
"&  c #140F19",
"*  c #1B0E19",
"=  c #0F1017",
"-  c #0F101A",
";  c #111217",
":  c #13131C",
">  c #1B121D",
",  c #17181D",
"<  c #19191E",
"1  c #3B070D",
"2  c #31080F",
"3  c #250E16",
"4  c #2C0D15",
"5  c #250F19",
"6  c #280F18",
"7  c #330D14",
"8  c #3B0C13",
"9  c #3A0F19",
"0  c #23111B",
"q  c #2B121B",
"w  c #361017",
"e  c #32131C",
"r  c #3B131A",
"t  c #161521",
"y  c #191622",
"u  c #171924",
"i  c #1A1A24",
"p  c #1D1D29",
"a  c #231722",
"s  c #2D1721",
"d  c #201F24",
"f  c #211E2C",
"g  c #351722",
"h  c #3F1320",
"j  c #321C26",
"k  c #3E1825",
"l  c #351F29",
"z  c #1F2026",
"x  c #212226",
"c  c #23232B",
"v  c #27282D",
"b  c #292A2E",
"n  c #3C222E",
"m  c #252431",
"M  c #2A2634",
"N  c #262835",
"B  c #2C2C33",
"V  c #2D2C39",
"C  c #3A2937",
"Z  c #352E3E",
"A  c #3B2E3C",
"S  c #2F3035",
"D  c #2F323C",
"F  c #333436",
"G  c #34333B",
"H  c #38303F",
"J  c #41070F",
"K  c #48050A",
"L  c #46090E",
"P  c #5F0507",
"I  c #5C0509",
"U  c #55090E",
"Y  c #5A090C",
"T  c #450C13",
"R  c #4A0D11",
"E  c #530C13",
"W  c #5C0E13",
"Q  c #401117",
"!  c #4C1117",
"~  c #43121A",
"^  c #4F141C",
"/  c #501217",
"(  c #5C1217",
")  c #54151B",
"_  c #5E131D",
"`  c #65070B",
"'  c #620A0D",
"]  c #780507",
"[  c #760D0F",
"{  c #7B0D0C",
"}  c #6A0E10",
"|  c #730F12",
" . c #7D0F11",
".. c #631217",
"X. c #6C1215",
"o. c #65131B",
"O. c #471520",
"+. c #471B22",
"@. c #4C1C27",
"#. c #4B1E2A",
"$. c #541A20",
"%. c #5B1C21",
"&. c #641D21",
"*. c #7F1E22",
"=. c #46242F",
"-. c #4E222C",
";. c #51212B",
":. c #432632",
">. c #4A2530",
",. c #442A36",
"<. c #62242A",
"1. c #6A272B",
"2. c #772327",
"3. c #7D2124",
"4. c #732529",
"5. c #372F40",
"6. c #373040",
"7. c #8F0506",
"8. c #9B0506",
"9. c #920B0C",
"0. c #9B0B0C",
"q. c #990F10",
"w. c #8B1113",
"e. c #8B121C",
"r. c #8B1819",
"t. c #921417",
"y. c #981517",
"u. c #AB1718",
"i. c #AA1D1E",
"p. c #831721",
"a. c #821E22",
"s. c #86262B",
"d. c #96272E",
"f. c #8A2A30",
"g. c #932D32",
"h. c #92373B",
"j. c #A82426",
"k. c #B3282A",
"l. c #A42D31",
"z. c #C02A2B",
"x. c #CD373C",
"c. c #C33A40",
/* pixels */
"F F F F F F F F F F F F F F F F F F F F F F G F F F F F F F F F F F F F F F F F F F F F F F F F F F F F F F F F F F F F F F F F ",
"F F F F F F F F F F F F F F F F F F F F F F F F F F F F F F F F F F F F F F F F F F F G F F F F F F F F F F F F F F F F F F F F ",
"F F F F F F F F F F F F F F F F F F F F F F F F F F F F F F F F F F F F F F F F F F F F F F F F F F F F F F F F F F F F F F F F ",
"F F F F F F F F F F F F F F F F F F F F F F F F F F F F F F F F F F F F G F F F F G F G F F F F F F F F F F F F F F F F F F F F ",
"F F F F F F F F F F F F F F F F F F F F F F F F F F B v v v v v v b v v b b b v B G G G G F F F F F F F F F F F F F F F F F F F ",
"F F F F F F F F F F F F F F F F F F F F F F F B v v , ; ; ; ; ; ; ; ; ; ; ; ; ; i v v F G F F F F F F F F F F F F F F F F F F F ",
"F F F F F F F F F F F F F F F F F F F F F F v i ; : t t t t i i i i i i i t t t , : ; p B F F F F F F F F F F F F F F F F F F F ",
"F F F F F F F F F F F F F F F F F F F F B p , : t t t i p M M V V V V M M m p y t t t : i v F F F F F F F F F F F F F F F F F F ",
"F F F F F F F F F F F F F F F F F F F F B ; : t t t i c V 6.5.5.6.6.6.H H Z V c i t t t ; i F F F F F F F F F F F F F F F F F F ",
"F F F F F F F F F F F F F F F F F F F b < : t t u p M Z H Z Z 5.6.6.6.6.Z Z H Z m i t t t , i B F F F F F F F F F F F F F F F F ",
"F F F F F F F F F F F F F F F F F F F v # t t t u c V 6.5.Z Z 6.6.6.6.6.5.5.5.6.M p t t t t & B F F F F F F F F F F F F F F F F ",
"F F F F F F F F F F F F F F F F F F p : , t t i c G H 6.Z Z Z 5.6.6.6.6.6.6.6.6.Z V p u t t , ; v F F F F F F F F F F F F F F F ",
"F F F F F F F F F F F F F F F F F F i ; t t t i m H H 6.6.6.5.5.6.Z Z Z 6.6.6.6.6.Z f i t t , @ v F F F F F F F F F F F F F F F ",
"F F F F F F F F F F F F F F F F F F i ; t t t i m 6.H H H 6.6.H H H Z Z Z Z Z 6.6.H H p t t , @ v F F F F F F F F F F F F F F F ",
"F F F F F F F F F F F F F F F F F F i ; y > a g h ~ #.>.,.A Z H H H H 6.6.6.6.6.6.H H N i t , @ v F F F F F F F F F F F F F F F ",
"F F F F F F F F F F F F F F F F F F i & > 0 9 _ p.e.[ ' ^ :.A Z Z 6.6.Z Z Z Z Z Z Z H c i t , @ v F F F F F F F F F F F F F F F ",
"F F F F F F F F F F F F F F F F F F i & 6 8 o.d.c.x.i.w.X.~ :.A A 6.6.Z Z Z C k O.@.=.j a , , @ v F F F F F F F F F F F F G F F ",
"F F F F F F F F F F F F F F F F F F i % 7 I l.j.7.u.8.0.r.( ;.,.A 6.6.6.H Z g E a.f.E r q > t @ v F F F F F F F F F F F F F F F ",
"F F F F F F F F F F F F F F F F F F i % 8 ` t.q.0.z.0.9. .E -.,.A 6.6.Z H Z g E s.h./ 9 6 > , @ v F F F F F F F F F F F F G F F ",
"F F F F F F F F F F F F F F F F F F i & 7 U | w.y.k.9.] Y ~ :.A A 6.6.Z H Z n ~ ) $.9 6 > > , # v F F F F F F F F F F F F G F F ",
"F F F F F F F F F F F F F F F F F F i & 0 7 J W *.g.X.E ~ =.C A H 6.6.6.H H A l e q 0 > > t , # c F F F F F F F F F F F F F F F ",
"F F F F F F F F F F F F F F F b i i , : : > 0 7 T T 8 e l A Z H H H H 6.H Z M f y > > > t t ; : t i p B F F F F F F F F F G F F ",
"F F F F F F F F F F F F F F c i i i p t # t & * 6 6 0 > i p c m m m m m c p i t t > > & : : # i p i i t B F F F F F F F F G F F ",
"F F F F F F F F F F F F F i c V V c i t # , & % 0 s 0 > y y y y y y y y y > > > a a * % * : # t p m V V i x F F F F F F F F F F ",
"F F F F F F F F F F x ; : M G V c i t t : # > 3 7 7 e q 0 0 > > > > > > > 3 6 e q 3 5 > & ; t t t i m Z V c : ; B F F F F F F F ",
"F F F F F F F F F i t p p f p u t # : t t # > 3 7 Q Q r 9 4 4 w w 7 e 4 2 1 T Q r e 6 > : ; t t : : t u p z p p : x F F F F F F ",
"F F F F F F F B # i i t t t t t : # : t t t ; & 0 e R W ..) E U I P Y Y ' } ..! r s > & : t t , ; - t t t t t t i , , F F F F F ",
"F F F F F F x ; p u t t t , : ; ; ; # ; , , t : & 0 8 %.&.K ( X.[ { [ | ' Y 1.+.q * & : t t t # ; ; : : : : t t t i i @ B G F F ",
"F F F F F F x @ , t t t , , v F F F z : , , t t : $ * 3 7 Q <.4.3.a.*.2.%.9 5 > & & : , t t , : v F F F p : , t t t , @ B F F F ",
"F F F F F F x @ , t t : # B F F F F F v , : : : : : # $ % 3 7 8 L L L T 4 % @ # # : : : : , i B F F F F F x @ , t t , @ B F F F ",
"F F F F F F x @ t t , ; ; B F F F F F F B ; y p f c y : ; $ $ & % % % * & ; ; : i f c p , i F F F F F F F x @ : t t , @ B G F F ",
"F F F F F F x @ t t : : ; p B F F F F F B $ : y p V M c i t : : : # t t t t c N M N i t ; i F F F F F F v i ; : t t , @ B G F F ",
"F F F F F v i : i t i i t t i v F F F F B @ : t t p c m c i : : : : : : t p c m f i t t ; < F F F F S x i t t i t i i : p B G F ",
"F F F F F i : i c p p p p p , i F F F F B x , : t t t t t t : : : t : : : t t t t t t ; i v F F F F B ; i p p p p p p i = c G F ",
"F S F F F u i M c i c N u p c c i S F F F F < ; t t t t t t t t t t t t t t t t t t t # x F F F F v i N c p p V p p c V : x F F ",
"S F F F F u p V i t m M - : i x B S F F F F B p ; t t t t t t t t : t t t t t t t , ; x B F F F F B B p t : t Z p u p G , x G G ",
"S S F F F u p G B , x D B B i ; p S F F F F F x ; p i t t t t i i : p i t t t t i i @ b F F F F F B i ; x B B G u p V G , x G F ",
"F F F F F i ; i F , : z F F S c ; B F F F F F S v ; i i t t t N c : V f t t t i t , B F F F F F F v ; B F F B i ; x B i ; c G F ",
"F F F F F F x : F F x , F F F v ; B F F F F F F b @ i i t t t N N : V f t t t p t , F F F F F F F v ; B F F B ; b F B @ B F G F ",
"F F F F F F x : S F x < S F F F F F F F F F F F F F , ; i f V N p p f V M p , ; x F F F F F F F F F F F F F b ; B F B ; B G F F ",
"F F F F F F F B ; b F b : b F F F F F F F F F F F F i : , t t t t t t t t t , ; x F F F F F F F F F F F F x , F F x < G F F F F ",
"F F F F F F F F F F F F F F F F F F F F F F F F F F F z - t t t t t t t t , @ v F F F F F F F F F F F F F F F F F F F F F F F F ",
"F F F F F F F F F F F F F F F F F F F F F F F F F F F z - t t t t t t t t , @ v F F F F F F F F F F F F F F F F F F F F F F F F ",
"F F F F F F F F F F F F F F F F F F F F F F F F F F F x ; t t t t t t t t : @ v F F F F F F F F F F F F F F F F F F F F F F F F ",
"F F F F F F F F F F F F F F F F F F F F F F F F F F F x ; , t t t t t t t : @ v F F F F F F F F F F F F F F F F F F F F F G F F ",
"F F F F F F F F F F F F F F F F F F F F F F F F F F F x ; , t t t t i t : : p B F F F F F F F F F F F F F F F F F F F F F G F F ",
"F F F F F F F F F F F F F F F F F F F F F F F F F F x , , t t t i p i , i v F F F F F F F F F F F F F F F F F F F F F F F G F F ",
"F F F F F F F F F F F F F F F F F F F F F F F F F F , : t t i p i i ; p B F F F F F F F F F F F F F F F F F F F F F F F F F F F ",
"F F F F F F F F F F F F F F F F F F F F F F F F F F , : u p p i t , # v F F F F F F F F F F F F F F F F F F F F F F F F F F F F ",
"F F F F F F F F F F F F F F F F F F F F F F F F F F , : i c c p i , , , x F F F F F F F F F F F F F F F F F F F F F F F F F F F ",
"F F F F F F F F F F F F F F F F F F F F F F F d X X X + # t t i p p t , : @ X X X X X v F F F F F F F F F F F F F F F F F F F F ",
"F F F F F F F F F F F F F F F F F F :             X X X + # # # @ @ @ # # @ @ X                 x F F F F F F F F F F F F F F F ",
"F F F F F F F F F F F F F F F F F F F F b O o X X O o o X X X O X X X X X X   X X X X X X : F F F F F F F F F F F F F F F F F F ",
"F F F F F F F F F F F F F F F F F F F F F F G G G G G G G G G F F F F F F F F F F F F F F F F F F F F F F F F F F F F F F F F F ",
"F F F F F F F F F F F F F F F F F F F F F F F F F F F F F F G F F F F F F F F F F F F F F F F F F F F F F F F F F F F F F F F F ",
"F F F F F F F F F F F F F F F F F F F F F F F F F F F F F G G F F F F F F F F F F F F F F F F F F F F F F F F F F F F F F F F F ",
"F F F F F F F F F F F F F F F F F F F F F F F F F F F F F F F F F F F F F F F F F F F F F F F F F F F F F F F F F F F F F F F F ",
"F F F F F F F F F F F F F F F F F F F F F F F F F F F F F F F F F F F F F F F F F F F F F F F F F F F F F F F F F F F F F F F F ",
"F F F F F F F F F F F F F F F F F F F F F F F F F F F F F F F F F F F F F F F F F F F F F F F F F F F F F F F F F F F F F F F F ",
"F F F F F F F F F F F F F F F F F F F F F F F F F F F F F F F F F F F F F F F F F F F F F F F F F F F F F F F F F F F F F F F F ",
"F F F F F F F F F F F F F F F F F F F F F F F F F F F F F F F F F F F F F F F F F F F F F F F F F F F F F F F F F F F F F F F F ",
"F F F F F F F F F F F F F F F F F F F F F F F F F F F F F F F F F F F F F F F F F F F F F F F F F F F F F F F F F F F F F F F F ",
"F F F F F F F F F F F F F F F F F F F F F F F F F F F F F F F F F F F F F F F F F F F F F F F F F F F F F F F F F F F F F F F F ",
"F F F F F F F F F F F F F F F F F F F F F F F F F F F F F F F F F F F F F F F F F F F F F F F F F F F F F F F F F F F F F F F F "
};
