/* XPM */
static char *rcp03175163315627[] = {
/* columns rows colors chars-per-pixel */
"64 64 62 1 ",
"  c #0F0A0E",
". c #160D0E",
"X c #120D11",
"o c #151215",
"O c #1C1516",
"+ c #151618",
"@ c #1C1619",
"# c #1D1A1C",
"$ c #201718",
"% c #251C1E",
"& c #1E1E20",
"* c #241E21",
"= c #281F21",
"- c #252224",
"; c #2B2324",
": c #262628",
"> c #2B2629",
", c #27282A",
"< c #2C2B2C",
"1 c #302728",
"2 c #332B2C",
"3 c #2E302F",
"4 c #2E2E30",
"5 c #322E31",
"6 c #382F30",
"7 c #2F3334",
"8 c #2F3837",
"9 c #343536",
"0 c #3B3334",
"q c #363837",
"w c #353638",
"e c #3B3639",
"r c #37393A",
"t c #3B393B",
"y c #403738",
"u c #433C3D",
"i c #3E3F41",
"p c #433E41",
"a c #483F40",
"s c #454243",
"d c #494346",
"f c #474548",
"g c #4B4649",
"h c #4D494B",
"j c #504B4D",
"k c #4E4D50",
"l c #524E51",
"z c #565354",
"x c #585556",
"c c #575558",
"v c #5C565A",
"b c #5E5A5E",
"n c #63595C",
"m c #635E62",
"M c #685D61",
"N c #656265",
"B c #6A6265",
"V c #696669",
"C c #716A6C",
"Z c #726D71",
"A c #7A7579",
"S c #817B7D",
/* pixels */
"99999999999www9999ww99999999999999999999999999999999999999999999",
"99999999999www9999ww9999999999999999999999999999999w999999999999",
"9999wwww99999999999999999999999999999999999999999wwwww9999wwwww9",
"99999www999999999999999999999999999999999999999999www99999wwwww9",
"9999999999999999999999999999999999999999999999999999w9999999w999",
"999999999999999999999999999999999999999999999999999999999999w999",
"www999999999999999ww9999999999999999999999999999999w99999999ww99",
"www99999999ww99999wrr9999599339992222<99999999w9999wrw999999ww99",
"www99999999ww999999ww9<<<<<<299999952222<<<499ww999wrw9999999999",
"www9999999999999997<<>>>><<2990re0099922<>::<49w9999w99999999999",
"www999999999999w99<:::><<<29eeuuuuuue092<<>-:<499999999999999999",
"www999999999999997<<><2590eeupssssssue0992<4<<<49999999999999999",
"9999999999999999994<<990eeupssssdssspuee099e9>><9999999999999999",
"99999999999999995<<><90000euuuuuuuupuu0000002>>>5999299999999999",
"99999999999999992<<<20000yuuuuuuuusauu0000002<>><999999999999999",
"9999999999999992<<250000yuuuuuuauuuuuuy00009522<><99r99999999999",
"99999999999999<<<<5900600yy00yuuy0y000000055995<>><9r99999999999",
"9999999999999<>><29002220000000y0000000062229992:-><999999999999",
"999999999999<:-:<9000222226000000000000622229992:--><99999999999",
"999999999999>-#-<9e0922222200000y00000622>>29992>---:39999999999",
"999999999999:-:><290922212226222606662222<229992<>>><99999999999",
"99999999999<--->><5092>>>>122222262222222><22922>>:::<9999q99999",
"99999999999<&#-:-><2<>>>>>12222222222221>><222<<:----<9999q99999",
"99999999999<---:--><>>1>>>2222222222222>>>><<<>>:----<9999q99999",
"999999999999:-:>--->*;>;;;>12211222211>>;;>>>>>>:::--<9999999999",
"999999999999:-->----%%=%%%;;>;;;>>>>>;;;;=;>;---:::--<9999999999",
"99999q99999<-%-:----*=%%%%%;;;;;;;;;;;%%%%=>;-------#>9999999q99",
"99999999999<-%*->--->;=%%%%;;;;;;;;;;;%%%$%;;>>;-%##-<9999999999",
"99999999999<-&-:>-**>;=%%%%%;;;>;;;==;;=%%%=;;;;-%%--<9999999999",
"99999999999<-&*->-*%===%%%=%;;;;;===;;;=%%%=====-----<9999999990",
"ww9999999994:*&---*%%==%%%;;;;;;;=%%;;;;%%%===%%--:::39999999900",
"ww9999999999<-*&*=***==%%%;;;;;;;%%%%;;;%%%=;;-=%%-:>99999999900",
"www99999999w9<:-**=--=%%=;;;;;;;;=%%%;;;;%%==;;-%%->999999999990",
"www999999999995<>----=%%=;;;;;;;;%%%%;;;=%%=====-><9q99999999900",
"9999999999999ew92>>->=%%=;;;;;;;%%%%%=;;;%%%===%:<90rq9999999900",
"99999999wwwrw99eppt09>%%%%%%%%%%%%%%%%%%%%%%;22>><9rr99999999900",
"9999999999ww959tjmNl<=%%=;;;%%%$$$%%=%%%%%=1>20uzf99999999999900",
"99999999999949etdVAZs2;;>222>;;%%%;11>;;=;;;unMzVs<9999999999900",
"9999999999999rtr9dbNh5;>2200221>;>2206221>;1MBCSxxf:999999999000",
"9999999999wr99w9<9pde>=;12606221>12260621;>200jVhhp>999999999000",
"999999999999995<<9rt9;%;>2222221>>>>2222;=%==2hCxjs9999999999999",
"999999999999tr4--<599>=;>>2221>>>;;=;222;%%%=>dC0dh9-<9999999999",
"9999999999ri949tt9>>9<;%%;222>>>>>>;%%%;%@$=%500vfph@*<we9erw99w",
"wwwwwwwwww99974479ris9;=%;222211222>;;;;%@%1@=5pe--9%@#>599w999r",
"wwwwwwwwww97rw<#@:9r92>;;;1222212222>;;=%@=2%*emllhp<**:49ew999w",
"wwwwwwwwww99r9<#o@-::>>;=;;>221222221>;%%$$=0656;5eeppe99rtrww94",
"wwwwwwwwwwww99<:#@@#**%%==;;122222211>;%$$@@5<=*tds9fsw:-<99wtr7",
"wwwwwwwwwwwt9999>#+o+@@%%=;;222222122>;%$%%*52*X>ettbcs<<9w99rr4",
"wwwwwwwwwww999ww94:-%@@%;;;>2222222222>%%;%@;5<*-lVNNh9-,9w<4rr9",
"9999999999999wwrw999<%@-;;;=;>11>122222;%@@%>9e05slkfst9rtr87997",
"99999999999wwwww99999-%%%;;;=;>2221>;;;;%$%->50ew94>:49999999999",
"99999999ww9wwwww999992>%$%>>=%%%%%=;121;$@$><5999999999999999999",
"99999999999wwwww9999992%$;22%@@$=%$$$$$%%->25999999wrw9999999999",
"999999ww999999ww999992>$%160>%%;..@;222%@O%599999999999999999888",
"ww9999ww9999999w999999<>>206;%%;2;$O...O%29999ww9997999999988888",
"ww9999ww9999999www9990921>>;%$@@-%$$%%@@$>2999999999999999988899",
"99999999999999999999992>=$$%%%@@>=@@%%@o%>999999999rrw9999999999",
"www99999999999999999995>%@@%-=#o-*@#->:--<99ww9999999999w9999999",
"www99999999999ww9999992>*##*-%@X-#@#-:-&->99ww9999999999ww999999",
"www9999999999www9999995>-==--#o *&##-:-&-,49www9999999999w999999",
"www999999999999w9999995<-=*=-#oX<<><999449w99999999999w9999www99",
"www99999999999999999995<-*%**%@o<<<<799779999999999999ww9999ww99",
"www99999999999999ww99952>;-:>>=*599999999ww999999w9999ww9999w999",
"www99999999999999www9909555595<>55599999999999999w9999ww9999w999"
};
