/* XPM */
static char *rcp03162194695688[] = {
/* columns rows colors chars-per-pixel */
"64 64 221 2 ",
"   c #0C0A0C",
".  c #150D0C",
"X  c #1C120D",
"o  c #15100E",
"O  c #0E0F11",
"+  c #140E10",
"@  c #180E15",
"#  c #141214",
"$  c #1B1414",
"%  c #1D1C14",
"&  c #1B1619",
"*  c #1E1B1C",
"=  c #16181A",
"-  c #30090F",
";  c #23150B",
":  c #261C0D",
">  c #361508",
",  c #310E12",
"<  c #211512",
"1  c #2C1612",
"2  c #241A14",
"3  c #2B1C15",
"4  c #221C1D",
"5  c #2A1E1C",
"6  c #21161E",
"7  c #321E1C",
"8  c #3D1A1A",
"9  c #381513",
"0  c #2B2216",
"q  c #25221C",
"w  c #2C231C",
"e  c #2D281D",
"r  c #242414",
"t  c #342316",
"y  c #33251C",
"u  c #342A1C",
"i  c #3B2B1C",
"p  c #3A2819",
"a  c #32301E",
"s  c #1E1F21",
"d  c #241F21",
"f  c #281F22",
"g  c #3B1B20",
"h  c #361F20",
"j  c #1E2121",
"k  c #252223",
"l  c #2A2424",
"z  c #2D2825",
"x  c #262628",
"c  c #2B2629",
"v  c #2D2B2C",
"b  c #27282A",
"n  c #342523",
"m  c #342B24",
"M  c #3A2E22",
"N  c #342429",
"B  c #3C262C",
"V  c #322C2D",
"C  c #3B2C2C",
"Z  c #3B2323",
"A  c #2F302E",
"S  c #353125",
"D  c #3B3124",
"F  c #35322C",
"G  c #3B332B",
"H  c #3C382E",
"J  c #2E2E31",
"K  c #322E31",
"L  c #3B2D34",
"P  c #2F3132",
"I  c #343436",
"U  c #3A3335",
"Y  c #3C3934",
"T  c #343538",
"R  c #3A3639",
"E  c #37383A",
"W  c #3C3A3C",
"Q  c #461F0F",
"!  c #432108",
"~  c #412C1A",
"^  c #41241C",
"/  c #45331B",
"(  c #4B391E",
")  c #57381F",
"_  c #401F22",
"`  c #4A2F24",
"'  c #43242C",
"]  c #442A2C",
"[  c #462B28",
"{  c #453224",
"}  c #4A3425",
"|  c #4D3C26",
" . c #42362B",
".. c #4B352C",
"X. c #433A2D",
"o. c #4A3B2C",
"O. c #54332B",
"+. c #523E2F",
"@. c #563B25",
"#. c #442C34",
"$. c #4C2A34",
"%. c #413535",
"&. c #433B34",
"*. c #4C3E32",
"=. c #42363B",
"-. c #443C3C",
";. c #4A3C3B",
":. c #48353A",
">. c #513C32",
",. c #573730",
"<. c #46402D",
"1. c #564125",
"2. c #454136",
"3. c #4B4235",
"4. c #45423C",
"5. c #4B423B",
"6. c #4E4B38",
"7. c #524334",
"8. c #5A4333",
"9. c #5C4B35",
"0. c #534439",
"q. c #544A3D",
"w. c #5A4C3D",
"e. c #594737",
"r. c #604A2C",
"t. c #634D3B",
"y. c #684636",
"u. c #61543E",
"i. c #72543A",
"p. c #3D3F41",
"a. c #443D41",
"s. c #493E45",
"d. c #443740",
"f. c #444242",
"g. c #4B4343",
"h. c #4C4A45",
"j. c #4B4A4B",
"k. c #4A434A",
"l. c #514644",
"z. c #534C44",
"x. c #5B4E41",
"c. c #544C4C",
"v. c #594948",
"b. c #565145",
"n. c #5C5444",
"m. c #5A5149",
"M. c #5A554D",
"N. c #4F4E51",
"B. c #574B52",
"V. c #4F5155",
"C. c #525355",
"Z. c #5C5453",
"A. c #5D5B5B",
"S. c #6D564A",
"D. c #655D4F",
"F. c #675745",
"G. c #755D46",
"H. c #635652",
"J. c #635A53",
"K. c #6C5C53",
"L. c #6F5E5D",
"P. c #645655",
"I. c #68644F",
"U. c #7C6045",
"Y. c #7B634B",
"T. c #71614F",
"R. c #6A6253",
"E. c #66615A",
"W. c #7E6853",
"Q. c #726A5C",
"!. c #7C6D5E",
"~. c #796556",
"^. c #77705F",
"/. c #695F62",
"(. c #646464",
"). c #6C6363",
"_. c #6E6867",
"`. c #736664",
"'. c #746A6C",
"]. c #786E62",
"[. c #7E7264",
"{. c #777366",
"}. c #6C6D70",
"|. c #797777",
" X c #796D73",
".X c #83614C",
"XX c #88644F",
"oX c #866C53",
"OX c #856D59",
"+X c #896954",
"@X c #8C735C",
"#X c #907458",
"$X c #816A64",
"%X c #897669",
"&X c #9A7E64",
"*X c #937767",
"=X c #817977",
"-X c #8C7C78",
";X c #937C75",
":X c #957C79",
">X c #94816B",
",X c #9E8366",
"<X c #8B8376",
"1X c #938A7D",
"2X c #988973",
"3X c #A2876A",
"4X c #A48B74",
"5X c #A88B77",
"6X c #B19378",
"7X c #877B81",
"8X c #828383",
"9X c #9A8886",
"0X c #9B9283",
"qX c #9E9297",
"wX c #AC9684",
"eX c #A59886",
"rX c #B79988",
"tX c #B89C91",
"yX c #BCA196",
"uX c #C3A38F",
"iX c #C8A999",
/* pixels */
"I I I I I I I I I I I T T T I I I T T I I I I I I I I I I I I I I I I I I I I I I I I I T T T T T T T T T T T T T T T T T T I I ",
"I I I I I I I I I I T T I I I I I T I I I I I I I I I I I I I I I I I I I I I I I I I I T T I I T T T T T I I I I I I I I I T T ",
"I I I I I T I I I I I I I I I I I I I I I I I I I I I I I I I I I I I I I I I I I I I I T T I I I I I I I I I I I I I I I I I I ",
"I I I I I T T T I I I I I I I I I I I I I T I I I I I I I I I I J J J J J J K I I I I I I I I I I I I I I I I I I I I I I I I I ",
"I I I I I I I I I I I I I I I I I I I I I I I I I I I I I I I I I K K J J J v J K K K J P I I T I I I P P I I I I I I I I I I I ",
"I I I I I I I I I I I I I I I I I I I I I I I I R R R W W W W W a.W W R T I K I I I K v v J I T I I I P P I I I I I I I I I I I ",
"I I I I T I I I I I I I I I I I I T T I I I T R W W a.a.a.a.a.a.f.a.-.W R I K K K K v v v v P I I I I I P I I I I I I I I I I I ",
"I I T T T I I I I I I I I I I I I I I I I R W W -.a.a.a.a.a.a.a.W R R U I K K V v c x v v v v J J I I I I I I I I I I I I I I I ",
"I T T I T T T T T T T I I I I I I I I I I R W -.a.a.a.a.a.a.-.W W W W W R R U U K K V v v v v v J K I I I I I I I I I I I I I I ",
"I T I T T T T T T T I R F I Y H F S S G 5.2.5.z.g.-.-.g.-.=.a.k.s.s.s.a.a.=.=.%.U U U U W V c K I v K R v I U I I I I I I I I I ",
"I I I T T T T T T T I I F Y Y S X.H X.0.3. .&.2.5.-.U l a.c.k.=.s.s.s.a.=.=.=.%.%.U U U R K V V V v V U V I I U U I U I I I I I ",
"I I I T T T T T T T T I R 2.2.2.M.3.0.R.n.D.D.z.&.&.Y Y =.a.s.s.a.a.a.d.=.=.%.U U U U U K U U V c v v b V U I I I I I I I I I I ",
"I I I T T T T T T T I I Y Y z.{.<XQ.^.1XeX0X1X<XR.H &.J.-.U =.l.=.=.=.=.=.R U U L U U U V Y R V x V c k v I I I I U I I I I I I ",
"I I I I I T T T T T I I h.Y h.Q.J.q.w.I.!.Q.[.0X%Xm.&.;.l.-.%.-.=.%.Y R Y U U U U U U U V U R V c v x 4 x K I I I I I I I I I I ",
"I I I I I T T T T T P v h.Y H &.0 0 w y u i X.n.F.R.m.m &.%.%.-.%.Y Y Y Y U U U U U U U U U U K V c x k k v I I I I I I I I I I ",
"I I I I I T T T T T T I I F V V w e m u D y 0 : D 3.x.q. .D C G Y Y Y Y U U U U U U U U R K V U U x k x % c I I I I I I I I I I ",
"I I T T T T T T T T E W I U F V m m u y M i p p t i 7.K.3.G D D H D D Y %.Y U F U U U U U K V K V x k k % x I I I I I I I I I I ",
"I I T T T T T T T T I I I U U C m m m m i t t i i i } w.~.x.o.X.X.D S G Y Y F U U I U U U U K V c x k 4 * x V I I I I I I I I A ",
"I I T T T T T T T T T I I I C C C G H X.....+.t.t.t.9.9.>X;X~.7.o. .G D D S U W W U I U U V c c x x k d 4 k c K U I I I I I I P ",
"I I T T T T T T T T T I T I U U U %.5.m.K.;XwXrX4X&XOXG.Y.2XeX%Xo.M D G D V V F I U U U V c l k x x k k 4 k x v I I I I I I I I ",
"I I I I I T T T T T I I T R R U U %.l.L.%XyXiXtXuXrX4X*X@XOX>XwXF.o.i y m m z l z c V V c l d 4 k k k 4 % * k c I I I I I I I I ",
"I I I I I T T T T T I I I R U U C U l.L.;XtXuX5X.XXX.Xi.oXU.W.>X2XS.i ; 3 e n l l l l x l d d d k k k 4 4 * k c I I I I I I T T ",
"I I I I I T T T T T T T I I I U U Y g.P.$XrXrXXXQ > > ! ) oX&X@X4XW.+.t 3 w l l l f d d l l l l k k k k k 4 k c I I I I I I T T ",
"T T T T T T T T T T T E I I I R R R g.Z.`.9X*XO.i.@.y.+XU.3X4XoX@XW.t.{ p y 5 5 l f 4 4 k l x x x l k k k k x v I I I I I I T I ",
"T T T T T T T T I I I I I I R R R U -.c.).-X:X$XO.y..X&Xi.&X6X&XY.OXG.[ 7 Z 7 < l l l 4 4 k k x x d * * k v I I I T T T T T I I ",
"T T T T T T T T I I I T I I I W R K K V U ;.K.;X!.%XOXG.3X,X#XG.@.F.S.>.Z n 7 5 n 5 4 l k k k x x k k x x F I I I I T T T T I I ",
"T T T T T T T T I I T R I I I R R I K V N ;.v.H.$X%XOXY.G.r.1.1./ t.F.*.n w 5 l V l k x k d d k x x b b v I I I I I T T T T T I ",
"T T T T T T T T I I T W I I I I I K K V N C C %.v.e.8.9.1.| ( / 7.x.q.G 0 4 4 k b x k x k 4 4 k x v K I I I I I I I T T T T T I ",
"T T T T T T I I I I I I T T T T K K v v V L :.:...>.8.| / | 9.u.F.q.&.z k k k k k k k k k k k x b K I I I I I I T T T T T T T T ",
"T T T T T T I I I I I I I T R R R I I K L N N ] ] ....| p | 9.w.3.G l q k k j s j j k k b v V V I I I I I I I I T T T T T T T T ",
"T T T T T T I T I I T T W I I K K K K L L #.] Z g [ ` ~ ~ ~ } 7.y ; X & #     O = s k x K U W U I U U I I I I I I T I I T T T T ",
"T T T T T T T T I I I I T I I I U U U U L B ' ' , , > > | 8.{ ; y 5 < $ f d k v * & * k R V c U W U V I W I I I I I I I I I T T ",
"T T T T T T I I I I I I I T T T T U U L L #.$.$.8 O.,.` 8.e.>.{ y y l N =.6 @ c % + + 4 U U W W W I I I b F I I I I T T T T I T ",
"T T T T T T I I I I I I I T T R R U U L L B g - 8 8 9 ^ *XS.{ t 3 C N 6 s.B.).7XB.Y f + $ c U K b I W W W I I T I I T T T T I I ",
"T T T T T T T T T I I I I T R R R U U U L #.] _ 8 ^ ^ ` 5X!.*.t 3 5 n =.'. X7XqX9X'.g.l $ c W W I I U I I I I I I I T T T T T T ",
"T T T T T T I T T I I I I T R R R U U U L N h 7 1 [ ..{ T.0.y ; w n l l g.).'._.).c.-.V # d K W I U U v I U I I I I T T T T T T ",
"T T T T T T T T I I I I I I T T U U U U U U n 1 0.0.*.7.2Xn.u 0 0 q % 4 V W -.z.=X=X'.A.g.R U K I I I I W R I I I I T T T T T T ",
"T T T T T T T T I I I I I I T T I I I U U G m w *.3.3.<.I.6.a r % q %   v f.c.A.).c.c.(.}.C.W I U I I W I U I I I I T T T T T T ",
"T T T T T T T T I T I I I I I I I I I I U F S m 0  .3.X.R.6.S e w e q * k I h.A.8XA.j.A.j.W I W I I I W J I I I I I T T T T T T ",
"T T T T T T T T I I I I I I I I I I I I I Y F 0 w D  .X.0.2.G D e $ $ k v j.(.|.}.A.C.C.J b I W T I T W I I I I I I I I I I I I ",
"I I I I I I I I I I I I I I I I I I I I I F S H m  .3.3.z.J.z.u 0 H S % W j.(.8XC.V.k.v k b P E T T T T T T I I I I I I I I I I ",
"I I I I I I I I I I I I I I T I I I I I I F Y X.0 b.R.D.1X1XQ. .2 0 2 X 4.E.(.f.J I x O k J I T W E I I I I I I I I I T I I I I ",
"I I I I I I I I I I I I I I T T I I I I I F &.b.Q.q.D  .].<XQ.M u 0 m 2.&.4.A.|.W *     v T T P E E I J T T I I I I T T I I I I ",
"T I I I I I I I T T I I I I T T I I I I I 4.&.m Q.q.D D u { X.*.7.0 0 3.-.Y Y -.U d # # v T T P T T T I T T I I I I T I I I I T ",
"T I I I I I I I I I I T T I I I I I I I I Y Y 3.].5.0 y 7.w.x.w.M 3 5.-X&.J.Z.C `.R # # k J I I I T I I T T I I I I I T I I I T ",
"T T T T T T I I T T T T T T T T T T I I I R 4.z.].&.0 M 0.K.[.[.q.w y v.&.2.;.V 2 $ # # * x J I I T T I T T I I I I T T I I I T ",
"T T T T T I T T T T T T T T T T T T T I I F Y g.m.D w M X.3.0.*. .y 3 w 5.H.c.G 2 4 4 # * x J T T T T I T T I I I I I I I I I I ",
"T T T T T T T T T T T T T T T T T T T I I U Y V H e 0 m w y G *.2 3 3 2 X X < < $ # & k x v I I T I T T I T I I I I I I I I I I ",
"T T I I I I I I I I I T T T I I I I T T T I U V F l w m D m M G < ; X X < 4 2 $ . $ d v P I I T I T I I I I T T I I I I I I I I ",
"T T I I I I T I I I I I T T I T I I T T T I I A F z k q 4 $ 2 m < 2 w w l m m l 4 4 x I I T I I I I I I I I T T T T I I I I T T ",
"T T T I T T T T I I I T T T T T I I I T T P P A v I U U -.z q q X l %.-.G V m c d & d I I T I T I I I I I T T T I T I I I I I T ",
"T T T I T T T T I I I T T T T T I I I T T P T W E T W f.Z.Y & o z.l.%.m 5 4 4 $ * v I I T I T T T I I T I T T T I I I I I I I T ",
"T T T T T T T I T T T T I I T T I I T T T P P T T W T v U c U c.|.P.U $ $ k l l d c I I T E W E T T I T T I I I I I I I I I I I ",
"T T T T T T I I T T T T I I I T I I T T T T T I I I K K v x d 4 U v k & * x v x d k v I I I I T I I I I I I I I I I I I I I I I ",
"T T T T I I I I T T I I I I T T I T T T T I I I I K V x k 4 & & $ & % 4 d k k d l I R I I I I T I I I I I I I I T I I I I I T I ",
"T T I I I I I I T T I I I I T T T T T I I I I I I K c k * & $ #     # * d d 4 * k K T I I I I I I I I I I I I I T T T I I I T T ",
"I I I I I I I I I T T T T T T T T I I I I I I I K K v x d * * & $ # # * x v c v K I T I I I I I I I I I I I I I I I I T I I I I ",
"I I I I I I I I I I T T T I T T I I T I I I I I K K K K J v x k s & * v I v k k K I I I I I I I I I I I I I I I I I T T I I I I ",
"T T I I I I T T T T T T I I I I I I T T I I I I I I I I I I I I W R W j.N.W x k K I T I I I T T I I I I I I T I I I T I I I I I ",
"T I I I T T T T T T T T I I I I T T T T I I I I I T I I I I T W j.f.p.j.C.W v v T I I I I I I T I T T I I T T I I I I I I I I I ",
"T T I I I I T T T I T T T T I I T T I I I I I I I I I I I I T T W T I W W I I I I I I I I I I T I I T T T T I I I I I I I I T T ",
"T T I I I I T T I I I I T T I I T T T I T T I I I I I I I T T I I I I I T T I I I I I I I I I I I I T I I I I I I I I I I I T T ",
"T T T I I I T T I I I I T T T T T I I I T T T T I T I I I T T I I I I I I I I I I I I I I I I I I I I I I I I I I I I T I I I I ",
"T T T T I I T T I I I I T T T T I I I I T T T T T T I I I T T I I I I I I I I I I I I I I I I I I I I I I I I I I I T T I I I I "
};
