/* XPM */
static char *rcp03181503930402[] = {
/* columns rows colors chars-per-pixel */
"64 64 72 1 ",
"  c #120D0E",
". c #190F0E",
"X c #140F10",
"o c #151215",
"O c #1C1415",
"+ c #171418",
"@ c #1D161A",
"# c #1E1B1D",
"$ c #211715",
"% c #221917",
"& c #21171A",
"* c #251C1D",
"= c #291F1D",
"- c #1E201F",
"; c #27201F",
": c #2A211F",
"> c #1F1D20",
", c #231E21",
"< c #281F21",
"1 c #1F2120",
"2 c #242223",
"3 c #2B2323",
"4 c #262827",
"5 c #2F2827",
"6 c #272628",
"7 c #2B2629",
"8 c #272928",
"9 c #2C2B2C",
"0 c #302625",
"q c #322827",
"w c #312629",
"e c #332B2C",
"r c #382E2C",
"t c #2D312F",
"y c #2E2E30",
"u c #332E30",
"i c #382F30",
"p c #2F3332",
"a c #333435",
"s c #3B3334",
"d c #353837",
"f c #363638",
"g c #3B3738",
"h c #363A39",
"j c #3C3A3B",
"k c #403738",
"l c #423C3D",
"z c #3F3E40",
"x c #433F41",
"c c #483F40",
"v c #454243",
"b c #4A4344",
"n c #4A4649",
"m c #4C4A4B",
"M c #514C4E",
"N c #534E51",
"B c #555353",
"V c #585657",
"C c #5B5759",
"Z c #5D5A5C",
"A c #635D5E",
"S c #645F61",
"D c #656263",
"F c #696566",
"G c #6C676A",
"H c #6C696B",
"J c #726D6F",
"K c #736E70",
"L c #757172",
"P c #787475",
"I c #797478",
"U c #838282",
/* pixels */
"fffaaaaaafffffaafffffaaaaaaaaaaaaaaaaaaaaaaaaaaaaaaaaaaaaaaaaaaa",
"ffffaaaaafffffaaffffaaaaaaaaaaaaaaaaaaaaaaaaaaaaaaaaaaaaaaaaaaaa",
"ffffffaaffaafafaffffaaaaaaaaaaaaaaaaaaaaaaaaaaaaaaaaaaaaaaaaaaaa",
"fffffffafaaaaaffafffaaaaaaaaaaaaaaaaaaaaaaaaaaaaaaaaaaaaaaaaaaaa",
"ffffffffaaaafaafaaffffaaffffafffaafaffffafaaaaaaaaaaaaaaaaaaaaaa",
"fffaffffffaffffffaaaaaaaaaaaaaaaaaaaffaaaaaafaaaaafaaaaaaaaaaaaa",
"ffaaaaffffffaaaaaaaapaaaaayy9999aaaaaaaaaaaaaaapaffayaaaaaaaaaaa",
"ffaaaaaaffffaappaaapyuuuee9999999eeeuee99999aaaaaaaapaaaaaaaaaaa",
"ffaaaaaaffffaaaaaaap977799eaaaffaaaaaae999779paaaaaaaaaaaaaaaaaa",
"ffaaaaaaffaaaaaaaa9622699eagjlllljjjggaue99799yaaaaaaaaaaaaaaaaa",
"ffaaaaffffaaaaaaay9227euaggjlxvvbvvvljjgaauy999paaaaaaaaaaaaaaaa",
"faaaffffffaafffap999yagggjjllvvvbvvvvljgggff9679aaaaaaaaaaaaaaaa",
"aaaaaaffaaayaaa9767yaggggjlllvvvxxxxllljjgjje779affaaaaaaaaaaaaa",
"aaaaaaffffa9aau979999gllkgglbbllcbcclllggggaue99uafauaaaaaaappap",
"aaaaaaffffaaaa9999eeesgkggklbbclllllllkgsssaueee99uaaaaaaaaapppp",
"aaaaaaffffaaa9969eaaarsssggglllkllllkgsssraaaare777uffaaaaaapppp",
"aaaaaafffffaa7729aggsurissssssssggggsssirrraaaae6229ffaaaaapapap",
"aaaaaaffffaa97229agjsreerissssssssssssrreeeaaaaa7222aaaaaaaaaaap",
"aaaaaaffffaa92229aggare55rsssssgsiisirreeeeauaga92#29aaaaaapaaaa",
"aaaaaaffffaa72229gggesrw5ersrrrrrrrrireeeeeaeaag92#;7eaaaaapppaa",
"aaaaaffaaaa92#2269eaure535eeeeeeeeeeeeeew5euee99222##7aaaaaaappp",
"aaadaffaaaa92#2226erere55weewwweeeeeeeeew59ee9972222-7aaaaapappp",
"aaddaffaaaa92*22269e9ee535eeeeeeeeeeeeew55599576222227aaaaaaappp",
"aaddaffaaaa922222269633=*<5eeeereeeeww5533366666222229aaaaaaappp",
"aaddddffaaa92*22226622=**=35355e55555333<=232222222229aaaaappppp",
"aaddddffaaa92#222266233=*=33<<333<3333<==*=33222222227aaaaaaappp",
"aaadaaaafaa7*#222266,33=*=<3<<33===<<<=====232222222-7aaaaaapppp",
"aaaaaaaaffa72222<2222<====<333333<<<<<===*=33322222219aaaaaaaaaa",
"aaaaaaffffa962,,<2332<<==<<33333333333<===**<222221119aaaaaaaaaa",
"aaaaaaffffa96,#,2672*<33<3333333<3333<<===**=2322##129aaaaaaaaaa",
"aaaaaaffafaa92,>,222,33333333333<<333<<====<36762*128paaaaaaaaaa",
"aaaaaaffafaap962,,<2633333333333<<<33<<====<3332,249aappaaaaaaaa",
"aaaaaaaaaffaaa972,,2633333<3333<<<<<333<<==*****229ahaaaaaaaaaaa",
"aaaaaaaafffaaaau973<*=<====<<<33===<<33<<==<<=<29uafaaaaaaaaaaaa",
"aaaaaaffffaaaaaaga9,#*=***==<33<====<3<===<3559auaadppaapaaaaaaa",
"aaaaaaffffaafjgaxnx7e53<=*=<3<===**=33=**333gbMma7tjppaapaaaaaaa",
"aaaaaaffffffufjvMmvgms5533555533==<3ee5333egMSJJvfapdaaapaaaaafa",
"aaaaaaffafffufznNMxage55eerrrew5335errew55ekAnNPnffh9pappaaaaaff",
"aaaaaaffafffjjxmZDZbu335erssieew555eerreew55bMZJSjajpppppaaaaaff",
"aaaaaaffffffjzxvNHIGu<=35errreew55weweeew533bAKLVva2hdppaaaaaaff",
"aaaaaafffffffagnNNNmu=&=3weeewew5weeeeee5<*3bnmNCzad9pppaaaaaaaa",
"aaaaaaffffff9yvZma5u2@@*35eewwww3weeeeee3*OX*ejbbDV-papaaaaaaaaa",
"aaaaaaffffff9alVJFm6<33<<3we37eeeeeeew73<<5a27avUZja9tpppppppppp",
"aaaaaafffffffjvnDmge@<3<<7ee7weiiieee73<,&*#@avvmmmnappppppppppp",
"aaaaaafaffaa9nmjbAAg**<<<3wwwweeeeeew3<*&O<a29BUVvvm29aaapppppaa",
"aaaaaaaafffffjMDjf9#3<*<<3weeeeeeeeew3<*&@+#aeavmZCbjfaaaappaaaa",
"aaaaaaffafjjjBVv2jj*3<*<37weeeeeweeeew3<<**<e9jAZBZGgaaaaaaaaaaa",
"aaaaaafffffffNm7#+XX<**33wwereewwweeeew3<=**<<evgavZvgaaaaaaaaaa",
"ffaaaaffffff7vv6ea3 6=*3wwwerre5wweeeew3==&@s<3lgulBlgaaaaaaaaaa",
"aaaaaaffffffjNZCMle*e3*;3333ww3353wew333**&&u55gMADCngaaaaaaaaaa",
"aaaaaaffffgjjjja966eu3*==;;33033533w3:3w***@esu5ejbbgaaaaaaaaaaa",
"aaaaaaffffff9767agsu933;;;;;==*=3==3=*=:%*3eaggse3269uaaaaaaaaaa",
"aaaaaaaaffaafjjfaeeuse53:::=*%$$=**3=**=O%5ge59sjjfaaaaaaaaaaaaa",
"aaaaaaaaffffa9779eaggr3;;3qq3333w33req3:$*39euaau99aaaaaaaaaappp",
"aaaaaaafffa9afjjllgaeeq;=30w;**=3;3eew3=$=5ajjjfytaaaaappppppppp",
"aaaaaafffffffgfa999usse3=33;%..O;**33=**@3eaa99paaptpppppppppppp",
"aaaaaaffaaaaaaffggggsse3=335*#@*3**=;=***9afaaaffa9pfaapappppppp",
"ffffffffaafaffffffffffa9#*22##*#52**22*#*9aaaaaaaaaaaaaaaappaaaa",
"afffffffffffafaaffffaau7*272+@*,92**22,#*7uaaaaaaaaaaaaaaaapaaaa",
"affffffaffffaaaaafffay97*,<,o@##72**,,#@#29aaaaaaaaaaaaaaaaaaaaa",
"aaffffaaffafffaaaafffgjj92>>,2,+22,>,,#@#,9aaaaaaaaaaaaaaaaaaaaa",
"aaffffaaffaaffffaafffffj7#+@272o6722622,27yaaaaaaaaaaaaaaaaaaaaa",
"aaafffaafaaaffffaaaffaaa22699fa7yy99y9999yaaaaaaaaaaaaaaaaaaaaaa",
"aaffffaaaaaaffffaafffjjfyfjh99aaapaaaaaaaffaaaaaaaaaaaaaaaaaaaaa"
};
