/* XPM */
static char *rcp03144285080196[] = {
/* columns rows colors chars-per-pixel */
"64 64 241 2 ",
"   c #0D080A",
".  c #130E0F",
"X  c #1E1A1A",
"o  c #1B1616",
"O  c #1F1F0B",
"+  c #260A08",
"@  c #21140C",
"#  c #2B1B0D",
"$  c #291607",
"%  c #32150D",
"&  c #331A0D",
"*  c #3C170C",
"=  c #2D1413",
"-  c #251B13",
";  c #2C1D14",
":  c #241D1C",
">  c #2C1E1B",
",  c #221713",
"<  c #3B1512",
"1  c #341B13",
"2  c #3A1C14",
"3  c #351D1A",
"4  c #3B1D1B",
"5  c #351512",
"6  c #2C2314",
"7  c #24211C",
"8  c #2C221C",
"9  c #2C291C",
"0  c #232216",
"q  c #312214",
"w  c #3B2214",
"e  c #34241C",
"r  c #3B241C",
"t  c #342A1C",
"y  c #3A2B1D",
"u  c #302816",
"i  c #3B311F",
"p  c #231D21",
"a  c #1B2422",
"s  c #262323",
"d  c #2A2423",
"f  c #2C2925",
"g  c #2B2629",
"h  c #2D2B2B",
"j  c #25292A",
"k  c #332522",
"l  c #3C2522",
"z  c #342B24",
"x  c #3C2B24",
"c  c #342629",
"v  c #322D2C",
"b  c #3B2C2B",
"n  c #3C252B",
"m  c #2C312F",
"M  c #3B3224",
"N  c #35312E",
"B  c #3C332C",
"V  c #3D392A",
"C  c #363224",
"Z  c #2E2C31",
"A  c #312F31",
"S  c #3C2F32",
"D  c #3F2730",
"F  c #2E3335",
"G  c #2F3538",
"H  c #333435",
"J  c #3A3434",
"K  c #3C3935",
"L  c #333539",
"P  c #3B3639",
"I  c #35393A",
"U  c #3B3A3A",
"Y  c #333836",
"T  c #4B0D06",
"R  c #5A0E09",
"E  c #530909",
"W  c #461709",
"Q  c #55180E",
"!  c #4A1B13",
"~  c #471919",
"^  c #561916",
"/  c #570A11",
"(  c #650C0D",
")  c #61110D",
"_  c #640D12",
"`  c #6B1114",
"'  c #651816",
"]  c #42251B",
"[  c #462B1C",
"{  c #482416",
"}  c #512216",
"|  c #56281C",
" . c #43311F",
".. c #4A200E",
"X. c #64231B",
"o. c #4C1D20",
"O. c #561D24",
"+. c #631921",
"@. c #422525",
"#. c #432C23",
"$. c #422628",
"%. c #432C2B",
"&. c #4A2E2A",
"*. c #562724",
"=. c #433324",
"-. c #4B3325",
";. c #433824",
":. c #43352C",
">. c #4A342C",
",. c #433A2C",
"<. c #4D3A2B",
"1. c #53362C",
"2. c #523B2C",
"3. c #5A3626",
"4. c #482D33",
"5. c #423633",
"6. c #4C3333",
"7. c #443B34",
"8. c #4B3C34",
"9. c #433C3C",
"0. c #4A3D3A",
"q. c #463739",
"w. c #523B34",
"e. c #583C3A",
"r. c #65382C",
"t. c #673C33",
"y. c #6C2221",
"u. c #3F403B",
"i. c #5B432E",
"p. c #4C4135",
"a. c #44413C",
"s. c #4B423C",
"d. c #544234",
"f. c #5B4434",
"g. c #53443B",
"h. c #5C463A",
"j. c #5E493C",
"k. c #54493E",
"l. c #57523F",
"z. c #48402E",
"x. c #6C463C",
"c. c #62493B",
"v. c #6A4838",
"b. c #754938",
"n. c #745039",
"m. c #453F41",
"M. c #3F4040",
"N. c #454241",
"B. c #4B4442",
"V. c #4E4D4A",
"C. c #494945",
"Z. c #514543",
"A. c #544B43",
"S. c #5A4C44",
"D. c #544C4B",
"F. c #5B4F4C",
"G. c #5C5143",
"H. c #52514C",
"J. c #595249",
"K. c #545451",
"L. c #5C5554",
"P. c #5B5955",
"I. c #644C42",
"U. c #6D4D42",
"Y. c #6A4C4B",
"T. c #724D42",
"R. c #6D5243",
"E. c #645A4B",
"W. c #6C5D4D",
"Q. c #655346",
"!. c #73554A",
"~. c #735B4A",
"^. c #7D5B4B",
"/. c #785545",
"(. c #655D55",
"). c #635C5C",
"_. c #685955",
"`. c #7B5B54",
"'. c #755A57",
"]. c #5F6159",
"[. c #6E6252",
"{. c #68625E",
"}. c #756857",
"|. c #766A5A",
" X c #7A6558",
".X c #736853",
"XX c #6C6463",
"oX c #696361",
"OX c #7A6E61",
"+X c #766A67",
"@X c #787269",
"#X c #787370",
"$X c #835D4C",
"%X c #875A49",
"&X c #845D53",
"*X c #8A5F56",
"=X c #814F43",
"-X c #85624E",
";X c #836454",
":X c #896455",
">X c #84645B",
",X c #856A5C",
"<X c #8B6C5B",
"1X c #956858",
"2X c #93715E",
"3X c #8C715F",
"4X c #856A62",
"5X c #926D61",
"6X c #827565",
"7X c #887768",
"8X c #937564",
"9X c #9C7B6C",
"0X c #957767",
"qX c #847B73",
"wX c #8A7B77",
"eX c #967F71",
"rX c #A67B68",
"tX c #A87B72",
"yX c #948575",
"uX c #988C7D",
"iX c #958876",
"pX c #A5816C",
"aX c #B0846E",
"sX c #A58475",
"dX c #A98879",
"fX c #B48A79",
"gX c #B4947F",
"hX c #957E81",
"jX c #988F82",
"kX c #A38E82",
"lX c #AC9285",
"zX c #BC9382",
"xX c #B79789",
"cX c #B88F83",
"vX c #BDA297",
"bX c #C69885",
"nX c #C99F8B",
"mX c #D3A48C",
"MX c #D9A994",
"NX c #C2A089",
"BX c #EEBDA6",
/* pixels */
"Y Y Y Y Y Y H H H H H I I H H H H J J H H H H H H H H H H H H H H H H H H H H H H H H H H N N N H I K H H H H H H H Y L L L L L ",
"Y Y Y Y Y Y H H H H H H H H H H I I I I I I H H H H H H v v v v H H H v v N H H Y H H J J J J J J I H H H H H H H H Y L L L L L ",
"Y Y Y Y Y Y H H H H H H H H H I I I I I I H H H H H H v H H A A A A A A v v H H H H H J J I K K K J H H H H H H H H Y L L L L L ",
"Y Y Y Y Y Y H H H H H H H H H H J H H H A v v h v v H H I U U U U P I H H H H H H v N N N J J K K H H H H H H H H H Y L L L L L ",
"Y Y Y Y Y Y H H H H H H H H H H H v v h h v v v v v H P U 9.9.9.N.m.9.9.U I H H v v v N v v N J I H H H H H H H H H Y L L L L L ",
"Y Y Y Y Y Y H H H H H H H H H H H v v g g A I H H H I 9.9.9.9.9.N.N.N.m.9.U I J N v N J v f v N I I H H K H H H H H Y L L L L L ",
"Y Y Y Y Y Y H H H H H H H H H H J A v v g J P I J I U 9.N.B.m.9.9.q.9.9.9.9.U P J J P 9.v f f N K I H H I H H H H H Y L L L L L ",
"Y Y Y Y Y Y H H H H H H H H H H J J A v v I 9.B.J J 9.B.9.B.B.0.5.9.9.9.9.9.9.P J v B K N v v N J H H H H H H H H H Y L L L L L ",
"Y Y Y Y Y Y H H H H H H H H H H v v A H J J B z z B J B 7.B.s.B B.B.0.7.s.B.s.B z 9.a.N N v v v N H H H H H H H H H Y L L L L L ",
"Y Y Y Y Y Y H H H H H H H H H A h h v H P J B z s.Z.0.B s.S.S.s.s.Z.g.7.B 7.5.B z 5.K v N N v f f v H I H H H H H H H L L L L L ",
"Y Y Y Y Y Y H H H H H H H H H h g f v J 7.b z B ,.x x 7.p.M :.A.p.s.A.S.k.s.s.s.8.x z N K K N g s f v H H H H H H H H L L L L L ",
"Y Y Y Y Y Y H H H H H U H h g s f v H I P :.,.p.g.k.W.wXyXOXOXuXjX@X|.7XuX6XW.G.G.:.z B K K J h s g h N H H H H H H Y L L L L L ",
"Y Y Y Y Y Y H H H H H H H g s s h v J P 5.:.p.E.6X6X|.W.W.W.[.|.6X[.E.|.6X[.E.|.7X[.k.B J J J v h f g h H H H H H H Y L L L L L ",
"Y Y Y Y Y Y H H H H H H h g s s f v J 7.7.p.[.uXuX}.d.t q t t u u t i i t y d.}.yXuXOX7.B N N J v d s s h H H H H H Y L L L L L ",
"H H Y Y Y Y Y Y H H H h g s d h z f B 7.:.=.Q.yXW. .q t M M C t M ,.V 6 # y ;.<.Q.6X6XE.7.B b z N d X X g H H H Y Y Y L L Y Y Y ",
"H H L L L L Y Y Y H F h h 7 : z 8 8 x p.y c. X Xf. .r t z 9 9 z f C C 8 u =.=. .f. XyXkXg.:.x k z 8 : s g Z H H H L L Y H H H H ",
"H H L L L L L Y Y H h g s 8 7 - 6 e y -.f.5XsX8X8XR.2.<.:.t e z V t t :.<.-.j.7X8XdXlXeXd.=.y q 8 8 d d : g H H H L L Y Y H H H ",
"H H L L L L L L L H H v : - 9 M t y =.2.;X0XsXfXxXsX8X>XI.I.I.d.h.<.d.W.h.~.9XvXdXlXdX0X Xc.#.; e k 8 : d h H H H L L Y Y Y Y Y ",
"L L L L L L L Y Y H N v : 8 q q r <.~.0X8X9XdXzXfXcXfX9X2X9XtX5XR./.<XdX8XsXxXNXxXxXxX9X8X,X!.f.r q q e : h H H H Y Y L Y F F F ",
"L L L L L L H H H H v z k ; e <.2.~.8XpX:X:X*X&X%X*X1X2XzXbXnXMXbXzXzXzXzX8X&X&X:X:X;X^.2X2X<X;Xh.#.q > 8 z N H H H Y L L F F F ",
"L L L L L L H H H H N z - q =.j.8X0X<X^.^.3.! ! ! ! } r.%X1XrXmXBXMXaX1X%Xr.} ! * { { 3.:X-X:X8X,Xj.r @ k z N H H H Y L L G F F ",
"L L L L L L H H H H z z k e r #.5XlX9Xx.5X^./.*Xx.*.} | Q b.rXmXMXbXrX%X| r.3.* % x.$Xn.$X$X8XgX8XI.=.; - z N H H Y L L L G G G ",
"L L L L L Y H H H H v z k l j.0X,X^.n.v.;XU.x.&X`.T.v.b.rXaXaXaXmXfXrX2X8X&Xv.1.R.0X:X| n./.-X<XR.~.Q.x - z J H H H H L L G L L ",
"L L L L L H H H H H v v b x 8.I.r & & ] !.>X`.Y.,X>X<X8Xn.-XpXgXNXzXpX<XR.U.~.4X XI.v.^./.3.{ [ w h.S.:.k z H H H H H L L G G G ",
"Y Y Y Y Y L L H H H H J 9.s.S.I.r 1 % 2 e.R.`.0XvXvXxXdXc.2.2.-.& [ f.c.w.j. XlXvXkX,Xv.3.* $ & w g.Q.s.B N H H H H Y G G G G G ",
"Y Y Y Y Y L L L L L H H 9.q.q.0.x l 3 = 1 r 1.!.4X4X'.w.>.x x :.x r e e x w.W.4X Xc.-.2 w & & w r 8.g.7.J H H H H H H Y Y F F F ",
"H H H H H H L L L L H P P P J S c l e = = 3 ] ] 4 >.w.:.0.5.B 5.k 8 k b b x l x @.r 2 & 1 & 1 e e B 5.J J H H Y H H H Y Y Y Y Y ",
"H H H H H H L L L L L H P P q.q.S b c > = + + 4 @.&.6.6.q.5.S b c c c b n e 3 4 r 2 % & & 1 e x :.5.5.J J H H Y H L H H Y Y Y Y ",
"H H H H H H L L L L L I L H J J P S b c 3 = % < 5 4 @.$.6.4.4.$.D n D %.$.4 1 1 2 5 % # ; e x :.5.J b A H H H H L L H H Y Y Y Y ",
"J H H H H H Y Y Y Y L I H h A P 9.J c c n r 2 2 < < ~ o.o.O.O.O.~ ~ ~ ~ *.~ < < % 2 r r #.e k 5.J P P H h A H L L H H H H H H H ",
"J J H L L H H Y Y Y Y I H a.N.U 9.P v > b >.Y.5Xt.! T ^ ^ E E / ' +.+.+.^ ^ ~ ~ ~ `. X%.%.b b v J g g P H H H L H H H H H H H H ",
"P P H L L H H Y Y Y H h g H I I 9.L.D.c %.#.T.sX=X^ T R ' ( ( ` ` _ _ _ E ^ | *.t.5X>X%.6.5.s.(.B.U A h P L L H H H H H H H H H ",
"P H L L L H H H H H H H U h I D.B.XX).b %.#.r.%X1Xb.^ E ) ( ( ( ( ` ` ' y.X.| r.tX&X1.l :.b Z.qX).K.N.g H L L L L L Y H H H Y Y ",
"L L L L L L H H H H H H N.K U H.H.s.J k ; ] 3.v.fX%XX.Q ' R R ) R ' ' X.X.^ } t.tX!.-.r x 7.D.).oXN.A H L L L L L L Y Y H H H H ",
"H H H H L L H H H H H A H v H 9.@XD.9.Z.8 # w i.sXv...} Q T T Q T T Q ^ W } v.;XR.d.y ; 8._.XX@X).U h H I L L L L L H Y H H H H ",
"H H H H L H H H H H H H H H H 9.#X+X{.L.z 6 6 ;.OX~.i.{ $ * W * W { | 1.[ <.W.yX[.,.6 8 A.XX#XXXK.H h H H L L L L L L Y H H H H ",
"H H L L L H H H H H H v H I 9.a.D.oX).J 7 - O 6 l.6X}.t # #.-.] 2 #.1.2.-.=.G.qXE.V 9 f a.L.P.D.N.h h U F F L L L L L H H H H H ",
"L L L L L H H H H H H H N.P.L.a.B.D.B.N f 0 9 V V E.Q.t y x #.#.r r l e x B Z.(.K K s.H.9.B.D.H.K U I j L L L L L L L Y H H H H ",
"L L L L L H H H J J H H B.K.D.9.N : d K z N B ,.x k.S.#.x @.>.e.@.&.6.%.%.%.g._.D.(.XXXXs.a.a.N.V.C.I j F G L L L L L Y H H H H ",
"L L L L L H H H J J m.L.oXB.P N.K : X f z b x x #. X X#.@.@.e.'.e.Y.Y.6.l %._.hXq.Z.D.s.C.K u.K.K.N.F j F L L L L L L H H H H H ",
"G L L L L H H J J J 9.D.m.P P 9.d X : N J x x 6.>.w.6.@.r 4 @.e.@.%.%.@.6.$.l %.%.%.5.s.@XH.N.P.N.j a Y F F G L L L L H H H H H ",
"G L L L L H H J J J 9.D.XX).D.J f N v 7 N x x >.8.>.@.1 l 3 1 1 + 3 x 3 = = 8.wXwXS.0.L.H.].H.h F m j j G G G G L L L H H H H H ",
"G L L L L H H J J J P q.g m.9.: N N J a.8 z M M E.7X[.6 V M x :.,.M e q s.V A.qXJ.(.(.C.N a.U j U I Y I F G G G L L L H H H H H ",
"L L L L Y H H H H J J J I h v N.H J N d K C V l.yX7XW.z.;.M V ,.t t M V 7.6 t (.jXJ.7.P.K N N Y F F F Y F G L L L L L H H H H H ",
"Y Y Y Y H H Y H H H H H H H H H Y H H H N B p.G.6XG.;.=.,.M M M t z B B 9 z M M (.s.K V.N.U H F H Y L L F Y L L H H H H H H H H ",
"Y Y Y Y H H Y Y Y Y Y Y Y Y H H Y Y H H N z e t g.x # $ ; 6 6 t ; e z k @ - - , s.f , f f m Y H L Y Y H Y Y H L H H H H H H H H ",
"H H Y Y H H H H H H H Y H H H H Y Y H H N 7.7.x g.8.y ; ; ; 6 8 @ - ; ; , 8 z z A.9.v f m L U U L H F F Y Y L L H H H H H H H L ",
"H H Y Y H H H H H H H H H H H H Y Y Y H H B k 8 :.,.x - ; 8 ; - x k > > d B z - d 7 d H H I I Y H H H Y I L L L H H H H H H H L ",
"H H H H H H H H H H H Y Y Y H H H H H H H J b x 5.0.5.k z z > , z 8 : 8 9.D.Z.v > d h H H H H H H H L L L H H H L L H H H H L L ",
"H H Y Y H H H H H H H Y H Y H H Y H H H H v z v B A._.F.D.5.k : z d : f 9.D.D.J p g H H H Y H H U L L Y H H H H L L H H H H L L ",
"H H H H Y H H H H H H H H H H H Y Y Y H H J S b J ).wXwXXXq.: o d d p p s v A g X h H H H Y Y H H H L L L H H H L L H H H H H H ",
"H H H H H H H H H H H H H H H H Y Y H H H A J 9.b 0.L.XXD.J : X d s : X g g g g p h H H Y H Y Y H H H H L H H H H H H H H H H H ",
"H H H H H H H H H H H H H H H H H H H H H H J J : : d f X .     s g p p Z h h Z j h H H L H H H L L H H H L L L H H H H H H H H ",
"H H H H H H H H H H H H H H H H H H Y H H A v v : d g g : : : : A A h j H A Z Z j h H H L H H H L L L H H H H L H H H H H H H H ",
"H H H H H H H H H H H H H H H H H Y H H H v h f s f f p o o .   h H A Z P H Z L Z Z H H L L H H L L H H H H H H H H L L H H H H ",
"H H H H H H H H H H H H H H H H Y Y Y H H I I v d f v h : 7 X o h H H F U H H L H L L H H L H H H H H H H H H H L L L L L H H H ",
"H H H H H H H H H H H H H H H H H Y H H H v v H v J U U h g 7 X h H H H U Y F I H L L H H H H H H H H H L L L L H H H H H L L H ",
"H H H H H H H H H H H H H H H H H Y H H H H a.V.N.B.V.V.K h g h v H H H U H F I H H L H L L H H H H H H H H L L H H H L L H L L ",
"H H H H H H H H H H H H H H H H H H H H Y Z H U H H K U H h H U H H H Y I H H L H Y H H L L L H L H H H H H H H H H H L L H H H ",
"H H H H H H H H H H H H H H H H H H H H H H H H H H H H H H H H H H H L H H H H H H H H L L L H L H H H H H H H H H H H H H H H ",
"H H H H H H H H H H H H H H H H H H H H H H H H Y Y H H H H H H H H H H H H H H H H H L L L H H L L H H H H H H L L H H H H H H ",
"H H H H H H H H H H H H H H H H H H H H H H H H Y Y H H H H H Y Y H H H H H H H H H H H H H H H L L H H H H H H H L H H L H H H ",
"H H H H H H H H H H H H H H H H H H H H H H H H Y Y Y Y H H H H Y Y Y Y L L L L Y Y L H H H H H H H H H L L L H H H H H L L L H ",
"H H H H H H H H H H H H H H H H H H H H H H Y Y Y Y Y Y Y Y Y Y Y Y Y Y L L L L Y Y L L H H H H H H H H L L L H H H H H L L L L "
};
