/* XPM */
static char *rcp0317089774796[] = {
/* columns rows colors chars-per-pixel */
"64 64 204 2 ",
"   c #140A04",
".  c #140D0B",
"X  c #1C0F09",
"o  c #1B130D",
"O  c #17110A",
"+  c #140E11",
"@  c #131312",
"#  c #1C1413",
"$  c #1E1915",
"%  c #1A1719",
"&  c #1D1B1B",
"*  c #0B0D0C",
"=  c #2E110A",
"-  c #251B0E",
";  c #271A0C",
":  c #32170B",
">  c #3A1A0B",
",  c #201613",
"<  c #241B14",
"1  c #2B1E14",
"2  c #231D1C",
"3  c #2B1E1C",
"4  c #3C1D13",
"5  c #341E1C",
"6  c #301B16",
"7  c #1F201F",
"8  c #3F210F",
"9  c #2C2213",
"0  c #25211E",
"q  c #2B221D",
"w  c #2F281A",
"e  c #322314",
"r  c #352915",
"t  c #33251B",
"y  c #3B251B",
"u  c #342B1C",
"i  c #3C2D1D",
"p  c #392716",
"a  c #3E321C",
"s  c #37301D",
"d  c #1F1D21",
"f  c #231E22",
"g  c #1E2121",
"h  c #252224",
"j  c #2B2423",
"k  c #2C2926",
"l  c #272528",
"z  c #2A2629",
"x  c #2D2A2C",
"c  c #262928",
"v  c #322423",
"b  c #342A24",
"n  c #3B2C24",
"m  c #35262A",
"M  c #322C2C",
"N  c #3A2D2C",
"B  c #392621",
"V  c #3E3225",
"C  c #34312D",
"Z  c #3C322D",
"A  c #2E2E31",
"S  c #332E31",
"D  c #392D32",
"F  c #2E3234",
"G  c #333436",
"H  c #3B3334",
"J  c #363837",
"K  c #3C3936",
"L  c #343639",
"P  c #3B3439",
"I  c #373939",
"U  c #3C393A",
"Y  c #442C1C",
"T  c #412418",
"R  c #43351E",
"E  c #422F2E",
"W  c #422B26",
"Q  c #433323",
"!  c #4D3223",
"~  c #453A24",
"^  c #4A3D25",
"/  c #43342C",
"(  c #4C3429",
")  c #43392C",
"_  c #4C3C2C",
"`  c #533C25",
"'  c #513D2C",
"]  c #583E2D",
"[  c #403433",
"{  c #433B35",
"}  c #4D3C33",
"|  c #40353C",
" . c #423C3C",
".. c #4B3C3A",
"X. c #523D33",
"o. c #4E422D",
"O. c #54412E",
"+. c #55432A",
"@. c #464037",
"#. c #4D4233",
"$. c #46423D",
"%. c #4B433D",
"&. c #544434",
"*. c #5C4B35",
"=. c #54443D",
"-. c #544A3D",
";. c #594A39",
":. c #5E523D",
">. c #644C3B",
",. c #644738",
"<. c #62553F",
"1. c #6C523E",
"2. c #70553E",
"3. c #3E3C41",
"4. c #443C41",
"5. c #483E42",
"6. c #3F4240",
"7. c #464244",
"8. c #4C4443",
"9. c #4D4944",
"0. c #464649",
"q. c #494549",
"w. c #4D4C4A",
"e. c #464843",
"r. c #544442",
"t. c #544A43",
"y. c #524C4A",
"u. c #5B4D4B",
"i. c #5A4845",
"p. c #5D5443",
"a. c #56514E",
"s. c #59524F",
"d. c #4E4D52",
"f. c #544D52",
"g. c #5A4D50",
"h. c #555254",
"j. c #5C5B5B",
"k. c #595656",
"l. c #664D45",
"z. c #635341",
"x. c #6E5C45",
"c. c #64504C",
"v. c #6E5C4A",
"b. c #685947",
"n. c #735945",
"m. c #645C53",
"M. c #655D59",
"N. c #695A5A",
"B. c #745D52",
"V. c #6F634C",
"C. c #7A614C",
"Z. c #6A615D",
"A. c #6B6452",
"S. c #746251",
"D. c #7C6351",
"F. c #7E6A55",
"G. c #776B5C",
"H. c #7C6C5B",
"J. c #7A635D",
"K. c #7F745C",
"L. c #5E5F62",
"P. c #645E64",
"I. c #636365",
"U. c #6C6463",
"Y. c #696A69",
"T. c #746765",
"R. c #7C7469",
"E. c #726C72",
"W. c #737274",
"Q. c #7D7572",
"!. c #836B53",
"~. c #866F5B",
"^. c #85735D",
"/. c #8C735B",
"(. c #91785F",
"). c #827662",
"_. c #82706D",
"`. c #897964",
"'. c #947C64",
"]. c #957E68",
"[. c #947B75",
"{. c #8D816A",
"}. c #99816B",
"|. c #8D8379",
" X c #9B8D74",
".X c #9F8679",
"XX c #A68D78",
"oX c #A8967E",
"OX c #B2997F",
"+X c #827E83",
"@X c #8B8389",
"#X c #958A85",
"$X c #9F9390",
"%X c #9E9689",
"&X c #A99486",
"*X c #A49693",
"=X c #B39C87",
"-X c #AFA188",
";X c #B5A189",
":X c #BAA59B",
">X c #BBA9A3",
",X c #C8AD9F",
"<X c #C1AFA9",
"1X c #CABBB8",
/* pixels */
"G G G G G G G G G G G G G G G G G G G G G G G G G G G G G L L G G G G G G G G G G G G G G G G G G G G G G G G G G G G G G G G G ",
"G G G G G G G G G G G G G G G G G G G G G G G G G G G G G L L G G G G G G G G G G G G G G G G G G G G G G G G G G G G G G G G G ",
"G G G G G G G G G G G G G G G G G G G G G G G G G G G G G L L G G G G G G G G G G G G G G G G G G G G G G G G G G G G G G G G G ",
"G G G G G G G G G G G G G G G G G G G G G G G G G G G G G G G G G G G G G G G G G G L L L L L L G G G G G G G G G G G G G G G G ",
"G G G G G G G G G G G G G G G G G G G G G G G G G G G M M G G G G G G G G G S A S G G L L L L L F F F G L L L G G G G G G G G G ",
"G G G G G G G G G G G G G G G G G G S S S G G H H G G M M M M S x M S G G S S G G P L G L L L L F F F F L L G G G G G G G G G G ",
"G G G G G G G G G G G G G G G G G G S S S S S S G G M M M G G H G G H H H H G G G G G G G L L L L L L L L G G G G G G G G G G G ",
"G G G G G G G G G G G G G G G G G S S S S M M M G G G G H P U  . . . . . .U U U P H G G G G L L L L L G G G G G G G G G G G G G ",
"G G G G G G G G G G G G G G G G G S S M x M M M S S S G G H P |  .4.4. . .4.$. . .U I K G G G G G G L G G G G G G G G G G G G G ",
"G G G G G G G G G G G G G G G G G S S x x k k k x M M M S G P P  .| | |  .$.$.$.$. .U U K G G G G G G G G G G G G G G G G G G G ",
"G G G G G G G G G G G G G G G G G S S x x k k x M S G H P 4.4.7.U P H U |  .$.$.{ K { $.K H G G G G G G G G G G G G G G G G L L ",
"G G G G G G G G G G L I G G G S l x S S h M H H H H H P | 4.4.4.8. . .8.{ H [ @.Z @.$. .y.$.K G j G H C G G G G G G G L L L L L ",
"G G G G G G G G G G G G G G S x l x S S M D H H H H H P |  .4.4.5.8.8. .$.%.{ C %.{ @.t.$.K  .9.| H G G $.I G G G G G L L L L L ",
"G G G G G G G G G G G A G G z l x M S S H H H H H H H H P | | 4.4.5. .H %.@.) Z ) { -.m.m.m.s.9.H 8.a.y.C G G G G G G L L L L L ",
"G G G G G G G G G G G A L A l h x M M S  .H H Z H H H H P P | | 4.| H  .%./ ) -.) p.R.%X#X|.R.M.a.U.Q.R.$.H G G G G G L L L L L ",
"G G G G G G G G G G G G G x h f x x M M P H H H H H H H P P P | 4.| | ..[ { #.#.p.A.R.|.m.t.t.t.8.%.9.y. .H G G G G G L L L L L ",
"G G G G G G G G G G G G x h h h l x M G H H H H H H H | | P P P H [ [ Z b } #.) b.p.-.#.t 9 q w b b b Z G G G G G G G L L L L L ",
"G G G G G G G G G G G G h & d l h x S P G H H H H P | | | | P P H H Z n n Q #.p.o.V r - 1 b b q M b b Z H G G G G G G L L L L L ",
"G G G G G G G G G G G A l h f h h x S G S H H H H H D P P P P [ H Z / / Q _ ;.z.p e t n t b M b k M M H G G G G L L L G G G G G ",
"G G G G G G G G G G G L G l h d f l x M M H H H H H P P P P [ [ / / _ ' ` !.F.Q Y y e 3 < v M M 0 h x G G L L L L L L G G G G G ",
"G G G G G G G G G G G G x l f d h z x S S H H H H P P P P D [ [ / Q ' x.XX XD.] b.S.B.i.%. .[ H G G G G A G L L L L L G G G G G ",
"G G G G G G G G G G A l h f h l x x x k k M M M D D D D D D N E } >.^.=X].}.~.>.n..X:X>X*XQ.s.$.7.U I L G G L L L L L G G G G G ",
"G G G G G G G G G G G x h h h l l l f 2 2 3 j v m m m m m m n W ( O.D.oX'.!./.XX,X,X>X<X1X*XU.$.H x x G 3.I L L L L L G G G G G ",
"G G G G G G G G G G G x h & & f f f f f l q q q j v v v v B n W X.}.=X].(.2.,.1.1.l.J.&X1X$XZ.| | G G G G L L L L L L G G G G G ",
"G G G G G G G G G G G x g & & h l h h j k j q q j f 3 3 3 B n / z.^.'./.(.2.` Y T ( ;.T.>X#XM.H  .U I P A G L L L L L G G G G G ",
"G G G G G G G G G G G A l h h l j h f f h q q q q 3 3 3 3 t n _ ~.].'./.OX!.n.D.! ,.c.c.*X#XN.H M M H 4.L L L L L L L G G G G G ",
"G G G G G G G G G G G S x l h f f h h l j j q q 3 3 3 3 3 y Q &.^.F.!.}.;X'.C.D.B.l.c._._.T.s.| M G I I G G L L L L L L L G G G ",
"G G G G G G G G G G G S A x l h h h h h h j j q 3 3 q q t n ) &.F.*.+.C.!.'.`.D.[.[._.T.r.N v Z | P G A G L L L L L L L L G G G ",
"G G G G G G G G G G G S G G S x l h h h h j j 0 0 0 q q q b V _ V.>.+.` *.1.v.B.J.J.N.r...Z M k M G L I L L L L L L L L L G G G ",
"G G G G G G G G G G G G G G G G x l h h j h 0 0 2 0 q q q w u Q b.*.^ R Q ' X.X.=.i.r.../ b j k M G G L L L L L L L L L L G G G ",
"G G G G G G G G G G G G G G G G S M x l z l 0 & 2 0 h j q q w i #.;.:.<.&.&.&.} } E E { b j j M H H G G L L L L L L L L L G J G ",
"G G G G G G G G G G G G G G G G G G G S x z l h & & & & $ < < 9 s ;.<.;.~ 1 e =.i...N v Z [ H H H H I I I L L L L I L L L G J J ",
"G G G G G G G G G G G G G G G G G G G G G G C k 2 & @ + . . X X   ; r _ O.Q y y W 5 5 M M N H | U G G G L L L L L L L L L G J J ",
"G G G G G G G G G G G G G G G G G L G G G C M j $ & h x f 3 , o 9 n i p O.] ! T = = 5 N H H H G G H P I L L L L L L L L L L L L ",
"G G G G G G G G G G G G G G G G G G G G C k 2 # 3 l S P f S S j B 1 e Y ! 1.,.> 4 4 y M G H P G G G P P G G L L L L L L L L L L ",
"G G G G G G G G G G G G G G G G G G G G x j h k  .h.E.@XP.f.P 3 q 1 r ' ,./.C.T 4 4 5 v M H P P L P P L G G L L L L L L L L L L ",
"G G G G G G G G G G G G G G G L G G G G A 0 0 H a.E.+X+XE.P.w.M q t r R *.D.n.Y : : 6 3 x G P P P P P L G G L L L L L L L L L L ",
"G G G G G G G G G G G G G G L L G G G G G & j w.j.W.W.P.j.7.M 2 < w r r Q x.n.! T Y B 3 x G P P H G L G G G L L L L L L L L L L ",
"G G G G G G G G G G G L L L L G G G J J I e.k.Y.Y.W.Y.0.I k 2 o < 9 r Q ~ ^.`.O._ } / 3 M H P P G G G L L L L L L L L L L L L L ",
"G G G G G G G G G G G L L L L G G G I U 6.j.Y.k.e.k.I.L.q.M 2 o 9 9 9 a ~ `.`.~ Q } / j M H P P G G G P P L L L L L L L L L L L ",
"G G G G G G G G G G G L G G G G G G L I J 6.w.k.w.W.W.d.3.j $ o w - 9 o.o.{.`.Q Q t v M G H P P G G G G G G L L L L L L L L L L ",
"G G G G G G G G G G G L G G G G G L L G G h I Y.L.I.W.+X7. .C o - s ~ ~ R K.).o.i 1 q H H H H G H G G G G G L L L L L L L L L L ",
"G G G G G G G G G G G G G G G G G G G G G c g g 0.h.Y.+Xh. .M < u r i o.^.oX{.&.#.n b H H H H P L G L L L L L L L L L L L L L L ",
"G G G G G G G G G G G G G G G G G G G G F x g @ 0.I U f.U.8.j   - r _ V. X X).p.G.-.Z K H H G G G L L L L L L L L L L L L L L L ",
"G G L G G G G G G G G G G G G G G G G G A x & * + h f.@Xy.....-.a a a ^  X{.z.r n m.M.K H H G G G L P G G G L L L L L L L L L L ",
"G G G G G G G G G G G G G G G G G G G F x z h % & G 5.8.g.[ B / 9 R *.x.-Xv.a Q n m.M.| K G G G G P P G G G L L L L L L L L L L ",
"G G G G G G G G G G G G G G G G G G G A x l & @ % q.h.5.N.i.u.G.i i *.`.-XS.Q u t m.U. .U H G G G P P L G G L L L L L L L L L L ",
"G G G G G G G G G G G G G G G G G G G A x @ @ x 2 h M  .u.i.} Q 9 Q :.G.).p./ b q m.U.U I L G G G L L G G G G G G G G G G G G G ",
"G G G G G G G G G G G L L G G G G G G G G & @ 2 0 3 j Z %.%.V 1 9 t n ) -.Z b C 0  .e.G G G G G G G G G G G G G G G G G G G G G ",
"G G G G G G G G G G G L L G G G G G G G G x 0 $ # $ $ o     X - o o t %.Z b b k 0 k G G G G G G G G G G G G G G G G G G G G G G ",
"G G G G G G G G G G G L L L G G G G G G G G C k 2 o o < j q < X 9 o < { Z j j k 2 M I G G G G G G G G G G G G G G G G G G G G G ",
"G G G G G G G G G G G L L L G G G G G G G G x j 3 3 j b M N N b v , $ q o # q H j x G G G G G G G G G G G G G G G L G G G G G G ",
"G G G G G G G G G G G L L L G G G G G G G G S l f h l j j v Z { b 2 q N j  .9.U P G G G G G G G G G G G G G G G G G G G G G G G ",
"G G G G G L G G G G G L L L L L L L L L G P P G z f 2 f k M v M M.u.D # . 7.k.7.4.I L G G G G G G G G G G G G G G G G G G G G G ",
"G G G G G G G G G G G L L G G G G G L L L L G S A x x l 2 2 3 b [ U.U.| M S P 3.L G G L G G G G G G G G G G G G G G G G G G G G ",
"G G G G G G G G G G G G G G G G G G G G G G L 3.A f f l l 2 3 k j j f # 2 f x 3.U G G L G G G G G G G G G G G G G G G G G G G G ",
"G G G G G G G G G G G G G G G G G G G G G A S L A l l k j 3 2 2 # # # # % & h A G L L L G G G G G G G G G G G G G G G G G G G G ",
"G G G G G G G L G G G G G G G G G G G G G G L I G l h f 2 & $ $ . . . & & f h d A L L L G G G G L G G G G G G G G G G G G G G G ",
"G G G G G G G G G G G G G G G G G G G G G F G L L G S x x k j 2 o . . & & l z h A L I G G G G G G G G G G G G G G G G G G G G G ",
"G G G G G G G G G G G G G G G G G G G G G L L G G G x j j b b k q 2 0 j j C G x G L L G G G G G G G G G G G G G G G G G G G G G ",
"L G G G G G G G G G G G G G G G G G G G G I L G G x j 0 C 9.s.a.{ K K H K G G G G F G G G G G G G G G G G G G G G G G G G G G G ",
"G G G G G G G G G G G G G G G L G G G G G G G F J J C k C $.9.$.C K K H K x A I G F G G G G G G G G G G G G G G G G G G G G G G ",
"G G G G G G G G G G G G G G G G G G G G G G G G G G G G G G G G G G G G G G G G G G G G G G G G G G G G G G G G G G G G G G G G ",
"G G G G G G G G G G G G G G G G G G G G G G G G G G G G G G G G G G G G G G G G G G G G G G G G G G G G G G G G G G G G G G G G "
};
