/* XPM */
static char *rcp03184385240389[] = {
/* columns rows colors chars-per-pixel */
"64 64 62 1 ",
"  c #0F0B0C",
". c #110C0F",
"X c #130F10",
"o c #161214",
"O c #1C1416",
"+ c #161719",
"@ c #1C1719",
"# c #17181A",
"$ c #1D1B1C",
"% c #201718",
"& c #241C1D",
"* c #1E1E21",
"= c #241E21",
"- c #281F20",
"; c #1F2022",
": c #252224",
"> c #2B2324",
", c #272629",
"< c #2B2629",
"1 c #27282A",
"2 c #2C2B2C",
"3 c #302728",
"4 c #332B2C",
"5 c #2F302F",
"6 c #2E2F31",
"7 c #322E31",
"8 c #382F30",
"9 c #2F3233",
"0 c #333435",
"q c #3B3334",
"w c #363638",
"e c #3A3739",
"r c #37383A",
"t c #3C393B",
"y c #403738",
"u c #443C3D",
"i c #3F3E41",
"p c #433E41",
"a c #483F40",
"s c #454143",
"d c #484244",
"f c #474548",
"g c #4A4749",
"h c #4C4A4D",
"j c #524C4F",
"k c #544E52",
"l c #555255",
"z c #5D5557",
"x c #5B575A",
"c c #5D5A5D",
"v c #60575A",
"b c #605B5F",
"n c #625E61",
"m c #646366",
"M c #6D6367",
"N c #676769",
"B c #6E696D",
"V c #716C6F",
"C c #736F73",
"Z c #747275",
"A c #7B7577",
"S c #7C7679",
/* pixels */
"00000000000www0000ww000000000000000000000000www000wwwwww0000wwww",
"00000000000www0w00www00000000000000000000000wwww00wwww0w0w00wwww",
"00000000000wwwwwwwww00wwwwwwww00wwww0wwwww00wwww0wwwww00wwwwwwww",
"00000000000wwwwwwwwww0wwwwwwwww0wwwwwwwwwwwwwwww00www000wwwwwwww",
"00000000000wwwwwwwwwwwww00wwwwwwwwwwwwwwwwwwww0wwwwwwwwwwwwwwwww",
"00000000000ww000000000ww0000ww0000w000000w00000wwww0000000wwwwww",
"00000000000ww0000000wwww00000000000500000000000000000000000wwwww",
"000000000000w000000wrw00770000004422224700000w000000w000000wwwww",
"0000000000000000000002222244700077742222222290000990w00000wwwwww",
"00000000000000www062<<<<<2440qqqqqqq07422<::12000090000000wwwwww",
"00000000000000www02,::<22400qtttuuutew042<:::1600009600000ww0www",
"0000000000000000062<,2700qqtuupssssuutq0722622220000600000wwwwww",
"00000000000ww00766222qeeetuupsssdsssputqq0wr02<260w090000000wwww",
"009990000000000042<<<0qqqqtuuuuuuuuuuuqqqqqq72<<2700400000000000",
"000990000000000422222qqqqyuuuuuuuuuauuyqqqqq72222400000000000000",
"009990000000004222240qqqyuuuuuuauuuuuuyqqq0700422220ww0000009000",
"00009000000w072<2240qq8qquyqqyuuyqqqqqqqqq4400042<25w00000000000",
"00009000000w9<<<<40qq444qqqqqqqyqqqqqqqq84440qq4<<<2000000000000",
"909900000000<:::27qqq433444qqqqqqqqqqqq84347qq04<:::250000000000",
"009990000000<:$:20qq0433334qqqqqyqqqqq843<20qq04<::::20000000000",
"999900000000:::<24qq0433334484448q888444323700072<<<250000000000",
"999900000005:$:<<20q43<<<<334333488444333<344744<<:::20000000099",
"999900000052:$=::<242<<<<<334433444444333<<44442:::::<0000000000",
"999900000002:*::::<2<<3<<33444434444333<<<<222<<:::::20000000000",
"999000000000:::<:::<:><>>><333333333333<>>:<<<<::::::20000000000",
"999000000009:::<::::=--&&&>><>>><<<<<<>>>:><<::::::::20000000000",
"99909000000<:::<:::::-&&&&->>>>>>>>>>>-&&&:<::::::::$<0000000000",
"99909000006<:=::::=::>-&&&->>>>>>>--&--&&&&::<<<::$$$<0000000000",
"000090000002:*=:<:==:>-&&&&&>>><>>>-->>-&&&:>><<:=&$:20000000000",
"900090000002:*=:<:==---&&&-&>>>>>>>-->>-&&&>----:::::20000000000",
"999000000006,==:<:-==---&&>>>>>>>>-&->>-&&&>:-&&:::::20000000000",
"000000000www2:==:=--::-&&-->>>>>>>>&->>-&&&:>>:-&$::<90000000000",
"000000000www02,:-==::-&&->>>>>>>>>>&->>-&&&-:>::&&:<500000000000",
"000000wwwww00072:::=--&&->>>>>>>>>-&->>-&&&&-->:<<20w00000000000",
"00000000ww00wwq72<::$&--->>>>>>>>-&&&--&&&&&&-:<220ww00000000000",
"00000000wwwwweetfq27@&:-&&---&&&&&&&%&&&&&><>4ujq070ww0000000007",
"00000000ww00teplCkq4t4>&&&>>>>&%%%&&&--&&&-4adzV4qr<ww0000000077",
"000000000w00tphcVCBxt4<>>><333>&&&><3333>>>8kMSA2<22w00000000077",
"000000000wwtwfnZnCSBfq3<<34qq43>>>34qqq43<<4uvnj4<0t250000000777",
"9999000000wwwwfcfkjts7:<<34q843<><34qq843<>3quu4<4ri000000000777",
"0000900000wwtwplfnl<=&&><34433<><3334443<>->upe4:200rw0000000000",
"000090000006:2fn2hk4oo%-34433<<<3333333<>>&&q0<$2022ww0000000000",
"999990006662:6tsxsq7<@O%>343>-><33444433>>::2qq62229000000000000",
"99999000060wwie<sp2. @--<343<><33344433<>-<0rtr01129www000000000",
"9999000000:o,tlcebc74<<>><33333444443<<>&&<wrw6:**:200w000000000",
"9999900000thmmxse7-o2<-&&>><333344433<>-&&:22:*#@:<900w000000000",
"0099990000rshiphq==<4-%&-><3443344433<>&&%&:*@++;20rwww000000000",
"00999900wwscmh0:7$@42&%-<3334443344433<>&%$++##*,9ww00w000000000",
"00999900wwtgNmg<o$<q<&&:333<34433344433>&%@+$:<2000090w000000000",
"009999000qtfhfq=:2772&&:3<<<333<<333<<<<&@@*190w00ww00w000000000",
"0999000000002:::4qq72&@&<>>><3<>><<>>>>>&O$:20w0000wwwww00wwwwww",
"00990000000000qwqqq74&@&--->><>>&->>>-&&&%&,60w000wwwwwwwwwwwwww",
"000000000009wwrrqq774:%&&&&&&&&&O%&>>>&&&&:290w000ww00wwwwwwwwww",
"90000000000000qqq7777<>&&&%%%%%%O%>443>&&-<60ww00www0000wwwwwwww",
"00999000000q0000qqqq04<>&&%%OOO%><38q3>%&>20ww000www00000w00wwww",
"909000000000qqwwq0qq004>&%%$OO$&<<<<<>%%&<7www000www00ww000wwww0",
"090000000000wwwwq077004<&&&&$$%&:&%&&%OO&3qwwww00www00wwwwww0000",
"00000000000000000000005<:::::=$$<$o@<:%O&20www0wwww000wwwwwwww00",
"00000000000000000000009<:::::$@@<$o@<<-@-<0wwwwwwww0000000wwwwww",
"00000000000000000000002<:::::&$@<@.o::&$-<7wwwwwwwwww00000wwwwww",
"000000000000000000000009222222<<<$@$:-$@:4qwww0www00wwww00wwwwww",
"000000000000000000000www00wwrwq02&$&:&@@:4wwwww0ww00wwww00wwwwww",
"00000000000000000000000000www0002:&:2:&&:40wwww0w000wwwwwwww000w",
"000000000000000000000wwwwwwww000e424qq74000wwww0ww00wwwwwwww000w"
};
