/* XPM */
static char *rcp03154622557765[] = {
/* columns rows colors chars-per-pixel */
"64 64 204 2 ",
"   c #080609",
".  c #130D0D",
"X  c #170705",
"o  c #15100F",
"O  c #18130F",
"+  c #0D0E12",
"@  c #130D11",
"#  c #0E1114",
"$  c #141115",
"%  c #1A1414",
"&  c #1E1915",
"*  c #141619",
"=  c #1A161A",
"-  c #171B1E",
";  c #1D191C",
":  c #2B1D0F",
">  c #21100D",
",  c #341C0A",
"<  c #231B16",
"1  c #2A1D14",
"2  c #231D1D",
"3  c #2A1E1B",
"4  c #341D17",
"5  c #361D18",
"6  c #3F220D",
"7  c #2D2014",
"8  c #25211C",
"9  c #2C221D",
"0  c #332316",
"q  c #3C2514",
"w  c #33241B",
"e  c #3A241C",
"r  c #342B1C",
"t  c #3B2C1C",
"y  c #39321F",
"u  c #1E1E21",
"i  c #241E21",
"p  c #291E23",
"a  c #1F2226",
"s  c #252223",
"d  c #2A2424",
"f  c #272827",
"g  c #2E2925",
"h  c #262629",
"j  c #2B2629",
"k  c #27282B",
"l  c #2D2A2C",
"z  c #342621",
"x  c #3D2622",
"c  c #322A24",
"v  c #3B2B23",
"b  c #30272B",
"n  c #322C2D",
"m  c #3B2D2B",
"M  c #2E302F",
"N  c #363124",
"B  c #3B3425",
"V  c #35322D",
"C  c #3A332C",
"Z  c #3D392C",
"A  c #2E2E31",
"S  c #332E31",
"D  c #392E31",
"F  c #2F3233",
"G  c #333435",
"H  c #3A3334",
"J  c #363837",
"K  c #3C3935",
"L  c #343538",
"P  c #3B3539",
"I  c #333939",
"U  c #3C3A3C",
"Y  c #40210E",
"T  c #452D17",
"R  c #47311C",
"E  c #50301E",
"W  c #402722",
"Q  c #422C24",
"!  c #482F2A",
"~  c #433324",
"^  c #4C3C27",
"/  c #43312C",
"(  c #4B332B",
")  c #453B2C",
"_  c #4B3B2B",
"`  c #443922",
"'  c #523B2D",
"]  c #413333",
"[  c #4C3630",
"{  c #413C34",
"}  c #4B3B33",
"|  c #41353A",
" . c #423C3D",
".. c #493D3C",
"X. c #523B33",
"o. c #563E38",
"O. c #583F38",
"+. c #4B402E",
"@. c #55432E",
"#. c #444136",
"$. c #4D4535",
"%. c #45413D",
"&. c #4B443B",
"*. c #4E483C",
"=. c #564236",
"-. c #5B4336",
";. c #54423A",
":. c #5B433B",
">. c #52493E",
",. c #584C3C",
"<. c #604736",
"1. c #614738",
"2. c #614A39",
"3. c #6B503B",
"4. c #61513C",
"5. c #74543D",
"6. c #3F3E40",
"7. c #443C42",
"8. c #483F44",
"9. c #454143",
"0. c #4A4244",
"q. c #474548",
"w. c #4C4A4C",
"e. c #4D4845",
"r. c #514641",
"t. c #5C4740",
"y. c #514B40",
"u. c #5B4B44",
"i. c #524C4B",
"p. c #56524E",
"a. c #5D544B",
"s. c #5E584B",
"d. c #4E4D50",
"f. c #555353",
"g. c #5B5554",
"h. c #5E5954",
"j. c #5F595A",
"k. c #634C43",
"l. c #624F48",
"z. c #655446",
"x. c #64534B",
"c. c #6B554A",
"v. c #635A4B",
"b. c #6B5C4C",
"n. c #6A5742",
"m. c #715B4C",
"M. c #765848",
"N. c #655C52",
"B. c #615C5C",
"V. c #695A58",
"C. c #745C53",
"Z. c #6E614F",
"A. c #7D644B",
"S. c #6E6355",
"D. c #6F675A",
"F. c #6F685B",
"G. c #766154",
"H. c #7B6453",
"J. c #7C6C55",
"K. c #77675E",
"L. c #7A635B",
"P. c #7C6C59",
"I. c #756B5C",
"U. c #696363",
"Y. c #6B6968",
"T. c #766C64",
"R. c #746B67",
"E. c #75706E",
"W. c #80674D",
"Q. c #826B5E",
"!. c #886B54",
"~. c #86725B",
"^. c #8B735C",
"/. c #94755E",
"(. c #826D64",
"). c #816F6C",
"_. c #897961",
"`. c #88776A",
"'. c #917D65",
"]. c #927A6D",
"[. c #987361",
"{. c #867F73",
"}. c #8D7972",
"|. c #957F76",
" X c #94836C",
".X c #96886F",
"XX c #9E826A",
"oX c #9B8473",
"OX c #938A7B",
"+X c #9A8C7E",
"@X c #A4866F",
"#X c #A58676",
"$X c #A7917D",
"%X c #8B8683",
"&X c #9E8D87",
"*X c #9B9181",
"=X c #A48D85",
"-X c #AA9484",
";X c #BB9C89",
":X c #B69C91",
">X c #CAAB9A",
",X c #C7A594",
"<X c #C4A8A0",
"1X c #D7B4A0",
/* pixels */
"G G G G G G G G G G G G G G G G G G G G G G G G F F G G G F G F G G G G G G I G G G G G J J J G G G G G G J J J G G G G J J J J ",
"G G G G G G G G G G G G G G G G G G G G G G G G G F F F F F G G G G G G G G G G G G G G J J J G G G G J J J J J G G G G J J J J ",
"G G G G F F F F G G F G G G G G G G G G G G G G F F F F F F F G G G L I I G G G G I L L J J J J G G L L L L J J G G J J L L L J ",
"G G G G F F F F G G G G G G G G G G G G G G G G G G G G G G G G G G G J G G G G G G G G G G J L L L L L L G J J G J J J L L J J ",
"F F F F F G G G F F F G G G G G G G G G G G G G G G G G G G F G S G G G G A A A G G G G G G G L L L L J G G G G J J J J J J J J ",
"F F F F F F G G F F F G G G G G G G G G G G G G G G G G G G S S G G G G D S A A S G S A F G G L L L G G G G J G J J J J G J J J ",
"F F F F G G G G F F G G G G G G G G G G G G G G H P P U U U U U J U U P L G S S S G S l A F G G J J G G G G J J J J G G G G J J ",
"G G F G G G G G G G G G G G G G G G G G G G P P  .7.7.8.8.9.9.8. . . . .P H D S S S S l A A G G G G G J J J J J G G G G G G J J ",
"G G G G G G G G G G G G G G G G G G H H H K  . .7.8.9.9.8.7.7.7. . . .P H S n b b b n S A A A A G G G J J J J J J J G J G G J J ",
"G G G G G F F F F F G G l g n K c V c 9 N { { K ..e.i.9.P P U 7. .7.7.7. .| P H D D n g l g j d k n G J J J G J J J J G G G J G ",
"G G G G G F F F F F F G G V V Z C Z ) } $.>.>.&.&...K P  .9.8.U 7.7.7.7.7.| | | H D D m n l g d j l n H H H G G G J J J J G G J ",
"G G G G G F F F F F F V K V N N B r N $.+.) { &.&.{ K K  .9.9.9.9.9.7.7. .| | | | | H H G S n g d j l n n H G G G J J J J G G J ",
"G G G G G F F F F F M l K K { >.s.#.$.S.S.b.v.s.*.{ K K %.9.9.9.9.9.7. .P P H H P P P P H S n g d d d k n G J J G J J J J G J J ",
"G G G G G G F F F F F l J  .p.T.{.F.I.OX*X+X+XOXD.&.V H %.9.%.U  . .U J H H D D H H H P H S n n l d s d n G J J G J J J J J J J ",
"G G G G G G F F F F G V G K &.h.N.>.>.v.S.b.I.OX{.N.*.#.%.{ K K K K H G H H D D H H J K H S S S n d s s l G J J G H J J J G J J ",
"G G G G G G G G G G G G J G V V 8 9 9 7 w r ~ ,.z.b.D.F.y.C V { H V V V H H H H H H K K H H H J S d 2 2 d n J J H H J J J G J J ",
"G G G G G G G G G G G G J H n g 8 c c w w 0 0 ~ t ) v.`.$.B Z #.Z V V V V G G H H H J J J J J G n d s 2 2 l H J J J G G G G G G ",
"J G G G G G G G G G G G G H n n c c c v v w t R ` t @.Z._ N N B Z Z V V V K K G H J J H J J H n l j d i & d G J J J G G G G G M ",
"G G G G G G G G G G F S G H m n d 9 9 c v Q q , q T ^ 4.P.b.$.r B B C V V V H K J J H H H H S l d d s i ; h l H J G G G J J G G ",
"J J G G G G G G G G G G S A n m H K ] / / ( 1.M.3.3.<.@.J. XP.~ y B Z Z C V V H H S S H S m n d s s s s i s k G J G G G G J J G ",
"G G G G G G G G G G G L S l S H | ..r.u.l.].:X>X#X/.!.^.^..XJ.` r y B Z Z C V C D S S n n l d d s s i s s s j n J J H G G J J J ",
"G G G G G G G G G G G G G G G S n m 0.V.}.:X>X,X1X;X@XXXW.!.'..X^ t r r c c c j b n n l d d d d s i i s s s h n J J H G G G J J ",
"G G G G G G G G G G G G G G H S g n ..V.|.<X,X[.!.5.5.A.5.A.~._.n.+.r : 1 9 9 3 2 d d j s i s d d s 2 2 s s s l J J H G G G J J ",
"G G G G G G G G G G G G A S H H H K 0.N.).=X#XM.E Y 6 T R A._.J._.b._ 0 7 w r 9 2 3 p s 2 2 i d d s i i s s s l J J J G G G G G ",
"G G G G G G G G G G J J G G H G G J  .g.R.&X}.( -.' <.H.n.oX$X~.J.P.z.Q : 0 w 9 9 9 d d s p p i p d d j j s h l G L L G F F G I ",
"G G G G G G G G G J J J G H G J H H J 0.g.T.(.C.' -.m.Q.G.oX-XoXb.G.b._ 0 0 w 1 1 9 z d d d p p p i i i i j l G L L G G F F F G ",
"G G G G G G G G G G J J J G J J H n n H  .} x.}.G.c.c.C.|.].Q.m._ z.c.X.w w w 1 < 9 d d p p p i i i i i i l G L L L G F F F F G ",
"G G G G G G G G G G G G G G J J H n l n m ..;.t.L.k.k.C.k.=.X.=.~ k.z.} 0 w z 3 < d d s p p p p d j j n S G J L L J G F F G G I ",
"G G G G G G G G G G G G G H J G H n n n n / [ } o.;.X.X.X.X.X.X.-.x.u./ 3 9 9 9 d j d i i i i p j l S L P L J J G G G G G G I I ",
"G G G G G G G G G G G G G H H G H H S m n m / ( ( [ X.X.( o.t.k.x.u.} w 3 3 2 2 b s 2 2 i i d g l S S G L G G G G G G G G G G G ",
"G G G G G G G G G G G J J H H G H G G H m / / Q o.! Q X.X.Q [ c.t.( z 3 d d 3 2 j ; = s j l S G P P P L J G G G G G G G G G F F ",
"G G G G G G G G G G G G G H G G H G G H H m v x W e e Q e ( X.} v > X X % . . @ @ s A S S G G G G G G J G G G G G G G G G G G G ",
"G G G G G G G G G J G G G G J J G G H H H w 4 Q x 5 5 W :.-.( w v z w d j g ;     u A G G J J J G G G G G G J J J J G G L L L J ",
"G G G G G G G G G G G G G H H H H H H H D ] v 4 e Q O.C.L.:./ v w 3 z H s & = * h + $ F G G G G G G G G G G J J J J G G L J J J ",
"G G G G G G G G G G G G G H H H H H H H D C w X 5 e -.(.L.X.0 0 v N.R.U.E.g.U k # + ; F G G G G G G G G G G J J G G G G J J G G ",
"F F F F G G G G G G G G G H H H H H H H C v e 0 Q ( 2.Q.(.=.e Q K.N.r.&.U.Y.q.$ a * - F F G G G F G G G G G J J J G G G J J G G ",
"F F G G G G G G G G G G G G G G H H H H C v e 0 e ' c.Q.b.Q 1 ~ u.v.r.c i.f.J # ; # - F F G G G G G G G G G G G G J J J J J G G ",
"F F G G G G G G G G G G G G G G G H H H C C ~ t X.=.G.+X=.v e B &.N.a.V i.U s $ k * * F F G G G G F G G G G G G G J J J J J G G ",
"G G G G G G G G G G G G G G G G G H H H V C c r >.) ;.S.C v v C &.r.&.K l l ; + h * - F F G G G G G G G G G G G G L L J J J J G ",
"G G G G G G G G G G G G G G G G G G G H H V V C { 9 < c 9 n C n ..i.j.U.i.U j ; i $ ; G G G G G L L L L L L G G L L L L J J G G ",
"G G G G G G G G G G G G G G G G G G G G H G V g 8 9 c n c C H V  .g.U.U.f. .n j ; = i G G G J L L L L J J J G G L J J G G J J J ",
"G G G G G G G G G G G G G G G G G G G G G G n 8 c V d . & g i.E.i.g.i.P n 2 = 2 $ i l G G G J L L L L J J J G J L J J G G J J J ",
"G G G G G G G G G G G G G G G G G G G G J H V n H 2 & d &  .p.p.g.i.P & & % % = @ s G G G G G G L L L J J J J J J J G G G J J J ",
"G G G G G G G G G G G G G G G G G G G G J V n g n < %.%XK h.p.2 H l 2 $ 2 d s 2 % ; j G G G G G L L L J J J J J J L G G G G J J ",
"G G G G G G G G G G G G G G G G G G G J J V n V  .g  .E.%.0.i.9.& . % 2 2 s d s s = ; G G G J L L L L J J J J J J J J J J J J J ",
"G G G G G G G G G G G G G G G G G G G G G n l g H 8 d e.R.K = & & 2 d V d s 8 s g = & G G G J J J J J J J J G G G G G G G G G G ",
"G G G G G G G G G G G G G G G G G G G G G n l s s g d 2 J j 2 & 2 s j c g j d s 2 = 2 G G G G G G G G G G G G G G G G G G G G G ",
"G G G G G G G G G G G G G G G G G G G G G l j d & l n l j.0.n s d j j d 8 s j g 2 . = G G G G G G G G G G G G G G G G G G G G G ",
"G G G G G G G G G G G G G G G G G J J L L G n j = l S S B.9.s o 2 8 8 2 & & & 2 2 & 8 G G G G G G G G G G G G G G G G G G G G G ",
"G G G G G G G G G G G G G G G J J J L L L 9.7.j i i d g U j $   o % % & 2 & % O 2 g V G G G G G G G G G G G G G G G G G G G G G ",
"G G G G G G G G G G G G G G G G G G J J J w.q.h i = = 2 2 2 2 2 d d d c V n d 2 2 g V G G G G G G G G G G G G G G G G G G G G G ",
"G G G G G G G G G G G G G G G G G G G G G 6.P i i = $ = i g m H 2 s n C V n g d g n V G G G G G G G G G G G G G G G G G G G G G ",
"G G G G G G G G G G G G G G G G G G F G G h i ; 2 i ; = S S n m H i.B.B. .9 % & d g n G G G G G G G G G G G G G G G G G G G G G ",
"G G G G J J J J J J J G G G G G G F k s = = = = = ; i j S P U U U w.B.U.n 2 ; & s l G G G G G G G J L J G G G G G G G G G G G G ",
"G G J J J J J J J G G G G G G G G A h u = ; ; = = ; i l G H H J U  .9.9.i i s d i i s l G G G G G G J J G G G G G G G G G G G G ",
"J J G J J J J J G J J L J G G G G A k s ; = $ $ $ = i n G H G S S l l l = ; i i i = ; h l G J G G G G G G G G G G G G G G G G G ",
"J J J J G J J L L J J J G G G G G F l k s = $ $ $ ; s S L L G S J G G G A s i ; i i i s l G L G G G G G G G G G G G G G G G G G ",
"J J J J G J J J J J G G G G J J J G G G A h u u i s l G P P G G J J G G P l s s k s s h A G G G G G G G G G G G G G G G G G G G ",
"G G J J J J G G J G J J G G J L L G G G J G A A S G G L L L G G U P G S 9.U U q.d.U A k F G G G G G G G G G G G G G G G G G G G ",
"G G J J G G G G J G G L L L J G G G G G J J J L L L J J G G G J L J L J w.6.U w.f.6.G G G G G G G G L G G G G G G G G G G G G G ",
"G G L L J J J G J G G G G J J G G G G G G G J J J J G G G G G J G J J G U J G P U J G G G G G G G G G G G G G G G G G G G G G G ",
"G G L L J J J J J G J J G G J J J J J J G G J J J J G G G G J J J J J J J J J J J G G G G G G G G G G G G G G G G G G G G G G G ",
"G J J L J G G J J J G G G J J J J J J J G G G J J J J J G J J J J J J J G J J J G G G G G G G G G G G G G G G G G G G G G G G G ",
"G G J J J J J J J J J J G G J J J J J J G G G J J J J J G G J J J J G G G J J J G G G G G G G G G G G G G G G G G G G G G G G G "
};
