/* XPM */
static char *rcp03145942862780[] = {
/* columns rows colors chars-per-pixel */
"64 64 230 2 ",
"   c #1C120C",
".  c #171109",
"X  c #140E11",
"o  c #151113",
"O  c #1B1315",
"+  c #1D1915",
"@  c #1C161A",
"#  c #1E1A1D",
"$  c #0C090B",
"%  c #3E0D09",
"&  c #390907",
"*  c #2D140D",
"=  c #241A0D",
"-  c #34150C",
";  c #3A1A0D",
":  c #35160A",
">  c #251C13",
",  c #2B1D15",
"<  c #231D1D",
"1  c #2C1D1C",
"2  c #281613",
"3  c #321612",
"4  c #341C14",
"5  c #3C1C13",
"6  c #351D1A",
"7  c #3B1814",
"8  c #1E211D",
"9  c #33220D",
"0  c #2C2315",
"q  c #24211B",
"w  c #2C241C",
"e  c #342415",
"r  c #3B2515",
"t  c #3B2A16",
"y  c #32251C",
"u  c #3C231C",
"i  c #342A1E",
"p  c #3D2B1C",
"a  c #342812",
"s  c #3E321C",
"d  c #1E1F21",
"f  c #241E21",
"g  c #3D1F24",
"h  c #252223",
"j  c #2B2424",
"k  c #2C2926",
"l  c #262628",
"z  c #2B2629",
"x  c #2D2B2C",
"c  c #272C27",
"v  c #332523",
"b  c #3C2422",
"n  c #352C23",
"m  c #3B2C23",
"M  c #322D2C",
"N  c #3A2E2C",
"B  c #332529",
"V  c #2D312D",
"C  c #3C3226",
"Z  c #34322E",
"A  c #3C332B",
"S  c #353027",
"D  c #2E2E31",
"F  c #332E31",
"G  c #392F31",
"H  c #2E3334",
"J  c #2F3639",
"K  c #343536",
"L  c #3B3434",
"P  c #363837",
"I  c #3B3835",
"U  c #343539",
"Y  c #3B3539",
"T  c #3B3A3B",
"R  c #36383B",
"E  c #490C0A",
"W  c #5C0B0B",
"Q  c #530A08",
"!  c #47160D",
"~  c #54130E",
"^  c #451C12",
"/  c #471917",
"(  c #5C1B1A",
")  c #561916",
"_  c #631414",
"`  c #631F1A",
"'  c #610F10",
"]  c #42241A",
"[  c #432B1C",
"{  c #4B2418",
"}  c #55251B",
"|  c #43311C",
" . c #4B341D",
".. c #6B211E",
"X. c #471D23",
"o. c #432B23",
"O. c #4B2D24",
"+. c #492929",
"@. c #522D24",
"#. c #5B2C26",
"$. c #423124",
"%. c #41352B",
"&. c #4A342B",
"*. c #44392E",
"=. c #4B3A2C",
"-. c #4B3523",
";. c #563829",
":. c #4C2E32",
">. c #423633",
",. c #443A34",
"<. c #4A3C34",
"1. c #433C3C",
"2. c #493E3C",
"3. c #493633",
"4. c #513D35",
"5. c #5B3932",
"6. c #64372A",
"7. c #673C32",
"8. c #692725",
"9. c #57422C",
"0. c #4B4136",
"q. c #4C423C",
"w. c #454039",
"e. c #55453B",
"r. c #5A453B",
"t. c #54493D",
"y. c #5A4536",
"u. c #64442D",
"i. c #624239",
"p. c #68463A",
"a. c #70493E",
"s. c #72443A",
"d. c #74523E",
"f. c #64553F",
"g. c #443F41",
"h. c #4A3F40",
"j. c #454243",
"k. c #4B4343",
"l. c #4C4B4B",
"z. c #494748",
"x. c #544A44",
"c. c #5A4C42",
"v. c #524C4C",
"b. c #584C49",
"n. c #5C5144",
"m. c #5E544A",
"M. c #524F50",
"N. c #555252",
"B. c #5A5454",
"V. c #5C5A5B",
"C. c #5A5858",
"Z. c #4E4F50",
"A. c #654E42",
"S. c #724B42",
"D. c #7C4B40",
"F. c #625243",
"G. c #6E5A4B",
"H. c #65564A",
"J. c #745444",
"K. c #73534A",
"L. c #7C5C4A",
"P. c #7A5847",
"I. c #6B5E53",
"U. c #625C5C",
"Y. c #645B59",
"T. c #7D5F54",
"R. c #77624E",
"E. c #6D6153",
"W. c #6D625B",
"Q. c #736454",
"!. c #7C6253",
"~. c #776A5B",
"^. c #7A6C5B",
"/. c #786658",
"(. c #5E5E60",
"). c #625F60",
"_. c #656364",
"`. c #6B6464",
"'. c #6C6A6B",
"]. c #766C67",
"[. c #7D7264",
"{. c #7B736C",
"}. c #7B7574",
"|. c #797778",
" X c #726F70",
".X c #825C4C",
"XX c #865E55",
"oX c #826453",
"OX c #8A6455",
"+X c #836A5B",
"@X c #8B6D5B",
"#X c #876658",
"$X c #926C5D",
"%X c #906758",
"&X c #89735E",
"*X c #97745C",
"=X c #83644F",
"-X c #866D61",
";X c #916B61",
":X c #837365",
">X c #837569",
",X c #8A7A6C",
"<X c #8B7668",
"1X c #967363",
"2X c #9B766C",
"3X c #977768",
"4X c #857C7A",
"5X c #987D74",
"6X c #A27B67",
"7X c #A17C70",
"8X c #8C8177",
"9X c #988777",
"0X c #9E917E",
"qX c #93816B",
"wX c #A2836F",
"eX c #A88876",
"rX c #B58D7C",
"tX c #B2927C",
"yX c #C09D7F",
"uX c #817F80",
"iX c #918B88",
"pX c #B68D81",
"aX c #B89786",
"sX c #B79B92",
"dX c #BCA298",
"fX c #C29A88",
"gX c #C8A58C",
"hX c #D3AC94",
"jX c #D6B39D",
"kX c #CBB099",
/* pixels */
"K K K K K K K K K K K Z K K Y Y L K K K Y Y K K K F K K K K F M K K K K K K F K L Y Y K K Z Z Z K P P K V K K K K U J J J J J J ",
"K K K K K K K K K K K K K K K K K K K Y Y K K M x x M F K K F K K K K K K K F F F F K K K K K K K K K K K K K K K K H J J J J J ",
"K K K K K K K K K K K K K K K K K K L K K F F M x M F K K L Y Y Y Y Y Y Y L K F F x x Z K K K K K Z Z K P K K K K K K U U J J J ",
"K K K K K K K K K K K K K K K K Y L K M x M F F F F K Y T 1.1.1.1.1.1.1.T T Y K M x M K Z Z Z K K K K K P K K K K K K U U J J J ",
"K K K K K K K K K K K K K K K K Y K M z h M L L L Y T 1.g.j.j.j.j.j.g.j.g.1.T Y K M K P M k k Z K K K K K K K K K K K U U U U U ",
"K K K K K K K K K K K K K K K K K M M z z K L L L Y 1.2.h.k.j.k.k.k.k.h.g.2.1.Y L L L I M k k Z Y K K K K K K K K K K U U U U U ",
"K K K K K K K K K K K K K K K F x x x M F L >.L L L ,.1.2.2.2.2.k.q.2.2.2.1.,.,.L L L L M k k Z K K K K T K K K K K K U U U U U ",
"K K K K K K K K K K K K K K K x x x M K K L L 1.2.,.L L 1.k.2.,.1.2.q.q.2.1.>.A A ,.,.L L L Z M k Z K K K K K K K K K U U U U U ",
"K K K K K K K K K K K K K K K x z x F K K A A S >.,.>.>.<.2.2.2.2.2.,.A q.>.N A N ,.,.M K K M k k M K Y Y K K K K K K U U U U U ",
"K K K K K K K K K K K V K K x z l x M K L L A C <.,.*.<.c.<.C m x.q.,.,.c.q.,.,.%.C S n M M M k k M K K Y Y K K K K K U U U U U ",
"K K K K K K K K K K K K K D x z x M K L ,.A C C t.t.n.E.[.I.c.n.8X>X:X8X>X:XQ.t.t.m w L L L Z M M x x M K K K K K K K U U U U U ",
"K K K K K K K K K K K K x z l z x M K I <.0.t.H.[.:X[.^.Q.F.F.Q.^.E.Q.>XQ./.^./.,XE.x.<.L L A Z M z j z M K K K K K K U U U U U ",
"K K K K K K K K K K K x l h h h k M Z L <.0.E.0X0X^.y.$.s s s s a a a t | s 9.Q.qX0X[.>.A M M N x j < h M K K K K K K U U U U U ",
"K K K K K K K K K K K Z l h q h k M L ,.0.n.^.9XG.-.9 9 9 s | t t p t a | t t 9.f.:X^.,.S n M A M q < h M K K K K K K K K U U U ",
"K K K K K K K K K K K K h q h j w M L %.<.:X9X&X .t [ | 4 t [ t r r r r | | | | -.R.^.n.C m n S n w < < x K K K K K K K K U U U ",
"K K K K K H H H H H V x 8 q w q > C *.$.=.&XeX3XJ.p.;.[ r [ [ 4 o.u r ] [  .y.!.=XqX9X<Xt.C i y w q q q q k K K K K U U U U K K ",
"K K K K K H H H H H V c c q > w C m m =.+X&XwXaXtXwX@XP.i.i.i.i.5.@.5.K.;.d.@XeXjXkXaX<XR.=.e y 0 > w M + k K K K K K K K K K K ",
"K K K K K K H H H H V V q w w , $.$.r.-X3X3X7XtXtXrXeXeX7X2X3X;XS..X;X2X1X3XwXrXaXgXaX3X!.p.=.C e y y w j M K K K K K K K K K K ",
"K K K K K K H H H H V k q n m y o.G.3X9X@X$X%XP.P..XOX1XeXaXfXfXrXrXrXaXfX7X%X%X$X1X$X@XoXR.G.G.=.$.y   w M K K K K K K K K K K ",
"U U K K K K H H H Z Z Z . w $.=.<X9X1XL.OXp.} ^ } #.#.6.P.1XrXgXjXhXrX%X.X6.{ { ^ ^ { 6.=XL.#XeX+Xr.m y w n Z K K K K U U U K K ",
"U U U K K H H H H Z k q v m =.A.@XeX3XJ.P.S.S.P.S.@.^ { u..X6XgXhXgXeXd.} s.7.; / s.a.;.$XL.#XeX<XA.%.y   w A Z K K K U K U K K ",
"U U U K K H H H K Z Z Z , y e.+X!.!.oXOX.X7.S.2XOX;.;..X6X*X*XyXhXfX6X.X1X$Xa.{ 5.2X1X;.P.d.J.#X!.!.F.m 0 n A Z L K K U K K K K ",
"K K K K K K K K K K Z M n m 4.G.O.5 ; { XX#XK.i.P.oXoXP.d.*XtXgXgXtXeXeXoXT.T.T.3XK.a.OX.X .; O.[ r.r.y n A L K L K K K K K K K ",
"K K K H K K K K K K Z Z ,.<.e.A.] ; ; ^ i.K.+X5XsXdX9Xy.-.-.;.u. .;.9.p.@X!.<XdXsXeX+Xi.5.r : ] u c.H.q.,.L L L K K K K K K K K ",
"K K K K K H H H K K K M 2.2.q.e.6 7 - - ] O.r.G.:X-XG.-.$.[ [ r 9 r | 9.p.H.Q.:X<XT.y.r 5 - * 4 6 4.m.x.L L L K K K K K K K K K ",
"K K K K K H H H H H H D Y L >.<.b b 6 3 3 4 4 e &.$.$.&.&.=.&.u p u p $.e p p u o.4 * 6 * * 4 y v %.2.h.F F K K K K K K K K K K ",
"K K K K K K H H H H U R K M L 1.>.%.b 6 6 3 * 6 [ &.=.4.=.:.+.o.u b u 6 b 6 6 u 6 4 4 6 * 2 v N N N L 1.Y L K K K K K K K K K K ",
"K K K K K H H H H J U R H D F Y L N v 6 6 3 * 7 * u o.+.4.:.:.:.g b b b b u u 6 - 3 4 2 2 1 v N L L L L Y Y U K K K K K K K K K ",
"K K K K K K H H H H H H K U Y L F B B B b 6 7 5 5 - 7 / / X.+.+.X.X.X.X./ / 7 - - - 3 2 b B B N G Y Y F K K K K K K K K K K K K ",
"K K K K K K K K K K K K K Y Y K g.1.N 1 N O.p.%X6.! E ~ ) ) ~ E ( ( ( ( ! E % ! { O.o.b v v v M Y M M U T U K K K K K K K K K K ",
"K K H H H K K K K K K K D F Y g.g.v.l.L <.O.a.2X6.) E Q Q W W W ' W _ 8.( ( } } ! a.S.b >.1.x.B.K 1.T z K K K K K K K U U U U U ",
"K K H H H K K K K K z h T K T N.V.'.M.< y o.p.$XD.6.( ~ Q W W ' _ ' _ ..` ( } #.XX;XK.b %.v 2.{.v.M k Y T K K K K K K U U U U U ",
"K K K K K K K K K K T z.K F T l.T N.C.q.1 * 7 @.s.} ! ( ( ~ Q Q _ _ ~ Q ~ ! ) 7.pXT.O., 1 >.x.l.T 1.j.j.K K K K K K K U U U U U ",
"K K K K K K K K K K x l T T j.B.|.|.`.l.N m u O.2Xp.{ #.#.) E E E E ~ ) E #.a.XXK.&.u v 2.2.W.iX Xj.M K K K K K K K K U U U U U ",
"K K K K K K K K K K P T K K z.B.B.V._.`.q.n e o.<XK.@.7 % & % ! % ) #.#.@.@.p.-X+X<., 2 >.`.}.].U.B.1.z K K K K K K K U U U U U ",
"K K K K K K K K K K K x T T z._.N.z.1.K w   = $.A.-X!.&.] ] @.#.7 O.;.O.&.&.c.<X~.<., = v >.k.x.U.V.j.l T P K K K K K U U U U U ",
"K K K K K K K K K K K K T K g.V.M.z.T x < + 0 %.*.,X,X&.4 u u u u u u o.m &.I.9X*.m v > > v L k.Y.'.B.z K K K K K K K U U U U U ",
"K K K K K K K K K K K K K T j.v. XU.j.z < j S A ,.].~.%., o.<.<.m m 3.4.m n m.iX0.y w n = j L l.`.v.j.N.P K K K K K K U U U U U ",
"K K K K K K K K K K K T x l.N.T N.U.l.h < k I q.>.W.W.%.i %.c.I.C q.c.q.,.C n.8Xx.n w n O N B.`.B.j.z.N.K K K K K K K U U U U U ",
"K K K K K K K K K K K T x T l.N.T 1.K + Z M A t.q.{.].*.i , n 0.A *.m , C C c.{.n.A v v N N L q.N.l.z.z.P K K K K K K U U U U U ",
"K K K K K K K K K K K K z._._.l.z v.N.k M M C %.0.[.].C n 0 > > 0 > = > n i <.I.0.m n M N M L B.}.`._.'.T K K K K K K U U U U U ",
"K K K K K K K K K K K T T g.T K M z f < w n A <.E.8X[.C C C C n w w C 0.%.*.m.>X/.q.m N 1 N ,.L 1.K T N.Z.T K K K K K U U U U U ",
"K K K K K K K K K K T j.K V.N.f # # o $ N N C e.[.,XE.C n %.,.*.i n C *.i <.H.>X9XH.m v >.k k L h k B.iXK H K K K K K U U U U U ",
"K K K K K K K K K K K K o l x l C.uX'.h k S C C *.m i m %.%.C i i C *.*.i %.%.*.8XW.<.n M h j.iX|.j.# # T T K K K K K U U U U U ",
"K K K K U U U K K K U K X z.(.Z.V. XV.# k k i C =.m 0 0 0 = 0 C 0 0 i C C C i i t.C > < l.F K _.'.z.z.(.x x K K K K K K U U U K ",
"K K K K K K U K K K U U K l d # d h x K K S n C 0.%.i 0 0 > 0 i > 0 C *.i 0 0 C n.<.M Z x x x l l l l l x K K K K K K K U U U K ",
"K K K K K K K K K K K D T K D U K z x U x M n n ,.,.C w 0 > > 0 i i n *.,.S w > n v k Z x T T x z K K x T T U K U U K K K K K K ",
"K K K K K K K K K K K K H U R K D K K x K L Z k N >.A n y w w > n v n C <.%.n w , > q M P K K Y K D K T T K U U U U K K K K K K ",
"K K K K K K K K K K K K H K U K U T U K K Y L M A x.B.m.q.L j = v v n ,.x.b.b.k.M j M T T K K K K K K T U K K K K K K K K K K K ",
"K K K K K K K K K K K U T K D K K K K T K K Z L 1.U.4X4XY.2.j   M j j 2. X4X}.Y.v M F K x K K K U T T K K K K K K K K K U K K K ",
"K U U U U U K K K K U U K U U K K K K K K K K L M l.`.].x.G < + N j j L Y.`.`.B.j k F K K K K K K K K U K K K K K K U U U U K K ",
"K U U U U U K K K K U U K U U K K K K K K K K K h f j z f f # X z < @ f M F F z < z K U U K K K K K K U K K K K K K K U U U K K ",
"K K U U U K K K K K K U U U K K K K K K K F M F l z z l < @ X $ # o X @ f f < @ O h F K U K K K K K K U K K K K K K K U U U K K ",
"K K K U U K K K K K K U U U K K K K K K K T T F f # # @ X O O O x h f l x z z f < x K K U K K K K K K U K K K K K K U U U U K K ",
"K K U U K K K K K K K K U U K K U U K K K x x z l K 1.Y l f @ o f @ O f j x M z f z F K U U K K K K U U U K K K K K K K U K K K ",
"K K K K K K K K K K K K K K K K U U K K K K Y K z F Y K h h h f K l h x K T T Y l l M K U U K K K K U U U K K K K K K K K K K K ",
"K K K K K K K K K K K K K K K K U K K K K T j.l.l.B.V.B.j.K z # z < f M T z.N.V.M.N.z.K K K K K K K K K K K K K K K K K K K K K ",
"K K U K K K K K K K K K K K K K U U K K K K T w.Y Y K K M K M k T K K T P T T T F K U K U U K K K K U U K K K K K K U U U K K K ",
"K K U U U U U K K K U U U U K K K K K K K K K T K K K K K T T K K K K K K K K K K K U K U U K K K K U U K K U U K K U U U U U K ",
"K U U U U U U K K U U U U U U K K K K K K K K K K K K K K K K K K K K K K K K K K K K K U K K K K K K K U U U K K U U U U U U K ",
"K K U U U U K K K K U U U U K K K K K K K K K K K K K K K K K K K K K K K K U K K K K U U U K K K K U U U K K K K K U U U U K K ",
"K K U K K K K K K K U K K U K K U K K K K K U U K K K K K U K K K K K K K K K U K K K K U U K K K K U U K K K K K K U K K K K K ",
"K K K K K K K K K K K K K K K K U U K K K K U U K K K K K U U K K K K K K U U U K K K K U K K K K K K U K K K K K K K K K K K K ",
"K K K K K K K K K K K K K K K K U U K K K K U U K K K K K K U U K K K K K K U U K K K K K K K K K K K U K K K K K K K K K K K K "
};
