/* XPM */
static char *rcp03172296128380[] = {
/* columns rows colors chars-per-pixel */
"64 64 218 2 ",
"   c #0C0A0C",
".  c #0C0607",
"X  c #120906",
"o  c #150C0A",
"O  c #1B0C0C",
"+  c #150609",
"@  c #0E100F",
"#  c #1B140C",
"$  c #1C180F",
"%  c #0F0C12",
"&  c #120E13",
"*  c #1A0E10",
"=  c #0F1215",
"-  c #141214",
";  c #1C1414",
":  c #1F1B17",
">  c #16141A",
",  c #19151A",
"<  c #171A1D",
"1  c #1C1A1D",
"2  c #24130C",
"3  c #28190D",
"4  c #361A0D",
"5  c #221414",
"6  c #221A14",
"7  c #2A1E14",
"8  c #231519",
"9  c #2A141A",
"0  c #231C1C",
"q  c #2B1D1D",
"w  c #341411",
"e  c #391D12",
"r  c #341B1B",
"t  c #3C1E19",
"y  c #3A1610",
"u  c #262417",
"i  c #2C2214",
"p  c #25221C",
"a  c #2B231C",
"s  c #2F2A1C",
"d  c #272817",
"f  c #342514",
"g  c #31271B",
"h  c #3B221F",
"j  c #34291D",
"k  c #392C1B",
"l  c #362A16",
"z  c #3D301E",
"x  c #1D1D21",
"c  c #231E22",
"v  c #2A1F22",
"b  c #1F2324",
"n  c #252224",
"m  c #2B2423",
"M  c #2C2924",
"N  c #252528",
"B  c #2B262A",
"V  c #252829",
"C  c #2C2B2C",
"Z  c #332424",
"A  c #3B2623",
"S  c #322B24",
"D  c #3A2D25",
"F  c #322D2C",
"G  c #3B2D2B",
"H  c #333124",
"J  c #3C3225",
"K  c #33322E",
"L  c #3C332D",
"P  c #3E392C",
"I  c #393824",
"U  c #2E2E31",
"Y  c #322E32",
"T  c #3A2E32",
"R  c #3B2F38",
"E  c #2E3332",
"W  c #333436",
"Q  c #3A3334",
"!  c #343936",
"~  c #3C3A35",
"^  c #343638",
"/  c #3C333A",
"(  c #373839",
")  c #3B3A3B",
"_  c #411E17",
"`  c #46291C",
"'  c #43331C",
"]  c #50301A",
"[  c #432D23",
"{  c #432E2B",
"}  c #433524",
"|  c #493324",
" . c #4E3C25",
".. c #42332C",
"X. c #49362D",
"o. c #463B2C",
"O. c #4C3C2D",
"+. c #473920",
"@. c #553728",
"#. c #443432",
"$. c #433C34",
"%. c #4D3C34",
"&. c #40363B",
"*. c #433D3C",
"=. c #493B36",
"-. c #523F35",
";. c #563D37",
":. c #603F31",
">. c #44422F",
",. c #4D412D",
"<. c #53422B",
"1. c #59442C",
"2. c #464034",
"3. c #4A4335",
"4. c #4B4835",
"5. c #45413C",
"6. c #4A443B",
"7. c #49493A",
"8. c #534435",
"9. c #5C4432",
"0. c #5D4A34",
"q. c #55443C",
"w. c #5C463C",
"e. c #5D4A3A",
"r. c #504D3B",
"t. c #5C523E",
"y. c #53503C",
"u. c #6C4D3A",
"i. c #684A38",
"p. c #63513A",
"a. c #6B4D35",
"s. c #3E3F41",
"d. c #453E42",
"f. c #3F4042",
"g. c #434243",
"h. c #4A4441",
"j. c #474749",
"k. c #4C4B4C",
"l. c #4B4648",
"z. c #524C44",
"x. c #5C4D43",
"c. c #534D4B",
"v. c #504341",
"b. c #5B5344",
"n. c #555348",
"m. c #5D564C",
"M. c #585545",
"N. c #564B53",
"B. c #535355",
"V. c #5C5454",
"C. c #5C545A",
"Z. c #5B5C5B",
"A. c #654C43",
"S. c #644E4B",
"D. c #645544",
"F. c #6A5344",
"G. c #6A5943",
"H. c #695A4B",
"J. c #7A5C4C",
"K. c #745844",
"L. c #655B58",
"P. c #765B55",
"I. c #5D625B",
"U. c #63624E",
"Y. c #75644B",
"T. c #7B634A",
"R. c #7B6046",
"E. c #6C6254",
"W. c #6B645C",
"Q. c #62635E",
"!. c #7B6453",
"~. c #74675C",
"^. c #766957",
"/. c #7D745E",
"(. c #645C63",
"). c #6B6769",
"_. c #746D63",
"`. c #786B6A",
"'. c #6F746D",
"]. c #7C7564",
"[. c #7C7969",
"{. c #7E747D",
"}. c #796E78",
"|. c #846B52",
" X c #836A5B",
".X c #8C735C",
"XX c #8E755A",
"oX c #94795F",
"OX c #93775F",
"+X c #816F64",
"@X c #8C6E61",
"#X c #8C7564",
"$X c #847A6D",
"%X c #88756D",
"&X c #947B62",
"*X c #957C6C",
"=X c #877F75",
"-X c #9D846C",
";X c #9B896E",
":X c #8B8573",
">X c #8F857C",
",X c #868079",
"<X c #938B7C",
"1X c #988879",
"2X c #95957F",
"3X c #A8947C",
"4X c #958B87",
"5X c #9F968A",
"6X c #A99B8F",
"7X c #A19286",
"8X c #B59C84",
"9X c #AC9F93",
"0X c #BBA18C",
"qX c #B7A492",
"wX c #BBAEA2",
"eX c #BCB0A2",
"rX c #C0A38D",
"tX c #C0AFA0",
/* pixels */
"W W W W W W W W W W W W W W ^ ^ ^ ^ W W W W W W W W W W W W W W W W W W W W W W W W W W W W W W W W W W W W W W W W W W W W W W ",
"W W W W W W W W W W W W W W ^ ^ ^ ^ W W W W W W W W W W W W W W W W W W W W W W W W W W W W W W W W W W W W W W W W W W W W W W ",
"W W W W W W W W W W W W W W W W W W W W W W W W W W W W W W W W W W W W W W W W W W W W W W W W W W W W W W W W W W W W W W W W ",
"W W W W W W W W W W W W W W W W W W W W W W W W W W W W W W W W W W W W W W W W ^ ^ W W W W W E W W W W W W W W W W W W W W W W ",
"W W W W W W W W W W W W W W W W W W W W W Y Y W W W W W W W W W K K W W W W W W ^ ^ ^ ^ ^ ^ W E E W E W W W W W W W W W W W W W ",
"W W W W W W W W W W W W W W W W W W Q Q Q W ^ ^ W W W K K K K K K K W W W W W ^ ^ ^ ^ W W W E W W W W E E W W W W W W W W W W W ",
"W W W W W W W W W W W W W W W W W Q W W W W ^ ^ ^ W W K K K K K C C F F Y W W ^ ^ ^ W E E W W W W W W E E W W W W W W W W W W W ",
"W W W W W W W W W W W W W W W W W W W W Y Y Y Y Y Y F C F K K K K K K W W W ^ ^ ^ ^ ^ W W W W W W W W W W W W W W W W W W W W W ",
"W W W W W W W W W W W W W W W W W W Y Y Y Y U Y W W Y Y W / ~ ~ ~ ~ ~ ~ ) ) ( ( ( ( ( W W W W W W W W W W W W W W W W W W W W W ",
"W W W W W W W W W W W W W W W W W Y Y Y Y Y Y Y W W W W Q ~ ~ *.5.5.5.*.*.*.*.*.*.) ~ ~ ! ~ W W W W W W W W W W W W W W W W W W ",
"W W W W W W W W W W W W W W W W W Y Y Y Y C B C C B B B F W Q / ~ ~ ~ &.*.*.*.5.5.5.5.5.~ ~ W K K K W W Q W W W W W W W W W W W ",
"W W W W ^ ^ ^ W W W W W ^ ( ( W F C C C B F F F F W Q / ) &.*.*.*.&.*.5.$.Q ~ h.z.~ K ~ 6.*.F p 5.C C 5.~ W W W W W W W W W W W ",
"W W ^ ^ ^ ^ W W W W W W ^ ( W Y C C C F B F Y Y W Q / / ) &.*.*.g.*.*.5.5.$.Q P 5.6.6.$.z.*.Q Q M ~ *.K m C W W W W W W W W E E ",
"W W W W W ^ W W W W W W ^ W Y C B C F Y Y Y T T Q Q / / &.&.*.*.*.h.6.*.$.$.$.P ..3.n.m.2.6.z.h.~ ~ ~ ~ ~ W K W W W W W W W E E ",
"W W W ^ W W W W W W W ^ W W C N n B Y Y W T Q Q Q Q Q / / &.&.&.&.h.h.*.$.$.3.$.P 2.m._.m.W._.W.3.z.c.h.~ W W W W W W W W E E E ",
"W W W ^ W W W W W W W ^ W C B n n B Y Q / Q Q Q Q Q Q Q / / / ~ ~ &.&.*.5.3.2.P $.m.$X5X<X<X>X=Xm.[.,XW.*.W W W W W W W W W W W ",
"W W W W W W W W W W W W W C N c n C Y Q ( Q Q Q Q Q T T T Q Q Q / ~ Q $.3.3.3.4.b.E.[.$Xm.r.q.3.3.6.z.m.~ K W W W W W W W W ^ ^ ",
"W W W W W W W W W W W W U C n c n C W ( / ~ ~ / Q Q Q Q Q / / / Q Q Q ..J o.b.]./.t.,.o.g s g S a 6 p $.Q W W W W W W W W W ^ ^ ",
"W W W W W W W W W W W W U n 1 n B B Y ) / / / Q Q / / / / / / / G Q ..J o.o.t./.,.k f l i i g J s s S K C W W W W W W ^ ^ ^ ^ ^ ",
"W W ^ ^ ^ ^ W W W W W W W n 1 N B B F / / Q Q Q T / / / / / / / #...} z ' +.<.0.' f f k g D J S S a M W W W W W ^ ^ ^ ^ ^ ^ ^ ^ ",
"W ^ ^ ^ ^ ^ W W W W W W C n c N B B C W Y Q Q Q T R R / R R R G q o.O.' <.Y.Y. .'  .+.f g i s S $ : p m W W W ^ ^ ^ ^ ^ ^ ^ ^ ^ ",
"^ ^ ^ ^ ^ ^ W W W W W C N c x n N n N B B F Q Q / / R R R R #.#.%.X.o.p.3X;XT.1.0.p.G.D.8.3.L S 6.~ W ( W W ^ ^ ^ ^ ^ ^ ^ ^ ^ ^ ",
"W W ^ ^ ^ ^ W W W W W C n n c n n N n n n M K K T Y Y T T T T ..X.O.0.K.&XOX|.|..X3XqXqX6X].m.z.~ 5.*.C W W ^ ^ ^ ^ ^ ^ ^ W ^ ^ ",
"W W ^ ^ ^ ^ W W W W W U n n n n n B B c B m m M S Z m m Z Z D { X.0.T.-X&XT.R.OXrX0XqXtXeX7X~.L L M M Y W W ^ ^ ^ ^ ^ ^ W W ^ ^ ",
"W W ^ ^ ^ ^ W W W W W U c n n c n B B 0 B p p p m m m v v Z A [ X.*X8X-XXXK.a.9.u.K. X7XwX5X_.*.S K W W ) ^ W W W W W W ^ W W W ",
"W W ^ ^ ^ ^ W W W W Y C n n n x c n n 0 B p 0 p m m m v q Z D X.e.*X-XT.oXu.@.] e @.A.^.9X4XE.L L ~ / C C W W W W W W W W W W W ",
"^ ^ ^ ^ ^ ^ ^ ^ ^ ^ W C B B N n c c n n m p p p a m m m m Z { -. X#X.XOX8X|.u.J.:.;.9.D.6X>XL.L K / / F W W W ^ W W W W W W W W ",
"^ ^ ^ ^ ^ ^ ^ ^ ^ ^ W W C N n c c n B B m m p p q a a m Z A ..q.#XY.T.-X8X&XJ.K.J.i.F.+X`.E.z.L K W W W W W W W W W W W W W W W ",
"^ ^ ^ ^ ^ ^ ^ ^ ^ ^ W W C B n n n n n n p m a p p a a a Z D #.q.^.e.1.G.|..X#X!.;.P.%X`.%.L F m F W / W C E W W W W W W W W W W ",
"^ ^ ^ ^ ^ ^ ^ ^ ^ ^ W W W W W C B B n n n p p a m m m q q S ..8.H.8. .1.' 9.F.H.w.A.S.x.D L F a F K W W ) ^ W W W W W W W W K K ",
"^ ^ ^ ^ ^ ^ ^ ^ ^ ^ W W ^ ( ( W Y B n n n 0 q v m B m v q m D =.E.D.O.l G.8.| X.q.-.#.....#.G m Q W K C ) ( W W W W W W K K K K ",
"^ ^ ^ ^ ^ ^ ^ ^ ^ ^ W W W W W W Y C C B B N n q c v N v q q a j o.D.G.e.<.O.O.X.q.;.X...#.S m F Q / / W C W W W W W W W W W K K ",
"^ ^ ^ ^ ^ ^ ^ ^ ^ ^ ^ ( ^ W W W ^ ( W W Y C B c 1 1 c c v q q 7 g } e.!.' 4 [ w.A %.;.G Q Z F *.F B W ) W W W W W W W W W W W K ",
"^ ^ ^ ^ ^ ^ ^ ^ ^ ^ W W W W W W W W W W W C C W N , & > & 0 q # # 7 k +.<.' e e [ h h D G Q Q W W W W W W W W W E E W W W W W W ",
"^ ^ ^ ^ ^ ^ ^ ^ ^ ^ W W W W W W W W ^ W W Y B n & B Y c > > c F 6 3 f ' 9.@.` e ` t r A G Q Q W W W W W E W W W E E W W W W W W ",
"^ ^ ^ ^ ^ ^ ^ ^ ^ ^ W W W W W W W ^ ^ W ^ ( F c W Y Y / C 0 5 0 7 i f ' 9.i.@.` _ t h Z F Q Q W W W W W W W W W W W W W W W W W ",
"^ ^ ^ ^ ^ ^ ^ ^ ^ ^ W W W W W ^ W W W W W B B *.).{.}.(.&.0 * 5 3 3 f | F. XJ.` y w r Z F T Q / W W ! W E W W W W W W W W W W W ",
"^ ^ ^ ^ ^ ^ ^ ^ ^ ^ W W W W ^ ^ W W W W W k.V.V.).{.{.).L.T 8 8 2 3 f | F.*X@X@.w w r Z F T Q Q W W ! ! W W W ! W W W W W W W W ",
"^ ^ ^ ^ ^ ^ ^ ^ ^ ^ W W W W ^ ^ W W W W W c.V.g.d.l.N.N.Y v 0 8 7 f k | e.*X#X@.t A A Z F T Q W W W W W W W ! ! W W W ! ! W W W ",
"^ ^ ^ ^ ^ ^ ^ ^ ^ ^ W W W W W ^ W W W W W g.l.g.B n c c c N v 5 7 j } ,.D.1X1Xw.A ....Z F T W W W W W W W W W W W W ! ! ! W W W ",
"^ ^ ^ ^ ^ ^ ^ ^ ^ ^ W W W W W W W W ^ ( k.k.Z.Q.K N x - & , ; # u s J 4.^.<X:Xb.g S L Q m Q ) W B W W E ( ! W W W W W W W W W W ",
"^ ^ ^ ^ ^ ^ ^ ^ ^ ^ ^ ) W W W W ( ) g.B.Z.g.! ! - @       , n M S P >.y.2X:XH.H # u m ; X   1 ) Y ( ) W C E W W W W W W W W W W ",
"^ ^ ^ ^ ^ ^ ^ ^ ^ ^ ^ ^ W ^ W W ( W f.Z.k.).'.I.) W N - - - ; p 6 s I 4.2X[.z.H H H p   m L.L.B n C ! ( C E W W W W W W W W W W ",
"^ ^ ^ ^ ^ ^ ^ ^ ^ ^ W W W ( ^ U E < N j.1 C K C p : - . ; ; 0 S ~ 2.r.U.U.>.d d 7.K p 0 . c.c.o W W W W ( ! W W W W W W ! W W W ",
"^ ^ ^ ^ ^ ^ ^ ^ ^ ^ W U U ^ ( ^ s.W g.).l.K F ~ L m ; + 0 8 5 7 a D b.:X[.y.P 7.n.n.L X X ; ; - W W ! ) E E E E W W W W W W W W ",
"^ ^ ^ ^ ^ ^ ^ ^ ^ ^ ( ) W W U V B x B g.W 0 a $.q O + + 9 9 9 A X.%.x.^.^.3.H P # $ ; . : F F , F W W ( W E E E W W W W W W W W ",
"^ ^ ^ ^ ^ ^ ^ ^ ^ ^ W W U E W W W W W ) g.*.c.L.q O O 8 9 9 r { X.8.%.} f 3 6 s o $ 6 6 m F F C ) ( W W ( ! E E W W W W W W W W ",
"W W W W W W W W W W ^ ^ ^ ^ ^ W U N < - , F *.v.5 X O q q q Z ..X.H.+X^.} f g D j a 6 m ).c.( ) E W ( ( E E W E W W W W W W W W ",
"W W W ^ ^ ^ ^ W W W W W W ^ ^ ^ W U B n c 0 6 ; o X O 8 a g Z D =.$X7X%Xo.f l } J j a F ).B.) W ^ W W W W W W W W W W W W W W W ",
"W W W W ^ ^ W W W W W ^ ^ W W W W W W W W B m m ; o o O 5 8 a D L $X>Xx.k } J f J D S M B.j.( ( W W W ( W W W W W W W W W W ^ ^ ",
"W W W W W W W W W W ^ ^ ^ ^ W W W W W ^ ( W F B ; o o o o O $ 7 a b.m.D D J j 7 $.L m n / W W ( W U W ) ^ W W W ^ ^ ^ W W W ^ ^ ",
"W W W W W W W W ^ ^ ^ ^ ^ ^ W W W W W W W Y B n ; - , ; # X X o ; m S g S j a 7 D a a B B C W ( W U W ) W W W ^ ^ ^ ^ W W W ^ ^ ",
"W W W W W W W ^ W W W W W W ^ ^ ^ ^ ^ ^ W Y B c , , 1 c 0 * o o X ; q a 8 a D L m S K W C W ( ^ ( W W ( W W W W W W W W W W W W ",
"^ W W W W W ^ ^ W W W W W W ^ ^ ^ ^ ^ ^ ^ W U n - & > 1 1 1 n B ; - 5 m 0 m *.L.V.c.h.( W ( ( U ) ^ W ^ W W W W W W W W W W W W ",
"^ ^ W W W W ^ ^ W W W W W W W W W W W W W ^ U n -   % & - c Y d.( 1 ; F Q m &.`.4X).g.W W ^ W N ( ^ ^ ^ W W W W W W W ^ ^ ^ W W ",
"^ ^ W W W W W ^ W W W W W W W W W W W W ^ ^ U x , x c x > < c Y Y B c 0 B F F / C.C.k.( ( ^ ^ W W W W W W W W W W W W ^ ^ ^ W W ",
"^ W W W W W W ^ ^ ^ ^ ^ W W W W W W W W ^ W V < = - < < - x C ( Y , & , B C B c c C W U U U W W W W W W W W W W W W W W ^ ^ W W ",
"W W W W W W W ^ ^ ^ W W W W W W W W W W W C x > = < < < < < N U U c , < > c Y Y 1 n U W W W W W W W W W W W W W W W W W ^ ^ W W ",
"W W W W W W W W W W W W W W ^ ^ ^ W W W W E V x < < < < < x N U U C n < < c N n c ^ ) W W W W W W W W W W W ^ W ^ ^ W W ^ ^ W W ",
"W W W W W W W W W W W W W W ^ ^ ^ W W W W W E C V n b n n C E W U C x   1 C C n W ) ) W W E U W W ^ ^ W W W ^ W ^ ^ ^ ^ W W W W ",
"W ^ W W W W W W W W W W W W ^ ^ ^ ^ W W W E E E E W E W W W W W E C N > < C g.B.B.) W g.) ( W W W ^ ^ W W W W W W W W W ^ ^ W W ",
"^ ^ W W W W ^ ^ W W W W W W ^ ^ ^ ^ W W W W W ! ! E E E W ! ! W W C C W C C ( k.j.) ) g.) W W E W W ^ W W W W W W W W W ^ ^ W W ",
"W W W W W W W W W W W ^ W W W W W W W W ^ W W W W W W W W W W W W W W W W W W ( W W ^ ^ W W W W W W W W W W W W W W W W ^ W W W ",
"W W W W W W W W W W W ^ W W W W W W W W ^ W W W W W W W W W W W W W W W W W W W W W W ^ W W W W W W W W W W W W W W W W ^ W W W "
};
