/* XPM */
static char *rcp03153092810921[] = {
/* columns rows colors chars-per-pixel */
"64 64 239 2 ",
"   c #1B160B",
".  c #140E11",
"X  c #1B161A",
"o  c #1E1B1C",
"O  c #191415",
"+  c #120E0A",
"@  c #350D09",
"#  c #2F160D",
"$  c #2B1C0E",
"%  c #23170B",
"&  c #33140B",
"*  c #341A0D",
"=  c #3C1B0E",
"-  c #361309",
";  c #2D1413",
":  c #241C15",
">  c #2A1E14",
",  c #231C1C",
"<  c #2A1D1A",
"1  c #251515",
"2  c #341B14",
"3  c #391B15",
"4  c #351D1A",
"5  c #3A1E1C",
"6  c #361412",
"7  c #2A0C0A",
"8  c #2D2216",
"9  c #25221D",
"0  c #2D231B",
"q  c #2A2A1E",
"w  c #322214",
"e  c #33241B",
"r  c #3B241B",
"t  c #352A1C",
"y  c #3B2B1D",
"u  c #352416",
"i  c #3B311F",
"p  c #241E21",
"a  c #2A1F21",
"s  c #262324",
"d  c #2A2524",
"f  c #2C2925",
"g  c #2B2629",
"h  c #2E2B2B",
"j  c #252A2A",
"k  c #332523",
"l  c #3C2522",
"z  c #342B24",
"x  c #3B2C24",
"c  c #332629",
"v  c #3B262C",
"b  c #332D2C",
"n  c #3A2C2B",
"m  c #2F302E",
"M  c #3B3224",
"N  c #34312D",
"B  c #3B332C",
"V  c #383625",
"C  c #2F2E30",
"Z  c #332E31",
"A  c #3C2E33",
"S  c #2D3333",
"D  c #2E3639",
"F  c #333435",
"G  c #3A3534",
"H  c #363836",
"J  c #3C3935",
"K  c #333639",
"L  c #3B3639",
"P  c #353A3A",
"I  c #3B3A3A",
"U  c #480B07",
"Y  c #5A0D0C",
"T  c #45170B",
"R  c #59120C",
"E  c #53180E",
"W  c #4A0F14",
"Q  c #530B10",
"!  c #441C11",
"~  c #471918",
"^  c #571A15",
"/  c #640B0D",
"(  c #680E12",
")  c #631513",
"_  c #64181B",
"`  c #60110C",
"'  c #422416",
"]  c #442C1E",
"[  c #48261A",
"{  c #542314",
"}  c #5C231A",
"|  c #55281B",
" . c #43311F",
".. c #521D25",
"X. c #651920",
"o. c #422526",
"O. c #422B24",
"+. c #432B2A",
"@. c #492B29",
"#. c #542525",
"$. c #433225",
"%. c #4B3426",
"&. c #43342B",
"*. c #4B322C",
"=. c #43392C",
"-. c #4B3B2C",
";. c #473827",
":. c #573829",
">. c #422C33",
",. c #423535",
"<. c #4C3332",
"1. c #433A34",
"2. c #493C34",
"3. c #433C3B",
"4. c #4B3D3A",
"5. c #45353B",
"6. c #523C34",
"7. c #523D3B",
"8. c #573734",
"9. c #663B2D",
"0. c #70342D",
"q. c #4C4035",
"w. c #46413E",
"e. c #4C423C",
"r. c #494534",
"t. c #5A4333",
"y. c #53453C",
"u. c #5C463B",
"i. c #554B3E",
"p. c #5F493B",
"a. c #534234",
"s. c #50402E",
"d. c #644334",
"f. c #634639",
"g. c #62493B",
"h. c #6C4B3B",
"j. c #6B4434",
"k. c #724A39",
"l. c #3D3E41",
"z. c #433E40",
"x. c #4C3D43",
"c. c #3C4242",
"v. c #444243",
"b. c #4B4442",
"n. c #4D4B4D",
"m. c #4B4847",
"M. c #514543",
"N. c #5A4C44",
"B. c #544C4C",
"V. c #584946",
"C. c #5D5245",
"Z. c #55524C",
"A. c #59544A",
"S. c #4D4E50",
"D. c #534D51",
"F. c #5B4E53",
"G. c #545354",
"H. c #5B5452",
"J. c #5B5B5C",
"K. c #5C5858",
"L. c #4F5252",
"P. c #634C43",
"I. c #6D4E43",
"U. c #664A4A",
"Y. c #754C44",
"T. c #6B5245",
"R. c #63534D",
"E. c #665A4B",
"W. c #6B5D4C",
"Q. c #6A5346",
"!. c #7C5945",
"~. c #75534A",
"^. c #735B4B",
"/. c #775747",
"(. c #645A54",
"). c #695C58",
"_. c #785B56",
"`. c #6E6153",
"'. c #686459",
"]. c #7C6453",
"[. c #756A5A",
"{. c #776758",
"}. c #66624C",
"|. c #655D62",
" X c #5D6061",
".X c #6C6366",
"XX c #6C666A",
"oX c #666566",
"OX c #7A6E61",
"+X c #72696A",
"@X c #7A7267",
"#X c #766D71",
"$X c #7C7575",
"%X c #83513C",
"&X c #84594A",
"*X c #865F54",
"=X c #84624F",
"-X c #846353",
";X c #8A6356",
":X c #83645A",
">X c #8B6D5D",
",X c #88685B",
"<X c #956859",
"1X c #93715E",
"2X c #866B62",
"3X c #966C61",
"4X c #827565",
"5X c #887669",
"6X c #927463",
"7X c #9C7263",
"8X c #9D7C6C",
"9X c #947869",
"0X c #847A79",
"qX c #967F72",
"wX c #A77B66",
"eX c #99806D",
"rX c #968979",
"tX c #928876",
"yX c #A3826D",
"uX c #B2866E",
"iX c #A58474",
"pX c #AA8478",
"aX c #A88B7B",
"sX c #B78B7A",
"dX c #B0917E",
"fX c #8D7F84",
"gX c #9A8B82",
"hX c #A38D82",
"jX c #B88F83",
"kX c #AB9488",
"lX c #BC9481",
"zX c #B89789",
"xX c #BDA197",
"cX c #C89984",
"vX c #C19E90",
"bX c #D3A58D",
"nX c #DAAA94",
"mX c #C2A08A",
"MX c #EEBDA6",
/* pixels */
"F F F F F F F F F F F F F H L I I H H F F F F F F H H F F F F F F F F F F F F F F F F F F N N N F H H H F F F F F F F K K K K K ",
"F F F F F F F F F F F H H H H H H H L I L L I H F F F F F F F F F F F b b F F F F F F F G G G G F F F F F F F F F F F K K K K K ",
"F F F F F F F F F F F H H F F F G H L L I L H F F F F F F F F F Z Z Z Z b b Z F F F F F F G G H F F N F F F F F F F K K K K K K ",
"F F F F F F F F F F F F F H H H H G G F F F Z b b b Z F H I I I I L H H F F F F F b b b N N G G G F N F F F F F F F K K K K K K ",
"F F F F F F F F F F F F F H L I H G Z b g b F b b b F L 3.3.z.z.v.z.3.3.I H F F b b b b b b N G H F F F F F F F F F F K K K K K ",
"F F F F F F F F F F F F F H L L H F b h g Z H F F F H 3.3.z.3.3.v.v.v.z.3.I H G N b N G b f h N H F F F F F F F F F F K K K K K ",
"F F F F F F F F F F F F F H H F G F Z b b G H G G L 3.3.b.b.z.3.3.3.3.3.3.3.I L G G L I b d f N G F F F F F F F F F F K K K K K ",
"F F F F F F F F F F F H F F F F F F Z Z b H 3.b.G G 3.b.w.b.b.w.,.3.3.3.3.3.3.L G z B J N h h N F F F F F F F F F F F K K K K K ",
"F F F F F F F F F F F F F F F F Z b Z F G G B z z B G B 1.b.w.B b.b.4.1.w.b.w.B z 3.w.N N b b b N F F F F F F F F F F K K K K K ",
"F F F F F F F F F F F F F H F F h h b F L G B z e.M.4.B e.N.N.e.e.M.y.2.B 1.1.B z ,.J b N N b f f h F H F F F F F F F K K K K K ",
"F F F F F F F F F F F H F F Z h g h b G J z z B =.x M 2.q.M &.N.q.e.N.N.i.e.e.e.2.x z V J J N f s f b F F F F F F F F K K K K K ",
"F F F F F F F F F F H I F h g s g b F G G B =.q.y.i.W.qXtXOXOXrXgX@X[.5XrX4XW.C.C.&.z B J J G h s f h N F F F F F F F K K K K K ",
"F F F F F F F F F F F I F g s s g b G G G =.q.E.4X4X[.W.W.W.`.[.4X`.E.[.4X`.E.[.5X`.i.B G G G b h f g h F F F F F F F K K K K K ",
"F F F F F F F F F F F F h g s s f b G G 1.q.`.rXrX{.a.t w t t 8 t t i i t y a.{.tXrXOX1.B N N G b d s s h F F F F F K K K K K K ",
"F F F F F F F F F F F h h s d f f f z 1.B ;.Q.eXQ. .w t M M z z M =.V 8 $ y ;.-.Q.4X4XE.2.B n z N d o o g F F F F F F K K K F F ",
"F F K K K K F F F F F h N 9 , z 0 8 x q.y g.].].t.] r t t q q V f V V 0 t $.;. .t.].tXhXy.$.x k z 0 < p f h F F F F F F K F F F ",
"F F K K K K K F F F C f d 0 8 : 8 8 y ;.t.>XiX9X9Xh.%.;.-.x e z B t t &.-.;.p.6X9XaXkXqXa.$.l w 0 0 d d , g F F F F F F F F F F ",
"F F K K K K K K K F F N , : q x t y $.6.:X9XiXjXzXiX6X].T.T.P.6.u.-.a.W.u.^.8XxXaXkXaX9X].g.O.> t k 0 : d h F F F F F F F F F F ",
"K K K K K K K F F F F N 8 0 w w r -.^.9X6X8XpXjXsXjXsXwX>X8X8X6XT.!.>XpX1XiXzXvXzXzXzX8X6X,X^.t.r w w e < h F F F F F K K F D D ",
"K K K K K K F F F F b b z > e -.-.^.6XeX;X;X;X&X&X;X<X7XsXsXcXnXcXlXlXlXsX7X*X*X-X;X=X!.1X1X>X:Xu.O.w < 0 c N N F F F K K K D D ",
"K K K K K K F F F F B n > w $.p.6X9X,X!.!.:.~ ! ~ ! { 9.&X<XwXbXMXnXuX<X*X9.[ ! = ' [ :.;X=X-X6X>Xp.r % k z N N F F F K K D D D ",
"K K K K K K F F F F b z z t r O.2XdX8Xh.6X/.~.;XY.#.{ | { %XwXcXnXcXwX&X| 9.:.= - h.&Xk.&X&X6XdX9XP.$.> : k N N F F F K K D D D ",
"K K K K K F F F F F N z k l u.5X:X!.h.d.-XI.I.:X_.Y.j.k.wXuXuXuXbXsXwX1X7X*Xf.:.I.9X;X| !.!.!.-XT.^.P.l 0 z F F F F K K K P P P ",
"K K K K K F F F F F b z n n 2.P.r * * [ ~.:X_.T.,X:X,X6Xh.=XyXlXmXlXyX,XT.I.^.2X:XP.f.!.!.:.[ [ ] u.N.&.0 z F F F F F K K P P K ",
"K F F F F K K F F F F G 4.e.V.P.r 2 & 3 8.T._.5XxXxXzXaXf.:.:.%.* ] t.g.6.u.{.kXxXhX,Xf.:.= & * 2 y.R.y.n b F F F F F K K K K K ",
"F F F F F K K K L L F F 5.,.4.4.x l 4 ; 2 5 *.Q.2X2X_.6.*.x y $.x t e e x 6.W.2X{.g.%.' = & * r 2 &.y.e.G F F F F F F F K K K K ",
"F F F F F F K K K L K L L G A A c l k ; ; 2 5 ' 5 *.6.&.4.&.B ,.k 0 k n n x l x O.y u * * * 2 r w n ,.,.N F F F F F F F F K K K ",
"F F F F F F F K K K K F L L 5.5.A v k 4 ; 7 7 3 o.*.<.<.4.,.A n c c c v v e 4 5 r 2 # # # 2 r +.1.1.,.G b F F F F K K F F F F F ",
"F F F F F F F K K K K L L L L L L A v k 4 ; 6 3 6 5 o.o.<.<.>.>.v v v +.+.5 2 3 3 6 # # e t l n ,.G b b H F F F F F F F F F F F ",
"F F F F F F F F K K K L l.L A z.x.A c >.,.l 3 3 @ 6 ~ ~ #.#.....W W W ~ #.~ 6 6 - 3 r l x x k z B N h h F F F F F F F F F F F F ",
"K F F K F F F F K K K L l.L L x.F.B.,.< v <.U.2X8.! U ^ ^ Q Q Q _ X._ ^ Q ^ } #.~ ~._.+.x B ,.3.w.H N N N F F F F F F F F F F F ",
"F F F F F F F F F F C h I z.D.#XK.B.M.4.+.@.I.pXY.^ U Q ) Y / ( ( / / ) Y ^ } } 9.3X2X<.x z 1.m.F N N N H F F F F F F F F F F F ",
"F F F F K K K K K F I v.K L z.n..XfX.X1 +.*.d.&X3X0.^ R Y / / / ( / / ) 0.0.^ } 7X;Xf.x x z B.#X3.w.I f N F F F F F F F F F F F ",
"F F F F F F K K F F F F F I D.XXn.F.F.x.k @.:.h.sX&X} ^ R R Y ` ) ) ) ^ } ^ | 9.8X~.$.z > z b.(.3.N h N N F F F F F F F F F F F ",
"K K F F F F F F F F K H F L v.D.|.0X#XM.4.y r d.iXj.T { E U U E U U E { @ ! d.,X^.s.t 8 : w.K.H.'.I h H m N F F F F F F F F F F ",
"K F F F F F F F F F F F I I v.K.D.K.+X0XH.B e ;.{.^.6.= - = ! T T ! [ ] ' ;.W.tX}.V :   f H.+X#X$XG.H N s h F F F F F F F F F F ",
"K K F F F F F F F F K I l.I I v.v.J.XXXXM.1.z t i.OX`.r u @.%.' ] ' r r $.V r.}.A.V     V 3.Z.'.B.b.I N h N F F F F F F F F F F ",
"K K F F F F F F F F P P l.n.G.S.m.#X$XK.b.(.A.B 2.C.y.e &.O.l O.r 2 t M 0 z V V q q q 9 V J 3.b.w.b.Z.).B.I N F F F F m F F F F ",
"K F F F K K K F F K P c.v.J. XS.J.XXoXH.b.(.'.R.4.R.U.l 2 o.<.<.o.*.6.<.t e 1.R.B z z V N G f o L b.B.K.b.3.H F b N F F F F F F ",
"F F F F K K K K K K P P P J.J.c.K.J.G.b.B.M.C.).<._._.+.5 <.U._.<.U.U.<.+.5 V.gX7.n B G d s s s G 1.3.b..XH.v.H b F F H S S S F ",
"F F F F F F F F F F P c.S v.c.j l.G.K.n.XX(.7.&.r *.*.4 ; 5 *.8.o.o.o.@.5 l <.V.r x B z G N , + : 3.b.L 3.3.3.b h b F F S S S P ",
"F F F F F F F F F F D D c.S j F I n.G.J.K.).(.N.5X4XP.e +.1 1 O.r ; ; 5 4 O.*.<.&.$.x q b f N 3.f J w.b.+XH.5.b b F F F S S D F ",
"F F F F K K F F F F D D S P P P H G.G.v.H b.A.(.e.'.C.% z V M z t &.&.t &.$.N.5X@Xe.z B 9 N N f b.b b 3.B L 3.I H F F F S S S S ",
"F F K K K K F F F F D D c.S h H H l.L.oXI Z.A.r.OX'.r.  V V M V t M =.=.-.-.i.[.tXC.z f F N F w.h h F 3.F b b F F F h m S F D S ",
"F K K K K K F F F F F F F F F F F F F F F Z.N.z C.=.> % M M =.-.8 M =.=.t t x &.&.z f f h h N F F F F F Z F F F F F F F F F F S ",
"K K K K K K F F F F F F F F K F F F F F F f :   2.M 8 : e e 8 > w 8 e t $ > 0 t &.B z f h m F F F F F F F F F F F F F F F F F F ",
"F F K F K K F F F F F F F F K F F F F F F N z e =.B t > 8 t t w 0 % % w > 0 t x y.4.G b h S F F F F F F F F F F F F F F F F F F ",
"F F F F K K K F F F F F F F F F F F F F F G z q 0 x B z > 0 0 0 z > > z 0 0 e z 1.d 9 b N F F F F F F F F F F F F F F F F F F F ",
"F F K F F F F F F F F F F F F F F F F F F b c 0 < 1.V.M.B d : : 0 < < k z z n G 1.d 9 F F F F F F F F F F F F F F F F F F F F F ",
"F F K K F F F F F F F F F F F F F F F F F H G b c 3.M.b.3.d 1 : z z c B F.H.F.B.,.b h F F F F F F F F F F F F F F F F F F F F F ",
"F F K K K F F F F F F F F F K F F F F F F Z Z Z g c c g G , . O a d d G $X0X$X).Z b Z F F F F F F F F F F F F F F F F F F F F F ",
"F F K K K F F F K K K F F K K F F F F F F Z Z Z , g b p Z p X , p g g G B..XXXD.g h F F F F F F F F F F F F F F F F F F F F F F ",
"K K K K K K K F F F F K K K F F F F F F F F Z Z o h b p Z s , p g O . , h h g s o o s F F F F F F F F F F F F F F F F F F F F F ",
"F K K K K K F F F F F K K K F F F F F F F F Z Z p h Z g Z g p s Z p O X , p s s s F I F F F F F F F F F F F F F F F F F F F F F ",
"F F F F F F F F F F F K K K F F F F F F F F F Z g Z Z h F g f g p X . O X p g s X g F F F F F F F F F F F F F F F F F F F F F F ",
"F F F F F F F F F F F K K K K K F F F F F F F F h F F F F b h b F O . f H h h F F s s F F F F F F F F F F F F F F F F F F F F F ",
"F F F F K K K F F F F K K K K K F F F F F F F F F F H F F F F F g o o s h F I v.F F F F F F F F F F F F F F F F F F F F F F F F ",
"F F F F K K F F F F F K K K K K F F F F F F F F F F F F F F F F m F F F F v.n.n.I m.v.F F F F F F F F F F F F F F F F F F F F F ",
"K K F F K K F F K K F F F F F F K F F F F F F F F F F F F F F F F h h F F F I H F F F F F F F F F F F F F F F F F F F F F F F F ",
"K K K K F F F F K F F F F F F F K K K K F F F F F F F F F F F F F F F F F F F F F F F F F F F F F F F F F F F F F F F F F F F F ",
"K F F F K K F F K F F F F F F F F F F F F F F F F F F F F F F F F F F F F F F F F F F F F F F F F F F F F F F F F F F F F F F F ",
"F F F F K K F F F F F F F F F F F F F F F F F F F F F F F F F F F F F F F F F F F F F F F F F F F F F F F F F F F F F F F F F F ",
"F F F F K F F F F F F F F F F F F F F F F F F F F F F F F F F F F F F F S S S S F F F F F F F F F F F F F F F F F F F F F F F F ",
"F F F F K K F F F F F F F F F F F F F F F F F F F F F F F F F F F F F F D D D D F F F F F F F F F F F F F F F F F F F F F F F F "
};
