/* XPM */
static char *rcp03165522714924[] = {
/* columns rows colors chars-per-pixel */
"64 64 211 2 ",
"   c #0D0A0B",
".  c #150D0C",
"X  c #1F0E08",
"o  c #11100E",
"O  c #0F0F11",
"+  c #160F11",
"@  c #0F1012",
"#  c #141214",
"$  c #1C1515",
"%  c #161519",
"&  c #1B1519",
"*  c #17191A",
"=  c #1C1A1C",
"-  c #1D1A14",
";  c #25170E",
":  c #34160D",
">  c #201615",
",  c #221A15",
"<  c #221C1C",
"1  c #2A1E1D",
"2  c #271817",
"3  c #311F1C",
"4  c #361B12",
"5  c #2B2316",
"6  c #25211D",
"7  c #2B221C",
"8  c #2F291F",
"9  c #332514",
"0  c #352A16",
"q  c #32241C",
"w  c #3A231E",
"e  c #322A1C",
"r  c #3A2C1B",
"t  c #3B331E",
"y  c #37301D",
"u  c #1E1C21",
"i  c #231E22",
"p  c #2B1E21",
"a  c #251F28",
"s  c #1F2022",
"d  c #252224",
"f  c #2B2424",
"g  c #2B2924",
"h  c #262529",
"j  c #2B2629",
"k  c #27282A",
"l  c #2C2B2C",
"z  c #332424",
"x  c #3A2723",
"c  c #332B25",
"v  c #3C2B24",
"b  c #322C2C",
"n  c #392C2C",
"m  c #302628",
"M  c #2E302F",
"N  c #3B3325",
"B  c #33312D",
"V  c #3A332C",
"C  c #3E392C",
"Z  c #333020",
"A  c #2E2E31",
"S  c #332E32",
"D  c #3A2E33",
"F  c #2F3434",
"G  c #2F3837",
"H  c #2F3739",
"J  c #333436",
"K  c #3A3333",
"L  c #3C3A35",
"P  c #333539",
"I  c #3B343A",
"U  c #37383A",
"Y  c #3C3B3A",
"T  c #373835",
"R  c #441E0F",
"E  c #411D14",
"W  c #43251E",
"Q  c #412C1A",
"!  c #462619",
"~  c #44331B",
"^  c #57311D",
"/  c #422C23",
"(  c #422E29",
")  c #482B23",
"_  c #522D24",
"`  c #433423",
"'  c #4A3226",
"]  c #433922",
"[  c #4E3B24",
"{  c #42332D",
"}  c #4A352C",
"|  c #443B2C",
" . c #4A3C2A",
".. c #513B2A",
"X. c #563626",
"o. c #423632",
"O. c #423C34",
"+. c #4B3D34",
"@. c #40373A",
"#. c #423D3C",
"$. c #4B3D3A",
"%. c #583D33",
"&. c #613E33",
"*. c #3F403B",
"=. c #4D432C",
"-. c #54422C",
";. c #5A442A",
":. c #474036",
">. c #4A4336",
",. c #45413D",
"<. c #4B443B",
"1. c #4D4836",
"2. c #524135",
"3. c #5C4A36",
"4. c #54443A",
"5. c #5C443B",
"6. c #5E4C3D",
"7. c #524A3E",
"8. c #5C523E",
"9. c #67432E",
"0. c #61453C",
"q. c #6B4C3F",
"w. c #664B34",
"e. c #714C3A",
"r. c #64513C",
"t. c #6F553F",
"y. c #75523C",
"u. c #3E3E40",
"i. c #473E42",
"p. c #444243",
"a. c #4A4441",
"s. c #4B4A44",
"d. c #4C4749",
"f. c #4C4A4B",
"g. c #474548",
"h. c #534643",
"j. c #524C46",
"k. c #5D4D43",
"l. c #534D4B",
"z. c #5A4F4B",
"x. c #555047",
"c. c #5B5445",
"v. c #54524B",
"b. c #5C554C",
"n. c #5E5849",
"m. c #555254",
"M. c #5B5754",
"N. c #595956",
"B. c #5A5B5B",
"V. c #6B4D42",
"C. c #665442",
"Z. c #63524C",
"A. c #6C5149",
"S. c #6C5B4B",
"D. c #6A5744",
"F. c #765445",
"G. c #715A46",
"H. c #7B5C44",
"J. c #7B5C4C",
"K. c #76594D",
"L. c #655C56",
"P. c #695956",
"I. c #755D52",
"U. c #73644A",
"Y. c #7A654A",
"T. c #6C6456",
"R. c #6C645D",
"E. c #7C655A",
"W. c #7C6550",
"Q. c #7C745E",
"!. c #645F63",
"~. c #6A6463",
"^. c #6A6867",
"/. c #756B65",
"(. c #7D7664",
"). c #7E746D",
"_. c #7A756C",
"`. c #7A7876",
"'. c #835E4D",
"]. c #81644B",
"[. c #8C6E55",
"{. c #866C5B",
"}. c #8A6C5B",
"|. c #866754",
" X c #8D725E",
".X c #92755D",
"XX c #98765E",
"oX c #826C66",
"OX c #897566",
"+X c #947B62",
"@X c #947B6B",
"#X c #997A66",
"$X c #867F79",
"%X c #927F7A",
"&X c #9F836C",
"*X c #9B896E",
"=X c #8F877C",
"-X c #86807A",
";X c #91897E",
":X c #9E9178",
">X c #A28570",
",X c #A7937C",
"<X c #9D8F87",
"1X c #A98F87",
"2X c #A6948F",
"3X c #BB9B87",
"4X c #AC9C94",
"5X c #B49F98",
"6X c #BBA296",
"7X c #C4A18D",
"8X c #C3ADA5",
/* pixels */
"J J J J J J P J J J J J J J J J J J J J J J J J J J J J J J J J J J J J J J J J J J J J J J J J J J J J J J J J J J J J J J J J ",
"J J J J J P P J J J J J J J J J J J J J J J J P J J J J J J J J J J J J J J J J J J J J J J J J J J J J J J J J J J J J J J J J ",
"J J J J J J J J P J P P J P P J P P J J J J J J J P J J J J J J J J J J J J J J J J J J J J J J J J J J J J J J J J J J J J J J ",
"J J J J J J J J P P P J J J P P P P P J J J J J J J J J J J J J J J J J J J J J P P P J J J J F J J J J J J J J J J J J J J J J ",
"J J J J J J J P J J J J J J J J J J J J J S S J J J J J J J J J J J J J J J J J P P P P P P F F F F F J J J J J J J J J J J J J ",
"J J J J J J J J J J J J J J J J J K K K K J P P J J J B B B B B B B J J J J J P P P P P J J J J J J J J J J J J J J J J J J J J ",
"J P J J J J P P J J J J J J J J J K J J J J P P P J J B B B B B b b b b S J J P P P P J J J J J P J J J J J J J J J J J J J J J ",
"P P J J J P P P J J J J J J J J J J J J S S S S S S b l b B B B B B B J J J P P P P P J J J J J J J J J J J J J J J J J J J J J ",
"P J J J J J J J J J J P J J J J J J S S S S A S J J S S J I L L Y Y Y Y Y Y Y U U I I J T T J J J J J J J J J J J J J J J J J J ",
"J J J J J J J J J J P P J J J J J S S S S S S S J J J J K L Y #.#.#.,.,.,.,.#.#.#.Y Y Y L T J B J J J J J J J J J J J J J J J J ",
"J J J J J J J J J J P P J J J J J S S S S l j j l l j j b B K I L L L @.#.,.,.,.,.,.,.#.L T J B B B B J J J J J J J J J J J J J ",
"J J J J J J J J J J J J J P J S l l l j h b b b b J K I Y @.#.#.#.@.#.:.O.K L a.j.L V L ,.#.b 6 :.B l ,.L T J J J J J J J J J J ",
"J J J J J J J J J J J J J J J l j l l l j b S S K K I I Y @.#.#.p.#.#.,.:.O.L C :.<.<.O.j.#.K K g L #.J f l J J J J J J J J J J ",
"J J J J J J J J J J J J J J A h h j b S S S D D K I I I @.@.#.#.#.p.p.#.O.O.O.C C >.j.b.:.<.j.a.L L O.#.L T J J J J J J J J G G ",
"J J J J J J J J J J J J J S l h d j b S S D K K K K I I I @.@.@.@.p.p.#.o.O.:.O.C :.b./.b.R./.R.<.j.x.a.L J J J J J J J J J J J ",
"J J J J J J J J J J J J J l h d d j S S J K K K K K K K I I I L L @.@.#.:.>.O.C O.n.).<X;X=X=X$Xb.).-X~.#.K J J J J J J J P P P ",
"J J J J J J J J J J J J A l h d d j S J J K K K K D D D D K K K I I K O.:.>.>.1.c.T.(.OXc.7.<.>.:.<.l.M.L K J J J J J J J P P P ",
"J J J J J J J J J J J A l k d d d l S J J K I I K I K K K I I K J K K C N | c.(.Q.8.=.| 5 5 5 c 8 - 6 O.K J J J J J J J J P P P ",
"J J J J J J J J J J J A A d u d h h S I I K I I I I I I I I I I B K C N | | 8.Q.=.r 9 e 5 5 8 V g g b K B J J J J J J J J P P P ",
"J J J J J J J J J J J J J d u h j h b I L K K D D I I I I I I I K C C y t ] =.3.~ 9 9 r e N V b b f k J L J J J P P P J J J J J ",
"J J J J J J J J J J J A l d i h h d j J D K K K D I I I I I K B 6 | =.y =.U.U.[ ~ [ ` 9 e 6 8 b - < d d J P J P P P P J J J J J ",
"J J J J J J J J J J J l h d i d d d d j j b K K I I I I I I I o.+.|  .r.,X*XY.;.w.r.D.S.4.<.o.c a.L J Y J J P P P P P J J J J J ",
"F F F F F J J J J J J l d d d d d d d p f c n V n D D D D D D { {  .3.G.+X.X[.].}.,X6X6X4XoXZ.l.O.<.#.l J J P P P P P J J J J J ",
"F F F F F J J J J J J l d h h d d h d i f f f z m m z f z z v ( } 3.W.&X+X].H.XX7X3X6X8X8X2X/.K K b g J J J P P P P P J J J J J ",
"F F J J J J J J J J J l u d h i d h d < f 7 6 7 f f p 1 3 x x ( ..@X3X&X[.H.w.9.e.F.}.1X8X2X/.$.n K I J Y U P P P H H J J J G G ",
"F F J J J J J J J J A k i d d i i d d < f 6 < 7 f f f p 3 x / } 0.@X>X].XXy.X.^ R X.q.E.5X<XP.{ K K I J l J P P H H H G G F G G ",
"F J J J F J J J J J A h h h h d d i d f f 6 6 6 7 f f f 3 x ( %.{.OX.X+X3X|.y.'.&.&.0.A.5X%XZ.o.V K K J J J J P P H H F F J J J ",
"J J J J F J J J J J J A l h d i i d f f f f 7 6 1 1 7 f z v } 5.@XJ.H.&X3X#XJ.F.K.V.A.oXoXP.h.o.V b J U M J J P P P P J J J J J ",
"F F F F F J J J J J J A l h d i i d d d 6 f f 6 7 7 1 1 z v } 4.I.D.r.t.|. X}.K.0.I.oXoX+.{ v z n K I J k F J P P P P J P J J J ",
"F F F F F J J J J J J J J S A l h d d d d 6 6 d f f f 1 1 z ( %.S.3.....[ 3.C.6.5.k.Z.k.v V c 6 n B B B Y U J P P P P J J J J J ",
"F J F F J J J J J J J J J P P J b h d d d < = d f f d 1 1 q v +.E.6.` ~ r... .4.| +.+.{ N { V 6 B K B l Y U P P P P P J J J J J ",
"J J F F J J J J J J J A J J J S S l h h h d 6 = < d f f 1 7 q v  .8.S.C.` N >.c.4.| V C V c g g B L L l l J P P P P P J J K J J ",
"J J J J F J J J J J J J J A A J J J J J l k d = * = < f f f 7 5 v 2.k.6.` r / } v { | V c c B #.k B J J J J J P P P J J J J J J ",
"J J J J J J J J J J J J J J J J J J J J J B B B k #   . . . . ; X 3 / ' V.) : 4 ) ) x v V K K B B B J J J J J J J J J P P J J J ",
"J J J J J J J J J J J J J J J J J J J J J J l 6 6 < $ . $ 1 1 1 q w w / W %.&._ E : 4 z n V K B B J J J J J J J J J J P P J J J ",
"J J J J J J J J J J J J J J J J J J J J J l k k o   # f K K K #.{ x x } } V.K.q.! W w q c B K J J J J J J J J J J J J P P P P P ",
"J J J J J J J J J J J J J J J J J J J J J J l d # $ * < f./._.R.P.<.( / ' q.|.}.! : 2 5 c B K J J J J J J J J J J J J P P P P P ",
"J J J J J J J J J J J J J J J J J J J J J l M F   # d L ~.^.v.V a.T.k.: Q G.{.G.X.Q 9 5 c B K J J J J J J J J J J J J P P P P P ",
"J J J J J J J J J J J J J J J J J J J J J l l l O = d d p.N.v.T L.x.+.` r -.U.OX-.Q 0 q c V K K B J J J J J J J J J J P P P P P ",
"J J J J J J J J J J J J J J J J J J J J J J A k   d h * F p.*.M x.x.>.e y ] U.,X-.[ | e V K K B B B J J J J J J J J J P P P P P ",
"J J J J J J J J J J J J J J J J J J J J J l k h O % * * l B J Y s.<.C e y t D.:X3. .` V V K K J K J J J J J J J J J J P P P P P ",
"J J J J J J J J J J J J J J J J J J J J J J J h @ @ % d P f.^.`.v.,.C Z N ] y 9 0 0 e V V K K J J J J J J J J J J J J P P P P P ",
"J J J J J J J J J J J J J J J J J J J J J J A i % % i A A p.B.`.N.s.L c N 5 e | 5 e c V V K K J J J J J J J J J J J J P P P P P ",
"J J J J J J J J J J J J J J J J J J J J J J l d d = u h % * h P N.B.~._.V 6 , ; , 8 c V V K K J J J J J J J J J J J J P P P P P ",
"J J J J J J J J J J J J J J J J J J J J J K K J b & # = % u i h U m.m.p.M.I 6 7 , < c V V K K J J J J J J J J J J J J P P P P P ",
"J J J J J J J J J J J J J J J J J J J J J S b S d & & i h d i u % A P S !.K p.$Xc c K K K K K J J J J J J J J J J J J P P P P P ",
"J J J J J J J J J J J J J J J J J J J J J b j f > < i h S a u u u & l f.@.b i.~.p m K K J J J J J J J J J J J J J J J P P P P P ",
"J J J J J J J J J J J J J J J J J J J J J S b j & i d d S h d j h < & $ > p c n < 1 f b I J J J J J J J J J J J J J J P P P P P ",
"J J J J J J J J J J J J J J J J J J J J J J l d & < d d S b j f p c m 1 f K V 1 f < > d I J J J J J J P J J J J J J J J J J J J ",
"J J J J J J J J J J J J J J J J J J J J J I J i # & < j j f f f c c c m n z.z.n c f 1 < J J J J P J J P J J J J J J J J J J J J ",
"J J J J J J J J J J J J J J J J J J J J J P J h h = & = + $ $ $ > > > < 1 h.j.c 7 f f h U U J J P J J U J J J J J J J J J P P J ",
"J J J J J J J J J J J J J J J J J J J J J l l J I d $ = $ 1 f > $ $ > $ > n V 7 $ , f J g.p.U P P J J P J J J J J P P J P P P P ",
"J J J J J J J J J J J J J J J J J J J J J J J J J d < d b K J j f f p < > $ , < $ f b U f.p.U P P J J P J J J J J J J J P P J J ",
"J J J J J J J J J J J J J J J J J J J J J U U J f f d d b J Y #.J i d I I S f > $ = < h U P J J P J J U J J J J J J J J J J J J ",
"J J J J J J J J J J J J J J J J J J J J J J J b d b c < d b d.^.^.@.b #.b j <   & i = # h k k A J J J U J J J J J J J J J J J J ",
"J J J J J J J J J J J J J J J J J J J J J J J b f f f f b d p.`.m.p.I S J J S h i & & * * * s k J U U J J J J J J J J J J J J J ",
"J J J J P J J J J J J J J J J J J J J J J J J S < d h d < < b d.#.I J J P P S h u & * u u = = d h l J J P J J J J J J J J J J J ",
"J J J J P P J J J J J J J P J J J J J J J J j = f i = $ d = i S J J J P I P A h u % # * * = d h k l F J P P J J J J J J J P J J ",
"P P J J J P J J P P J J P P J J J J J J J J j d > f d = = b J A P P P P P P F l u % # # * d l J J J J J P J J J P P J J P P J J ",
"P J J J J J J J P P P J P P J J J J J J J b d > c b c f j J P J I I P J J P P P A h u u h l J J J J J J P J J J P P P J P P J J ",
"P P J J J J J J J J J J P P J J J J P J J J K K L a.l.f.J p.g.I P P P J F P P P P A A F J J J J J J J J P J J J J J J J P P J J ",
"J J J J P P J J J J J J P P J J J J P J J J J B I #.f.m.J Y u.P J P U U P J P P P P P P P P P P P P J J J J J J J J J J P P J J ",
"J J J J P J J J J J J J J J J J J P J P J J J J J J U U J J J J J J P P J J J J P P P P J J J J J J J J J J J J J J J J J J J J ",
"J J J J P P J J J J J J J J J J J J J P J J J J J J J J J J J J J J J J J J J J J P P P J J J J J J J J J J J J J J J J J J J J "
};
