/* XPM */
static char *rcp03164097719346[] = {
/* columns rows colors chars-per-pixel */
"64 64 214 2 ",
"   c #0E0505",
".  c #0A080B",
"X  c #130A06",
"o  c #140C0C",
"O  c #190F0E",
"+  c #1A1207",
"@  c #1A120E",
"#  c #12110F",
"$  c #0F0E10",
"%  c #1A0F12",
"&  c #160F10",
"*  c #151214",
"=  c #1C1314",
"-  c #1D1916",
";  c #171719",
":  c #1B161A",
">  c #17181A",
",  c #1D1A1C",
"<  c #251C0C",
"1  c #291E0C",
"2  c #391D0A",
"3  c #201616",
"4  c #231A14",
"5  c #2B1D13",
"6  c #21171A",
"7  c #241C1C",
"8  c #291E1D",
"9  c #3A1619",
"0  c #3B1A1C",
"q  c #341B1B",
"w  c #3C220C",
"e  c #2B2214",
"r  c #27221E",
"t  c #2C231C",
"y  c #2B2419",
"u  c #352514",
"i  c #32241C",
"p  c #3B221B",
"a  c #342B1C",
"s  c #3C2B1C",
"d  c #392817",
"f  c #37301E",
"g  c #38311F",
"h  c #1E1E20",
"j  c #241E21",
"k  c #291E22",
"l  c #3A1F24",
"z  c #1D2122",
"x  c #252223",
"c  c #2A2324",
"v  c #2E2A26",
"b  c #262729",
"n  c #2B2629",
"m  c #27292A",
"M  c #2D2B2C",
"N  c #252827",
"B  c #322623",
"V  c #332B24",
"C  c #3A2D22",
"Z  c #31272A",
"A  c #3E262D",
"S  c #322C2D",
"D  c #3D2C2D",
"F  c #3C2427",
"G  c #2E302F",
"H  c #363124",
"J  c #3A3324",
"K  c #35332C",
"L  c #3B342B",
"P  c #3B392B",
"I  c #3D3926",
"U  c #2E2F31",
"Y  c #332E31",
"T  c #3B2E32",
"R  c #2F3333",
"E  c #2F3835",
"W  c #333435",
"Q  c #3A3434",
"!  c #353837",
"~  c #3C3A35",
"^  c #343538",
"/  c #3C3639",
"(  c #373939",
")  c #3B3A3C",
"_  c #452919",
"`  c #47311A",
"'  c #422124",
"]  c #412E23",
"[  c #4A2B21",
"{  c #42252B",
"}  c #492C2E",
"|  c #423423",
" . c #453924",
".. c #43332C",
"X. c #4B342B",
"o. c #423B2C",
"O. c #4B3B2A",
"+. c #4B3926",
"@. c #513C2D",
"#. c #523626",
"$. c #462E33",
"%. c #413435",
"&. c #4A3635",
"*. c #433C33",
"=. c #4D3A34",
"-. c #41353B",
";. c #423C3D",
":. c #493C3C",
">. c #523D32",
",. c #5A3C33",
"<. c #3E433F",
"1. c #4E402D",
"2. c #54412D",
"3. c #59442E",
"4. c #434035",
"5. c #4C4333",
"6. c #44423C",
"7. c #4B433B",
"8. c #4F483B",
"9. c #4F4837",
"0. c #544433",
"q. c #5B4433",
"w. c #54433B",
"e. c #534B3D",
"r. c #5C4D3B",
"t. c #604636",
"y. c #6A4F3A",
"u. c #624A33",
"i. c #67523D",
"p. c #72533C",
"a. c #3F3F42",
"s. c #443C42",
"d. c #483F43",
"f. c #3E4041",
"g. c #454244",
"h. c #4A4245",
"j. c #474749",
"k. c #4C4B4C",
"l. c #4A4846",
"z. c #524443",
"x. c #544C43",
"c. c #5A4A46",
"v. c #534B4B",
"b. c #4D504F",
"n. c #5C534A",
"m. c #5B5349",
"M. c #534F51",
"N. c #4E5151",
"B. c #5B5455",
"V. c #585859",
"C. c #634E47",
"Z. c #625444",
"A. c #695549",
"S. c #635B4C",
"D. c #6B5C4B",
"F. c #665546",
"G. c #725C43",
"H. c #745D49",
"J. c #715143",
"K. c #635D51",
"L. c #635B5B",
"P. c #6C5E5C",
"I. c #6A5853",
"U. c #705C52",
"Y. c #69604E",
"T. c #7B6146",
"R. c #7D654B",
"E. c #6D6253",
"W. c #6E665A",
"Q. c #776956",
"!. c #7B6B54",
"~. c #726A5C",
"^. c #786659",
"/. c #5F5D60",
"(. c #655E61",
"). c #646363",
"_. c #6F6562",
"`. c #6E6D6D",
"'. c #746B67",
"]. c #7A7368",
"[. c #766D70",
"{. c #7B7577",
"}. c #757473",
"|. c #836D54",
" X c #876B57",
".X c #83715B",
"XX c #8C795F",
"oX c #8A745C",
"OX c #93745D",
"+X c #82736C",
"@X c #837B6B",
"#X c #8A7B66",
"$X c #917D63",
"%X c #967668",
"&X c #8F7973",
"*X c #847E78",
"=X c #917E78",
"-X c #93836B",
";X c #9D846C",
":X c #9A8367",
">X c #8B8478",
",X c #938A7C",
"<X c #998277",
"1X c #9E907C",
"2X c #A2876D",
"3X c #A68B76",
"4X c #AA9379",
"5X c #8E8E8E",
"6X c #998D85",
"7X c #9C9486",
"8X c #BA9A87",
"9X c #AE9689",
"0X c #C8A798",
"qX c #D6B29F",
/* pixels */
"^ ^ ^ ^ ^ ^ ^ ^ ^ ^ W W W W W W W W W W W W W W W W R R R R W R R R R R R R R R R R W W W W W W W W W W W W W W W W W W W W W W ",
"^ ^ ^ W W W W W W W W W W W W W W W W W W W W W W R R R R R R R R R R R R R R R W W W W ^ W W W W W W W W W W W W W W W W W W W ",
"W W W W W W W W W W W W W W W W W W W W W W W W W R R R R R R R R W W W R R R R W ^ ^ W ^ W W W W W ^ ^ ^ ^ ^ W W W W W W W W W ",
"W W W W W W W W W W W W W W W W W W W W W W W W W W W W W W W W W W W W W W W W W ^ ^ W W W W W ^ ^ W W W W ^ W W W W W W W W W ",
"W W W W W W W W W W W W W W W W W W W W W W W W W W W W W W U U U W W W W Y U Y W W W U W W W ^ ^ ^ W W W W ^ W W W W W W W W W ",
"W W W W W W W W W W W W W W W W W W W W W W W W W W W W W W Y Y W W W W W Y Y Y W W W M U U W ^ ^ ^ W W W W ^ W W W W W W W W W ",
"W W W W W W W W W W W W W W W W W W W W W W W Q / / / ) ) / / / ) ) / / / Q W W W W W M M U W W W W W W W W ^ W W W W W W W W W ",
"W W W W W W W W W W W W W W W W W W W W W Q / / ;.s.s.d.d.d.s.s.;.;.;.-./ Q W Y Y W Y M M U U W W W W W W W ^ W W W W W W W W W ",
"W W W W W W W W W W W W W W W W W W W W W ~ :.:.d.h.h.h.d.s.s.;.;.;.-./ Q Y S Z Z S S M M M U U R W W ^ ^ ^ ^ ^ ^ W W W W W W W ",
"W W W W W W W W W W W W M v K ~ V K V t J *.*.~ :.v.v.g./ / / s.;.s.s.s.;.-.-.Q T T S M M M M n M M W ^ ^ W W W W W W W W W W W ",
"W W W W W W R R R R W W W K K P L o.o.5.9.e.e.7.7.:.~ / ;.g.d.) s.s.s.s.s.-.-.%.Q Q T S S S n n n M S W W W W W W W W W W W W W ",
"W W W W W R R R W R R K ~ K H H I a J 9.5.o.*.7.7.*.~ ~ ;.h.h.d.g.g.s.s.;.-.-.%.%.%.Q Q W S S M n n M M S W W W W W W W W W W W ",
"W W W W W W R R R R R M ~ ~ 4.x.S.5.9.W.E.E.S.n.8.*.~ ~ 6.g.g.g.g.g.s.;./ / Q Q %.Q / / W Y S S n n n n S W W W W ^ W W W W W W ",
"W W W W W W R R W W R K ~ 6.m.].>X~.~.,X7X6X,X,XW.7.K L 6.6.6.) ;.) / / Q Q Q Q Q Q Q Q W Y S S M n x n M W W W W ^ W W W W W W ",
"W W W W W W W R W W W W W ~ l.K.K.x.e.S.E.D.~.,X*XK.8.4.6.*.~ ~ ~ ~ Q W W Y Q Q Q Q Q Q Y Y W W S n x x M W W W W W W W W W W W ",
"W W W W W W W W W W W W ^ W K K y y y e a a | r.Z.Y.W.W.e.P K *.L K K K K K Q Q Q Q Q Q Y W Q / Y n 7 7 n S W W W W W W W W W W ",
"W W W W W W R R W W W ^ ^ W S v t V V i i u u | s  .S.@X9.J P 4.P K K K Q Q Q W W W Q Q Q Q Q Q S n x 7 7 M W W W W W W W W W W ",
"W W W W W W ^ ^ W W W W W W S S V V V C C u d ` | s 1.Y.o.J H J P P K K Q ~ ~ W Q Q Q Q Q Q W S M n n j : n S W ^ W W W ^ ^ W W ",
"W W W W W W ^ ^ W ^ W Y W W S S c t t V C ] p 2 w _ +.r.!.D.5.a I P P K K K Q Q ~ Q Q W Q Q Y M n n x x 6 x M W ^ W W W ^ ^ ^ W ",
"^ ^ W W W W ^ ^ W ^ ^ ^ W S S W ~ ~ %.....X.t.H.y.y.u.3.!.-XQ.| g I P P K K K Q Q W W W Y S S n c x x x j x m Y W W W W ^ ^ ! ^ ",
"W W W W W W ^ ^ ^ ^ ^ ( W Y Y Q :.7.z.c.C.&X8X0X3XOX X XoX-X!. .a f I o.P L L L D S S S S M n c x x x x x x x M W W W W ^ ! ! ! ",
"W W W W W W ^ ^ ^ ^ ^ ^ ^ ^ Q W S Q z.P.&X8X0X0XqX4X2X:XR.|.$X-X .a a a V V V c c Z S M c c c c x x 7 x x x x M W ^ W W W ^ ! ! ",
"W W W W W W ^ W W W W W ^ / Q Q S S 7.P.<X0X0X%X Xp.p.T.p.T..XXXF.O.a 1 e t c 7 7 k c c x j x c c x 7 j x x x M ^ ^ W W W W ! ^ ",
"W W W W W W W W W ^ ^ ^ W W ^ Q Q / h.L.+X7X<XJ.` w w _ ` R.$X!.#XD.O.5 5 t c t 7 8 c c j j j c c x 7 x x x x M W ^ W W W W W W ",
"W W W W W W W W W W ^ ^ W W W Q W Q :.M._.6X&XX.q.#.u.|.G.2X4X|.|..XA.] 5 i B t t t c c k k k c c c n n n x x m M W W W R R R R ",
"W W W W W W W W W ^ ^ W W W W Q W W ~ h.B.'.+X^.>.q.G.|.T.:X4X;XH.^.U.=.q i B 8 8 t B c c c c c c c k j j n M M W W W W W R R R ",
"W W W W W W W W W W W W W W ^ Q W S Y Q :.:.I.=X^.D.F.G.$XXX|.H.@.A.I.w.B B B 8 4 t c c c k k k k j j j 7 M W ^ ^ ^ W W R R R R ",
"W W W W W W W W W W W W W ^ Q Q W S M S S :.z.c.^.Z.u.H.i.3.2.q.| C.A.:.B B B t 8 c c c c k k k c c n M S W W W W W W R R W W ! ",
"W W W W W W W W W W W W ^ ^ ^ ^ W Y S M Z Q &.=.w.0.0.2.2.2.O.O.w.C.c.L 8 c c c c c c k j j j j c n S W Q W W W G R R R W W W E ",
"W W W W W W W W W W W W ^ ^ W W W W W Y S T %.&.X.=.>.@.+.2.r.r.n.c.*.c 7 7 7 7 M x j j j j x c c M S Y W W W G G R W W W W W R ",
"W W W W W W W W W W W W ^ W W W Q Q ~ Q T T D D w...] O.O.| 5.E.e.L t 4 c x j 6 n : : n M M S W W W W W W W W W R R W W W W W R ",
"W W W W W W W W W W W ^ ^ ^ ^ Q Q Q Q Q T T A F q p s d u O.5.C a 4 X   = : * . . j m n W ^ W Y S S M M W W W W W W W W W W W W ",
"W W W W W W W W W ^ W ^ ^ ^ ^ ^ Q Q Q T T T { { q p p u d O.| 1 + 4 V / 6 , j n ^ ; * ^ / W M M ^ ) ^ M M W W W W W W W W W W W ",
"W W W W W W W W W ^ W ^ ^ ^ ^ ^ Q Q Q T T A A ' 0 p p s 0.r.O.1 @ V V - 6 : x / j j > * x W ^ ^ ! ^ W G W W ^ W W W W W W W W W ",
"W W W W W W W W W W W ^ ^ ^ ^ ^ Q Q Q Q T A l 0 0 p _ @.!.Q.e.e + @ = = c n g.{.*X`.k.x W ^ W W W W W W ! ^ ^ ^ ^ ^ ^ ^ ^ ^ ^ ^ ",
"W W W W W W W W W W W ^ ^ ^ ^ ^ Q Q Q Q T { ' 9 0 _ [ q.<X.X0.1 < X o 4 7 B.[.`.{.{.).j.g.W N N W ) ( W G W ^ ^ ^ ^ ^ ^ ^ ^ ^ ^ ",
"W W W W W W W W W W W ^ ^ ^ Q Q Q Q Q Q T $.{ 9 ' [ #.t.3X!.O.< 5 4 8 t 8 S h.L.(.k.k.).V.k.^ m M R W W ! ^ ^ ^ ^ ^ ^ ^ ^ ^ ^ ^ ",
"W W W W W W W W W W W ^ ^ ^ ^ Q ^ ^ W Q T $.{ 0 } ,.,.i.9X.X0.a e y 4 = 7 k Z Q S S W ) <.( R G W ! W W W W W W ^ ^ ^ ^ ^ ^ ^ ! ",
"W W W W W W W W W W W W ^ ^ ^ W M M W / Y T D l &.>.w.D.1X#XZ.s i y 4 3 - = = = 6 t g.}.b.b.<.z R W W W ( ^ W W ^ ^ ^ ^ ^ ^ ^ ^ ",
"W W W W W W W W W W ^ ) ^ R W ) ) ) W x : 7 6 O D L ..9.@X7X+XC t 8 4 3 - = O O 4 c ;.B.W g.N.k.g.^ W W W W ^ ^ ^ ^ ^ ^ ^ ^ ^ ^ ",
"W W W W W W W W W W W ^ W W W ( M M M M V.Y = 6 V V V o.S.@X].*.B t 7 7 7 6 = @ 4 c ;.).5X`.b.g.( W W U ^ ^ ^ ^ ^ ^ ^ ^ ^ ^ ^ ^ ",
"W W W W W W W W W W ^ ^ ^ ^ ( ) m R m , /.Y - c V P *.5.g e.S.x.L B c 7 6 = % = 7 S Q W g.x x ) h z m W W W ^ ^ ^ ^ ^ ^ ^ ^ ^ ^ ",
"W W W W W W W W W W W ( ^ W W ) ^ f.M . h : & O S n.S.9.I ~.>X].*.V 8 6 = % O @ 8 S ~ g.m W N.}.f.^ ) a.^ W ^ ^ ^ ^ ^ ^ ^ ^ ^ ^ ",
"W W W W W W W W W W R M ^ ^ W U x M m > ^ , o = 8 V J J J S.@X'.*.V 8 6 6 = = O = - c M x U ) ^ > z M M ^ ^ ^ ^ ^ ^ ^ ^ ^ ^ ^ ^ ",
"W W W W W W W W W W ^ ) ^ W W ) ) ( W b x x 7 = X   o 4 < y L 7.7.~ Z j 7 6 = O O @ ;.{.^ W j.V.b b W ) ) ^ ^ ^ ^ ^ ^ ^ ^ ^ ^ ^ ",
"W W W W W W W W W W ^ ( R M U ^ ( W W ) ^ B.k.- 4 t V J a o.9.n.W.v.D j 6 6 3 = @ = Q L.k.m * ; * U ) W W W W W W W ^ ^ ^ ^ ^ ^ ",
"W W W W W W W W W W W W W W W W ^ ^ ) ) ) (.B.c 8 V J J f o.K.,X7XL.S 6 k k 6 = X = - # ; > , x M W ^ ^ W W W W W W ^ ^ ^ ^ ^ ^ ",
"W W W W W W W W W W W W W W W W W ^ ^ ) ) M.v.Z V V J J J o.e.~.6XP.Q 7 7 7 - O   o - x m M U R W ^ ^ ^ W W W W W W ^ ^ ^ ^ ^ ^ ",
"W W W W W W W W W W W W W W W W W W ^ ^ ^ W S c V V V a J J J P '.z.c = = % = O X O : M W ^ ^ ^ W W ^ ^ W W W W W W ^ ^ ^ ^ ^ ^ ",
"W W W W W W W W W W W W W W W W W W W W W Q S 8 t V J a e y a J *.8 O o o o = 3 @ = , x M W ^ W W W W ^ ^ W W W W W ^ ^ ^ ^ ^ ^ ",
"W W W W W W W W W W W W W W W ^ W W W W W W W S V J C y < e e 4 4 o o % % % = 6 - = : x M W ^ W W W W W W W W W W W ^ ^ ^ ^ ^ ^ ",
"W W W W W W W W W W W W W W ^ ^ ^ ^ W W W M Q h.v.n.x.*.H V e X @ = 4 Z k = = - = o - M W ^ ^ ^ W W W W W W W W W W ^ ^ ^ ^ ^ ^ ",
"W W W W W W W W W W W W W W ^ ^ ^ ^ ^ ^ ^ ) ;.%.h._.].K.t e y V 4 8 S / n = O * X   * M W ^ ^ W W ^ ^ W W W W W W W ^ ^ ^ ^ ^ ^ ",
"W W W W W W W W W W W ^ ^ ^ ^ ^ ^ ^ ^ ^ ^ ) / / L.L.v.K v r 7 r c S S n : * : x x - , W W R R U W ^ ^ ^ W W W W W W W W W W ^ ^ ",
"W W W W W W W W W W W ^ ^ ^ ^ ^ ^ ^ ^ ^ ^ W Q ) ;.n , x / Y c , o 7 S Y k : = : : * ; x M W W W W W W W W W W W W W W W W W ^ ^ ",
"W W W W W W W W W W W ^ ^ ^ ^ ^ ^ ^ ^ ^ ^ W W Y x , j M n * o : = x Y Y c , : , : * * > b W ^ ^ W U U W W W W W W W W W W W ^ ^ ",
"W W W W W W W W W W W ^ ^ ^ ^ ^ ^ ^ ^ ^ ^ ^ / / W W Y M j * * , M Y M x , : , j , * * h M W ^ W W R R W W W W W W W W W W W ^ ^ ",
"W W W W W W W W W W W ^ ^ ^ ^ ^ ^ ^ ^ ^ ^ W W W ^ W M , , x , $ M Y M n x j j x x x x M W W W R W W W W M W W W W W W W W W ^ ^ ",
"W W W W W W W W W W W ^ ^ ^ ^ ^ ^ ^ ^ ^ ^ ) ) ^ ^ j.k.) m x , $ n Y W ^ ^ W M M U W ^ W ^ W W R R W ^ W M W W W W W W W W W ^ ^ ",
"W W W W W W W W W W W ^ ^ ^ ^ ^ ^ ^ ^ ^ ^ ( a.j.) g.k.k.W M b b ^ W W R W ^ ^ W W ^ ^ W W W W W W W W W U W W W W W W W W W ^ ^ ",
"W W W W W W W W W W W ^ ^ ^ ^ ^ ^ ^ ^ ^ ^ W ^ ) ^ ^ ^ ) W W W W ^ ^ W U W W ^ ^ W W W W W W W W W W W W R W W W W W W W W W ^ ^ ",
"W W W W W W W W W W W ^ ^ ^ ^ ^ ^ ^ ^ ^ ^ W W ^ ^ ^ ^ ^ ^ ^ ^ ^ ^ ^ ^ ^ ^ ^ W W ^ ^ W W W W W W W W W W W W W W W W W W W W ^ ^ ",
"W W W W W W W W W W W ^ ^ ^ ^ ^ ^ ^ ^ ^ ^ W W W W W W W W W W W W W W W W W W W W W W W W W W W W W W W W W W W W W W W W W ^ ^ ",
"W W W W W W W W W W W ^ ^ ^ ^ ^ ^ ^ ^ ^ ^ W W W W W W W W W W W W W W W W W W W W W W W W W W W W W W W W W W W W W W W W W ^ ^ "
};
