/* XPM */
static char *rcp00162185342456[] = {
/* columns rows colors chars-per-pixel */
"64 64 195 2 ",
"   c #1D1D0C",
".  c #1D1A07",
"X  c #1C1614",
"o  c #1D1B14",
"O  c #1D1E1B",
"+  c #161B12",
"@  c #221F03",
"#  c #211B0D",
"$  c #271A0A",
"%  c #221B11",
"&  c #271919",
"*  c #33181A",
"=  c #1D2209",
"-  c #1D221B",
";  c #1F2117",
":  c #262009",
">  c #25231B",
",  c #29231D",
"<  c #252114",
"1  c #1B1B22",
"2  c #1D1929",
"3  c #1C1B3C",
"4  c #221A23",
"5  c #241D2A",
"6  c #1E2124",
"7  c #242323",
"8  c #2A2424",
"9  c #222129",
"0  c #2A232A",
"q  c #252B2B",
"w  c #2A2C2C",
"e  c #2A2B23",
"r  c #30272D",
"t  c #2D342C",
"y  c #2F3B2D",
"u  c #303726",
"i  c #31342D",
"p  c #323A29",
"a  c #252435",
"s  c #2B2733",
"d  c #2C2D33",
"f  c #242A3C",
"g  c #2B2C3A",
"h  c #252C36",
"j  c #342F3B",
"k  c #352F37",
"l  c #2E3233",
"z  c #2D333B",
"x  c #273131",
"c  c #333436",
"v  c #323933",
"b  c #343539",
"n  c #333B39",
"m  c #4B321D",
"M  c #412D2F",
"N  c #4C3F2B",
"B  c #44372A",
"V  c #513F24",
"C  c #453A34",
"Z  c #44431E",
"A  c #574E1E",
"S  c #474629",
"D  c #504E2A",
"F  c #4C5528",
"G  c #575126",
"H  c #4F4A35",
"J  c #5A4938",
"K  c #535333",
"L  c #634936",
"P  c #6A623D",
"I  c #716637",
"U  c #272F41",
"Y  c #322E43",
"T  c #2F3343",
"R  c #323343",
"E  c #363942",
"W  c #4C4D48",
"Q  c #585C51",
"!  c #654641",
"~  c #68514D",
"^  c #6B614D",
"/  c #7E6B45",
"(  c #726F4D",
")  c #6C6257",
"_  c #7C7F67",
"`  c #806559",
"'  c #807C55",
"]  c #96774E",
"[  c #A47D46",
"{  c #A97D53",
"}  c #A57F57",
"|  c #9C7B68",
" . c #A47A61",
".. c #A27F69",
"X. c #7E8255",
"o. c #7D8263",
"O. c #A1882B",
"+. c #B3903D",
"@. c #B9AE3D",
"#. c #BFB537",
"$. c #CAC032",
"%. c #8F894E",
"&. c #89834B",
"*. c #968C49",
"=. c #9E825D",
"-. c #B79A4A",
";. c #AB8C58",
":. c #B18455",
">. c #A79E53",
",. c #A6A056",
"<. c #B9AD53",
"1. c #ACBF5D",
"2. c #B9B05F",
"3. c #B9BA56",
"4. c #BCA94A",
"5. c #9D8075",
"6. c #8A9078",
"7. c #998A66",
"8. c #A28161",
"9. c #B69A67",
"0. c #ABA666",
"q. c #BEA46D",
"w. c #BCA969",
"e. c #BDA764",
"r. c #ACB56B",
"t. c #B3B665",
"y. c #AAB477",
"u. c #BDB676",
"i. c #B5A876",
"p. c #C0995D",
"a. c #C5AA44",
"s. c #CCAD4C",
"d. c #C7BF4A",
"f. c #D2B84F",
"g. c #CDAC56",
"h. c #C6A855",
"j. c #C09D6C",
"k. c #CAA264",
"l. c #C1AA68",
"z. c #CDB163",
"x. c #C0A970",
"c. c #D5CC4D",
"v. c #DCC546",
"b. c #D8D049",
"n. c #DBCC52",
"m. c #DCC55C",
"M. c #DAC65B",
"N. c #DBD855",
"B. c #E0D745",
"V. c #E4D95B",
"C. c #DFE843",
"Z. c #DCEC5D",
"A. c #E5EF42",
"S. c #E5EF4C",
"D. c #E9EB49",
"F. c #F0E84C",
"G. c #EBF145",
"H. c #EDE654",
"J. c #ECED53",
"K. c #EAEB5D",
"L. c #E5EC54",
"P. c #F2E95B",
"I. c #F0E654",
"U. c #E5F158",
"Y. c #EBF058",
"T. c #D5CA6B",
"R. c #DBD96A",
"E. c #D5D273",
"W. c #E3DB65",
"Q. c #DAEC66",
"!. c #DDE976",
"~. c #EBE564",
"^. c #E4E967",
"/. c #E6F26C",
"(. c #E3E875",
"). c #F2EA7B",
"_. c #B5AE82",
"`. c #C6BD87",
"'. c #C7BFA0",
"]. c #C8BEA6",
"[. c #DEE682",
"{. c #DCE696",
"}. c #E8E389",
"|. c #E4EC9C",
" X c #C8C1A3",
".X c #DEE7A8",
"XX c #EDF6A6",
"oX c #FBFDA7",
"OX c #E9ECBA",
"+X c #C5C3C1",
"@X c #FCFDC1",
"#X c #F9FCC8",
"$X c #FDFCD3",
"%X c #F9FBDD",
"&X c #F9FBE6",
/* pixels */
"c c c c c c c c c c c c c c c c c c c c c c c c c c c c c c c c c c c c c c c c c c c c c c b b b b b b b b b b b b b b b b b b ",
"c c c c c c c c c c c c c c c c c c c c c c c c c c c c c c c c c c c c c c c c c c c c c c b b b b b b b b b b b b b b b b b b ",
"c c c c c c c c c c c c c c c c c c c c c c c c c c c c c c c c c c c c c c c c c c c c c c b b b b b b b b b b b b b b b b b b ",
"c c c c c c c c c c c c c c c c c c c c c c c c c c c c c c c c c c c c c c c c c c c c c c b b b b b b b b b b b b b b b b b b ",
"c c c c c c c b c c c c c c c c c c c c c c c c c c c c c c c c c c c c c c c c c c c c c c b b b b b b b b b b b b b b b b b b ",
"c c c c c c c b c c c c c c c c c c c c c c c c c c c c c c c c c c c c c c c c c c c c c c b b b b b b b b b b b b b b b b b b ",
"c c c c c c c b c c c c c c c c c c c c c c c c c c c c c c c c c c c c c c c c c c c c c c b b b b b b b b b b b b b b b b b b ",
"c c c c c c c b c c c c c c c c c c c c c c c c c c c c c c c c c c c c c c c c c c c c c c b b b b b b b b b b b b b b b b b b ",
"c c c c c c c b c c c c c c c c c c c c c c c c c c c c c c c c c c c c c c c c c c c c c c b b b b b b b b b b b b b b b b b b ",
"c c c c c c c b c c c c c c c c c c c c c c c c c c c c c c c c c c c c c c c c c c c c c c b b b b b b b b b b b b b b b b b b ",
"c c c c c c c b c c c c c c c c c c c c c c c c c c c c c c c c c c c c c c c c c c c c c c b b b b b b b b b b b b b b b b b b ",
"c c c c c c c b c c c c c c c c c c c c c c c c c c c c c c c c c c c c c c c c c c c c c c b b b b b b b b b b b b b b b b b b ",
"c c c c c c c c c c c c c c c c c c c c c c c c c c c c c c c c c c c c c c c c c c c c c c b b b b b b b b b b b b b b b b b b ",
"c c c c c c c c c c c c c c c c c c c c c c c c c c c c c c c c c c c c c c c c c c c c c c b b b b b b b b b b b b b b b b b b ",
"c c c c c c c c c c c c c c c c c c c c c c c c c c c c c c c c c c c c c c c c c c c c c c b b b b b b b b b b b b b b b b b b ",
"c c c c c c c c c c c c c c c c c c c c c c c c c c c c c c c c c c c c c c c c c c c c c c b b b b b b b b b b b b b b b b b b ",
"c c c c c c c c c c c c c c c c c c c c c c c c c c c c c c c c c c c c c c c c c c c c c c b b b b b b b b b b b b b b b b b b ",
"l c c c c c c c c c c c c c c c c c c c c c c c c c c c c c c c c c c c c c c c c c c c c c b b b b b b b b b b b b b b b b b b ",
"l l c c c c c c c c c c c c c c c c c c c c c c c c c c c c c c c c c c c c c c c c c c c c b b b b b b b b b b b b b b b b b b ",
"l l c c c c c c c c c c c c c c c c c c c c c c c c c c c c c c c c c c c c c c c c c c c c b b b b b b b b b b b b b b b b b b ",
"l l l l l l l l c c c c c c c c c c c c c c c c c c c c c c c c c c c c c c c b c c c c c c c c b b b b b b b b b b b b b b b b ",
"l l c c l l l l c c c c c c c c c c c c c c c c c c c c c c c c c c c c c c c b c c c c c c c c b b b b b b b b b b b b b b b b ",
"c c c c l l c c c c c c c c c c c c c c c c c c c c c c c c c c c c c c c c c b c c c c c c c c b b b b b b b b b b b b b b b b ",
"c c c c c c c c c c c c c c c c c c c c c c c c c c c c c c c c c c c c c c c b c c c c c c c c b b b b b b b b b b b b b b b b ",
"c c c c c c c c c c c c c c c c c c c c c c c c c c c c c c c c c c c c c c c b c c c c c c c c c c c c b b b b b b b b b b b b ",
"c c c c c c c c c c c c c c c c c c c c c c c c c c c c c c c c c c c c c c c b c c c c c c c c c c c c b b b b b b b b b b b b ",
"c c c c c c c c c c c c c c c c c c c c c c c c c c c c c c c c c c c c c c c b c c c c c c c c c c c c b b b b b b b b b b b b ",
"c c c c c c c c c c c c c c c c c c c c c c c c c c c c c c c c c c c c c c c b c c c c c c c c c c c c b b b b b b b b b b b b ",
"c c c c c c c c c c c c c c c c c c c c c c c c c c c c c c c c c c c c c c c b c c c c c c c c c c c c c c b b b b b b b b b b ",
"c c c c c c c c c c c c c c c c c c c c c c c c c c c c c c c c c c c c c c c b c c c c c c c c c c c c c c b b b b b b b b b b ",
"c c c c c c c c c c c c c c c c c c c c c c c c c c c c c c c c c c c c c c c b c c c c c c c c c c c c c c b b b b b b b b b b ",
"c c c c c c c c c c c c c c c c c c c c c c c c c c i i c c c c c c c c c c c b c c c c c c c c c c c c c c b b b b b b b b b b ",
"c c c c c c c c c c c c c c c c c c c c c c c c Y c u t b g b c b R z l g l c b c b y t n i t v c c c c c c b b b b b b b b b b ",
"c c c c c c c c c c c c c c c c c c c c c c c c R c z z b t i >     + = 7 7 u b R E h T a Y E l c c c c c c b b b b b b b b b b ",
"c c c c c c c c c c c c c c c c c c c c c c c c u t t t w i = X.(.Q./.!.{.o.O a 3 - q o ' , d l c c c c c c b b b b b b b b b b ",
"c c c c c c c c c c c c c c c c c c c c c l c c t z z u c > y.[.t.3.}.@X$X&X+XW 1 &XQ ( }.G 8 v c c c b b c b b b b b b b b b b ",
"c c c c c c c c c c c c c c c c c c c c b d c v p T R j s S 0.S $ P J  X'.].$X|.F 6.+XN 2.}.: q c c c c c c c c b b b b b b b b ",
"c c c c c c c c c c c c c c c c c c c c l b d c t d , % # *.(.G X _.,.>.*.`.oX^.R.S %XD &.E.%.> b c c c c c c c b b b b b b b b ",
"c c c c c c c c c c c c c c c c c c c c l l c ; D _ r.E.2.d.K.&.. Z E.~.c.N.K.K.W.I X..XS %.u.C c c c c c c c c b b b b b b b b ",
"c c c c c c c c c c c c c c c c c c c c l w ; K OX&X@X^.V.n.~.t.r.F @ 0.R.D.G.K.M.w.@ + 2 5 N ) c c c c b b c c b b b b b b b b ",
"c c c c c c c c c c c c c c c c c c c l z 6 Z }.@X#XXX3.O.z.G r.1.{.K P <.V.H.V.g.q.B 9 R g 1 4 c c c c c c c c c c c c c c c c ",
"c c c c c c c c c c c c c c c c c c c l z 7 &.V.P.L.U.~.g.{ m # H ^ $ / T.a.-.k.k.] B 0 b R d c c c c c c c c c c c c c c c c c ",
"c c c c c c c c c c c c c c c c c b c c l X i.n.F.A.G.P.s.[ /   . : A ).P.v.+.:.:.8.J w z z l c c c c c c c c c c c c c c c c c ",
"c c c c c c c c c c c c c c c c c c c i c 7 7.4.c.Y.C.D.$.#.(.Q.Q.Z.U.S.J.c.-.} } | ~ 0 c l c b c c c c c c c c c c c c c c c c ",
"c c c c c c c c c c c c c c c c c c b i t 7 N w.<.@.b.B.I.I.J.S.A.A.D.H.n.h.;. ...5.M 0 q t l c c c c c c c c c c c c c c c c c ",
"c c c c c c c c c c c c c c c c c c k w q d & V 8.j.h.g.a.f.n.n.m.m.M.s.h.p.{  .` M 4 s q q l b c c c c c c c c c c c c c c c c ",
"c c c c c c c c c c c c c c c c i c j w x f g , & L ] 9.x.w.e.l.x.q.e.;.=.| ! * & 4 s d w q l b c c c c c c c c c c c c c c c c ",
"c c c c c c c c c c c c c c c c i c b l x U f d q e % < o O o % # # # o 1 2 5 9 d s g d w l c c c c c c c c c c c c c c c c c c ",
"c c c c c c c c c c c c c c c c c c c c l l d d w q q w w w w w w w w d d d d d d d d c b b b b c c c c c c c c c c c c c c c c ",
"c c c c c c c c c c c c c c c c c c c c c c c c c c c c d d d d d d d d l c c c c c c b c c c c c c c c c c c c c c c c c c c c ",
"c c c c c c c c c c c c c c c c c c c c c c c c c c c c c c c c c c c c c c b b c c c c c c c c c c c c c c c c c c c c c c c c ",
"c c c c c c c c c c c c c c c c c c c c c c c c c c c c c c c c c c c c c c c c c c c c c c c c c c c c c c c c c c c c c c c c ",
"c c c c c c c c c c c c c c c c c c c c c c c c c c c c c c c c c c c c c c c c c c c c c c c c c c c c c c c c c c c c c c c c ",
"c c c c c c c c c c c c c c c c c c c c c c c c c c c c c c c c c c c c c c c c c c c c c c c c c c c c c c c c c c c c c c c c ",
"c c c c c c c c c c c c c c c c c c c c c c c c c c c c c c c c c c c c c c c c c c c c c c c c c c c c c c c c c c c c c c c c ",
"c c c c c c c c c c c c c c c c c c c c c c c c c c c c c c c c c c c c c c c c c c c c c c c c c c c c c c c c c c c c c c c c ",
"b b b b c c c c c c c c c c c c c c c c c c c c c c c c c c c c c c c c c c c c c c c c c c c c c c c c c c c c c c c c c c c c ",
"b b b b c c c c c c c c c c c c c c c c c c c c c c c c c c c c c c c c c c c c c c c c c c c c c c c c c c c c c c c c c c c c ",
"b b b b c c c c c c c c c c c c c c c c c c c c c c c c c c c c c c c c c c c c c c c c c c c c c c c c c c c c c c c c c c c c ",
"b b b b c c c c c c c c c c c c c c c c c c c c c c c c c c c c c c c c c c c c c c c c c c c c c c c c c c c c c c c c c c c c ",
"b b b b b b c c c c c c c c c c c c c c c c c c c c c c c c c c c c c c c c c c c c c c c c c c c c c c c c c c c c c c c c c c ",
"b b b b b b c c c c c c c c c c c c c c c c c c c c c c c c c c c c c c c c c c c c c c c c c c c c c c c c c c c c c c c c c c ",
"b b b b b b c c c c c c c c c c c c c c c c c c c c c c c c c c c c c c c c c c c c c c c c c c c c c c c c c c c c c c c c c c ",
"b b b b b b c c c c c c c c c c c c c c c c c c c c c c c c c c c c c c c c c c c c c c c c c c c c c c c c c c c c c c c c c c "
};
