/* XPM */
static char *rcp00164129058122[] = {
/* columns rows colors chars-per-pixel */
"64 64 199 2 ",
"   c #1D1B04",
".  c #1D1A0B",
"X  c #1C1C13",
"o  c #1B191B",
"O  c #1A161A",
"+  c #221D04",
"@  c #241C0D",
"#  c #251907",
"$  c #211612",
"%  c #251B13",
"&  c #24161A",
"*  c #25191D",
"=  c #2A1B1C",
"-  c #2C1910",
";  c #1F231B",
":  c #28200D",
">  c #262208",
",  c #262417",
"<  c #2A241C",
"1  c #20281C",
"2  c #2A2717",
"3  c #1B1B28",
"4  c #231521",
"5  c #291F28",
"6  c #25172B",
"7  c #241E31",
"8  c #311E36",
"9  c #1B222D",
"0  c #272425",
"q  c #2B2423",
"w  c #23212A",
"e  c #28262A",
"r  c #262A2B",
"t  c #2A2A2D",
"y  c #342629",
"u  c #2D342E",
"i  c #2A352C",
"p  c #34342B",
"a  c #272730",
"s  c #2B2632",
"d  c #262C35",
"f  c #2B2C33",
"g  c #272D39",
"h  c #2C2D3A",
"j  c #342D32",
"k  c #3A2E33",
"l  c #233134",
"z  c #2E3334",
"x  c #2E333A",
"c  c #2B3934",
"v  c #333436",
"b  c #393433",
"n  c #333439",
"m  c #3A363A",
"M  c #333C32",
"N  c #4E321B",
"B  c #472C22",
"V  c #443C24",
"C  c #433524",
"Z  c #453C3E",
"A  c #3E4020",
"S  c #614F1C",
"D  c #5B4F29",
"F  c #4B493D",
"G  c #574A36",
"H  c #4D5733",
"J  c #5C5235",
"K  c #6C632F",
"L  c #6B6438",
"P  c #312D49",
"I  c #343642",
"U  c #323650",
"Y  c #504C41",
"T  c #614C48",
"R  c #6E5F44",
"E  c #6B5E55",
"W  c #6C6547",
"Q  c #7D664C",
"!  c #7E675C",
"~  c #7C7A6E",
"^  c #856146",
"/  c #817D45",
"(  c #816057",
")  c #907750",
"_  c #9A7E5F",
"`  c #9E7E52",
"'  c #AF7E48",
"]  c #A4794D",
"[  c #AA7C56",
"{  c #A17B5D",
"}  c #977C66",
"|  c #AA7963",
" . c #A57A66",
".. c #7B8456",
"X. c #95883E",
"o. c #98892C",
"O. c #B1AB2F",
"+. c #BFAC37",
"@. c #BEB93A",
"#. c #D4B83E",
"$. c #E2EF3A",
"%. c #F1E93F",
"&. c #85834A",
"*. c #998556",
"=. c #AF874A",
"-. c #AE9543",
";. c #BF9D4E",
":. c #AE8A51",
">. c #BB9554",
",. c #B29552",
"<. c #B0934F",
"1. c #BAAD5C",
"2. c #BAA957",
"3. c #BBB65C",
"4. c #808661",
"5. c #92846C",
"6. c #968476",
"7. c #A38763",
"8. c #AF9269",
"9. c #A9AA68",
"0. c #B6AC69",
"q. c #BAA765",
"w. c #B0B767",
"e. c #A8A77D",
"r. c #B6A770",
"t. c #B9AB77",
"y. c #B2B874",
"u. c #CBA74B",
"i. c #C8AF49",
"p. c #C8A448",
"a. c #D6AD4B",
"s. c #C1B848",
"d. c #C8B849",
"f. c #D2B943",
"g. c #CAA455",
"h. c #CCA459",
"j. c #C8AB5C",
"k. c #D3A75C",
"l. c #C3B55E",
"z. c #C0BD57",
"x. c #D6B859",
"c. c #C09D66",
"v. c #CAA061",
"b. c #C6B56D",
"n. c #BFC35D",
"m. c #CACD45",
"M. c #DBC746",
"N. c #DFD746",
"B. c #D6D248",
"V. c #CEC951",
"C. c #DACB58",
"Z. c #D9D857",
"A. c #E2DD4E",
"S. c #E8D85A",
"D. c #E7E841",
"F. c #ECE44F",
"G. c #E6EB4E",
"H. c #EBEC4D",
"J. c #EEEF43",
"K. c #F2EB4A",
"L. c #EBF445",
"P. c #E7E355",
"I. c #EDEB53",
"U. c #EDEA5B",
"Y. c #EAE659",
"T. c #F4E757",
"R. c #E9F052",
"E. c #CBCB6D",
"W. c #DCC664",
"Q. c #DDDE60",
"!. c #C8C178",
"~. c #DEE876",
"^. c #ECE461",
"/. c #E9E26D",
"(. c #E7EA66",
"). c #F0E963",
"_. c #E2EC71",
"`. c #E7E879",
"'. c #8E8980",
"]. c #B1AF80",
"[. c #BBAC8C",
"{. c #ACB187",
"}. c #B5BA8D",
"|. c #C7C584",
" X c #DFE392",
".X c #E6E484",
"XX c #ECF399",
"oX c #EAEBA5",
"OX c #F9F8A1",
"+X c #FEFFB2",
"@X c #C4C1C4",
"#X c #E0DAC3",
"$X c #E6E9C1",
"%X c #F4F5C6",
"&X c #FDFDC4",
"*X c #F0EDDC",
"=X c #FDFCD3",
"-X c #FBFAE8",
";X c #FAF6F3",
/* pixels */
"v v v v v v v v v v v v v v v v v v v v v v v v v v v v v v v v v v v v v v v v v v v v v v v v v v v v v v v v v v v v v v v v ",
"v v v v v v v v v v v v v v v v v v v v v v v v v v v v v v v v v v v v v v v v v v v v v v v v v v v v v v v v v v v v v v v v ",
"v v v v v v v v v v v v v v v v v v v v v v v v v v v v v v v v v v v v v v v v v v v v v v v v v v v v v v v v v v v v v v v v ",
"v v v v v v v v v v v v v v v v v v v v v v v v v v v v v v v v v v v v v v v v v v v v v v v v v v v v v v v v v v v v v v v v ",
"v v v v v v v v v v v v v v v v v v v v v v v v v v v v v v v v v v v v v v v v v v v v v v v v v v v v v v v v v v v v v v v v ",
"v v v v v v v v v v v v v v v v v v v v v v v v v v v v v v v v v v v v v v v v v v v v v v v v v v v v v v v v v v v v v v v v ",
"v v v v v v v v v v v v v v v v v v v v v v v v v v v v v v v v v v v v v v v v v v v v v v v v v v v v v v v v v v v v v v v v ",
"v v v v v v v v v v v v v v v v v v v v v v v v v v v v v v v v v v v v v v v v v v v v v v v v v v v v v v v v v v v v v v v v ",
"v v v v v v v v v v v v v v v v v v v v v v v v v v v v v v v v v v v v v v v v v v v v v v v v v v v v v v v v v v v v v v v v ",
"v v v v v v v v v v v v v v v v v v v v v v v v v v v v v v v v v v v v v v v v v v v v v v v v v v v v v v v v v v v v v v v v ",
"v v v v v v v v v v v v v v v v v v v v v v v v v v v v v v v v v v v v v v v v v v v v v v v v v v v v v v v v v v v v v v v v ",
"v v v v v v v v v v v v v v v v v v v v v v v v v v v v v v v v v v v v v v v v v v v v v v v v v v v v v v v v v v v v v v v v ",
"v v v v v v v v v v v v v v v v v v v v v v v v v v v v v v v v v v v v v v v v v v v v v v v v v v v v v v v v v v v v v v v v ",
"v v v v v v v v v v v v v v v v v v v v v v v v v v v v v v v v v v v v v v v v v v v v v v v v v v v v v v v v v v v v v v v v ",
"v v v v v v v v v v v v v v v v v v v v v v v v v v v v v v v v v v v v v v v v v v v v v v v v v v v v v v v v v v v v v v v v ",
"v v v v v v v v v v v v v v v v v v v v v v v v v v v v v v v v v v v v v v v v v v v v v v v v v v v v v v v v v v v v v v v v ",
"v v v v v v v v v v v v v v v v v v v v v v v v v v v v v v v v v v v v v v v v v v v v v v v v v v v v v v v v v v v v v v v v ",
"v v v v v v v v v v v v v v v v v v v v v v v v v v v v v v v v v v v v v v v v v v v v v v v v v v v v v v v v v v v v v v v v ",
"v v v v v v v v v v v v v v v v v v v v v v v v v v v v v v v v v v v v v v v v v v v v v v v v v v v v v v v v v v v v v v v v ",
"v v v v v v v v v v v v v v v v v v v v v v v v v v v v v v v v v v v v v v v v v v v v v v v v v v v v v v v v v v v v v v v v ",
"v v v v v v v v v v v v v v v v v v v v v v v v v v v v v v v v v n v z v v v v v v v v v v v v v v v v v v v v v v v v v v v v ",
"v v v v v v v v v v v v v v v v v v v v v v v v v v v v v v v v n v v v v v n v v v v v v v v v v v v v v v v v v v v v v v v v ",
"v v v v v v v v v v v v v v v v v v v v v v v v v v v v v v v v n v v v n v v v v v v v v v v n v v v v v v v v v v v v v v v v ",
"v v v v v v v v v v v v v v v v v v v v v v v v v v v v v v v v v v v t o X , < p v v n n v v v v v v v v v v v v v v v v v v v ",
"v v v v v v v v v v v v v v v v v v v v v v v v v v v v v v v v v p p a Y y./ &.V < m n z v v v v v v v v v v v v v v v v v v v ",
"v v v v v v v v v v v v v v v v v v v v v v v v v v v v v v v v v p p P O 9.!.!.[.E 0 n z v v v v v v v v v v v v v v v v v v v ",
"v v v v v v v v v v v v v v v v v v v v v v v v v v v v v v v v n x n I t   W t.5.$ v f z v v v v v v v v v v v v v v v v v v v ",
"v v v v v v v v v v v v v v v v v v v v v v v v v v v v v v v v v n x x 3 ;X'.@ @ q v n v v v v v v v v v v v v v v v v v v v v ",
"v v v v v v v v v v v v v v v v v v v v v v v v v v v v v v v v v i 1 r O @X;X*X~ o n n v v v v v v v v v v v v v v v v v v v v ",
"v v v v v v v v v v v v v v v v v v v v v v v v v v v v z v v v e . H ..4.F : . X r n n v v v n v v v v v v v v v v v v v v v v ",
"v v v v v v v v v v v v v v v v v v v v v v v v v v v v v v v e X w.XX&X$X%XoXW ; x n n v v v n v v v v v v v v v v v v v v v v ",
"v v v v v v v v v v v v v v v v v v v v v v v v v v v z z x n < &._.XX-X;X=X`.n.A w I v v v v n v v v v v v v v v v v v v v v v ",
"v v v v v v v v v v v v v v v v v v v v v v v n n j p u z U 7 % ~._.oX#X5.&X(.m.0.* n n n v v v v v v v v v v v v v v v v v v v ",
"v v v v v v v v v v v v v v v v v v v v v v v v v b j u 9 O 2 *.9.@ @ ! r..XY.U.1.* n z n v n v v v v v v v v v v v v v v v v v ",
"v v v v v v v v v v v v v v v v v v v v v v v v n j n w X w.E.0.: 4 5.D X./.H.U.1.% v c v v n v v v v v v v v v v v v v v v v v ",
"v v v v v v v v v v v v v v v v v v v v v v v v x n t X }.XXZ.b.$ Z |.`.@.N.%.C.q.% v u v v n n v v v v v v v v v v v v v v v v ",
"v v v v v v v v v v v v v v v v v v v v v v v v u h , ].%X&X/.S.> @ V 3.I.F.F.i.q.= v M v v n x v v v v v v v v v v v v v v v v ",
"v v v v v v v v v v v v v v v v v v v v v v v v z s + .X+XOXs.s. X  G # 1.W.x.;.*.4 n u v v n n v v v v v v v v v v v v v v v v ",
"v v v v v v v v v v v v v v v v v v v v v v v v n 6 L Q.(.G.B.S   {.e.# 1.-.] [ _ 6 n z v v n x v v v v v v v v v v v v v v v v ",
"v v v v v v v v v v v v v v v v v v v v v v v v n s K V.R.L.G.b.J + # D ^.d.=.[ N 8 n v v v v v v v v v v v v v v v v v v v v v ",
"v v v v v v v v v v v v v v v v v v v v v v v v v 0 L z.H.J.U.o.l.l.,.3.Y.C.,.^ B y m z x v v v v v v v v v v v v v v v v v v v ",
"v v v v v v v v v v v v v v v v v v v v v v v v j y R 1.A.K.P.O.H.H.G.I.H.M.>. .! = b z x n v v v v v v v v v v v v v v v v v v ",
"v v v v v v v v v v v v v v v v v v v v v v v v k k - t.V.F.T.P.$.$.L.D.K.#.=.| 6.O v v x n v v v v v v v v v v v v v v v v v v ",
"v v v v v v v v v v v v v v v v v v v v v v v v v j * R 2.+.M.S.U.).^.S.f.p.' | T q v v n n v v v v v v v v v v v v v v v v v v ",
"v v v v v v v v v v v v v v v v v v v v v v v z c l a % *.j.p.a.u.u.u.g.h.:.{ ( * e v v v v v n v v v v v v v v v v v v v v v v ",
"v v v v v v v v v v v v v v v v v v v v v v v z l l d e C ) c.v.h.k.g.>.` } T * w f t v v v n n v v v v v v v v v v v v v v v v ",
"v v v v v v v v v v v v v v v v v v v v v v v v u d g g t % C Q 7.8.*._ G = o w d f t v v v n n v v v v v v v v v v v v v v v v ",
"v v v v v v v v v v v v v v v v v v v v v v v v v f f g d d r o 4 & & & 5 w d d d f z v v v n n v v v v v v v v v v v v v v v v ",
"v v v v v v v v v v v v v v v v v v v v v v v v v v f f f f t t f f t t t t f f z z v v v v n n v v v v v v v v v v v v v v v v ",
"v v v v v v v v v v v v v v v v v v v v v v v v v v v v v v v f z z z z v v v v v v v v v v v v v v v v v v v v v v v v v v v v ",
"v v v v v v v v v v v v v v v v v v v v v v v v v v v v v v v v v v v v v v v v v v v v v v v v v v v v v v v v v v v v v v v v ",
"v v v v v v v v v v v v v v v v v v v v v v v v v v v v v v v z v v v v v v v v v v v v v v v v v v v v v v v v v v v v v v v v ",
"v v v v v v v v v v v v v v v v v v v v v v v v v v v v v v v v v v v v v v v v v v v v v v v v v v v v v v v v v v v v v v v v ",
"v v v v v v v v v v v v v v v v v v v v v v v v v v v v v v v v v v v v v v v v v v v v v v v v v v v v v v v v v v v v v v v v ",
"v v v v v v v v v v v v v v v v v v v v v v v v v v v v v v v v v v v v v v v v v v v v v v v v v v v v v v v v v v v v v v v v ",
"v v v v v v v v v v v v v v v v v v v v v v v v v v v v v v v v v v v v v v v v v v v v v v v v v v v v v v v v v v v v v v v v ",
"v v v v v v v v v v v v v v v v v v v v v v v v v v v v v v v v v v v v v v v v v v v v v v v v v v v v v v v v v v v v v v v v ",
"v v v v v v v v v v v v v v v v v v v v v v v v v v v v v v v v v v v v v v v v v v v v v v v v v v v v v v v v v v v v v v v v ",
"v v v v v v v v v v v v v v v v v v v v v v v v v v v v v v v v v v v v v v v v v v v v v v v v v v v v v v v v v v v v v v v v ",
"v v v v v v v v v v v v v v v v v v v v v v v v v v v v v v v v v v v v v v v v v v v v v v v v v v v v v v v v v v v v v v v v ",
"v v v v v v v v v v v v v v v v v v v v v v v v v v v v v v v v v v v v v v v v v v v v v v v v v v v v v v v v v v v v v v v v ",
"v v v v v v v v v v v v v v v v v v v v v v v v v v v v v v v v v v v v v v v v v v v v v v v v v v v v v v v v v v v v v v v v ",
"v v v v v v v v v v v v v v v v v v v v v v v v v v v v v v v v v v v v v v v v v v v v v v v v v v v v v v v v v v v v v v v v ",
"v v v v v v v v v v v v v v v v v v v v v v v v v v v v v v v v v v v v v v v v v v v v v v v v v v v v v v v v v v v v v v v v "
};
