/* XPM */
static char *rcp00171138784229[] = {
/* columns rows colors chars-per-pixel */
"64 64 197 2 ",
"   c #1C1C0D",
".  c #1D1707",
"X  c #1C1C16",
"o  c #1C1C1B",
"O  c #181B1E",
"+  c #221C04",
"@  c #231B0C",
"#  c #2A1D0E",
"$  c #24140B",
"%  c #221513",
"&  c #221A13",
"*  c #24171A",
"=  c #241A1B",
"-  c #291C18",
";  c #1E220E",
":  c #1E2310",
">  c #27210B",
",  c #232314",
"<  c #22221C",
"1  c #1D1B23",
"2  c #1D1720",
"3  c #1E2523",
"4  c #1C272B",
"5  c #1F302E",
"6  c #212324",
"7  c #2A2225",
"8  c #25292C",
"9  c #2C2D2D",
"0  c #272429",
"q  c #2E3426",
"w  c #2D342C",
"e  c #34362C",
"r  c #31392E",
"t  c #363323",
"y  c #252A33",
"u  c #2B2C32",
"i  c #242B39",
"p  c #2F2F39",
"a  c #282635",
"s  c #372F35",
"d  c #2E3235",
"f  c #2E363B",
"g  c #2E383A",
"h  c #273436",
"j  c #343537",
"k  c #343932",
"l  c #353638",
"z  c #34383B",
"x  c #393737",
"c  c #453A27",
"v  c #483C36",
"b  c #4C4628",
"n  c #5E4F2F",
"m  c #4E552A",
"M  c #52542B",
"N  c #535124",
"B  c #4C4D32",
"V  c #464C32",
"C  c #53543B",
"Z  c #614E2A",
"A  c #664B39",
"S  c #655A3F",
"D  c #746139",
"F  c #7C6C3A",
"G  c #6C6539",
"H  c #2D3640",
"J  c #343441",
"K  c #393943",
"L  c #353643",
"P  c #584948",
"I  c #564B42",
"U  c #4D504B",
"Y  c #54535E",
"T  c #634B41",
"R  c #695F43",
"E  c #7D5F56",
"W  c #6D6646",
"Q  c #7D6742",
"!  c #7B7743",
"~  c #7E625B",
"^  c #787D70",
"/  c #AC7C3F",
"(  c #876754",
")  c #917A5D",
"_  c #A77C51",
"`  c #AA795E",
"'  c #AB7859",
"]  c #B27852",
"[  c #977966",
"{  c #A67962",
"}  c #A17F72",
"|  c #7D8149",
" . c #938819",
".. c #908739",
"X. c #A58B3A",
"o. c #B3A538",
"O. c #BCBF33",
"+. c #CCAE36",
"@. c #E7EE3F",
"#. c #EAED3C",
"$. c #83854E",
"%. c #958456",
"&. c #98955C",
"*. c #B08741",
"=. c #B2874D",
"-. c #BB964E",
";. c #A4865E",
":. c #B38158",
">. c #A29855",
",. c #BA9756",
"<. c #BDB649",
"1. c #B2B94E",
"2. c #AFB65E",
"3. c #8E8868",
"4. c #89856A",
"5. c #988160",
"6. c #A2816A",
"7. c #AB9A65",
"8. c #B19D67",
"9. c #AC9776",
"0. c #BA9A72",
"q. c #B8AF68",
"w. c #B9AA66",
"e. c #ACB46C",
"r. c #BDB869",
"t. c #A4AD78",
"y. c #B8AC76",
"u. c #BBB070",
"i. c #CE9E5F",
"p. c #C5A946",
"a. c #C9AC4C",
"s. c #C6A949",
"d. c #C4B349",
"f. c #C4B84B",
"g. c #CCA654",
"h. c #C7A757",
"j. c #C7BB57",
"k. c #D0B751",
"l. c #D5BC49",
"z. c #C8A66B",
"x. c #C5BE6E",
"c. c #C1A577",
"v. c #C0B276",
"b. c #C6C24D",
"n. c #DDC94B",
"m. c #DBC64F",
"M. c #DAD44C",
"N. c #CEC75D",
"B. c #D6C651",
"V. c #DDC956",
"C. c #E1C444",
"Z. c #E5DC47",
"A. c #E2D652",
"S. c #E2D756",
"D. c #DFE554",
"F. c #EFED48",
"G. c #E9EC49",
"H. c #F0EA4C",
"J. c #ECF149",
"K. c #EDEC53",
"L. c #ECEC5A",
"P. c #EAE657",
"I. c #F2EB5A",
"U. c #F5E758",
"Y. c #EAF156",
"T. c #CEC96D",
"R. c #CECB72",
"E. c #D9D671",
"W. c #E9C66A",
"Q. c #DDE676",
"!. c #E9EA63",
"~. c #E3EB6C",
"^. c #ECE966",
"/. c #ECF169",
"(. c #E8E578",
"). c #888289",
"_. c #AE9C82",
"`. c #A7AD87",
"'. c #BDBF97",
"]. c #C6BFB7",
"[. c #DDE18D",
"{. c #E3E082",
"}. c #F1F696",
"|. c #CBC4B3",
" X c #EEDDA0",
".X c #EBEBA0",
"XX c #EBF1A5",
"oX c #ECF5AA",
"OX c #ECEFB0",
"+X c #EEF5BD",
"@X c #FCFDB2",
"#X c #E8ECC3",
"$X c #FCFCCD",
"%X c #FEFDC0",
"&X c #FBFBD7",
"*X c #FDFAFB",
"=X c #FAFAE7",
/* pixels */
"j j j j j j j j j j j j j j j j j j j j l l l l l l l l l l l l l l l l l l l l l l l l l l l l l l l l l l l l l l l l l l l l ",
"j j j j j j j j j j j j j j j j j j j j l l l l l l l l l l l l l l l l l l l l l l l l l l l l l l l l l l l l l l l l l l l l ",
"j j j j j j j j j j j j j j j j j j j j l l l l l l l l l l l l l l l l l l l l l l l l l l l l l l l l l l l l l l l l l l l l ",
"j j j j j j j j j j j j j j j j j j j j l l l l l l l l l l l l l l l l l l l l l l l l l l l l l l l l l l l l l l l l l l l l ",
"j j j j j j j j j j j j j j j j j j j j j j j l l l l l l l l l l l l l l l l l l l l l l l l l l l l l l l l l l l l l l l l l ",
"j j j j j j j j j j j j j j j j j j j j j j j l l l l l l l l l l l l l l l l l l l l l l l l l l l l l l l l l l l l l l l l l ",
"j j j j j j j j j j j j j j j j j j j j j j j l l l l l l l l l l l l l l l l l l l l l l l l l l l l l l l l l l l l l l l l l ",
"j j j j j j j j j j j j j j j j j j j j j j j l l l l l l l l l l l l l l l l l l l l l l l l l l l l l l l l l l l l l l l l l ",
"j j j j j j j j j j j j j j j j j j j j j j j l l l l l l l l l l l l l l l l l l l l l l l l l l l l l l l l l l l l l l l l l ",
"j j j j j j j j j j j j j j j j j j j j j j j l l l l l l l l l l l l l l l l l l l l l l l l l l l l l l l l l l l l l l l l l ",
"j j j j j j j j j j j j j j j j j j j j j j j l l l l l l l l l l l l l l l l l l l l l l l l l l l l l l l l l l l l l l l l l ",
"j j j j j j j j j j j j j j j j j j j j j j j l l l l l l l l l l l l l l l l l l l l l l l l l l l l l l l l l l l l l l l l l ",
"j j j j j j j j j j j j j j j j j j j j j j j j l l l l l l l l l l l l l l l l l l l l l l l l l l l l l l l l l l l l l l l l ",
"j j j j j j j j j j j j j j j j j j j j j j j j l l l l l l l l l l l l l l l l l l l l l l l l l l l l l l l l l l l l l l l l ",
"j j j j j j j j j j j j j j j j j j j j j j j j l l l l l l l l l l l l l l l l l l l l l l l l l l l l l l l l l l l l l l l l ",
"j j j j j j j j j j j j j j j j j j j j j j j j l l l l l l l l l l l l l l l l l l l l l l l l l l l l l l l l l l l l l l l l ",
"j j j j j j j j j j j j j j j j j j j j j j j j j j j j j j j j j j j j j j j j j j j j j j j j j j j j j j j j j j j j j j j j ",
"j j j j j j j j j j j j j j j j j j j j j j j j j j j j j j j j j j j j j j j j j j j j j j j j j j j j j j j j j j j j j j j j ",
"j j j j j j j j j j j j j j j j j j j j j j j j j j j j j j j j j j j j j j j j j j j j j j j j j j j j j j j j j j j j j j j j ",
"j j j j j j j j j j j j j j j j j j j j j j j j j j j j j j j j j j j j j j j j j j j j j j j j j j j j j j j j j j j j j j j j ",
"j j j j j j j j j j j j j j j j j j j j j j j j j j j j j j j j j j j j j j j j j j j j j j j j j j j j j j j j j j j j j j j j ",
"j j j j j j j j j j j j j j j j j j j j j j j j j j j j j j j j j j j j j j j j j j j j j j j j j j j j j j j j j j j j j j j j ",
"j j j j j j j j j j j j j j j j j j j j j j j j j j j j j j j j j j j j j j l l j j j j j j j j j j j j j j j j j j j j j j j j ",
"j j j j j j j j j j j j j j j j j j j j j j j j j j j j j j j j j j j k k j j l l j k k j l j k j j j j j j j j j j j j j j j j ",
"j j j j j j j j j j j j j j j j j j j j j j j j j j j j j j j j l j k e e k j l j k q e l J j e k j j l j j j j j j j j j j j j ",
"j j j j j j j j j j j j j j j j j j j j j j j j j j j j j j j l l l l z j z z a a u z l z z j j j j j j j j j j j j j j j j j j ",
"j j j j j j j j j j j j j j j j j j j j j j j j j j j j j j j j j j l J J L p o B ; < j z f g f j j j j j j j j j j j j j j j j ",
"j j j j j j j j j j j j j j j j j j j j j j j j j j j j j j j k e e k j z l j ; (.Q.$., k j f g j j j j j j j j j j j j j j j j ",
"j j j j j j j j j j j j j j j j j j j j j j j j j j j j l l j j k x k u j u 2 , T.b.(.&., x j k j j j j j j j j j j j j j j j j ",
"j j j j j j j j j j j j j j j j j j j j j j j j j j j j j j j j K p j z l 1 Y ).c 8.x.q.b 7 K j j j j j j j j j j j j j j j j j ",
"j j j j j j j j j j j j j j j j j j j j j j j j l j j j j j z j u 6 :     , U *X].+ W @ < l d j j j j j j j j j j j j j j j j j ",
"j j j j j j j j j j j j j j j j j j j j j j j j j l j j j j k 6 X m t.+X+X`.M C '.`.X a J d k r j j j j j j j j j j j j j j j j ",
"j j j j j j j j j j j j j j j j j j j j j j j j j L z z z k q o M Q.oX&X=X&X(.>.+ ^ O 4 j j j j j j j j j j j j j j j j j j j j ",
"j j j j j j j j j j j j j j j j j j j j j j j l l j k z K p < C 2.~.XX$X|.&X^.N.b   3 f j j j l j j j j j j j j j j j j j j j j ",
"j j j j j j j j j j j j j j j j j j j j j j j k q r f 8 9 2 - y.e.$.3.9._.%XD.!.w.R 7 d j j j j j j j j j j j j j j j j j j j j ",
"j j j j j j j j j j j j j j j j j j j j j j j j j w 6 o B ! &.%.> v b Z %.(.J.G.s.D . l z l j k j j j l j j j j j j j j j j j j ",
"j j j j j j j l j j j j j j j j j j j j j j l z L 6 V #XOXE.j.D X 4.R.(.d.M.F.Z.s.c.# p L l k k j j j l j j j j j j j j j j j j ",
"j j j j j j j l j j j j j j j j j j j j j j l z a V XX$X$X(.A.F &   G r.P.U.U.l.g.0.@ K z l j j j j j j j j j j j j j j j j j j ",
"j j j j j j j l j j j j j j j j j j j j j j j j   | }.@X.X<.o. XI B c > <.n.W.i.:.6.- j z l j l j j j j j j j j j j j j j j j j ",
"j j j j j j j l j j j j j j j j j j j j j j j j & r.~./.L.M...A # [.&.+ u.X./ ] { E = z j j j l j j j j j j j j j j j j j j j j ",
"j j j j j j j l j j j j j j j j j j j j j j j l & q.L.#.@.^.h._ ( n + N {.j.*.' ( % y f f k k j j j j j j j j j j j j j j j j j ",
"j j j j j j j l j j j j j j j j j j j j j j j l % v.A.#.J.!. .o.f.j...1.!.B.-.` A % u H j k k j j j j j j j j j j j j j j j j j ",
"j j j j j j j l j j j j j j j j j j j j j j j l 7 %.d.Z.K.L.O.L.F.J.K.Y.L.B.,.` } P 2 J j j j j j j j j j j j j j j j j j j j j ",
"j j j j j j j l j j j j j j j j j j j j j j j j 8 c w.p.m.A.I.H.H.K.I.P.S.a.=.` [ v 1 p l j j f j j j j j j j j j j j j j j j j ",
"j j j j j j j j j j j j j j j j j j j j j j j j g , 5.z.g.p.+.C.n.m.V.k.a.,._ { ~ * u z j j j f j j j j j j j j j j j j j j j j ",
"j j j j j j j j j j j j j j j j j j j j j j j j 8 w $ [ c.z.i.g.p.a.s.h.,.;.[ T % o a f j s j f j j j j j j j j j j j j j j j j ",
"j j j j j j j j j j j j j j j j j j j j j j j j h 3 s % t S ) 9.y.8.7.Q A I = o 6 a i f j k k g j j j j j j j j j j j j j j j j ",
"j j j j j j j j j j j j j j j j j j j j j j j j j u a u 3 3 o = = * - * 0 0 y h y i h f j k k j j j j j j j j j j j j j j j j j ",
"j j j j j j j j j j j j j j j j j j j j j j j j j j u u u 9 u u u u 9 u u u u u d f j l j j j j j j j j j j j j j j j j j j j j ",
"j j j j j j j j j j j j j j j j j j j j j j j j j j j j l j j d j j j j j j j j j j j j j j j j j j j j j j j j j j j j j j j j ",
"j j j j j j j j j j j j j j j j j j j j j j j j j j j j j j l l j j j j l j l l l l j j j j j j j j j j j j j j j j j j j j j j ",
"j j j j j j j j j j j j j j j j j j j j j j j j j j j j j j j d l l l l j j j j l j l j j j j j j j j j j j j j j j j j j j j j ",
"j j j j j j j j j j j j j j j j j j j j j j j j j j j j j j j j j j j j j j j j j j j j j j j j j j j j j j j j j j j j j j j j ",
"j j j j j j j j j j j j j j j j j j j j j j j j j j j j j j j j j j j j j j j j j j j j j j j j j j j j j j j j j j j j j j j j ",
"j j j j j j j j j j j j j j j j j j j j j j j j j j j j j j j j j j j j j j j j j j j j j j j j j j j j j j j j j j j j j j j j ",
"j j j j j j j j j j j j j j j j j j j j j j j j j j j j j j j j j j j j j j j j j j j j j j j j j j j j j j j j j j j j j j j j ",
"j j j j j j j j j j j j j j j j j j j j j j j j j j j j j j j j j j j j j j j j j j j j j j j j j j j j j j j j j j j j j j j j ",
"j j j j j j j j j j j j j j j j j j j j j j j j j j j j j j j j j j j j j j j j j j j j j j j j j j j j j j j j j j j j j j j j ",
"j j j j j j j j j j j j j j j j j j j j j j j j j j j j j j j j j j j j j j j j j j j j j j j j j j j j j j j j j j j j j j j j ",
"j j j j j j j j j j j j j j j j j j j j j j j j j j j j j j j j j j j j j j j j j j j j j j j j j j j j j j j j j j j j j j j j ",
"j j j j j j j j j j j j j j j j j j j j j j j j j j j j j j j j j j j j j j j j j j j j j j j j j j j j j j j j j j j j j j j j ",
"j j j j j j j j j j j j j j j j j j j j j j j j j j j j j j j j j j j j j j j j j j j j j j j j j j j j j j j j j j j j j j j j ",
"j j j j j j j j j j j j j j j j j j j j j j j j j j j j j j j j j j j j j j j j j j j j j j j j j j j j j j j j j j j j j j j j ",
"j j j j j j j j j j j j j j j j j j j j j j j j j j j j j j j j j j j j j j j j j j j j j j j j j j j j j j j j j j j j j j j j "
};
