/* XPM */
static char *rcp00160740065197[] = {
/* columns rows colors chars-per-pixel */
"64 64 195 2 ",
"   c #1A1A04",
".  c #1C1A0D",
"X  c #1B1C13",
"o  c #1D1718",
"O  c #2E1D02",
"+  c #241D0D",
"@  c #28180B",
"#  c #271706",
"$  c #211D13",
"%  c #211B1B",
"&  c #201718",
"*  c #222107",
"=  c #272109",
"-  c #232115",
";  c #292816",
":  c #23251C",
">  c #2A221B",
",  c #2C2014",
"<  c #1C1C24",
"1  c #1A1F28",
"2  c #251622",
"3  c #241D24",
"4  c #1C2126",
"5  c #1F312E",
"6  c #242423",
"7  c #2C2226",
"8  c #24242E",
"9  c #2A252A",
"0  c #2A2B2E",
"q  c #2D2D26",
"w  c #332B23",
"e  c #3C2C2D",
"r  c #2E352C",
"t  c #2E3524",
"y  c #32342D",
"u  c #3D332E",
"i  c #363424",
"p  c #292632",
"a  c #2C2C33",
"s  c #2D2D3A",
"d  c #222331",
"f  c #332F30",
"g  c #2E3433",
"h  c #2E333B",
"j  c #2D393D",
"k  c #333436",
"l  c #393533",
"z  c #343937",
"x  c #343439",
"c  c #38393D",
"v  c #483620",
"b  c #483B28",
"n  c #523C21",
"m  c #483235",
"M  c #503C35",
"N  c #494617",
"B  c #555923",
"V  c #594F3E",
"C  c #555135",
"Z  c #614B37",
"A  c #665036",
"S  c #6B6C35",
"D  c #71603F",
"F  c #786A38",
"G  c #352F41",
"H  c #333341",
"J  c #383540",
"K  c #5E4E43",
"L  c #484850",
"P  c #604E43",
"I  c #6B5F43",
"U  c #775F40",
"Y  c #6A5E5A",
"T  c #696944",
"R  c #736344",
"E  c #686255",
"W  c #7C6557",
"Q  c #575464",
"!  c #AB7832",
"~  c #977C4E",
"^  c #8C6755",
"/  c #9C7D56",
"(  c #A77F45",
")  c #B2794A",
"_  c #A67956",
"`  c #9D7D6A",
"'  c #A87862",
"]  c #A07F76",
"[  c #7E874A",
"{  c #7D815C",
"}  c #A3931F",
"|  c #89893C",
" . c #BFB93A",
".. c #A8A526",
"X. c #CAAC3E",
"o. c #DACA3B",
"O. c #85864D",
"+. c #83884E",
"@. c #998A43",
"#. c #858456",
"$. c #99835F",
"%. c #928A5C",
"&. c #978254",
"*. c #999356",
"=. c #B99B46",
"-. c #B58F57",
";. c #BC9C56",
":. c #A8A246",
">. c #BCA549",
",. c #BBB84C",
"<. c #AEA559",
"1. c #BDA55E",
"2. c #BEAE51",
"3. c #BBB455",
"4. c #8D8168",
"5. c #A58164",
"6. c #AEAD67",
"7. c #BEA862",
"8. c #B7B165",
"9. c #BAB170",
"0. c #C89E4F",
"q. c #C4955A",
"w. c #C4AE4A",
"e. c #C6A848",
"r. c #CEBD4C",
"t. c #CDA65D",
"y. c #C6AA58",
"u. c #C4BA53",
"i. c #D4BB51",
"p. c #D5B848",
"a. c #C7A667",
"s. c #D0BB63",
"d. c #C8A678",
"f. c #D4C847",
"g. c #C8C75E",
"h. c #D2CA53",
"j. c #DCCB53",
"k. c #DCC65A",
"l. c #E4D54D",
"z. c #E3C854",
"x. c #ECDC5B",
"c. c #E9E941",
"v. c #E6EA4C",
"b. c #EEEC4F",
"n. c #F0EA4C",
"m. c #E6F242",
"M. c #E9F042",
"N. c #F0F047",
"B. c #E4E556",
"V. c #EDE555",
"C. c #E6EA50",
"Z. c #EAEB52",
"A. c #ECEA5B",
"S. c #E7E45E",
"D. c #F3E55D",
"F. c #F3EA5B",
"G. c #F2E757",
"H. c #F0F156",
"J. c #C2C86F",
"K. c #D9C960",
"L. c #CACC77",
"P. c #ECD676",
"I. c #DFE76A",
"U. c #DDEB7B",
"Y. c #ECE664",
"T. c #E6EC6A",
"R. c #F1E96E",
"E. c #EEF162",
"W. c #E3ED74",
"Q. c #EAE37A",
"!. c #90888F",
"~. c #B7B5B1",
"^. c #C0A486",
"/. c #C4B4A9",
"(. c #D6D685",
"). c #E6D986",
"_. c #DFE382",
"`. c #E2E58A",
"'. c #E8EF88",
"]. c #E5EB8A",
"[. c #F1ED81",
"{. c #F5F48E",
"}. c #E6EF96",
"|. c #F4F393",
" X c #CAC0A2",
".X c #C9C7BA",
"XX c #DEE4A6",
"oX c #EBEEAB",
"OX c #F4F2A6",
"+X c #EBEFB9",
"@X c #F6F6B7",
"#X c #E6D8C3",
"$X c #FEFFCD",
"%X c #FEFCD4",
"&X c #FEFAE0",
/* pixels */
"k k k k k k k k k k k k k k k k k k k k k k k k k k k k x k k k k k k k k k k k k k k k k k k k k k k k k k k k k k k k k k k k ",
"k k k k k k k k k k k k k k k k k k k k k k k k k k k k x k k k k k k k k k k k k k k k k k k k k k k k k k k k k k k k k k k k ",
"k k k k k k k k k k k k k k k k k k k k k k k k k k k k x k k k k k k k k k k k k k k k k k k k k k k k k k k k k k k k k k k k ",
"k k k k k k k k k k k k k k k k k k k k k k k k k k k k x k k k k k k k k k k k k k k k k k k k k k k k k k k k k k k k k k k k ",
"k k k k k k k k k k k k k k k k k k k k k k k k k k k k x k k k k k k k k k k k k k k k k k k k k k k k k k k k k k k k k k k k ",
"k k k k k k k k k k k k k k k k k k k k k k k k k k k k x k k k k k k k k k k k k k k k k k k k k k k k k k k k k k k k k k k k ",
"k k k k k k k k k k k k k k k k k k k k k k k k k k k k x k k k k k k k k k k k k k k k k k k k k k k k k k k k k k k k k k k k ",
"k k k k k k k k k k k k k k k k k k k k k k k k k k k k x k k k k k k k k k k k k k k k k k k k k k k k k k k k k k k k k k k k ",
"k k k k k k k k k k k k k k k k k k k k k k k k k k k k x k k k k k k k k k k k k k k k k k k k k k k k k k k k k k k k k k k k ",
"k k k k k k k k k k k k k k k k k k k k k k k k k k k k x k k k k k k k k k k k k k k k k k k k k k k k k k k k k k k k k k k k ",
"k k k k k k k k k k k k k k k k k k k k k k k k k k k k x k k k k k k k k k k k k k k k k k k k k k k k k k k k k k k k k k k k ",
"k k k k k k k k k k k k k k k k k k k k k k k k k k k k x k k k k k k k k k k k k k k k k k k k k k k k k k k k k k k k k k k k ",
"g g k k k k k k k k k k k k k k k k k k k k k k k k k k k k k k k k k k k k k k k k k k k k k k k k k k k k k k k k k k k k k k ",
"k k k k k k k k k k k k k k k k k k k k k k k k k k k k k k k k k k k k k k k k k k k k k k k k k k k k k k k k k k k k k k k k ",
"k k k k k k k k k k k k k k k k k k k k k k k k k k k k k k k k k k k k k k k k k k k k k k k k k k k k k k k k k k k k k k k k ",
"k k k k k k k k k k k k k k k k k k k k k k k k k k k k k k k k k k k k k k k k x x x k k k x x k k k k k k k k k k k k k k k k ",
"k k k k k k k k k k k k k k k k k k k k k k k k k k k k k k k k x x k k k k k k k x x g r y x G k k k k k k k k k k k k k k k k ",
"k k k k k k k k k k k k k k k k k k k k k k k k k k k k k k k k x k k k k k k k y y k x h k y i y k k k k k k k k k k k k k k k ",
"k k k k k k k k k k k k k k k k k k k k k k k k k k k k k k k k k k k k k k k k k y r g x x k y k k k k k k k k k k k k k k k k ",
"x x x x k k k k k k k k k k k k k k k k k k k k k k k k k k k k k k k x k x a 6 ; ; q k k x x H x k k k k k g g k k k k k k k k ",
"x x x x k k k k k k k k k k k k k k k k x k k k k k k k k k k k k k k k x x a X XX+.C - c s x k k k k k k k k k k k k k k k k k ",
"x x x x k k k k k k k k k k k k k k k k x k k k k k k k k k k k k k k x x s x 6 #.J.`.B - k k t y k k k k k k k k k k k k k k k ",
"x x x x k k k k k k k k k k k k k k k k x k k k k k k k k k k k g k x x x x s < . S L.6.T k x g k k k k k k k k k k k k g k g g ",
"x x x x k k k k k k k k k k k k k k k k x k k k k k k x k k x x k x a : : 0 8 Q !.& + E o x H h k k k k k k k k k k k k g g g g ",
"k k k k k k k k k k k k k k k k k x k k x k k k x y r z z 0 x H J % . +.[ { . X .X~.L < g g k x k k k k k k k k k k k k k k k k ",
"k k k k k k k k k k k k k k k k k k k k x k k k k x 6 : X - X % 3 B W.I.'.oX}.W.S   6 1 g r k x k k k k k k k k k k k k k k k k ",
"k k k k k k k k k k k k k k k k k k k k x k k k f 6 C { +X].W.| T U.T.6.OX&X%XT.g.%.$ x h k k k k k k k k k k k k k k k k k k k ",
"k k k k k k k k k k k k k k k k k k k x x k k x 3 N _.@X$X{.S.3.#.* # C  X/.#X[.R.8.b 9 x k k k k k k k k k k k k k k k k k k k ",
"k k k k k k k k k k k k k k k k k k k x x k x 0 b ,.B.|.OXQ.h.).+ Y 4.O F @.<.Y.F.2.R 9 x k k k k k k k k k k k k k k k k k k k ",
"k k k k k k k k k k k k k k k k k k k k k k k > $.f.N.Z.Y.u.:.Q.#.= %.).u.h...A.F.>.D 7 x k k k k k k k k k k k k k k k k k k k ",
"k k k k k k k k k k k k k k k k k k k k k k k + 7.k.F.b.Z.u.&.Z `.*.O 9.A.B.E.v.l.y.R 7 k g g g k k k k k k k k k k k k k k k k ",
"k k k k k k k k k k k k k k k k k k k k k k k = y.w.x.n.b. .@.# O.(.I F f.A.C.H.r.7.v l k g g g k k k k k k k k k k k k k k k k ",
"k k k k k k k k k k k k k k k k k x k k x k k + 1.w.x.V.D.} =.~ *   . &.>.p.z.k.a.$., x h h k k k k k k k k k k k k k k k k k k ",
"k k k k k k k k k k k k k k k k k k k k k k k $ U a.w.j.G.V.B.R.:.| 3.P.=.! q.-.$.# w x h h k k k k k k k k k k k k k k k k k k ",
"k k k k k k k k k k k k k k k k k k k k k k x q M ^.1.w.o.c.m.m.m.M.c.D.0._ ' ` K . k z g h k k k k k k k k k k k k k k k k k k ",
"k k k k k k k k k k k k k k k k k k k k k k x k > v d.e.X.f.F.v.v.Z.B.r.;.5.Z u o k g g g g k x k k k k k k k k k k k k k k k k ",
"k k k k k k k k k k k k k k k k k k k k k k k k k w n ~ a.t.e.i.j.K.s.;.( _ W % d h g r r g k k k k k k k k k k k k k k k k k k ",
"k k k k k k k k k k k k k k k k k k k k k k k x x x e @ ^ d.a.t.e.t.q.) ) _ ] 2 p x g g k k k k k k k k k k k k k k k k k k k k ",
"k k k k k k k k k k k k k k k k k k k k k x k x x x x k > @ A / &./ _ _ ' ^ e < a k k k k k k k k k k k k k k k k k k k k k k k ",
"k k k k k k k k k k k k k k k k k k k x k k k k l y g j j a 9 & % u V P m 2 4 5 k k k x x k y y k k k k k k k k k k k k k k k k ",
"k k k k k k k k k k k k k k k k k k k k k k k k k k k x h x x x x 0 6 9 9 p h g k k k x x k k k k k k k k k k k k k k k k k k k ",
"k k k k k k k k k k k k k k k k k k k k k k k k k k k k k x x x x x x x x x x x k k k k k k k k k k k k k k k k k k k k k k k k ",
"k k k k k k k k k k k k k k k k k k k k k k k k k k k k x x x k x a a a x x x x k k k k k k k k k k k k k k k k k k k k k k k k ",
"k k k k k k k k k k k k k k k k k k k k k k k k k k k x a a a a a a a a 8 a a a k k k k k k k k k k k k k k k k k k k k k k k k ",
"k k k k k k k k k k k k k k k k k k k k k k k k k k k a a a a a a a a a a a a a 0 k x k k k k k k k k k k k k k k k k k k k k k ",
"k k k k k k k k k k k k k k k k k k k k k k k k x x k a a a a a a a a a a a a a 0 a k k k k k k k k k k k k k k k k k k k k k k ",
"k k k k k k k k k k k k k k k k k k k k k k k k x x k a a a a a a a a a a a a a 0 a k k k k k k k k k k k k k k k k k k k k k k ",
"k k k k k k k k k k k k k k k k k k k k k k k k x x k a a a a a a a a a a a a a 0 k x k k k k k k k k k k k k k k k k k k k k k ",
"k k k k k k k k k k k k k k k k k k k k k k k k k x x x a a 0 0 0 0 0 0 0 0 a a k k k k k k k k k k k k k k k k k k k k k k k k ",
"k k k k k k k k k k k k k k k k k k k k k k k k k k k k k k k k g g g g k k k k k k k k k k k k k k k k k k k k k k k k k k k k ",
"k k k k k k k k k k k k k k k k k k k k k k k k k k k k k k k k k k k k k k k k k k k k k k k k k k k k k k k k k k k k k k k k ",
"k k k k k k k k k k k k k k k k k k k k k k k k k k k k k k k k k k k k k k k k k k k k k k k k k k k k k k k k k k k k k k k k ",
"k k k k k k k k k k k k k k k k k k k k k k k k k k k k k k k k k k k k k k k k k k k k k k k k k k k k k k k k k k k k k k k k ",
"k k k k k k k k k k k k k k k k k k k k k k k k k k k k k k k k k k k k k k k k k k k k k k k k k k k k k k k k k k k k k k k k ",
"k k k k k k k k k k k k k k k k k k k k k k k k k k k k k k k k k k k k k k k k k k k k k k k k k k k k k k k k k k k k k k k k ",
"k k k k k k k k k k k k k k k k k k k k k k k k k k k k k k k k k k k k k k k k k k k k k k k k k k k k k k k k k k k k k k k k ",
"k k k k k k k k k k k k k k k k k k k k k k k k k k k k k k k k k k k k k k k k k k k k k k k k k k k k k k k k k k k k k k k k ",
"k k k k k k k k k k k k k k k k k k k k k k k k k k k k k k k k k k k k k k k k k k k k k k k k k k k k k k k k k k k k k k k k ",
"k k k k k k k k k k k k k k k k k k k k k k k k k k k k k k k k k k k k k k k k k k k k k k k k k k k k k k k k k k k k k k k k ",
"k k k k k k k k k k k k k k k k k k k k k k k k k k k k k k k k k k k k k k k k k k k k k k k k k k k k k k k k k k k k k k k k ",
"k k k k k k k k k k k k k k k k k k k k k k k k k k k k k k k k k k k k k k k k k k k k k k k k k k k k k k k k k k k k k k k k ",
"k k k k k k k k k k k k k k k k k k k k k k k k k k k k k k k k k k k k k k k k k k k k k k k k k k k k k k k k k k k k k k k k ",
"k k k k k k k k k k k k k k k k k k k k k k k k k k k k k k k k k k k k k k k k k k k k k k k k k k k k k k k k k k k k k k k k ",
"k k k k k k k k k k k k k k k k k k k k k k k k k k k k k k k k k k k k k k k k k k k k k k k k k k k k k k k k k k k k k k k k "
};
