/* XPM */
static char *rcp00155004151806[] = {
/* columns rows colors chars-per-pixel */
"64 64 221 2 ",
"   c #1C1D0C",
".  c #1C1B13",
"X  c #1A1919",
"o  c #221B06",
"O  c #231E0B",
"+  c #2D0F13",
"@  c #231C15",
"#  c #241A1B",
"$  c #251914",
"%  c #1C220A",
"&  c #17220C",
"*  c #1B201D",
"=  c #232704",
"-  c #242314",
";  c #21211D",
":  c #2D2918",
">  c #342A1B",
",  c #3A2E19",
"<  c #34301F",
"1  c #39321D",
"2  c #383214",
"3  c #161224",
"4  c #1C1C27",
"5  c #1F1734",
"6  c #251B23",
"7  c #271A23",
"8  c #1F2020",
"9  c #242423",
"0  c #292224",
"q  c #27242C",
"w  c #2C252C",
"e  c #2C2B2C",
"r  c #272B2A",
"t  c #322D24",
"y  c #332C2C",
"u  c #3A2D29",
"i  c #352A23",
"p  c #2C342E",
"a  c #2E3027",
"s  c #353324",
"d  c #3B3425",
"f  c #34342D",
"g  c #3B342C",
"h  c #39392A",
"j  c #292432",
"k  c #2C2D32",
"l  c #2C2A3A",
"z  c #242333",
"x  c #322E34",
"c  c #322E3C",
"v  c #2E3334",
"b  c #2F3937",
"n  c #2E353A",
"m  c #26303A",
"M  c #333436",
"N  c #393433",
"B  c #333934",
"V  c #3C3A35",
"C  c #343539",
"Z  c #3A353B",
"A  c #35393C",
"S  c #3B393B",
"D  c #443816",
"F  c #483A28",
"G  c #422F35",
"H  c #453331",
"J  c #463B37",
"K  c #4F4D1E",
"L  c #4C4123",
"P  c #514F2C",
"I  c #4E522C",
"U  c #4E4D31",
"Y  c #554D37",
"T  c #5A533D",
"R  c #56513B",
"E  c #695D3F",
"W  c #684A35",
"Q  c #7A763E",
"!  c #66673D",
"~  c #332E46",
"^  c #2B3842",
"/  c #343441",
"(  c #393643",
")  c #363A42",
"_  c #534D4A",
"`  c #5A4C4A",
"'  c #5B5643",
"]  c #59554A",
"[  c #56534A",
"{  c #5D5650",
"}  c #604E43",
"|  c #69654A",
" . c #686747",
".. c #726647",
"X. c #76694C",
"o. c #7B6B4E",
"O. c #696753",
"+. c #746C55",
"@. c #796C54",
"#. c #736D5B",
"$. c #7C6552",
"%. c #75715C",
"&. c #7C764D",
"*. c #6D6D67",
"=. c #776D63",
"-. c #767565",
";. c #886C30",
":. c #A67E3E",
">. c #886358",
",. c #937654",
"<. c #AC7F48",
"1. c #A47A5E",
"2. c #A97A56",
"3. c #967A66",
"4. c #937B74",
"5. c #A37966",
"6. c #7B8549",
"7. c #78815B",
"8. c #7A8467",
"9. c #80863F",
"0. c #939526",
"q. c #B5A23A",
"w. c #BBB33D",
"e. c #C7AA3D",
"r. c #C7A73A",
"t. c #E6EA3F",
"y. c #EAED3E",
"u. c #83824B",
"i. c #888548",
"p. c #958846",
"a. c #849045",
"s. c #89865A",
"d. c #93865B",
"f. c #959A55",
"g. c #A78148",
"h. c #BB8E4C",
"j. c #B19B44",
"k. c #A9895B",
"l. c #A18350",
"z. c #AA9D5A",
"x. c #B7B74C",
"c. c #AAAB57",
"v. c #BBAA57",
"b. c #B5B24C",
"n. c #8D846E",
"m. c #998867",
"M. c #8C857B",
"N. c #958C75",
"B. c #988878",
"V. c #94917D",
"C. c #989372",
"Z. c #A19163",
"A. c #B78663",
"S. c #BDA96E",
"D. c #BBA866",
"F. c #B7B16D",
"G. c #BAA875",
"H. c #BBA674",
"J. c #B1B572",
"K. c #A9B46A",
"L. c #C19B4E",
"P. c #C89B5D",
"I. c #CAAA4E",
"U. c #C7A849",
"Y. c #C6B942",
"T. c #CCA556",
"R. c #C8A459",
"E. c #D3B15D",
"W. c #C9BB5C",
"Q. c #C29960",
"!. c #C9A86D",
"~. c #DBC64C",
"^. c #D8CA4C",
"/. c #DCD14B",
"(. c #DBC658",
"). c #D8D456",
"_. c #CBD156",
"`. c #E0CC49",
"'. c #EAD954",
"]. c #E5CE54",
"[. c #ECEB44",
"{. c #EBEB4C",
"}. c #E7E749",
"|. c #F6EA4B",
" X c #ECF045",
".X c #EBF04A",
"XX c #EDE554",
"oX c #EAEC5C",
"OX c #E9EC57",
"+X c #F2E65A",
"@X c #E9F053",
"#X c #F2F152",
"$X c #CDCE6A",
"%X c #D6D665",
"&X c #E2DA66",
"*X c #DFF26F",
"=X c #DEEB72",
"-X c #DEE766",
";X c #E6ED69",
":X c #E7E966",
">X c #E4E877",
",X c #F3EA62",
"<X c #8B8992",
"1X c #B2A58C",
"2X c #B5A987",
"3X c #AFB293",
"4X c #B9B89A",
"5X c #AEA9A4",
"6X c #C4BFB9",
"7X c #CCC885",
"8X c #E5EE84",
"9X c #F5F08F",
"0X c #ECF196",
"qX c #DFE7A8",
"wX c #F1EFB0",
"eX c #F7F7B5",
"rX c #C4C1C2",
"tX c #DED8CD",
"yX c #FEFECC",
"uX c #FBFCD6",
"iX c #FAF8E9",
/* pixels */
"M M M M M M M M M M M M M M M M M M M M M M M M M M M M M M M M M M M M M M M M M M M M M M M M M M M M M M M M M M M M M M M M ",
"M M M M M M M M M M M M M M M M M M M M M M M M M M M M M M M M M M M M M M M M M M M M M M M M M M M M M M M M M M M M M M M M ",
"M M M M M M M M M M M M M M M M M M M M M M M M M M M M M M M M M M M M M M M M M M M M M M M M M M M M M M M M M M M M M M M M ",
"M M M M M M M M M M M M M M M M M M M M M M M M M M M M M M M M M M M M M M M M M M M M M M M M M M M M M M M M M M M M M M M M ",
"M M M M M M M M M M M C M M M M M M M M M M M M M M M M M M M M M M M M M M M M M M M M M M M M M M M M M M M M M M M M M M M M ",
"M M M M M M M M M M M M M M M M M M M M M M M M M M M M M M M M M M M M M M M M M M M M M M M M M M M M M M M M M M M M M M M M ",
"M M M M M M M M M M M M M M M M M M M M M M M M M M M M M M M M M M M M M M M M M M M M M M M M M M M M M M M M M M M M M M M M ",
"M M M M M M M M M M M M M M M M M M M M M M M M M M M M M M M M M M M M M M M M M M M M M M M M M M M M M M M M M M M M M M M M ",
"M M M M M M M M M M M M M M M M M M M M M M M M M M M M M M M M M M M M M M M M M M M M M M M M M M M M M M M M M M M M M M M M ",
"M M M M M M M M M M M M M M M C M M M M M M M M M M M M M M M M M M M M M M M M M M M M M M M M M M M M M M M M M M M M M M M M ",
"M M M M M M M M M M M M M M M M M M M M M M M M M M M M M M M M M M M M M M M M M M M M M M M M M M M M M M M M M M M M M M M M ",
"M M M M M M M M M M M M M M M M M M M M M M M M M M M M M M M M M M M M M M M M M M M M M M M M M M M M M M M M M M M M M M M M ",
"M M M M M M M M M M M M M M M M M M M M M M M C M M M M M M M M M M M M M M M M M M M M M M M M M M M M M M M M v v M M M M v v ",
"M M M M M M M M M M M M M M C M M M M M M M M C M M M M M M M M M M M M M M M M M M M M M M M M M M M M M M M M M M M M M M M M ",
"M M M M M M M M M M M M M M M M M M M M M M M C M M M M M M M M M M M M M M M M M M M M M M M M M M M M M M M M M M M M M M M M ",
"M M M M M M M M M M M M M M M M M M C B M M M C M M M f N f d d f B M M M M C M M M M M M M M B M M M M M M M M M M M M M M M M ",
"M M M M M M M M M M M M M M M M M M C f M M C ~ z 6 f d @.o.H.H.@.f e M C M C N f M v n b M M f M M M M M M M M M M M M M M M M ",
"M M M M M M M M M M M M M M M M M M M C M B N - | | - O. .&.u G g N B M v M f [ t V v v b M M B M M M M M M M M M M M M M M M M ",
"M M M M M M M M M M M M M M M C M B f / C s - 6.%Xc.@ 5 4 r ) ~ C M A M v B f ] -.> g f M M M M M M M M M M M M M M M M M M M M ",
"M M M M M M M M M M M M M M M C M f f C c f = =X_.u.@ 5X@ . @ 6 j / M v M M B g #.N.d g f B M M M M M M C C C C C C C C C C C C ",
"M M M M M M M M M M M M M C M C M M B M ( 9 K.8Xf.- 6X_ L v.v.G.F # e C M M C N d T N.1 g f M C C M M M M M M M C C C C C C C C ",
"M M M M M M M M M M M M M M M C M M M f C X qXI 8 <XrXo %XXX~.U.H.d.o 0 C / C M g d Y N.d g C C C M M M M M M M C C C C C C C C ",
"M M M M M M M M M M M M M M M M M M M B *..   : 4 3 X J.-X,X+X'.Y.v.d.d 9 ( C M M f h R V.h N C C M M M M M M M M C C C C C C C ",
"M M M M M M M M M M M M M M M M M M M M -.s M x C 9 -.uXyX9XoX[.|.XXW.Z.Y # e B C M f d #.' f A C M M M M M M M C C C C C C C C ",
"M M M M M M M M M M M M M M M M M M M M M B C C r ; 4XiXiX7X$XoX{.y.,Xv.l.>.7 n C f f N N V.s M M M M M M M M M M M M M M M M M ",
"M M M M M M M M M M M M M M M M M M M M M M M C z % 0XuXtXn.O u.;Xt.+XI.P.5.G k / f s C N #.' V M M M M M M M M M M M M M M C M ",
"M M M M M M M M M M M M M M M M M M M M C C M M r 6.*X>X4X# @ P x..X{.(.P.2.B.# n B f C N < V.g M M M M M M M M M M M M M M M M ",
"M M M M M M M M M M M M M M M M M M M M M C M M p % a.-Xi.J M.u.>X@X}.].T.<.d.` q M v M f d %.d B M M M M M M M M M M M M M M M ",
"M M M M M M M M M M M M M M M M N _ B M M C M M ) z P >Xi.o | ! u.c.).(.h.<.,.H q M C v B f #.T B M M M M M M M M M C M M M M M ",
"M M M M M M M M M M M M M M M M g -.f f M M M M k ; = %Xx.Q i..   O F.j.g.1.>.+ # q / B f N g %.f M M M M M M M M M M M C M M M ",
"M M M M M M M M M M M M C M M M N =.f N M M C p & 3XwX>X&X).;XU -.V ..(.E.A.1.3.} 6 c v p v V O.f M M C M M M M M M M M M M M M ",
"M M M M M M M M M M M M C M M M g =.g N M M M 9 8.iXuX9Xq.Y.oXF.7.  i.{.'.L.g.l.3.6 j B B M B %.f M M M M M M M M M M M M M M M ",
"M M M M M M M M M M M M M M M C Z #.1 N / M v * 7.uXeX:X/.q.;.W D K >X{.}.U.:.1.4.7 q M B B s %.B M M M M M M M M M M M M M M M ",
"M M M M M M M M M M M M M M M C Z #.U N C M v X s.8XoX X{.Y.p.z.>Xx.oXXX(.T.2.5.H X M v A a ' #.B M M M M M M M M M M M M M M M ",
"M M M M M M M M M M M M M M M C N d +.f M C M 9 E &Xt. X{.:X0.;X.X.X}.'.I.Q.1.>.$ 9 v A M N #.d B M M M M M M M M M M M M M M M ",
"M M M M M M M M M M M M M M M C M t V.s N M C k F b.[.[.{.#X}. X@X+X`.r.T.k.$.$ r M v M M f M.g B M M M M M M M M M M M M M M M ",
"M M M M M M M M M M M M M M M M B f #.T t Z M M @ p.w.^.(.+X|.].~.e.I.R.k.F X m b b b M M f { g M M M M M M M M M M M M M M M M ",
"M M M M M M M M M M M M M M M M v M s +.F x C M x # d.S.!.U.e.I.U.T.!.3.G X ^ ^ n v M M M B f N M M M M M M M M M M M M M M M M ",
"M M M M M M M M M M M M M M M M v v g C.T Z C M C l # L G.S.D.D.S.,.F # q n ^ n b M M M f B M M M M M M M M M M M M M M M M M M ",
"M M M M M M M M M M M M M M M M M C g 2 N.N C B M M S @ O # 6 @ # 0 0 f f s f B M C M M M v M M M M M M M M M M M M C M M M M C ",
"M M M M M M M M M M M M M M M M M B g d ] M.f g f V N N N q j x C C M B f B f B M M M M M M M M M M M M M M M M M M M M M M M M ",
"M M M M M M M M M M M M M M M M M N N N f [ g f S l ( C M B B B B B M M M C / / C M C v M M M M M M M M M M M M M M M M M M M M ",
"M M M M M M M M M M M M M M M M M M M M y S y S Z Z e M A M M B v v v v k M ( C M M M M M M M M M M M M M M M M M M M M M M M M ",
"M M M M M M M M M M M C M M M M C C M M C M M B +.T d g f f x l l l k e t < : ' *.S M M M M M M M M M M M M M M M M M M M M M M ",
"M M M M M M M M M M M M M M M M C C C C C C C B 1 m.2X@.i i u t y u i > , ..2Xm.t M M M M M M M M M M M M M M M M M M M M M M M ",
"M M M M M M M M C M M M M M M M M M M C C C C M H g u =.1X2X..@.X...o.1X1X@., > r v M M M M M M M M M M M M M M M M M M M M M M ",
"M M M M M M M M M M M M M M M M M M M M M M M C k S f g s > +.X.X.X.@.> i y w k r v M M M M M M M M M M M M M M M M M M M M M M ",
"M M M M M M M M M M M M M M M M M M M M M M M M b B M M M N y y y y w x r k r k k M M M M M M M M M M M M M M M M M M M M M M M ",
"M M M M M M M M M M M M C M M M M M M M M M M M M M M M M M x e k k e e r e k v M M M M M M M M M M M M M M M M M M M M M M M M ",
"M M M M M M M M M M M M M M M M M M M M M M M M M M M M M M M M k k k k M M M M M M M M M M M M M M M M M M M M M M M M M M M M ",
"M M M M M M M M M M M M M M M M M M M M M M M M M M M M M M M M M M M M M M M M M M M M M M M M M M M M M M M M M M M M M M M M ",
"M M M M M M M M M M M M M M M M M M M M M M M M M M M M M M M M M M M M M M M M M M M M M M M M M M M M M M M M M M M M M M M M ",
"M M M M M M M M M M M C M M M M M M M M M M M M C M M M M M M M M M M M M M M M M M M M M M M M M M M M M M M M M M M M M M M M ",
"M M M M M M M M M M M M M M M M M M M M M C M M M M M M M M M M M M M M M M M M M M M M M M M M M M M M M M M M M M M M M M M M ",
"M M M M M M M M M M M M M M M M M M M M M M M M M M M M M M M M M M M M M M M M M M M M M M M M M M M M M M M M M M M M M M M M ",
"M M M M M M M M M M M M M M M M M M M M M M M M M M M M M M M M M M M M M M M M M M M M M M M M M M M M M M M M M M M M M M M M ",
"M M M M M M M M M M M M M M M M M C M M M M M M M M M M M M M M M M M M M M M M M M M M M M M M M M M M M M M M M M M M M M M M ",
"M M M M M M M M M M M M M M M C M M M M M M M M M M M C M M M M M M M M M M M M M M M M M M M M M M M M M M M M M M M M M M M M ",
"M M M M M M M M M M M M M M M M M M M M M M M M M M M M M M M M M M M M M M M M M M M M M M M M M M M M M M M M M M M M M M M M ",
"M M M M M M M M M M M M M M M M M M M M C M M M M M M M M M M M M M M M M M M M M M M M M M M M M M M M M M M M M M M M M M M M ",
"M M M M M M M M M M M M M M M M M M M M M M M M M M M M M M M M M M M M M M M M M M M M M M M M M M M M M M M M M M M M M M M M ",
"M M M M M M M M M M M M M M C M M M M M M M M M M M M M M M M M M M M M M M M M M M M M M M M M M M M M M M M M M M M M M M M M ",
"M M M M M M M M M M M M M M M M C M M M M M M M M M M M M M M M M M M M M M M M M M M M M M M M M M M M M M M M M M M M M M M M ",
"M M M M M M M M M M M M M M M M M M M M M M M M M M M M M M M M M M M M M M M M M M M M M M M M M M M M M M M M M M M M M M M M "
};
