/* XPM */
static char *rcp00153494749874[] = {
/* columns rows colors chars-per-pixel */
"64 64 213 2 ",
"   c #161B0C",
".  c #1C1D0C",
"X  c #1F1E03",
"o  c #1B1D14",
"O  c #1C1B1E",
"+  c #1A1515",
"@  c #241B07",
"#  c #271D17",
"$  c #1A2306",
"%  c #2A200C",
"&  c #37390E",
"*  c #3A3A0C",
"=  c #333A05",
"-  c #2C2212",
";  c #24251D",
":  c #2C251D",
">  c #2C2D1D",
",  c #2B2916",
"<  c #322F18",
"1  c #343414",
"2  c #353913",
"3  c #3A3A13",
"4  c #35341C",
"5  c #39351D",
"6  c #36391A",
"7  c #3B3B1B",
"8  c #291925",
"9  c #281233",
"0  c #2C2B25",
"q  c #262D2B",
"w  c #2A2C2D",
"e  c #252427",
"r  c #332927",
"t  c #332F2E",
"y  c #2D3324",
"u  c #2E3A28",
"i  c #353425",
"p  c #393624",
"a  c #353924",
"s  c #3D3C23",
"d  c #34342D",
"f  c #39362B",
"g  c #34392C",
"h  c #3B3A2C",
"j  c #242C32",
"k  c #2D2D33",
"l  c #282434",
"z  c #322B3E",
"x  c #392C37",
"c  c #2D3133",
"v  c #2E343A",
"b  c #343537",
"n  c #3A3533",
"m  c #343933",
"M  c #3A3933",
"N  c #353638",
"B  c #39343C",
"V  c #34393A",
"C  c #3A393D",
"Z  c #47382D",
"A  c #3A410A",
"S  c #3F4029",
"D  c #404107",
"F  c #4B401C",
"G  c #5C5F1E",
"H  c #66681D",
"J  c #494325",
"K  c #4E542B",
"L  c #53523C",
"P  c #575C2A",
"I  c #635F2A",
"U  c #705C3E",
"Y  c #6B4834",
"T  c #5E6428",
"R  c #626726",
"E  c #656923",
"W  c #63662B",
"Q  c #676B2C",
"!  c #686A2E",
"~  c #636234",
"^  c #666933",
"/  c #6B6D31",
"(  c #676738",
")  c #787135",
"_  c #7B7324",
"`  c #2E2F40",
"'  c #352E42",
"]  c #343442",
"[  c #3A3542",
"{  c #55565F",
"}  c #634E48",
"|  c #6A5C44",
" . c #6C6148",
".. c #6B6448",
"X. c #726340",
"o. c #78775B",
"O. c #9A7E36",
"+. c #825D50",
"@. c #806256",
"#. c #877052",
"$. c #A37E55",
"%. c #A77D48",
"&. c #815F61",
"*. c #807E60",
"=. c #977F71",
"-. c #A17865",
";. c #798B47",
":. c #798553",
">. c #788266",
",. c #898A3C",
"<. c #8D9337",
"1. c #8E943E",
"2. c #8D983B",
"3. c #92953C",
"4. c #91993B",
"5. c #95862E",
"6. c #AEA132",
"7. c #EBF23D",
"8. c #898E43",
"9. c #8E8B49",
"0. c #868E42",
"q. c #92804D",
"w. c #8C9242",
"e. c #8D9349",
"r. c #8F9844",
"t. c #929444",
"y. c #949A42",
"u. c #92944B",
"i. c #989946",
"p. c #878758",
"a. c #968557",
"s. c #8E9352",
"d. c #979855",
"f. c #B2954F",
"g. c #B69658",
"h. c #A89758",
"j. c #B9A75D",
"k. c #AEBA5E",
"l. c #B9B45E",
"z. c #B3BD5B",
"x. c #B9BB5B",
"c. c #B5B956",
"v. c #808069",
"b. c #8A8570",
"n. c #968769",
"m. c #B19C69",
"M. c #B4A967",
"N. c #B5BB69",
"B. c #B6B665",
"V. c #B3AB73",
"C. c #B6B871",
"Z. c #A5AA68",
"A. c #C7AD4B",
"S. c #C3A859",
"D. c #D3B857",
"F. c #C7BB49",
"G. c #C7B166",
"H. c #BAC359",
"J. c #B7C262",
"K. c #DEC548",
"L. c #D5D14B",
"P. c #DBD457",
"I. c #CFC456",
"U. c #E0CB51",
"Y. c #E4D95D",
"T. c #DCE75B",
"R. c #DDEA5D",
"E. c #D6E05F",
"W. c #F2EC4B",
"Q. c #ECEA52",
"!. c #EBE55D",
"~. c #E2EC5D",
"^. c #E8ED59",
"/. c #F1E652",
"(. c #C2C661",
"). c #D4CE6C",
"_. c #DAD27D",
"`. c #E0D766",
"'. c #F2DF65",
"]. c #F2DE74",
"[. c #DEE763",
"{. c #DEEB63",
"}. c #DEEB6D",
"|. c #DDE56F",
" X c #DEE773",
".X c #DEE972",
"XX c #DDE57B",
"oX c #DEE87D",
"OX c #E2ED64",
"+X c #EBE964",
"@X c #E2EC6B",
"#X c #E3E666",
"$X c #F1E569",
"%X c #E4F163",
"&X c #EAF167",
"*X c #E3EC73",
"=X c #E2EB7B",
"-X c #E5E873",
";X c #E8F27A",
":X c #8D8887",
">X c #AFAD80",
",X c #D1D28F",
"<X c #DBEA92",
"1X c #DCEA87",
"2X c #E1E887",
"3X c #EAEE9B",
"4X c #F4F391",
"5X c #C0C4B7",
"6X c #D7E3A9",
"7X c #EEF0BF",
"8X c #F6F4BA",
"9X c #EDEFC0",
"0X c #FAFADB",
/* pixels */
"b b b b b b b b N N N N N N N N N N N N b b b b b b b b b b b b b b b b b b b b b b b b b b b b b b b b N N N N N b b b b b N N ",
"b b b b b b b b N N N N N N N N N N N N b b b b b b b b b b b b b b b b b b b b b b b b b b b b b b b b N N N N N N b b b b N N ",
"b b b b b b b b N N N N N N N N N N N N b b b b b b b b b b b b b b b b b b b b b b b b b b b b b b b b N N N N b b b b b b b N ",
"b b b b b b b b N N N N N N N N N N N N b b b b b b b b b b b b b b b b b b b b b b b b b b b b b b b b N N N N b b b b b b b b ",
"b b b b b b b b N N N N N N N N N N N N N N N N b b b b b b b b b b b b b b b b b b b b b b b b b b b b N N N N b b b b b b b b ",
"b b b b b b b b N N N N N N N N N N N N N N N N b b b b b b b b b b b b b b b b b b b b b b b b b b b b N N N N b b b b b b b b ",
"b b b b b b b b N N N N N N N N N N N N N N N N b b b b b b b b b b b b b b b b b b b b b b b b b b b b N N N N N N N N b b b b ",
"b b b b b b b b N N N N N N N N N N N N N N N N b b b b b b b b b b b b b b b b b b b b b b b b b b b b N N N N N N N b b b b N ",
"b b b b b b b b N N N N N N N N N N N N N N N N N N N N b b b b b b b b b b b b b b b b b b b b b b b b b b b b b b b b b b b b ",
"b b b b b b b b N N N N N N N N N N N N N N N N N N N N b b b b b b b b b b b b b b b b b b b b b b b b b b b b b b b b b b b b ",
"b b b b b b b b N N N N N N N N N N N N N N N N N N N N b b b b b b b b b b b b b b b b b b b b b b b b b b b b b b b b b b b b ",
"b b b b b b b b N N N N N N N N N N N N N N N N N N N N b b b b b b b b b b b b b b b b b b b b b b b b b b b b b b b b b b b b ",
"b b b b b b b b N N N N N N N N N N N N N N N N N N N N N b b b b b b b b b b b b b b b N N b b b b b b b b b b b b b b N N N N ",
"b b b b b b b b N N N N N N N N N N N N N N N N N N N N b b b b b b b b b b b b b b b b N N b b b b b b b b b b b b b b N N N N ",
"b b b b b b b b N N N N N N N N N N b N N N N N N N N N b b b b b b b b b b b b b b b b N N b b b b b b b b b b b b b b N N N N ",
"b b b b b b b b N N N N N N N N N N m m N N N N N b b b b N N N b b b b N N N N m N N N N b m N b b b b b b b b b b b b N N N N ",
"b b b b b b b b N N N N N N N N B b g g N ] N N C b m f n t f f p f f f d m V c m N N N N N m m b b b b b b b b b b b b N b b b ",
"b b b b b b b b N N N N N N N b b N N b N N N N b b C f & H y.<.3.t.9.~ 3 p i b ] N N N N N N m b b b b b b b b b b b b N b b b ",
"b b b b b b b b N N N N N N N b g N ] ] m g b B d s ~ w.@X%XT.@X@X[.&X~.*X3.I 5 B N b m N N N b b b b b b b b b b b b b N N b b ",
"b b b b b b b b N N N N N N N b g b ] ] b f g f 3 N.}.~.OX X,.s.u.w.<.OX~.+X-Xx.2 i f m m b N N b b b b b b b b N N b b b b b b ",
"b b b b b b b b N N N N N N N N N N b N N f 7 R H.@X.X1.! 7 < s a a a 6 ^ 8. X@Xz.R 7 n m m N N N b b b b b b b N b b b b b b b ",
"b b b b b b b b N N N N N N N N N N m m n s G =X{.z.7 i n n d b N N ] N m 6 A k.@XoXR 6 f b N N b b b b b b b b N N b b N N b b ",
"b b b b b b b b N N N N N N N b N N N b 5 / 2X*Xe.7 i b k N V N N m m f y f g 4 e.=XXXQ a ] N N b b b b b b N N b b b b N N b b ",
"b b b b b b b b N N N N N N N b b N N b * z. Xt.5 d d m B ] v m m n b b C b B B p w.}.z.2 ] ] m m b b b b b b N b b b b N b b b ",
"b b b b b b b b N N N N N N N B [ d g a x.^.k.6 b ] V m b l t , : r t N N N b ] N 1 J.{.z.4 c N b b b b b b b b b b b b b N b b ",
"b b b b b b b b N N N N N N N N B m u T @X#XD g a a y B 8 Z  . .|  .% 0 b N N v N a = *X}.W d b b b b b b b b b b b b b N N b b ",
"b b b b b b b b N N N N N N N b b N a 2.T.i.5 d d d [ 8 n.j.I.).l.M.m.U # z v m V a 1 w.{.w.h b b b b b b b b b b b b b N b b b ",
"b b b b b b b b N N N N N N N b b b 6 }.OX~ d B B b l J G./.W.Q.!.I.A.g.@.9 l u m g M ^ %X}.2 m b b b b b b b b b b b N b b b b ",
"b b b b b b b b N N N N N N N N V a W @X X7 n B [ b O i.!.W.W.^.Q.Q.U.S.+.8 8 e N d B 4 @XR.T d b b b b b b b b b N N N N N b b ",
"b b b b b b b b N N N N N N N N v h t.OXw.s f r e o   -X+X6._ B.c.Q.Y.g.Y +.=.x k m [ i 2.OXe.f b b b b b b b b b b N N b N b b ",
"b b b b b b b b N N N N N N N N V i 3.OXe.a ,  .. 6X$ 2X8Xa.7 . ,Xl.,.h.j.O.$.&.O c B p 3.@X8.p b b b b b b b b b b b b b b b b ",
"b b b b b b b b N N N N N N N N V f 3.OXw.a . ,Xo 0Xo 9X0X0Xo.S 9.J X C.`.D.%.-.# v N p w.@X1.s b b b b b b b b b b b b b b b b ",
"b b b b b b b b N N N N N N N N B p 4.@X8.f . 1X:.5X{ >.7X>XV.F @ L >.;.+XK.f.@.O m n p w.@X8.p b b b b b b b b N N N N b b b b ",
"b b b b b b b b N N N N N N N N b i t.%X1.h . <X;.  ` O v.@ _.-X_.*.$ K $XK.f.} l d M i 1.OXi.r b b b b b b b b N N N N b b b b ",
"b b b b b b b b N N N N N N N b f M W ~.;X1 4 K 6Xy k N + b.8X).5.) d.9.'.A.m.+ [ d b p -X~.E n N b b b b b b b N N N N N N N N ",
"b b b b b b b b N N N N N N N m f C 1 @X[.W f ; o ; g a ; :X0X4X+XL.P.].D.G.*.0 N b M ^ OX@X1 n b b b b b b b b N N N N N N N b ",
"b b b b b b b b N N N N N N N b m k s r.OX3.i n m B N d ; p.3X^.7.W.$XD.S.a.- N N k i w.OXw.p d b b b b b b b b b b b b N b b b ",
"b b b b b b b b N N N N N N N N N V i ~ =X|.* h m N N N V + Z.E.~.P.F.S.q.- k ] m d & }. X( d m b b b b b b b b b b b b b b b b ",
"b b b b b b b b N N N N N N N N N m f i B.@XH.1 f ] ] N N N + ..V.B.M.X.e k V y i s z.{.C.p n N b b b b b b b b b b b b b b b b ",
"b b b b b b b b N N N N N N N B ] m d n 3 H.R.e.p N b d g N k 0 @ @ # : b v N g 6 e.{.H.7 n i B N b b b b b b b b b b b b b b b ",
"b b b b b b b b N N N N b b N N N N m b i W *XOXu.1 s i n b N m m M N b N N d 7 y. X=XT f B N N b b b b b b b b b b b b N b b b ",
"b b b b b b b b N N N N N N N N N m m N B p W *X[.(.* p [ z B m m V k B i 7 A N. XoXT 7 f b N N N b b b b b b b b b b b N b b b ",
"b b b b b b b b N N N N N N N N N m m N ' [ 5 ! H.*XXXt.W 7 4 h M i 4 3 R 4.OXOXB./ 4 d f f N N N b b b b b b b b b b b N N b b ",
"b b b b b b b b N N N N N N N N N N m N [ ' B i & N..XOX~.@Xy.t.u.8.<.@XOX[.@Xx.* 5 d N b m m N b b b b b b b b N N b b b b b b ",
"N N N N b b b b N N N N N N N N N N N b b N N b M 1 R 2.*XOX@X*X@XOXR.@X=X,.~ < m m m b N N N d m b b b b b b b N b b b b b b b ",
"N N N N b b b b N N N N N N N N B B N b m m m b b b i 7 2 W u.8.0.,.s.P 1 > 0 k ] N d m ] ] N d m b b b b b b b N N b b N N b b ",
"N N N N b b b b N N N N N N N b b N B B N m m N b B C b m M i > > 0 w l j c q q N N N N N N N N b b b b b b N b b b b b N N b b ",
"N N N N b b b b N N N N N N N b m N B N N N N N b b b N ] b m d k k w k c j v j m N N N d d b N N b b b b b N N b b b b N b b b ",
"b b b b b b b b N N N N N N N b b N N N b N b b b b b N N b b b c k w w k c c v N N N N b m b N b b b b b b b b b b b b b N b b ",
"b b b b b b b b N N N N N N N N N N N N b b b b b b b b b b b b b b c k b b N b b b b b b b b b b b b b b b b b b b b b N N b b ",
"b b b b b b b b N N N N N N N N N N N N b b b b b b b b b b b b b N b N b b N N b b b b b b b b b b b b b b b b b b b b N b b b ",
"b b b b b b b b N N N N N N N N N N N N b b b b b b b b b b b b b b N N b b b N b b b b b b b b b b b b b b b b b b b N b b b b ",
"N N N N b b b b N N N N N N N N N N N N b b b b b b b b b b b b b b b b b b b b b b b b b b b b b b b b b b b b b N N N N N b b ",
"N N N N b b b b N N N N N N N N N N N N b b b b b b b b b b b b b b b b b b b b b b b b b b b b b b b b b b b b b b N N b N b b ",
"N N N N b b b b N N N N N N N N N N N N b b b b b b b b b b b b b b b b b b b b b b b b b b b b b b b b b b b b b b b b b b b b ",
"b N N N b b b b N N N N N N N N N N N N b b b b b b b b b b b b b b b b b b b b b b b b b b b b b b b b b b b b b b b b b b b b ",
"b b b b b b b b N N N N N N N N N N N N b b b b b b b b b b b b b b b b b b b b b b b b b b b b b b b b b b b b N N N N b b b b ",
"b b b b b b b b N N N N N N N N N N N N b b b b b b b b b b b b b b b b b b b b b b b b b b b b b b b b b b b b N N N N b b b b ",
"b b b b b b b b N N N N N N N N N N N N b b b b b b b b b b b b b b b b b b b b b b b b b b b b b b b b b b b b N N N N N N N N ",
"N b b b b b b b N N N N N N N N N N N N b b b b b b b b b b b b b b b b b b b b b b b b b b b b b b b b b b b b N N N N N N N b ",
"b b b b b b b b N N N N N N N N N N N N b b b b b b b b b b b b b b b b b b b b b b b b b b b b b b b b b b b b b b b b N b b b ",
"b b b b b b b b N N N N N N N N N N N N b b b b b b b b b b b b b b b b b b b b b b b b b b b b b b b b b b b b b b b b b b b b ",
"b b b b b b b b N N N N N N N N N N N N b b b b b b b b b b b b b b b b b b b b b b b b b b b b b b b b b b b b b b b b b b b b ",
"b b b b b b b b N N N N N N N N N N N N b b b b b b b b b b b b b b b b b b b b b b b b b b b b b b b b b b b b b b b b b b b b "
};
