/* XPM */
static char *rcp00152204140994[] = {
/* columns rows colors chars-per-pixel */
"64 64 99 2 ",
"   c #2D2E30",
".  c #2E2F31",
"X  c #2F3032",
"o  c #303133",
"O  c #313234",
"+  c #323335",
"@  c #323336",
"#  c #333436",
"$  c #343635",
"%  c #343537",
"&  c #363837",
"*  c #343539",
"=  c #353638",
"-  c #363739",
";  c #363838",
":  c #37383A",
">  c #38393B",
",  c #393A3C",
"<  c #5C5E5D",
"1  c #606163",
"2  c #616264",
"3  c #626365",
"4  c #636465",
"5  c gray40",
"6  c #666867",
"7  c #656668",
"8  c #666769",
"9  c #68696B",
"0  c #6A6B6D",
"q  c #919293",
"w  c #919294",
"e  c #929395",
"r  c #939496",
"t  c #949595",
"y  c #949596",
"u  c #959697",
"i  c #959698",
"p  c #969798",
"a  c #969799",
"s  c #979899",
"d  c #989999",
"f  c #98999B",
"g  c #C5C6C7",
"h  c #C6C7C7",
"j  c #C6C7C8",
"k  c #C7C9C8",
"l  c #C7C8C9",
"z  c #C7C8CA",
"x  c #C8C9C9",
"c  c #C8C9CA",
"v  c #C9CACA",
"b  c #C9CACB",
"n  c #CACCCB",
"m  c #CBCDCC",
"M  c #F1F1F1",
"N  c #F2F4F3",
"B  c #F3F4F4",
"V  c #F4F5F5",
"C  c #F4F6F5",
"Z  c #F4F5F6",
"A  c #F4F5F7",
"S  c #F5F6F6",
"D  c #F6F6F6",
"F  c #F6F7F7",
"G  c gray97",
"H  c #F6F8F7",
"J  c #F6F7F8",
"K  c #F7F8F8",
"L  c #F7F8F9",
"P  c #F8F8F8",
"I  c #F8F9F9",
"U  c #F9F9F9",
"Y  c #F9FBF9",
"T  c #F8F9FA",
"R  c #F8F9FB",
"E  c #F9FAFA",
"W  c #F9FBFA",
"Q  c #F9FAFB",
"!  c gray98",
"~  c #FAFBFB",
"^  c #FBFBFB",
"/  c #FAFCFB",
"(  c #FAFBFC",
")  c #FAFBFD",
"_  c #FBFCFC",
"`  c #FBFDFC",
"'  c #FBFCFD",
"]  c #FBFCFE",
"[  c gray99",
"{  c #FCFDFD",
"}  c #FDFDFD",
"|  c #FCFEFD",
" . c #FCFDFE",
".. c #FDFEFE",
"X. c #FDFFFE",
"o. c #FDFEFF",
"O. c #FEFEFE",
"+. c #FEFFFF",
"@. c white",
/* pixels */
"% % % % % % % % % % % % % % % % % % % % % % % % % % % % % % % % % % % % % % % % % % % % % % % % % % % % % % % % % % % % % % % % ",
"% % % % % % % % % % % % % % % % % % % % % % % % % % % % % % % % % % % % % % % % % % % % % % % % % % % % % % % % % % % % % % % % ",
"% % % % % % % % % % % % % % % % % % % % % % % % % % % % % % % % % % % % % % % % % % % % % % % % % % % % % % % % % % % % % % % % ",
"% % % % % % % % % % % % % % % % % % % % % % % % % % % % % % % % % % % % % % % % % % % % % % % % % % % % % % % % % % % % % % % % ",
"% % % % % % % % % % % % % % % % % % % % % % % % % % % % % % % % % % % % % % % % % % % % % % % % % % % % % % % % % % % % % % % % ",
"% % % % % % % % % % % % % % % % % % % % % % % % % % % % % % % % % % % % % % % % % % % % % % % % % % % % % % % % % % % % % % % % ",
"% % % % % % % % % % % % % % % % % % % % % % % % % % % % % % % % % % % % % % % % % % % % % % % % % % % % % % % % % % % % % % % % ",
"% % % % % % % % % % % % % % % % % % % % % % % % % % % % % % % % % % % % % % % % % % % % % % % % % % % % % % % % % % % % % % % % ",
"% % % % % % % % % % % % % % % % % % % % % % % % % % % % % % % % % % % % % % % % % % % % % % % % % % % % % % % % % % % % % % % % ",
"% % % % % % % % % % % % % % % % % % % % % % % % % % % % % % % % % % % % % % % % % % % % % % % % % % % % % % % % % % % % % % % % ",
"% % % % % % % % % % % % % % % % % % % % % % % % % % % % % % % % % % % % % % % % % % % % % % % % % % % % % % % % % % % % % % % % ",
"% % % % % % % % % % % % % % % % % % % % % % % % % % % % % % % % % % % % % % % % % % % % % % % % % % % % % % % % % % % % % % % % ",
"% % % % % % % % % % % % % % % % % % % % % % % % % % % % % % % % % % % % % % % % % % % % % % % % % % % % % % % % % % % % % % % % ",
"% % % % % % % % % % % % % % % % % % % % % % % % % % % % % % % % % % % % % % % % % % % % % % % % % % % % % % % % % % % % % % % % ",
"% % % % % % % % % % % % % % % % % % % % % % % % % % % % % % % % % % % % % % % % % % % % % % % % % % % % % % % % % % % % % % % % ",
"% % % % % % % % % % % % % % % % % % % % % % % % % % % % % % % % % % % % % % % % % % % % % % % % % % % % % % % % % % % % % % % % ",
"# # # # # # # # % % % % % % % % % % % % % % % % % % % % % % % % % % % % % % % % % % % % % % % % % % % % % % % % % % % % % % % % ",
"# # # # # # # # % % % % % % % % % % % % % % % % % % % % % % % % % % % % % % % % % % % % % % % % % % % % % % % % % % % % % % % % ",
"# # # # # # # # % % % % % % % % % % % % % % % % % % % % % % % % % % % % % % % % % % % % % % % % % % % % % % % % % % % % % % % % ",
"# # # # # # # # % % % % % % % % % % % % % % % % % % % % % % % % % % % % % % % % % % % % % % % % % % % % % % % % % % % % % % % % ",
"O O O O # # # # % % % % % % % % % % % % % % % % = O # O # = e f r a s # O > X O = O O > % % % % % % % % % % % % % % % % % % % % ",
"O O O O # # # # % % % % % % % % % % % % % % % % X > O 7 n J +.S ( _ +.S n 1 = # = = # % % % % % % % % % % % % % % % % % % % % % ",
"O O O O # # # # % % % % % % % % % % % % % % % % : o l Q N +.S _ _ Q +._ S K x = # % # O % % % % % % % % % % % % % % % % % % % % ",
"O O O O # # # # % % % % % % % % % % % % % % % % 9 J _ Q _ Q Q Q _ Q +.+.B Q Q +.0 = # = % % % % % % % % % % % % % % % % % % % % ",
"# # # # # # # # % % % % % % % % % % % % > % = O +.+.+.+.+.+.+.+.+.+.+.+.+.+.+.+._ = = O % % % % % % % % % % % % % % % % % % % % ",
"# # # # # # # # % % % % % % % % % % % % o % : x +.+.+.+.+.+.+.+.+.+.+.+.+.+.+.+.Q j & O % % % % % % % % % % % % % % % % % % % % ",
"# # # # # # # # % % % % % % % % % % % % = O 6 ( +.+.+.+.+.+.+.+.+.+.+.+.+.+.+.+._ K < : % % % % % % % % % % % % % % % % % % % % ",
"# # # # # # # # % % % % % % % % % % % % O % x _ +.+.+.+.+.+.+.+.+.+.+.+.+.+.+.+.S S m O % % % % % % % % % % % % % % % % % % % % ",
"# # # # # # # # % % % % % % % % % % % % = O S +.+.+.+.+.+.+.+.+.+.+.+.+.+.+.+.+.+._ H # % % % % % % % % % % % % % % % % % % % % ",
"# # # # # # # # % % % % % % % % % % % % # y +._ +.+.+.+.+.+.+.+.+.+.+.+.+.+.+.+._ +.Q a % % % % % % % % % % % % % % % % % % % % ",
"# # # # # # # # % % % % % % % % % % % % = y K +.+.+.+.+.+.+.+.+.+.+.+.+.+.+.+.+.Q _ _ a % % % % % % % % % % % % % % % % % % % % ",
"# # # # # # # # % % % % % % % % % % % % % y +.Q +.+.+.+.+.+.+.+.+.+.+.+.+.+.+.+.( +.Q e % % % % % % % % % % % % % % % % % % % % ",
"# # # # # # # # % % % % % % % % % % % % O y Q +.+.+.+.+.+.+.+.+.+.+.+.+.+.+.+.+.+.( Q a % % % % % % % % % % % % % % % % % % % % ",
"# # # # # # # # % % % % % % % % % % % % O s Q K +.+.+.+.+.+.+.+.+.+.+.+.+.+.+.+.Q Q S a % % % % % % % % % % % % % % % % % % % % ",
"# # # # # # # # % % % % % % % % % % % % # = Q +.+.+.+.+.+.+.+.+.+.+.+.+.+.+.+.+.K +.K % % % % % % % % % % % % % % % % % % % % % ",
"# # # # # # # # % % % % % % % % % % % % # = x _ +.+.+.+.+.+.+.+.+.+.+.+.+.+.+.+._ ( l = % % % % % % % % % % % % % % % % % % % % ",
"# # # # # # # # % % % % % % % % % % % % # = 4 J +.Q Q +.+.+.+.+.+.+.+.+.+.+.+.+.Q +.3 = % % % % % % % % % % % % % % % % % % % % ",
"# # # # # # # # % % % % % % % % % % % % o # > j Q S Q Q +.+.+.+.+.+.+.+.+.+.+.+./ l , X % % % % % % % % % % % % % % % % % % % % ",
"# # # # # # # # % % % % % % % % % % % % % : . : M Q S +.+.+.+.+.+.+.+.+.+.+.+.+.+.: O % % % % % % % % % % % % % % % % % % % % % ",
"# # # # # # # # % % % % % % % % % % % % % o = % 5 S S Q +.+.+.+.+.+.+.+.+.+.+.+.7 O O = % % % % % % % % % % % % % % % % % % % % ",
"# # # # # # # # # # # # # # # # # # # # # # # # O > l S H _ / +.Q +.+._ H _ h O # # # # # # # # # # # # # # # # # # # # # # # # ",
"# # # # # # # # # # # # # # # # # # # # # # # # = O = 3 h _ S J Q J +.S x 1 , # # # # # # # # # # # # # # # # # # # # # # # # # ",
"# # # # # # # # # # # # # # # # # # # # # # # # X : O = % O f q y a r # X = . % # # # # # # # # # # # # # # # # # # # # # # # # ",
"# # # # # # # # # # # # # # # # # # # # # # # # % # O O % = o # = = % # : O O O # # # # # # # # # # # # # # # # # # # # # # # # ",
"# # # # # # # # # # # # # # # # # # # # # # # # # # # # # # # # # # # # # # # # # # # # # # # # # # # # # # # # # # # # # # # # ",
"# # # # # # # # # # # # # # # # # # # # # # # # # # # # # # # # # # # # # # # # # # # # # # # # # # # # # # # # # # # # # # # # ",
"# # # # # # # # # # # # # # # # # # # # # # # # # # # # # # # # # # # # # # # # # # # # # # # # # # # # # # # # # # # # # # # # ",
"# # # # # # # # # # # # # # # # # # # # # # # # # # # # # # # # # # # # # # # # # # # # # # # # # # # # # # # # # # # # # # # # ",
"# # # # # # # # # # # # # # # # # # # # # # # # # # # # # # # # # # # # # # # # # # # # # # # # # # # # # # # # # # # # # # # # ",
"# # # # # # # # # # # # # # # # # # # # # # # # # # # # # # # # # # # # # # # # # # # # # # # # # # # # # # # # # # # # # # # # ",
"# # # # # # # # # # # # # # # # # # # # # # # # # # # # # # # # # # # # # # # # # # # # # # # # # # # # # # # # # # # # # # # # ",
"# # # # # # # # # # # # # # # # # # # # # # # # # # # # # # # # # # # # # # # # # # # # # # # # # # # # # # # # # # # # # # # # ",
"# # # # # # # # # # # # # # # # # # # # # # # # # # # # # # # # # # # # # # # # # # # # # # # # # # # # # # # # # # # # # # # # ",
"# # # # # # # # # # # # # # # # # # # # # # # # # # # # # # # # # # # # # # # # # # # # # # # # # # # # # # # # # # # # # # # # ",
"# # # # # # # # # # # # # # # # # # # # # # # # # # # # # # # # # # # # # # # # # # # # # # # # # # # # # # # # # # # # # # # # ",
"# # # # # # # # # # # # # # # # # # # # # # # # # # # # # # # # # # # # # # # # # # # # # # # # # # # # # # # # # # # # # # # # ",
"% % % % # # # # # # # # # # # # # # # # # # # # # # # # # # # # # # # # # # # # # # # # # # # # # # # # # # # # # # # # # # # # ",
"% % % % # # # # # # # # # # # # # # # # # # # # # # # # # # # # # # # # # # # # # # # # # # # # # # # # # # # # # # # # # # # # ",
"% % % % # # # # # # # # # # # # # # # # # # # # # # # # # # # # # # # # # # # # # # # # # # # # # # # # # # # # # # # # # # # # ",
"% % % % # # # # # # # # # # # # # # # # # # # # # # # # # # # # # # # # # # # # # # # # # # # # # # # # # # # # # # # # # # # # ",
"% % % % % % % % # # # # # # # # # # # # # # # # # # # # # # # # # # # # # # # # # # # # # # # # # # # # # # # # # # # # # # # # ",
"% % % % % % % % # # # # # # # # # # # # # # # # # # # # # # # # # # # # # # # # # # # # # # # # # # # # # # # # # # # # # # # # ",
"% % % % % % % % # # # # # # # # # # # # # # # # # # # # # # # # # # # # # # # # # # # # # # # # # # # # # # # # # # # # # # # # ",
"% % % % % % % % # # # # # # # # # # # # # # # # # # # # # # # # # # # # # # # # # # # # # # # # # # # # # # # # # # # # # # # # "
};
