/* XPM */
static char *rcp0622441784627[] = {
/* columns rows colors chars-per-pixel */
"64 64 228 2 ",
"   c #000002",
".  c #000103",
"X  c #000005",
"o  c #010204",
"O  c #020305",
"+  c #030406",
"@  c #040507",
"#  c #020308",
"$  c #040509",
"%  c #050608",
"&  c #060709",
"*  c #04050A",
"=  c #05060B",
"-  c #06070C",
";  c #07080A",
":  c #07080D",
">  c #08090B",
",  c #090A0C",
"<  c #0A0B0D",
"1  c #08090E",
"2  c #090A0E",
"3  c #090A0F",
"4  c #0A0B0F",
"5  c #0B0C0E",
"6  c #0C0D0F",
"7  c #0A0B10",
"8  c #0B0C10",
"9  c #0B0C11",
"0  c #0D0E10",
"q  c #0E0F11",
"w  c #0C0D12",
"e  c #0D0E13",
"r  c #0E0F14",
"t  c #0F1012",
"y  c #0F1015",
"u  c #101113",
"i  c #111214",
"p  c #121315",
"a  c #101116",
"s  c #111216",
"d  c #111217",
"f  c #131416",
"g  c #141517",
"h  c #121318",
"j  c #131419",
"k  c #141519",
"l  c #151618",
"z  c #161719",
"x  c #14151A",
"c  c #15161B",
"v  c #16171B",
"b  c #16171C",
"n  c #17181A",
"m  c #17181D",
"M  c #18191B",
"N  c #191A1C",
"B  c #1A1B1D",
"V  c #18191E",
"C  c #191A1E",
"Z  c #191A1F",
"A  c #1B1C1E",
"S  c #1C1D1F",
"D  c #1A1B20",
"F  c #1B1C20",
"G  c #1B1C21",
"H  c #1C1D21",
"J  c #1D1E20",
"K  c #1E1F21",
"L  c #1C1D22",
"P  c #1D1E22",
"I  c #1D1E23",
"U  c #1E1F23",
"Y  c #1E1F24",
"T  c #1F2022",
"R  c #1F2024",
"E  c #1F2025",
"W  c #202123",
"Q  c #202125",
"!  c #212224",
"~  c #222325",
"^  c #202126",
"/  c #212226",
"(  c #212227",
")  c #222327",
"_  c #232426",
"`  c #242527",
"'  c #222328",
"]  c #232428",
"[  c #232429",
"{  c #242529",
"}  c #252628",
"|  c #262729",
" . c #24252A",
".. c #25262B",
"X. c #26272B",
"o. c #26272C",
"O. c #27282A",
"+. c #27282C",
"@. c #27282D",
"#. c #28292B",
"$. c #28292D",
"%. c #292A2C",
"&. c #2A2B2D",
"*. c #28292E",
"=. c #292A2E",
"-. c #292A2F",
";. c #2A2B2F",
":. c #2B2C2E",
">. c #2C2D2F",
",. c #2A2B30",
"<. c #2B2C30",
"1. c #2B2C31",
"2. c #2C2D31",
"3. c #2D2E30",
"4. c #2E2F31",
"5. c #2C2D32",
"6. c #2D2E32",
"7. c #2D2E33",
"8. c #2E2F33",
"9. c #2E2F34",
"0. c #2F3032",
"q. c #2F3034",
"w. c #2F3035",
"e. c #303133",
"r. c #303135",
"t. c #313234",
"y. c #323335",
"u. c #303136",
"i. c #313236",
"p. c #313237",
"a. c #323337",
"s. c #333436",
"d. c #343537",
"f. c #323338",
"g. c #333438",
"h. c #333439",
"j. c #343539",
"k. c #353638",
"l. c #363739",
"z. c #34353A",
"x. c #35363A",
"c. c #35363B",
"v. c #36373B",
"b. c #36373C",
"n. c #37383A",
"m. c #37383C",
"M. c #37383D",
"N. c #38393B",
"B. c #38393D",
"V. c #393A3C",
"C. c #3A3B3D",
"Z. c #38393E",
"A. c #393A3E",
"S. c #393A3F",
"D. c #3A3B3F",
"F. c #3B3C3E",
"G. c #3C3D3F",
"H. c #3A3B40",
"J. c #3B3C40",
"K. c #3B3C41",
"L. c #3C3D41",
"P. c #3D3E40",
"I. c #3E3F41",
"U. c #3C3D42",
"Y. c #3D3E43",
"T. c #3E3F44",
"R. c #3F4042",
"E. c #3F4044",
"W. c #3F4045",
"Q. c #404143",
"!. c #414244",
"~. c #424345",
"^. c #404146",
"/. c #414247",
"(. c #434446",
"). c #444547",
"_. c #424348",
"`. c #434448",
"'. c #434449",
"]. c #454648",
"[. c #464749",
"{. c #44454A",
"}. c #45464A",
"|. c #45464B",
" X c #46474C",
".X c #47484A",
"XX c #47484C",
"oX c #47484D",
"OX c #48494B",
"+X c #494A4C",
"@X c #4A4B4D",
"#X c #48494E",
"$X c #494A4F",
"%X c #4B4C4E",
"&X c #4C4D4F",
"*X c #4A4B50",
"=X c #4B4C51",
"-X c #4D4E50",
";X c #4E4F51",
":X c #4C4D52",
">X c #4D4E53",
",X c #4E4F54",
"<X c #4F5052",
"1X c #4F5055",
"2X c #505153",
"3X c #515254",
"4X c #505156",
"5X c #515256",
"6X c #515257",
"7X c #525358",
"8X c #535459",
"9X c #54555A",
"0X c #55565B",
"qX c #56575C",
"wX c #57585D",
"eX c #58595E",
"rX c #595A5F",
"tX c #5A5B60",
"yX c #5B5C61",
"uX c #5C5D62",
"iX c #5D5E63",
"pX c #5E5F64",
"aX c #5F6065",
"sX c #606166",
"dX c #616267",
"fX c #626368",
"gX c #64656A",
"hX c #66676C",
/* pixels */
"d.d.d.d.d.d.d.d.d.k.k.s.0.0.y.k.y.k.k.k.f.f.f.k.V.V.M.f.[ b h j b b c j N ..y.c.f.y.f.k.M.k.f.y.w.y.k.n.n.k.d.y.k.k.k.d.d.s.s.s.",
"d.d.d.d.d.d.d.d.s.k.k.s.e.e.s.k.P.k.y.h.V.V.y.@.' ' [ &.y.k.f.3.3.9.9.9.&.[ ! ' &.,.w.f.f.f.h.k.k.s.y.s.k.n.k.s.k.k.d.d.d.s.s.s.",
"d.d.d.d.d.d.d.d.s.d.k.d.y.y.d.n.M.h.y.f.c.c.w.,.E J m J f.*X,X X[. X*X=XP.} D J G } 9.h.h.f.f.h.V.k.y.y.d.k.k.d.k.d.d.d.s.s.y.y.",
"d.d.d.d.d.d.d.d.s.d.d.d.d.d.k.k.f.k.M.f.&.} &.3.V.c.@.J @.!.,X=X*XoX-X,XW.&.[ 3.w.9.,.} } 3.k.M.k.k.k.k.s.s.d.k.d.d.d.s.s.y.y.y.",
"d.d.d.d.d.d.d.d.d.s.s.d.k.k.d.s.c.k.y.&.' ! ..,.=X,X Xy.@.y.P._.!.P.P.P.f.,.h.'.3X[.3.N b } y.h.3.d.V.V.s.0.y.k.d.d.s.s.y.y.y.y.",
"d.d.d.d.d.d.d.d.d.s.y.s.d.d.y.0.9...Y ! 1.k.c.k.[.=X,X_.y.@.3.k.P.H.k.3.,.w.Y.=X[. XY.y.,.1.} N &.e.N.V.s.0.e.d.s.s.s.y.y.y.y.y.",
"d.d.d.d.d.d.d.d.k.s.y.y.s.y.3.&.....&.3.y.c.P.!.V.k.k.c.3.Y J @.,.y.3.' ! 3.c.k.&.H.[.P.c.f.1.! 3.3.3.y.s.s.y.y.s.s.y.y.y.y.y.y.",
"d.d.d.d.d.d.d.d.k.s.y.y.s.y.>.O.,.W.,X[.1.Y ,.Y.V.! b J Y h d J r J J d d E ! c @.k.c.} Y 9. X3Xy.&.} &.y.N.k.e.s.s.y.y.y.y.y.e.",
"d.d.d.d.d.d.d.s.0.F.s.y.P.3.J &.y.!.=X[.H.h.1.} ' m 7 * * 1 7 7 7 7 7 7 7 7 1 1 Y ' } } w.!.$XoXV.V.0.! } d.V.s.e.0.e.y.s.d.s.y.",
"d.d.d.d.d.d.d.d.>.N.y.>.3.W N 3.!.'.!.W.Y.c.! 1 r 9 : : 1 1 1 : - * - - - - * * d c N ' h.'. XW.P.k.>.` O.0.y.0.y.y.y.y.y.s.s.s.",
"s.s.s.s.s.d.d.d.0.n.y.O.! n N 3.W.Y.K.c.f.@.d X - w c G J D m b N N N N D N N N 1 1 1 h ..M.K.k.'.y.W A J } 0.n.s.y.y.y.y.s.d.k.",
"y.y.s.s.s.s.d.d.N.d.3.&.&.` } 3.,.k.M.1.b 7 9 d h J 3.k.h.w.9.9.y.y.y.y.y.y.y.y.G j 1 : d ' w.k.k.O.W } &.O.&.y.y.s.s.s.y.y.d.k.",
"y.y.y.y.s.s.d.d.V.&.` e.G.!.G.s...3.1.G 1 * b 3...y.Y._.W.P.P.!.P.P.P.P.P.P.P.P.h.1.E j w h ! 3.! } d.[.[.y.! J 3.y.d.d.y.y.d.k.",
"e.e.y.y.y.s.d.d.e.J ! N..X3X-XV.k.} b d h G 3.H.P.[.=X-X$XoX$X-X*X*X*X*X*X*X*X*XK.V.k.,.N 9 w c 1.d.Q..XR.e.#.#.O.3.s.k.d.y.s.k.",
"0.0.e.y.y.s.d.d.#.N #.P.Q.[.OXN.y.G 7 d ' h.Y.[.,X3X9X8X3X1X3X9X9X9X9X9X9X9X9X9X_._.'.P.,.j 1 9 &.n.Q.N.>.&.y.n.T #.y.n.k.s.s.k.",
"0.0.e.y.y.s.d.d.} J y.!.y.y.V.e.Y y 7 b ,.H.$X7X3X7X8X7X3X1X3X3X1X1X1X1X1X1X1X1X8X1X,X=XP.} b c 1 #.Q.P.y.3.3.>.A } y.n.k.s.y.d.",
"e.0.>.>.y.n.y.O.#.:.&.O.y.G.y.J 7 - y @.P.oX-X7X-X1X3X3X7X7X7X7X3X3X3X3X3X3X7X7X1X7X3X,X*XK.' 1 1 w &.!.G.e.3.&.3.} O.d.k.:.&.d.",
"y.y.0.3.y.d.>.W y.k.y.&.3.k.0.! r - r 3.*XqX9X1X9X8X7X8XqXqX8X3X,X1X3X3X3X3X3X3X3X7X7X3X=XW.@.d * 1 } F.s.#.:.>.G.&._ 0.k.e.3.y.",
"s.s.y.e.y.y.} N k.G.V.3.} ` T c r y J h.$X8XqXeXeX7X=X$X*X-X-X=X-X,X1X7X7X7X3X1X3X8X9X7X1X[.y.J 9 > N &._ ! 0.N.OX3.J &.n.k.e.y.",
"y.y.y.y.s.y.` c s.P.!.N.&.S d > 9 Y k.K.M.H.-XaX9X3XoX!.P.W.[.*X*X=X,X3X3X3X1X,X1X7X9X7X3X$XV.&.G 1 5 n N O.P.OX).&.S &.N.k.y.y.",
"0.y.y.y.d.y.} c &.V.OX.XV.} f * 1 } !.[.M.y.P.$XoX-X,X*X_.Y._.oX[. XoX*X*X$X$XoX-X3X7X3X1X*XP.y.[ > + c } n.[.OXd.! S >.N.d.e.d.",
"e.y.y.y.k.s.} M N &.G.[.!.3.n * 7 ' P.*X*X_.c.3.h.!.,X7X-X_.P.P.!.!.!.!.!.!.!.!.oX=X-X=X*XoXP.h.E @ @ T k.).(.n.O.A S 3.N.y.e.n.",
"s.d.s.y.d.s.O.N N W 3.V.G.3.g + : ! P.-X8X1X!.f.h.V._.*X-X*X_.P.[.'.!.Y.Y.Y.W.!.!. XoX[.[._.K.y.J + * ! k.R.V.&.} N N 3.n.s.y.n.",
"n.n.d.y.d.y.} M &.O.&.k.V.>.g X # ' '.,X-X,X1X,X XW.K.!.=X7X3X-X-X$X X!.!._.'.[.Y._.[.!.!.W.H.y.! * + N &.s.y.} &.N M &.N.d.y.k.",
"y.s.y.y.d.s.O.M n.F.0.} >.} d > 1 E K.-X7X7X7X9X3X XM.k. XiXhXdXdX9X XY.!._.!.P.M.W.[.'.!.!.Y.K.!   6 S ! &._ >.-X:.T :.y.d.N.k.",
"y.s.y.y.d.s.O.M d.Q.V.>.O.A w 6 7 ! P.,X7X1X1X3X8X3X XH.H._.[.W. X-X9XtXtX9X-X X=XoX!.P.!.'.V.&.[   > g S :.y.!.$X#.J >.y.d.n.d.",
"s.s.s.y.k.s.O.N >.!.[.F.0.S 5 5 7 ! P.1X8X1X-X,X3X9X7X[.c.y.3.1.9.P.-X9X9X1X-X,XoX[.!.!. X=X'.V.[ X 1 g T d.G.%X!._ J 3.s.d.k.s.",
"s.d.s.s.k.d.O.N _ F.[.[.Q.&.t * 7 ! Y.3X9X7X1X1X=X3X9X-X_.H.M.V.M.V.M.k.h.V. X3XeXiXyX3XoX!.M.w.! X 6 J 0.!.P.R.V.T S 3.d.d.k.y.",
"d.d.s.s.k.d.#.N ` y.d.N.!.k.c @ 7 E P.3X9X3X3X3X,X1X3X3X1X=X*X=X-X'.k.1.3.k.Y.[.*X,X1X1X3X,X'.M.!   1 J N.-XQ.n.k.S S 0.d.s.d.y.",
"d.k.d.d.k.k.#.N &.:.! ! y.0.n ; 7 E H.-X3X,X,X3X9X3X1X7X8X3X1X3X7X*X!.W.!.!.V.y.1.&.&.H.9XgXeX[.!   @ c s.<X[.V.d.S J 0.s.y.d.y.",
"d.k.d.d.k.k.&.A #.3.} ! &._ u 1 w E V. X$X XoX$X8X1X1X8X8X,X-X7X,X=X*X,X7X=XP.y.K.V.k.c.!.[.K.3.! X > c >..XQ.V.k.J J e.y.y.d.d.",
"k.k.d.d.n.k.&.A ! y.k.3.:.S 1 @ r ! c._._.W.!.'.=X*X1X9X8X-X1XwX8X1X,X1X7X3X-X XH.[.oXK.1...,.3.J * d S &.P.k.0.n.T T e.y.e.d.d.",
"k.k.d.s.k.s.} M A _ &.s.F.#.t 1 1 E c.!.!.!._.!.$X*X-X1X3X7X7X7X7X7X7X7X3X3X1X,X-X,X7X$XH.P.P.1.!   5 S 0.Q.k.y.N g A >.k.y.0.y.",
"k.k.d.s.k.s.O.M _ :.#.} #.J 6 1 1 E c.!.!.!._.!. X X$X=X=X-X-X-X1X3X7X7X3X3X,X-X*X-X7X1X X$X[.w.[ + 5 c W 3.} } k.} J O.y.s.y.d.",
"d.k.d.s.k.s.O.N 3.V.e.J S M w 6 1 E c.!.!.!._.!._._.[.[.[.[. X[.-X-X1X3X3X3X1X,X7X1X8X7X,X8X-Xk.! @ 5 d N } ! ` !.>.J } s.k.s.y.",
"d.d.s.s.k.d.O.N e.[.R.&.` W f 5 1 E c.!.!.!._.!.!.!.!._.!._.!.!.$X$X$X*X-X1X3X7XwX3X3X,X-X9X-Xh.E   1 n } k.y.s.3.W S :.V.N.y.3.",
"s.d.s.s.k.d.#.N O.).$XP.V.3.c * 7 E c.!.!.!.!.!.!.!.!.!.!.W.!.!._.!.W.W.'.$X3X9X7X,X3X8X8XeX-Xy.J   ; J k.&X(.P.J M S 3.N.k.e.y.",
"y.s.s.s.k.k.&.N T F.$X$X.Xd.g X 7 E c.!.!.!.!.!.'._.!.!.!.!._._._.!.Y.Y.!.$X3X9X7X3XeXaXaXfX9Xk.!   * J V.3X).G.O.T T :.y.y.y.V.",
"y.s.y.s.k.k.&.A ! k.!.OX$Xs.d * 7 E c.!.!._.!.!.'._._.!.!._.'.[.-X-X=X-X,X7X9XwXtX9X9X1X*X3X=Xk.[   > A y..XP.N.s.} T &.d.d.s.n.",
"y.s.y.s.k.k.&.A :.d.V.).$Xy.f 6 7 E c.!.!._.!.!.'._._.!.!._.[. XeXtXiXpXpXpXiXiXdX3XW.1.! 3.k.@.[ X 1 M &.P.N.V.s._ J >.F.V.y.0.",
"e.y.y.y.d.d.#.N } k.P.).[.e.d * 1 E c.W.!._.'.'.H. X7XtXwX3X,X-X*X$X$XoXoX X[.[.$XP.K.M.w.f.k.&.! ; @ N :.V.!.F.!.} W 3.e.e.k.n.",
"y.y.y.y.k.d.#.N W >.0.y.k.O.u 1 1 ! V.[.[.[._.!.3X3X7X9XeXtXeXwX3.3.3.1.1.1.,.,.w.9.K.[.'. X_.y.J * * N } y.V.n.n.J J 0.s.y.k.d.",
"y.s.y.y.k.d.#.N N ! W W } A 5 1 1 [ !.3X9XqXqX9X9XoXH.c.V.P.H.k.V.V.V.V.V.V.V.V.h.c. X3X1X1X Xw.J > > n A T ` ! 3.n A e.k.s.d.y.",
"s.d.s.s.k.d.#.N J O.O.O.:.T 6 1 7 ' Y.=X1X7X8X7X,X_.k.y.f.k.f.9.'.[.[.[. X XoXoX=X$X1X3X-X1XoXy.J > ; M W } #.! 3.n A e.k.s.d.y.",
"d.k.d.s.k.d.#.N :.V.P.!.(.0.f 1 9 E f.c.k.f.y.y.M.V.V.P.W._._.'.$X$X$X*X*X=X-X-X3X,X3X,X-X9X3XV.G X + J k.[.OXR.k.J J 0.s.y.k.s.",
"k.k.d.d.k.d.#.N :.G.[.&X-Xd.d @ 9 Y w.h.y.y.y.y.y.V.'.$X X X X$X8X8X8X9X9X9X9X9X1X1X8X3X,XeX1Xh.J X X J V.-X2X[.V.! J 3.y.y.k.k.",
"k.k.k.d.k.d.#.N ! d.Q..X$Xy.u X 9 ! M._.'. X*X*X$X3XwXwX8X1X1X7X1X1X1X,X,X,X,X-X7X3X7X-X*X9X-Xw.! * X N 3.P.!.N.V.W J 0.y.y.k.k.",
"k.n.k.d.k.d.#.N ! s.P.[.$Xd.c 5 7 ' K. X$X=X-X=X$X-X1X1X,X,X3X8X7X7X7X3X3X1X1X,X1X-X$X_.'.qXqXK.E * @ M #.k.P.V.k.J J e.s.y.k.d.",
"k.k.d.s.k.s.O.M } V.Q.!.[.s.c ; w ' P.1X7X3X3X8X7X7X8X8X7X3X3X3X7X3X3X7X9X8X,X*X9X[.Y.!.oX7X-Xk.E X > u N 3.0.N.k.J J e.s.y.y.e.",
"k.k.d.s.k.s.O.M J y.N.V.P.0.g ; 7 ! P.1X8X3X3X7X3X7X7X8X8X7X7X3X7X3X1X3X7X3X-X$X[._.$X,X*X$XW.&.! * u A ` 0.` ! V.W J 0.y.e.s.y.",
"k.k.d.s.k.s.O.M >.V.F.N.N.&.t @ 1 E P.3X9X7X3X7X3X7X7X8X8X7X3X3X-X=X*X*X=X*XoX[.P._.7X8X'.P.k.} E + d ! 3.V.3.&.V.W J 3.y.e.s.y.",
"k.k.d.s.k.s.O.M 0.V.k.3.0._ t ; 1 E P.3X9X7X3X7X7X7X7X7X3X1X-X-X[.'._.!.!._.!.!.oXoX,X$XM.c.V.y.E X 5 n _ k.s.n.s.A S 0.s.y.s.y.",
"k.k.d.s.k.s.O.M N ` ! J _ T d w 7 ! Y.3X8X3X1X3X7X3X3X1X-X*XoX X!.W.W.Y.P.Y.!.!.3X$X[.W.c.Y.[.V.! * 5 t d W W &.&.c N e.k.s.s.0.",
"k.k.d.s.k.s.O.M N } } ! O.T w > 9 ! K.-X,X-X=X-X,X-X-X*X$X X_.!._.!.!.!.W._. X*X-X!.W.!._.=X$XM.J + t n S O.! } &.c N e.k.s.s.e.",
"k.k.d.s.k.s.O.M #.V.P.F.G.&.w X 9 E M. XoX[.[.$X X X X[.[._.!.W.!._._._._. X-X7X[.V.K.'.$X3X$Xy.J   6 J y.).G.V.s.A S 0.s.y.k.s.",
"k.k.d.s.k.s.O.M O.P.OX&X-XN.c + 9 J h.!._.W.!.[.!.!.!._._.!.!.W.W.!.!.!.!.[.-X8X!.c.V.!.oX1X$Xy.}   * N k.3XOX(.P.! J 3.e.e.k.n.",
"k.k.d.s.k.s.O.M #.k.F.!..Xd.c > 9 ! c.Y.W.!.[.[._._._._.!.!.!.!.[._.K.K.-XtX*X3.c. X,X$X X XP.3.! + 6 S d.<X).V.N.W T e.y.y.k.k.",
"k.k.d.s.k.s.O.M O.0.y.V.).d.g @ w ! M.!.!._.'.'._._._._._._._._. XP.!.3X7X'.H.P.Y.$X=X[.'. XY.y.J   5 S d.<X[.P.k.J J e.k.d.k.s.",
"k.k.d.s.k.s.O.M T ` } e.Q.d.g X 7 ! M.!.!._._.!.!.!.!._._._._._.W.!.,XqX$Xk.k.'. X$X[.Y.W.[.W.h.J   1 N e.OXQ.V.k.S A 0.k.k.k.e.",
"k.k.d.s.k.s.O.M c T ` e.R.y.c * : Y k.!.!.!.!.!.!.!.!.!._._._._.P.1X9X XV.P.[.'.$X$X_.P.W.'.Y.h.E   1 N :.P.n.d.F.T S 3.k.k.k.e.",
"k.k.d.s.k.s.O.M N &.y.V.Q.0.g 1 1 Y k.W.!._.'._.'.'.'.'.'.'.'.'.-X7X*XV.V.oX1X=X$X X_.!.'.[.P.k.! X 5 A &.V.s.k.Q._ J 3.s.d.k.s.",
"k.k.d.s.k.s.O.M _ y.N.V.V.O.u 5 w ' c.Y.Y.W._._.!.!.!.!.!.!.!.!.yX_.f.H.!._.oX7X_.!.W.!._.!.H.k.!   5 A O.d.e.k.V.W T 0.y.y.k.k.",
"k.k.d.s.k.s.O.M ! #.} } &.J 6 1 r ! f.c.h.h.k.c.k.c.c.c.k.k.k.c.oXf.&.f.H.c.M.W.k.k.k.k.k.f.w.w.!   1 n J } ! &.&.M J y.s.y.k.N.",
"k.k.d.s.k.s.O.M c c w w N n 1 > w J 1.3.&.@.&.,.,.,.,.,.&.&.&.&.[ 3.3.} ..y.9.' &.@.@.@...[ } &.[   ; d d c t n S t J d.k.y.k.N."
};
