/* XPM */
static char *rcp06230931955813[] = {
/* columns rows colors chars-per-pixel */
"64 64 38 1 ",
"  c #020204",
". c #050609",
"X c #07080B",
"o c #0A0B0D",
"O c #0C0D11",
"+ c #0F1012",
"@ c #121315",
"# c #151619",
"$ c #17181A",
"% c #1A1B1D",
"& c #1D1E21",
"* c #1F2023",
"= c #222325",
"- c #252629",
"; c #27282A",
": c #2A2B2D",
"> c #2D2E31",
", c #2F3032",
"< c #333436",
"1 c #353639",
"2 c #37383B",
"3 c #393A3D",
"4 c #3D3D42",
"5 c #3F4045",
"6 c #414246",
"7 c #44454A",
"8 c #47484C",
"9 c #494A4E",
"0 c #4C4D52",
"q c #4F5055",
"w c #515256",
"e c #535359",
"r c #57585D",
"t c #58595E",
"y c #5B5C61",
"u c #5F6065",
"i c #616267",
"p c #63646A",
/* pixels */
"11111111111<,,<1<111<<<1222<=$@@$$##%-<1<<<121<<,<12211<11111<<<",
"11111111<11<<<<131<<22<;===;<1<>:>>>:===;:,<<<<11<<<121<11111<<<",
"11111111<111<<122<<<11,:*%$%<90777993-%%%-><<<<<31<<11111111<<<<",
"1111<111<1111111<12<;-;>31;%;60998905;=>,>:--:121111<<11111<<<<<",
"1111<1111<<1111<11<;==-:907<;<466443<:<6w7:%$-<<>133<,<111<<<<<<",
"111111111<<<11<,>-&=:1117906<;:1331>:,49774<::-%;<22<,<1<<<<<<<<",
"11<<11111<<<<<>:--::<1363111:&&;:<:==:11;3741<:=:>><<<<<<<<<<<<<",
"11<111111<<<<<:;:507:&:42=$&&@@%O%&@@*=#;11-&>7w<:-:<21<<<<<<<<<",
"11<<111<,3<<4>&:260w5;=:&#o.ooX ..Xooooo%%=,377733,=-13<<,<<<1<<",
"11111111:2<:>=%>33476<*#@o. .oX.......XX@@%-<46731:-;,<,<<<<<<<<",
"<<<<<111,2<;=$%>44431;@ ..    ...     ..ooO$=<356<=%&-,2<<<<<<11",
"<<<<<<1121>::-->:34:@o    ..    .      ....o#=>11;=-:;:<<<<<<<11",
"<<<<<<113:-<363<&::@   X  ..    ..     ..  .o#*;=-177<=&><11<<11",
"<<<<<<11<&=28w931:%X  ..       ...     ...  .o@%:1685<;;;><11<<1",
",,<<<<<1;%;467823-@XX.         ..             XO:262::<2*;<21<<1",
",,<<<<<1-&<6<<3<#X .   .                       .o;64<:>:%-<21<<1",
"<,::<2<;;::;<3<&+.     .     ..    ..XXX .   .XXo@-34>-:>-;11::1",
"<<,><1:=<1<:>1,=o. .X..X     XX .....XXX         o=11;-:3:=,1<><",
"<<<<<<-%133>--*$   .X.   Xooo+OoOOOOOOOO         X$-;=:28>&:11<<",
"<<<<<<-$<462:%@X        X@$%%%%$%%%%%%%$oX...   X.o#*:387:%;21<<",
",<<<1<-$:3883-@...   oOO@%=----=;----===%@oo.  .o  @:3771=%:21<1",
"<<<<1<-%%:376>$.X.   @%%%->,>,<><<<<,>>>-%#@o  .   %2861;%%>2<<2",
"<1<<1<;%%=>33># ..  o%--:144344444444444<;=-&o .  .%162;-%%>2<<2",
"221<1<-%:;:13:# .ooo$:1126977789999999994<<1:$Xo   @;1<-:%%:21<1",
"<<<<1<;%23,-:-@X .O#=<4600qweeeqwwweeeww7742>=#O  O$=>=:0:*:<121",
"<<<<1<;%163:;%OO O&=-17eqerreq00eeeeeeee00864>&$O o@%:>49;&:<121",
"<<<<1<;%:673,%oO.#=>47qe0erre00eeeeeeeeeeee071-&#.o@*1296=&><11<",
"<1<<11;%=3776:+.O@&<9ye0ee0000eeqqqqeweeeeee04>=# o%<7573*%>111<",
"11<<11;%-<1261$.O#-17qreye070000eeeeeeeeqerr06<-% X%3w641%%,1<1<",
"111111;%::==<,$.o-4414qiye077777eeeeeeee0erre74>=..@1q631%%,<<1<",
"111111:%;>-=:=@o.-774160700064460000000000eee041=XX@<7331&&<<<11",
"111121:%=<1>:&o..&4006<-<6q0744766666666790q0741%X+%,6<<2**<<<11",
"111<1<-%%=:<3;+oo=4qw864436we744654444678790776<= o%,61<%#%:1<,<",
"111<1<;%=:;-;&ooo*4we08774260wrr097666645346576<- o$=>--1-&;<<<1",
"111<1<;%>3<&%%Ooo*4qew0q06116ryytw8667777445475>=.o@%-=-6:&-<1<<",
"11<<11;%<75:-=@oO=40eeweq073477370wre0977566465>* o$-1<<>=%:32<>",
"<1<<11;%;7943>$.O=40wqweqre632<->4euyr097697455<& X&1964&%%>21<<",
"<<<<11:%*39981# O=40w00wqre94332<244340rrere764>= .&3w73;**:<<<3",
"<<<<11:%=1689<@.O=4qewqeeq00078005>--<60e00wqw8,- X%<842<-*:11<2",
"<<<<11:%:1379<@oo*4wreeer00rtw0wq866761>>->4wit4- o%:423<=&:33<,",
"<<<<11;%-1477<@.O=477900rrreewq0e07900513134466<=X.%:3636-=><<12",
"<<<<11;%=:,<1;@oO=266777qwweeewwrw0qee966464111-&..%-<322&&,<<11",
"<<<<11;%%===-%ooO*1656669000wweewwwweeq00907111:&XX$%*-=>$%<1<1<",
"<1<<11;%&;;;:*ooO=154444778000000qwwwwwwrweq7771&XX%=-;=>$%<1<1<",
"111<11;%:3466,@oO=36666566777777qweewwertwweqe04&  &17851%&,<<1<",
"111111;%:37901@.O=36666666666665900900qer00wwr01&  &30w73=&><<11",
"111111;%=1689<@ O=266666566666656546790qr0errr01=. %>3623=&,<<11",
"121111;%=<4791$oo*16666645666666644580ereeyiytw4*..%;1431&&<<<11",
"111<1<;%-3667<$XO=2665547754467799900werrwerer01* X@%>,21&&<<<<<",
"111<1<;%&<234,#X.&14567767776556yyyyyuiipe71:<1>=.@%-,-=3=&,<<<<",
"111<1<;%:3322:+.@-46677769wrreee009988998441><1;* @=>3>:3=&><<<<",
"111<1<;%,31>,=+XO=266665qwrtyytr>>>>>>>>;>49776<* o$=1<2<%%,<<<<",
"111<1<;%%-=&=*@o.=5qrrtrtw7666431111111133797893=.o+@==::$%<1<<,",
"111<1<;%%--=;*OXO-6wrrre051><1<>77778888080w0004& +$%;=-:$%<1<<<",
"111<1<;%;3433:O .&>1<<>>122344569900000000rytt02& o&<733<%%,<<1<",
"111<1<;%;48902# O*,1<<1115009790werrrewqr0qw0w01- .%1w864=&><<12",
"111<1<;%;13681$XO*277656890weewqeewwweer0etq9re1= o%1q722=*<<<11",
"111<1<;%;,<371#.O=40099000qwewwqwwwwwwqqrq077re3& o%1q741%%<111<",
"111<1<;%*--<61# O=40wwwewwwwwwwwqwwewq00r8679e01& o%<8631%%,111<",
"111<1<;%$*-<5<$.O=40ewweeeewweerqweew009758e094:* o%:4213*%>111<",
"111<1<;%%:<36,#oO=40ewqweewwweer9000097746wr731:= o%:3<16=&><11<",
"111<1<;%=<233;@oO-5erewewwwwwqqq6677765468e02131= o%;1<13=*,<<11",
"111<1<;%=;--:&ooO=5erewewwww009755555544q0041683= o$&-=::%&<<<12",
"111<1<;%#$OO%$oXX&4qrwweeeew086466666667r0724ee1- X@@$+$%+&11<12"
};
