/* XPM */
static char *rcp09214775079113[] = {
/* columns rows colors chars-per-pixel */
"64 64 223 2 ",
"   c #000002",
".  c #000103",
"X  c #000005",
"o  c #010204",
"O  c #020305",
"+  c #010207",
"@  c #030406",
"#  c #040507",
"$  c #020308",
"%  c #030409",
"&  c #040509",
"*  c #050608",
"=  c #060709",
"-  c #04050A",
";  c #05060B",
":  c #06070C",
">  c #07080A",
",  c #07080C",
"<  c #07080D",
"1  c #08090B",
"2  c #090A0C",
"3  c #0A0B0D",
"4  c #08090E",
"5  c #090A0E",
"6  c #090A0F",
"7  c #0B0C0E",
"8  c #0C0D0F",
"9  c #0A0B10",
"0  c #0B0C10",
"q  c #0B0C11",
"w  c #0D0E10",
"e  c #0E0F11",
"r  c #0C0D12",
"t  c #0D0E13",
"y  c #0E0F14",
"u  c #0F1012",
"i  c #0F1015",
"p  c #101113",
"a  c #101115",
"s  c #111214",
"d  c #121315",
"f  c #101116",
"g  c #111217",
"h  c #131416",
"j  c #141517",
"k  c #121318",
"l  c #131419",
"z  c #141519",
"x  c #151618",
"c  c #161719",
"v  c #14151A",
"b  c #15161B",
"n  c #16171B",
"m  c #16171C",
"M  c #17181A",
"N  c #17181D",
"B  c #18191B",
"V  c #191A1C",
"C  c #1A1B1D",
"Z  c #18191E",
"A  c #191A1E",
"S  c #191A1F",
"D  c #1B1C1E",
"F  c #1C1D1F",
"G  c #1A1B20",
"H  c #1B1C20",
"J  c #1B1C21",
"K  c #1C1D21",
"L  c #1D1E20",
"P  c #1E1F21",
"I  c #1C1D22",
"U  c #1D1E22",
"Y  c #1D1E23",
"T  c #1E1F23",
"R  c #1E1F24",
"E  c #1F2022",
"W  c #1F2024",
"Q  c #1F2025",
"!  c #202123",
"~  c #202125",
"^  c #212224",
"/  c #222325",
"(  c #202126",
")  c #212226",
"_  c #212227",
"`  c #222327",
"'  c #232426",
"]  c #242527",
"[  c #222328",
"{  c #232428",
"}  c #232429",
"|  c #242529",
" . c #252628",
".. c #262729",
"X. c #24252A",
"o. c #25262B",
"O. c #26272B",
"+. c #26272C",
"@. c #27282A",
"#. c #27282D",
"$. c #28292B",
"%. c #28292D",
"&. c #292A2C",
"*. c #2A2B2D",
"=. c #28292E",
"-. c #292A2E",
";. c #292A2F",
":. c #2A2B2F",
">. c #2B2C2E",
",. c #2C2D2F",
"<. c #2A2B30",
"1. c #2B2C30",
"2. c #2B2C31",
"3. c #2C2D31",
"4. c #2D2E30",
"5. c #2E2F31",
"6. c #2C2D32",
"7. c #2D2E32",
"8. c #2D2E33",
"9. c #2E2F33",
"0. c #2E2F34",
"q. c #2F3032",
"w. c #2F3034",
"e. c #2F3035",
"r. c #303133",
"t. c #303135",
"y. c #313234",
"u. c #323335",
"i. c #303136",
"p. c #313236",
"a. c #313237",
"s. c #323337",
"d. c #333436",
"f. c #343537",
"g. c #323338",
"h. c #333438",
"j. c #333439",
"k. c #343539",
"l. c #353638",
"z. c #363739",
"x. c #34353A",
"c. c #35363A",
"v. c #35363B",
"b. c #36373B",
"n. c #36373C",
"m. c #37383A",
"M. c #37383C",
"N. c #37383D",
"B. c #38393B",
"V. c #38393D",
"C. c #393A3C",
"Z. c #3A3B3D",
"A. c #38393E",
"S. c #393A3E",
"D. c #393A3F",
"F. c #3A3B3F",
"G. c #3B3C3E",
"H. c #3C3D3F",
"J. c #3A3B40",
"K. c #3B3C40",
"L. c #3B3C41",
"P. c #3C3D41",
"I. c #3D3E40",
"U. c #3E3F41",
"Y. c #3C3D42",
"T. c #3D3E43",
"R. c #3E3F44",
"E. c #3F4042",
"W. c #3F4044",
"Q. c #3F4045",
"!. c #404143",
"~. c #414244",
"^. c #424345",
"/. c #404146",
"(. c #414247",
"). c #434446",
"_. c #444547",
"`. c #424348",
"'. c #434448",
"]. c #434449",
"[. c #454648",
"{. c #464749",
"}. c #44454A",
"|. c #45464B",
" X c #46474C",
".X c #47484A",
"XX c #47484C",
"oX c #47484D",
"OX c #48494B",
"+X c #494A4C",
"@X c #4A4B4D",
"#X c #48494E",
"$X c #494A4F",
"%X c #4B4C4E",
"&X c #4C4D4F",
"*X c #4A4B50",
"=X c #4B4C51",
"-X c #4D4E50",
";X c #4E4F51",
":X c #4C4D52",
">X c #4D4E53",
",X c #4E4F54",
"<X c #4F5052",
"1X c #4F5055",
"2X c #505153",
"3X c #515254",
"4X c #505156",
"5X c #515256",
"6X c #515257",
"7X c #525358",
"8X c #535459",
"9X c #54555A",
"0X c #55565B",
"qX c #56575C",
"wX c #57585D",
"eX c #58595E",
"rX c #5A5B60",
"tX c #5B5C61",
"yX c #5D5E63",
"uX c #5E5F64",
"iX c #5F6065",
"pX c #636469",
"aX c #696A6F",
/* pixels */
"f.f.f.f.f.f.f.f.f.l.l.d.q.q.u.l.u.l.l.l.g.g.g.l.C.C.N.g.} m k l m m b l V o.u.v.g.u.g.l.N.l.g.u.e.u.l.m.m.l.f.u.l.l.l.f.f.d.d.d.",
"f.f.f.f.f.f.f.f.d.l.l.d.r.r.d.l.I.l.u.j.C.C.u.#.[ [ } *.u.l.g.4.4.0.0.0.*.} ^ [ *.<.e.g.g.g.j.l.l.d.u.d.l.m.l.d.l.l.f.f.f.d.d.d.",
"f.f.f.f.f.f.f.f.d.f.l.f.u.u.f.m.N.j.u.g.v.v.e.<.Q L N L g.*X,X X{. X*X=XI. .G L J  .0.j.j.g.g.j.C.l.u.u.f.l.l.f.l.f.f.f.d.d.u.u.",
"f.f.f.f.f.f.f.f.d.f.f.f.f.f.l.l.g.l.N.g.*. .*.4.C.v.#.L #.~.,X=X*XoX-X,XQ.*.} 4.e.0.<. . .4.l.N.l.l.l.l.d.d.f.l.f.f.f.d.d.u.u.u.",
"f.f.f.f.f.f.f.f.f.d.d.f.l.l.f.d.v.l.u.*.[ ^ o.<.=X,X Xu.#.u.I.`.~.I.I.I.g.<.j.].3X{.4.V m  .u.j.4.f.C.C.d.q.u.l.f.f.d.d.u.u.u.u.",
"f.f.f.f.f.f.f.f.f.d.u.d.f.f.u.q.0.o.R ^ 2.l.v.l.{.=X,X`.u.#.4.l.I.J.l.4.<.e.T.=X{. XT.u.<.2. .V *.r.B.C.d.q.r.f.d.d.d.u.u.u.u.u.",
"f.f.f.f.f.f.f.f.l.d.u.u.d.u.4.*.o.o.*.4.u.v.I.~.C.l.l.v.4.R L #.<.u.4.[ ^ 4.v.l.*.J.{.I.v.g.2.^ 4.4.4.u.d.d.u.u.d.d.u.u.u.u.u.u.",
"f.f.f.f.f.f.f.f.l.d.u.u.d.u.,.@.<.Q.,X{.2.R <.T.C.^ m L R k g L y L L g g Q ^ b #.l.v. .R 0. X3Xu.*. .*.u.B.l.r.d.d.u.u.u.u.u.r.",
"f.f.f.f.f.f.f.d.q.G.d.u.I.4.L *.u.~.=X{.J.j.2. .[ N 9 - - 4 9 9 9 9 9 9 9 9 4 4 R [  . .e.~.$XoXC.C.q.^  .f.C.d.r.q.r.u.d.f.d.u.",
"f.f.f.f.f.f.f.f.,.B.u.,.4.! V 4.~.].~.Q.T.v.^ 4 y q < < 4 4 4 < : - : : : : - - g b V [ j.]. XQ.I.l.,.] @.q.u.q.u.u.u.u.u.d.d.d.",
"d.d.d.d.d.f.f.f.q.m.u.@.^ M V 4.Q.T.L.v.g.#.g X : r b J L G N m V V V V G V V V 4 4 4 k o.N.L.l.].u.! D L  .q.m.d.u.u.u.u.d.f.l.",
"u.u.d.d.d.d.f.f.B.f.4.*.*.]  .4.<.l.N.2.m 9 q g k L 4.l.j.e.0.0.u.u.u.u.u.u.u.u.J l 4 < g [ e.l.l.@.!  .*.@.*.u.u.d.d.d.u.u.f.l.",
"u.u.u.u.d.d.f.f.C.*.] r.H.~.H.d.o.4.2.J 4 - m 4.o.u.T.`.Q.I.I.~.I.I.I.I.I.I.I.I.j.2.Q l r k ^ 4.^  .f.{.{.u.^ L 4.u.f.f.u.u.f.l.",
"r.r.u.u.u.d.f.f.r.L ^ B..X3X-XC.l. .m g k J 4.J.I.{.=X-X$XoX$X-X*X*X*X*X*X*X*X*XL.C.l.<.V q r b 2.f.!..XE.r.$.$.@.4.d.l.f.u.d.l.",
"q.q.r.u.u.d.f.f.$.V $.I.!.{.OXB.u.J 9 g [ j.T.{.,X3X9X8X3X1X3X9X9X9X9X9X9X9X9X9X`.`.].I.<.l 4 q *.m.!.B.,.*.u.m.E $.u.m.l.d.d.l.",
"q.q.r.u.u.d.f.f. .L u.~.u.u.C.r.R i 9 m <.J.$X7X3X7X8X7X3X1X3X3X1X1X1X1X1X1X1X1X8X1X,X=XI. .m b 4 $.!.I.u.4.4.,.D  .u.m.l.d.u.f.",
"r.q.,.,.u.m.u.@.$.>.*.@.u.H.u.L 9 : i #.I.oX-X7X9X9X7X,X-X1X1X-X8X7X3X7X7X9X9X8X8X9X7X,X$XC.R < 4 r *.~.H.r.4.*.4. .@.f.l.>.*.f.",
"u.u.q.4.u.f.,.! u.l.u.*.4.l.q.^ y : y 4.*XqX9X1X3X1X,X3X9XeXqX8XqX9X7X7X3X,X-X-X3X8X7X3X=XQ.o.g - 4  .G.d.$.>.,.H.*.' q.l.r.4.u.",
"d.d.u.r.u.u. .V l.H.C.4. .] E b y i L j.$X8XqXeXwX3X=X$X*X*X*X$X1X3X3X3X3X7X8X8X1X7X8X3X1X Xg.L q 1 V *.' ^ q.B.OX4.L *.m.l.r.u.",
"u.u.u.u.d.u.] b d.I.~.B.*.F g 1 q R l.L.N.J.-XiXqX3X$X].L.C.L.`.*X-X-X,X1X3X9XqX,X7X8X7X7X*XJ.*.J 4 7 M V @.I.OX_.*.F *.B.l.u.u.",
"q.u.u.u.f.u. .b *.C.OX.XC. .h - 4  .~.{.N.u.I.$X`.{.*X$XI.u.l.T.I.T.T.I.I.T.{.$X-X3X7X3X,X*XI.e.} 1 @ b  .m.{.OXf.^ F ,.B.f.r.f.",
"r.u.u.u.l.d. .B V *.H.{.~.4.M - 9 [ I.*X*X`.v.4.l.I.$X=XJ.[ G Q V L R ^  .4.C.].$X-X-X=X$X XI.u.Q # # E l._.).m.@.D F 4.B.u.r.m.",
"d.f.d.u.f.d.@.V V ! 4.C.H.4.j @ < ^ I.-X8X1X~.g.I.C.J.L.4.k - < : < 9 y l ^ l.~.~.{.oX{.{.].I.j.L @ - ^ l.E.C.*. .V V 4.m.d.u.m.",
"m.m.f.u.f.u. .B *.@.*.l.C.,.j X $ [ ].,X-X,X1X,XoXv.<.*.^ l r k k g i r y N *.v.J.Q.`.~.~.~.I.l.^ - @ V *.d.u. .*.V B *.B.f.u.l.",
"u.d.u.u.f.d.@.B m.G.q. .,. .g 1 y [ T.1X3X-X-X3X3XQ.Q < y o.0. .*.2.0.<.G r b  .J.J.].{.T.].~.4.^   8 F ^ *.' ,.-X>.E >.u.f.B.l.",
"u.d.u.u.f.d.@.B f.!.C.,.@.D r 8 q Q L.3XqX3X-X-X`. .g m ^ o.0.C.C.l.v.l.<.G b V *.u.`. XI.T.Q.j.}   1 j F >.u.~.$X$.L ,.u.f.m.f.",
"d.d.d.u.l.d.@.V ,.~.{.G.q.F 7 7 4 L J.3XwX7X XI.o.m g ^ 4.e.l.I.I.C.N.J.N.<.J g m } I.{.L.J.I.j.} X 4 j E f.H.%X~.' L 4.d.f.l.d.",
"d.f.d.d.l.f.@.V ' G.{.{.!.*.u - q Q J.,X9X-XC.#.q G [ } 4.J.C.2.u.0.0.v.J.j. .V g N 0.~.`.].Q.u.^ X 8 L q.~.I.E.C.E F 4.f.f.l.u.",
"f.f.d.d.l.f.$.V ] u.f.B.~.l.b # q [ L.-X8X=Xl.R X V 2.0.g.C.g.}  .o.*.0.j.l.0.#.l r Q I.1XwX=Xj.^   4 L B.-X!.m.l.F F q.f.d.f.u.",
"f.l.f.f.l.l.$.V *.>.^ ^ u.q.M > 4 ^ L.*X7X-XN.^ - r o.T.T.2. .4.o.*.<.<.e.l.l.u.b 4 V J.8XyX7XC.^   # b d.<X{.C.f.F L q.d.u.f.u.",
"f.l.f.f.l.l.*.D $.4. .^ *.' p 1 < ^ J.{.$X Xl.Q $ i <.~.I.#.[ 2.<.2.*.#.0.C.N.u.k 9 G v.].oX`.l.^ X 1 b ,..X!.C.l.L L r.u.u.f.f.",
"l.l.f.f.m.l.*.D ^ u.l.4.>.F 4 # < ^ C.Q.Q.L.2.N X L C.N.e.4.*.Q *.*. . .u.I.C.4.i r Q g.0.<.2.*.L - g F *.I.l.q.m.E E r.u.r.f.f.",
"l.l.f.d.l.d. .B D ' *.d.G.$.u 4 4 ^ v.Q.`.T.4.J < k <.Q.C.o.[ 0. .0.2.^ *.I.J.o.V 4 N v.T.L.N.e.^   7 F q.!.l.u.V j D ,.l.u.q.u.",
"l.l.f.d.l.d.@.B ' >.$. .$.L 8 4 9 ^ v.T.Q.L.4.G X V e.g.j.v.u.} <.[ } e.N.l.u.u.r - N l.{.oXT.4.} @ 7 b ! 4. . .l. .L @.u.d.u.f.",
"f.l.f.d.l.d.@.V 4.C.r.L F B r 8 q [ v.I.T.J.4.L - N o.<.g.I.N.#.4.o.<.N.L.u.*.*.y i ^ C.oX8X=Xu.^ # 7 g V  .^ ] ~.,.L  .d.l.d.u.",
"f.f.d.d.l.f.@.V r.{.E.*.] ! h 7 9 ^ v.T.T.I.j.o.L i k o.l.j.j.J.4.L.T.j.e.u.} i V } l.~. X9X3Xv.Q   4 M  .l.u.d.4.! F >.C.B.u.4.",
"d.f.d.d.l.f.$.V @._.$XI.C.4.b - 9 [ v.T.~.`.I.j.0.V r G o.2.j.Q.N.~.~.u. .[ N 4 [ v.,X3X,XwX7XN.L   > L l.&X).I.L B F 4.B.l.r.u.",
"u.d.d.d.l.l.*.V E G.$X$X.Xf.j X 4 ^ N.T.~.{.].I.l.u.^ r k o.e.<.C.2.#.4. .k k [ l. XuXpXtXyX9XC.^   - L C.3X_.H.@.E E >.u.u.u.C.",
"u.d.u.d.l.l.*.D ^ l.~.OX$Xd.g - 9 ^ N.I.Q.{.{.Q.I.T.u.V i N V k R i r V J N <. X9X3X9X9X-X,X$Xl.}   1 D u..XI.B.d. .E *.f.f.d.m.",
"u.d.u.d.l.l.*.D >.f.C._.$Xu.h 8 9 [ N.I.I.`.].T.$XI.j.0.J % X 4 X $ % X r *.$XtXaX1XL.u.<.u.j. .} X 4 B *.I.B.C.d.' L ,.G.C.u.q.",
"r.u.u.u.f.f.$.V  .l.I._.{.r.g - 4 Q v.Q.~.`.].].I.$X3X=XN. .G V N b l b R 2.C.`.$XI.L.N.e.g.l.*.^ > # V >.C.~.G.~. .! 4.r.r.l.m.",
"u.u.u.u.l.f.$.V ! ,.q.u.l.@.p 4 4 ^ C.{.{.{.`.~.7X9XqX7X*X{.~.~.0.4.*.o.#.<.0.u.e.0.L.{.]. X`.u.L - - V  .u.C.m.m.L L q.d.u.l.f.",
"u.d.u.u.l.f.$.V V ^ ! !  .D 7 4 4 } ~.3X9XqXqX9X1X XL.v.l.l.j.u.C.C.C.C.C.C.N.v.j.v. X3X1X1X Xe.L 1 1 M D E ] ^ 4.M D r.l.d.f.u.",
"d.f.d.d.l.f.$.V L @.@.@.>.E 8 4 9 [ T.=X1X7X8X7X$X~.v.e.0.e.4.2.T.~.]. X$X$X$X$X=X$X1X3X-X1XoXu.L 1 > B !  .$.^ 4.M D r.l.d.f.u.",
"f.l.f.d.l.f.$.V >.C.I.~.).q.h 4 q Q g.v.l.g.u.u.N.J.I.Q.~.~.`.].,X,X,X,X,X,X,X,X3X,X3X,X-X9X3XC.J X @ L l.{.OXE.l.L L q.d.u.l.d.",
"l.l.f.f.l.f.$.V >.H.{.&X-Xf.g # q R e.j.u.u.u.u.e.C.{.$X$X X$X*X7X7X3X3X3X7X8X9X1X1X8X3X,XeX1Xj.L X X L C.-X2X{.C.^ L 4.u.u.l.l.",
"l.l.l.f.l.f.$.V ^ f.!..X$Xu.p X q ^ N.`.]. X*X*X{.-X9XqX8X1X1X3X-X,X3X7X9X9XqXqX7X3X7X-X*X9X-Xe.^ - X V 4.I.~.B.C.! L q.u.u.l.l.",
"l.m.l.f.l.f.$.V ^ d.I.{.$Xf.b 7 9 [ L. X$X=X-X=X$X=X1X3X3X3X7X7X3X7X9X9X8X3X,X=X1X-X$X`.].qXqXL.Q - # B $.l.I.C.l.L L r.d.u.l.f.",
"l.l.f.d.l.d.@.B  .C.!.~.{.d.b > r [ I.1X7X3X3X8X7X7X8X8X7X3X3X3X7X3X3X7X9X8X,X*X9X{.T.~.oX7X-Xl.Q X 1 p V 4.q.B.l.L L r.d.u.u.r.",
"l.l.f.d.l.d.@.B L u.B.C.I.q.j > 9 ^ I.1X8X3X3X7X3X7X7X8X8X7X7X3X7X3X1X7X7X3X-X$X{.`.$X,X*X$XQ.*.^ - p D ] q.] ^ C.! L q.u.r.d.u.",
"l.l.f.d.l.d.@.B ,.C.G.B.B.*.u # 4 Q I.3X9X7X3X7X3X7X7X8X8X7X3X3X-X=X*X*X=X*XoX{.I.`.7X8X].I.l. .Q @ g ^ 4.C.4.*.C.! L 4.u.r.d.u.",
"l.l.f.d.l.d.@.B q.C.l.4.q.' u > 4 Q I.3X9X7X3X7X7X7X7X7X3X1X-X-X{.].`.~.~.~.~.~.oXoX,X$XN.v.C.u.Q X 7 M ' l.d.m.d.D F q.d.u.d.u.",
"l.l.f.d.l.d.@.B V ] ^ L ' E g r 9 ^ T.3X8X3X1X3X7X3X3X1X-X*XoX X~.Q.Q.I.I.T.~.`.3X$X{.Q.v.T.{.C.^ - 7 u g ! ! *.*.b V r.l.d.d.q.",
"l.l.f.d.l.d.@.B V  . .^ @.E r 1 q ^ L.-X,X-X=X-X,X-X-X*X$X X`.~.~.~.~.~.Q.`. X*X-X~.Q.~.`.=X$XN.L @ u M F @.^  .*.b V r.l.d.d.r.",
"l.l.f.d.l.d.@.B $.C.I.G.H.*.r X q Q N. XoX{.{.$X X X X{.{.`.~.Q.`.`.`.~.`.{.-X7X{.C.L.].$X3X$Xu.L   8 L u._.H.C.d.D F q.d.u.l.d.",
"l.l.f.d.l.d.@.B @.I.OX&X-XB.b @ q L j.~.`.Q.~.{.~.~.~.`.`.~.~.Q.Q.~.~.~.~. X,X8X~.v.C.~.oX1X$Xu. .  - V l.3XOX).I.^ L 4.r.r.l.m.",
"l.l.f.d.l.d.@.B $.l.G.~..Xf.b 1 q ^ v.T.Q.~.{.{.`.`.`.`.~.~.~.~.{.`.L.L.-XrX*X4.v. X,X$X X XI.4.^ @ 8 F f.<X_.C.B.! E r.u.u.l.l.",
"l.l.f.d.l.d.@.B @.q.u.C._.f.j # r ^ N.~.~.`.].].`.`.`.`.`.`.`.`. XI.~.3X7X].J.I.T.$X=X{.]. XT.u.L   7 F f.<X{.I.l.L L r.l.f.l.d.",
"l.l.f.d.l.d.@.B E ]  .r.!.f.j X 9 ^ N.~.~.`.`.~.~.~.~.`.`.`.`.`.Q.~.,XqX$Xl.l.]. X$X{.T.Q.{.Q.j.L   4 V r.OX!.C.l.F D q.l.l.l.r.",
"l.l.f.d.l.d.@.B b E ] r.E.u.b - < R l.~.~.~.~.~.~.~.~.~.`.`.`.`.I.1X9X XC.I.{.].$X$X`.I.Q.].T.j.Q   4 V >.I.m.f.G.E F 4.l.l.l.r.",
"l.l.f.d.l.d.@.B V *.u.C.!.q.j 4 4 R l.Q.~.`.].`.].].].].].].].].-X7X*XC.C.oX1X=X$X X`.~.].{.I.l.^ X 7 D *.C.d.l.!.' L 4.d.f.l.d.",
"l.l.f.d.l.d.@.B ' u.B.C.C.@.p 7 r [ v.T.T.Q.`.`.~.~.~.~.~.~.~.~.tX`.g.J.~.`.oX7X`.~.Q.~.`.~.J.l.^   7 D @.f.r.l.C.! E q.u.u.l.l.",
"l.l.f.d.l.d.@.B ^ $. . .*.L 8 4 y ^ g.v.j.j.l.v.l.v.v.v.l.l.l.v.oXg.*.g.J.v.N.Q.l.l.l.l.l.g.e.e.^   4 M L  .^ *.*.B L u.d.u.l.B.",
"l.l.f.d.l.d.@.B b b r r V M 4 1 r L 2.4.*.#.*.<.<.<.<.<.*.*.*.*.} 4.4. .o.u.0.[ *.#.#.#.o.}  .*.}   > g g b u M F u L f.l.u.l.B."
};
