/* XPM */
static char *rcp06221580380687[] = {
/* columns rows colors chars-per-pixel */
"64 64 109 2 ",
"   c #020305",
".  c #05060A",
"X  c #08060B",
"o  c #07090C",
"O  c #0A0B0D",
"+  c #0C0D11",
"@  c #100F14",
"#  c #0E1012",
"$  c #121316",
"%  c #151619",
"&  c #17181B",
"*  c #1A1B1D",
"=  c #1C201F",
"-  c #1D1E21",
";  c #201E23",
":  c #1E2123",
">  c #1E2429",
",  c #212225",
"<  c #2B2326",
"1  c #242529",
"2  c #29272C",
"3  c #27282B",
"4  c #2A2B2D",
"5  c #3F2727",
"6  c #332629",
"7  c #3C2628",
"8  c #3B2A2C",
"9  c #2D2E31",
"0  c #332D32",
"q  c #3D2F31",
"w  c #2E3033",
"e  c #2E3639",
"r  c #2E383A",
"t  c #333436",
"y  c #3B3336",
"u  c #353639",
"i  c #3B363A",
"p  c #36383B",
"a  c #3A3A3D",
"s  c #40272A",
"d  c #442D2E",
"f  c #412E30",
"g  c #492F30",
"h  c #433436",
"j  c #4A3436",
"k  c #443837",
"l  c #4B3937",
"z  c #423539",
"x  c #493639",
"c  c #443B3D",
"v  c #4C3B3C",
"b  c #503637",
"n  c #523739",
"m  c #533C3D",
"M  c #5B3E3D",
"N  c #55403F",
"B  c #5D413E",
"V  c #60413F",
"C  c #373C42",
"Z  c #3C3D42",
"A  c #3F3D48",
"S  c #433E42",
"D  c #4A3E42",
"F  c #413F4A",
"G  c #593F41",
"H  c #3E4144",
"J  c #3E4847",
"K  c #3E4649",
"L  c #424246",
"P  c #4B4344",
"I  c #44454A",
"U  c #49464B",
"Y  c #46494C",
"T  c #494A4E",
"R  c #534244",
"E  c #5C4444",
"W  c #5D4847",
"Q  c #51474A",
"!  c #5F4548",
"~  c #524B4E",
"^  c #5C494B",
"/  c #474552",
"(  c #484651",
")  c #464D51",
"_  c #4C4D52",
"`  c #4F4D58",
"'  c #504F55",
"]  c #5D4E51",
"[  c #514F5B",
"{  c #4E5155",
"}  c #4E5359",
"|  c #515256",
" . c #535459",
".. c #595758",
"X. c #53595C",
"o. c #5B5A5D",
"O. c #624444",
"+. c #644847",
"@. c #674748",
"#. c #644B4B",
"$. c #624E50",
"%. c #625253",
"&. c #67575A",
"*. c #575560",
"=. c #585661",
"-. c #5A5C61",
";. c #6E5F62",
":. c #5D6266",
">. c #636466",
/* pixels */
"u u u u u u u u u u u t w w t u t u u u t t t u a a p t 1 & $ % % & % % * 3 t p t t t u p u t t w t u p p u u t u u u u u t t t ",
"u u u u u u u u t u u t t t t u Z u t u a a t 2 , , 1 4 t p t 9 9 9 9 9 4 1 , , 4 9 9 t t t u p u t t t u p u t u u u u u t t t ",
"u u u u u u u u t u u u t t u p p u t t p p 9 4 - - & - t _ _ Y I I _ _ Z 3 - - - 1 9 u u t t u a u t t u u u u u u u u t t t t ",
"u u u u u u u u t u u u u u u u t u p t 4 1 4 9 C p 2 - 3 L _ _ T Y _ _ H 4 1 9 9 9 9 1 1 9 u p u u u u t t u u u u u t t t t t ",
"u u u u u u u u u t t u u u u t u u t 9 , , 1 9 _ _ I t 3 t Z L L Z Z Z t 9 u L | I 9 * & 1 t t 9 u a p t w t u u u t t t t t t ",
"u u u u u u u u u t t t u u t w 9 1 - , 9 u p u I _ _ L t 2 9 p Z C u 9 9 w Z _ Y Y Z t 9 9 1 * 4 t p p t w t u t t t t t t t t ",
"u u u u u u u u u t t t t t 9 4 1 3 9 9 t p Z L C u u p 9 - - 2 9 t 9 , , 9 p p 4 C I Z u t 9 , 9 9 9 t t t t t t t t t t t t t ",
"u u u u u u u u u t t t t t 4 3 9 H _ I 9 - 9 Z a , % - - % % - + - - $ % : , % 2 p p 1 - 9 Y | t 4 1 4 t p u t t t t t t t t t ",
"u u u u u u u t w a t t Z 9 - 4 t L _ I C u 9 1 , & + . X O + + O O O O + + O O - , 1 1 w L T Y a a w , 1 u a t t w t t t u t t ",
"u u u u u u u u 4 p t 4 9 , * 9 L I L Z Z p , O + + o o O O O o . . . . . X . . $ % * , u I Y H Z u 4 1 3 w t w t t t t t t t t ",
"t t t t t u u u w p t 3 , & * 9 H Z C p t 2 $   X + % - - - & & * * * * * * * * + O O % 3 p Z u I t , * - 1 w p t t t t t t u u ",
"t t t t t t u u p u 4 4 4 1 1 9 9 u p 9 & + + $ % - 9 u u w 9 9 t t t t t t t t - % O o $ , w u u 3 , 1 4 3 4 t t t t t t t u u ",
"t t t t t t u u a 4 1 t a L a t 3 9 9 - O . & 9 1 t Z L H Z Z L Z Z Z Z Z Z Z Z u 9 : % + % , 9 , 1 u I I t , - 9 t u u t t u u ",
"t t t t t t u u t - , p Y | T a u 1 & $ % - 9 C Z I _ _ T Y _ _ _ _ _ _ _ _ _ _ Z a p 9 * + + % 9 u L Y H t 3 3 3 4 t u u t t u ",
"w w t t t t t u 3 * 3 Z L I Y p t - + $ , u Z I _ |  . .| _ |  . . . . . . . . .L L I Z 9 % O + 4 p L p 4 4 t p : 3 t p u t t u ",
"w w t t t t t u 1 - t L t t a t - @ O & 9 C Y | { |  .| { { { } { { { { { { { _ | _ _ _ Z 1 & % O 3 L Z t 4 9 4 * 1 t p u t t u ",
"t w 4 4 t p t 3 3 4 4 3 t a t - O X + 3 Z Y _ } } { ) } } { { }  . . .} } } { { { | | _ T Z , O O + 4 L a t 9 4 9 1 3 u u 4 4 u ",
"t t w 9 t u 4 , t u t 4 9 u w , + X @ 9 T X. .{ X.} { } X.} { { } } } } } } | | | | | | _ S 2 $ . O 1 a u 3 4 4 a 4 , w u t 9 t ",
"t t t t t t 1 * u a a 9 1 1 : % @ @ - u T  .X.X.X.} Y ) ) Y ) ) } } { |  .| | | |  . .| ' I 0 - O o * 4 1 , w p Y 9 - 4 p u t t ",
"t t t t t t 1 % t Z L p 4 * $ o + ; u Z p a _ :.} ) Y K Z Z H Y _ { | | | { _ _ ' |  .| | T a 4 * O O & * 3 Z Y L 4 * 3 p u t t ",
"w t t t u t 1 % 4 a Y Y a 1 $ . O 1 L I p w Z Y Y Y _ _ L a a L I I I T T T T T _ | | | ' T Z t , o   % 1 p I Y u , * 4 p u t u ",
"t t t t u t 1 * * 4 a I L 9 & . O , Z T _ I p 9 u Z T | T a t t y y a a Z S P I T _ _ _ T Y Z t : . . : u L L p 3 * * 9 p t t p ",
"t u t t u t 3 * * , 9 a a 9 %   X ; Z _  .{ H t p u Z I U c y 0 y y y y p a S S P U T I I L Z t -   . , u H a 4 1 * * 9 p t t p ",
"p p u t u t 1 * 4 3 4 u a 4 %     , I _ _ { { _ T Z u i D D D v D c z y y p a a S P I L L H a t , .   * 4 u t 1 4 * * 4 p u t u ",
"t t t t u t 3 * p a w 3 4 1 $ o O , Z T { | | _ | L t < y ] &.%.;.] v h y z c i D S I T H L Z w ,   O * , 4 , 4 _ 4 , 4 t u p u ",
"t t t t u t 3 * u L a 4 3 * + + + 1 Z _  . .| _ T P z 8 q x m v R R ^ ^ ^ P c y y y P L Z Z H u 1   o % * 4 t L T 3 - 4 t u p u ",
"t t t t u t 3 * 4 L I a w * O + o , H {  . .| T P P P v j 8 s d d v ^ $.^ R D D D S T I Z Z Z e 1   O % : u a T L , - 4 t u u t ",
"t u t t u u 3 * , a I I L 4 # . o > Z { | | T L L D R ^ R j d j n n n j h j D Q ~ U _ _ I I H 9 ,   O - w L Z H a : * 9 u u u t ",
"u u t t u u 3 * 1 t u p L u % . o , Z _ | { T L L c R #.#.E M E O.M g 5 7 d z v D a P _ |  ._ r ,   O - p _ L p u * * w u t u t ",
"u u u u u u 3 * 4 4 , , t w & o + 1 H _ { _ Y L L v R ^ #.+.O.O.O.M n b n v f 6 6 < 0 Z _ -. .H ,   . % t { I a u * * w t t u t ",
"u u u u u u 4 * 3 9 1 , 4 , # O + > C Y Y T L c c P E E O.@.@.V O.M M O.#.E x 8 < < 9 p Z Y Y p :   o % 4 Y L a u - - t t t u u ",
"u u u u p u 4 * , t u 9 4 * O . X - u H L L c i z R ^ E E @.@.V @.O.E E W W R v z y a u 9 9 w 1 - . $ * 4 Z u w p : : t t t u u ",
"u u u t u t 1 * * , 4 t a 3 # O O , a L P D c y y x E ^ O.E E O.M B E E W E R R P D S S Z I Z 2 ,   O * w L u t * % * 4 u t w t ",
"u u u t u t 3 * , 4 3 1 3 - O O + , p L P D c y q x R R E G G E E E W W W E R R c S U U U _ Y 0 1   O % , 9 1 1 u 1 - 3 t t t u ",
"u u u t u t 3 * 9 a t - * * + O O : u L P P c z q h v v v n m M E E W W E E R R P P T ' _  .' p , . O $ * 1 , 1 L 4 - 1 t u t t ",
"u u t t u u 3 * t I H 4 1 , $ O O : p L P P c z y h z x x x n m N M M m N R P P T U _ _ _ | _ a :   O & 1 u t t 9 , * 4 a p t 9 ",
"t u t t u u 3 * 3 L T Z a 9 % . + : p H L L L c y z z z h h x v l l h h k k v v U I '  .| X.} p -   . - u T L Z - * * 9 p u t t ",
"t t t t u u 4 * : a T T Y u %   + > p H L L L S c c z z z z z k k h z z k c P P T _ o.:.-.:. .p :   . - a | L a 3 : : 4 t t t a ",
"t t t t u u 4 * , u L Y T t $ . + > p H J L L L S S a y y y y y v v c c L P ~ | o. .X.{ _ { ) r 1   o * t Y Z p t 1 : 4 u u t p ",
"t t t t u u 4 * 4 u a L T t $ O + : p H J L L H L Z a y p y y t P P P P T | ..o.>.| H w > w r 1 1   O * 4 Z p a t , - 4 a a t w ",
"t t t t u u 3 * 1 u Z L I t $ . o : r H H J L L a T  .o.' P P P a i p y p a L L T Z C p w e r 3 : . . * 4 a L a L 1 , 9 t t u p ",
"t t t t u u 3 * , 4 w t u 3 $ O o : p J J I J H _ |  . . .| | | u t t t 9 t t t w w Z K K J K e * . . * 1 t a p p - - w t t u u ",
"t t t t u u 3 * * , , , 1 * O o o > H {  .X.X. ._ Y C u p a a p a a a a a p p p u p Y { { { Y w - o o & * : 1 , 9 & * t u t u t ",
"t u t t u u 3 * - 3 3 3 4 : O o O > H T { {  .{ _ L p t t t t t L I I T T T _ T _ Y { { _ { Y w : o . * , 1 3 , 4 & * t u t u t ",
"u u u t u u 3 * 4 a Z L L w $ O O : t p t t t t p a Z Z A F I I _ _ _ | | | | { | _ { { _  .{ p *     - u L Y H u * - w t t u t ",
"u u u u u u 3 * 4 a I T _ u $ . O = w t w w t t t C Y _ ( / / ( [ |  . .| | { _ { {  .{ { X.{ u -     - a _ | I a , - 9 t t u u ",
"u u u u p u 3 * , u L Y T t $   O , p L L I T _ _ [ *.=.*.[ [  . . . . . .| | | | | | _ T  ._ w , .   * 9 Z L p a , - w t t u u ",
"u p u u u u 3 * , t a I T u % O O , a I T _ _ _ T _ _ ` ` [  . ._ _ _ ' | |  . .' _ T L I  . .Z : . . * 3 u Z a u - - t t t u u ",
"u u u t u t 3 * 1 a L L I t % . + , Z { | | |  .| |  . .| | | | | | | |  . ._ _  .I Z L Y | _ u :   o $ * 9 w p u - - t t t t t ",
"u u u t u t 3 * - t p a Z w % . + , Z {  .| | | | | |  . .| | | | | { | | | _ T I L T _ _ _ H 4 , . $ * 1 w 1 , a , - w t t t t ",
"u u u t u t 3 * 4 a a p p 4 # . O : Z |  .| | | | | |  . .| | | _ _ _ _ _ _ Y I Z L |  .I Z u 1 :   $ , 9 a 9 4 a , - 9 t t t t ",
"u u u t u t 3 * w a u 9 w , # . O : Z |  .| | | | | | | | { _ _ I I L L L L L L Y Y _ T p p a t :   O & , u t p t * * w t t t t ",
"u u u t u t 3 * * 1 , - , : $ O + , Z |  .| { | | | | { _ _ Y Y L H H Z Z Z L L | T I H p Z I a , . O # $ , , 4 4 % * t u t t w ",
"u u u t u t 3 * * 1 1 , 3 : + o + , Z _ _ _ _ _ _ _ _ _ T Y L L L L L L H L Y _ _ L H L L _ T p -   # & * 3 , 1 4 % * t u t t t ",
"u u u t u t 3 * 3 a Z a a 4 +   + : p I Y I I T Y Y Y I I L L H L L L L L I _ | I a Z I T | T t -   O - t L a a t * * w t t u t ",
"u u u t u t 3 * 3 Z Y T _ p %   + - u L L H L I L L L L L L L H H L L L L I _  .L p a L Y { T t 1   . * u | Y L Z , - 9 t t u p ",
"u u u t u t 3 * 3 u a L Y u % o + , u Z H L I I L L L L L L L L I L Z Z _ -._ 9 u I _ T Y Y Z 9 ,   O * u { L p p , : t t t u u ",
"u u u t u t 3 * 3 w t a L u % . + , p L L L I I L L L L L L L L Y Z L | | I C Z Z T _ I I Y Z t -   O * u { I Z u * * t u u u t ",
"u u u t u t 3 * : 1 1 t L u %   + , p L L L L L L L L L L L L L H L _ X._ p p I Y T I Z H I H u -   O * t Y L a u * * w u u u t ",
"u u u t u t 3 * % : 1 t H t % . o - u L L L L L L L L L L L L L Z {  .I a Z I I _ T L Z H I Z u :   O * 4 Z p u a , * 9 u u u t ",
"u u u t u t 3 * * 4 t a L w % O O - p H L L I L I I I I I L I I _ | _ a a Y { _ T Y L L I I Z u ,   O * 4 a t u L , - 9 t u u t ",
"u u u t u t 3 * , t p p a 3 $ O + , p Z Z H L L L L L L H H L L -.L t a L L Y | L L H L L L C u ,   O * 3 u t u a , : w t t u u ",
"u u u t u t 3 * , 3 1 1 4 - O O + , t p u u u p p p p u u u u u Y t 4 t C p p H u u u u u t w w ,   O & - 1 , 4 4 * - t t t u p ",
"u u u t u t 3 * % % + + * & O o + - 9 9 4 2 4 9 9 9 4 4 4 4 9 4 1 9 9 1 3 t 9 , 4 2 2 2 3 1 1 4 1   . $ $ % # & * # - u u t u p "
};
