/* XPM */
static char *rcp06244536569542[] = {
/* columns rows colors chars-per-pixel */
"64 64 99 2 ",
"   c black",
".  c #010101",
"X  c #000002",
"o  c #000103",
"O  c #020202",
"+  c gray1",
"@  c #010204",
"#  c #020305",
"$  c #030406",
"%  c #040404",
"&  c gray2",
"*  c #040507",
"=  c #060606",
"-  c #070707",
";  c #050608",
":  c #060709",
">  c #07080A",
",  c gray3",
"<  c #090909",
"1  c #08090B",
"2  c gray4",
"3  c #0B0B0B",
"4  c #090A0C",
"5  c #0A0B0D",
"6  c #0B0C0E",
"7  c #0C0C0C",
"8  c gray5",
"9  c #0C0D0F",
"0  c #0E0E0E",
"q  c gray6",
"w  c #0D0E10",
"e  c #0E0F11",
"r  c #0F1012",
"t  c #101010",
"y  c #101113",
"u  c #111214",
"i  c #121315",
"p  c #131416",
"a  c #141517",
"s  c #151618",
"d  c #161719",
"f  c #17181A",
"g  c #18191B",
"h  c #191A1C",
"j  c #1A1B1D",
"k  c #1B1C1E",
"l  c #1C1D1F",
"z  c #1D1E20",
"x  c #1E1F21",
"c  c #1F2022",
"v  c #202123",
"b  c #212224",
"n  c #222325",
"m  c #232426",
"M  c #242527",
"N  c #252628",
"B  c #262729",
"V  c #27282A",
"C  c #28292B",
"Z  c #292A2C",
"A  c #2A2B2D",
"S  c #2B2C2E",
"D  c #2C2D2F",
"F  c #2D2E30",
"G  c #2E2F31",
"H  c #2F3032",
"J  c #303133",
"K  c #313234",
"L  c #323335",
"P  c #333436",
"I  c #343537",
"U  c #353638",
"Y  c #363739",
"T  c #37383A",
"R  c #38393B",
"E  c #393A3C",
"W  c #3A3B3D",
"Q  c #3B3C3E",
"!  c #3C3D3F",
"~  c #3D3E40",
"^  c #3E3F41",
"/  c #3F4042",
"(  c #404143",
")  c #414244",
"_  c #424345",
"`  c #434446",
"'  c #444547",
"]  c #454648",
"[  c #464749",
"{  c #47484A",
"}  c #48494B",
"|  c #494A4C",
" . c #4A4B4D",
".. c #4B4C4E",
"X. c #4C4D4F",
"o. c #4D4E50",
"O. c #4E4F51",
"+. c #4F5052",
"@. c #515254",
/* pixels */
"I I I I I I I I I U U P H H L U L I U U L L L I R R T L m d u p d d a p h N L U L J L U T U L L H L U T T U I L U U U I I P P P ",
"I I I I I I I I P U U P J J P U ! U L P R R J V b b m C J U L F D F F F A m b b C A H L L L P U U P L P U T U P U U I I I P P P ",
"I I I I I I I I P I U I L L I T T P J L U U H A c l f l L  .o.[ ' [  ...! N h l k M F P P L L P E U L L I U U I U I I I P P L L ",
"I I I I I I I I P I I I I I U U L U T L C M C F E U V l V ) o... .{ X.o./ C m F H F A M N D I T U U U U P P I U I I I P P L L L ",
"I I I I I I I I I P P I U U I P U I J A b v N A ..o.[ J V J ~ ) ) ~ ~ ! L A P ` @.' D g d M J P F I E E P H L U I I P P L L L L ",
"I I I I I I I I I P L P I I L H F N z v S I U I ' ..o.) J V D U ! E U F A H ~ ..[ [ ~ J A S M h C J R E P H J I P P P L L L L L ",
"I I I I I I I I U P L L P L F A N N A D J U ! ( E I I U D z z V A J D b v D U U C E ' ~ U L S v D F F L P P L L P P L L L L L L ",
"I I I I I I I I U P L L P L D V A / o.' S z A ~ R b d z z u u l e l z y u c b a V U U N z F [ @.L A N A L R U J P P L L L L L J ",
"I I I I I I I P H Q P L ~ F z A J /  .' E P D M b g e 4 4 6 4 ; * ; ; ; 1 4 4 4 a c V S P ) } [ E E H b N I E P J H J L P I P L ",
"I I I I I I I I D R L D F v h F ( ` ` / ! I v 9 u 6 * @ * ; $ o o o o @ @ $ * * r a h v F / ' ) ! U D M V H L H L L L L L P P P ",
"P P P P P I I I H T L V b f h F ~ ( ~ R J m r o * o o o o @ o o o o o o o o @ @ ; > 1 u M U ! E ` L v k z N H T P L L L L P I U ",
"L L P P P P I I R I F A A M N F S U E F f ; @ @ o o o o @ @ o o o o o o @ @ @ @ o o @ 1 d N H L U V v N A V A L L P P P L L I U ",
"L L L L P P I I E A M J ! ) ! P C S A l 1 o o * @ o o @ @ @ o o o o @ @ @ @ @ @ o o @ ; 4 u c A b N I [ [ L b z F L I I L L I U ",
"J J L L L P I I J z b R { @.o.E T N a 9 4 * o o o o o o o o o o o o o o o o o o o o * ; $ * y z S I ( { / J C C V F P U I L P U ",
"H H J L L P I I C h C ~ ( [ } R I z 4 ; 4 ; o o o o o o o o o o o o o o o o o o @ o o $ o o * y A T ( R D A L T c C L T U P P U ",
"H H J L L P I I N z L ) L L E J v d 9 1 @ o o * o o o o o o @ $ o o o o o o o o ; o o o o o o ; 4 C ( ~ L F F D k N L T U P L I ",
"J H D D L T L V C S A V L ! L z 9 1 o o o o o o o o o o o o o o o o o o o o o o o o o o o o o o 6 a C Q ~ L A A F N V I U S A I ",
"L L H F L I D v L U L A F U H b 9 1 o o o o o o o o o o o o o o o o o o o o o o o o o o o o o o @ e M U U S V S ! A m H U J F L ",
"P P L J L L N h U ! E F N M c d 1 * o o o o o o o o o o o o o o o o o o o o o o o o o o o o o o o 4 h N N N F R } F z A T U J L ",
"L L L L P L M d P ~ ) R A l u 1 1 * o o o o o o o o o o o o o o o o o o o o o o o o o o o o o o > 1 e a z S ! } ' A l A R U L L ",
"H L L L I L N d A E } { E N p ; * o o o o o o o o o o o o o o o o o o o o o o o o o o o o o o o > ; > u C ! [ } I b l D R I J I ",
"J L L L U P N g h A ! [ ) F f ; % o o o o o o o o o o o o o o o o o o o o o o o o o o o o o o o o @ 4 k U { ` T V k l F R L J T ",
"P I P L I P V h h v F E ! F a $ o o o o o o o o o o o o o o o o o o o o o o o o o o o o o o o o o @ 6 l P ) E A N h h F T P L T ",
"T T I L I L N g A V A U E D a @ o o o o o o o o o o o o o o o o o o o o o o o o o o o o o o o o o * 4 p N I L V A h g A R I L U ",
"L P L L I P V g T Q H N D N u 1 o o o o o o o o o o o o o o o o o o o o o o o o o o o o o o o o o o 6 l N N V F o.S c S L I R U ",
"L P L L I P V g I ( E D V k e 9 o o o o o o o o o o o o o o o o o o o o o o o o o o o o o o o o @ @ > a c V U )  .C z D L I T I ",
"P P P L U P V h D ) [ Q H l 6 6 o o o o o o o o o o o o o o o o o o o o o o o o o o o o o o o o @ @ 1 d b J / X.) m z F P I U P ",
"P I P P U I V h m Q [ [ ( A r ; o o o o o o o o o o o o o o o o o o o o o o o o o o o o o o o o o @ 6 z L ~ ) ( E c l F I I U L ",
"I I P P U I C h M L I R ) I d * o o o o o o o o o o o o o o o o o o o o o o o o o o o o o o o o o o 1 c Q  .' T U l l H I P I L ",
"I U I I U U C h A S b b L H f > % o o o o o o o o o o o o o o o o o o o o o o o o o o o o o o o @ o $ f U X.} Q I l z H P L I L ",
"I U I I U U A k C F N b A m y 1 % + o o o o o o o o o o o o o o o o o o o o o o o o o o o o o o o @ > d H ` ' E U z z J L L I I ",
"U U I I T U A k b L U F S l 1 * % + o o o o o o o o o o o o o o o o o o o o o o o o o o o o o o o ; u z F E E J T c c J L J I I ",
"U U I P U P N g k m A P Q C r 4 7 % o o o o o o o o o o o o o o o o o o o o o o o o o o o o o o o @ 6 l L ~ R S h a k D U L H L ",
"U U I P U P V g m S C N C z 9 4 7 % o o o o o o o o o o o o o o o o o o o o o o o o o o o o o o o ; 9 d b S A b U N z V L P L I ",
"I U I P U P V h F E J z l g e 9 7 % o o o o o o o o o o o o o o o o o o o o o o o o o o o o o o @ 1 9 u h m N m ) D z N P U P L ",
"I I P P U I V h J [ / A M v p 6 7 * o o o o o o o o o o o o o o o o o o o o o o o o o o o o o o @ ; 6 d N I R I F v l S E R L F ",
"P I P P U I C h V '  .~ E F d ; 7 % o o o o o o o o o o o o o o o o o o o o o o o o o o o o o o o @ 4 k U  . ./ z g l F R U J L ",
"L P P P U U A h c Q  . .{ I a @ 7 % o o o o o o o o o o o o o o o o o o o o o o o o o o o o o o o @ 1 l E o. .Q V c c S L L L E ",
"L P L P U U A k b U ) }  .P u ; 7 % o o o o o o o o o o o o o o o o o o o o o o o o o o o o o o o @ 4 h P ' ( I P N c A I I P T ",
"L P L P U U A k S I E '  .L p 9 7 % o o o o o o o o o o o o o o o o o o o o o o o o o o o o o o o $ 6 g S E Q P P m z D Q E L H ",
"J L L L I I C h N U ~ ' [ J u ; 9 , o o o o o o o o o o o o o o o o o o o o o o o o o o o o o o @ @ ; d S E ~ ~ ) N v F J J U T ",
"L L L L U I C h v D H L U V y 4 9 , o o o o o o o o o o o o o o o o o o o o o o o o o o o o o o o o 1 d N L T E T z z H P L U I ",
"L P L L U I C h h b v v N k 6 4 9 , o o o o o o o o o o o o o o o o o o o o o o o o o o o o o o o @ 6 a k c b m F f k J U P I L ",
"P I P P U I C h z V V V S c 9 4 9 , o o o o o o o o o o o o o o o o o o o o o o o o o o o o o o o @ 4 d v N N m F f k J U P I L ",
"I U I P U I C h S E ~ ) ` H p 4 9 , o o o o o o o o o o o o o o o o o o o o o o o o o o o o o o o o ; k U [ [ ) U z z H P L U P ",
"U U I I U I C h S ! [ X.o.I u * 9 , o o o o o o o o o o o o o o o o o o o o o o o o o o o o o o o o $ k E o.o.{ E b z F L L U U ",
"U U U I U I C h b I ( {  .L y @ 9 , o o o o o o o o o o o o o o o o o o o o o o o o o o o o o o @ o ; f F ~ ~ E E v z H L L U U ",
"U T U I U I C h b P ~ [  .I d 6 9 , o o o o o o o o o o o o o o o o o o o o o o o o o o o o o o o o ; d C U ! ! U z z J P L U I ",
"U U I P U P V g N E ( ) [ P d > y 1 * o o o o o o o o o o o o o o o o o o o o o o o o o o o o o o o o y z N F T U z z J P L L J ",
"U U I P U P V g z L R E ~ H a > y 1 * o o o o o o o o o o o o o o o o o o o o o o o o o o o o o @ o 1 k C C m b E v z H L J P L ",
"U U I P U P V g D E Q R R A r * 9 1 * o o o o o o o o o o o o o o o o o o o o o o o o o o o o o o o 4 v L U F A E v z F L J P L ",
"U U I P U P V g H E U F H m r > 9 1 o o o o o o o o o o o o o o o o o o o o o o o o o o o o o o o o ; d N L U U P k l H P L P L ",
"U U I P U P V g h M b z m c u e 9 , o o o o o o o o o o o o o o o o o o o o o o o o o o o o o o @ * 1 e d z M N A d h J U P P H ",
"U U I P U P V g h N N b V c e 1 7 * o o o o o o o o o o o o o o o o o o o o o o o o o o o o o o o * e a z N V m A d h J U P P J ",
"U U I P U P V g C E ~ Q ! A e @ 1 * o o o o o o o o o o o o o o o o o o o o o o o o o o o o o o o @ 6 k L ' ) U P k l H P L U P ",
"U U I P U P V g V ~ } X.o.R d $ 1 * o o o o o o o o o o o o o o o o o o o o o o o o o o o o o o * @ ; f R @.+./ ~ b z F J J U T ",
"U U I P U P V g C U Q ) { I d 1 1 * o o o o o o o o o o o o o o o o o o o o o o o o o o o o o o o 1 4 g Q o.` E R v c J L L U U ",
"U U I P U P V g V H L E ' I a * , % o o o o o o o o o o o o o o o o o o o o o o o o o o o o o o o ; 1 g Q o.[ ~ U z z J U I U P ",
"U U I P U P V g c M N J ( I a @ * % o o o o o o o o o o o o o o o o o o o o o o o o o o o o o o o * > f R [ / E U l k H U U U J ",
"U U I P U P V g d c M J / L d ; * o o o o o o o o o o o o o o o o o o o o o o o o o o o o o o o o ; > d L ! U I Q c l F U U U J ",
"U U I P U P V g h A L E ( H a 4 o o o o o o o o o o o o o o o o o o o o o o o o o o o o o o o o o ; 1 f J T L U ( m z F P I U P ",
"U U I P U P V g m L R E E V y 6 o o o o o o o o o o o o o o o o o o o o o o o o o o o o o o o o o ; 1 f F L H T E v c H L L U U ",
"U U I P U P V g b C N N A z 9 4 o o o o o o o o o o o o o o o o o o o o o o o o o o o o o o o o o ; ; p N M v A A g z L P L U R ",
"U U I P U P V g d d e e h f 4 1 o o o o o o o o o o o o o o o o o o o o o o o o o o o o o o o o $ ; * e h a e f l r z I U L U R "
};
