/* XPM */
static char *rcp0621328358711[] = {
/* columns rows colors chars-per-pixel */
"64 64 181 2 ",
"   c #020305",
".  c #060806",
"X  c #05060A",
"o  c #08070C",
"O  c #07090B",
"+  c #0A0B0D",
"@  c #061008",
"#  c #0F110F",
"$  c #0C0D11",
"%  c #0F1012",
"&  c #121316",
"*  c #161817",
"=  c #151619",
"-  c #17181B",
";  c #1A1B1D",
":  c #210F0D",
">  c #24100F",
",  c #2B0E12",
"<  c #241413",
"1  c #291616",
"2  c #2B1814",
"3  c #2B1718",
"4  c #2D1C1D",
"5  c #301615",
"6  c #311418",
"7  c #331C1D",
"8  c #3B1C1E",
"9  c #1B221E",
"0  c #36211C",
"q  c #3C211D",
"w  c #1D1E21",
"e  c #2D1D20",
"r  c #331F20",
"t  c #3A1D22",
"y  c #1F2023",
"u  c #1F222B",
"i  c #212225",
"p  c #2D2323",
"a  c #242529",
"s  c #2B272A",
"d  c #27282B",
"f  c #2A2B2D",
"g  c #352324",
"h  c #3B2223",
"j  c #322927",
"k  c #372728",
"l  c #3C262A",
"z  c #352A2C",
"x  c #3B2A2C",
"c  c #2C322E",
"v  c #262C30",
"b  c #2D2E31",
"n  c #2F2F39",
"m  c #322D32",
"M  c #3B2E31",
"N  c #273133",
"B  c #2F3033",
"V  c #2E3439",
"C  c #333436",
"Z  c #3B3234",
"A  c #323B36",
"S  c #353639",
"D  c #3A363B",
"F  c #36383B",
"G  c #3A3A3D",
"H  c #651F1D",
"J  c #771F1B",
"K  c #41231F",
"L  c #50251F",
"P  c #5A251D",
"I  c #61261E",
"U  c #74221E",
"Y  c #79201C",
"T  c #461F24",
"R  c #432324",
"E  c #4C2324",
"W  c #462A26",
"Q  c #4D2924",
"!  c #42252A",
"~  c #4A262A",
"^  c #462A2B",
"/  c #4D2B2A",
"(  c #532626",
")  c #5B2423",
"_  c #542A25",
"`  c #5A2B25",
"'  c #542C2B",
"]  c #5C2D2C",
"[  c #53302E",
"{  c #5B332D",
"}  c #452E34",
"|  c #542E32",
" . c #5B2D30",
".. c #423134",
"X. c #42363B",
"o. c #423B3D",
"O. c #4B3B3E",
"+. c #513230",
"@. c #5D3132",
"#. c #5F363A",
"$. c #612223",
"%. c #6C2526",
"&. c #672B23",
"*. c #6D2C25",
"=. c #692728",
"-. c #632D2A",
";. c #6B2D2B",
":. c #732622",
">. c #7B2422",
",. c #752824",
"<. c #7B2924",
"1. c #752E2C",
"2. c #7B2B2A",
"3. c #64322B",
"4. c #6B312F",
"5. c #75322C",
"6. c #7C332D",
"7. c #642E31",
"8. c #792F30",
"9. c #663335",
"0. c #6C3232",
"q. c #613739",
"w. c #62383A",
"e. c #6C3B3D",
"r. c #743232",
"t. c #7C3335",
"y. c #753A34",
"u. c #7F3937",
"i. c #743739",
"p. c #343540",
"a. c #363C40",
"s. c #3C3D42",
"d. c #423D43",
"f. c #4B3C42",
"g. c #6D3C40",
"h. c #793B40",
"j. c #374242",
"k. c #3F4144",
"l. c #3E424A",
"z. c #3F494A",
"x. c #414246",
"c. c #4B4245",
"v. c #434947",
"b. c #44444A",
"n. c #4A454B",
"m. c #45494C",
"M. c #494A4E",
"N. c #504348",
"B. c #524D4D",
"V. c #454750",
"C. c #464B52",
"Z. c #4C4D52",
"A. c #474E58",
"S. c #4A4D58",
"D. c #524D53",
"F. c #504E5A",
"G. c #455151",
"H. c #4D5155",
"J. c #4E535A",
"K. c #4D585A",
"L. c #515256",
"P. c #5A5656",
"I. c #53545A",
"U. c #58575E",
"Y. c #555A5E",
"T. c #5C5859",
"R. c #6F4144",
"E. c #7D4A4F",
"W. c #545561",
"Q. c #545962",
"!. c #5C5C62",
"~. c #5C5F68",
"^. c #5C6069",
"/. c #64646B",
"(. c #822C2A",
"). c #81322B",
"_. c #833333",
"`. c #8A3230",
"'. c #8D3E3E",
"]. c #903636",
"[. c #903D3D",
/* pixels */
"S S S S S S S S S S S C B B C S C S S S C C C S G G F C a - & & = - = = ; d C F C C C S F S C C B C S F F S S C S S S S S C C C ",
"S S S S S S S S C S S C C C C S s.S C S G G C d a a a f C S C b b b b b f i a a f v b C C C S S S C C C S F S C S S S S S C C C ",
"S S S S S S S S C S S S C C S F F S C C F F B f w w - w C Z.Z.m.b.b.Z.Z.s.d w w w a b S S C C S G S C C S S S S S S S S C C C C ",
"S S S S S S S S C S S S S S S S C S F C f a f b a.F d w d x.Z.Z.M.m.Z.Z.k.f i b B b f a a b S F S S S S C C S S S S S C C C C C ",
"S S S S S S S S S C C S S S S C S S C v a i a v Z.Z.m.C d C s.x.x.s.s.s.C v C x.L.b.b ; - a C S b S G F C B C S S S C C C C C C ",
"S S S S S S S S S C C C S S C B b a w i b S F S b.Z.Z.x.C d b F s.a.F b f b s.Z.m.m.s.C v v a ; f C F F C B C S C C C C C C C C ",
"S S S S S S S S S C C C C C b f a d f b C F s.x.a.S S F b w w d v C b a i b F S f a.b.s.S C b i b b b C C C C C C C C C C C C C ",
"S S S S S S S S S C C C C C f d v k.Z.b.b w v s.G a - w w & & w $ w w & & y i = d F F d w b b.L.C f a f C F S C C C C C C C C C ",
"S S S S S S S C B G C C s.b w f C x.Z.b.a.S b a a - $ X X $ $ $ + + + + + + + + w a a a B x.M.m.G G B i a S G C C B C C C S C C ",
"S S S S S S S S f F C f b i ; b x.b.x.s.s.F i + $ $ o o + + + o X X X X o X X X & = ; a S b.m.k.s.S f a d B C B C C C C C C C C ",
"C C C C C S S S B F C d i - ; b k.s.a.F C d &   o $ = w w w - - ; ; w ; w w ; w $ + + & d F s.S b.C i ; w a B F C C C C C C S S ",
"C C C C C C S S F S f f f a a b v S F b - $ $ & & w b S S B b b C C C C C C C C w = + o & a B S S d i a f d f C C C C C C C S S ",
"C C C C C C S S G f a C G x.G C d b b w + X - b a C s.x.k.s.s.x.s.s.s.s.s.s.s.s.S b y = $ & i b i a S b.b.C i w b C S S C C S S ",
"C C C C C C S S C w i F m.L.M.G S a - & & w b a.s.b.Z.Z.M.m.Z.Z.Z.Z.Z.Z.Z.Z.Z.Z.s.G S v ; $ $ = b S x.m.k.C d d d f C S S C C S ",
"B B C C C C C S d ; d s.x.b.M.F C w $ & a S s.b.Z.L.I.I.L.Z.L.I.I.I.I.I.I.I.I.I.x.x.x.s.v = + $ f F x.F f f C F y d C F S C C S ",
"B B C C C C C S a w C x.C C G C w % + - v a.C.L.J.L.I.L.J.H.H.L.Z.Z.Z.Z.Z.Z.Z.H.I.Z.Z.Z.s.a - = + d x.s.C f b f ; a C F S C C S ",
"C B f f C F C d d f f d C G C w + . % d s.V.A.J.Q.J.S.J.J.A.H.L.F.F.F.F.L.I.Y.Y.J.L.L.Z.M.s.a + + $ f x.G C f f b a d S S f f S ",
"C C B b C S f i C S C f b S B i + . % f C.Y.K.J.J.A.A.J.Q.Y.Y.Y.W.W.I.I.F.S.J.J.J.J.L.L.Z.d.s & . + a G C d f f G f i B S C f C ",
"C C C C C C a ; S G G b a a y * # # ; C m.I.Q.Q.Q.J.C.C.C.m.M.Z.F.F.F.J.J.J.K.Y.J.J.J.J.H.b.B w + + ; f i i B F M.b w f F S C C ",
"C C C C C C a = C s.x.F f ; & + + 9 C G F a.C.^.Q.J.Z.x.s.D s.b.Z.Z.Z.A.H.J.J.J.H.K.J.K.H.m.F d ; + + - ; d s.M.b.f ; d F S C C ",
"B C C C S C a = f G M.m.G a & X + a k.v.F B s.C.x.m.Z.Z.d.Z X.f.n.b.d.x.k.z.l.z.G.G.G.H.H.G.j.N i +   = a F b.M.S i ; f F S C S ",
"C C C C S C a ; ; f G b.x.b - X + i G M.C.l.F b C d.D.D.f.x g l z z z m Z F k.z.v.G.G.G.G.m.j.V y . . y S b.v.F d ; ; b F C C F ",
"C S C C S C d ; ; i b G G b =   O i s.Z.I.H.l.C D d.f.f.} t 6 6 7 7 4 e j Z G v.k.v.v.z.z.z.j.V w   X i S k.G f a ; ; b F C C F ",
"F F S C S C a ; f d f S G f =     i b.H.Z.Z.Z.Z.b.X.M l ! R T E ~ R t 7 7 g x Z o.x.b.k.k.k.F B i X   ; f C C a f ; ; f F S C S ",
"C C C C S C d ; F G B d f a & + o i s.Z.H.L.L.D.D.N.l , 8 w.R.9.E.g.@.' W 7 7 l X.o.c.c.s.b.x.b i   + ; i f i f Z.f y f C S F S ",
"C C C C S C d ; S x.G f d ; $ + + i s.Z.I.I.L.D.c...t 8 E ] 7.;.h.i.0.9. .E R h l ..f.c.d.c.b.C a   + = ; f C x.M.d w f C S F S ",
"C C C C S C d ; f x.b.G B ; + + o i s.Z.I.L.Z.n.X.l ! | 7.) $.1.t.t.t.0.7.] ' R h x O.c.d.c.d.m a   + = y S G M.x.i w f C S S C ",
"C S C C S S d ; i G b.b.x.f % X X w s.Z.H.Z.b.o.x l | e.i.=.%.t._._.8.%.$.-.@./ R l O.N.n.n.d.f i   + w B x.s.k.G y ; b S S S C ",
"S S C C S S d ; a C S F x.S = X + a s.Z.L.Z.x.Z 4 ^ #.e.i.t._._._._.2.H ) -.] Q h r M c.D.P.Z.S i   + w F Z.x.F S ; ; B S C S C ",
"S S S S S S d ; f f i i C b = o $ a s.Z.L.Z.d.Z 1 / q.0.r.'.[.(.>.<.,.*.=.-._ K 5 < p o.Z.Y.I.k.i   . = C H.b.G S ; ; B C C S C ",
"S S S S S S f ; d b a i f i & + $ a a.m.Z.n.G z 3 ^ @.;.t.[.].>.>.U ,.5.y.3.Q K 2 < p F k.v.z.F y   + = f m.x.G S w w C C C S S ",
"S S S S F S f ; i C S b f ; + X $ w C x.b.x.Z p 7 W ] 4.u.'.`.Y <.U :.6.y.3._ Q 0 4 j S b v N a w X & ; f s.S B F y y C C C S S ",
"S S S C S C a ; ; i f C G d % + $ y F b.b.x.Z k > W @.3.*.6.).U J U ,.1.5.0.] / 8 4 k D F F a.V y   + ; B x.S C ; = ; f S C B C ",
"S S S C S C d ; i f d a d w + + $ y F x.b.d.Z j : q { 3.*.5.6.<.(.2.2.1.r.0.@.[ 8 4 z f.b.m.x.B i   + = i b a a S a w d C C C S ",
"S S S C S C d ; b G C w ; ; $ + $ a F x.x.G Z j 1 q / { -.&.*.5._.6.1.*.;.-.@.+.l g M n.Z.L.Z.F i . + & ; a i a x.f w a C S C C ",
"S S C C S S d ; C b.k.f a i & $ $ a F x.x.s.D Z k g R ' ` P I *.5.*.=.) ( ( / ^ ..M o.M.Z.L.A.F y   + - a S C C b i ; f G F C b ",
"C S C C S S d ; d b.M.s.G b = X $ e p.x.b.x.s.G X.k 7 R Q L ) 3.-.` ` E R R h h ..X.Z.Y.L.Q.S.p.w   O w S M.v.s.w ; ; b F S C C ",
"C C C C S S f ; y G M.M.m.S =   $ e p.x.b.x.x.d.d.z 7 h R R Q ' ' ' / W h h k z f.n.!./.~.~.Q.s.i   X w G L.b.G d y y f C C C G ",
"C C C C S S f ; i S x.M.M.C & X $ a a.b.l.b.b.x.d.D M k g 7 q K W ^ ! h l x o.n.I.I.Y.J.C.J.S.F i   + ; C m.s.F C a y f S S C F ",
"C C C C S S f ; f S G b.M.C & $ $ a a.x.l.s.l.l.x.b.c.Z p 1 1 1 g g p p z o.L.!./.H.s.v u V p.u i   + ; f s.F G C i w f G G C B ",
"C C C C S S d ; a S s.b.b.C & X + y F s.l.b.V.b.s.Z.I.L.c.Z z z p p s s f S G k.m.s.s.p.V S p.v i O . ; f G x.G x.a i b C C S F ",
"C C C C S S d ; i f B C S d & + + y G m.b.b.b.l.L.Y.U.Y.L.B.B.B.f f f f f b B V N b s.b.b.V.b.C w X X ; a C G F F w w B C C S S ",
"C C C C S S d ; ; i i i a ; + + O i k.H.Y.Y.W.Y.J.V.s.F D F D S G G F F F F F F V F m.H.H.Z.m.m w + + - ; y a i b - ; C S C S C ",
"C S C C S S d ; w d d d f y + + + i k.Z.H.L.Y.I.C.l.F b b B b b b.b.m.m.m.m.m.m.C.m.H.H.Z.Z.n.C w + O ; i a d i f - ; C S C S C ",
"S S S C S S d ; f F s.x.v.B & + + y B A S C C n p.a.s.s.x.x.x.b.n.Z.Z.A.H.H.H.H.H.H.H.Z.Z.I.D.D ;     w S b.M.k.S ; w B C C S C ",
"S S S S S S d ; f G b.M.Z.S &   + 9 c C B B C C n a.b.Z.M.M.M.Z.D.D.L.L.H.H.H.H.H.H.L.L.D.T.D.Z w     w G M.L.b.G i w b C C S S ",
"S S S S F S d ; i S x.m.M.C &   @ 9 A k.v.b.Z.Z.m.Z.Y.U.I.L.H.L.I.Y.I.I.L.J.L.H.L.H.L.M.M.P.B.m i X   ; b G x.F G i w B C C S S ",
"S F S S F S d ; i C G b.M.S = + O y G v.m.Z.Z.Z.Z.Z.F.L.H.Z.H.L.L.L.D.S.H.H.H.L.H.M.M.x.c.P.P.G i X . ; d S s.G S w w C C C S S ",
"S S S C S C d ; a G x.x.b.C = O + i s.H.L.L.L.I.L.L.I.I.L.L.L.L.L.L.L.L.I.I.Z.Z.I.b.s.x.n.L.Z.S y   + & ; b B F S w w C C C C C ",
"S S S C S C d ; w C F G s.B = O $ i s.H.I.L.L.L.L.L.L.I.I.L.L.L.L.L.H.L.L.L.Z.M.b.x.M.Z.Z.M.k.f i X & ; a B a i G i w B C C C C ",
"S S S C S C d ; f G G F F f % . + y s.L.I.L.L.L.L.L.L.I.I.L.L.L.Z.Z.Z.Z.Z.Z.m.b.s.x.L.I.b.s.S a y   & i b G b f G i w b C C C C ",
"S S S C S C d ; B G S b B i % O + y s.L.I.L.L.L.L.L.L.L.L.H.Z.Z.b.b.x.x.x.x.x.x.m.m.Z.M.F F G C y   + - i S C F C ; ; B C C C C ",
"S S S C S C d ; ; a i w i y & + $ i s.L.I.L.H.L.L.L.L.H.Z.Z.m.m.x.k.k.s.s.s.x.x.L.M.b.k.F s.b.G i X + % & i i f f = ; C S C C B ",
"S S S C S C d ; ; a a i d y $ + $ i s.Z.Z.Z.Z.Z.Z.Z.Z.Z.M.m.x.x.x.x.x.x.k.x.m.Z.Z.x.k.x.x.Z.M.F w   % - ; d i a f = ; C S C C C ",
"S S S C S C d ; d G s.G G f $   $ y F b.m.b.b.M.m.m.m.b.b.x.x.k.x.x.x.x.x.b.Z.L.b.G s.b.M.L.M.C w   + w C b.G G C ; ; B C C S C ",
"S S S C S C d ; d s.M.M.Z.F =   $ w S x.x.k.x.b.x.x.x.x.x.x.x.k.k.x.x.x.x.b.Z.I.x.F G x.m.H.M.C a   X ; S L.M.v.s.i w b C C S F ",
"S S S C S C d ; d S G x.m.S = + $ i S s.k.x.b.b.x.x.x.x.x.x.x.x.b.x.s.s.Z.!.Z.b S b.Z.M.m.m.s.b i   + ; S H.b.F F i y C C C S S ",
"S S S C S C d ; d B C G b.S = . $ i F x.x.x.b.b.x.x.x.x.x.x.x.x.b.s.x.L.L.b.a.s.s.M.Z.b.b.m.s.C w   + ; S H.b.G S ; ; C S S S C ",
"S S S C S C d ; y a a C x.S =   $ i F x.x.x.x.x.x.x.x.x.x.x.x.x.k.x.Z.Y.M.S F b.m.M.b.s.k.b.k.S w   + ; C M.x.G S ; ; B S S S C ",
"S S S C S C d ; = y a C k.C = X o w S x.x.x.x.x.x.x.x.x.x.x.x.x.s.H.I.b.G s.b.b.M.M.x.s.k.b.s.S y   + ; f s.F S G i ; b S S S C ",
"S S S C S C d ; ; f C G x.B = + + w S k.x.x.b.x.b.b.b.b.b.b.b.b.Z.L.M.G G m.H.Z.M.m.x.x.b.b.s.S i   + ; f G C S x.i w b C S S C ",
"S S S C S C d ; i C F G G d & + $ a F s.s.k.x.x.x.x.x.x.x.x.x.x.!.x.C G x.x.m.L.x.x.k.x.x.x.a.S i   + ; d S C S G i y B C C S S ",
"S S S C S C d ; i d a a f w + + $ i C F S S S F F F S S S S S S m.C f C a.F F k.S S S F S C B B i   + - w a i f f ; w C C C S F ",
"S S S C S C d ; = = $ $ ; - + + $ w b b f d f f v v f f f f f f i b b a d C b a f d d d d i a f i   O & & = % - ; % w S S C S F "
};
