/* XPM */
static char *rcp06204783587435[] = {
/* columns rows colors chars-per-pixel */
"64 64 218 2 ",
"   c #020305",
".  c #05060A",
"X  c #06090B",
"o  c #0A0A0D",
"O  c #0D050B",
"+  c #140000",
"@  c #1C0201",
"#  c #1C0C0B",
"$  c #0C0D11",
"%  c #0E1012",
"&  c #121315",
"*  c #151619",
"=  c #17181B",
"-  c #1A1B1D",
";  c #161B15",
":  c #220302",
">  c #2B0302",
",  c #2D0906",
"<  c #2D0709",
"1  c #220C0C",
"2  c #2B0C0A",
"3  c #230409",
"4  c #340504",
"5  c #3B0806",
"6  c #340A0A",
"7  c #3B0C0B",
"8  c #3A0307",
"9  c #24100F",
"0  c #250D11",
"q  c #2F0F12",
"w  c #390C11",
"e  c #241415",
"r  c #291514",
"t  c #211B17",
"y  c #241719",
"u  c #251D1C",
"i  c #2A1B1E",
"p  c #331513",
"a  c #321A1D",
"s  c #391B1C",
"d  c #3E1012",
"f  c #1E221D",
"g  c #2C221E",
"h  c #35201D",
"j  c #1D1E21",
"k  c #211E22",
"l  c #291E23",
"z  c #172322",
"x  c #1E2123",
"c  c #1D2228",
"v  c #222225",
"b  c #2B2424",
"n  c #242629",
"m  c #2C252B",
"M  c #27282B",
"N  c #2A2B2D",
"B  c #332423",
"V  c #32232A",
"C  c #352A2C",
"Z  c #3C2626",
"A  c #2A312F",
"S  c #34322E",
"D  c #232D32",
"F  c #2D2E31",
"G  c #322E33",
"H  c #3B2C34",
"J  c #3F2D39",
"K  c #2E3133",
"L  c #2D3937",
"P  c #2C3539",
"I  c #2D383E",
"U  c #333436",
"Y  c #393434",
"T  c #363C37",
"R  c #3D3A36",
"E  c #353639",
"W  c #3C363B",
"Q  c #36393B",
"!  c #3A3B3D",
"~  c #440B0D",
"^  c #4B0708",
"/  c #580F09",
"(  c #42110D",
")  c #4A130E",
"_  c #54120F",
"`  c #5C130C",
"'  c #530E10",
"]  c #431211",
"[  c #4A1412",
"{  c #4F1C19",
"}  c #541612",
"|  c #561916",
" . c #531C19",
".. c #5D1D1A",
"X. c #5C1814",
"o. c #650F0E",
"O. c #760D00",
"+. c #63130C",
"@. c #6C160C",
"#. c #6C1207",
"$. c #7F1300",
"%. c #781606",
"&. c #7F0E12",
"*. c #611D15",
"=. c #6B1A14",
"-. c #611F1C",
";. c #691719",
":. c #7A1215",
">. c #751C11",
",. c #7D1F15",
"<. c #78181A",
"1. c #62211A",
"2. c #6D241D",
"3. c #742117",
"4. c #74241B",
"5. c #792218",
"6. c #421F23",
"7. c #6A1E24",
"8. c #781C21",
"9. c #412429",
"0. c #422F31",
"q. c #4C373A",
"w. c #453C3F",
"e. c #443133",
"r. c #692325",
"t. c #742728",
"y. c #35413F",
"u. c #3B433E",
"i. c #343E41",
"p. c #3C3E42",
"a. c #333740",
"s. c #483643",
"d. c #423E44",
"f. c #463A46",
"g. c #533F41",
"h. c #354042",
"j. c #3D4144",
"k. c #3C4945",
"l. c #3D4449",
"z. c #3D4B4A",
"x. c #414246",
"c. c #4A4346",
"v. c #444947",
"b. c #444549",
"n. c #4B444B",
"m. c #45494C",
"M. c #494A4E",
"N. c #54474A",
"B. c #554A4D",
"V. c #41524E",
"C. c #4B514F",
"Z. c #454B52",
"A. c #4C4D52",
"S. c #4C4E59",
"D. c #514E55",
"F. c #554E5A",
"G. c #5B4D5A",
"H. c #445252",
"J. c #4C5255",
"K. c #4F5857",
"L. c #4C545A",
"P. c #4C5A5B",
"I. c #515256",
"U. c #535459",
"Y. c #58545B",
"T. c #545A5C",
"R. c #595C5E",
"E. c #5B5054",
"W. c #625C5E",
"Q. c #5A5362",
"!. c #505960",
"~. c #5B5C61",
"^. c #665B61",
"/. c #5B6262",
"(. c #546265",
"). c #676568",
"_. c #8A0B00",
"`. c #880900",
"'. c #990E07",
"]. c #831101",
"[. c #841B0C",
"{. c #891707",
"}. c #911100",
"|. c #981708",
" X c #810C12",
".X c #821A1C",
"XX c #881A17",
"oX c #97161B",
"OX c #A01D0B",
"+X c #A4171D",
"@X c #832114",
"#X c #8D2213",
"$X c #8C2618",
"%X c #82211B",
"&X c #962210",
"*X c #90281F",
"=X c #982218",
"-X c #A7261B",
";X c #851A20",
":X c #9C1F25",
">X c #8F2922",
",X c #882329",
"<X c #932423",
"1X c #97272D",
"2X c #882D31",
"3X c #8B3035",
"4X c #AF2120",
"5X c #A72924",
"6X c #A62027",
"7X c #B42725",
"8X c #B3282B",
"9X c #B0332F",
"0X c #AF2E33",
"qX c #B22E32",
"wX c #BE2D32",
"eX c #B63834",
"rX c #A83431",
"tX c #973E42",
/* pixels */
"E E E E E E E E E E E U K K U E U E E E U U U E ! ! Q U n = & & * = * * - M U Q U U U E Q E U U K U E Q Q E E U E E E E E U U U ",
"E E E E E E E E U E E U U U U E p.E U E ! ! U M v v v N U Q U F F F F F N n v v N F F U U U E Q E U U U E Q E U E E E E E U U U ",
"E E E E E E E E U E E E U U E Q Q E U U Q Q F N j j = j U A.A.m.b.b.A.A.p.M j j j n F E E U U U ! E U U E E E E E E E E U U U U ",
"E E E E E E E E U E E E E E E E U E Q U N n N F p.Q M j M x.A.A.M.m.A.A.j.N n F F F F n n F E Q E E E E U U E E E E E U U U U U ",
"E E E E E E E E E U U E E E E U E E U F v v n F A.A.m.U M U p.x.x.p.p.p.U F U x.I.b.F - = n U U F E ! Q U K U E E E U U U U U U ",
"E E E E E E E E E U U U E E U K F n j v F E Q E b.A.A.x.U M F Q p.p.Q F N F p.A.m.m.p.U F F n - N U Q Q U K U E U U U U U U U U ",
"E E E E E E E E E U U U U U F N n M N F U Q p.x.p.E E Q F j j M F U F v v F Q E N p.b.p.E U F v F F F U U U U U U U U U U U U U ",
"E E E E E E E E E U U U U U N M F j.A.b.F j F p.! v = j j & & j $ j j & & x v * M Q Q n j F m.I.U N n N U Q E U U U U U U U U U ",
"E E E E E E E U K ! U U p.F j N U x.A.b.p.E F n v = $ . X $ $ $ o o o o o o o o j v n n K x.m.m.! ! K v n E ! U U K U U U E U U ",
"E E E E E E E E N Q U N F v - F x.x.x.p.p.Q v o $ $ X X o $ o X . . . . X . . X & * - v E b.m.j.p.E N n M K U K U U U U U U U U ",
"U U U U U E E E K Q U M v = - F j.p.p.Q U M &   X $ * j j j = = - - j - j j j j $ o o & M Q p.Q b.U v - j n K Q U U U U U U E E ",
"U U U U U U E E Q E N N N n n F F E Q F = $ $ & & j F E U F F F U U U U U U U U j * o X & v K E E M v n N M N U U U U U U U E E ",
"U U U U U U E E ! N n U ! x.! U M F F j o . = F M U p.x.p.p.p.x.p.p.p.p.p.p.p.p.E F x * $ & v F v n E b.b.U v j F U E E U U E E ",
"U U U U U U E E U j v Q m.I.M.! E n = & & j F p.p.b.A.A.M.m.A.A.A.A.A.A.A.A.A.A.p.p.Q F - $ $ * F E x.m.j.U M M M N U E E U U E ",
"K K U U U U U E M - M p.x.b.m.Q U j $ & v E p.b.A.I.U.U.I.J.I.U.U.U.U.U.U.U.U.U.x.x.b.p.F * $ $ N Q x.Q N N U Q x M U Q E U U E ",
"K K U U U U U E n j U x.U U ! U j % o * F p.M.I.I.I.U.I.I.D.I.I.A.A.D.D.D.D.D.D.I.A.A.A.p.n * * o M x.p.U N F N - n U Q E U U E ",
"U K N N U Q U M M N N M U ! U j o . % M p.m.A.I.D.D.F.D.F.F.F.D.S.S.D.F.G.G.G.F.U.T.U.J.m.T z X X o N x.! U F N F n M E E N N E ",
"U U K F U E N v U E U N F E K v $ . % N M.U.U.I.I.D.D.I.Q.Q.Q.U.L.L.Y.Y.G.G.G.F.U.U.K.J.H.k.n %   o n ! E M N N ! N v K E U N U ",
"U U U U U U n - E ! ! F n n x * $ & - U m.I.T.T.R.U.A.Z.Z.Z.Z.Z.H.H.L.I.U.Y.Y.U.A.K.K.J.J.v.U k o X - N n v K Q m.F j N E E U U ",
"U U U U U U n * U p.x.Q N - & X o k E ! Q ! M./.T.J.m.l.i.i.h.z.H.H.Z.A.A.D.I.J.J.L.P.L.J.M.W m - o o - - M p.m.b.N - M Q E U U ",
"K U U U E U n * N ! m.m.! M & . o m x.b.Q K y.m.k.z.V.z.h.L L k.h.u.u.! j.x.v.v.H.H.P.J.J.M.s.H v X   * n Q b.m.E v - N Q E U E ",
"U U U U E U n - - N ! b.x.K = . o v ! M.M.k.T A T h.m.m.Q x ; - - t t u b U u.k.z.z.H.H.M.n.s.H k . . x E b.x.Q M - - F Q U U Q ",
"U E U U E U M - - v F ! ! F *   X v ! A.I.J.k.K h.! R R B # + + : : @ @ 9 g Y u.h.k.z.z.b.c.s.J k . . v E j.! N n - - F Q U U Q ",
"E Q E U E U n - N M N E ! N *     v x.J.J.J.J.C.b.Y B h p 6 4 7  .[ 7 4 6 p B S T u.k.h.j.x.s.W v .   - N U U n N - - N Q E U E ",
"U U U U E U M - Q ! K n N n & . % c h.J.J.Z.M.I.B.q.s > 8 -.t.t.tX2Xt.t.' > > Z R T k.z.j.x.f.G v   o - v N v N A.N v N U E Q E ",
"U U U U E U M - E x.! N M - $ o o z h.J.T.J.A.B.c.9.8 ^ ;.8.;X.XrX1X;X:.;.' 5 : B S j.z.i.j.p.U n   X * - N U x.M.M j N U E Q E ",
"U U U U E U M - N x.b.! K - o o X z T J.T.J.n.w.9.w ~ 7.,XXXoX6XqX0X:X X:.8.} > 2 g R k.i.i.i.P n   o * x E ! M.x.v j N U E E U ",
"U E U U E E M - v ! b.b.x.N % . o z T H.K.A.W V 3 7 7.3X1XoX+XwX8XeXqXoX&.<.;.} , e C j.l.z.l.P x   o j K x.p.j.! x - F E E E U ",
"E E U U E E M - n U E Q x.E * . o c p.A.U.A.Y i + ] t.2X<XoX4X7X-X5X5X=XXX:.=.r.4 @ u ! J.P.Z.P x   o j Q A.x.Q E - - K E U E U ",
"E E E E E E M - N N v v U K = X o v p.M.I.A.W l + d -.<.<X9X7X'.|.].{.=X<X.Xo._ 5 @ e Q K.(.P.i.v   . * U J.b.! E - - K U U E U ",
"E E E E E E N - M F n v N v & X O l W b.M.b.E i + 7 | =.>XeX-X`.].O.O.XX*X%X+.^ 4 : e Y b.m.l.I x   X * N m.x.! E j j U U U E E ",
"E E E E Q E N - v U E F N - o . O l W j.d.p.N e + 6 ..4.>XrX-X}.$.$.[.[.@X,.=.X.4 : i U K D D D j . & - N p.E K Q x x U U U E E ",
"E E E U E U n - - v N U ! M % o o v Q l.l.p.G y + 7 ..3.#X-XOX_._.].].#X$X>.+.| 6 : r W p.Q Q P x   o - K x.E U - * - N E U K U ",
"E E E U E U M - v N M n M j o o $ c Q j.l.p.N y + 7 1.3.[.&XOX|.}.}.{.[.@X4.1. .> @ e W b.b.j.P n   o * v F n n E n j M U U U E ",
"E E E U E U M - F ! U j - - $ $ $ x Q p.j.i.F u + 6  .2.>.[.{.&X&X=X#X%.>.4.1.] > 3 i W M.U.Z.P v . o & - n v n x.N j n U E U U ",
"E E U U E E M - U b.j.N n v & o o x Q p.j.p.E b # 2 ] ..=.#.O.[.$X$X,.@.+.X.[ 6 p a H w.m.T.J.P x   o = n E U U F v - N ! Q U F ",
"U E U U E E M - M b.M.p.! F * . o v Q j.l.l.p.U C r , ( } ` +.@.5.@.` ` ' 5 4 2 s 0.N.D.I.R.J.L x   . j E M.x.p.j - - F Q E U U ",
"U U U U E E N - x ! M.M.m.E *   o v Q p.l.m.b.p.c.B 1 , 7 ) } *.t.*._ } ~ > < a e.c.W.).R./.K.! x   . j ! I.b.! M x x N U U U ! ",
"U U U U E E N - v E x.m.M.U & . o v W p.j.b.m.j.b.W B r 2 , 7 ( { [ ] 6 < q Z q.E.E.Y.U.M.J.m.T v   X - U m.p.Q U n x N E E U Q ",
"U U U U E E N - N E ! b.M.U & o o v W p.p.l.l.j.p.x.d.C 1 + + @ @ @ @ + + B N.^.).I.p.K M K L M v   o - N p.Q ! U v j N ! ! U K ",
"U U U U E E M - n E p.b.b.U & . o k Q j.j.l.l.l.p.m.I.M.W b y e e 0 0 0 l C W b.M.p.p.Q K K U M x . . - N ! x.! x.n v F U U E Q ",
"U U U U E E M - v N K U E M & o o v ! b.b.b.l.l.K.U.U.J.M.b.x.d.C C V m m F F U K P p.b.k.v.j.L - . . - n U ! Q Q j j K U U E E ",
"U U U U E E M - - v v v n - o o o n x.I.U.U.T.U.J.m.p.Q E E E U W W W p.p.p.a.a.Q Q m.J.J.J.v.A j X X = - x n v F = - U E U E U ",
"U E U U E E M - j M M M N x o X o v p.A.J.I.U.I.m.j.Q P P P D F p.d.b.m.Z.Z.Z.Z.Z.Z.J.J.A.J.m.U j X . - v n M v N = - U E U E U ",
"E E E U E E M - N ! p.x.x.K & o $ j U E E U U U Q ! p.j.l.l.l.l.A.A.A.A.J.J.L.L.L.L.J.A.A.U.I.Q -     j E b.m.j.E - j K U U E U ",
"E E E E E E M - N ! b.M.A.E & . $ j K U U U U U G ! b.m.Z.m.Z.Z.I.I.J.J.J.K.L.L.L.L.U.J.A.R.D.U j     j ! M.I.b.! v j F U U E E ",
"E E E E E E M - v E x.m.M.U &   $ x Q x.b.n.M.M.c.A.U.T.U.J.J.J.A.A.J.K.U.L.!.!.L.J.K.A.M.U.B.G v .   - F p.x.Q ! v j K U U E E ",
"E Q E E E E M - v U ! b.M.E * o $ v p.m.M.A.A.M.M.A.D.J.I.J.J.I.I.I.U.U.U.J.J.Z.J.A.A.x.b.Y.Y.W v . . - M E p.! E j j U U U E E ",
"E E E U E U M - n ! x.x.b.U * . $ v p.J.I.I.I.U.I.I.U.U.I.I.I.I.I.I.I.I.U.U.A.A.U.b.p.x.m.I.A.E x   X & - F K Q E j j U U U U U ",
"E E E U E U M - j U Q ! p.K * . $ v p.J.U.I.I.I.I.I.I.U.U.I.I.I.I.I.J.I.I.I.A.M.b.x.M.A.A.A.j.N v . & - n K n v ! v j K U U U U ",
"E E E U E U M - N ! ! Q Q N % . o x p.I.U.I.I.I.I.I.I.U.U.I.I.I.A.A.A.A.A.A.m.b.p.x.I.U.b.p.E n x   & v F ! F N ! v j F U U U U ",
"E E E U E U M - K ! E F K v % . o x p.I.U.I.I.I.I.I.I.I.I.J.A.A.b.b.x.x.x.x.x.x.m.m.A.M.Q Q p.U x   o = v E U Q U - - K U U U U ",
"E E E U E U M - - n v j v x & o $ v p.I.U.I.J.I.I.I.I.J.A.A.m.m.x.j.j.p.p.p.x.x.I.M.b.j.Q p.b.! v . o % & v v N N * - U E U U K ",
"E E E U E U M - - n n v M x $ X $ v p.A.A.A.A.A.A.A.A.A.M.m.x.x.x.x.x.x.j.x.m.A.A.x.j.x.x.A.M.Q j   % = - M v n N * - U E U U U ",
"E E E U E U M - M ! p.! ! N $   $ x Q b.m.b.b.M.m.m.m.b.b.x.x.j.x.x.x.x.x.b.A.I.b.! p.b.M.I.M.U j   o j U b.! ! U - - K U U E U ",
"E E E U E U M - M p.m.M.A.Q *   $ j E x.x.j.x.b.x.x.x.x.x.x.x.j.j.x.x.x.x.b.A.U.x.Q ! x.m.J.M.U n   . - E I.m.x.p.v j F U U E Q ",
"E E E U E U M - M E ! x.m.E * X $ v E p.j.x.b.b.x.x.x.x.x.x.x.x.b.x.p.p.A.~.A.F E b.A.M.m.m.p.F v   o - E J.b.Q Q v x U U U E E ",
"E E E U E U M - M K U ! b.E * . $ v Q x.x.x.b.b.x.x.x.x.x.x.x.x.b.p.x.I.I.b.p.p.p.M.A.b.b.m.p.U j   o - E J.b.p.E - - U E E E U ",
"E E E U E U M - x n n U x.E *   $ v Q x.x.x.x.x.x.x.x.x.x.x.x.x.j.x.A.T.A.Q Q b.m.M.b.p.j.b.j.E j   o - U m.x.! E - - K E E E U ",
"E E E U E U M - * x n U j.U * . X j E x.x.x.x.x.x.x.x.x.x.x.x.x.p.J.U.b.! p.b.b.A.M.x.p.p.b.p.E x   o - N p.Q E ! x - F E E E U ",
"E E E U E U M - - N U ! x.K * o o j Q j.x.x.b.x.b.b.b.b.b.x.b.b.A.I.A.! ! m.A.A.M.m.x.x.b.b.p.E v   o - N ! U E x.v j F U E E U ",
"E E E U E U M - v U Q Q ! M & o $ v Q p.p.j.x.x.x.x.x.x.j.x.x.x.~.x.U ! x.x.m.I.x.x.j.x.x.x.p.E v   o - M E U E ! v x K U U E E ",
"E E E U E U M - v M n n N j o o $ v U Q E U E Q Q Q E E E E Q E m.U F U p.Q Q j.E E E E E U K K v   o = j n v N N - j U U U E Q ",
"E E E U E U M - * * $ $ - = o X $ j F F N M N N F F N N N N N N n F F n n U F v N M M M M n n N n   . & & * % = - % j E E U E Q "
};
