/* XPM */
static char *rcp06241931983221[] = {
/* columns rows colors chars-per-pixel */
"64 64 38 1 ",
"  c #010101",
". c #060807",
"X c #080A07",
"o c #050609",
"O c #07080A",
"+ c #0A0B0C",
"@ c #0E100F",
"# c #0D0E11",
"$ c #0F1013",
"% c #121315",
"& c #151619",
"* c #17181A",
"= c #1A1B1D",
"- c #1E201F",
"; c #1D1E21",
": c #1F2022",
"> c #222325",
", c #252629",
"< c #27282A",
"1 c #2A2B2D",
"2 c #2E302F",
"3 c #2D2E31",
"4 c #2F3032",
"5 c #333436",
"6 c #353638",
"7 c #37383A",
"8 c #3A3B3D",
"9 c #3D3E41",
"0 c #3F4042",
"q c #424345",
"w c #454649",
"e c #47484B",
"r c #4A4B4D",
"t c #4D4E52",
"y c #4F5054",
"u c #515256",
"i c #525358",
"p c #5C5D62",
/* pixels */
"6666666666654456566655567775>&%%&*&&=<57545777554567766566666555",
"66666666566555568655775<>>><565333333>>><33555676555676566666555",
"666665665666556775556641:=*=5rtwwwtt9<;;;,3665558655666666665555",
"66665556566666665675<,<386<=<qtrrett01,3433,,3676666556666655555",
"66666666655666656651>>,1rtw5<59qq999516wuw3=*,453688545666555555",
"66666666655566543,;>1666qrtq5<169963140tww9533,=<578545655555555",
"6656666665555531,,11568q86661;;<153>>366<9w9653>1335555555555555",
"665566666555551<10tq1;197>&;;%%=#;;%%:>&<67,;3wu51,1576555555555",
"65556665485593;140eq751>;&#+++++++++++++&:1557qr884>,68554555655",
"6666666617513>=30qq986>+&#OoooooOOOOOOOO*%%:5qq9861,<45455555555",
"55555666475<>*=380975,% Oo              @o %<886q5>=;,4755555566",
"5555556676311,,31683=+oO                  .+&:176<>,1<1555555566",
"5555556681,58q85<11;+  +                  OOO+-2>,6ww5>;35665566",
"555555665;>7eut86,%++o                      o+%*16qe05<<<1566556",
"44555556<=<9qwe75;+o+o                       X++17q71157:<576556",
"44555556,;5q5585>&+O                           ++<q95331=,576556",
"5411575<<11<585;+O                              O%,896333,<66116",
"5543561>5651364>+O                              o%,661<181>46535",
"555555,=6883,,:&+O                               +=,<,37e3;16655",
"555555,&59q71=%O+o                              oo+%;19rq1=17655",
"455565,&18ee8,%oOo                              o o%,8we6>=17656",
"555565,*=18wq3*ooo                                O=5q05<==37557",
"565565<==>3883&oo                                o#;506,,==37557",
"676565,*1<1681& o                                o+&<6611=*17656",
"555565<*5q1<3>*o                                  +=,,,1t1:15676",
"555565<*5w63<*&O                                Oo+&;,59r<;15676",
"555565<=<eq85=%O                                oo+&>38eq>;35665",
"565566<=;qqwq<&                                   +;59qq8:=36665",
"665566<=:758q5=                                   O:8rw76==46565",
"666666<=,5:,61;                                 o o*6rw76==45565",
"6666661=>6>>1>*o                                 oO&3qq76;;55566",
"6666761==8551=$                                  o$=38857::55566",
"666565,*&>18q1+                                   O=5971=&=16545",
"666565<*,3<,<=++                                  +&><<,6,;<5556",
"666565<=584=*&##o                                o+%&=>1q1;,5655",
"665566<=4wq3,>%Oo                               oo+&,4663>=18753",
"565566<=,qrq83&oOo                              +oo=8rw8;*=37655",
"5555661=>9ewq5&oOo                              %oo=que6<::15558",
"5555661=,7qer5%oOo                              +oo=7e055,:16657",
"5555661=,59ry5%oOo                                O*38865>;18854",
"555566<=,69qw5%o%Oo                               O*1898q,>35567",
"555566<=>1456<%+%+o                               +*,5677;;45566",
"555566<==>>>,=+++O                              oO#&=;>>3*=56565",
"565566<=;<<<1:+++O                              O+#&;,,,3*=56565",
"666566<=189qq4%+Oo                              oo+=5qwq6;;45565",
"666666<=18wrt6%oOo                              o o=8rte8>;35566",
"666666<=>6qer5% Oo                              o O*39988>;45566",
"676666<=>59wr6&+Oo                                O*16886;;55566",
"666565<*,7qqw5&o                                   %><476;;55555",
"666565<*;57804%o                                  O=<<>>8>;45555",
"666565<*188881$o                                  +;553<8>;35555",
"666565<*38645>#o                                  o&,5665==45555",
"666565<*=,>;,:%+        .o    o.                 o+#&;,<1&=56554",
"666565<**,,><>#O        Oo   oOO........      oo o#&:<1,1&=56555",
"666565<*<79891#      oooOO++#%%%%%%%%%%%Ooo   oO  +=5qq75==45565",
"666565<*,8rty7&o    ooOO$%=>,,,>>>>>>>>>&%+o   oo o&7ut99>;35567",
"666565<*,68qr5%    ++O$;;,331<1311111111>:;%+o o o+=7re87>:55566",
"666565<*1558q6%    +$&;,,367666877777777<<,;%o   o+=7re86;;56665",
"666565<*><,406&oo  #=>3669qwwwwrwwwwwwww5651;#o  o+=5wq76==46665",
"666565<**>,505&O o#&>38qwrtyytyuttttttttqq973;$O  o*40978:=36665",
"666565<*&<58q4%O #;>37wttuuiuuuuuuuuuuuutteq73;*o o*3887q>;35665",
"666565<*;3789<#oo%>36qtuuuuuuuytuuuuuuuuuutrq61:#O+=15658>:45566",
"666565<*;,,,1:#++&>3quiuuuuuuuuyuuuuuuuuuuuyr93;%OO&>,,,1*;55567",
"666565<*&*##==###%;3tpptuuyuuuuuuuuuuuuuyuiit91;%oo#**&&=$;66567"
};
