/* XPM */
static char *rcp06233892845801[] = {
/* columns rows colors chars-per-pixel */
"64 64 41 1 ",
"  c #010102",
". c #060609",
"X c #08070C",
"o c #07080A",
"O c #0A0B0C",
"+ c #0D0D11",
"@ c #0F1013",
"# c #121315",
"$ c #151619",
"% c #17181A",
"& c #1A1B1D",
"* c #1E1E21",
"= c #1F2022",
"- c #222325",
"; c #252628",
": c #27282A",
"> c #2A2B2D",
", c #2D2E31",
"< c #302F35",
"1 c #2F3032",
"2 c #333436",
"3 c #353638",
"4 c #37383B",
"5 c #3A3B3D",
"6 c #3D3E41",
"7 c #3F4044",
"8 c #424345",
"9 c #444549",
"0 c #48474C",
"q c #47484B",
"w c #4A4A4D",
"e c #4C4D52",
"r c #504F55",
"t c #4F5055",
"y c #515256",
"u c #535459",
"i c #57585D",
"p c #595A5E",
"a c #5C5D62",
"s c #616267",
"d c #636469",
/* pixels */
"3333333333321123233322234442-$##$$$#&;23222343221234433233333222",
"33333333233222235322442:---:232,>,,,>---:>1222233222343233333222",
"33333322233322344222331>=&%&2we999ww5;&&&;,222225322333333332222",
"33333222233333332342:;:,53:&:8ewwqwe7:-,1,>;;>343333223333322222",
"3333333332233332332>--;>we92:26886652>28y9>&$;22,355212333222222",
"3333333332223321,;*->3339we82:>3553,>16w9962>>;&:245212322222222",
"33332233322222,>;;>>23585333>**:>2>-->33:59632>->,,2222222222222",
"33322333322222>:>7e9>*>64-$**##&+&*##=-$:33;*,9y2>;>243222222222",
"3223333215226,*>58yu8:-,&#OOOOo.OOOOOOOO&*;,37qw551-;35221222322",
"22333333>42>,-&,545872=$#+o.....     ...$$&-258953>;:12122222222",
"22222333142:-%&,55532:# Oo.         ..ooOoO#;35582-&*;1422222233",
"2222223343,>>;;,>55>$+o .          ..oOO.  O&;,23:-;>:>222222233",
"222222335>;25852&>>$  .o                  .oO$=:-;3992-*,2332233",
"222222332*-4qye52:%o...                   o..o#&>38q72:::,233223",
"11222223:&:689q45-O.oo                    .. .O@>484>>24=:243223",
"11222223;*282252=O     .                     ..oO:862,,>&;243223",
"21>>242::>>:252*o.                            ..O#:562>>,;:33>>3",
"221,23>-232>,31-o.                            .. +;33>:,5>-132,2",
"222222;&355,;;=$o.                               O&:;-,5q,*>3322",
"222222;$2684>&#oo.                              .O#$&:5w9>&>4322",
"122232;$>5qq5;#...                              ..O$;59w3-&>4323",
"222232;&&>598,%..                                 O&3q83:&&,4224",
"232232:&&-,55,$..                                 o&385;;&&,4224",
"443232;&>:>35>$ .                               ...#:52->&&>4323",
"222232:&34,;>;#o.                               . O&;;;>e>=>2343",
"222232:&265>:&OOo.                              o..#*:38w:*>2343",
"222232:&>8q5,&ooo.                             .o.o#-27w8-*,2332",
"232233:&;6q97:O o.                              ..O&27875=&,3332",
"332233:&;23482# o.                              o.o*5w943&&13232",
"333333:&>,--2># .                               O..$4ew53&&12232",
"333333>&>1:-:-O .                              .o.o$19953**22233",
"333343>&-231>&. .     .                        ..O#*,5524==22233",
"333232;&&-:35;o  .     .                       . .O&265,&$&>3212",
"333232:&;>:;>&.  o     .                       . .O$->>-3;*:2223",
"333232:&152=&$.  o  .  .                       o oO#&-;-8>*;2322",
"332233:&297>;*O .o. oo .   .      ....         . .O$;332,-&>542,",
"232233:&:9w65>+  o..OO ...    ..  .oo.  . .oo     o&4wq5*&&,4322",
"222233>&=5wwq2O  o..#O .       .        . .oo     o*5eq5:==>2225",
"222233>&-38ww2O  o.o#@     ..ooo.........  ..  . .O&29832;=>3324",
"222233>&>359w1O  . o$#  O#$&&&&%&&&&&&&&       o .O%>5632-*>5521",
"222233:&;4899>O     OOo#@$-;------------$O   ..Xo o&:5738;-,2234",
"222233:&=>223;O .o  @##&&-:>>::>,,,,,,,,*#OX.  .o O&-2644**12233",
"222233:&$-=-;&o..Oo.#$&:>245444455555555>;*$+  .O.O$$->;,%&23232",
"232233:&&;;:>*O. @Oo$-:458qqqqqq0000000063,;*+..o o$&;>-,%&23232",
"333233:&>46881#O @@@=>49qweyyyyyrrrrrrrre753,-#+  .*29q53**12232",
"333333:&>59we3#. #$&>59wyyyyuuuuyyyyyyyyr0886<*#O o-5ey85-*,2233",
"333333:&-37qw2#  $&-5weyyyyyyuuuyyyyyyyyreee93;*#.O&>5835-*12233",
"343333:&;369q2$O.&;:9uuyuyyyyyyyyyyyuuuyeeuu03;-+.o$-2533**22233",
"333232:&;58892$oO$:48euaiewyyeeueyytetupeyyte93;$ O$&>>33**22221",
"333232:&*24561$o+*,569yaau966996yuuuytyutuuye05>-.+$=>-;5-*12222",
"333232:&>5544>@.+-58668e0ue65908qweeew0qeuuuye61= O&>5,>5-*,2222",
"333232:&153,1-@oO-8ew62,>9pu869w66889999eeeeee62& o%:5222&&12222",
"333232:&&;-*-=#O+-7uu94,,5eie669887789999qqq0q62* o#&;=->$&23221",
"333232:&&;;-:=+o@-6euyeqw429ueeeeq87777788888861- O#&:;>>$&23222",
"333232:&:5655>+ +-6euuuuu825eiapee99987688778862* O&,8672&&12232",
"333232:&:6qwe4$..*7uueeyeyw54qteyeeetew989878863* O-5yq86-*,2234",
"333232:&:358q3$oO-6uiuyyett94,>,,6iddpte96689e91-.O&3t954-=22233",
"333232:&:12593$.O=6yuutyyuye8544367889eyappy655,* O&3t963*&23332",
"333232:&=;;283$ +-6tuuyuuuutewq9962,,38wuuiuww93* O&2q853&&13332",
"333232:&$=;272$.+-6tuuuuyytyyyeee0644566525widi5= O&>6435=&,3332",
"333232:&&>2581$O+-6eeeetyytyuuyeuyeee0744,26qt0,- O&>5238-*,2332",
"333232:&-2455:#O+*49989qyyuuuuuuuyyyuye99886,,3,- O&:3235-=12233",
"333232:&-:;;>*OO+*388778eeuuyyuiuuyyuuyteee91,42- O%*;->>&*22234",
"333232:&$$++&%Oo#-4998899eyyeeyiuuuuuyteueytqq7,; o##$@%&@*33234"
};
