/* XPM */
static char *rcp11352326044916[] = {
/* columns rows colors chars-per-pixel */
"64 64 216 2 ",
"   c #060101",
".  c #090403",
"X  c #0C060A",
"o  c #150D07",
"O  c #1B0904",
"+  c #140C0C",
"@  c #190B0B",
"#  c #180303",
"$  c #1E1903",
"%  c #14120E",
"&  c #1B120C",
"*  c #110F12",
"=  c #151111",
"-  c #1C1414",
";  c #1C1A15",
":  c #1C1619",
">  c #1D1B1A",
",  c #280B07",
"<  c #27160D",
"1  c #261A08",
"2  c #32110D",
"3  c #231D15",
"4  c #2C1C14",
"5  c #231C1B",
"6  c #2A1D1C",
"7  c #281613",
"8  c #341C14",
"9  c #391D1A",
"0  c #1D221E",
"q  c #29230C",
"w  c #34230F",
"e  c #262414",
"r  c #2C2915",
"t  c #25221E",
"y  c #2C221D",
"u  c #2B2517",
"i  c #342414",
"p  c #322A17",
"a  c #33241C",
"s  c #33291A",
"d  c #3B2718",
"f  c #36331C",
"g  c #231E22",
"h  c #281F20",
"j  c #252323",
"k  c #2B2424",
"l  c #252925",
"z  c #2C2A25",
"x  c #2C2629",
"c  c #262C2A",
"v  c #2C2B2B",
"b  c #332423",
"n  c #3A2523",
"m  c #352B24",
"M  c #3C2B24",
"N  c #322C2C",
"B  c #3A2C2C",
"V  c #302728",
"C  c #2C312D",
"Z  c #353125",
"A  c #33322D",
"S  c #3B332B",
"D  c #3D3828",
"F  c #2E2E32",
"G  c #322E32",
"H  c #3B2E36",
"J  c #3E2F39",
"K  c #322F38",
"L  c #2F3232",
"P  c #2F3835",
"I  c #2E3738",
"U  c #2D3839",
"Y  c #333436",
"T  c #3A3335",
"R  c #343935",
"E  c #3B3A35",
"W  c #343639",
"Q  c #3B353A",
"!  c #353A3A",
"~  c #3B3A3B",
"^  c #431D0F",
"/  c #42311D",
"(  c #502E1A",
")  c #402D24",
"_  c #482B28",
"`  c #532D22",
"'  c #4B362D",
"]  c #463C2B",
"[  c #46382A",
"{  c #54352A",
"}  c #422E33",
"|  c #4D2D30",
" . c #423334",
".. c #4B3430",
"X. c #413B34",
"o. c #41353B",
"O. c #423C3C",
"+. c #4C3C3B",
"@. c #483932",
"#. c #533B3D",
"$. c #573D38",
"%. c #603B2B",
"&. c #3C423C",
"*. c #43413C",
"=. c #4C433C",
"-. c #484636",
";. c #584939",
":. c #54533F",
">. c #50442C",
",. c #64463B",
"<. c #6B563D",
"1. c #3D3D41",
"2. c #433D41",
"3. c #493E44",
"4. c #573E41",
"5. c #3E4542",
"6. c #444243",
"7. c #4A4444",
"8. c #4C4B44",
"9. c #4A464A",
"0. c #464B48",
"q. c #4C4C4B",
"w. c #444648",
"e. c #514544",
"r. c #534B43",
"t. c #5B4B44",
"y. c #524C4B",
"u. c #554847",
"i. c #54514D",
"p. c #5A5245",
"a. c #524D52",
"s. c #565354",
"d. c #5A5556",
"f. c #5C5A5C",
"g. c #5C5658",
"h. c #664842",
"j. c #754F42",
"k. c #685748",
"l. c #745A4C",
"z. c #765749",
"x. c #665B51",
"c. c #6A5D55",
"v. c #615C5B",
"b. c #6D5C5B",
"n. c #7A5A54",
"m. c #5B605C",
"M. c #6A644D",
"N. c #65625D",
"B. c #6B6858",
"V. c #76685A",
"C. c #74715E",
"Z. c #77634B",
"A. c #5F5A60",
"S. c #605E61",
"D. c #646263",
"F. c #6C6665",
"G. c #6D6A67",
"H. c #6D6A6B",
"J. c #726D6A",
"K. c #766B65",
"L. c #7C766B",
"P. c #736F70",
"I. c #767374",
"U. c #7A7575",
"Y. c #7D7977",
"T. c #7F7D7C",
"R. c #83604C",
"E. c #83645A",
"W. c #836C5C",
"Q. c #886A54",
"!. c #8D755C",
"~. c #85766A",
"^. c #987C68",
"/. c #8C7D75",
"(. c #827D7C",
"). c #807973",
"_. c #967C78",
"`. c #876C71",
"'. c #A17F75",
"]. c #8D8473",
"[. c #8C877E",
"{. c #9B8D7E",
"}. c #928879",
"|. c #9C876A",
" X c #AD8F77",
".X c #AD967B",
"XX c #7F7D82",
"oX c #827D83",
"OX c #917E80",
"+X c #858383",
"@X c #8B8584",
"#X c #8D8B88",
"$X c #918C8B",
"%X c #988E8D",
"&X c #9E9C86",
"*X c #9A9794",
"=X c #AA8C87",
"-X c #A69586",
";X c #B3988A",
":X c #A59A96",
">X c #A78E92",
",X c #AAA38F",
"<X c #B9A78E",
"1X c #AEA191",
"2X c #B1AF9C",
"3X c #B9A798",
"4X c #A8A4A3",
"5X c #BEB9B6",
"6X c #C7A996",
"7X c #C2AAA0",
"8X c #D1AFA3",
"9X c #C7B8A5",
"0X c #CFBBB2",
"qX c #D4BBB4",
"wX c #D9C6B9",
"eX c #E6C8BE",
/* pixels */
"Y Y Y Y Y Y Y Y W W Y Y Y Y Y Y Y Y Y Y Y Y Y Y Y Y Y Y Y Y Y Y Y Y E E Y Y G G Y Y Y Y Y Y L L W W W W W W W W W W W Y Y Y Y Y ",
"Y Y Y Y Y Y Y Y W W Y Y Y Y Y Y Y Y Y Y Y Y Y Y E R Y Y Y Y Y Y Y N N N Y Y F F Y Y Y Y Y Y L Y W W W W W W W W W W Y Y Y Y Y Y ",
"Y Y Y Y Y W Y Y W W Y Y Y Y Y Y Y Y Y Y Y Y Y Y E E E E E E E E O.~ Q Y Y Y Y F Y Y Y Y Y Y Y Y W W W W W W Y Y W Y Y Y Y Y Y Y ",
"Y Y Y Y W W Y Y W Y Y Y Y Y Y Y Y Y Y Y Y Y Y Y E E E Y E E Q Q x x F Y Q Q W F Y Y Y Y Y Y Y Y W W W Y Y Y Y Y Y Y Y Y Y Y Y Y ",
"Y Y Y Y Y Y Y Y Y Y Y Y Y Y Y Y Y Y Y Y Y Y Y Y v 2.f.I.oX(.I.H.+X#XoXA.Y g F w.Y Y Y Y Y Y Y Y Y Y Y Y Y Y Y Y Y Y Y Y Y Y Y Y ",
"Y Y Y Y Y Y Y Y Y Y Y Y Y Y Y Y Y Y Y Y Y Y Y Y T.H.q.Y k v Q 6.1.v v a.XXXX9.* Y Y Y Y W W Y Y W Y Y Y Y Y Y Y Y Y Y Y Y Y Y Y ",
"Y Y W Y Y Y Y Y Y Y Y Y Y Y Y Y Y Y Y Y Y Y Y Y v G E O.O.Q T G Q 2.2.~ Q 6.g.H.Y Y Y Y W W Y Y W W Y Y Y Y Y Y Y Y Y Y Y Y Y Y ",
"Y Y W W Y Y Y Y Y Y Y Y Y Y Y Y Y Y Y Y Y Y Y Y Q Y v v N Q 7.a.a.9.3.2.2.6.6.O.Y Y Y Y W W Y Y W W Y Y Y Y Y Y Y Y Y Y Y Y Y Y ",
"Y W W Y Y Y Y Y Y Y Y Y W W Y Y Y Y 6.v E N E v j k x v N N G G T Q 9.y.N E i.j E 7.j ~ Y ~ Y Y Y Y Y Y Y Y Y Y L L Y Y Y Y Y Y ",
"Y Y Y Y Y Y Y Y Y Y Y Y W Y Y Y Y Y E Y Y v G v Y Y T E Q O.O.2.3.Q G 9.7.Q 7.8.A A v v E v ~ F Y Y Y Y Y Y Y Y L L Y Y Y Y Y Y ",
"Y Y Y Y Y Y Y Y Y Y Y Y Y Y Y Y Y Y Y ~ Y N k v E E E Q O.2.3.9.Q a.Q T 7.*.*.-.X.E E *.E k W v Y Y Y Y Y Y Y Y Y Y Y Y Y Y Y Y ",
"Y Y Y Y Y Y Y Y Y Y Y Y Y Y Y Y Y E G 6.G Y x E T T Y T T O.2.3.H d.7.T A S -.S -.:.E D.E E E ~ Y Y Y Y Y Y Y Y Y Y Y Y Y Y Y Y ",
"Y Y Y Y Y Y Y Y W Y Y Y Y Y Y Y E E v 2.v Y N 6.T T T T Q o.O.3.e.o.o.r.m Z M.C.C.L.B.).i.v k F Y Y Y Y Y Y Y Y Y Y Y Y Y Y Y Y ",
"Y Y Y Y Y Y Y Y Y W Y Y Y Y Y Y Y Y Y Y v N Y 2.T T H T T Q o.O.e.T X.=.Z p.&X&X2X,X2X[.*XE 6.~ Y Y Y Y Y Y Y Y Y Y Y Y Y Y Y Y ",
"L L Y Y Y Y Y Y Y Y Y Y Y W W Y Y E Q N N v E Q H H T T T T T T T +.O.=.:.C.}.M.-.D :.Z #Xt Y Y Y Y Y Y Y Y Y Y Y Y Y Y Y Y Y Y ",
"L L Y Y Y Y Y Y Y W Y Y Y Y Y Y Y E 9.N Y v O.T T T Q o.o.T T T B X.S x.].B.] 1 r e r e [.T A E Y Y Y Y Y Y Y Y Y Y Y Y Y Y Y Y ",
"Y L L Y Y Y Y W W W Y Y Y Y W W Y v w.j j v 6.N T T o.o.T J }  .X.e S t.K.' 4 & m S t 8.A v E E Y Y Y Y Y Y Y Y W W Y Y Y Y Y Y ",
"Y Y Y Y Y Y Y W W Y Y Y Y W Y Y Y E 6.v j v Q G Q Q T H H H H H m V.] 9X$., ) +.S T l q.E R E v Y Y Y Y Y Y Y Y W W Y Y Y Y Y Y ",
"Y Y Y Y Y Y Y W Y Y Y Y Y Y Y Y v q.E v 5 v k T o.T T H H }  . .p p ;.W.d 8 7 O o ; ; R C ! O.Y Y Y Y Y Y Y Y Y W W Y Y Y Y Y Y ",
"Y Y Y Y Y Y Y W Y Y Y Y Y Y Y Y Y f.v v 5 N : T T T H  . . . . .] ;.wXl.,.V.h...=.r.q.0.L v Y Y Y Y Y Y Y Y Y Y W W Y Y Y Y Y Y ",
"Y Y Y Y Y Y Y W Y Y Y Y Y Y Y Y Q D.5 x g G - B B B B B  .} B M ] <X;Xl.z.=XqX0Xt.X.E C c L ~ 1.Y Y Y Y Y Y Y Y W W W Y Y Y Y Y ",
"Y Y Y Y Y Y Y W Y Y Y Y Y Y Y Y ~ D.: x k N - b b m M M n a a i <.<XQ.^.6X8XeXwX:XN.8.Y ~ 1.W v Y Y Y Y Y Y Y Y W W W W W W Y Y ",
"W Y Y Y Y Y Y W Y W Y Y Y Y Y Y Q f.: x x k 5 k 6 a a a 4 4 a d 9X|.!.( %.{ E.wX/.T v 0 ! ~ W W Y Y Y Y Y Y Y Y W W W W W W W W ",
"W W Y Y Y Y Y Y Y W Y Y Y Y Y Y Q g.5 v x 5 k k 4 y a 4 4 8 ) ' <X<.Q.` ^ ^ ,.7X~.S E c ! F F 1.Y Y Y Y Y Y Y Y W W W W W W W W ",
"Y Y Y Y Y Y Y Y Y Y Y Y Y Y Y Y 6.9.Q x 5 h k y y y 4 4 M < a -X!..X XR.j.` _ 3X/.=.t L 1.F F 1.Y Y Y Y Y Y Y Y Y Y Y Y Y Y Y Y ",
"Y Y Y Y Y Y Y Y Y Y Y Y Y Y Y Y Y 2.a.j : N k 6 - y a 4 a < M -X>..X6XQ.j.j.n.qXb.7.Y Y ! Y Y W Y Y Y Y Y Y Y Y Y Y Y Y Y Y Y Y ",
"Y Y Y Y Y Y Y Y Y Y Y Y Y Y Y Y Y W S.Y 5 E - k 5 y y 7 m m @.{./ Z.^.W.'.;X_._. .*.~ Y L W W Y Y Y Y Y Y Y Y Y Y Y Y Y Y W W Y ",
"Y Y Y Y Y Y Y Y Y Y Y Y Y Y Y Y 1.Y q.w.Y j = N k y y 5 b y S /.1 d ;.l.E.l.h.t.6 A ~ Y F Y W F Y Y Y Y Y Y Y Y W Y W Y Y W W Y ",
"Y Y Y Y Y Y Y Y Y Y Y Y Y Y Y Y ! R c 6.E : j v j 5 k k 5 @ k L.x.[ 8 ' h.$...M k k C Y L F Y W Y Y Y Y Y Y Y Y Y Y Y Y Y Y Y Y ",
"Y Y Y Y Y Y Y Y Y Y Y Y Y Y Y L c w.l R ! v q.v ~ g 5 g x k k y.K.V.t.;.$.| #.+.B v c Y ! Y K Q W Y Y Y Y Y Y Y Y Y Y Y Y Y Y Y ",
"Y Y Y Y Y Y Y Y Y Y Y Y Y Y Y Y C 5.L Y ! ! q.Y q.W x > j G g 5 i.p.m n #.4.#.b T Y Y Y W Y Y W W Y Y Y Y Y Y Y Y Y Y Y Y Y Y Y ",
"Y Y Y Y Y Y Y Y Y Y Y Y Y Y Y Y ! L L Y Y Y L Y Y 9.s.g   X X + 3 =.B M n 7 #.b.H E W Y Y Y Y G Y Y Y Y Y Y Y Y Y Y Y Y Y Y Y Y ",
"Y Y Y Y Y Y Y Y Y Y Y Y Y Y Y Y ! L F ! 6.Y v E ~ H.= k = E : y p 4 ;.' 2 , =X} } T Y W W W W W Y Y Y Y Y Y Y Y Y Y Y Y Y Y L F ",
"Y Y Y Y Y Y Y Y Y Y Y Y Y Y Y Y F 1.Q v F W Q ~ H.: + 9.t 5 5 m p w k.z.2 _ | `.} T W W Y Y W W Y Y Y Y Y Y Y Y Y Y Y Y Y Y L F ",
"Y Y Y Y Y Y Y Y Y Y Y Y Y Y Y Y L ~ Y F E ~ Y N T.: v.4X:XG.Q 3 p i W._.2 _ # >X} T W Y Y Y W W Y Y Y Y Y Y Y Y Y Y Y Y Y Y Y Y ",
"Y Y Y Y Y Y Y Y Y Y Y Y Y Y Y Y W L F ~ 6.Y E d.. G I.$X5X@XA 3 p q ~.;X, 8 9 _.T T W Y Y Y Y W Y Y Y Y Y Y Y Y Y Y Y Y Y Y Y Y ",
"Y Y Y Y Y Y Y Y Y Y Y Y Y Y Y Y Y W ~ ~ Y j 9.+X  P.J.H.G.E % m p 1 V.3X9 _ n OXT Y Y I I Y Y Y Y Y Y Y Y Y Y Y Y Y Y Y Y Y Y Y ",
"Y Y Y Y Y Y W W Y Y Y Y Y Y Y Y Y ~ W F Y W ~ a.H.@XF.*Xv.5 + z p 1 k.;X' k.O :XT Y Y I I I Y Y Y Y Y Y Y Y Y Y Y Y Y Y Y Y Y Y ",
"Y Y Y Y Y Y W W Y Y Y Y Y Y Y Y ! W F Y 6.1.Y Y v.6.y.%Xi.z - 3 r q :.{.' t.n ).E Y I U U I Y W Y Y Y Y Y Y L L Y Y Y Y Y Y Y Y ",
"Y Y Y Y Y Y W W Y Y Y Y Y Y Y Y ~ W W 1.W j 6.T.s.d.U.J.k t % Z r f M.}.) < ~.T Y Y U U U I Y W Y Y Y Y Y Y L L Y Y Y Y Y Y Y Y ",
"L L Y Y Y Y Y Y Y Y Y Y Y Y Y Y Y 1.Y Y 1.Y ~ U.Y I.d.$X(.y   z q $ k.1X4 4 K.z Y P U U I L Y Y Y Y Y Y Y Y Y Y L L Y Y Y Y Y Y ",
"L L Y Y Y Y Y Y Y Y Y Y Y Y Y Y W 1.Y Y ~ F Y f.> v O.@XF.y.k 3 Z ] ,X{.;.a K.O.Y P U U I Y Y Y Y Y Y Y Y Y Y Y L L Y Y Y Y Y Y ",
"Y Y Y Y Y Y Y Y Y Y Y Y W W Y Y ! W W W W Y Y ~ H.k O.4X$X7.  Z $ >.wX~.V.;.i.z Y P U I Y Y Y Y Y Y Y Y Y Y Y Y Y Y Y Y Y Y Y Y ",
"Y Y Y Y Y Y Y Y Y Y Y Y Y W Y Y W Y Q ~ W E E G U.. i.4Xi.A 7.o r ;.3X] M x.8.A Y P I I Y Y Y Y Y Y Y Y Y Y Y Y Y Y Y Y Y Y Y Y ",
"Y Y Y Y Y Y Y Y Y Y Y Y Y Y Y Y W Y W 1.W W Q N 9.: Q F.F.N d.& ] M.,Xp O c.i.E Y P I I Y W H H Y Y Y Y Y Y Y Y Y Y Y Y Y Y Y Y ",
"Y Y Y Y Y Y Y Y Y Y Y Y Y Y Y Y W W W W Y Y Y ~ v.. A Y.I.E Y.o ] ].3X[ u x.i.N Y Y I Y W Y H H Y Y Y Y Y Y Y Y Y Y Y Y Y Y Y Y ",
"Y Y Y Y Y Y W Y Y Y Y Y Y Y Y Y Y ~ Y G W v Y g.= k k A g.N.v.& :.2X~.w < c.e.O.Y Y I Y W W H H Y Y Y Y Y Y Y Y Y Y Y Y Y Y Y Y ",
"Y Y Y Y Y Y W Y Y Y W W W Y Y Y Y ~ F F ~ Y ~ I.> : 5 E S O.5 3 D wXM s a [.B N Y Y Y Y W Y H H Y Y Y Y Y Y Y Y Y Y Y Y Y Y Y Y ",
"W W W Y Y Y Y Y Y Y Y Y Y Y Y Y Y Y Y Y Y Y Y Y H.9.  + . + + @ y [.+.m % %XT E Y Y Y Y W W W W Y Y Y Y Y Y Y Y Y Y Y Y Y Y Y Y ",
"W W W Y Y Y Y Y Y Y Y Y Y Y Y Y Y Y Y Y L L Y Y w.v k V 5 B @ b @ 5 5 V 7.y.g o.E Y Y Y Y Y Y Y Y Y Y Y Y Y Y Y Y Y Y Y Y Y Y Y ",
"W W W Y Y Y Y Y Y Y Y Y Y Y Y Y Y Y Y Y Y L L Y v Y + N  .B  .6 # T 6 k + F.2.Y E Y Y Y Y Y Y Y Y Y Y Y Y Y Y Y Y Y Y Y Y Y Y Y ",
"W W W Y Y Y Y Y Y Y Y Y Y Y Y Y W Y Y Y Y L L L Y ~ 5 j V 6 e. .5   k 7.v.7.7.N Y Y Y Y Y Y Y Y Y Y Y Y Y Y Y Y Y Y Y Y Y Y Y Y ",
"W W W Y Y Y Y Y Y Y Y Y Y Y Y Y W W Y Y Y L L L ~ v +X5 + B 5 b.P.+ k Y.(.k N Q Y Y W W Y Y Y Y Y Y Y Y Y Y Y Y Y Y Y Y Y Y Y Y ",
"W W W Y Y Y Y Y Y Y Y Y Y Y Y Y W W Y W Y Y Y L Y v *Xv 5 B - e.@Xy.k Y.E Q Y E Y Y W W Y Y Y Y Y Y Y Y Y Y Y Y Y Y Y Y Y Y Y Y ",
"W W W Y Y Y Y Y Y Y Y Y Y Y Y Y W W W W Y Y Y Y C E U.k A 5 k 3 V . ; J.y.k E E Y Y Y Y Y Y Y Y Y Y Y Y Y Y Y Y Y Y Y Y Y Y Y Y ",
"W W W Y Y Y Y Y Y Y Y Y Y Y Y Y W W W Y Y Y Y Y ! L $X= 5 5 % 5 + j + (.5 O.v E Y Y Y Y Y Y Y Y Y Y Y Y Y Y Y Y Y Y Y Y Y Y Y Y ",
"W W W W Y W W W Y Y Y Y Y Y Y Y Q W W W Y Y L L Y ! f.s.t t N . X % z q.d.w.Y v Y Y Y Y W W Y Y Y Y Y Y Y Y Y Y Y Y Y Y W W Y Y ",
"W W W W Y Y W W Y Y Y Y Y Y Y Y Q Q W W Y Y L L R C &.D.> 5 % . % % 5 A Y Y E w.Y Y Y Y W W Y Y Y Y Y Y Y Y Y Y Y Y Y Y W Y Y Y ",
"W W W W Y Y Y Y Y Y Y Y Y Y Y W Q W W W Y Y L L C L C H.t *.z z v i.T.+XD.Y c Y Y Y Y Y W W W W Y Y Y Y Y Y Y Y Y Y Y Y Y Y Y Y ",
"W W W Y Y Y Y Y Y Y Y Y Y Y Y W W W W Y Y Y L L l &.R m.l N.q.~ G.8.z j C R R Y Y Y Y Y W W W W Y Y Y Y Y Y Y Y Y Y Y Y Y Y Y Y ",
"W W W Y Y Y Y Y Y Y W W Y Y Y Y W W W Y Y Y L L C ! R ! j 6.*.v C R &.&.R Y R 5.Y Y Y Y W W W W Y Y Y Y Y Y Y Y W Y Y Y Y Y Y Y ",
"W W W Y Y Y Y Y Y Y W W Y Y Y Y W W Y Y Y L L L &.c C C C l A C &.A l c R R c j Y Y Y Y W W W W Y Y Y Y Y Y Y Y Y W Y Y Y Y Y Y ",
"W W Y Y Y Y Y Y Y Y Y Y Y Y Y Y W Y Y Y Y L L L ! c R L &.C E ! l R &.&.L C ! 0.Y Y Y Y W W W W L L Y Y Y Y Y Y Y Y Y Y Y W W Y ",
"W W Y Y Y Y Y Y Y Y Y Y Y Y Y Y Y Y Y Y Y L L L c ! &.C C ! ! C E R C C Y R Y c Y Y Y Y W W W W L L Y Y Y Y Y Y Y W Y Y Y Y Y Y "
};
