/* XPM */
static char *rcp07152246523300[] = {
/* columns rows colors chars-per-pixel */
"64 64 215 2 ",
"   c #080700",
".  c #160E00",
"X  c #1A0604",
"o  c #1E1B01",
"O  c #1D140A",
"+  c #151807",
"@  c #1B1B13",
"#  c #181C1B",
"$  c #221B01",
"%  c #2C1D03",
"&  c #241E0C",
"*  c #281B0A",
"=  c #241D12",
"-  c #271D17",
";  c #1C2009",
":  c #282606",
">  c #372804",
",  c #393606",
"<  c #252314",
"1  c #24241B",
"2  c #2A251C",
"3  c #2B2A1D",
"4  c #262A16",
"5  c #3A2D14",
"6  c #32251C",
"7  c #302513",
"8  c #2E3515",
"9  c #31311B",
"0  c #343D1C",
"q  c #343815",
"w  c #2A1F25",
"e  c #1D2122",
"r  c #2C2525",
"t  c #2B2B23",
"y  c #2D2C2C",
"u  c #282529",
"i  c #322B21",
"p  c #332D2C",
"a  c #362925",
"s  c #2D3125",
"d  c #2D332D",
"f  c #2B392B",
"g  c #343323",
"h  c #343B23",
"j  c #33342D",
"k  c #3C362B",
"l  c #343B2D",
"z  c #3C3B26",
"x  c #2D2D33",
"c  c #2C2D3B",
"v  c #262936",
"b  c #322E34",
"n  c #332E3C",
"m  c #3B2F3B",
"M  c #382A33",
"N  c #243336",
"B  c #2E3133",
"V  c #2D3936",
"C  c #2E333A",
"Z  c #2D393C",
"A  c #333436",
"S  c #3A3234",
"D  c #353935",
"F  c #3A3B35",
"G  c #343539",
"H  c #39323B",
"J  c #353A3A",
"K  c #3C3C3B",
"L  c #413B01",
"P  c #483A16",
"I  c #423728",
"U  c #3B432E",
"Y  c #3C413C",
"T  c #3C4031",
"R  c #474000",
"E  c #5D5400",
"W  c #715702",
"Q  c #7A7117",
"!  c #4A4821",
"~  c #554929",
"^  c #53502D",
"/  c #4F4F35",
"(  c #43423F",
")  c #464738",
"_  c #5A543B",
"`  c #60542A",
"'  c #655836",
"]  c #725D3E",
"[  c #7F722E",
"{  c #6B6936",
"}  c #7C693E",
"|  c #2B2C43",
" . c #332F40",
".. c #2E3342",
"X. c #2F3B41",
"o. c #2E3049",
"O. c #323442",
"+. c #3B3243",
"@. c #343B42",
"#. c #3A3C43",
"$. c #34354C",
"%. c #393D4C",
"&. c #36384D",
"*. c #323353",
"=. c #3A3C51",
"-. c #413C40",
";. c #3D4142",
":. c #3C4648",
">. c #474946",
",. c #5D5E47",
"<. c #6E5A53",
"1. c #776A46",
"2. c #777858",
"3. c #727361",
"4. c #8A7E00",
"5. c #867910",
"6. c #837736",
"7. c #977E3E",
"8. c #867747",
"9. c #967842",
"0. c #788156",
"q. c #878411",
"w. c #928A1D",
"e. c #B4A82E",
"r. c #CABA2F",
"t. c #C1B93A",
"y. c #9D8C43",
"u. c #8F8C59",
"i. c #94875D",
"p. c #9A8956",
"a. c #8E8C4E",
"s. c #A89748",
"d. c #B69B57",
"f. c #A1A043",
"g. c #B8A851",
"h. c #B8B05B",
"j. c #B1A553",
"k. c #998A66",
"l. c #98966B",
"z. c #918A6F",
"x. c #A38C64",
"c. c #AE9C63",
"v. c #A89B68",
"b. c #ACA46A",
"n. c #BEAD62",
"m. c #B4A66D",
"M. c #B9AB69",
"N. c #A9A378",
"B. c #BFB57A",
"V. c #C0A24A",
"C. c #C8B74B",
"Z. c #C2B15A",
"A. c #CBB35E",
"S. c #C6BE5A",
"D. c #CCB25A",
"F. c #C1AE6A",
"G. c #C2B668",
"H. c #D6BA67",
"J. c #C5B578",
"K. c #D4C746",
"L. c #D6C457",
"P. c #D4D054",
"I. c #E1D54D",
"U. c #EADA5C",
"Y. c #D5C369",
"T. c #D7CB68",
"R. c #DED763",
"E. c #D0C072",
"W. c #CCC577",
"Q. c #E9D76A",
"!. c #E8D867",
"~. c #F2DD68",
"^. c #ECDB76",
"/. c #F3DE76",
"(. c #EEE661",
"). c #FCEC6D",
"_. c #F7E665",
"`. c #FAE57E",
"'. c #F6E678",
"]. c #FDF47B",
"[. c #BCB88B",
"{. c #BCBD9D",
"}. c #B4B798",
"|. c #B3B189",
" X c #BCB7A3",
".X c #D2CE85",
"XX c #DFD482",
"oX c #D8CF96",
"OX c #CAC989",
"+X c #E3C881",
"@X c #E5DF87",
"#X c #FCDE84",
"$X c #FCFA85",
"%X c #EAE697",
"&X c #F6F18D",
"*X c #CAC8A2",
"=X c #C5C3A5",
"-X c #D1D8AF",
";X c #D7D8B2",
":X c #CDD4AA",
">X c #E1DFA2",
",X c #F5EFA3",
"<X c #FFFFA7",
"1X c #F1F0AD",
"2X c #EFE8BC",
"3X c #FFF9B1",
"4X c #E7E2AA",
"5X c #E4EACE",
"6X c #FFFECE",
"7X c #FCF6C8",
"8X c #FDFDD8",
"9X c #FFFFD1",
"0X c #E8E2D2",
"qX c #FEFEE1",
"wX c #FFFFEC",
/* pixels */
"A A A A A A A A G G A A A A A A A A A A A A A A G G J G G G A A A A A A A A x x A A A A A A A A G G G G G G G G G G G A A A A A ",
"A A A A A A A A G G A A A A A A A A A A A A A A G G J G G A A A A A A A A A x B A A A A A A A A G G G G G G G G G G A A A A A A ",
"A A A A A A A A G G A A A A A A A A A A A A G A G G G G A A A A A A A A A A A A A A A A A A A A G G G G G G A A G A A A A A A A ",
"A A A A G A A A G A A A A A A A A A A A A G G A G G G A A A A A A A A A A A A A A A A A A A A A G G G A A A A A A A A A A A A A ",
"A A A A A A A A A A A A A A A A A A A A A G A A G G A A A A A A A A A A A A A A A A A A A A A A A A A A A A A A A A A A A A A A ",
"A A A A A A A A A A A A A A A A A A A A A A A A G A A A A A A A A A A A A A A A A A A A A A A A G A A A A A A A A A A A A A A A ",
"A A G A A A A A A A A A A A A A A A A A A A A A A A A A A A A A A A A A A A A A A A A A A A A A G G A A A A A A A A A A A A A A ",
"A A G G A A A A A A A A A A A A A A A A A A A A A A A A A A A A A A A A A A A A A A A A A A A A G G A A A A A A A A A A A A A A ",
"A G A A A A A A A A A A G A A A A A A A A A A A A A A A A A A A A A A A A A A A G G A A A A A A A A A A A A A A B B A A A A A A ",
"A A A A A A A A A A A A G A A A A A A G A A A A A A A A A A A A A A A A A A A A G A A A A A A B A A A A A A A A B B A A A A A A ",
"A A A A A A A A A A A A A A A A A A G A A A A A A A A A A A A A A A A A A A A A G G A A A A A A A A A A A A A A A A A A A A A A ",
"A A A A A A A A A A A A A A A A A A A A A A A A A A A A A A A A A A A A A A A A A A A A A A A A A A A A A A A A A A A A A A A A ",
"A A A A A A A A A A A A A A A A A A A G A A A A A A A A A A A A A A A A A A A A A A A A A A A A A A A A A A A A A A A A A A A A ",
"A A A A A A A A A A A A A A A A A A A G A A A A A A A A A A A A A A A A A A A A A A A A A A A A A A A A A A A A A A A A A A A A ",
"B B A A A A A A A A A A A G G A A A A A A A A A A A A A A A A A A A A A A A A A A A A A A A A A A A A A A A A A A A A A A A A A ",
"B B A A A A A A G G A A A A A A A A A A A G G G G G A A A A A A A A A A A A A D A A H H G A A A A A A A A A A A A A A A A A A A ",
"A B B A A A A G A A A A A A A A A A A A A A C B C C A C A A A A j A c $.C v >.s d A &.*.| ..F d A A A A A A A A G G A A A A A A ",
"A A A A A A A G A A A A A A A A A A A A A A C C C C C C A A A A F A c =.c ;.3 U s N o.*.*...d l A A A A A A A A G G A A A A A A ",
"A A A A A A A G A A A A A A A A A A A A A A A A A C A A A A A A u J H %.c K 4 h h d c $.=.C t l D A A A A A A A G G A A A A A A ",
"A A A A A A A G A A A A A A A A D D A A A A A A C C A A A A A A Y ;.C O.e + 0 8 0 l C c O.C s T A A A A A A A A G G A A A A A A ",
"A A A A A A A G A G G G A A A A D D A A A A A A A A A A A A A A D # u ;.+ ) 0 + 8 h A x n A j j j A A A A A A A G G G A A A A A ",
"A A A A A A A G A A A A A A A A D D D A A A A A G G A A A A A A J B >.F + 5X|.0.0 9 j G A A F t A A A A A A A A G G G G G G A A ",
"G A A A A A A G A A A A A A A A D D D A A A A A G G G A A A A A A K 1   ; {.-X:X2.9 3 K A S K t A A A A A A A A G G G G G G G G ",
"G A A A A A A A A A A A A A A A D D D D A A A A A A A D j j j j A F 1 3.}.q u.}.}.z 1 ( b y -.S A A A A A A A A G G G G G G G G ",
"A A A A A A A A A A A A A A A A d Y Y A D A A A >.@ >.j t j 3 = t   3 ,.8X;X: / < 2 y A H H G H A A A A A A A A A A G A A A G A ",
"A A A A A A A A A A A A A A A A ;.D y y A D F K j ( t k i . _  X0XwX{.> ! [.=X< 3 y y A G H +.H A A A A A A A A G A A A A A G A ",
"A A A A A A A A A A A A A A A A K y d J D d j j 3 ) 3 g $ _ =XqXqX8X9X4Xu., 2.2 p b A A A H O.O.A A A A A A A A A A A A A A A A ",
"A A A A A A A A A A A A A A A A A d J ;.j y j j ) g 9 : ! *X7X2X7XB.3X,X.X, $ = H A A A C C ..O.A A A A A A A A A A A A A A A A ",
"A A A A A A A A A A A A A A A A J J A B d D F j 9 4 o , l.N.u.b.M.G.<XT.@XM.1.i H H A B B C ..O.A A A A A A A A A A A A A A A A ",
"A A A A A A A A A A A A A A A A J J B d K F 1 <   0 ^ l.N.: , R Q 5.!.].&Xj.k.O n n A d f V Z @.A A A A A A A A A A A A A A A A ",
"A A A A A A A A A A A A A A A A x #.A A >.t 1 ,.8XqX*X[.{ o a.W.`.K.K.(.R.h.|.O n n A d f f Z Z A A A A A A A A A A A A A A A A ",
"A A A A A A A A A A A A A A A A N :.C B D @ / ;X6X6X>XOXa.> o 6.L.~.].!.S.G.N.- m H A j f f f N A A A A A A A A A A A A A A A A ",
"A A A A A A A A A A A A A A A A Z N C C t 4 { 1X<X&XS.f.%XL ~ P > V.A.+Xc.x.z.O m +.H A D A l A A A A A A A A A A A A A A A B x ",
"A A A A A A A A A A A A A A A A X.N Z B s $ b.%X&XR.K.q.Q L [.v.X H.d.9.x.k.<.S H H H H A D j j D A A A A A A A A A A A A A B x ",
"A A A A A A A A A A A A A A A A @.N @.J k . oXXX^.U.$Xt.w.E 6.X W #XZ.7.x.] X i S H H H G A D D A A A A A A A A A A A A A A A A ",
"A A A A A A A A A A A A A A A A C N #.K I . J.E.'.(.I.4.e.C.Y.s.D./.H.d.p.1.% 6 S H H H G G A D A A A A A A A A A A A A A A A A ",
"A A A A A A A A A A A A A A A A A A H K k % 8.J.Q.)._.r.).).Q.`./.`.Y.y.6.k._ = S H H H G G G A A A A A A A A A A A A A A A A A ",
"A A A A A A G G A A A A A A A A J J A b p 5 P M.A.C.U.U._.U.!./.^.^.Z.s.p.i.P O S H H H G G G G A A A A A A A A A A A A A A A A ",
"A A A A A A A G A A A A A A A A J J A b S a % } F.g.C.L.C.L.Q.T.Z.n.y.c.k.' & i S G A G G G A A A A A A A A B B A A A A A A A A ",
"A A A A A A G G A A A A A A A A B D A H K p * > i.J.n.Z.j.g.Z.j.M.m.i.i.~ 7 < 2 A G G G G A A A A A A A A A B B A A A A A A A A ",
"B B A A A A A A A A A A A A A A V V Z G A b p i $ 5 ` 8.v.m.b.v.' ~ I 7 = - r y G G A A A A A A A A A A A A A A B B A A A A A A ",
"B B A A A A A A A A A A A A A A V Z Z Z O.C c x r 2 & $ $ $ $ $ 6 6 r r r x x b G G A A D A j j A A A A A A A A B B A A A A A A ",
"A A A A A A A A A A A A A A A A V Z Z X.X.....C #.G b y y p g p w u M n n n c c G G A A D j j j A A A A A A A A A A A A A A A A ",
"A A A A A A A A A A A A G A A A C Z Z Z Z O.....v c | O.O.A x x +.+.+.+. .n c c G G A A A j j j A A A A A A A A A A A A A A A A ",
"A A A A A A A A A A A A A A A A A A A A A J ....%.=.&.$.O.O.G O.H n n n C C G G G A A A A j j j A A A A A A A A A A A A A A A A ",
"A A A A A A A A G A A A A A A G A A A A A A A G c ..........@.#.x b A G G J A C A A A A A A S A A A A A A A A A A A A A A A A A ",
"A A A A A A A A G A A A A A A G A A S S j j j A C O.#.#.@.C B d A D A D D D A B V V A A A A S A A A A A A A A A A A A A A A A A ",
"A A A A A A A A A A A A A A A G H A S S j j j j A A A C B C J Y D j j d d B D J A A A A A A A A G A A A A A A A A A A A A A A A ",
"G G G A A A A A A A A A A A A A A A A A A A A A A A A A A A A A D D A A A A A A A A A A A G G G A A A A A A A A A A A A A A A A ",
"G G G A A A A A A A A A A A A A A A A A A A A A A A A A A A A A G G G G G G G G G A A A A A A A A A A A A A A A A A A A A A A A ",
"G G G A A A A A A A A A A A A A A A A A A A A A A A A A A A A A A A G G G G G G A A A A A A A G A A A A A A A A A A A A A A A A ",
"G G G A A A A A A A A A A A A A A A A A A A A A A A A A A A A A A A A A A G G G A A A A A A A G A A A A A A A A A A A A A A A A ",
"G G G A A A A A A A A A A A A A A A A A A A A A A A A A A A A A A A A A A G G G A A A A A A G A A A A A A A A A A A A A A A A A ",
"G G G A A A A A A A A A A A A A G A A A A A A A A A A A A A A A A A A A A G G G A G A A A A A A A A A A A A A A A A A A A A A A ",
"G G G A A A A A A A A A A A A A G G A A A A A A A A A A A A A A A A A A A A G G A G A A A A A A A A A A A A A A A A A A A A A A ",
"G G G A A A A A A A A A A A A A G G G A A A A A A A A A A A A A A A A A A A G G A A A A A A A A A A A A A A A A A A A A A A A A ",
"G G G G A G G G A A A A A A A A J G G G A A A A B A A A A A A A A A A A A A G G A A A A A A A A A A A A A A A A A A A A G A A A ",
"G G G G A A G G A A A A A A A A G G G A A A A A A A A A A A A A A A A A A A G G A A A A A A A A A A A A A A A A A A A A G A A A ",
"G G G G A A A A A A A A A A A G G G G A A A A A A A A A A A A A A A A A A G G G A A A A A A A A A A A A A A A A A A A A A A A A ",
"G G G A A A A A A A A A A A A G G A A A A A A A A A A A A A A A A A A A A G G G A A A A G G G A A A A A A A A A A A A A A A A A ",
"G G G A A A A A A A G G A A A A A A A A A A A A A A A A A A A A A A A A A G G G A A A A A A A A A A A A A A A A A A A A A A A A ",
"G G G A A A A A A A A A A A A A A A A A A A A A A A A A A A A G A A G G G G G G A A A A A G A A A A A A A A A A A A A A A A A A ",
"G G A A A A A A A A A A A A A A A A A A A A A A A A A A A A G G A A G G G G G G A A A A A A A A B B A A A A A A A A A A A G G A ",
"G G A A A A A A A A A A A A A A A A A A A A A A A A A A A G G G G G G G G G G G A A A A A A A A B B A A A A A A G G A A A A A A "
};
