/* XPM */
static char *rcp13404089143842[] = {
/* columns rows colors chars-per-pixel */
"64 64 7 1 ",
"  c #2E3032",
". c #2F3133",
"X c #303234",
"o c #313335",
"O c #323436",
"+ c #333537",
"@ c #343638",
/* pixels */
"+++++++++++++++++++++++++@@+++++++oo....oo++++++++++++++++++++++",
"+++++++++++++++++++++++++@@+++++++oo....oo++++++++++++++++++++++",
"+++++++++++++++++++++++++@@++++++++oo..ooo+++++++++++++++++++o++",
"+++++++++++oooo++++o+++++++++++++++ooo.ooo++++++++++++++++++++++",
"++++++++++oooooo+++++o++++++++++++++ooooooo++++++++++++++++++ooo",
"oo+++@@++oooooooo+++ooo++++++oo+++++oooooooo+++++++++oo+++++oooo",
"oo++++++++ooooooo++++oo++++oooo+++++++oooooo+++++++++oooo+++oooo",
"++++++++++++ooo+++++++++++ooooooo+++++++++++++++++++oooooooooooo",
"++++++++++++++++++++++++++ooooooooo++++++++++oooooooooooooooo+++",
"+++++++++++++++++++++@+++oooooooooo+++@++++++oooooooooooooooo+++",
"++++++++++++++++++++@@@++ooooooooooo++@++++++oooooooooooooooo+++",
"+++++++++++++++++++++@@++ooooooooooo++++++++++oooooo+++ooooo++++",
"ooo++++++++++++++++++@@++ooooooooooo+++++++++++++++++++++oo+++++",
"oooo+++++++++@@++++++@@++ooooooooooo++++++++++++++++++++++++++++",
"oooo+++++++++@@+++++++++oooooooooooo+++++++++++o++++++++++++++++",
"ooooo+++++++++++++++++++ooooooooooo+++++++++++++++++++++++++++++",
"..ooo+++++++++++++oooooooooooo+oooo++++++++++++++++++++++++++ooo",
"...oo++++++++++++oooooooooooo+++ooo++++++oo++++++++++oo+++++oooo",
"..ooo+++++++++++++oooooooooo++++ooo++++++ooo+++++++++oo++++++ooo",
"oooooo++++++++++++++ooooooooooooooo+++++oooo++++++++++++++++++++",
"oooooo++++++++++++++++ooo++oooooo++++++ooooo+++++o++++++++++++++",
"+++oooo+++@+++++@@@++++++++oooooo+++oooooooo++++ooo+++++++++++++",
"++++ooo++@@+++++@@@@+++++++oooooo++ooooooooo++++ooo+++@+++++++++",
"+++oooo++++++++++@@+++++++++++++++oooooooooo+++++oo+++++++++++++",
"ooooooo+++++++++++++++++++++++++++oooooooooo+++++oo+++++++++++o+",
"ooooooo++++++++++++++++++++++++++oooo.....oo+++++ooo++++++++++++",
"ooooooo+++++++++++++++++++++++++++oooo....ooo++++ooo++++++++++++",
"ooooooo++++++++++++++++++++++++++++oooooooooo++++oooooo+++++++++",
"++++++++++++++++++++++o+++++++++++++ooooooooooooo++ooooo++++++++",
"++++++++ooooooo++++++ooo+++ooooo++++++++++ooooooo++ooooo++++++++",
"+++++++++oooooo++++++ooo+++ooooo+++++++++++oooooo++ooooo++++++++",
"++++++++++++ooo++++++oo+++++oooo+++++++++++ooooo++++oooo++++++oo",
"o++++++++++++oo++++oooo+++++ooooo+++++++++o++++++++++oo+++++oooo",
"+++++++++++++ooo++++ooo+++++ooooo++++++++oo++++++++++++++++ooo..",
"+++++++++@+++ooo++++ooo+++++ooooo++++++++oo++++++++++++++++ooo..",
"+++++++++++++ooo+++++o++++++oooooo++++++++++++++++++oooo+++ooooo",
"oo+++++++++++ooo++++++++++++ooooooo+++++++++++++++++ooooo+++oooo",
"ooo+++@+++++oooo+++++++++ooooooooooo++++++++++++++++ooooo+++++++",
"ooo+++@++++++oo++++++++++ooooooooooo+++++o+++++++++ooo.ooo++++++",
"oooo++++++++++++++++++++++++++++++++ooo++o+++oo++++oooooooo+++++",
"oooo++++++++++++++++++++++++++++++++oooo++++ooooo+oooooooooo++++",
"..ooo++++++++++++++++@@+++++++++++++oooo++++ooooooooooooooooo+++",
"..ooo++++++++++++++++@@+++++++++++++oooo++++ooooooooooooooooo+++",
"ooooo+++++++++++++++++++++++++++++++oooo++++oooooooooooooooo++++",
"oooo+++++++++++++++++++++++++++++++oooo+++++oooooo+ooooo++++++++",
"+++++++++++++++++++++++++++++++++oooooo+++++ooooo+++++++++++++++",
"+++++++++++++++++++++oo+++++++++oooooo+++++++oooo+++++++++++++++",
"++++++++++++++++++++oooo+++++ooo+++++++++++++ooo++++++++++++++++",
"++++++++++++++o++++oooooo++ooooo+++++++++++++++++++++oo++++++ooo",
"@@@++++++++++ooooooooooooooooooo+++++@+++o++++++++++oooo+++ooooo",
"@@@++++++++++ooooooooooooooooooo+++++@@+++++++++++++oooo++++oooo",
"@@@+++++o+++++oooooooooooooooooo++++++++++++++++++++oooo++++oooo",
"@@@++++++++++++++++oooooo+ooooooo+++++++++++++oo++++oooo++++oooo",
"@@@+++++++++++++++++oooo+++oooooooo++++++++++++o++++oooo++++oooo",
"@@@+++++++++++oo++++ooooo+++oooooooo+++++o+++++++++++oo++++++ooo",
"+++++++++o++++++++++oooooo++ooooooo+++++++++++++++++++++++++++++",
"++++++++++++++++++++oooooooo+++oooo+++++++++++++++++++++++++++++",
"++++++++++++++++++++oooooooo++++ooo+++++++++++++++++++++++++++++",
"+++++++++++++++o++++ooooooooo+++ooo+++++++++++++o+++++++++++++++",
"+++++++++++++++o++++ooooooo++++++o++++++++++++o+++++++++++++++++",
"++++++++++oo+++++++ooooooo+++++++++++++++++++++++oo+++++++++++++",
"+++++oo++++++++++oooooooo+++++++++++++++++++++++oooo++++++++++++",
"++++oooo++++++++oooooooo++++++++++++++++++++++++oooo+++++oo+++++",
"++++oooo++++++++oooooooo++++++++++++++++++++++++oooo++++++++++oo"
};
