/* XPM */
static char *rcp12330128245367[] = {
/* columns rows colors chars-per-pixel */
"20 20 160 2 ",
"   c #13182E",
".  c #303238",
"X  c #303339",
"o  c #665035",
"O  c #715736",
"+  c #715836",
"@  c #45495A",
"#  c #45495C",
"$  c #6B684E",
"%  c #656456",
"&  c #666457",
"*  c #595D6D",
"=  c #5A5D6D",
"-  c #646267",
";  c #7A7268",
":  c #6B6F7C",
">  c #716F76",
",  c #6E717F",
"<  c #6F727F",
"1  c #717076",
"2  c #D33E3E",
"3  c #D73F3C",
"4  c #D73F3D",
"5  c #876139",
"6  c #886139",
"7  c #8A6839",
"8  c #8B6839",
"9  c #9D7A3A",
"0  c #D6403D",
"q  c #DA433B",
"w  c #DE413B",
"e  c #DF423B",
"r  c #DB423C",
"t  c #E4443A",
"y  c #E6453A",
"u  c #E7453A",
"i  c #E4463A",
"p  c #E6463A",
"a  c #E6463B",
"s  c #E84939",
"d  c #E8493A",
"f  c #EF5E37",
"g  c #E8503F",
"h  c #F36B36",
"j  c #F36C36",
"k  c #F26D3B",
"l  c #B43244",
"z  c #B93D43",
"x  c #B83E43",
"c  c #B94043",
"v  c #BA4043",
"b  c #826B43",
"n  c #836B43",
"m  c #86784C",
"M  c #987841",
"N  c #987941",
"B  c #867E73",
"V  c #C14041",
"C  c #C24041",
"Z  c #E95A43",
"A  c #C37041",
"S  c #C57142",
"D  c #CB7E41",
"F  c #CB7E42",
"G  c #ED714D",
"H  c #ED724D",
"J  c #EE7A51",
"K  c #FF953C",
"L  c #898359",
"P  c #898459",
"I  c #A28041",
"U  c #A38042",
"Y  c #898461",
"T  c #95906B",
"R  c #898670",
"E  c #898770",
"W  c #CC8340",
"Q  c #CB8440",
"!  c #D78242",
"~  c #D78342",
"^  c #D88242",
"/  c #CB915D",
"(  c #CB925D",
")  c #E19841",
"_  c #E29940",
"`  c #EE8054",
"'  c #EF8054",
"]  c #EF8455",
"[  c #EF8456",
"{  c #E58A54",
"}  c #E48B54",
"|  c #F28750",
" . c #F38750",
".. c #F08556",
"X. c #F18955",
"o. c #F28955",
"O. c #F18F5A",
"+. c #F2935A",
"@. c #F2945B",
"#. c #F2995F",
"$. c #F29A5E",
"%. c #F29A5F",
"&. c #C0A35E",
"*. c #C1A45E",
"=. c #D3AB5E",
"-. c #D3AC5F",
";. c #DDBC5C",
":. c #DEBC5C",
">. c #FFAC4E",
",. c #FFAC4F",
"<. c #ECA15D",
"1. c #EEA95D",
"2. c #EDAA5D",
"3. c #FDAA51",
"4. c #FDAB52",
"5. c #F4A263",
"6. c #F6B36A",
"7. c #F7BB6E",
"8. c #F8BB6E",
"9. c #FFCA67",
"0. c #FAC36D",
"q. c #FFCB68",
"w. c #FCC86C",
"e. c #FCC96D",
"r. c #E1D379",
"t. c #FBD87A",
"y. c #FCD97B",
"u. c #FEE079",
"i. c #FFE17A",
"p. c #88868B",
"a. c #88878B",
"s. c #898A8F",
"d. c #938E8B",
"f. c #938F8B",
"g. c #9799A3",
"h. c #989AA4",
"j. c #A6A8B0",
"k. c #A6A8B1",
"l. c #ACADB1",
"z. c #B5B7BE",
"x. c #B8BAC0",
"c. c #C1C2C8",
"v. c #D2D3D7",
"b. c #D3D3D8",
"n. c #D3D4D8",
"m. c #E4E5E7",
"M. c #E4E5E8",
"N. c #EAEAEC",
"B. c #EAEAED",
"V. c #EAEBED",
"C. c #F0F0F2",
"Z. c #F0F1F2",
"A. c gray99",
"S. c #FFFFFD",
"D. c #FEFEFE",
"F. c #FEFFFE",
"G. c #FFFFFE",
"H. c #FEFEFF",
"J. c #FFFEFF",
"K. c white",
/* pixels */
"K.K.K.K.K.K.K.K.K.K.K.K.K.K.K.K.K.K.K.K.",
"K.K.K.K.K.K.K.K.K.K.K.K.K.K.K.K.K.K.K.K.",
"K.K.K.m.k.k.k.n.K.K.K.K.n.k.k.k.m.K.K.K.",
"K.K.C.l.X X X s.V.K.K.V.s.X X X l.C.K.K.",
"K.K.g.% r.r.r.Y < K.K.< Y r.r.r.% h.K.K.",
"K.h.R &.4.X.[ / T : : T / ..X.4.*.R h.K.",
"K.= L w.j d y | -.$ $ =.| y d h w.P = K.",
"K.= L 7.y y y k ,.u.u.,.k y y y 7.L = K.",
"K.= L 7.y y y +.9.K K q.@.y y y 7.L = K.",
"K.= L 8.y y y %.0.f f 0.%.y y y 7.L = K.",
"K.= m 1.2 y y J 5.[ [ 5.J y y 2 1.m = K.",
"K.< n W v q y g ' y.t.' g y r v Q n < K.",
"K.V.p.o _ z 0 O.6.Z Z 6.O.4 z _ o p.V.K.",
"K.K.v.d.O D <.%.G y y G %.<.D + d.n.K.K.",
"K.K.K.v.1 N :.{ 4 y y 4 { :.N > b.K.K.K.",
"K.K.K.K.V.@ U A C w w C S U # V.K.K.K.K.",
"K.K.K.K.K.m.- 7 ~ l l ^ 7 - M.K.K.K.K.K.",
"K.K.K.K.K.K.c.B 5 ~ ~ 6 B c.K.K.K.K.K.K.",
"K.K.K.K.K.K.K.z.; 9 9 ; z.K.K.K.K.K.K.K.",
"K.K.K.K.K.K.K.K.x.    x.K.K.K.K.K.K.K.K."
};
