/* XPM */
static char *rcp11141073546407[] = {
/* columns rows colors chars-per-pixel */
"64 64 41 1 ",
"  c #0C070E",
". c #0D0A0F",
"X c #110D0F",
"o c #0E0B11",
"O c #120E13",
"+ c #150E1A",
"@ c #151113",
"# c #1A1417",
"$ c #1D1916",
"% c #17111B",
"& c #1C141B",
"* c #1E191B",
"= c #201B17",
"- c #20161F",
"; c #231C1F",
": c #26211C",
"> c #2A241E",
", c #1F1520",
"< c #1F1A20",
"1 c #201720",
"2 c #241C20",
"3 c #281F23",
"4 c #2A1F28",
"5 c #262021",
"6 c #2B2422",
"7 c #2F2923",
"8 c #2D2529",
"9 c #2F292B",
"0 c #312A22",
"q c #30272A",
"w c #332C2D",
"e c #353027",
"r c #363129",
"t c #3A352C",
"y c #3D392E",
"u c #352C30",
"i c #393134",
"p c #3E3931",
"a c #403B2F",
"s c #423C31",
"d c #474034",
/* pixels */
"qqqqqqqqqqqqqqqqqqqqqqqqqqqqqqqqqqqqqqqqqqqqqqqqqqqqqqqqqqqqqqq5",
"wwwwwuuwwwwwwuuwwwwwwuuwwwwwwwwwwwwwwwwwwwwwwwwwwwwwwwwwwwwwwwww",
"8555222222222222222;;;;222;;;;;;;;;;;;;;;;;;;;;2;;;;;;;;;;;;;;;;",
"2;;*--*********###;;;;;;;;;##########*2;2255;;;552#######**$$@5#",
".t$;>>>>>>>>>>-+OO8;;;;;;;;O#*;;;;;;X80257005;;000$*;;255600>Oe$",
"Ot*;70000000005*+O9;;;;;;;;#w;222005O522;;;;;;;;;6:sr*6t0000>Oe$",
"Ot*;00000000022;#Ow;2;;;;;;25;;25005O5;;;;;;;;;;;;576#500000>Oe=",
"Ot-;:60000075;;;*Ow;;;;;;;;;;*125005O52;;;;;;;;;;;;;;#270000>Oe=",
"Ot-;;2500006;;56*Ow;;;;;;;;;;*-2202;O52;2;;;;;;;;;;2;O&16667>Oe$",
"Ot=;;2;555328676;Ow;2;;;;;;;;#-222&#+2;;;;;;;;;;;;1*#O&11222;Ow$",
"Ot*222;2222200075;@2*;;;22;;@#1-2-%&**#O2--*-*-****@O+%%--1-#Oe$",
".w$&&-2;;;22222222;##OO+#O+##-;--*+*&&*&OOOOOOOO####****--22&Oe$",
" 8#&&*2;;5555568888q82**;#=656770778666662#*256667877762;;;2&o8#",
".8#;;;;;;0e0000eeeeeee5;;*@syyssassayyyyte5;wtttttttt0087652&O8#",
".8#;5555;we0000000000q5;;;@t7566666665555*;6000e0000000tt062*@e$",
"@9#;0000;60700000000022;;;*#;;;;;;;;;;;;;*000000000000000062#@e$",
"@t;;60002560000000000;55552.2;;;;;;;;;;;#=000760000000000062#@e$",
"Oe=;60002227000000006;70005O2;;;;;;;;;;;$0000656700000000065*@0$",
"Oe=;6000055666666666-;80005;##;;;;;;;;;;$0000062600000000065#@w=",
"Oe=;600005;-;;2;22;-2;60005;##5;;;;;;;;#*600666;566666666622#@e7",
"Ow=;677775;+%*111,&+-;566665;###;;;22##*2255222*;2;;***;2;21#O0:",
"Ow=;;22;;2;;;;;;1&+&-;;1-122;22;2#####;2-*%+&**+&***&%&25222#o6*",
".8*;&&--#*;2006;*##*#-****;2500rr00ttt0521*%%O####&&**;00000*O2*",
".2#778061-22006#0yyyysssssr;5y00700000006####@tsss;115000000#@8=",
"@w:ttttt62;2706#*t000eeee00#2000000000006#wssy8766$;25000006#@t:",
"@p700000t06272;#*t65;222226=;700000000005@;00762;;;6;6000076#@r:",
"Oe:600000082;;@5#8;;;;;;;;70;270000000075@;05;;;;;2;*600002;#@0=",
"@0;700000082;#;28;:66;;;;;22$;600000000;2O*2;;;;;;;*5:00005;#@0$",
"Oq:600000062;ow5;;@22@2;;;;;;2-257000072*O&2;;;2;;;;;=70772-#@0:",
"Ow:>55555222-o6;;##844O66;;@#**-;722;22;@6*2;;22;;;;;@262;-1#@e$",
"Xw;;22222*&**o6#@ou2--225;;$8822;522122;.85;;;;;;;;;;#2;1--1#@e*",
".8=&**&&*&&&*O8;8.8--1*-;*@;0066872;;*-;.8;;-******###2221;2#@e$",
" 2##**&;688885;##*##@:>>>6;;500000;;#80>@5;*:06###;>>707;260>@4@",
".2#;2250ereere0;-22@:#pyyyy-;00522;;Owtr$:#10rr662;00007;e00=#r#",
"@6*;70000000000;-**#5t76556#22322222O8076q050007eq#2222;;000=#w#",
"@w>;60000000006;*Oiw5555;;5#2-22;2-2O8066>00656007#;;22;;700=#0#",
"@8:;60000000006;;ow;;;2;;;;@*#;22552O862556622;567=7;;6e8000=#w#",
"@8:;60000000065;;ow;;;2;;;;;w6;22005O22;;;;;2;;;;56t0#500000=#0#",
"@8:;67000000622;;ow;;;;;;;;;;**;5005O52;;;;;;;;;;;;5;#500000$#0O",
"@8:;;:6700072;22;ow;;;;;;;;;;*&;5752O52;;;;;;;;;222;;@-30000$#0@",
"@8:;222666665257;ow;;;;;;;;;;*&225**O52;;;;;;;;;;;2;;O&12555##0@",
"O8:;22-;22220007;#;#-2222222##*;21+%&*#@2;2222;222-#O++&-222@#0-",
"o2**--;111;2666662;###@##@#%+*--11+,**-##++++O+++##+&&&&--22O%8>",
"o2#++&-2;;2222222252;&%&*%###*;-*##**#;**#%&*;2265556522;-2;+%4-",
"o2*+++%-260tt0677ett0021-**sssdddsssdssdds6;70wew008ee06582-O%4$",
"O2*O*;;2;8t0000000000t82-&Ot0000006000700:=5652;266;7ee00y5*o*q#",
"@2*+20005600000000000222-;Ot0;;;22;;;;;;6=00007;;78500000r2*o*e*",
"#97#8t005500000000000;;;;2#;*;;;2;;;;;;;#*t0007557000000005;O*0$",
"@86;60005227000000000260605O;;;;22;;;;;;$7000000000000000052O*0#",
"@6>*50006527000000072-8t005O2;;;;2;;;;;;$0000000560000000006@*0#",
"@6>*5000062;25555;;2--50005*#*;;;;;;;;;#*7776666766666666665@*0#",
"@6>#30000621122211-12222;222;O;*;;2222*#;222222222222;;222;-O*0#",
"@6>#25552;;;-;;;;;;;;-******;;#@2*######***;####*###########@&0$",
"#2;#;;;;;;;##22222225225666666688@28888888q2#wqw6#w#5wwwwwwww522",
"w5;8qqqq9q96ow8888888888888888666;O866655652ow552o8#%822222;;;;2",
"6;;2;;;;;;;;o8;;;;;;;;;;;;;;;;;;;#O6;;;;;**;ow;;;o8#;5;;;;;;;;;2",
"6;2;;;;;;;;;.8;;;;;#O2;;;222;;;;O+O6;;;;O.&;o9;;;O2*5;;;;;;;####",
"@#2;;;;;;;;;#@*;;;;#O6;;22;2;;;;O#O6;;;;+O*;o9;;;#o2;;;;;;;;@;;#",
"o<2;;;;;;;;;#-+@2;;#O6;;;;;;;;@###O6;;;;+O*;o9;;;#O22;22;;;;@;;#",
"o<222;;;;;;;#-+&5;;#O5;;;;;;;;*--#O6;;;;+##;o9;;;#O22;2;;;;;@;;O",
"o*2222;;;;;;#-+#5;;#O5;;;;;;;;*--#o6;;;;+-*#o9;;;##*;;2;;;;;@;;O",
"o*2222;;;;;;#-+#5;;#O5;;;;;;;;*--#o6;;;;+--*o9;;;#-+@5;;;;;;@;;#",
"o*22;;;;;;;;#-+#5;;#O5;;;;;;;;*-1#o6;22;+***o9;;;#*+#6;;;;;;@**#",
"+*22;2;;;;;;@*#%5;;#o5;;;;;;;;$---O6;;2;@-##O9;;;@###5;;;;;;@=>0"
};
